<svg xmlns="http://www.w3.org/2000/svg" xmlns:xlink="http://www.w3.org/1999/xlink" contentStyleType="text/css" data-diagram-type="DESCRIPTION" height="511px" preserveAspectRatio="none" style="width:2919px;height:511px;background:#FFFFFF;" version="1.1" viewBox="0 0 2919 511" width="2919px" zoomAndPan="magnify"><defs/><g><!--cluster NexusML--><g class="cluster" data-entity="NexusML" data-source-line="13" data-uid="ent0002" id="cluster_NexusML"><path d="M8.5,6 L80.8945,6 A3.75,3.75 0 0 1 83.3945,8.5 L90.3945,28.2969 L2486.5,28.2969 A2.5,2.5 0 0 1 2489,30.7969 L2489,501.69 A2.5,2.5 0 0 1 2486.5,504.19 L8.5,504.19 A2.5,2.5 0 0 1 6,501.69 L6,8.5 A2.5,2.5 0 0 1 8.5,6 " fill="#FFFFFF" style="stroke:#AAAAAA;stroke-width:1.5;"/><line style="stroke:#AAAAAA;stroke-width:1.5;" x1="6" x2="90.3945" y1="28.2969" y2="28.2969"/><text fill="#000000" font-family="sans-serif" font-size="14" font-weight="bold" lengthAdjust="spacing" textLength="71.3945" x="10" y="20.9951">NexusML</text></g><!--cluster Core--><g class="cluster" data-entity="Core" data-source-line="14" data-uid="ent0003" id="cluster_Core"><path d="M32.5,49 L69.792,49 A3.75,3.75 0 0 1 72.292,51.5 L79.292,71.2969 L1078.5,71.2969 A2.5,2.5 0 0 1 1081,73.7969 L1081,477.69 A2.5,2.5 0 0 1 1078.5,480.19 L32.5,480.19 A2.5,2.5 0 0 1 30,477.69 L30,51.5 A2.5,2.5 0 0 1 32.5,49 " fill="#FFFFFF" style="stroke:#AAAAAA;stroke-width:1.5;"/><line style="stroke:#AAAAAA;stroke-width:1.5;" x1="30" x2="79.292" y1="71.2969" y2="71.2969"/><text fill="#000000" font-family="sans-serif" font-size="14" font-weight="bold" lengthAdjust="spacing" textLength="36.292" x="34" y="63.9951">Core</text></g><!--cluster CLI Tools--><g class="cluster" data-entity="CLI Tools" data-source-line="26" data-uid="ent0013" id="cluster_CLI Tools"><path d="M1107.5,49 L1179.6963,49 A3.75,3.75 0 0 1 1182.1963,51.5 L1189.1963,71.2969 L1719.5,71.2969 A2.5,2.5 0 0 1 1722,73.7969 L1722,143.8 A2.5,2.5 0 0 1 1719.5,146.3 L1107.5,146.3 A2.5,2.5 0 0 1 1105,143.8 L1105,51.5 A2.5,2.5 0 0 1 1107.5,49 " fill="#FFFFFF" style="stroke:#AAAAAA;stroke-width:1.5;"/><line style="stroke:#AAAAAA;stroke-width:1.5;" x1="1105" x2="1189.1963" y1="71.2969" y2="71.2969"/><text fill="#000000" font-family="sans-serif" font-size="14" font-weight="bold" lengthAdjust="spacing" textLength="71.1963" x="1109" y="63.9951">CLI Tools</text></g><!--cluster Utils--><g class="cluster" data-entity="Utils" data-source-line="32" data-uid="ent0017" id="cluster_Utils"><path d="M2181.5,49 L2218.4912,49 A3.75,3.75 0 0 1 2220.9912,51.5 L2227.9912,71.2969 L2462.5,71.2969 A2.5,2.5 0 0 1 2465,73.7969 L2465,250.1 A2.5,2.5 0 0 1 2462.5,252.6 L2181.5,252.6 A2.5,2.5 0 0 1 2179,250.1 L2179,51.5 A2.5,2.5 0 0 1 2181.5,49 " fill="#FFFFFF" style="stroke:#AAAAAA;stroke-width:1.5;"/><line style="stroke:#AAAAAA;stroke-width:1.5;" x1="2179" x2="2227.9912" y1="71.2969" y2="71.2969"/><text fill="#000000" font-family="sans-serif" font-size="14" font-weight="bold" lengthAdjust="spacing" textLength="35.9912" x="2183" y="63.9951">Utils</text></g><!--cluster Examples--><g class="cluster" data-entity="Examples" data-source-line="39" data-uid="ent0022" id="cluster_Examples"><path d="M1748.5,49 L1824.7773,49 A3.75,3.75 0 0 1 1827.2773,51.5 L1834.2773,71.2969 L2152.5,71.2969 A2.5,2.5 0 0 1 2155,73.7969 L2155,143.8 A2.5,2.5 0 0 1 2152.5,146.3 L1748.5,146.3 A2.5,2.5 0 0 1 1746,143.8 L1746,51.5 A2.5,2.5 0 0 1 1748.5,49 " fill="#FFFFFF" style="stroke:#AAAAAA;stroke-width:1.5;"/><line style="stroke:#AAAAAA;stroke-width:1.5;" x1="1746" x2="1834.2773" y1="71.2969" y2="71.2969"/><text fill="#000000" font-family="sans-serif" font-size="14" font-weight="bold" lengthAdjust="spacing" textLength="75.2773" x="1750" y="63.9951">Examples</text></g><!--cluster External--><g class="cluster" data-entity="External" data-source-line="46" data-uid="ent0025" id="cluster_External"><path d="M2515.5,276.6 L2582.3984,276.6 A3.75,3.75 0 0 1 2584.8984,279.1 L2591.8984,298.8969 L2909.5,298.8969 A2.5,2.5 0 0 1 2912,301.3969 L2912,371.39 A2.5,2.5 0 0 1 2909.5,373.89 L2515.5,373.89 A2.5,2.5 0 0 1 2513,371.39 L2513,279.1 A2.5,2.5 0 0 1 2515.5,276.6 " fill="#FFFFFF" style="stroke:#AAAAAA;stroke-width:1.5;"/><line style="stroke:#AAAAAA;stroke-width:1.5;" x1="2513" x2="2591.8984" y1="298.8969" y2="298.8969"/><text fill="#000000" font-family="sans-serif" font-size="14" font-weight="bold" lengthAdjust="spacing" textLength="65.8984" x="2517" y="291.5951">External</text></g><!--entity Config--><g class="entity" data-entity="Config" data-source-line="15" data-uid="ent0004" id="entity_Config"><rect fill="#EEEEEE" height="46.2969" rx="2.5" ry="2.5" style="stroke:#999999;stroke-width:0.5;" width="191.6006" x="799.2" y="311.6"/><rect fill="#EEEEEE" height="10" style="stroke:#999999;stroke-width:0.5;" width="15" x="970.8006" y="316.6"/><rect fill="#EEEEEE" height="2" style="stroke:#999999;stroke-width:0.5;" width="4" x="968.8006" y="318.6"/><rect fill="#EEEEEE" height="2" style="stroke:#999999;stroke-width:0.5;" width="4" x="968.8006" y="322.6"/><text fill="#000000" font-family="sans-serif" font-size="14" lengthAdjust="spacing" textLength="151.6006" x="814.2" y="344.5951">Configuration System</text></g><!--entity DI--><g class="entity" data-entity="DI" data-source-line="16" data-uid="ent0005" id="entity_DI"><rect fill="#EEEEEE" height="46.2969" rx="2.5" ry="2.5" style="stroke:#999999;stroke-width:0.5;" width="192.5918" x="816.7" y="417.89"/><rect fill="#EEEEEE" height="10" style="stroke:#999999;stroke-width:0.5;" width="15" x="989.2918" y="422.89"/><rect fill="#EEEEEE" height="2" style="stroke:#999999;stroke-width:0.5;" width="4" x="987.2918" y="424.89"/><rect fill="#EEEEEE" height="2" style="stroke:#999999;stroke-width:0.5;" width="4" x="987.2918" y="428.89"/><text fill="#000000" font-family="sans-serif" font-size="14" lengthAdjust="spacing" textLength="152.5918" x="831.7" y="450.8851">Dependency Injection</text></g><!--entity Pipeline--><g class="entity" data-entity="Pipeline" data-source-line="17" data-uid="ent0006" id="entity_Pipeline"><rect fill="#EEEEEE" height="46.2969" rx="2.5" ry="2.5" style="stroke:#999999;stroke-width:0.5;" width="151.7539" x="913.12" y="190.3"/><rect fill="#EEEEEE" height="10" style="stroke:#999999;stroke-width:0.5;" width="15" x="1044.8739" y="195.3"/><rect fill="#EEEEEE" height="2" style="stroke:#999999;stroke-width:0.5;" width="4" x="1042.8739" y="197.3"/><rect fill="#EEEEEE" height="2" style="stroke:#999999;stroke-width:0.5;" width="4" x="1042.8739" y="201.3"/><text fill="#000000" font-family="sans-serif" font-size="14" lengthAdjust="spacing" textLength="111.7539" x="928.12" y="223.2951">Pipeline System</text></g><!--entity FeatureEng--><g class="entity" data-entity="FeatureEng" data-source-line="18" data-uid="ent0007" id="entity_FeatureEng"><rect fill="#EEEEEE" height="46.2969" rx="2.5" ry="2.5" style="stroke:#999999;stroke-width:0.5;" width="182.4268" x="45.79" y="84"/><rect fill="#EEEEEE" height="10" style="stroke:#999999;stroke-width:0.5;" width="15" x="208.2168" y="89"/><rect fill="#EEEEEE" height="2" style="stroke:#999999;stroke-width:0.5;" width="4" x="206.2168" y="91"/><rect fill="#EEEEEE" height="2" style="stroke:#999999;stroke-width:0.5;" width="4" x="206.2168" y="95"/><text fill="#000000" font-family="sans-serif" font-size="14" lengthAdjust="spacing" textLength="142.4268" x="60.79" y="116.9951">Feature Engineering</text></g><!--entity ModelBuild--><g class="entity" data-entity="ModelBuild" data-source-line="19" data-uid="ent0008" id="entity_ModelBuild"><rect fill="#EEEEEE" height="46.2969" rx="2.5" ry="2.5" style="stroke:#999999;stroke-width:0.5;" width="143.2773" x="263.36" y="84"/><rect fill="#EEEEEE" height="10" style="stroke:#999999;stroke-width:0.5;" width="15" x="386.6373" y="89"/><rect fill="#EEEEEE" height="2" style="stroke:#999999;stroke-width:0.5;" width="4" x="384.6373" y="91"/><rect fill="#EEEEEE" height="2" style="stroke:#999999;stroke-width:0.5;" width="4" x="384.6373" y="95"/><text fill="#000000" font-family="sans-serif" font-size="14" lengthAdjust="spacing" textLength="103.2773" x="278.36" y="116.9951">Model Building</text></g><!--entity ModelTrain--><g class="entity" data-entity="ModelTrain" data-source-line="20" data-uid="ent0009" id="entity_ModelTrain"><rect fill="#EEEEEE" height="46.2969" rx="2.5" ry="2.5" style="stroke:#999999;stroke-width:0.5;" width="143.7832" x="442.11" y="84"/><rect fill="#EEEEEE" height="10" style="stroke:#999999;stroke-width:0.5;" width="15" x="565.8932" y="89"/><rect fill="#EEEEEE" height="2" style="stroke:#999999;stroke-width:0.5;" width="4" x="563.8932" y="91"/><rect fill="#EEEEEE" height="2" style="stroke:#999999;stroke-width:0.5;" width="4" x="563.8932" y="95"/><text fill="#000000" font-family="sans-serif" font-size="14" lengthAdjust="spacing" textLength="103.7832" x="457.11" y="116.9951">Model Training</text></g><!--entity Predict--><g class="entity" data-entity="Predict" data-source-line="21" data-uid="ent0010" id="entity_Predict"><rect fill="#EEEEEE" height="46.2969" rx="2.5" ry="2.5" style="stroke:#999999;stroke-width:0.5;" width="110.1025" x="620.95" y="84"/><rect fill="#EEEEEE" height="10" style="stroke:#999999;stroke-width:0.5;" width="15" x="711.0525" y="89"/><rect fill="#EEEEEE" height="2" style="stroke:#999999;stroke-width:0.5;" width="4" x="709.0525" y="91"/><rect fill="#EEEEEE" height="2" style="stroke:#999999;stroke-width:0.5;" width="4" x="709.0525" y="95"/><text fill="#000000" font-family="sans-serif" font-size="14" lengthAdjust="spacing" textLength="70.1025" x="635.95" y="116.9951">Prediction</text></g><!--entity Eval--><g class="entity" data-entity="Eval" data-source-line="22" data-uid="ent0011" id="entity_Eval"><rect fill="#EEEEEE" height="46.2969" rx="2.5" ry="2.5" style="stroke:#999999;stroke-width:0.5;" width="113.8691" x="766.07" y="84"/><rect fill="#EEEEEE" height="10" style="stroke:#999999;stroke-width:0.5;" width="15" x="859.9391" y="89"/><rect fill="#EEEEEE" height="2" style="stroke:#999999;stroke-width:0.5;" width="4" x="857.9391" y="91"/><rect fill="#EEEEEE" height="2" style="stroke:#999999;stroke-width:0.5;" width="4" x="857.9391" y="95"/><text fill="#000000" font-family="sans-serif" font-size="14" lengthAdjust="spacing" textLength="73.8691" x="781.07" y="116.9951">Evaluation</text></g><!--entity RefData--><g class="entity" data-entity="RefData" data-source-line="23" data-uid="ent0012" id="entity_RefData"><rect fill="#EEEEEE" height="46.2969" rx="2.5" ry="2.5" style="stroke:#999999;stroke-width:0.5;" width="149.3135" x="915.34" y="84"/><rect fill="#EEEEEE" height="10" style="stroke:#999999;stroke-width:0.5;" width="15" x="1044.6535" y="89"/><rect fill="#EEEEEE" height="2" style="stroke:#999999;stroke-width:0.5;" width="4" x="1042.6535" y="91"/><rect fill="#EEEEEE" height="2" style="stroke:#999999;stroke-width:0.5;" width="4" x="1042.6535" y="95"/><text fill="#000000" font-family="sans-serif" font-size="14" lengthAdjust="spacing" textLength="109.3135" x="930.34" y="116.9951">Reference Data</text></g><!--entity TrainCLI--><g class="entity" data-entity="TrainCLI" data-source-line="27" data-uid="ent0014" id="entity_TrainCLI"><rect fill="#EEEEEE" height="46.2969" rx="2.5" ry="2.5" style="stroke:#999999;stroke-width:0.5;" width="207.3438" x="1121.33" y="84"/><rect fill="#EEEEEE" height="10" style="stroke:#999999;stroke-width:0.5;" width="15" x="1308.6738" y="89"/><rect fill="#EEEEEE" height="2" style="stroke:#999999;stroke-width:0.5;" width="4" x="1306.6738" y="91"/><rect fill="#EEEEEE" height="2" style="stroke:#999999;stroke-width:0.5;" width="4" x="1306.6738" y="95"/><text fill="#000000" font-family="sans-serif" font-size="14" lengthAdjust="spacing" textLength="167.3438" x="1136.33" y="116.9951">train_model_pipeline.py</text></g><!--entity PredictCLI--><g class="entity" data-entity="PredictCLI" data-source-line="28" data-uid="ent0015" id="entity_PredictCLI"><rect fill="#EEEEEE" height="46.2969" rx="2.5" ry="2.5" style="stroke:#999999;stroke-width:0.5;" width="110.8408" x="1363.58" y="84"/><rect fill="#EEEEEE" height="10" style="stroke:#999999;stroke-width:0.5;" width="15" x="1454.4208" y="89"/><rect fill="#EEEEEE" height="2" style="stroke:#999999;stroke-width:0.5;" width="4" x="1452.4208" y="91"/><rect fill="#EEEEEE" height="2" style="stroke:#999999;stroke-width:0.5;" width="4" x="1452.4208" y="95"/><text fill="#000000" font-family="sans-serif" font-size="14" lengthAdjust="spacing" textLength="70.8408" x="1378.58" y="116.9951">predict.py</text></g><!--entity ClassifyCLI--><g class="entity" data-entity="ClassifyCLI" data-source-line="29" data-uid="ent0016" id="entity_ClassifyCLI"><rect fill="#EEEEEE" height="46.2969" rx="2.5" ry="2.5" style="stroke:#999999;stroke-width:0.5;" width="196.2422" x="1509.88" y="84"/><rect fill="#EEEEEE" height="10" style="stroke:#999999;stroke-width:0.5;" width="15" x="1686.1222" y="89"/><rect fill="#EEEEEE" height="2" style="stroke:#999999;stroke-width:0.5;" width="4" x="1684.1222" y="91"/><rect fill="#EEEEEE" height="2" style="stroke:#999999;stroke-width:0.5;" width="4" x="1684.1222" y="95"/><text fill="#000000" font-family="sans-serif" font-size="14" lengthAdjust="spacing" textLength="156.2422" x="1524.88" y="116.9951">classify_equipment.py</text></g><!--entity Log--><g class="entity" data-entity="Log" data-source-line="33" data-uid="ent0018" id="entity_Log"><rect fill="#EEEEEE" height="46.2969" rx="2.5" ry="2.5" style="stroke:#999999;stroke-width:0.5;" width="95.7881" x="2203.11" y="84"/><rect fill="#EEEEEE" height="10" style="stroke:#999999;stroke-width:0.5;" width="15" x="2278.8981" y="89"/><rect fill="#EEEEEE" height="2" style="stroke:#999999;stroke-width:0.5;" width="4" x="2276.8981" y="91"/><rect fill="#EEEEEE" height="2" style="stroke:#999999;stroke-width:0.5;" width="4" x="2276.8981" y="95"/><text fill="#000000" font-family="sans-serif" font-size="14" lengthAdjust="spacing" textLength="55.7881" x="2218.11" y="116.9951">Logging</text></g><!--entity CSV--><g class="entity" data-entity="CSV" data-source-line="34" data-uid="ent0019" id="entity_CSV"><rect fill="#EEEEEE" height="46.2969" rx="2.5" ry="2.5" style="stroke:#999999;stroke-width:0.5;" width="103.499" x="2334.25" y="84"/><rect fill="#EEEEEE" height="10" style="stroke:#999999;stroke-width:0.5;" width="15" x="2417.749" y="89"/><rect fill="#EEEEEE" height="2" style="stroke:#999999;stroke-width:0.5;" width="4" x="2415.749" y="91"/><rect fill="#EEEEEE" height="2" style="stroke:#999999;stroke-width:0.5;" width="4" x="2415.749" y="95"/><text fill="#000000" font-family="sans-serif" font-size="14" lengthAdjust="spacing" textLength="63.499" x="2349.25" y="116.9951">CSV Utils</text></g><!--entity Excel--><g class="entity" data-entity="Excel" data-source-line="35" data-uid="ent0020" id="entity_Excel"><rect fill="#EEEEEE" height="46.2969" rx="2.5" ry="2.5" style="stroke:#999999;stroke-width:0.5;" width="112.5908" x="2194.7" y="190.3"/><rect fill="#EEEEEE" height="10" style="stroke:#999999;stroke-width:0.5;" width="15" x="2287.2908" y="195.3"/><rect fill="#EEEEEE" height="2" style="stroke:#999999;stroke-width:0.5;" width="4" x="2285.2908" y="197.3"/><rect fill="#EEEEEE" height="2" style="stroke:#999999;stroke-width:0.5;" width="4" x="2285.2908" y="201.3"/><text fill="#000000" font-family="sans-serif" font-size="14" lengthAdjust="spacing" textLength="72.5908" x="2209.7" y="223.2951">Excel Utils</text></g><!--entity Path--><g class="entity" data-entity="Path" data-source-line="36" data-uid="ent0021" id="entity_Path"><rect fill="#EEEEEE" height="46.2969" rx="2.5" ry="2.5" style="stroke:#999999;stroke-width:0.5;" width="106.6436" x="2342.68" y="190.3"/><rect fill="#EEEEEE" height="10" style="stroke:#999999;stroke-width:0.5;" width="15" x="2429.3236" y="195.3"/><rect fill="#EEEEEE" height="2" style="stroke:#999999;stroke-width:0.5;" width="4" x="2427.3236" y="197.3"/><rect fill="#EEEEEE" height="2" style="stroke:#999999;stroke-width:0.5;" width="4" x="2427.3236" y="201.3"/><text fill="#000000" font-family="sans-serif" font-size="14" lengthAdjust="spacing" textLength="66.6436" x="2357.68" y="223.2951">Path Utils</text></g><!--entity SimpleEx--><g class="entity" data-entity="SimpleEx" data-source-line="40" data-uid="ent0023" id="entity_SimpleEx"><rect fill="#EEEEEE" height="46.2969" rx="2.5" ry="2.5" style="stroke:#999999;stroke-width:0.5;" width="160.2852" x="1761.86" y="84"/><rect fill="#EEEEEE" height="10" style="stroke:#999999;stroke-width:0.5;" width="15" x="1902.1452" y="89"/><rect fill="#EEEEEE" height="2" style="stroke:#999999;stroke-width:0.5;" width="4" x="1900.1452" y="91"/><rect fill="#EEEEEE" height="2" style="stroke:#999999;stroke-width:0.5;" width="4" x="1900.1452" y="95"/><text fill="#000000" font-family="sans-serif" font-size="14" lengthAdjust="spacing" textLength="120.2852" x="1776.86" y="116.9951">Simple Examples</text></g><!--entity AdvEx--><g class="entity" data-entity="AdvEx" data-source-line="41" data-uid="ent0024" id="entity_AdvEx"><rect fill="#EEEEEE" height="46.2969" rx="2.5" ry="2.5" style="stroke:#999999;stroke-width:0.5;" width="181.8799" x="1957.06" y="84"/><rect fill="#EEEEEE" height="10" style="stroke:#999999;stroke-width:0.5;" width="15" x="2118.9399" y="89"/><rect fill="#EEEEEE" height="2" style="stroke:#999999;stroke-width:0.5;" width="4" x="2116.9399" y="91"/><rect fill="#EEEEEE" height="2" style="stroke:#999999;stroke-width:0.5;" width="4" x="2116.9399" y="95"/><text fill="#000000" font-family="sans-serif" font-size="14" lengthAdjust="spacing" textLength="141.8799" x="1972.06" y="116.9951">Advanced Examples</text></g><!--entity SKLearn--><g class="entity" data-entity="SKLearn" data-source-line="47" data-uid="ent0026" id="entity_SKLearn"><rect fill="#EEEEEE" height="46.2969" rx="2.5" ry="2.5" style="stroke:#999999;stroke-width:0.5;" width="117.1299" x="2529.44" y="311.6"/><rect fill="#EEEEEE" height="10" style="stroke:#999999;stroke-width:0.5;" width="15" x="2626.5699" y="316.6"/><rect fill="#EEEEEE" height="2" style="stroke:#999999;stroke-width:0.5;" width="4" x="2624.5699" y="318.6"/><rect fill="#EEEEEE" height="2" style="stroke:#999999;stroke-width:0.5;" width="4" x="2624.5699" y="322.6"/><text fill="#000000" font-family="sans-serif" font-size="14" lengthAdjust="spacing" textLength="77.1299" x="2544.44" y="344.5951">scikit-learn</text></g><!--entity Pandas--><g class="entity" data-entity="Pandas" data-source-line="48" data-uid="ent0027" id="entity_Pandas"><rect fill="#EEEEEE" height="46.2969" rx="2.5" ry="2.5" style="stroke:#999999;stroke-width:0.5;" width="91.0986" x="2681.45" y="311.6"/><rect fill="#EEEEEE" height="10" style="stroke:#999999;stroke-width:0.5;" width="15" x="2752.5486" y="316.6"/><rect fill="#EEEEEE" height="2" style="stroke:#999999;stroke-width:0.5;" width="4" x="2750.5486" y="318.6"/><rect fill="#EEEEEE" height="2" style="stroke:#999999;stroke-width:0.5;" width="4" x="2750.5486" y="322.6"/><text fill="#000000" font-family="sans-serif" font-size="14" lengthAdjust="spacing" textLength="51.0986" x="2696.45" y="344.5951">pandas</text></g><!--entity Numpy--><g class="entity" data-entity="Numpy" data-source-line="49" data-uid="ent0028" id="entity_Numpy"><rect fill="#EEEEEE" height="46.2969" rx="2.5" ry="2.5" style="stroke:#999999;stroke-width:0.5;" width="88.5557" x="2807.72" y="311.6"/><rect fill="#EEEEEE" height="10" style="stroke:#999999;stroke-width:0.5;" width="15" x="2876.2757" y="316.6"/><rect fill="#EEEEEE" height="2" style="stroke:#999999;stroke-width:0.5;" width="4" x="2874.2757" y="318.6"/><rect fill="#EEEEEE" height="2" style="stroke:#999999;stroke-width:0.5;" width="4" x="2874.2757" y="322.6"/><text fill="#000000" font-family="sans-serif" font-size="14" lengthAdjust="spacing" textLength="48.5557" x="2822.72" y="344.5951">numpy</text></g><!--reverse link Config to DI--><g class="link" data-entity-1="Config" data-entity-2="DI" data-source-line="53" data-uid="lnk29" id="link_Config_DI"><path d="M899.9276,364.2931 C902.9376,381.7831 906.08,399.97 909.1,417.45 " fill="none" id="Config-backto-DI" style="stroke:#666666;stroke-width:1;"/><polygon fill="#666666" points="898.91,358.38,896.4944,367.928,899.758,363.3076,904.3785,366.5712,898.91,358.38" style="stroke:#666666;stroke-width:1;"/></g><!--link Pipeline to DI--><g class="link" data-entity-1="Pipeline" data-entity-2="DI" data-source-line="54" data-uid="lnk30" id="link_Pipeline_DI"><path d="M999.49,236.97 C1013.56,270.76 1033.96,335.57 1008,381.89 C999.49,397.08 990.3911,405.727 975.4711,414.507 " fill="none" id="Pipeline-to-DI" style="stroke:#666666;stroke-width:1;"/><polygon fill="#666666" points="970.3,417.55,980.0853,416.4328,974.6092,415.0141,976.0279,409.5381,970.3,417.55" style="stroke:#666666;stroke-width:1;"/></g><!--link Pipeline to Config--><g class="link" data-entity-1="Pipeline" data-entity-2="Config" data-source-line="55" data-uid="lnk31" id="link_Pipeline_Config"><path d="M971.32,236.89 C954.51,258.22 933.093,285.3969 916.313,306.6969 " fill="none" id="Pipeline-to-Config" style="stroke:#666666;stroke-width:1;"/><polygon fill="#666666" points="912.6,311.41,921.3116,306.8156,915.6942,307.4824,915.0274,301.865,912.6,311.41" style="stroke:#666666;stroke-width:1;"/></g><!--link FeatureEng to Pipeline--><g class="link" data-entity-1="FeatureEng" data-entity-2="Pipeline" data-source-line="56" data-uid="lnk32" id="link_FeatureEng_Pipeline"><path d="M181.23,130.71 C200.62,139.58 223.94,148.92 246,154.3 C370.91,184.78 743.7149,202.7368 906.8949,209.3568 " fill="none" id="FeatureEng-to-Pipeline" style="stroke:#666666;stroke-width:1;"/><polygon fill="#666666" points="912.89,209.6,904.0595,205.2385,907.8941,209.3973,903.7353,213.2319,912.89,209.6" style="stroke:#666666;stroke-width:1;"/></g><!--link ModelBuild to Pipeline--><g class="link" data-entity-1="ModelBuild" data-entity-2="Pipeline" data-source-line="57" data-uid="lnk33" id="link_ModelBuild_Pipeline"><path d="M371.36,130.7 C387.26,139.52 406.48,148.81 425,154.3 C514.42,180.81 774.5113,199.5713 906.7113,207.7113 " fill="none" id="ModelBuild-to-Pipeline" style="stroke:#666666;stroke-width:1;"/><polygon fill="#666666" points="912.7,208.08,903.9628,203.5344,907.7095,207.7727,903.4712,211.5193,912.7,208.08" style="stroke:#666666;stroke-width:1;"/></g><!--link ModelTrain to Pipeline--><g class="link" data-entity-1="ModelTrain" data-entity-2="Pipeline" data-source-line="58" data-uid="lnk34" id="link_ModelTrain_Pipeline"><path d="M550.92,130.77 C566.49,139.37 585.12,148.49 603,154.3 C707.26,188.15 827.8868,201.9914 906.9768,207.9214 " fill="none" id="ModelTrain-to-Pipeline" style="stroke:#666666;stroke-width:1;"/><polygon fill="#666666" points="912.96,208.37,904.2843,203.7083,907.974,207.9962,903.6861,211.6859,912.96,208.37" style="stroke:#666666;stroke-width:1;"/></g><!--link Predict to Pipeline--><g class="link" data-entity-1="Predict" data-entity-2="Pipeline" data-source-line="59" data-uid="lnk35" id="link_Predict_Pipeline"><path d="M706.74,130.73 C719.33,139.12 734.37,148.1 749,154.3 C801.6,176.58 858.5744,190.3055 906.7644,199.4155 " fill="none" id="Predict-to-Pipeline" style="stroke:#666666;stroke-width:1;"/><polygon fill="#666666" points="912.66,200.53,904.5596,194.9278,907.747,199.6012,903.0736,202.7886,912.66,200.53" style="stroke:#666666;stroke-width:1;"/></g><!--link Eval to Pipeline--><g class="link" data-entity-1="Eval" data-entity-2="Pipeline" data-source-line="60" data-uid="lnk36" id="link_Eval_Pipeline"><path d="M859.02,130.78 C886.86,148.28 920.1391,169.1887 947.9691,186.6687 " fill="none" id="Eval-to-Pipeline" style="stroke:#666666;stroke-width:1;"/><polygon fill="#666666" points="953.05,189.86,947.5562,181.6858,948.8159,187.2006,943.3011,188.4603,953.05,189.86" style="stroke:#666666;stroke-width:1;"/></g><!--link RefData to Pipeline--><g class="link" data-entity-1="RefData" data-entity-2="Pipeline" data-source-line="61" data-uid="lnk37" id="link_RefData_Pipeline"><path d="M989.78,130.78 C989.62,148.28 989.4349,166.3803 989.2749,183.8603 " fill="none" id="RefData-to-Pipeline" style="stroke:#666666;stroke-width:1;"/><polygon fill="#666666" points="989.22,189.86,993.3022,180.897,989.2658,184.8602,985.3025,180.8238,989.22,189.86" style="stroke:#666666;stroke-width:1;"/></g><!--link TrainCLI to Pipeline--><g class="link" data-entity-1="TrainCLI" data-entity-2="Pipeline" data-source-line="63" data-uid="lnk38" id="link_TrainCLI_Pipeline"><path d="M1173.79,130.78 C1134.21,148.28 1085.1581,169.955 1045.5981,187.435 " fill="none" id="TrainCLI-to-Pipeline" style="stroke:#666666;stroke-width:1;"/><polygon fill="#666666" points="1040.11,189.86,1049.9588,189.8813,1044.6834,187.8392,1046.7255,182.5638,1040.11,189.86" style="stroke:#666666;stroke-width:1;"/></g><!--link PredictCLI to Pipeline--><g class="link" data-entity-1="PredictCLI" data-entity-2="Pipeline" data-source-line="64" data-uid="lnk39" id="link_PredictCLI_Pipeline"><path d="M1389.55,130.59 C1376.78,139.28 1361.28,148.5 1346,154.3 C1253.23,189.49 1144.9735,202.9454 1071.0935,208.4354 " fill="none" id="PredictCLI-to-Pipeline" style="stroke:#666666;stroke-width:1;"/><polygon fill="#666666" points="1065.11,208.88,1074.3817,212.2021,1070.0963,208.5095,1073.7888,204.224,1065.11,208.88" style="stroke:#666666;stroke-width:1;"/></g><!--link ClassifyCLI to Pipeline--><g class="link" data-entity-1="ClassifyCLI" data-entity-2="Pipeline" data-source-line="65" data-uid="lnk40" id="link_ClassifyCLI_Pipeline"><path d="M1559.56,130.73 C1539.11,139.39 1514.8,148.55 1492,154.3 C1343.68,191.68 1170.6031,204.8227 1071.1031,209.5927 " fill="none" id="ClassifyCLI-to-Pipeline" style="stroke:#666666;stroke-width:1;"/><polygon fill="#666666" points="1065.11,209.88,1074.2912,213.4444,1070.1043,209.6406,1073.9081,205.4536,1065.11,209.88" style="stroke:#666666;stroke-width:1;"/></g><!--link Pipeline to SKLearn--><g class="link" data-entity-1="Pipeline" data-entity-2="SKLearn" data-source-line="67" data-uid="lnk41" id="link_Pipeline_SKLearn"><path d="M1065.32,220.14 C1341.24,240.73 2277.7066,310.5937 2523.1766,328.9037 " fill="none" id="Pipeline-to-SKLearn" style="stroke:#666666;stroke-width:1;"/><polygon fill="#666666" points="2529.16,329.35,2520.4825,324.6916,2524.1739,328.9781,2519.8874,332.6695,2529.16,329.35" style="stroke:#666666;stroke-width:1;"/></g><!--link Pipeline to Pandas--><g class="link" data-entity-1="Pipeline" data-entity-2="Pandas" data-source-line="68" data-uid="lnk42" id="link_Pipeline_Pandas"><path d="M1065.2,217.99 C1253.92,226.64 1758.16,248.97 2179,260.6 C2205.94,261.34 2639.28,257.87 2664,268.6 C2684.21,277.36 2697.5751,291.2113 2708.7851,306.3213 " fill="none" id="Pipeline-to-Pandas" style="stroke:#666666;stroke-width:1;"/><polygon fill="#666666" points="2712.36,311.14,2710.21,301.5287,2709.3809,307.1244,2703.7851,306.2953,2712.36,311.14" style="stroke:#666666;stroke-width:1;"/></g><!--link Pipeline to Numpy--><g class="link" data-entity-1="Pipeline" data-entity-2="Numpy" data-source-line="69" data-uid="lnk43" id="link_Pipeline_Numpy"><path d="M1065.2,218.08 C1253.91,226.93 1758.14,249.68 2179,260.6 C2195.97,261.04 2774.44,261.81 2790,268.6 C2810.03,277.34 2823.1708,291.1577 2834.1608,306.2677 " fill="none" id="Pipeline-to-Numpy" style="stroke:#666666;stroke-width:1;"/><polygon fill="#666666" points="2837.69,311.12,2835.631,301.4888,2834.749,307.0764,2829.1613,306.1944,2837.69,311.12" style="stroke:#666666;stroke-width:1;"/></g><!--link SimpleEx to Pipeline--><g class="link" data-entity-1="SimpleEx" data-entity-2="Pipeline" data-source-line="71" data-uid="lnk44" id="link_SimpleEx_Pipeline"><path d="M1792.79,130.76 C1771.47,139.58 1745.94,148.87 1722,154.3 C1598.6,182.3 1232.7238,201.5365 1071.2338,208.9065 " fill="none" id="SimpleEx-to-Pipeline" style="stroke:#666666;stroke-width:1;"/><polygon fill="#666666" points="1065.24,209.18,1074.413,212.7655,1070.2348,208.952,1074.0483,204.7738,1065.24,209.18" style="stroke:#666666;stroke-width:1;"/></g><!--link AdvEx to Pipeline--><g class="link" data-entity-1="AdvEx" data-entity-2="Pipeline" data-source-line="72" data-uid="lnk45" id="link_AdvEx_Pipeline"><path d="M2004.5,130.78 C1985.25,139.72 1962.02,149.09 1940,154.3 C1774.31,193.52 1266.0688,207.151 1071.0388,211.021 " fill="none" id="AdvEx-to-Pipeline" style="stroke:#666666;stroke-width:1;"/><polygon fill="#666666" points="1065.04,211.14,1074.1176,214.9607,1070.039,211.0408,1073.9589,206.9622,1065.04,211.14" style="stroke:#666666;stroke-width:1;"/></g><!--SRC=[RPJVQzim4CVV_LU8zg5FsSCU1eCnI1qNmf9GwgulOmJLlZXQPCcJv3PXz7-VViQMBK50-jxdpgVJNUvGgIuKK0q7meWYdCbCdWZhiC0jgdZRSGPCEQXlwUUHzHLNfqRmdjKvfroWzoDHCB8lXU3lpdJxnQwHCG-XxxceGNZigrr9RFAnsyAk4Vge2Tp037omAm6EFxoqQmJjk4g7olCfbRX0TeUscB2XW3Bht5VHpGxElTnkRj2_3A6hcdC1JaA35_gLStOWJI-mUHfKNgI2zZV24Zd355z11wm6LbtGcls1odXPVBMUee-a0qeOZ8C6RSe-05Qz05ImHbj14DPOtkjQddfiUGqKtVU4rW6sabNIyBFG5OjWgypo5b2JuMB-EAMADqnxVANCSOeymG64BXMW5LROObeoUqr-w5_qF9irUkQSoiGRAPFclZKPxpjVmK_TnKQqLz3EKv_EfHqmVui4M54i9JbSzl2t9rshjU2JUujpcYRyKv5aiXlUDA78UZ_hj_85MLVtYV9bLjXpfTzgGEnvzaPO7KUCEIPIBCwuxIYaiYo9iQ10s2XEAyvJTbc_OVsATKnhrQ8VsOUPnkAiG31CzH-Tdn02evaCPfVAABYio8ce1GKiN2ULFpPc7rCTPZKETpNRsCpwrh_PpknSHaz0RN_A8-baviOPVLiipAXUPtEn-3ux-yaVPi-grz4TnYoXstQCTTzwiMZc9LRyQCHY5jex6NAcZpfs4YUwO2Xn9FgwHfghPXOQ8uvf6o2I_WC0]--></g></svg>