<svg xmlns="http://www.w3.org/2000/svg" xmlns:xlink="http://www.w3.org/1999/xlink" contentStyleType="text/css" data-diagram-type="DESCRIPTION" height="569px" preserveAspectRatio="none" style="width:2057px;height:569px;background:#FFFFFF;" version="1.1" viewBox="0 0 2057 569" width="2057px" zoomAndPan="magnify"><title>NexusML Component Relationships</title><defs/><g><text fill="#000000" font-family="sans-serif" font-size="14" font-weight="bold" lengthAdjust="spacing" textLength="278.4346" x="882.7363" y="22.9951">NexusML Component Relationships</text><!--entity IDataLoader--><g class="entity" data-entity="IDataLoader" data-source-line="16" data-uid="ent0002" id="entity_IDataLoader"><ellipse cx="1785.98" cy="427.1869" fill="#EEEEEE" rx="8" ry="8" style="stroke:#999999;stroke-width:0.5;"/><text fill="#000000" font-family="sans-serif" font-size="14" lengthAdjust="spacing" textLength="81.6279" x="1745.166" y="457.182">DataLoader</text></g><!--entity IDataPreprocessor--><g class="entity" data-entity="IDataPreprocessor" data-source-line="17" data-uid="ent0003" id="entity_IDataPreprocessor"><ellipse cx="1317.98" cy="427.1869" fill="#EEEEEE" rx="8" ry="8" style="stroke:#999999;stroke-width:0.5;"/><text fill="#000000" font-family="sans-serif" font-size="14" lengthAdjust="spacing" textLength="124.667" x="1255.6465" y="457.182">DataPreprocessor</text></g><!--entity IFeatureEngineer--><g class="entity" data-entity="IFeatureEngineer" data-source-line="18" data-uid="ent0004" id="entity_IFeatureEngineer"><ellipse cx="1127.98" cy="427.1869" fill="#EEEEEE" rx="8" ry="8" style="stroke:#999999;stroke-width:0.5;"/><text fill="#000000" font-family="sans-serif" font-size="14" lengthAdjust="spacing" textLength="116.3271" x="1069.8164" y="457.182">FeatureEngineer</text></g><!--entity IModelBuilder--><g class="entity" data-entity="IModelBuilder" data-source-line="19" data-uid="ent0005" id="entity_IModelBuilder"><ellipse cx="879.98" cy="427.1869" fill="#EEEEEE" rx="8" ry="8" style="stroke:#999999;stroke-width:0.5;"/><text fill="#000000" font-family="sans-serif" font-size="14" lengthAdjust="spacing" textLength="91.5469" x="834.2066" y="457.182">ModelBuilder</text></g><!--entity IModelTrainer--><g class="entity" data-entity="IModelTrainer" data-source-line="20" data-uid="ent0006" id="entity_IModelTrainer"><ellipse cx="205.98" cy="427.1869" fill="#EEEEEE" rx="8" ry="8" style="stroke:#999999;stroke-width:0.5;"/><text fill="#000000" font-family="sans-serif" font-size="14" lengthAdjust="spacing" textLength="92.0527" x="159.9536" y="457.182">ModelTrainer</text></g><!--entity IModelEvaluator--><g class="entity" data-entity="IModelEvaluator" data-source-line="21" data-uid="ent0007" id="entity_IModelEvaluator"><ellipse cx="663.98" cy="427.1869" fill="#EEEEEE" rx="8" ry="8" style="stroke:#999999;stroke-width:0.5;"/><text fill="#000000" font-family="sans-serif" font-size="14" lengthAdjust="spacing" textLength="108.8965" x="609.5318" y="457.182">ModelEvaluator</text></g><!--entity IModelSerializer--><g class="entity" data-entity="IModelSerializer" data-source-line="22" data-uid="ent0008" id="entity_IModelSerializer"><ellipse cx="355.98" cy="427.1869" fill="#EEEEEE" rx="8" ry="8" style="stroke:#999999;stroke-width:0.5;"/><text fill="#000000" font-family="sans-serif" font-size="14" lengthAdjust="spacing" textLength="107.2559" x="302.3521" y="457.182">ModelSerializer</text></g><!--entity IPredictor--><g class="entity" data-entity="IPredictor" data-source-line="23" data-uid="ent0009" id="entity_IPredictor"><ellipse cx="490.98" cy="427.1869" fill="#EEEEEE" rx="8" ry="8" style="stroke:#999999;stroke-width:0.5;"/><text fill="#000000" font-family="sans-serif" font-size="14" lengthAdjust="spacing" textLength="63.0957" x="459.4321" y="457.182">Predictor</text></g><!--entity Registry--><g class="entity" data-entity="Registry" data-source-line="26" data-uid="ent0010" id="entity_Registry"><rect fill="#EEEEEE" height="46.2969" rx="2.5" ry="2.5" style="stroke:#999999;stroke-width:0.5;" width="179.2207" x="593.37" y="290.8969"/><rect fill="#EEEEEE" height="10" style="stroke:#999999;stroke-width:0.5;" width="15" x="752.5907" y="295.8969"/><rect fill="#EEEEEE" height="2" style="stroke:#999999;stroke-width:0.5;" width="4" x="750.5907" y="297.8969"/><rect fill="#EEEEEE" height="2" style="stroke:#999999;stroke-width:0.5;" width="4" x="750.5907" y="301.8969"/><text fill="#000000" font-family="sans-serif" font-size="14" lengthAdjust="spacing" textLength="139.2207" x="608.37" y="323.892">ComponentRegistry</text></g><!--entity Factory--><g class="entity" data-entity="Factory" data-source-line="27" data-uid="ent0011" id="entity_Factory"><rect fill="#EEEEEE" height="46.2969" rx="2.5" ry="2.5" style="stroke:#999999;stroke-width:0.5;" width="147.5225" x="795.22" y="167.5969"/><rect fill="#EEEEEE" height="10" style="stroke:#999999;stroke-width:0.5;" width="15" x="922.7425" y="172.5969"/><rect fill="#EEEEEE" height="2" style="stroke:#999999;stroke-width:0.5;" width="4" x="920.7425" y="174.5969"/><rect fill="#EEEEEE" height="2" style="stroke:#999999;stroke-width:0.5;" width="4" x="920.7425" y="178.5969"/><text fill="#000000" font-family="sans-serif" font-size="14" lengthAdjust="spacing" textLength="107.5225" x="810.22" y="200.592">PipelineFactory</text></g><!--entity Orchestrator--><g class="entity" data-entity="Orchestrator" data-source-line="28" data-uid="ent0012" id="entity_Orchestrator"><rect fill="#EEEEEE" height="46.2969" rx="2.5" ry="2.5" style="stroke:#999999;stroke-width:0.5;" width="183.9854" x="992.98" y="44.2969"/><rect fill="#EEEEEE" height="10" style="stroke:#999999;stroke-width:0.5;" width="15" x="1156.9654" y="49.2969"/><rect fill="#EEEEEE" height="2" style="stroke:#999999;stroke-width:0.5;" width="4" x="1154.9654" y="51.2969"/><rect fill="#EEEEEE" height="2" style="stroke:#999999;stroke-width:0.5;" width="4" x="1154.9654" y="55.2969"/><text fill="#000000" font-family="sans-serif" font-size="14" lengthAdjust="spacing" textLength="143.9854" x="1007.98" y="77.292">PipelineOrchestrator</text></g><!--entity Context--><g class="entity" data-entity="Context" data-source-line="29" data-uid="ent0013" id="entity_Context"><rect fill="#EEEEEE" height="46.2969" rx="2.5" ry="2.5" style="stroke:#999999;stroke-width:0.5;" width="150.1885" x="1370.88" y="167.5969"/><rect fill="#EEEEEE" height="10" style="stroke:#999999;stroke-width:0.5;" width="15" x="1501.0685" y="172.5969"/><rect fill="#EEEEEE" height="2" style="stroke:#999999;stroke-width:0.5;" width="4" x="1499.0685" y="174.5969"/><rect fill="#EEEEEE" height="2" style="stroke:#999999;stroke-width:0.5;" width="4" x="1499.0685" y="178.5969"/><text fill="#000000" font-family="sans-serif" font-size="14" lengthAdjust="spacing" textLength="110.1885" x="1385.88" y="200.592">PipelineContext</text></g><!--entity Container--><g class="entity" data-entity="Container" data-source-line="30" data-uid="ent0014" id="entity_Container"><rect fill="#EEEEEE" height="46.2969" rx="2.5" ry="2.5" style="stroke:#999999;stroke-width:0.5;" width="123.3232" x="807.32" y="290.8969"/><rect fill="#EEEEEE" height="10" style="stroke:#999999;stroke-width:0.5;" width="15" x="910.6432" y="295.8969"/><rect fill="#EEEEEE" height="2" style="stroke:#999999;stroke-width:0.5;" width="4" x="908.6432" y="297.8969"/><rect fill="#EEEEEE" height="2" style="stroke:#999999;stroke-width:0.5;" width="4" x="908.6432" y="301.8969"/><text fill="#000000" font-family="sans-serif" font-size="14" lengthAdjust="spacing" textLength="83.3232" x="822.32" y="323.892">DIContainer</text></g><!--entity CSVLoader--><g class="entity" data-entity="CSVLoader" data-source-line="33" data-uid="ent0015" id="entity_CSVLoader"><rect fill="#EEEEEE" height="46.2969" rx="2.5" ry="2.5" style="stroke:#999999;stroke-width:0.5;" width="149.8672" x="1902.04" y="517.1869"/><rect fill="#EEEEEE" height="10" style="stroke:#999999;stroke-width:0.5;" width="15" x="2031.9072" y="522.1869"/><rect fill="#EEEEEE" height="2" style="stroke:#999999;stroke-width:0.5;" width="4" x="2029.9072" y="524.1869"/><rect fill="#EEEEEE" height="2" style="stroke:#999999;stroke-width:0.5;" width="4" x="2029.9072" y="528.1869"/><text fill="#000000" font-family="sans-serif" font-size="14" lengthAdjust="spacing" textLength="109.8672" x="1917.04" y="550.182">CSVDataLoader</text></g><!--entity ExcelLoader--><g class="entity" data-entity="ExcelLoader" data-source-line="34" data-uid="ent0016" id="entity_ExcelLoader"><rect fill="#EEEEEE" height="46.2969" rx="2.5" ry="2.5" style="stroke:#999999;stroke-width:0.5;" width="158.959" x="1708.5" y="517.1869"/><rect fill="#EEEEEE" height="10" style="stroke:#999999;stroke-width:0.5;" width="15" x="1847.459" y="522.1869"/><rect fill="#EEEEEE" height="2" style="stroke:#999999;stroke-width:0.5;" width="4" x="1845.459" y="524.1869"/><rect fill="#EEEEEE" height="2" style="stroke:#999999;stroke-width:0.5;" width="4" x="1845.459" y="528.1869"/><text fill="#000000" font-family="sans-serif" font-size="14" lengthAdjust="spacing" textLength="118.959" x="1723.5" y="550.182">ExcelDataLoader</text></g><!--entity StdPreprocessor--><g class="entity" data-entity="StdPreprocessor" data-source-line="35" data-uid="ent0017" id="entity_StdPreprocessor"><rect fill="#EEEEEE" height="46.2969" rx="2.5" ry="2.5" style="stroke:#999999;stroke-width:0.5;" width="195.1758" x="1478.39" y="517.1869"/><rect fill="#EEEEEE" height="10" style="stroke:#999999;stroke-width:0.5;" width="15" x="1653.5658" y="522.1869"/><rect fill="#EEEEEE" height="2" style="stroke:#999999;stroke-width:0.5;" width="4" x="1651.5658" y="524.1869"/><rect fill="#EEEEEE" height="2" style="stroke:#999999;stroke-width:0.5;" width="4" x="1651.5658" y="528.1869"/><text fill="#000000" font-family="sans-serif" font-size="14" lengthAdjust="spacing" textLength="155.1758" x="1493.39" y="550.182">StandardPreprocessor</text></g><!--entity GenFeatureEng--><g class="entity" data-entity="GenFeatureEng" data-source-line="36" data-uid="ent0018" id="entity_GenFeatureEng"><rect fill="#EEEEEE" height="46.2969" rx="2.5" ry="2.5" style="stroke:#999999;stroke-width:0.5;" width="210.6182" x="1232.67" y="517.1869"/><rect fill="#EEEEEE" height="10" style="stroke:#999999;stroke-width:0.5;" width="15" x="1423.2882" y="522.1869"/><rect fill="#EEEEEE" height="2" style="stroke:#999999;stroke-width:0.5;" width="4" x="1421.2882" y="524.1869"/><rect fill="#EEEEEE" height="2" style="stroke:#999999;stroke-width:0.5;" width="4" x="1421.2882" y="528.1869"/><text fill="#000000" font-family="sans-serif" font-size="14" lengthAdjust="spacing" textLength="170.6182" x="1247.67" y="550.182">GenericFeatureEngineer</text></g><!--entity TextFeatureEng--><g class="entity" data-entity="TextFeatureEng" data-source-line="37" data-uid="ent0019" id="entity_TextFeatureEng"><rect fill="#EEEEEE" height="46.2969" rx="2.5" ry="2.5" style="stroke:#999999;stroke-width:0.5;" width="187.2666" x="1010.34" y="517.1869"/><rect fill="#EEEEEE" height="10" style="stroke:#999999;stroke-width:0.5;" width="15" x="1177.6066" y="522.1869"/><rect fill="#EEEEEE" height="2" style="stroke:#999999;stroke-width:0.5;" width="4" x="1175.6066" y="524.1869"/><rect fill="#EEEEEE" height="2" style="stroke:#999999;stroke-width:0.5;" width="4" x="1175.6066" y="528.1869"/><text fill="#000000" font-family="sans-serif" font-size="14" lengthAdjust="spacing" textLength="147.2666" x="1025.34" y="550.182">TextFeatureEngineer</text></g><!--entity RFBuilder--><g class="entity" data-entity="RFBuilder" data-source-line="38" data-uid="ent0020" id="entity_RFBuilder"><rect fill="#EEEEEE" height="46.2969" rx="2.5" ry="2.5" style="stroke:#999999;stroke-width:0.5;" width="191.5527" x="784.2" y="517.1869"/><rect fill="#EEEEEE" height="10" style="stroke:#999999;stroke-width:0.5;" width="15" x="955.7527" y="522.1869"/><rect fill="#EEEEEE" height="2" style="stroke:#999999;stroke-width:0.5;" width="4" x="953.7527" y="524.1869"/><rect fill="#EEEEEE" height="2" style="stroke:#999999;stroke-width:0.5;" width="4" x="953.7527" y="528.1869"/><text fill="#000000" font-family="sans-serif" font-size="14" lengthAdjust="spacing" textLength="151.5527" x="799.2" y="550.182">RandomForestBuilder</text></g><!--entity StdTrainer--><g class="entity" data-entity="StdTrainer" data-source-line="39" data-uid="ent0021" id="entity_StdTrainer"><rect fill="#EEEEEE" height="46.2969" rx="2.5" ry="2.5" style="stroke:#999999;stroke-width:0.5;" width="153.9551" x="7" y="517.1869"/><rect fill="#EEEEEE" height="10" style="stroke:#999999;stroke-width:0.5;" width="15" x="140.9551" y="522.1869"/><rect fill="#EEEEEE" height="2" style="stroke:#999999;stroke-width:0.5;" width="4" x="138.9551" y="524.1869"/><rect fill="#EEEEEE" height="2" style="stroke:#999999;stroke-width:0.5;" width="4" x="138.9551" y="528.1869"/><text fill="#000000" font-family="sans-serif" font-size="14" lengthAdjust="spacing" textLength="113.9551" x="22" y="550.182">StandardTrainer</text></g><!--entity StdEvaluator--><g class="entity" data-entity="StdEvaluator" data-source-line="40" data-uid="ent0022" id="entity_StdEvaluator"><rect fill="#EEEEEE" height="46.2969" rx="2.5" ry="2.5" style="stroke:#999999;stroke-width:0.5;" width="170.7988" x="578.58" y="517.1869"/><rect fill="#EEEEEE" height="10" style="stroke:#999999;stroke-width:0.5;" width="15" x="729.3788" y="522.1869"/><rect fill="#EEEEEE" height="2" style="stroke:#999999;stroke-width:0.5;" width="4" x="727.3788" y="524.1869"/><rect fill="#EEEEEE" height="2" style="stroke:#999999;stroke-width:0.5;" width="4" x="727.3788" y="528.1869"/><text fill="#000000" font-family="sans-serif" font-size="14" lengthAdjust="spacing" textLength="130.7988" x="593.58" y="550.182">StandardEvaluator</text></g><!--entity PickleSerializer--><g class="entity" data-entity="PickleSerializer" data-source-line="41" data-uid="ent0023" id="entity_PickleSerializer"><rect fill="#EEEEEE" height="46.2969" rx="2.5" ry="2.5" style="stroke:#999999;stroke-width:0.5;" width="145.8613" x="196.05" y="517.1869"/><rect fill="#EEEEEE" height="10" style="stroke:#999999;stroke-width:0.5;" width="15" x="321.9113" y="522.1869"/><rect fill="#EEEEEE" height="2" style="stroke:#999999;stroke-width:0.5;" width="4" x="319.9113" y="524.1869"/><rect fill="#EEEEEE" height="2" style="stroke:#999999;stroke-width:0.5;" width="4" x="319.9113" y="528.1869"/><text fill="#000000" font-family="sans-serif" font-size="14" lengthAdjust="spacing" textLength="105.8613" x="211.05" y="550.182">PickleSerializer</text></g><!--entity StdPredictor--><g class="entity" data-entity="StdPredictor" data-source-line="42" data-uid="ent0024" id="entity_StdPredictor"><rect fill="#EEEEEE" height="46.2969" rx="2.5" ry="2.5" style="stroke:#999999;stroke-width:0.5;" width="167.0322" x="376.46" y="517.1869"/><rect fill="#EEEEEE" height="10" style="stroke:#999999;stroke-width:0.5;" width="15" x="523.4922" y="522.1869"/><rect fill="#EEEEEE" height="2" style="stroke:#999999;stroke-width:0.5;" width="4" x="521.4922" y="524.1869"/><rect fill="#EEEEEE" height="2" style="stroke:#999999;stroke-width:0.5;" width="4" x="521.4922" y="528.1869"/><text fill="#000000" font-family="sans-serif" font-size="14" lengthAdjust="spacing" textLength="127.0322" x="391.46" y="550.182">StandardPredictor</text></g><g class="entity" data-entity="GMN65" data-source-line="83" data-uid="ent0066" id="entity_GMN65"><path d="M1556.54,170.6169 L1556.54,186.7469 L1521.38,190.7469 L1556.54,194.7469 L1556.54,210.8825 A0,0 0 0 0 1556.54,210.8825 L1723.4218,210.8825 A0,0 0 0 0 1723.4218,210.8825 L1723.4218,180.6169 L1713.4218,170.6169 L1556.54,170.6169 A0,0 0 0 0 1556.54,170.6169 " fill="#FFFFCC" style="stroke:#999999;stroke-width:0.5;"/><path d="M1713.4218,170.6169 L1713.4218,180.6169 L1723.4218,180.6169 L1713.4218,170.6169 " fill="#FFFFCC" style="stroke:#999999;stroke-width:0.5;"/><text fill="#000000" font-family="sans-serif" font-size="13" lengthAdjust="spacing" textLength="134.1895" x="1562.54" y="187.6838">Stores pipeline state</text><text fill="#000000" font-family="sans-serif" font-size="13" lengthAdjust="spacing" textLength="145.8818" x="1562.54" y="202.8166">and intermediate data</text></g><g class="entity" data-entity="GMN68" data-source-line="86" data-uid="ent0069" id="entity_GMN68"><path d="M965.43,293.9069 L965.43,310.0369 L930.84,314.0369 L965.43,318.0369 L965.43,334.1725 A0,0 0 0 0 965.43,334.1725 L1122.5174,334.1725 A0,0 0 0 0 1122.5174,334.1725 L1122.5174,303.9069 L1112.5174,293.9069 L965.43,293.9069 A0,0 0 0 0 965.43,293.9069 " fill="#FFFFCC" style="stroke:#999999;stroke-width:0.5;"/><path d="M1112.5174,293.9069 L1112.5174,303.9069 L1122.5174,303.9069 L1112.5174,293.9069 " fill="#FFFFCC" style="stroke:#999999;stroke-width:0.5;"/><text fill="#000000" font-family="sans-serif" font-size="13" lengthAdjust="spacing" textLength="136.0874" x="971.43" y="310.9738">Manages component</text><text fill="#000000" font-family="sans-serif" font-size="13" lengthAdjust="spacing" textLength="90.7588" x="971.43" y="326.1066">dependencies</text></g><!--reverse link IDataLoader to CSVLoader--><g class="link" data-entity-1="IDataLoader" data-entity-2="CSVLoader" data-source-line="45" data-uid="lnk26" id="link_IDataLoader_CSVLoader"><path d="M1810.4881,442.4493 C1835.7181,457.1293 1892.91,490.4169 1938.44,516.9069 " fill="none" id="IDataLoader-backto-CSVLoader" style="stroke:#666666;stroke-width:1;stroke-dasharray:7.0,7.0;"/><polygon fill="none" points="1794.93,433.3969,1807.4706,447.6353,1813.5055,437.2633,1794.93,433.3969" style="stroke:#666666;stroke-width:1;"/></g><!--reverse link IDataLoader to ExcelLoader--><g class="link" data-entity-1="IDataLoader" data-entity-2="ExcelLoader" data-source-line="46" data-uid="lnk28" id="link_IDataLoader_ExcelLoader"><path d="M1786.4429,454.184 C1786.7429,470.904 1787.13,492.1069 1787.58,517.0769 " fill="none" id="IDataLoader-backto-ExcelLoader" style="stroke:#666666;stroke-width:1;stroke-dasharray:7.0,7.0;"/><polygon fill="none" points="1786.12,436.1869,1780.4439,454.2916,1792.4419,454.0763,1786.12,436.1869" style="stroke:#666666;stroke-width:1;"/></g><!--reverse link IDataPreprocessor to StdPreprocessor--><g class="link" data-entity-1="IDataPreprocessor" data-entity-2="StdPreprocessor" data-source-line="47" data-uid="lnk30" id="link_IDataPreprocessor_StdPreprocessor"><path d="M1343.3912,439.1387 C1373.9612,452.3087 1459.91,489.3369 1523.51,516.7369 " fill="none" id="IDataPreprocessor-backto-StdPreprocessor" style="stroke:#666666;stroke-width:1;stroke-dasharray:7.0,7.0;"/><polygon fill="none" points="1326.86,432.0169,1341.0172,444.6491,1345.7651,433.6284,1326.86,432.0169" style="stroke:#666666;stroke-width:1;"/></g><!--reverse link IFeatureEngineer to GenFeatureEng--><g class="link" data-entity-1="IFeatureEngineer" data-entity-2="GenFeatureEng" data-source-line="48" data-uid="lnk32" id="link_IFeatureEngineer_GenFeatureEng"><path d="M1152.6402,441.245 C1179.2702,455.335 1244.63,489.9269 1295.38,516.7869 " fill="none" id="IFeatureEngineer-backto-GenFeatureEng" style="stroke:#666666;stroke-width:1;stroke-dasharray:7.0,7.0;"/><polygon fill="none" points="1136.73,432.8269,1149.8342,446.5484,1155.4463,435.9416,1136.73,432.8269" style="stroke:#666666;stroke-width:1;"/></g><!--reverse link IFeatureEngineer to TextFeatureEng--><g class="link" data-entity-1="IFeatureEngineer" data-entity-2="TextFeatureEng" data-source-line="49" data-uid="lnk34" id="link_IFeatureEngineer_TextFeatureEng"><path d="M1122.4512,453.7814 C1118.8412,470.5014 1114.18,492.1069 1108.78,517.0769 " fill="none" id="IFeatureEngineer-backto-TextFeatureEng" style="stroke:#666666;stroke-width:1;stroke-dasharray:7.0,7.0;"/><polygon fill="none" points="1126.25,436.1869,1116.5863,452.5152,1128.316,455.0477,1126.25,436.1869" style="stroke:#666666;stroke-width:1;"/></g><!--reverse link IModelBuilder to RFBuilder--><g class="link" data-entity-1="IModelBuilder" data-entity-2="RFBuilder" data-source-line="50" data-uid="lnk36" id="link_IModelBuilder_RFBuilder"><path d="M879.98,454.1869 C879.98,470.9069 879.98,492.1069 879.98,517.0769 " fill="none" id="IModelBuilder-backto-RFBuilder" style="stroke:#666666;stroke-width:1;stroke-dasharray:7.0,7.0;"/><polygon fill="none" points="879.98,436.1869,873.98,454.1869,885.98,454.1869,879.98,436.1869" style="stroke:#666666;stroke-width:1;"/></g><!--reverse link IModelTrainer to StdTrainer--><g class="link" data-entity-1="IModelTrainer" data-entity-2="StdTrainer" data-source-line="51" data-uid="lnk38" id="link_IModelTrainer_StdTrainer"><path d="M183.8949,448.3101 C165.5449,465.0301 135.82,492.1069 108.41,517.0769 " fill="none" id="IModelTrainer-backto-StdTrainer" style="stroke:#666666;stroke-width:1;stroke-dasharray:7.0,7.0;"/><polygon fill="none" points="197.2,436.1869,179.8538,443.8751,187.936,452.7452,197.2,436.1869" style="stroke:#666666;stroke-width:1;"/></g><!--reverse link IModelEvaluator to StdEvaluator--><g class="link" data-entity-1="IModelEvaluator" data-entity-2="StdEvaluator" data-source-line="52" data-uid="lnk40" id="link_IModelEvaluator_StdEvaluator"><path d="M663.98,454.1869 C663.98,470.9069 663.98,492.1069 663.98,517.0769 " fill="none" id="IModelEvaluator-backto-StdEvaluator" style="stroke:#666666;stroke-width:1;stroke-dasharray:7.0,7.0;"/><polygon fill="none" points="663.98,436.1869,657.98,454.1869,669.98,454.1869,663.98,436.1869" style="stroke:#666666;stroke-width:1;"/></g><!--reverse link IModelSerializer to PickleSerializer--><g class="link" data-entity-1="IModelSerializer" data-entity-2="PickleSerializer" data-source-line="53" data-uid="lnk42" id="link_IModelSerializer_PickleSerializer"><path d="M338.6239,450.36 C325.5339,467.08 305.95,492.1069 286.4,517.0769 " fill="none" id="IModelSerializer-backto-PickleSerializer" style="stroke:#666666;stroke-width:1;stroke-dasharray:7.0,7.0;"/><polygon fill="none" points="349.72,436.1869,333.8996,446.6613,343.3483,454.0587,349.72,436.1869" style="stroke:#666666;stroke-width:1;"/></g><!--reverse link IPredictor to StdPredictor--><g class="link" data-entity-1="IPredictor" data-entity-2="StdPredictor" data-source-line="54" data-uid="lnk44" id="link_IPredictor_StdPredictor"><path d="M483.9078,453.5233 C479.2378,470.2433 473.15,492.1069 466.19,517.0769 " fill="none" id="IPredictor-backto-StdPredictor" style="stroke:#666666;stroke-width:1;stroke-dasharray:7.0,7.0;"/><polygon fill="none" points="488.75,436.1869,478.129,451.9093,489.6866,455.1374,488.75,436.1869" style="stroke:#666666;stroke-width:1;"/></g><!--link Registry to IDataLoader--><g class="link" data-entity-1="Registry" data-entity-2="IDataLoader" data-source-line="57" data-uid="lnk45" id="link_Registry_IDataLoader"><path d="M773.04,334.4569 C778.76,335.4469 784.44,336.3769 789.98,337.1869 C996.07,367.6269 1691.13,419.2169 1777.21,425.5469 " fill="none" id="Registry-IDataLoader" style="stroke:#666666;stroke-width:1;"/></g><!--link Registry to IDataPreprocessor--><g class="link" data-entity-1="Registry" data-entity-2="IDataPreprocessor" data-source-line="58" data-uid="lnk46" id="link_Registry_IDataPreprocessor"><path d="M772.81,334.0469 C778.61,335.1469 784.37,336.2069 789.98,337.1869 C976.63,369.9669 1026.28,360.3769 1211.98,398.1869 C1248.35,405.5969 1290.81,417.9669 1308.99,423.4369 " fill="none" id="Registry-IDataPreprocessor" style="stroke:#666666;stroke-width:1;"/></g><!--link Registry to IFeatureEngineer--><g class="link" data-entity-1="Registry" data-entity-2="IFeatureEngineer" data-source-line="59" data-uid="lnk47" id="link_Registry_IFeatureEngineer"><path d="M773.03,337.5369 C887.82,366.2069 1076.57,413.3469 1119.23,424.0069 " fill="none" id="Registry-IFeatureEngineer" style="stroke:#666666;stroke-width:1;"/></g><!--link Registry to IModelBuilder--><g class="link" data-entity-1="Registry" data-entity-2="IModelBuilder" data-source-line="60" data-uid="lnk48" id="link_Registry_IModelBuilder"><path d="M722.84,337.5369 C770.06,364.1769 845.55,406.7669 871.15,421.2169 " fill="none" id="Registry-IModelBuilder" style="stroke:#666666;stroke-width:1;"/></g><!--link Registry to IModelTrainer--><g class="link" data-entity-1="Registry" data-entity-2="IModelTrainer" data-source-line="61" data-uid="lnk49" id="link_Registry_IModelTrainer"><path d="M593.17,328.8269 C510.17,342.6469 383.88,366.4269 276.98,398.1869 C253.86,405.0569 227.73,416.3169 214.55,422.2469 " fill="none" id="Registry-IModelTrainer" style="stroke:#666666;stroke-width:1;"/></g><!--link Registry to IModelEvaluator--><g class="link" data-entity-1="Registry" data-entity-2="IModelEvaluator" data-source-line="62" data-uid="lnk50" id="link_Registry_IModelEvaluator"><path d="M679.13,337.5369 C674.86,362.5269 668.19,401.5569 665.34,418.2169 " fill="none" id="Registry-IModelEvaluator" style="stroke:#666666;stroke-width:1;"/></g><!--link Registry to IModelSerializer--><g class="link" data-entity-1="Registry" data-entity-2="IModelSerializer" data-source-line="63" data-uid="lnk51" id="link_Registry_IModelSerializer"><path d="M613.87,337.6569 C563.82,354.1469 494.59,377.1969 433.98,398.1869 C408.69,406.9469 378.97,417.7569 364.61,423.0169 " fill="none" id="Registry-IModelSerializer" style="stroke:#666666;stroke-width:1;"/></g><!--link Registry to IPredictor--><g class="link" data-entity-1="Registry" data-entity-2="IPredictor" data-source-line="64" data-uid="lnk52" id="link_Registry_IPredictor"><path d="M644.12,337.5369 C598.32,364.0469 525.23,406.3569 499.94,421.0069 " fill="none" id="Registry-IPredictor" style="stroke:#666666;stroke-width:1;"/></g><!--link Factory to Registry--><g class="link" data-entity-1="Factory" data-entity-2="Registry" data-source-line="67" data-uid="lnk53" id="link_Factory_Registry"><path d="M834.43,214.2769 C801.12,235.9969 756.0252,265.3986 722.6852,287.1486 " fill="none" id="Factory-to-Registry" style="stroke:#666666;stroke-width:1;"/><polygon fill="#666666" points="717.66,290.4269,727.3834,288.8596,721.8477,287.695,723.0123,282.1593,717.66,290.4269" style="stroke:#666666;stroke-width:1;"/><text fill="#000000" font-family="sans-serif" font-size="13" lengthAdjust="spacing" textLength="29.7832" x="787.98" y="256.9638">uses</text></g><!--link Factory to Container--><g class="link" data-entity-1="Factory" data-entity-2="Container" data-source-line="68" data-uid="lnk54" id="link_Factory_Container"><path d="M868.98,214.2769 C868.98,236.0669 868.98,262.8869 868.98,284.6269 " fill="none" id="Factory-to-Container" style="stroke:#666666;stroke-width:1;"/><polygon fill="#666666" points="868.98,290.6269,872.98,281.6269,868.98,285.6269,864.98,281.6269,868.98,290.6269" style="stroke:#666666;stroke-width:1;"/><text fill="#000000" font-family="sans-serif" font-size="13" lengthAdjust="spacing" textLength="29.7832" x="869.98" y="256.9638">uses</text></g><!--link Orchestrator to Factory--><g class="link" data-entity-1="Orchestrator" data-entity-2="Factory" data-source-line="71" data-uid="lnk55" id="link_Orchestrator_Factory"><path d="M1044.69,91.0269 C1028.33,100.1969 1009.25,110.8969 991.98,120.5969 C964.32,136.1269 938.3892,150.6948 914.3592,164.2148 " fill="none" id="Orchestrator-to-Factory" style="stroke:#666666;stroke-width:1;"/><polygon fill="#666666" points="909.13,167.1569,918.9351,166.2299,913.4876,164.7051,915.0124,159.2576,909.13,167.1569" style="stroke:#666666;stroke-width:1;"/><text fill="#000000" font-family="sans-serif" font-size="13" lengthAdjust="spacing" textLength="156.1777" x="992.98" y="133.6638">creates components via</text></g><!--link Orchestrator to Context--><g class="link" data-entity-1="Orchestrator" data-entity-2="Context" data-source-line="72" data-uid="lnk56" id="link_Orchestrator_Context"><path d="M1177.19,77.9669 C1227.87,85.4069 1291,98.3669 1343.98,120.5969 C1371.6,132.1869 1394.787,148.0764 1414.417,163.4564 " fill="none" id="Orchestrator-to-Context" style="stroke:#666666;stroke-width:1;"/><polygon fill="#666666" points="1419.14,167.1569,1414.5225,158.4575,1415.2042,164.0732,1409.5885,164.7549,1419.14,167.1569" style="stroke:#666666;stroke-width:1;"/><text fill="#000000" font-family="sans-serif" font-size="13" lengthAdjust="spacing" textLength="92.9868" x="1374.98" y="133.6638">stores state in</text></g><!--link Orchestrator to IDataLoader--><g class="link" data-entity-1="Orchestrator" data-entity-2="IDataLoader" data-source-line="73" data-uid="lnk57" id="link_Orchestrator_IDataLoader"><path d="M1177.26,69.3569 C1338.94,72.9769 1663.63,89.9969 1740.98,167.5969 C1813.04,239.8869 1794.4741,377.7449 1788.4441,412.5549 " fill="none" id="Orchestrator-to-IDataLoader" style="stroke:#666666;stroke-width:1;"/><polygon fill="#666666" points="1787.42,418.4669,1792.8975,410.2817,1788.2734,413.5402,1785.0149,408.9162,1787.42,418.4669" style="stroke:#666666;stroke-width:1;"/><text fill="#000000" font-family="sans-serif" font-size="13" lengthAdjust="spacing" textLength="29.7832" x="1787.98" y="256.9638">uses</text></g><!--link Orchestrator to IDataPreprocessor--><g class="link" data-entity-1="Orchestrator" data-entity-2="IDataPreprocessor" data-source-line="74" data-uid="lnk58" id="link_Orchestrator_IDataPreprocessor"><path d="M1177.11,86.3769 C1197.36,94.0469 1217.15,104.9869 1231.98,120.5969 C1317.76,210.9069 1319.2444,373.9284 1318.3844,412.3084 " fill="none" id="Orchestrator-to-IDataPreprocessor" style="stroke:#666666;stroke-width:1;"/><polygon fill="#666666" points="1318.25,418.3069,1322.4506,409.3987,1318.362,413.3081,1314.4526,409.2195,1318.25,418.3069" style="stroke:#666666;stroke-width:1;"/><text fill="#000000" font-family="sans-serif" font-size="13" lengthAdjust="spacing" textLength="29.7832" x="1301.98" y="256.9638">uses</text></g><!--link Orchestrator to IFeatureEngineer--><g class="link" data-entity-1="Orchestrator" data-entity-2="IFeatureEngineer" data-source-line="75" data-uid="lnk59" id="link_Orchestrator_IFeatureEngineer"><path d="M1167.19,90.9969 C1180.82,98.3069 1193.31,107.9369 1201.98,120.5969 C1233.05,166.0069 1227.43,319.4069 1201.98,368.1869 C1187.48,395.9769 1158.5329,412.1606 1142.2529,419.7906 " fill="none" id="Orchestrator-to-IFeatureEngineer" style="stroke:#666666;stroke-width:1;"/><polygon fill="#666666" points="1136.82,422.3369,1146.6669,422.1394,1141.3474,420.215,1143.2719,414.8955,1136.82,422.3369" style="stroke:#666666;stroke-width:1;"/><text fill="#000000" font-family="sans-serif" font-size="13" lengthAdjust="spacing" textLength="29.7832" x="1223.98" y="256.9638">uses</text></g><!--link Orchestrator to IModelBuilder--><g class="link" data-entity-1="Orchestrator" data-entity-2="IModelBuilder" data-source-line="76" data-uid="lnk60" id="link_Orchestrator_IModelBuilder"><path d="M1127.52,91.0669 C1138.1,98.9069 1148.09,108.7669 1153.98,120.5969 C1160.81,134.3269 1215.6,238.8369 1139.98,337.1869 C1107.19,379.8369 936.3194,415.2604 894.6594,423.3704 " fill="none" id="Orchestrator-to-IModelBuilder" style="stroke:#666666;stroke-width:1;"/><polygon fill="#666666" points="888.77,424.5169,898.3685,426.7234,893.6779,423.5615,896.8398,418.8708,888.77,424.5169" style="stroke:#666666;stroke-width:1;"/><text fill="#000000" font-family="sans-serif" font-size="13" lengthAdjust="spacing" textLength="29.7832" x="1178.98" y="256.9638">uses</text></g><!--link Orchestrator to IModelTrainer--><g class="link" data-entity-1="Orchestrator" data-entity-2="IModelTrainer" data-source-line="77" data-uid="lnk61" id="link_Orchestrator_IModelTrainer"><path d="M992.62,70.3069 C896.88,74.1869 743.64,85.8369 615.98,120.5969 C566.64,134.0269 554.24,140.3469 510.98,167.5969 C379.98,250.0969 249.9471,380.7797 217.5271,414.2097 " fill="none" id="Orchestrator-to-IModelTrainer" style="stroke:#666666;stroke-width:1;"/><polygon fill="#666666" points="213.35,418.5169,222.4871,414.8408,216.8309,414.9275,216.7441,409.2713,213.35,418.5169" style="stroke:#666666;stroke-width:1;"/><text fill="#000000" font-family="sans-serif" font-size="13" lengthAdjust="spacing" textLength="29.7832" x="405.98" y="256.9638">uses</text></g><!--link Orchestrator to IModelEvaluator--><g class="link" data-entity-1="Orchestrator" data-entity-2="IModelEvaluator" data-source-line="78" data-uid="lnk62" id="link_Orchestrator_IModelEvaluator"><path d="M992.56,76.4969 C869.96,92.8869 659.34,142.3469 575.98,290.8969 C546.63,343.1869 622.8306,399.2944 650.2706,417.3844 " fill="none" id="Orchestrator-to-IModelEvaluator" style="stroke:#666666;stroke-width:1;"/><polygon fill="#666666" points="655.28,420.6869,649.9676,412.3936,651.1055,417.9348,645.5643,419.0728,655.28,420.6869" style="stroke:#666666;stroke-width:1;"/><text fill="#000000" font-family="sans-serif" font-size="13" lengthAdjust="spacing" textLength="29.7832" x="609.98" y="256.9638">uses</text></g><!--link Orchestrator to IModelSerializer--><g class="link" data-entity-1="Orchestrator" data-entity-2="IModelSerializer" data-source-line="79" data-uid="lnk63" id="link_Orchestrator_IModelSerializer"><path d="M992.79,72.7669 C909.52,78.4369 784.26,91.3669 678.98,120.5969 C628.93,134.4869 613.5,136.3969 571.98,167.5969 C467.69,245.9569 384.2759,378.8713 363.7059,413.1713 " fill="none" id="Orchestrator-to-IModelSerializer" style="stroke:#666666;stroke-width:1;"/><polygon fill="#666666" points="360.62,418.3169,368.6792,412.6557,363.1916,414.0289,361.8184,408.5412,360.62,418.3169" style="stroke:#666666;stroke-width:1;"/><text fill="#000000" font-family="sans-serif" font-size="13" lengthAdjust="spacing" textLength="29.7832" x="489.98" y="256.9638">uses</text></g><!--link Orchestrator to IPredictor--><g class="link" data-entity-1="Orchestrator" data-entity-2="IPredictor" data-source-line="80" data-uid="lnk64" id="link_Orchestrator_IPredictor"><path d="M992.87,69.5469 C895.67,74.8069 741.66,95.1769 631.98,167.5969 C592.81,193.4569 583.91,204.1369 558.98,243.8969 C520.39,305.4169 499.982,386.3266 494.012,412.5466 " fill="none" id="Orchestrator-to-IPredictor" style="stroke:#666666;stroke-width:1;"/><polygon fill="#666666" points="492.68,418.3969,498.5782,410.5095,493.79,413.5216,490.7779,408.7334,492.68,418.3969" style="stroke:#666666;stroke-width:1;"/><text fill="#000000" font-family="sans-serif" font-size="13" lengthAdjust="spacing" textLength="29.7832" x="559.98" y="256.9638">uses</text></g><!--SRC=[XLPDJzmm4Btlhx3Wm6avz52f793AibiX0KMxgATUt6JOjN3io7RugFhZwtpOdh6paCEIpBoPPDvxcN36TkvT0glXIIZXX5PsOP-5QhdX3Qjqqse5oesWhf5VKFOFhvxtHdUgNccf3Niz20Se_zqO_JgcJhyE1qhUA0VcYLTmfKqDPe9z6uvPM7Qpq_Lm8EWgFEp77HFiquxtsfNttVXZjSfHCxTSdB57uIGiNF_Bxk6jitUtwVvi2v8FZ1z4Qtju7DOkH3Xb9zVSyLlDVVyJnYsxITSvwi50QxGljnfXSHHNR82xpi1QxOM2q3mBOloTha5UTKB69y6H0lbek6-1aLEaGAvVkEouqnWROmLw1qPmAVwIrYc8yNxoMbInSRpikRxZYk-XwNM8BhUBUCfEeavRs0lhpFlG95nWv8DeGVh9DhnlFkAcypdOJrCTmFU84-F0NC5A-v7Ut82TpZ7i-gOF9hBZrM2fffN3bAFJo82xNvcrV6Go5eAjtogG6N28bT2TuwhcfYvyk7CaXcj-W7zIKSsPqQTI6DSyUWRc2cWSLspzW-bceutd6LjukmdsdHa3EzXF4EmxWwGEzjXaNw9dzImXysyUFC8dyl58Pd9ot1fCP697FTbvrvx_koIx0saubyua8n2Y9L4fml8zGgKv2ejwH0JPCKa5cW_IOEOf8WcI4qvnI0ZCSmGHviCoO8PiyXXUBWcbHPpmIB85BpX9A2apWOmoaqWeSsXmaYG3JrijcpT4bylBHCa5wopGN5nC8UaxujsNjIMflZxqkc2LyVo0HPkRlGXULapRqbTOrx_x_e-lOqALK2HKUBnv37ahZY8p0Oy3iPYVe8BrFqQb5-1Z77e3ZWAJ_vDYWLCgblB_134ZzWV7z1FYVJVotawVib60tyhlDJPyg1j_WrwIsZCRkezJVjO_S35-o94NVgiQMl0_gX9W_mC0]--></g></svg>