<svg xmlns="http://www.w3.org/2000/svg" xmlns:xlink="http://www.w3.org/1999/xlink" contentStyleType="text/css" data-diagram-type="CLASS" height="689px" preserveAspectRatio="none" style="width:1799px;height:689px;background:#FFFFFF;" version="1.1" viewBox="0 0 1799 689" width="1799px" zoomAndPan="magnify"><title>NexusML Configuration System</title><defs/><g><text fill="#000000" font-family="sans-serif" font-size="14" font-weight="bold" lengthAdjust="spacing" textLength="247.625" x="768.8457" y="22.9951">NexusML Configuration System</text><!--class ConfigProvider--><g class="entity" data-entity="ConfigProvider" data-source-line="14" data-uid="ent0002" id="entity_ConfigProvider"><rect fill="#EEEEEE" height="178.375" rx="2.5" ry="2.5" style="stroke:#999999;stroke-width:0.5;" width="261.8057" x="1053.96" y="44.2969"/><ellipse cx="1129.0562" cy="60.2969" fill="#ADD1B2" rx="11" ry="11" style="stroke:#181818;stroke-width:1;"/><path d="M1132.0249,65.9375 Q1131.4468,66.2344 1130.8062,66.375 Q1130.1656,66.5313 1129.4624,66.5313 Q1126.9624,66.5313 1125.6343,64.8906 Q1124.3218,63.2344 1124.3218,60.1094 Q1124.3218,56.9844 1125.6343,55.3281 Q1126.9624,53.6719 1129.4624,53.6719 Q1130.1656,53.6719 1130.8062,53.8281 Q1131.4624,53.9844 1132.0249,54.2813 L1132.0249,57 Q1131.3999,56.4219 1130.8062,56.1563 Q1130.2124,55.875 1129.5874,55.875 Q1128.2437,55.875 1127.5562,56.9531 Q1126.8687,58.0156 1126.8687,60.1094 Q1126.8687,62.2031 1127.5562,63.2813 Q1128.2437,64.3438 1129.5874,64.3438 Q1130.2124,64.3438 1130.8062,64.0781 Q1131.3999,63.7969 1132.0249,63.2188 L1132.0249,65.9375 Z " fill="#000000"/><text fill="#000000" font-family="sans-serif" font-size="14" lengthAdjust="spacing" textLength="103.1133" x="1149.5562" y="65.1436">ConfigProvider</text><line style="stroke:#999999;stroke-width:0.5;" x1="1054.96" x2="1314.7657" y1="76.2969" y2="76.2969"/><rect fill="none" height="6" style="stroke:#C82930;stroke-width:1;" width="6" x="1061.96" y="86.9453"/><text fill="#000000" font-family="sans-serif" font-size="14" lengthAdjust="spacing" text-decoration="underline" textLength="178.5889" x="1073.96" y="93.292">_instance: ConfigProvider</text><rect fill="none" height="6" style="stroke:#C82930;stroke-width:1;" width="6" x="1061.96" y="103.2422"/><text fill="#000000" font-family="sans-serif" font-size="14" lengthAdjust="spacing" textLength="153.9521" x="1073.96" y="109.5889">_config: Configuration</text><rect fill="none" height="6" style="stroke:#C82930;stroke-width:1;" width="6" x="1061.96" y="119.5391"/><text fill="#000000" font-family="sans-serif" font-size="14" lengthAdjust="spacing" textLength="116.375" x="1073.96" y="125.8857">_config_path: str</text><line style="stroke:#999999;stroke-width:0.5;" x1="1054.96" x2="1314.7657" y1="133.1875" y2="133.1875"/><ellipse cx="1064.96" cy="146.8359" fill="#84BE84" rx="3" ry="3" style="stroke:#038048;stroke-width:1;"/><text fill="#000000" font-family="sans-serif" font-size="14" lengthAdjust="spacing" text-decoration="underline" textLength="187.8652" x="1073.96" y="150.1826">get_config(): Configuration</text><ellipse cx="1064.96" cy="163.1328" fill="#84BE84" rx="3" ry="3" style="stroke:#038048;stroke-width:1;"/><text fill="#000000" font-family="sans-serif" font-size="14" lengthAdjust="spacing" text-decoration="underline" textLength="235.8057" x="1073.96" y="166.4795">initialize(config_path: str = None)</text><ellipse cx="1064.96" cy="179.4297" fill="#84BE84" rx="3" ry="3" style="stroke:#038048;stroke-width:1;"/><text fill="#000000" font-family="sans-serif" font-size="14" lengthAdjust="spacing" text-decoration="underline" textLength="46.6895" x="1073.96" y="182.7764">reset()</text><rect fill="#F24D5C" height="6" style="stroke:#C82930;stroke-width:1;" width="6" x="1061.96" y="192.7266"/><text fill="#000000" font-family="sans-serif" font-size="14" lengthAdjust="spacing" textLength="227.5957" x="1073.96" y="199.0732">__init__(config_path: str = None)</text><rect fill="#F24D5C" height="6" style="stroke:#C82930;stroke-width:1;" width="6" x="1061.96" y="209.0234"/><text fill="#000000" font-family="sans-serif" font-size="14" lengthAdjust="spacing" textLength="97.6855" x="1073.96" y="215.3701">_load_config()</text></g><!--class Configuration--><g class="entity" data-entity="Configuration" data-source-line="25" data-uid="ent0003" id="entity_Configuration"><rect fill="#EEEEEE" height="145.7813" rx="2.5" ry="2.5" style="stroke:#999999;stroke-width:0.5;" width="359.6826" x="1005.02" y="315.0069"/><ellipse cx="1133.1391" cy="331.0069" fill="#ADD1B2" rx="11" ry="11" style="stroke:#181818;stroke-width:1;"/><path d="M1136.1079,336.6475 Q1135.5298,336.9444 1134.8891,337.085 Q1134.2485,337.2413 1133.5454,337.2413 Q1131.0454,337.2413 1129.7173,335.6006 Q1128.4048,333.9444 1128.4048,330.8194 Q1128.4048,327.6944 1129.7173,326.0381 Q1131.0454,324.3819 1133.5454,324.3819 Q1134.2485,324.3819 1134.8891,324.5381 Q1135.5454,324.6944 1136.1079,324.9913 L1136.1079,327.71 Q1135.4829,327.1319 1134.8891,326.8663 Q1134.2954,326.585 1133.6704,326.585 Q1132.3266,326.585 1131.6391,327.6631 Q1130.9516,328.7256 1130.9516,330.8194 Q1130.9516,332.9131 1131.6391,333.9913 Q1132.3266,335.0538 1133.6704,335.0538 Q1134.2954,335.0538 1134.8891,334.7881 Q1135.4829,334.5069 1136.1079,333.9288 L1136.1079,336.6475 Z " fill="#000000"/><text fill="#000000" font-family="sans-serif" font-size="14" lengthAdjust="spacing" textLength="94.9443" x="1153.6391" y="335.8536">Configuration</text><line style="stroke:#999999;stroke-width:0.5;" x1="1006.02" x2="1363.7026" y1="347.0069" y2="347.0069"/><ellipse cx="1016.02" cy="360.6553" fill="none" rx="3" ry="3" style="stroke:#038048;stroke-width:1;"/><text fill="#000000" font-family="sans-serif" font-size="14" lengthAdjust="spacing" textLength="333.6826" x="1025.02" y="364.002">feature_engineering: FeatureEngineeringConfig</text><ellipse cx="1016.02" cy="376.9522" fill="none" rx="3" ry="3" style="stroke:#038048;stroke-width:1;"/><text fill="#000000" font-family="sans-serif" font-size="14" lengthAdjust="spacing" textLength="259.5811" x="1025.02" y="380.2989">model_building: ModelBuildingConfig</text><ellipse cx="1016.02" cy="393.2491" fill="none" rx="3" ry="3" style="stroke:#038048;stroke-width:1;"/><text fill="#000000" font-family="sans-serif" font-size="14" lengthAdjust="spacing" textLength="233.0986" x="1025.02" y="396.5957">data_loading: DataLoadingConfig</text><ellipse cx="1016.02" cy="409.5459" fill="none" rx="3" ry="3" style="stroke:#038048;stroke-width:1;"/><text fill="#000000" font-family="sans-serif" font-size="14" lengthAdjust="spacing" textLength="264.9473" x="1025.02" y="412.8926">reference_data: ReferenceDataConfig</text><ellipse cx="1016.02" cy="425.8428" fill="none" rx="3" ry="3" style="stroke:#038048;stroke-width:1;"/><text fill="#000000" font-family="sans-serif" font-size="14" lengthAdjust="spacing" textLength="131.8857" x="1025.02" y="429.1895">paths: PathsConfig</text><line style="stroke:#999999;stroke-width:0.5;" x1="1006.02" x2="1363.7026" y1="436.4913" y2="436.4913"/><ellipse cx="1016.02" cy="450.1397" fill="#84BE84" rx="3" ry="3" style="stroke:#038048;stroke-width:1;"/><text fill="#000000" font-family="sans-serif" font-size="14" lengthAdjust="spacing" textLength="74.416" x="1025.02" y="453.4864">__init__(...)</text></g><!--class FeatureEngineeringConfig--><g class="entity" data-entity="FeatureEngineeringConfig" data-source-line="34" data-uid="ent0004" id="entity_FeatureEngineeringConfig"><rect fill="#EEEEEE" height="129.4844" rx="2.5" ry="2.5" style="stroke:#999999;stroke-width:0.5;" width="232.5752" x="563.58" y="553.1369"/><ellipse cx="586.5359" cy="569.1369" fill="#ADD1B2" rx="11" ry="11" style="stroke:#181818;stroke-width:1;"/><path d="M589.5046,574.7775 Q588.9265,575.0744 588.2859,575.215 Q587.6452,575.3713 586.9421,575.3713 Q584.4421,575.3713 583.114,573.7306 Q581.8015,572.0744 581.8015,568.9494 Q581.8015,565.8244 583.114,564.1681 Q584.4421,562.5119 586.9421,562.5119 Q587.6452,562.5119 588.2859,562.6681 Q588.9421,562.8244 589.5046,563.1213 L589.5046,565.84 Q588.8796,565.2619 588.2859,564.9963 Q587.6921,564.715 587.0671,564.715 Q585.7234,564.715 585.0359,565.7931 Q584.3484,566.8556 584.3484,568.9494 Q584.3484,571.0431 585.0359,572.1213 Q585.7234,573.1838 587.0671,573.1838 Q587.6921,573.1838 588.2859,572.9181 Q588.8796,572.6369 589.5046,572.0588 L589.5046,574.7775 Z " fill="#000000"/><text fill="#000000" font-family="sans-serif" font-size="14" lengthAdjust="spacing" textLength="182.8955" x="602.3038" y="573.9836">FeatureEngineeringConfig</text><line style="stroke:#999999;stroke-width:0.5;" x1="564.58" x2="795.1552" y1="585.1369" y2="585.1369"/><ellipse cx="574.58" cy="598.7853" fill="none" rx="3" ry="3" style="stroke:#038048;stroke-width:1;"/><text fill="#000000" font-family="sans-serif" font-size="14" lengthAdjust="spacing" textLength="156.8096" x="583.58" y="602.132">text_columns: List[str]</text><ellipse cx="574.58" cy="615.0822" fill="none" rx="3" ry="3" style="stroke:#038048;stroke-width:1;"/><text fill="#000000" font-family="sans-serif" font-size="14" lengthAdjust="spacing" textLength="198.7412" x="583.58" y="618.4289">numerical_columns: List[str]</text><ellipse cx="574.58" cy="631.3791" fill="none" rx="3" ry="3" style="stroke:#038048;stroke-width:1;"/><text fill="#000000" font-family="sans-serif" font-size="14" lengthAdjust="spacing" textLength="206.5752" x="583.58" y="634.7257">categorical_columns: List[str]</text><ellipse cx="574.58" cy="647.6759" fill="none" rx="3" ry="3" style="stroke:#038048;stroke-width:1;"/><text fill="#000000" font-family="sans-serif" font-size="14" lengthAdjust="spacing" textLength="192.6641" x="583.58" y="651.0226">transformers: Dict[str, Any]</text><line style="stroke:#999999;stroke-width:0.5;" x1="564.58" x2="795.1552" y1="658.3244" y2="658.3244"/><ellipse cx="574.58" cy="671.9728" fill="#84BE84" rx="3" ry="3" style="stroke:#038048;stroke-width:1;"/><text fill="#000000" font-family="sans-serif" font-size="14" lengthAdjust="spacing" textLength="74.416" x="583.58" y="675.3195">__init__(...)</text></g><!--class ModelBuildingConfig--><g class="entity" data-entity="ModelBuildingConfig" data-source-line="42" data-uid="ent0005" id="entity_ModelBuildingConfig"><rect fill="#EEEEEE" height="113.1875" rx="2.5" ry="2.5" style="stroke:#999999;stroke-width:0.5;" width="256.7471" x="831.49" y="561.2769"/><ellipse cx="883.7405" cy="577.2769" fill="#ADD1B2" rx="11" ry="11" style="stroke:#181818;stroke-width:1;"/><path d="M886.7092,582.9175 Q886.1311,583.2144 885.4905,583.355 Q884.8499,583.5113 884.1467,583.5113 Q881.6467,583.5113 880.3186,581.8706 Q879.0061,580.2144 879.0061,577.0894 Q879.0061,573.9644 880.3186,572.3081 Q881.6467,570.6519 884.1467,570.6519 Q884.8499,570.6519 885.4905,570.8081 Q886.1467,570.9644 886.7092,571.2613 L886.7092,573.98 Q886.0842,573.4019 885.4905,573.1363 Q884.8967,572.855 884.2717,572.855 Q882.928,572.855 882.2405,573.9331 Q881.553,574.9956 881.553,577.0894 Q881.553,579.1831 882.2405,580.2613 Q882.928,581.3238 884.2717,581.3238 Q884.8967,581.3238 885.4905,581.0581 Q886.0842,580.7769 886.7092,580.1988 L886.7092,582.9175 Z " fill="#000000"/><text fill="#000000" font-family="sans-serif" font-size="14" lengthAdjust="spacing" textLength="143.7461" x="904.2405" y="582.1236">ModelBuildingConfig</text><line style="stroke:#999999;stroke-width:0.5;" x1="832.49" x2="1087.2371" y1="593.2769" y2="593.2769"/><ellipse cx="842.49" cy="606.9253" fill="none" rx="3" ry="3" style="stroke:#038048;stroke-width:1;"/><text fill="#000000" font-family="sans-serif" font-size="14" lengthAdjust="spacing" textLength="109.5732" x="851.49" y="610.272">model_type: str</text><ellipse cx="842.49" cy="623.2222" fill="none" rx="3" ry="3" style="stroke:#038048;stroke-width:1;"/><text fill="#000000" font-family="sans-serif" font-size="14" lengthAdjust="spacing" textLength="223.7402" x="851.49" y="626.5689">hyperparameters: Dict[str, Any]</text><ellipse cx="842.49" cy="639.5191" fill="none" rx="3" ry="3" style="stroke:#038048;stroke-width:1;"/><text fill="#000000" font-family="sans-serif" font-size="14" lengthAdjust="spacing" textLength="230.7471" x="851.49" y="642.8657">optimization: OptimizationConfig</text><line style="stroke:#999999;stroke-width:0.5;" x1="832.49" x2="1087.2371" y1="650.1675" y2="650.1675"/><ellipse cx="842.49" cy="663.8159" fill="#84BE84" rx="3" ry="3" style="stroke:#038048;stroke-width:1;"/><text fill="#000000" font-family="sans-serif" font-size="14" lengthAdjust="spacing" textLength="74.416" x="851.49" y="667.1626">__init__(...)</text></g><!--class DataLoadingConfig--><g class="entity" data-entity="DataLoadingConfig" data-source-line="49" data-uid="ent0006" id="entity_DataLoadingConfig"><rect fill="#EEEEEE" height="113.1875" rx="2.5" ry="2.5" style="stroke:#999999;stroke-width:0.5;" width="214.207" x="1122.76" y="561.2769"/><ellipse cx="1159.5309" cy="577.2769" fill="#ADD1B2" rx="11" ry="11" style="stroke:#181818;stroke-width:1;"/><path d="M1162.4997,582.9175 Q1161.9216,583.2144 1161.2809,583.355 Q1160.6403,583.5113 1159.9372,583.5113 Q1157.4372,583.5113 1156.1091,581.8706 Q1154.7966,580.2144 1154.7966,577.0894 Q1154.7966,573.9644 1156.1091,572.3081 Q1157.4372,570.6519 1159.9372,570.6519 Q1160.6403,570.6519 1161.2809,570.8081 Q1161.9372,570.9644 1162.4997,571.2613 L1162.4997,573.98 Q1161.8747,573.4019 1161.2809,573.1363 Q1160.6872,572.855 1160.0622,572.855 Q1158.7184,572.855 1158.0309,573.9331 Q1157.3434,574.9956 1157.3434,577.0894 Q1157.3434,579.1831 1158.0309,580.2613 Q1158.7184,581.3238 1160.0622,581.3238 Q1160.6872,581.3238 1161.2809,581.0581 Q1161.8747,580.7769 1162.4997,580.1988 L1162.4997,582.9175 Z " fill="#000000"/><text fill="#000000" font-family="sans-serif" font-size="14" lengthAdjust="spacing" textLength="133.8271" x="1178.3689" y="582.1236">DataLoadingConfig</text><line style="stroke:#999999;stroke-width:0.5;" x1="1123.76" x2="1335.967" y1="593.2769" y2="593.2769"/><ellipse cx="1133.76" cy="606.9253" fill="none" rx="3" ry="3" style="stroke:#038048;stroke-width:1;"/><text fill="#000000" font-family="sans-serif" font-size="14" lengthAdjust="spacing" textLength="91.9912" x="1142.76" y="610.272">encoding: str</text><ellipse cx="1133.76" cy="623.2222" fill="none" rx="3" ry="3" style="stroke:#038048;stroke-width:1;"/><text fill="#000000" font-family="sans-serif" font-size="14" lengthAdjust="spacing" textLength="90.3711" x="1142.76" y="626.5689">delimiter: str</text><ellipse cx="1133.76" cy="639.5191" fill="none" rx="3" ry="3" style="stroke:#038048;stroke-width:1;"/><text fill="#000000" font-family="sans-serif" font-size="14" lengthAdjust="spacing" textLength="188.207" x="1142.76" y="642.8657">required_columns: List[str]</text><line style="stroke:#999999;stroke-width:0.5;" x1="1123.76" x2="1335.967" y1="650.1675" y2="650.1675"/><ellipse cx="1133.76" cy="663.8159" fill="#84BE84" rx="3" ry="3" style="stroke:#038048;stroke-width:1;"/><text fill="#000000" font-family="sans-serif" font-size="14" lengthAdjust="spacing" textLength="74.416" x="1142.76" y="667.1626">__init__(...)</text></g><!--class ReferenceDataConfig--><g class="entity" data-entity="ReferenceDataConfig" data-source-line="56" data-uid="ent0007" id="entity_ReferenceDataConfig"><rect fill="#EEEEEE" height="96.8906" rx="2.5" ry="2.5" style="stroke:#999999;stroke-width:0.5;" width="188.8594" x="1372.44" y="569.4269"/><ellipse cx="1390.6247" cy="585.4269" fill="#ADD1B2" rx="11" ry="11" style="stroke:#181818;stroke-width:1;"/><path d="M1393.5935,591.0675 Q1393.0153,591.3644 1392.3747,591.505 Q1391.7341,591.6613 1391.031,591.6613 Q1388.531,591.6613 1387.2028,590.0206 Q1385.8903,588.3644 1385.8903,585.2394 Q1385.8903,582.1144 1387.2028,580.4581 Q1388.531,578.8019 1391.031,578.8019 Q1391.7341,578.8019 1392.3747,578.9581 Q1393.031,579.1144 1393.5935,579.4113 L1393.5935,582.13 Q1392.9685,581.5519 1392.3747,581.2863 Q1391.781,581.005 1391.156,581.005 Q1389.8122,581.005 1389.1247,582.0831 Q1388.4372,583.1456 1388.4372,585.2394 Q1388.4372,587.3331 1389.1247,588.4113 Q1389.8122,589.4738 1391.156,589.4738 Q1391.781,589.4738 1392.3747,589.2081 Q1392.9685,588.9269 1393.5935,588.3488 L1393.5935,591.0675 Z " fill="#000000"/><text fill="#000000" font-family="sans-serif" font-size="14" lengthAdjust="spacing" textLength="149.7822" x="1405.3324" y="590.2736">ReferenceDataConfig</text><line style="stroke:#999999;stroke-width:0.5;" x1="1373.44" x2="1560.2994" y1="601.4269" y2="601.4269"/><ellipse cx="1383.44" cy="615.0753" fill="none" rx="3" ry="3" style="stroke:#038048;stroke-width:1;"/><text fill="#000000" font-family="sans-serif" font-size="14" lengthAdjust="spacing" textLength="133.0479" x="1392.44" y="618.422">paths: Dict[str, str]</text><ellipse cx="1383.44" cy="631.3722" fill="none" rx="3" ry="3" style="stroke:#038048;stroke-width:1;"/><text fill="#000000" font-family="sans-serif" font-size="14" lengthAdjust="spacing" textLength="162.8594" x="1392.44" y="634.7189">mappings: Dict[str, str]</text><line style="stroke:#999999;stroke-width:0.5;" x1="1373.44" x2="1560.2994" y1="642.0206" y2="642.0206"/><ellipse cx="1383.44" cy="655.6691" fill="#84BE84" rx="3" ry="3" style="stroke:#038048;stroke-width:1;"/><text fill="#000000" font-family="sans-serif" font-size="14" lengthAdjust="spacing" textLength="74.416" x="1392.44" y="659.0157">__init__(...)</text></g><!--class PathsConfig--><g class="entity" data-entity="PathsConfig" data-source-line="62" data-uid="ent0008" id="entity_PathsConfig"><rect fill="#EEEEEE" height="113.1875" rx="2.5" ry="2.5" style="stroke:#999999;stroke-width:0.5;" width="130.125" x="1595.8" y="561.2769"/><ellipse cx="1617.3377" cy="577.2769" fill="#ADD1B2" rx="11" ry="11" style="stroke:#181818;stroke-width:1;"/><path d="M1620.3065,582.9175 Q1619.7284,583.2144 1619.0877,583.355 Q1618.4471,583.5113 1617.744,583.5113 Q1615.244,583.5113 1613.9159,581.8706 Q1612.6034,580.2144 1612.6034,577.0894 Q1612.6034,573.9644 1613.9159,572.3081 Q1615.244,570.6519 1617.744,570.6519 Q1618.4471,570.6519 1619.0877,570.8081 Q1619.744,570.9644 1620.3065,571.2613 L1620.3065,573.98 Q1619.6815,573.4019 1619.0877,573.1363 Q1618.494,572.855 1617.869,572.855 Q1616.5252,572.855 1615.8377,573.9331 Q1615.1502,574.9956 1615.1502,577.0894 Q1615.1502,579.1831 1615.8377,580.2613 Q1616.5252,581.3238 1617.869,581.3238 Q1618.494,581.3238 1619.0877,581.0581 Q1619.6815,580.7769 1620.3065,580.1988 L1620.3065,582.9175 Z " fill="#000000"/><text fill="#000000" font-family="sans-serif" font-size="14" lengthAdjust="spacing" textLength="83.5967" x="1632.7906" y="582.1236">PathsConfig</text><line style="stroke:#999999;stroke-width:0.5;" x1="1596.8" x2="1724.925" y1="593.2769" y2="593.2769"/><ellipse cx="1606.8" cy="606.9253" fill="none" rx="3" ry="3" style="stroke:#038048;stroke-width:1;"/><text fill="#000000" font-family="sans-serif" font-size="14" lengthAdjust="spacing" textLength="99.415" x="1615.8" y="610.272">output_dir: str</text><ellipse cx="1606.8" cy="623.2222" fill="none" rx="3" ry="3" style="stroke:#038048;stroke-width:1;"/><text fill="#000000" font-family="sans-serif" font-size="14" lengthAdjust="spacing" textLength="104.125" x="1615.8" y="626.5689">models_dir: str</text><ellipse cx="1606.8" cy="639.5191" fill="none" rx="3" ry="3" style="stroke:#038048;stroke-width:1;"/><text fill="#000000" font-family="sans-serif" font-size="14" lengthAdjust="spacing" textLength="84.7725" x="1615.8" y="642.8657">data_dir: str</text><line style="stroke:#999999;stroke-width:0.5;" x1="1596.8" x2="1724.925" y1="650.1675" y2="650.1675"/><ellipse cx="1606.8" cy="663.8159" fill="#84BE84" rx="3" ry="3" style="stroke:#038048;stroke-width:1;"/><text fill="#000000" font-family="sans-serif" font-size="14" lengthAdjust="spacing" textLength="74.416" x="1615.8" y="667.1626">__init__(...)</text></g><!--class YAMLConfigLoader--><g class="entity" data-entity="YAMLConfigLoader" data-source-line="69" data-uid="ent0009" id="entity_YAMLConfigLoader"><rect fill="#EEEEEE" height="96.8906" rx="2.5" ry="2.5" style="stroke:#999999;stroke-width:0.5;" width="396.542" x="144.59" y="339.4569"/><ellipse cx="273.0475" cy="355.4569" fill="#ADD1B2" rx="11" ry="11" style="stroke:#181818;stroke-width:1;"/><path d="M276.0163,361.0975 Q275.4381,361.3944 274.7975,361.535 Q274.1569,361.6913 273.4538,361.6913 Q270.9538,361.6913 269.6256,360.0506 Q268.3131,358.3944 268.3131,355.2694 Q268.3131,352.1444 269.6256,350.4881 Q270.9538,348.8319 273.4538,348.8319 Q274.1569,348.8319 274.7975,348.9881 Q275.4538,349.1444 276.0163,349.4413 L276.0163,352.16 Q275.3913,351.5819 274.7975,351.3163 Q274.2038,351.035 273.5788,351.035 Q272.235,351.035 271.5475,352.1131 Q270.86,353.1756 270.86,355.2694 Q270.86,357.3631 271.5475,358.4413 Q272.235,359.5038 273.5788,359.5038 Q274.2038,359.5038 274.7975,359.2381 Q275.3913,358.9569 276.0163,358.3788 L276.0163,361.0975 Z " fill="#000000"/><text fill="#000000" font-family="sans-serif" font-size="14" lengthAdjust="spacing" textLength="131.127" x="293.5475" y="360.3036">YAMLConfigLoader</text><line style="stroke:#999999;stroke-width:0.5;" x1="145.59" x2="540.132" y1="371.4569" y2="371.4569"/><line style="stroke:#999999;stroke-width:0.5;" x1="145.59" x2="540.132" y1="379.4569" y2="379.4569"/><ellipse cx="155.59" cy="393.1053" fill="#84BE84" rx="3" ry="3" style="stroke:#038048;stroke-width:1;"/><text fill="#000000" font-family="sans-serif" font-size="14" lengthAdjust="spacing" textLength="202.501" x="164.59" y="396.452">load(path: str): Dict[str, Any]</text><rect fill="#F24D5C" height="6" style="stroke:#C82930;stroke-width:1;" width="6" x="152.59" y="406.4022"/><text fill="#000000" font-family="sans-serif" font-size="14" lengthAdjust="spacing" textLength="268.9395" x="164.59" y="412.7489">_validate_config(config: Dict[str, Any])</text><rect fill="#F24D5C" height="6" style="stroke:#C82930;stroke-width:1;" width="6" x="152.59" y="422.6991"/><text fill="#000000" font-family="sans-serif" font-size="14" lengthAdjust="spacing" textLength="370.542" x="164.59" y="429.0457">_apply_environment_overrides(config: Dict[str, Any])</text></g><!--class ConfigSchema--><g class="entity" data-entity="ConfigSchema" data-source-line="75" data-uid="ent0010" id="entity_ConfigSchema"><rect fill="#EEEEEE" height="64.2969" rx="2.5" ry="2.5" style="stroke:#999999;stroke-width:0.5;" width="223.7295" x="7" y="585.7269"/><ellipse cx="64.0117" cy="601.7269" fill="#ADD1B2" rx="11" ry="11" style="stroke:#181818;stroke-width:1;"/><path d="M66.9805,607.3675 Q66.4023,607.6644 65.7617,607.805 Q65.1211,607.9613 64.418,607.9613 Q61.918,607.9613 60.5898,606.3206 Q59.2773,604.6644 59.2773,601.5394 Q59.2773,598.4144 60.5898,596.7581 Q61.918,595.1019 64.418,595.1019 Q65.1211,595.1019 65.7617,595.2581 Q66.418,595.4144 66.9805,595.7113 L66.9805,598.43 Q66.3555,597.8519 65.7617,597.5863 Q65.168,597.305 64.543,597.305 Q63.1992,597.305 62.5117,598.3831 Q61.8242,599.4456 61.8242,601.5394 Q61.8242,603.6331 62.5117,604.7113 Q63.1992,605.7738 64.543,605.7738 Q65.168,605.7738 65.7617,605.5081 Q66.3555,605.2269 66.9805,604.6488 L66.9805,607.3675 Z " fill="#000000"/><text fill="#000000" font-family="sans-serif" font-size="14" lengthAdjust="spacing" textLength="101.2061" x="84.5117" y="606.5736">ConfigSchema</text><line style="stroke:#999999;stroke-width:0.5;" x1="8" x2="229.7295" y1="617.7269" y2="617.7269"/><line style="stroke:#999999;stroke-width:0.5;" x1="8" x2="229.7295" y1="625.7269" y2="625.7269"/><ellipse cx="18" cy="639.3753" fill="#84BE84" rx="3" ry="3" style="stroke:#038048;stroke-width:1;"/><text fill="#000000" font-family="sans-serif" font-size="14" lengthAdjust="spacing" text-decoration="underline" textLength="197.7295" x="27" y="642.722">get_schema(): Dict[str, Any]</text></g><g class="entity" data-entity="GMN19" data-source-line="91" data-uid="ent0020" id="entity_GMN19"><path d="M1350.63,113.3469 L1350.63,129.4869 L1316.11,133.4869 L1350.63,137.4869 L1350.63,153.6125 A0,0 0 0 0 1350.63,153.6125 L1619.0997,153.6125 A0,0 0 0 0 1619.0997,153.6125 L1619.0997,123.3469 L1609.0997,113.3469 L1350.63,113.3469 A0,0 0 0 0 1350.63,113.3469 " fill="#FFFFCC" style="stroke:#999999;stroke-width:0.5;"/><path d="M1609.0997,113.3469 L1609.0997,123.3469 L1619.0997,123.3469 L1609.0997,113.3469 " fill="#FFFFCC" style="stroke:#999999;stroke-width:0.5;"/><text fill="#000000" font-family="sans-serif" font-size="13" lengthAdjust="spacing" textLength="205.8672" x="1356.63" y="130.4138">Singleton provider that ensures</text><text fill="#000000" font-family="sans-serif" font-size="13" lengthAdjust="spacing" textLength="247.4697" x="1356.63" y="145.5466">only one configuration instance exists</text></g><g class="entity" data-entity="GMN22" data-source-line="96" data-uid="ent0023" id="entity_GMN22"><path d="M576.39,367.7669 L576.39,383.9069 L541.52,387.9069 L576.39,391.9069 L576.39,408.0325 A0,0 0 0 0 576.39,408.0325 L881.3334,408.0325 A0,0 0 0 0 881.3334,408.0325 L881.3334,377.7669 L871.3334,367.7669 L576.39,367.7669 A0,0 0 0 0 576.39,367.7669 " fill="#FFFFCC" style="stroke:#999999;stroke-width:0.5;"/><path d="M871.3334,367.7669 L871.3334,377.7669 L881.3334,377.7669 L871.3334,367.7669 " fill="#FFFFCC" style="stroke:#999999;stroke-width:0.5;"/><text fill="#000000" font-family="sans-serif" font-size="13" lengthAdjust="spacing" textLength="233.3525" x="582.39" y="384.8338">Loads configuration from YAML files</text><text fill="#000000" font-family="sans-serif" font-size="13" lengthAdjust="spacing" textLength="283.9434" x="582.39" y="399.9666">and applies environment variable overrides</text></g><g class="entity" data-entity="GMN25" data-source-line="101" data-uid="ent0026" id="entity_GMN25"><path d="M265.38,597.7369 L265.38,613.8769 L230.99,617.8769 L265.38,621.8769 L265.38,638.0025 A0,0 0 0 0 265.38,638.0025 L528.3463,638.0025 A0,0 0 0 0 528.3463,638.0025 L528.3463,607.7369 L518.3463,597.7369 L265.38,597.7369 A0,0 0 0 0 265.38,597.7369 " fill="#FFFFCC" style="stroke:#999999;stroke-width:0.5;"/><path d="M518.3463,597.7369 L518.3463,607.7369 L528.3463,607.7369 L518.3463,597.7369 " fill="#FFFFCC" style="stroke:#999999;stroke-width:0.5;"/><text fill="#000000" font-family="sans-serif" font-size="13" lengthAdjust="spacing" textLength="241.9663" x="271.38" y="614.8038">Defines the schema for configuration</text><text fill="#000000" font-family="sans-serif" font-size="13" lengthAdjust="spacing" textLength="195.8252" x="271.38" y="629.9366">validation using JSON Schema</text></g><g class="entity" data-entity="GMN28" data-source-line="107" data-uid="ent0029" id="entity_GMN28"><path d="M1399.42,299.6669 L1399.42,476.1278 A0,0 0 0 0 1399.42,476.1278 L1792.3165,476.1278 A0,0 0 0 0 1792.3165,476.1278 L1792.3165,309.6669 L1782.3165,299.6669 L1457.14,299.6669 L1316.04,215.0469 L1449.14,299.6669 L1399.42,299.6669 A0,0 0 0 0 1399.42,299.6669 " fill="#FFFFCC" style="stroke:#999999;stroke-width:0.5;"/><path d="M1782.3165,299.6669 L1782.3165,309.6669 L1792.3165,309.6669 L1782.3165,299.6669 " fill="#FFFFCC" style="stroke:#999999;stroke-width:0.5;"/><text fill="#000000" font-family="sans-serif" font-size="13" lengthAdjust="spacing" textLength="104.1396" x="1405.42" y="316.7338">Example usage:</text><text fill="#000000" font-family="sans-serif" font-size="13" lengthAdjust="spacing" textLength="64.9746" x="1405.42" y="331.8666">```python</text><text fill="#000000" font-family="sans-serif" font-size="13" lengthAdjust="spacing" textLength="371.8965" x="1405.42" y="346.9994">from nexusml.core.config.provider import ConfigProvider</text><text fill="#000000" font-family="sans-serif" font-size="13" lengthAdjust="spacing" textLength="4.1323" x="1405.42" y="362.1322">&#160;</text><text fill="#000000" font-family="sans-serif" font-size="13" lengthAdjust="spacing" textLength="12.4033" x="1405.42" y="377.265">1.</text><text fill="#000000" font-family="sans-serif" font-size="13" lengthAdjust="spacing" textLength="113.5342" x="1421.9556" y="377.265">Get configuration</text><text fill="#000000" font-family="sans-serif" font-size="13" lengthAdjust="spacing" textLength="236.5898" x="1405.42" y="392.3978">config = ConfigProvider.get_config()</text><text fill="#000000" font-family="sans-serif" font-size="13" lengthAdjust="spacing" textLength="4.1323" x="1405.42" y="407.5306">&#160;</text><text fill="#000000" font-family="sans-serif" font-size="13" lengthAdjust="spacing" textLength="12.4033" x="1405.42" y="422.6635">2.</text><text fill="#000000" font-family="sans-serif" font-size="13" lengthAdjust="spacing" textLength="192.8228" x="1421.9556" y="422.6635">Access configuration sections</text><text fill="#000000" font-family="sans-serif" font-size="13" lengthAdjust="spacing" textLength="288.0757" x="1405.42" y="437.7963">feature_config = config.feature_engineering</text><text fill="#000000" font-family="sans-serif" font-size="13" lengthAdjust="spacing" textLength="248.8789" x="1405.42" y="452.9291">model_config = config.model_building</text><text fill="#000000" font-family="sans-serif" font-size="13" lengthAdjust="spacing" textLength="19.5" x="1405.42" y="468.0619">```</text></g><!--link ConfigProvider to Configuration--><g class="link" data-entity-1="ConfigProvider" data-entity-2="Configuration" data-source-line="80" data-uid="lnk11" id="link_ConfigProvider_Configuration"><path codeLine="80" d="M1184.86,223.1269 C1184.86,253.0969 1184.86,280.1769 1184.86,308.7169 " fill="none" id="ConfigProvider-to-Configuration" style="stroke:#666666;stroke-width:1;"/><polygon fill="#666666" points="1184.86,314.7169,1188.86,305.7169,1184.86,309.7169,1180.86,305.7169,1184.86,314.7169" style="stroke:#666666;stroke-width:1;"/><text fill="#000000" font-family="sans-serif" font-size="13" lengthAdjust="spacing" textLength="140.9053" x="1185.86" y="265.7338">creates and manages</text></g><!--link ConfigProvider to YAMLConfigLoader--><g class="link" data-entity-1="ConfigProvider" data-entity-2="YAMLConfigLoader" data-source-line="81" data-uid="lnk12" id="link_ConfigProvider_YAMLConfigLoader"><path codeLine="81" d="M1053.68,164.0169 C926.03,193.9369 727.26,243.6969 558.86,299.6669 C524.23,311.1869 492.7281,323.1568 459.2581,336.7668 " fill="none" id="ConfigProvider-to-YAMLConfigLoader" style="stroke:#666666;stroke-width:1;"/><polygon fill="#666666" points="453.7,339.0269,463.5438,339.3421,458.3317,337.1435,460.5304,331.9314,453.7,339.0269" style="stroke:#666666;stroke-width:1;"/><text fill="#000000" font-family="sans-serif" font-size="13" lengthAdjust="spacing" textLength="29.7832" x="695.86" y="265.7338">uses</text></g><!--reverse link Configuration to FeatureEngineeringConfig--><g class="link" data-entity-1="Configuration" data-entity-2="FeatureEngineeringConfig" data-source-line="82" data-uid="lnk13" id="link_Configuration_FeatureEngineeringConfig"><path codeLine="82" d="M1008.1579,465.9436 C943.8779,494.2536 880.76,522.4269 813.86,553.1369 C808.13,555.7669 802.26,558.4769 796.35,561.2369 " fill="none" id="Configuration-backto-FeatureEngineeringConfig" style="stroke:#666666;stroke-width:1;"/><polygon fill="#666666" points="1019.14,461.1069,1012.0367,459.8645,1008.1579,465.9436,1015.2612,467.1859,1019.14,461.1069" style="stroke:#666666;stroke-width:1;"/></g><!--reverse link Configuration to ModelBuildingConfig--><g class="link" data-entity-1="Configuration" data-entity-2="ModelBuildingConfig" data-source-line="83" data-uid="lnk14" id="link_Configuration_ModelBuildingConfig"><path codeLine="83" d="M1105.2403,469.5774 C1073.3103,501.9274 1044.66,530.9569 1014.91,561.1069 " fill="none" id="Configuration-backto-ModelBuildingConfig" style="stroke:#666666;stroke-width:1;"/><polygon fill="#666666" points="1113.67,461.0369,1106.6083,462.4973,1105.2403,469.5774,1112.302,468.117,1113.67,461.0369" style="stroke:#666666;stroke-width:1;"/></g><!--reverse link Configuration to DataLoadingConfig--><g class="link" data-entity-1="Configuration" data-entity-2="DataLoadingConfig" data-source-line="84" data-uid="lnk15" id="link_Configuration_DataLoadingConfig"><path codeLine="84" d="M1201.4254,472.8094 C1207.8154,505.1594 1212.91,530.9569 1218.86,561.1069 " fill="none" id="Configuration-backto-DataLoadingConfig" style="stroke:#666666;stroke-width:1;"/><polygon fill="#666666" points="1199.1,461.0369,1196.3385,467.6983,1201.4254,472.8094,1204.1869,466.148,1199.1,461.0369" style="stroke:#666666;stroke-width:1;"/></g><!--reverse link Configuration to ReferenceDataConfig--><g class="link" data-entity-1="Configuration" data-entity-2="ReferenceDataConfig" data-source-line="85" data-uid="lnk16" id="link_Configuration_ReferenceDataConfig"><path codeLine="85" d="M1283.4223,468.5807 C1326.9923,503.8007 1368.88,537.6669 1407.58,568.9469 " fill="none" id="Configuration-backto-ReferenceDataConfig" style="stroke:#666666;stroke-width:1;"/><polygon fill="#666666" points="1274.09,461.0369,1276.2415,467.9195,1283.4223,468.5807,1281.2707,461.698,1274.09,461.0369" style="stroke:#666666;stroke-width:1;"/></g><!--reverse link Configuration to PathsConfig--><g class="link" data-entity-1="Configuration" data-entity-2="PathsConfig" data-source-line="86" data-uid="lnk17" id="link_Configuration_PathsConfig"><path codeLine="86" d="M1357.7069,465.9706 C1369.5869,471.0706 1370.38,471.3469 1381.86,476.1369 C1468.64,512.2869 1497.13,506.6969 1578.86,553.1369 C1584.35,556.2469 1589.87,559.7069 1595.31,563.3469 " fill="none" id="Configuration-backto-PathsConfig" style="stroke:#666666;stroke-width:1;"/><polygon fill="#666666" points="1346.68,461.2369,1350.6155,467.2794,1357.7069,465.9706,1353.7713,459.9281,1346.68,461.2369" style="stroke:#666666;stroke-width:1;"/></g><!--link YAMLConfigLoader to ConfigSchema--><g class="link" data-entity-1="YAMLConfigLoader" data-entity-2="ConfigSchema" data-source-line="87" data-uid="lnk18" id="link_YAMLConfigLoader_ConfigSchema"><path codeLine="87" d="M295.91,436.6969 C252.03,481.3469 191.9852,542.4572 154.1552,580.9572 " fill="none" id="YAMLConfigLoader-to-ConfigSchema" style="stroke:#666666;stroke-width:1;"/><polygon fill="#666666" points="149.95,585.2369,159.111,581.6208,153.4544,581.6704,153.4047,576.0138,149.95,585.2369" style="stroke:#666666;stroke-width:1;"/><text fill="#000000" font-family="sans-serif" font-size="13" lengthAdjust="spacing" textLength="119.9263" x="225.86" y="519.2038">uses for validation</text></g><!--SRC=[XLPDRziu4BthLmoGGvnjxSCU5bW1Mo1rqWAB92tgtKDH50f3ZIsY5AabgJHkaV- -GrAIzPdg89lauyoRD-ICpc7dZX8XnxrGmWcjR6A_2LKnmqhWkgoqGkKYg2xbxxtL1yQ_7OokLRxLKXluNWY7lVLBO_Jtk7JsHtXwYrl9h7shJOwcWVmPdWbavEJiEZmzs9rsE46zesUx7QDct2Ndy8zm4XFdtt27JxMzlO6jLdjng0tpai3kQ1sM7XiueKsu_srG7ur-56GOVYO0h-2dTRIBFyC1NSO3OdMH3YqEWK5v9iKFN4LyLZ5Nf62TWR-8kSABuGQ35jtAJwvFavbGz5TnJ4Uy0gnXCkNHBPsSnjdCqygoboWHIcgMTr4cpyb0cLQ_ACmUcQiDPgWEGY4QeOZEkpXvVPgBMyEEKkSeiuTQo3o0R_tuRJFiuNBcM60IK5Sqkec37iRW7WsIF9b7f_2f7Nju3-VZj2byz3-zwKwEpMRJYtE9VXEomoT_1cHTAh9v8wpxGWf-3MkgBca3Pt89m9d3WtuHuWnJTgyDMQArAy73sckuLCUlBz6U4R9X72LtnmhRe_0A2XgPS8tGBJdIbHEb-17odSA7tkZN8auIrd2XxEYOqfO9SIExHE8qPV2_MXZCboHQy3cJ_iPhSm1ECNQcIbPLH6T-SS5FxnmrzdNjgjfbkUW54LItmxbmg0Sp2ou-NzxUH0zUnAuE-VkmwcxjnKpMwFe-KjaXHzXUuRPA3B7DNQVmvP6kxwCmMfNK5ZBzYCPGZR6B6qSLOSSBBDbSfRHXPJNb-UphxYUKuJ3PGbGs6TNTzVhDgE2am0tTJBJ0L4vvK-o0izicsgLGsmxQcljjlLukL5FeN9cQegPbQegPAr9JLBzMJG8wYTDe7oC4gXhGPDyt0jBOjqYRA7g34OV2WTvFEycEw4fqvBbgTNG5StHNBQbZ2Q6LFD8BWG-8jjq9y8dkfqsG4kDz9IEFum38elzZH-RsHfS12tiXWr-VQNz21GNNEwCKf17iWNfxTrWNVVTr8ejN_gE8hBa28HxFe1eVTT2JYgGioGD_xpxSGMFbvEeS_hLq32b-LbQoLVf1EqUHJAM-ZZ0oIPlIvFx-lZgwWXo6o9N_JYdbXck3cqXeqoL4q5URSME3oHcyHpTY7qVKqeVWJV_RnU-yv1pjE0SMUVnYR3jxPwrXDDFnazXWniXXf_VHTihz3m00]--></g></svg>