<svg xmlns="http://www.w3.org/2000/svg" xmlns:xlink="http://www.w3.org/1999/xlink" contentStyleType="text/css" data-diagram-type="ACTIVITY" height="882px" preserveAspectRatio="none" style="width:623px;height:882px;background:#FFFFFF;" version="1.1" viewBox="0 0 623 882" width="623px" zoomAndPan="magnify"><title>NexusML Data Flow</title><defs/><g><text fill="#000000" font-family="sans-serif" font-size="14" font-weight="bold" lengthAdjust="spacing" textLength="155.2646" x="232.3765" y="32.9951">NexusML Data Flow</text><ellipse cx="130.2305" cy="57.2969" fill="#222222" rx="10" ry="10" style="stroke:#222222;stroke-width:1;"/><path d="M192,84.1484 L192,100.2813 L172,104.2813 L192,108.2813 L192,124.4141 A0,0 0 0 0 192,124.4141 L416.7344,124.4141 A0,0 0 0 0 416.7344,124.4141 L416.7344,94.1484 L406.7344,84.1484 L192,84.1484 A0,0 0 0 0 192,84.1484 " fill="#FEFFDD" style="stroke:#181818;stroke-width:0.5;"/><path d="M406.7344,84.1484 L406.7344,94.1484 L416.7344,94.1484 L406.7344,84.1484 " fill="#FEFFDD" style="stroke:#181818;stroke-width:0.5;"/><text fill="#000000" font-family="sans-serif" font-size="13" lengthAdjust="spacing" textLength="183.9868" x="198" y="101.2153">CSV, Excel, or other formats</text><text fill="#000000" font-family="sans-serif" font-size="13" lengthAdjust="spacing" textLength="203.7344" x="198" y="116.3481">with arbitrary column structure</text><rect fill="#EEEEEE" height="33.9688" rx="12.5" ry="12.5" style="stroke:#999999;stroke-width:0.5;" width="83.5391" x="88.4609" y="87.2969"/><text fill="#000000" font-family="sans-serif" font-size="12" lengthAdjust="spacing" textLength="63.5391" x="98.4609" y="108.4355">Input Data</text><path d="M244.6934,134.4141 L244.6934,165.6797 L224.6934,169.6797 L244.6934,173.6797 L244.6934,204.9453 A0,0 0 0 0 244.6934,204.9453 L430.5674,204.9453 A0,0 0 0 0 430.5674,204.9453 L430.5674,144.4141 L420.5674,134.4141 L244.6934,134.4141 A0,0 0 0 0 244.6934,134.4141 " fill="#FEFFDD" style="stroke:#181818;stroke-width:0.5;"/><path d="M420.5674,134.4141 L420.5674,144.4141 L430.5674,144.4141 L420.5674,134.4141 " fill="#FEFFDD" style="stroke:#181818;stroke-width:0.5;"/><text fill="#000000" font-family="sans-serif" font-size="13" lengthAdjust="spacing" textLength="132.2534" x="250.6934" y="151.481">- Load data from file</text><text fill="#000000" font-family="sans-serif" font-size="13" lengthAdjust="spacing" textLength="145.4756" x="250.6934" y="166.6138">- Clean column names</text><text fill="#000000" font-family="sans-serif" font-size="13" lengthAdjust="spacing" textLength="105.0981" x="250.6934" y="181.7466">- Fill NaN values</text><text fill="#000000" font-family="sans-serif" font-size="13" lengthAdjust="spacing" textLength="164.874" x="250.6934" y="196.8794">- Verify required columns</text><rect fill="#EEEEEE" height="33.9688" rx="12.5" ry="12.5" style="stroke:#999999;stroke-width:0.5;" width="188.9258" x="35.7676" y="152.6953"/><text fill="#000000" font-family="sans-serif" font-size="12" lengthAdjust="spacing" textLength="168.9258" x="45.7676" y="173.834">load_and_preprocess_data()</text><path d="M252.624,214.9453 L252.624,238.6445 L232.624,242.6445 L252.624,246.6445 L252.624,270.3438 A0,0 0 0 0 252.624,270.3438 L498.1279,270.3438 A0,0 0 0 0 498.1279,270.3438 L498.1279,224.9453 L488.1279,214.9453 L252.624,214.9453 A0,0 0 0 0 252.624,214.9453 " fill="#FEFFDD" style="stroke:#181818;stroke-width:0.5;"/><path d="M488.1279,214.9453 L488.1279,224.9453 L498.1279,224.9453 L488.1279,214.9453 " fill="#FEFFDD" style="stroke:#181818;stroke-width:0.5;"/><text fill="#000000" font-family="sans-serif" font-size="13" lengthAdjust="spacing" textLength="224.5039" x="258.624" y="232.0122">- Map columns to expected format</text><text fill="#000000" font-family="sans-serif" font-size="13" lengthAdjust="spacing" textLength="213.624" x="258.624" y="247.145">- Fill required fields with defaults</text><text fill="#000000" font-family="sans-serif" font-size="13" lengthAdjust="spacing" textLength="156.5586" x="258.624" y="262.2778">- Convert numeric fields</text><rect fill="#EEEEEE" height="33.9688" rx="12.5" ry="12.5" style="stroke:#999999;stroke-width:0.5;" width="204.7871" x="27.8369" y="225.6602"/><text fill="#000000" font-family="sans-serif" font-size="12" lengthAdjust="spacing" textLength="184.7871" x="37.8369" y="246.7988">map_staging_to_model_input()</text><path d="M269.4609,280.3438 L269.4609,326.7422 L249.4609,330.7422 L269.4609,334.7422 L269.4609,381.1406 A0,0 0 0 0 269.4609,381.1406 L495.4014,381.1406 A0,0 0 0 0 495.4014,381.1406 L495.4014,290.3438 L485.4014,280.3438 L269.4609,280.3438 A0,0 0 0 0 269.4609,280.3438 " fill="#FEFFDD" style="stroke:#181818;stroke-width:0.5;"/><path d="M485.4014,280.3438 L485.4014,290.3438 L495.4014,290.3438 L485.4014,280.3438 " fill="#FEFFDD" style="stroke:#181818;stroke-width:0.5;"/><text fill="#000000" font-family="sans-serif" font-size="13" lengthAdjust="spacing" textLength="165.6548" x="275.4609" y="297.4106">- Apply column mappings</text><text fill="#000000" font-family="sans-serif" font-size="13" lengthAdjust="spacing" textLength="135.5923" x="275.4609" y="312.5435">- Combine text fields</text><text fill="#000000" font-family="sans-serif" font-size="13" lengthAdjust="spacing" textLength="161.8525" x="275.4609" y="327.6763">- Clean numeric columns</text><text fill="#000000" font-family="sans-serif" font-size="13" lengthAdjust="spacing" textLength="204.9404" x="275.4609" y="342.8091">- Create hierarchical categories</text><text fill="#000000" font-family="sans-serif" font-size="13" lengthAdjust="spacing" textLength="201.8872" x="275.4609" y="357.9419">- Apply classification mappings</text><text fill="#000000" font-family="sans-serif" font-size="13" lengthAdjust="spacing" textLength="131.9614" x="275.4609" y="373.0747">- Add EAV attributes</text><rect fill="#EEEEEE" height="33.9688" rx="12.5" ry="12.5" style="stroke:#999999;stroke-width:0.5;" width="238.4609" x="11" y="313.7578"/><text fill="#000000" font-family="sans-serif" font-size="12" lengthAdjust="spacing" textLength="218.4609" x="21" y="334.8965">GenericFeatureEngineer.transform()</text><path d="M209.0215,391.1406 L209.0215,414.8398 L189.0215,418.8398 L209.0215,422.8398 L209.0215,446.5391 A0,0 0 0 0 209.0215,446.5391 L481.0205,446.5391 A0,0 0 0 0 481.0205,446.5391 L481.0205,401.1406 L471.0205,391.1406 L209.0215,391.1406 A0,0 0 0 0 209.0215,391.1406 " fill="#FEFFDD" style="stroke:#181818;stroke-width:0.5;"/><path d="M471.0205,391.1406 L471.0205,401.1406 L481.0205,401.1406 L471.0205,391.1406 " fill="#FEFFDD" style="stroke:#181818;stroke-width:0.5;"/><text fill="#000000" font-family="sans-serif" font-size="13" lengthAdjust="spacing" textLength="209.6377" x="215.0215" y="408.2075">- Split into training and test sets</text><text fill="#000000" font-family="sans-serif" font-size="13" lengthAdjust="spacing" textLength="250.999" x="215.0215" y="423.3403">- X contains text and numeric features</text><text fill="#000000" font-family="sans-serif" font-size="13" lengthAdjust="spacing" textLength="235.5425" x="215.0215" y="438.4731">- y contains multiple target columns</text><rect fill="#EEEEEE" height="33.9688" rx="12.5" ry="12.5" style="stroke:#999999;stroke-width:0.5;" width="117.582" x="71.4395" y="401.8555"/><text fill="#000000" font-family="sans-serif" font-size="12" lengthAdjust="spacing" textLength="97.582" x="81.4395" y="422.9941">train_test_split()</text><path d="M233.9238,456.5391 L233.9238,487.8047 L213.9238,491.8047 L233.9238,495.8047 L233.9238,527.0703 A0,0 0 0 0 233.9238,527.0703 L578.2354,527.0703 A0,0 0 0 0 578.2354,527.0703 L578.2354,466.5391 L568.2354,456.5391 L233.9238,456.5391 A0,0 0 0 0 233.9238,456.5391 " fill="#FEFFDD" style="stroke:#181818;stroke-width:0.5;"/><path d="M568.2354,456.5391 L568.2354,466.5391 L578.2354,466.5391 L568.2354,456.5391 " fill="#FEFFDD" style="stroke:#181818;stroke-width:0.5;"/><text fill="#000000" font-family="sans-serif" font-size="13" lengthAdjust="spacing" textLength="219.0386" x="239.9238" y="473.606">- Create TF-IDF vectorizer for text</text><text fill="#000000" font-family="sans-serif" font-size="13" lengthAdjust="spacing" textLength="293.6362" x="239.9238" y="488.7388">- Create StandardScaler for numeric features</text><text fill="#000000" font-family="sans-serif" font-size="13" lengthAdjust="spacing" textLength="232.394" x="239.9238" y="503.8716">- Combine with ColumnTransformer</text><text fill="#000000" font-family="sans-serif" font-size="13" lengthAdjust="spacing" textLength="323.3115" x="239.9238" y="519.0044">- Create MultiOutputClassifier with RandomForest</text><rect fill="#EEEEEE" height="33.9688" rx="12.5" ry="12.5" style="stroke:#999999;stroke-width:0.5;" width="167.3867" x="46.5371" y="474.8203"/><text fill="#000000" font-family="sans-serif" font-size="12" lengthAdjust="spacing" textLength="147.3867" x="56.5371" y="495.959">build_enhanced_model()</text><path d="M237.041,543.9219 L237.041,560.0547 L217.041,564.0547 L237.041,568.0547 L237.041,584.1875 A0,0 0 0 0 237.041,584.1875 L530.9077,584.1875 A0,0 0 0 0 530.9077,584.1875 L530.9077,553.9219 L520.9077,543.9219 L237.041,543.9219 A0,0 0 0 0 237.041,543.9219 " fill="#FEFFDD" style="stroke:#181818;stroke-width:0.5;"/><path d="M520.9077,543.9219 L520.9077,553.9219 L530.9077,553.9219 L520.9077,543.9219 " fill="#FEFFDD" style="stroke:#181818;stroke-width:0.5;"/><text fill="#000000" font-family="sans-serif" font-size="13" lengthAdjust="spacing" textLength="240.208" x="243.041" y="560.9888">- Train the model on multiple targets</text><text fill="#000000" font-family="sans-serif" font-size="13" lengthAdjust="spacing" textLength="272.8667" x="243.041" y="576.1216">- Use class_weight for imbalanced classes</text><rect fill="#EEEEEE" height="33.9688" rx="12.5" ry="12.5" style="stroke:#999999;stroke-width:0.5;" width="173.6211" x="43.4199" y="547.0703"/><text fill="#000000" font-family="sans-serif" font-size="12" lengthAdjust="spacing" textLength="153.6211" x="53.4199" y="568.209">model.fit(X_train, y_train)</text><path d="M229.0459,594.1875 L229.0459,617.8867 L209.0459,621.8867 L229.0459,625.8867 L229.0459,649.5859 A0,0 0 0 0 229.0459,649.5859 L512.2993,649.5859 A0,0 0 0 0 512.2993,649.5859 L512.2993,604.1875 L502.2993,594.1875 L229.0459,594.1875 A0,0 0 0 0 229.0459,594.1875 " fill="#FEFFDD" style="stroke:#181818;stroke-width:0.5;"/><path d="M502.2993,594.1875 L502.2993,604.1875 L512.2993,604.1875 L502.2993,594.1875 " fill="#FEFFDD" style="stroke:#181818;stroke-width:0.5;"/><text fill="#000000" font-family="sans-serif" font-size="13" lengthAdjust="spacing" textLength="139.0327" x="235.0459" y="611.2544">- Evaluate on test set</text><text fill="#000000" font-family="sans-serif" font-size="13" lengthAdjust="spacing" textLength="208.6538" x="235.0459" y="626.3872">- Generate classification reports</text><text fill="#000000" font-family="sans-serif" font-size="13" lengthAdjust="spacing" textLength="262.2534" x="235.0459" y="641.52">- Analyze "Other" category performance</text><rect fill="#EEEEEE" height="33.9688" rx="12.5" ry="12.5" style="stroke:#999999;stroke-width:0.5;" width="157.6309" x="51.415" y="604.9023"/><text fill="#000000" font-family="sans-serif" font-size="12" lengthAdjust="spacing" textLength="137.6309" x="61.415" y="626.041">enhanced_evaluation()</text><path d="M264.5479,666.4375 L264.5479,682.5703 L244.5479,686.5703 L264.5479,690.5703 L264.5479,706.7031 A0,0 0 0 0 264.5479,706.7031 L611.0176,706.7031 A0,0 0 0 0 611.0176,706.7031 L611.0176,676.4375 L601.0176,666.4375 L264.5479,666.4375 A0,0 0 0 0 264.5479,666.4375 " fill="#FEFFDD" style="stroke:#181818;stroke-width:0.5;"/><path d="M601.0176,666.4375 L601.0176,676.4375 L611.0176,676.4375 L601.0176,666.4375 " fill="#FEFFDD" style="stroke:#181818;stroke-width:0.5;"/><text fill="#000000" font-family="sans-serif" font-size="13" lengthAdjust="spacing" textLength="323.1274" x="270.5479" y="683.5044">- Analyze important features for "Other" category</text><text fill="#000000" font-family="sans-serif" font-size="13" lengthAdjust="spacing" textLength="325.4697" x="270.5479" y="698.6372">- Extract feature importances from RandomForest</text><rect fill="#EEEEEE" height="33.9688" rx="12.5" ry="12.5" style="stroke:#999999;stroke-width:0.5;" width="228.6348" x="15.9131" y="669.5859"/><text fill="#000000" font-family="sans-serif" font-size="12" lengthAdjust="spacing" textLength="208.6348" x="25.9131" y="690.7246">analyze_other_category_features()</text><path d="M262.6846,723.5547 L262.6846,739.6875 L242.6846,743.6875 L262.6846,747.6875 L262.6846,763.8203 A0,0 0 0 0 262.6846,763.8203 L537.0386,763.8203 A0,0 0 0 0 537.0386,763.8203 L537.0386,733.5547 L527.0386,723.5547 L262.6846,723.5547 A0,0 0 0 0 262.6846,723.5547 " fill="#FEFFDD" style="stroke:#181818;stroke-width:0.5;"/><path d="M527.0386,723.5547 L527.0386,733.5547 L537.0386,733.5547 L527.0386,723.5547 " fill="#FEFFDD" style="stroke:#181818;stroke-width:0.5;"/><text fill="#000000" font-family="sans-serif" font-size="13" lengthAdjust="spacing" textLength="253.354" x="268.6846" y="740.6216">- Analyze false positives and negatives</text><text fill="#000000" font-family="sans-serif" font-size="13" lengthAdjust="spacing" textLength="245.6924" x="268.6846" y="755.7544">- Show examples of misclassifications</text><rect fill="#EEEEEE" height="33.9688" rx="12.5" ry="12.5" style="stroke:#999999;stroke-width:0.5;" width="224.9082" x="17.7764" y="726.7031"/><text fill="#000000" font-family="sans-serif" font-size="12" lengthAdjust="spacing" textLength="204.9082" x="27.7764" y="747.8418">analyze_other_misclassifications()</text><path d="M239.7305,773.8203 L239.7305,797.5195 L219.7305,801.5195 L239.7305,805.5195 L239.7305,829.2188 A0,0 0 0 0 239.7305,829.2188 L476.5317,829.2188 A0,0 0 0 0 476.5317,829.2188 L476.5317,783.8203 L466.5317,773.8203 L239.7305,773.8203 A0,0 0 0 0 239.7305,773.8203 " fill="#FEFFDD" style="stroke:#181818;stroke-width:0.5;"/><path d="M466.5317,773.8203 L466.5317,783.8203 L476.5317,783.8203 L466.5317,773.8203 " fill="#FEFFDD" style="stroke:#181818;stroke-width:0.5;"/><text fill="#000000" font-family="sans-serif" font-size="13" lengthAdjust="spacing" textLength="168.7397" x="245.7305" y="790.8872">- Save model to pickle file</text><text fill="#000000" font-family="sans-serif" font-size="13" lengthAdjust="spacing" textLength="192.353" x="245.7305" y="806.02">- Save metadata with metrics</text><text fill="#000000" font-family="sans-serif" font-size="13" lengthAdjust="spacing" textLength="215.8013" x="245.7305" y="821.1528">- Create symlinks to latest model</text><rect fill="#EEEEEE" height="33.9688" rx="12.5" ry="12.5" style="stroke:#999999;stroke-width:0.5;" width="179" x="40.7305" y="784.5352"/><text fill="#000000" font-family="sans-serif" font-size="12" lengthAdjust="spacing" textLength="159" x="50.7305" y="805.6738">Save model and metadata</text><ellipse cx="130.2305" cy="860.2188" fill="none" rx="11" ry="11" style="stroke:#222222;stroke-width:1;"/><ellipse cx="130.2305" cy="860.2188" fill="#222222" rx="6" ry="6" style="stroke:#222222;stroke-width:1;"/><line style="stroke:#666666;stroke-width:1;" x1="130.2305" x2="130.2305" y1="67.2969" y2="87.2969"/><polygon fill="#666666" points="126.2305,77.2969,130.2305,87.2969,134.2305,77.2969,130.2305,81.2969" style="stroke:#666666;stroke-width:1;"/><line style="stroke:#666666;stroke-width:1;" x1="130.2305" x2="130.2305" y1="121.2656" y2="152.6953"/><polygon fill="#666666" points="126.2305,142.6953,130.2305,152.6953,134.2305,142.6953,130.2305,146.6953" style="stroke:#666666;stroke-width:1;"/><line style="stroke:#666666;stroke-width:1;" x1="130.2305" x2="130.2305" y1="186.6641" y2="225.6602"/><polygon fill="#666666" points="126.2305,215.6602,130.2305,225.6602,134.2305,215.6602,130.2305,219.6602" style="stroke:#666666;stroke-width:1;"/><line style="stroke:#666666;stroke-width:1;" x1="130.2305" x2="130.2305" y1="259.6289" y2="313.7578"/><polygon fill="#666666" points="126.2305,303.7578,130.2305,313.7578,134.2305,303.7578,130.2305,307.7578" style="stroke:#666666;stroke-width:1;"/><line style="stroke:#666666;stroke-width:1;" x1="130.2305" x2="130.2305" y1="347.7266" y2="401.8555"/><polygon fill="#666666" points="126.2305,391.8555,130.2305,401.8555,134.2305,391.8555,130.2305,395.8555" style="stroke:#666666;stroke-width:1;"/><line style="stroke:#666666;stroke-width:1;" x1="130.2305" x2="130.2305" y1="435.8242" y2="474.8203"/><polygon fill="#666666" points="126.2305,464.8203,130.2305,474.8203,134.2305,464.8203,130.2305,468.8203" style="stroke:#666666;stroke-width:1;"/><line style="stroke:#666666;stroke-width:1;" x1="130.2305" x2="130.2305" y1="508.7891" y2="547.0703"/><polygon fill="#666666" points="126.2305,537.0703,130.2305,547.0703,134.2305,537.0703,130.2305,541.0703" style="stroke:#666666;stroke-width:1;"/><line style="stroke:#666666;stroke-width:1;" x1="130.2305" x2="130.2305" y1="581.0391" y2="604.9023"/><polygon fill="#666666" points="126.2305,594.9023,130.2305,604.9023,134.2305,594.9023,130.2305,598.9023" style="stroke:#666666;stroke-width:1;"/><line style="stroke:#666666;stroke-width:1;" x1="130.2305" x2="130.2305" y1="638.8711" y2="669.5859"/><polygon fill="#666666" points="126.2305,659.5859,130.2305,669.5859,134.2305,659.5859,130.2305,663.5859" style="stroke:#666666;stroke-width:1;"/><line style="stroke:#666666;stroke-width:1;" x1="130.2305" x2="130.2305" y1="703.5547" y2="726.7031"/><polygon fill="#666666" points="126.2305,716.7031,130.2305,726.7031,134.2305,716.7031,130.2305,720.7031" style="stroke:#666666;stroke-width:1;"/><line style="stroke:#666666;stroke-width:1;" x1="130.2305" x2="130.2305" y1="760.6719" y2="784.5352"/><polygon fill="#666666" points="126.2305,774.5352,130.2305,784.5352,134.2305,774.5352,130.2305,778.5352" style="stroke:#666666;stroke-width:1;"/><line style="stroke:#666666;stroke-width:1;" x1="130.2305" x2="130.2305" y1="818.5039" y2="849.2188"/><polygon fill="#666666" points="126.2305,839.2188,130.2305,849.2188,134.2305,839.2188,130.2305,843.2188" style="stroke:#666666;stroke-width:1;"/><!--SRC=[ZLLBRziu4BxhLmpQGtQ1fCS2wpsvZbq4IDB5EXlq9ep5aKs43vMaRAk_VeUafDYEKbG7GUAylfdvPdW5wz0f0a6rD398QtpXNwHfqA663LOlMsTR8nPMMGU7dGnq8fyxPmzPzF5pUaw5LP1x6RelrWbolTPVwPdIkWZrSPcU2SrRYTeQyNjk1-Ltl1TNy2I3eYB4DppIiVKFzt2B0M6bx24gh0EwKFZqvjyakpDRyh5QnUpED6r8ftyNnWO29xUxK00iri_Ni3nMfAw1Gzgm8mUrTHg3P_51XXsWsyZWq7LGMTLg0pwujWgjeuACWEXlZFcFeyRPYhoNPblCb4LHeX5bCvwNWlN- -FC2nmtSiof46TJEQgWb9npF5uhG394DQlBfU2MLWaTyX3sgjZzx9YVh3XpzQAKZqHlvjoWVi6aIFerDoKNRyayPRAcj85NAMAm9X6mrk8HWWOuDLO73v7AzeXhZrvAKyBc8p5riLSX05zRioGKmhMR8LQzuXdD562iCIyFWYBKYtAzaedul6qIVk3d6HnGJeETDeyR6wPpt049ls1u27SE0uBNW0xIXXadYE331JXApeTh92XLKVBArJlOjwCCfP0BKh13fTnvsBWGivy-08JYvQGETvxrkbCnCBMQSbpGbQuJIn-E9zBAwDDoFfCrXWFa6qGWyzVN-pccOm6AViuqQO-rpCRDYzwgekLkouNdZcTfIc2JJG-GBV6cb4ga_c_XLajcXgKXaEas0xklujBgvkrt1dbd41VoP1oy1FDNYoJO2dLXpjNkLIUX3EnFR5Wdiqy0BSgSU7s9ctzh0B5_qZMB7oUvVZcNrohBJC97fKrzY7fpu_wdcddmlK-6leSiVRzDDLi2R1P8LH4QS5pTdy9-dp9poGD4uvIhr1bKgPvRHL0UMSGbWNdLZzMayd6X1Rq4HpC2L94WZ5WKN7ERzPLqFT6vGTJy9FdoBw_B3C0CTDEJICk3uayES3BtqnGopYp8jt79mK0uTdHhaFgZK4GYQCBO_rUaIIyxoo2sfHitHjef6SSk-ts_fBmhm7dPzgVahy3KgRd9ZFT_YUmQH1f6scFxoGE_iWLShQcQ71rl3M__d-mBtb5bGpD9tvbXqh2cWU7lbtS297k-DHbOlpCJnmidItZQF1V_nl9qjGTzf9SrBkWaK9WebZsVWbaRmdMoR_m40]--></g></svg>