<svg xmlns="http://www.w3.org/2000/svg" xmlns:xlink="http://www.w3.org/1999/xlink" contentStyleType="text/css" data-diagram-type="CLASS" height="449px" preserveAspectRatio="none" style="width:3320px;height:449px;background:#FFFFFF;" version="1.1" viewBox="0 0 3320 449" width="3320px" zoomAndPan="magnify"><title>NexusML Dependency Injection System</title><defs/><g><text fill="#000000" font-family="sans-serif" font-size="14" font-weight="bold" lengthAdjust="spacing" textLength="310.6865" x="1497.9717" y="22.9951">NexusML Dependency Injection System</text><!--class DIContainer--><g class="entity" data-entity="DIContainer" data-source-line="14" data-uid="ent0002" id="entity_DIContainer"><rect fill="#EEEEEE" height="162.0781" rx="2.5" ry="2.5" style="stroke:#999999;stroke-width:0.5;" width="510.4014" x="1039.32" y="265.5369"/><ellipse cx="1248.6091" cy="281.5369" fill="#ADD1B2" rx="11" ry="11" style="stroke:#181818;stroke-width:1;"/><path d="M1251.5778,287.1775 Q1250.9997,287.4744 1250.3591,287.615 Q1249.7184,287.7713 1249.0153,287.7713 Q1246.5153,287.7713 1245.1872,286.1306 Q1243.8747,284.4744 1243.8747,281.3494 Q1243.8747,278.2244 1245.1872,276.5681 Q1246.5153,274.9119 1249.0153,274.9119 Q1249.7184,274.9119 1250.3591,275.0681 Q1251.0153,275.2244 1251.5778,275.5213 L1251.5778,278.24 Q1250.9528,277.6619 1250.3591,277.3963 Q1249.7653,277.115 1249.1403,277.115 Q1247.7966,277.115 1247.1091,278.1931 Q1246.4216,279.2556 1246.4216,281.3494 Q1246.4216,283.4431 1247.1091,284.5213 Q1247.7966,285.5838 1249.1403,285.5838 Q1249.7653,285.5838 1250.3591,285.3181 Q1250.9528,285.0369 1251.5778,284.4588 L1251.5778,287.1775 Z " fill="#000000"/><text fill="#000000" font-family="sans-serif" font-size="14" lengthAdjust="spacing" textLength="83.3232" x="1269.1091" y="286.3836">DIContainer</text><line style="stroke:#999999;stroke-width:0.5;" x1="1040.32" x2="1548.7214" y1="297.5369" y2="297.5369"/><rect fill="none" height="6" style="stroke:#C82930;stroke-width:1;" width="6" x="1047.32" y="308.1853"/><text fill="#000000" font-family="sans-serif" font-size="14" lengthAdjust="spacing" textLength="257.7422" x="1059.32" y="314.532">_instances: Dict[Type, Dict[str, Any]]</text><rect fill="none" height="6" style="stroke:#C82930;stroke-width:1;" width="6" x="1047.32" y="324.4822"/><text fill="#000000" font-family="sans-serif" font-size="14" lengthAdjust="spacing" textLength="281.3193" x="1059.32" y="330.8289">_factories: Dict[Type, Dict[str, Callable]]</text><line style="stroke:#999999;stroke-width:0.5;" x1="1040.32" x2="1548.7214" y1="338.1306" y2="338.1306"/><ellipse cx="1050.32" cy="351.7791" fill="#84BE84" rx="3" ry="3" style="stroke:#038048;stroke-width:1;"/><text fill="#000000" font-family="sans-serif" font-size="14" lengthAdjust="spacing" textLength="475.0498" x="1059.32" y="355.1257">register_instance(interface: Type, instance: Any, name: str = None)</text><ellipse cx="1050.32" cy="368.0759" fill="#84BE84" rx="3" ry="3" style="stroke:#038048;stroke-width:1;"/><text fill="#000000" font-family="sans-serif" font-size="14" lengthAdjust="spacing" textLength="484.4014" x="1059.32" y="371.4226">register_factory(interface: Type, factory: Callable, name: str = None)</text><ellipse cx="1050.32" cy="384.3728" fill="#84BE84" rx="3" ry="3" style="stroke:#038048;stroke-width:1;"/><text fill="#000000" font-family="sans-serif" font-size="14" lengthAdjust="spacing" textLength="309.2236" x="1059.32" y="387.7195">get(interface: Type, name: str = None): Any</text><ellipse cx="1050.32" cy="400.6697" fill="#84BE84" rx="3" ry="3" style="stroke:#038048;stroke-width:1;"/><text fill="#000000" font-family="sans-serif" font-size="14" lengthAdjust="spacing" textLength="314.1523" x="1059.32" y="404.0164">has(interface: Type, name: str = None): bool</text><ellipse cx="1050.32" cy="416.9666" fill="#84BE84" rx="3" ry="3" style="stroke:#038048;stroke-width:1;"/><text fill="#000000" font-family="sans-serif" font-size="14" lengthAdjust="spacing" textLength="45.459" x="1059.32" y="420.3132">clear()</text></g><!--class Inject--><g class="entity" data-entity="Inject" data-source-line="24" data-uid="ent0003" id="entity_Inject"><rect fill="#EEEEEE" height="96.8906" rx="2.5" ry="2.5" style="stroke:#999999;stroke-width:0.5;" width="326.4736" x="1131.29" y="60.5969"/><ellipse cx="1270.9311" cy="76.5969" fill="#ADD1B2" rx="11" ry="11" style="stroke:#181818;stroke-width:1;"/><path d="M1273.8999,82.2375 Q1273.3217,82.5344 1272.6811,82.675 Q1272.0405,82.8313 1271.3374,82.8313 Q1268.8374,82.8313 1267.5092,81.1906 Q1266.1967,79.5344 1266.1967,76.4094 Q1266.1967,73.2844 1267.5092,71.6281 Q1268.8374,69.9719 1271.3374,69.9719 Q1272.0405,69.9719 1272.6811,70.1281 Q1273.3374,70.2844 1273.8999,70.5813 L1273.8999,73.3 Q1273.2749,72.7219 1272.6811,72.4563 Q1272.0874,72.175 1271.4624,72.175 Q1270.1186,72.175 1269.4311,73.2531 Q1268.7436,74.3156 1268.7436,76.4094 Q1268.7436,78.5031 1269.4311,79.5813 Q1270.1186,80.6438 1271.4624,80.6438 Q1272.0874,80.6438 1272.6811,80.3781 Q1273.2749,80.0969 1273.8999,79.5188 L1273.8999,82.2375 Z " fill="#000000"/><text fill="#000000" font-family="sans-serif" font-size="14" lengthAdjust="spacing" textLength="38.6914" x="1291.4311" y="81.4436">Inject</text><line style="stroke:#999999;stroke-width:0.5;" x1="1132.29" x2="1456.7636" y1="92.5969" y2="92.5969"/><ellipse cx="1142.29" cy="106.2453" fill="none" rx="3" ry="3" style="stroke:#038048;stroke-width:1;"/><text fill="#000000" font-family="sans-serif" font-size="14" lengthAdjust="spacing" textLength="105.9434" x="1151.29" y="109.592">interface: Type</text><ellipse cx="1142.29" cy="122.5422" fill="none" rx="3" ry="3" style="stroke:#038048;stroke-width:1;"/><text fill="#000000" font-family="sans-serif" font-size="14" lengthAdjust="spacing" textLength="67.4092" x="1151.29" y="125.8889">name: str</text><line style="stroke:#999999;stroke-width:0.5;" x1="1132.29" x2="1456.7636" y1="133.1906" y2="133.1906"/><ellipse cx="1142.29" cy="146.8391" fill="#84BE84" rx="3" ry="3" style="stroke:#038048;stroke-width:1;"/><text fill="#000000" font-family="sans-serif" font-size="14" lengthAdjust="spacing" textLength="300.4736" x="1151.29" y="150.1857">__init__(interface: Type, name: str = None)</text></g><!--class inject--><g class="entity" data-entity="inject" data-source-line="30" data-uid="ent0004" id="entity_inject"><rect fill="#EEEEEE" height="64.2969" rx="2.5" ry="2.5" style="stroke:#999999;stroke-width:0.5;" width="249.8906" x="548.58" y="76.8969"/><ellipse cx="650.0492" cy="92.8969" fill="#E3664A" rx="11" ry="11" style="stroke:#181818;stroke-width:1;"/><path d="M652.1274,93.3656 Q652.1274,92.4281 651.7055,91.8969 Q651.2836,91.3656 650.5336,91.3656 Q649.7992,91.3656 649.3774,91.8969 Q648.9711,92.4281 648.9711,93.3656 Q648.9711,94.3187 649.3774,94.85 Q649.7992,95.3812 650.5336,95.3812 Q651.2836,95.3812 651.7055,94.85 Q652.1274,94.3187 652.1274,93.3656 Z M653.6742,96.7719 L652.0492,96.7719 L652.0492,96.1 Q651.7211,96.5375 651.2992,96.7406 Q650.8774,96.9437 650.268,96.9437 Q648.9086,96.9437 648.0805,95.975 Q647.2524,94.9906 647.2524,93.3656 Q647.2524,91.7719 648.0805,90.8031 Q648.9086,89.8187 650.268,89.8187 Q650.8617,89.8187 651.3149,90.0219 Q651.768,90.225 652.0492,90.6156 L652.0492,90.2719 Q652.0492,89.1469 651.4242,88.5375 Q650.7992,87.9125 649.6586,87.9125 Q647.9399,87.9125 646.8461,89.4437 Q645.7524,90.9594 645.7524,93.3969 Q645.7524,95.9437 647.0024,97.4437 Q648.268,98.9437 650.3774,98.9437 Q651.0336,98.9437 651.6586,98.7562 Q652.2836,98.5687 652.8617,98.1781 L653.6274,99.6312 Q652.9555,100.0844 652.1586,100.3031 Q651.3617,100.5375 650.4555,100.5375 Q647.5492,100.5375 645.8149,98.6 Q644.0961,96.6781 644.0961,93.3969 Q644.0961,90.1781 645.643,88.2562 Q647.2055,86.3187 649.768,86.3187 Q651.5649,86.3187 652.6117,87.4125 Q653.6742,88.5062 653.6742,90.3812 L653.6742,96.7719 Z " fill="#000000"/><text fill="#000000" font-family="sans-serif" font-size="14" lengthAdjust="spacing" textLength="38.4521" x="670.5492" y="97.7436">inject</text><line style="stroke:#999999;stroke-width:0.5;" x1="549.58" x2="797.4706" y1="108.8969" y2="108.8969"/><line style="stroke:#999999;stroke-width:0.5;" x1="549.58" x2="797.4706" y1="116.8969" y2="116.8969"/><ellipse cx="559.58" cy="130.5453" fill="#84BE84" rx="3" ry="3" style="stroke:#038048;stroke-width:1;"/><text fill="#000000" font-family="sans-serif" font-size="14" lengthAdjust="spacing" textLength="223.8906" x="568.58" y="133.892">__call__(func: Callable): Callable</text></g><!--class ComponentRegistry--><g class="entity" data-entity="ComponentRegistry" data-source-line="34" data-uid="ent0005" id="entity_ComponentRegistry"><rect fill="#EEEEEE" height="162.0781" rx="2.5" ry="2.5" style="stroke:#999999;stroke-width:0.5;" width="460.752" x="1799.15" y="265.5369"/><ellipse cx="1955.6656" cy="281.5369" fill="#ADD1B2" rx="11" ry="11" style="stroke:#181818;stroke-width:1;"/><path d="M1958.6344,287.1775 Q1958.0563,287.4744 1957.4156,287.615 Q1956.775,287.7713 1956.0719,287.7713 Q1953.5719,287.7713 1952.2438,286.1306 Q1950.9313,284.4744 1950.9313,281.3494 Q1950.9313,278.2244 1952.2438,276.5681 Q1953.5719,274.9119 1956.0719,274.9119 Q1956.775,274.9119 1957.4156,275.0681 Q1958.0719,275.2244 1958.6344,275.5213 L1958.6344,278.24 Q1958.0094,277.6619 1957.4156,277.3963 Q1956.8219,277.115 1956.1969,277.115 Q1954.8531,277.115 1954.1656,278.1931 Q1953.4781,279.2556 1953.4781,281.3494 Q1953.4781,283.4431 1954.1656,284.5213 Q1954.8531,285.5838 1956.1969,285.5838 Q1956.8219,285.5838 1957.4156,285.3181 Q1958.0094,285.0369 1958.6344,284.4588 L1958.6344,287.1775 Z " fill="#000000"/><text fill="#000000" font-family="sans-serif" font-size="14" lengthAdjust="spacing" textLength="139.2207" x="1976.1656" y="286.3836">ComponentRegistry</text><line style="stroke:#999999;stroke-width:0.5;" x1="1800.15" x2="2258.902" y1="297.5369" y2="297.5369"/><rect fill="none" height="6" style="stroke:#C82930;stroke-width:1;" width="6" x="1807.15" y="308.1853"/><text fill="#000000" font-family="sans-serif" font-size="14" lengthAdjust="spacing" textLength="316.9619" x="1819.15" y="314.532">_implementations: Dict[Type, Dict[str, Type]]</text><rect fill="none" height="6" style="stroke:#C82930;stroke-width:1;" width="6" x="1807.15" y="324.4822"/><text fill="#000000" font-family="sans-serif" font-size="14" lengthAdjust="spacing" textLength="291.2041" x="1819.15" y="330.8289">_default_implementations: Dict[Type, str]</text><line style="stroke:#999999;stroke-width:0.5;" x1="1800.15" x2="2258.902" y1="338.1306" y2="338.1306"/><ellipse cx="1810.15" cy="351.7791" fill="#84BE84" rx="3" ry="3" style="stroke:#038048;stroke-width:1;"/><text fill="#000000" font-family="sans-serif" font-size="14" lengthAdjust="spacing" textLength="410.8057" x="1819.15" y="355.1257">register(interface: Type, name: str, implementation: Type)</text><ellipse cx="1810.15" cy="368.0759" fill="#84BE84" rx="3" ry="3" style="stroke:#038048;stroke-width:1;"/><text fill="#000000" font-family="sans-serif" font-size="14" lengthAdjust="spacing" textLength="388.7598" x="1819.15" y="371.4226">set_default_implementation(interface: Type, name: str)</text><ellipse cx="1810.15" cy="384.3728" fill="#84BE84" rx="3" ry="3" style="stroke:#038048;stroke-width:1;"/><text fill="#000000" font-family="sans-serif" font-size="14" lengthAdjust="spacing" textLength="434.752" x="1819.15" y="387.7195">get_implementation(interface: Type, name: str = None): Type</text><ellipse cx="1810.15" cy="400.6697" fill="#84BE84" rx="3" ry="3" style="stroke:#038048;stroke-width:1;"/><text fill="#000000" font-family="sans-serif" font-size="14" lengthAdjust="spacing" textLength="432.0791" x="1819.15" y="404.0164">has_implementation(interface: Type, name: str = None): bool</text><ellipse cx="1810.15" cy="416.9666" fill="#84BE84" rx="3" ry="3" style="stroke:#038048;stroke-width:1;"/><text fill="#000000" font-family="sans-serif" font-size="14" lengthAdjust="spacing" textLength="398.1592" x="1819.15" y="420.3132">get_all_implementations(interface: Type): Dict[str, Type]</text></g><!--class PipelineFactory--><g class="entity" data-entity="PipelineFactory" data-source-line="44" data-uid="ent0006" id="entity_PipelineFactory"><rect fill="#EEEEEE" height="129.4844" rx="2.5" ry="2.5" style="stroke:#999999;stroke-width:0.5;" width="501.0498" x="1779" y="44.2969"/><ellipse cx="1971.5137" cy="60.2969" fill="#ADD1B2" rx="11" ry="11" style="stroke:#181818;stroke-width:1;"/><path d="M1974.4824,65.9375 Q1973.9043,66.2344 1973.2637,66.375 Q1972.623,66.5313 1971.9199,66.5313 Q1969.4199,66.5313 1968.0918,64.8906 Q1966.7793,63.2344 1966.7793,60.1094 Q1966.7793,56.9844 1968.0918,55.3281 Q1969.4199,53.6719 1971.9199,53.6719 Q1972.623,53.6719 1973.2637,53.8281 Q1973.9199,53.9844 1974.4824,54.2813 L1974.4824,57 Q1973.8574,56.4219 1973.2637,56.1563 Q1972.6699,55.875 1972.0449,55.875 Q1970.7012,55.875 1970.0137,56.9531 Q1969.3262,58.0156 1969.3262,60.1094 Q1969.3262,62.2031 1970.0137,63.2813 Q1970.7012,64.3438 1972.0449,64.3438 Q1972.6699,64.3438 1973.2637,64.0781 Q1973.8574,63.7969 1974.4824,63.2188 L1974.4824,65.9375 Z " fill="#000000"/><text fill="#000000" font-family="sans-serif" font-size="14" lengthAdjust="spacing" textLength="107.5225" x="1992.0137" y="65.1436">PipelineFactory</text><line style="stroke:#999999;stroke-width:0.5;" x1="1780" x2="2279.0498" y1="76.2969" y2="76.2969"/><rect fill="none" height="6" style="stroke:#C82930;stroke-width:1;" width="6" x="1787" y="86.9453"/><text fill="#000000" font-family="sans-serif" font-size="14" lengthAdjust="spacing" textLength="209.3574" x="1799" y="93.292">_registry: ComponentRegistry</text><rect fill="none" height="6" style="stroke:#C82930;stroke-width:1;" width="6" x="1787" y="103.2422"/><text fill="#000000" font-family="sans-serif" font-size="14" lengthAdjust="spacing" textLength="165.8262" x="1799" y="109.5889">_container: DIContainer</text><line style="stroke:#999999;stroke-width:0.5;" x1="1780" x2="2279.0498" y1="116.8906" y2="116.8906"/><ellipse cx="1790" cy="130.5391" fill="#84BE84" rx="3" ry="3" style="stroke:#038048;stroke-width:1;"/><text fill="#000000" font-family="sans-serif" font-size="14" lengthAdjust="spacing" textLength="431.1494" x="1799" y="133.8857">__init__(registry: ComponentRegistry, container: DIContainer)</text><ellipse cx="1790" cy="146.8359" fill="#84BE84" rx="3" ry="3" style="stroke:#038048;stroke-width:1;"/><text fill="#000000" font-family="sans-serif" font-size="14" lengthAdjust="spacing" textLength="403.9561" x="1799" y="150.1826">create(interface: Type, name: str = None, **kwargs): Any</text><ellipse cx="1790" cy="163.1328" fill="#84BE84" rx="3" ry="3" style="stroke:#038048;stroke-width:1;"/><text fill="#000000" font-family="sans-serif" font-size="14" lengthAdjust="spacing" textLength="475.0498" x="1799" y="166.4795">register_instance(interface: Type, instance: Any, name: str = None)</text></g><!--class DataLoader--><g class="entity" data-entity="DataLoader" data-source-line="53" data-uid="ent0007" id="entity_DataLoader"><rect fill="#EEEEEE" height="64.2969" rx="2.5" ry="2.5" style="stroke:#999999;stroke-width:0.5;" width="363.6543" x="16.7" y="76.8969"/><ellipse cx="153.4632" cy="92.8969" fill="#ADD1B2" rx="11" ry="11" style="stroke:#181818;stroke-width:1;"/><path d="M156.4319,98.5375 Q155.8538,98.8344 155.2132,98.975 Q154.5726,99.1312 153.8694,99.1312 Q151.3694,99.1312 150.0413,97.4906 Q148.7288,95.8344 148.7288,92.7094 Q148.7288,89.5844 150.0413,87.9281 Q151.3694,86.2719 153.8694,86.2719 Q154.5726,86.2719 155.2132,86.4281 Q155.8694,86.5844 156.4319,86.8812 L156.4319,89.6 Q155.8069,89.0219 155.2132,88.7562 Q154.6194,88.475 153.9944,88.475 Q152.6507,88.475 151.9632,89.5531 Q151.2757,90.6156 151.2757,92.7094 Q151.2757,94.8031 151.9632,95.8812 Q152.6507,96.9437 153.9944,96.9437 Q154.6194,96.9437 155.2132,96.6781 Q155.8069,96.3969 156.4319,95.8187 L156.4319,98.5375 Z " fill="#000000"/><text fill="#000000" font-family="sans-serif" font-size="14" lengthAdjust="spacing" textLength="81.6279" x="173.9632" y="97.7436">DataLoader</text><line style="stroke:#999999;stroke-width:0.5;" x1="17.7" x2="379.3543" y1="108.8969" y2="108.8969"/><line style="stroke:#999999;stroke-width:0.5;" x1="17.7" x2="379.3543" y1="116.8969" y2="116.8969"/><ellipse cx="27.7" cy="130.5453" fill="#84BE84" rx="3" ry="3" style="stroke:#038048;stroke-width:1;"/><text fill="#000000" font-family="sans-serif" font-size="14" lengthAdjust="spacing" textLength="337.6543" x="36.7" y="133.892">load_data(data_path: str, **kwargs): DataFrame</text></g><!--class CSVDataLoader--><g class="entity" data-entity="CSVDataLoader" data-source-line="57" data-uid="ent0008" id="entity_CSVDataLoader"><rect fill="#EEEEEE" height="113.1875" rx="2.5" ry="2.5" style="stroke:#999999;stroke-width:0.5;" width="383.0479" x="7" y="289.9869"/><ellipse cx="139.3403" cy="305.9869" fill="#ADD1B2" rx="11" ry="11" style="stroke:#181818;stroke-width:1;"/><path d="M142.3091,311.6275 Q141.731,311.9244 141.0903,312.065 Q140.4497,312.2213 139.7466,312.2213 Q137.2466,312.2213 135.9185,310.5806 Q134.606,308.9244 134.606,305.7994 Q134.606,302.6744 135.9185,301.0181 Q137.2466,299.3619 139.7466,299.3619 Q140.4497,299.3619 141.0903,299.5181 Q141.7466,299.6744 142.3091,299.9713 L142.3091,302.69 Q141.6841,302.1119 141.0903,301.8463 Q140.4966,301.565 139.8716,301.565 Q138.5278,301.565 137.8403,302.6431 Q137.1528,303.7056 137.1528,305.7994 Q137.1528,307.8931 137.8403,308.9713 Q138.5278,310.0338 139.8716,310.0338 Q140.4966,310.0338 141.0903,309.7681 Q141.6841,309.4869 142.3091,308.9088 L142.3091,311.6275 Z " fill="#000000"/><text fill="#000000" font-family="sans-serif" font-size="14" lengthAdjust="spacing" textLength="109.8672" x="159.8403" y="310.8336">CSVDataLoader</text><line style="stroke:#999999;stroke-width:0.5;" x1="8" x2="389.0479" y1="321.9869" y2="321.9869"/><rect fill="none" height="6" style="stroke:#C82930;stroke-width:1;" width="6" x="15" y="332.6353"/><text fill="#000000" font-family="sans-serif" font-size="14" lengthAdjust="spacing" textLength="98.9912" x="27" y="338.982">_encoding: str</text><rect fill="none" height="6" style="stroke:#C82930;stroke-width:1;" width="6" x="15" y="348.9322"/><text fill="#000000" font-family="sans-serif" font-size="14" lengthAdjust="spacing" textLength="97.3711" x="27" y="355.2789">_delimiter: str</text><line style="stroke:#999999;stroke-width:0.5;" x1="8" x2="389.0479" y1="362.5806" y2="362.5806"/><ellipse cx="18" cy="376.2291" fill="#84BE84" rx="3" ry="3" style="stroke:#038048;stroke-width:1;"/><text fill="#000000" font-family="sans-serif" font-size="14" lengthAdjust="spacing" textLength="357.0479" x="27" y="379.5757">__init__(encoding: str = "utf-8", delimiter: str = ",")</text><ellipse cx="18" cy="392.5259" fill="#84BE84" rx="3" ry="3" style="stroke:#038048;stroke-width:1;"/><text fill="#000000" font-family="sans-serif" font-size="14" lengthAdjust="spacing" textLength="337.6543" x="27" y="395.8726">load_data(data_path: str, **kwargs): DataFrame</text></g><!--class FeatureEngineer--><g class="entity" data-entity="FeatureEngineer" data-source-line="64" data-uid="ent0009" id="entity_FeatureEngineer"><rect fill="#EEEEEE" height="64.2969" rx="2.5" ry="2.5" style="stroke:#999999;stroke-width:0.5;" width="443.1631" x="2314.94" y="76.8969"/><ellipse cx="2474.108" cy="92.8969" fill="#ADD1B2" rx="11" ry="11" style="stroke:#181818;stroke-width:1;"/><path d="M2477.0767,98.5375 Q2476.4986,98.8344 2475.858,98.975 Q2475.2173,99.1312 2474.5142,99.1312 Q2472.0142,99.1312 2470.6861,97.4906 Q2469.3736,95.8344 2469.3736,92.7094 Q2469.3736,89.5844 2470.6861,87.9281 Q2472.0142,86.2719 2474.5142,86.2719 Q2475.2173,86.2719 2475.858,86.4281 Q2476.5142,86.5844 2477.0767,86.8812 L2477.0767,89.6 Q2476.4517,89.0219 2475.858,88.7562 Q2475.2642,88.475 2474.6392,88.475 Q2473.2955,88.475 2472.608,89.5531 Q2471.9205,90.6156 2471.9205,92.7094 Q2471.9205,94.8031 2472.608,95.8812 Q2473.2955,96.9437 2474.6392,96.9437 Q2475.2642,96.9437 2475.858,96.6781 Q2476.4517,96.3969 2477.0767,95.8187 L2477.0767,98.5375 Z " fill="#000000"/><text fill="#000000" font-family="sans-serif" font-size="14" lengthAdjust="spacing" textLength="116.3271" x="2494.608" y="97.7436">FeatureEngineer</text><line style="stroke:#999999;stroke-width:0.5;" x1="2315.94" x2="2757.1031" y1="108.8969" y2="108.8969"/><line style="stroke:#999999;stroke-width:0.5;" x1="2315.94" x2="2757.1031" y1="116.8969" y2="116.8969"/><ellipse cx="2325.94" cy="130.5453" fill="#84BE84" rx="3" ry="3" style="stroke:#038048;stroke-width:1;"/><text fill="#000000" font-family="sans-serif" font-size="14" lengthAdjust="spacing" textLength="417.1631" x="2334.94" y="133.892">engineer_features(data: DataFrame, **kwargs): DataFrame</text></g><!--class Service--><g class="entity" data-entity="Service" data-source-line="68" data-uid="ent0010" id="entity_Service"><rect fill="#EEEEEE" height="113.1875" rx="2.5" ry="2.5" style="stroke:#999999;stroke-width:0.5;" width="515.0498" x="2793" y="52.4469"/><ellipse cx="3020.4043" cy="68.4469" fill="#ADD1B2" rx="11" ry="11" style="stroke:#181818;stroke-width:1;"/><path d="M3023.373,74.0875 Q3022.7949,74.3844 3022.1543,74.525 Q3021.5137,74.6812 3020.8105,74.6812 Q3018.3105,74.6812 3016.9824,73.0406 Q3015.6699,71.3844 3015.6699,68.2594 Q3015.6699,65.1344 3016.9824,63.4781 Q3018.3105,61.8219 3020.8105,61.8219 Q3021.5137,61.8219 3022.1543,61.9781 Q3022.8105,62.1344 3023.373,62.4312 L3023.373,65.15 Q3022.748,64.5719 3022.1543,64.3062 Q3021.5605,64.025 3020.9355,64.025 Q3019.5918,64.025 3018.9043,65.1031 Q3018.2168,66.1656 3018.2168,68.2594 Q3018.2168,70.3531 3018.9043,71.4312 Q3019.5918,72.4937 3020.9355,72.4937 Q3021.5605,72.4937 3022.1543,72.2281 Q3022.748,71.9469 3023.373,71.3687 L3023.373,74.0875 Z " fill="#000000"/><text fill="#000000" font-family="sans-serif" font-size="14" lengthAdjust="spacing" textLength="51.7412" x="3040.9043" y="73.2936">Service</text><line style="stroke:#999999;stroke-width:0.5;" x1="2794" x2="3307.0498" y1="84.4469" y2="84.4469"/><rect fill="none" height="6" style="stroke:#C82930;stroke-width:1;" width="6" x="2801" y="95.0953"/><text fill="#000000" font-family="sans-serif" font-size="14" lengthAdjust="spacing" textLength="180.6191" x="2813" y="101.442">_data_loader: DataLoader</text><rect fill="none" height="6" style="stroke:#C82930;stroke-width:1;" width="6" x="2801" y="111.3922"/><text fill="#000000" font-family="sans-serif" font-size="14" lengthAdjust="spacing" textLength="252.4648" x="2813" y="117.7389">_feature_engineer: FeatureEngineer</text><line style="stroke:#999999;stroke-width:0.5;" x1="2794" x2="3307.0498" y1="125.0406" y2="125.0406"/><ellipse cx="2804" cy="138.6891" fill="#84BE84" rx="3" ry="3" style="stroke:#038048;stroke-width:1;"/><text fill="#000000" font-family="sans-serif" font-size="14" lengthAdjust="spacing" textLength="489.0498" x="2813" y="142.0357">__init__(data_loader: DataLoader, feature_engineer: FeatureEngineer)</text><ellipse cx="2804" cy="154.9859" fill="#84BE84" rx="3" ry="3" style="stroke:#038048;stroke-width:1;"/><text fill="#000000" font-family="sans-serif" font-size="14" lengthAdjust="spacing" textLength="288.8662" x="2813" y="158.3326">process_data(data_path: str): DataFrame</text></g><g class="entity" data-entity="GMN17" data-source-line="84" data-uid="ent0018" id="entity_GMN17"><path d="M833.2,88.9069 L833.2,105.0369 L798.85,109.0369 L833.2,113.0369 L833.2,129.1725 A0,0 0 0 0 833.2,129.1725 L1095.8553,129.1725 A0,0 0 0 0 1095.8553,129.1725 L1095.8553,98.9069 L1085.8553,88.9069 L833.2,88.9069 A0,0 0 0 0 833.2,88.9069 " fill="#FFFFCC" style="stroke:#999999;stroke-width:0.5;"/><path d="M1085.8553,88.9069 L1085.8553,98.9069 L1095.8553,98.9069 L1085.8553,88.9069 " fill="#FFFFCC" style="stroke:#999999;stroke-width:0.5;"/><text fill="#000000" font-family="sans-serif" font-size="13" lengthAdjust="spacing" textLength="241.6553" x="839.2" y="105.9738">Decorator for injecting dependencies</text><text fill="#000000" font-family="sans-serif" font-size="13" lengthAdjust="spacing" textLength="161.6748" x="839.2" y="121.1066">into function parameters</text></g><g class="entity" data-entity="GMN20" data-source-line="89" data-uid="ent0021" id="entity_GMN20"><path d="M1492.74,88.9069 L1492.74,105.0369 L1458.11,109.0369 L1492.74,113.0369 L1492.74,129.1725 A0,0 0 0 0 1492.74,129.1725 L1744.3123,129.1725 A0,0 0 0 0 1744.3123,129.1725 L1744.3123,98.9069 L1734.3123,88.9069 L1492.74,88.9069 A0,0 0 0 0 1492.74,88.9069 " fill="#FFFFCC" style="stroke:#999999;stroke-width:0.5;"/><path d="M1734.3123,88.9069 L1734.3123,98.9069 L1744.3123,98.9069 L1734.3123,88.9069 " fill="#FFFFCC" style="stroke:#999999;stroke-width:0.5;"/><text fill="#000000" font-family="sans-serif" font-size="13" lengthAdjust="spacing" textLength="230.5723" x="1498.74" y="105.9738">Annotation for marking parameters</text><text fill="#000000" font-family="sans-serif" font-size="13" lengthAdjust="spacing" textLength="89.521" x="1498.74" y="121.1066">to be injected</text></g><g class="entity" data-entity="GMN23" data-source-line="95" data-uid="ent0024" id="entity_GMN23"><path d="M2787.42,258.3469 L2787.42,434.8078 A0,0 0 0 0 2787.42,434.8078 L3313.63,434.8078 A0,0 0 0 0 3313.63,434.8078 L3313.63,268.3469 L3303.63,258.3469 L3054.52,258.3469 L3050.52,165.8569 L3046.52,258.3469 L2787.42,258.3469 A0,0 0 0 0 2787.42,258.3469 " fill="#FFFFCC" style="stroke:#999999;stroke-width:0.5;"/><path d="M3303.63,258.3469 L3303.63,268.3469 L3313.63,268.3469 L3303.63,258.3469 " fill="#FFFFCC" style="stroke:#999999;stroke-width:0.5;"/><text fill="#000000" font-family="sans-serif" font-size="13" lengthAdjust="spacing" textLength="230.604" x="2793.42" y="275.4138">Example with constructor injection:</text><text fill="#000000" font-family="sans-serif" font-size="13" lengthAdjust="spacing" textLength="64.9746" x="2793.42" y="290.5466">```python</text><text fill="#000000" font-family="sans-serif" font-size="13" lengthAdjust="spacing" textLength="88.8291" x="2793.42" y="305.6794">class Service:</text><text fill="#000000" font-family="sans-serif" font-size="13" lengthAdjust="spacing" textLength="20.8267" x="2809.9493" y="320.8122">def</text><text fill="#000000" font-family="sans-serif" font-size="13" lengthAdjust="spacing" text-decoration="underline" textLength="20.5601" x="2834.9083" y="320.8122">init</text><text fill="#000000" font-family="sans-serif" font-size="13" lengthAdjust="spacing" textLength="443.1616" x="2855.4683" y="320.8122">(self, data_loader: DataLoader, feature_engineer: FeatureEngineer):</text><text fill="#000000" font-family="sans-serif" font-size="13" lengthAdjust="spacing" textLength="206.5654" x="2826.4786" y="335.945">self._data_loader = data_loader</text><text fill="#000000" font-family="sans-serif" font-size="13" lengthAdjust="spacing" textLength="275.5518" x="2826.4786" y="351.0778">self._feature_engineer = feature_engineer</text><text fill="#000000" font-family="sans-serif" font-size="13" lengthAdjust="spacing" textLength="33.0586" x="2793.42" y="366.2106">&#160;&#160;&#160;&#160;&#160;&#160;&#160;&#160;</text><text fill="#000000" font-family="sans-serif" font-size="13" lengthAdjust="spacing" textLength="247.7935" x="2809.9493" y="381.3435">def process_data(self, data_path: str):</text><text fill="#000000" font-family="sans-serif" font-size="13" lengthAdjust="spacing" textLength="302.1167" x="2826.4786" y="396.4763">data = self._data_loader.load_data(data_path)</text><text fill="#000000" font-family="sans-serif" font-size="13" lengthAdjust="spacing" textLength="351.1206" x="2826.4786" y="411.6091">return self._feature_engineer.engineer_features(data)</text><text fill="#000000" font-family="sans-serif" font-size="13" lengthAdjust="spacing" textLength="19.5" x="2793.42" y="426.7419">```</text></g><g class="entity" data-entity="GMN26" data-source-line="109" data-uid="ent0027" id="entity_GMN26"><path d="M424.65,250.7869 L424.65,442.3806 A0,0 0 0 0 424.65,442.3806 L922.3971,442.3806 A0,0 0 0 0 922.3971,442.3806 L922.3971,260.7869 L912.3971,250.7869 L677.52,250.7869 L673.52,141.3169 L669.52,250.7869 L424.65,250.7869 A0,0 0 0 0 424.65,250.7869 " fill="#FFFFCC" style="stroke:#999999;stroke-width:0.5;"/><path d="M912.3971,250.7869 L912.3971,260.7869 L922.3971,260.7869 L912.3971,250.7869 " fill="#FFFFCC" style="stroke:#999999;stroke-width:0.5;"/><text fill="#000000" font-family="sans-serif" font-size="13" lengthAdjust="spacing" textLength="224.8975" x="430.65" y="267.8538">Example with parameter injection:</text><text fill="#000000" font-family="sans-serif" font-size="13" lengthAdjust="spacing" textLength="64.9746" x="430.65" y="282.9866">```python</text><text fill="#000000" font-family="sans-serif" font-size="13" lengthAdjust="spacing" textLength="299.3174" x="430.65" y="298.1194">from nexusml.core.di.decorators import inject</text><text fill="#000000" font-family="sans-serif" font-size="13" lengthAdjust="spacing" textLength="291.3066" x="430.65" y="313.2522">from nexusml.core.di.container import Inject</text><text fill="#000000" font-family="sans-serif" font-size="13" lengthAdjust="spacing" textLength="4.1323" x="430.65" y="328.385">&#160;</text><text fill="#000000" font-family="sans-serif" font-size="13" lengthAdjust="spacing" textLength="48.7056" x="430.65" y="343.5178">@inject</text><text fill="#000000" font-family="sans-serif" font-size="13" lengthAdjust="spacing" textLength="211.25" x="430.65" y="358.6506">def process_data(data_path: str,</text><text fill="#000000" font-family="sans-serif" font-size="13" lengthAdjust="spacing" textLength="306.376" x="496.7672" y="373.7835">data_loader: DataLoader = Inject(DataLoader),</text><text fill="#000000" font-family="sans-serif" font-size="13" lengthAdjust="spacing" textLength="410.6299" x="496.7672" y="388.9163">feature_engineer: FeatureEngineer = Inject(FeatureEngineer)):</text><text fill="#000000" font-family="sans-serif" font-size="13" lengthAdjust="spacing" textLength="268.5249" x="447.1793" y="404.0491">data = data_loader.load_data(data_path)</text><text fill="#000000" font-family="sans-serif" font-size="13" lengthAdjust="spacing" textLength="317.5288" x="447.1793" y="419.1819">return feature_engineer.engineer_features(data)</text><text fill="#000000" font-family="sans-serif" font-size="13" lengthAdjust="spacing" textLength="19.5" x="430.65" y="434.3147">```</text></g><!--reverse link DataLoader to CSVDataLoader--><g class="link" data-entity-1="DataLoader" data-entity-2="CSVDataLoader" data-source-line="76" data-uid="lnk12" id="link_DataLoader_CSVDataLoader"><path codeLine="76" d="M198.52,159.3169 C198.52,197.1069 198.52,243.3869 198.52,289.7569 " fill="none" id="DataLoader-backto-CSVDataLoader" style="stroke:#666666;stroke-width:1;stroke-dasharray:7.0,7.0;"/><polygon fill="none" points="198.52,141.3169,192.52,159.3169,204.52,159.3169,198.52,141.3169" style="stroke:#666666;stroke-width:1;"/></g><!--link PipelineFactory to ComponentRegistry--><g class="link" data-entity-1="PipelineFactory" data-entity-2="ComponentRegistry" data-source-line="77" data-uid="lnk13" id="link_PipelineFactory_ComponentRegistry"><path codeLine="77" d="M2029.52,174.0969 C2029.52,202.1569 2029.52,229.3969 2029.52,259.1069 " fill="none" id="PipelineFactory-to-ComponentRegistry" style="stroke:#666666;stroke-width:1;"/><polygon fill="#666666" points="2029.52,265.1069,2033.52,256.1069,2029.52,260.1069,2025.52,256.1069,2029.52,265.1069" style="stroke:#666666;stroke-width:1;"/><text fill="#000000" font-family="sans-serif" font-size="13" lengthAdjust="spacing" textLength="29.7832" x="2030.52" y="216.8538">uses</text></g><!--link PipelineFactory to DIContainer--><g class="link" data-entity-1="PipelineFactory" data-entity-2="DIContainer" data-source-line="78" data-uid="lnk14" id="link_PipelineFactory_DIContainer"><path codeLine="78" d="M1829.17,174.2469 C1741.71,202.2769 1643.9138,233.616 1551.3838,263.266 " fill="none" id="PipelineFactory-to-DIContainer" style="stroke:#666666;stroke-width:1;"/><polygon fill="#666666" points="1545.67,265.0969,1555.4613,266.1597,1550.4315,263.5711,1553.0201,258.5413,1545.67,265.0969" style="stroke:#666666;stroke-width:1;"/><text fill="#000000" font-family="sans-serif" font-size="13" lengthAdjust="spacing" textLength="29.7832" x="1729.52" y="216.8538">uses</text></g><!--link inject to DIContainer--><g class="link" data-entity-1="inject" data-entity-2="DIContainer" data-source-line="79" data-uid="lnk15" id="link_inject_DIContainer"><path codeLine="79" d="M740.96,141.5969 C764.4,152.2169 790.96,163.8869 815.52,173.7869 C893.98,205.4069 975.1061,235.3986 1053.0061,263.0686 " fill="none" id="inject-to-DIContainer" style="stroke:#666666;stroke-width:1;stroke-dasharray:7.0,7.0;"/><polygon fill="#666666" points="1058.66,265.0769,1051.518,258.2952,1053.9484,263.4033,1048.8403,265.8338,1058.66,265.0769" style="stroke:#666666;stroke-width:1;"/><text fill="#000000" font-family="sans-serif" font-size="13" lengthAdjust="spacing" textLength="29.7832" x="934.52" y="216.8538">uses</text></g><!--link Inject to DIContainer--><g class="link" data-entity-1="Inject" data-entity-2="DIContainer" data-source-line="80" data-uid="lnk16" id="link_Inject_DIContainer"><path codeLine="80" d="M1294.52,157.7069 C1294.52,188.4869 1294.52,223.3169 1294.52,259.0469 " fill="none" id="Inject-to-DIContainer" style="stroke:#666666;stroke-width:1;stroke-dasharray:7.0,7.0;"/><polygon fill="#666666" points="1294.52,265.0469,1298.52,256.0469,1294.52,260.0469,1290.52,256.0469,1294.52,265.0469" style="stroke:#666666;stroke-width:1;"/><text fill="#000000" font-family="sans-serif" font-size="13" lengthAdjust="spacing" textLength="51.3398" x="1295.52" y="216.8538">used by</text></g><!--SRC=[hLPDRzms4BthLn3EmTvuhKCFHIiWGTor3IoG1aKSz584CbUQtMLDaG99rLcq-UyTVaYYFdPjk1NWjIJEl1c-UJFKERat1mwaX2qJp30fTA8VcQYfeXKfP5LB0S9uewRYFqIh6reyxfHiHBcIN2hoj6S6elLhfUIJNthpexkYnHMdMlyYLGagcFpihed9ACYRMtT5Pf-aWOdL7LwhrTXg9bnoJhummo4nzfTyWc-D_lKZkO4QH0cYE92r-1CAomovFsW3bNLngO5E2lkVtAnNKXZA12ZoTqB85ScPq8QA0dH6RbXX_lXog67fRxLHIt8j3b-_UjCjBOnKxAZfYd9EDnoS_ILHi6EOXkf2N321ZuW26V6-xKfcmoo9e1NU8XPvXpG8M0nnVFp352OiP5q6nw1sOARU4rENZRFVK_qY-usKt3aK7AYwM2JVay2uhuaZ-vACeDox3iqzvRaLTvw_8AgDGOMGXhgIipXGdXV81C9i6r7qj2pwspx3LTiwdntFwj0fewevLBZW0Xmhkdrk1OAzIHjkJdgYqr0U9xQA0XaWUGDVIWtcIBmJW9qANkxI5xah6QhYDVwTI6nyMvuHJMEGHJQckI_QRwm6ZcryvvNVbao54cRJgdg3ect_B9u5G-cT05cIUG3FQw606dYUYoLv-_RnYQgTZbhj_vWMt-t4k_r6BQ-a64u-QkX7ISim-2u9nuUynBSNzYUlgTa7pKN9MQyx7Cfnkzp_Fi92Md7yofA9NTl8hXSug_2OKJFDFJ37xCyQixtwwMn9XavsPNcs-4_ftc596WMtOeTrwZOFuJ7V-cNjK2E0vs3lGVt52cZtxtBYZf8ieZeS6pv6tWRDnaaDoJc2XLF-EHpFLAqadcPwZgpnNix9P-2- -VQiricmjcbJf_-yZxSpxhghg_SpupCZZTNTd75y_WQpCBVJT7PrVMAr99k3tSDwC4QmaU8juVa0HB7TtX2v3OS4qdG3XLGKyo9R_FElKP0emF0rWQSycc4BIcBF48Vilay0rQaJD28MEXa5MBS1hlkJoKQeg7gq-1448OYzWH0SoWYpR-96qntu61jfZAnia22-f3LwOcPl1nEotrYks_tWWP4yF3pK1xENOYZS3CCJ-otPwqu3ts87lbvz7jDU5YgDcm8xENeQsOsHqNZyglFeqXweF4ezqdhdP1SGT99LEZDK5fsN0an17CandPyW2yltM1nzuOBy1dNh535VjQr2Ls6_TIkUecOXBLbQjkhLzWD1AjCYprftHrPh74IQV0XU4px78xRZ96PqHYL8iiU-wDyjbXFlPwNKuumr5geQAlgYMeOwlgg2_m80]--></g></svg>