<svg xmlns="http://www.w3.org/2000/svg" xmlns:xlink="http://www.w3.org/1999/xlink" contentStyleType="text/css" data-diagram-type="CLASS" height="1064px" preserveAspectRatio="none" style="width:1521px;height:1064px;background:#FFFFFF;" version="1.1" viewBox="0 0 1521 1064" width="1521px" zoomAndPan="magnify"><title>NexusML Entity-Attribute-Value (EAV) Structure</title><defs/><g><text fill="#000000" font-family="sans-serif" font-size="14" font-weight="bold" lengthAdjust="spacing" textLength="380.1533" x="563.6142" y="22.9951">NexusML Entity-Attribute-Value (EAV) Structure</text><!--class Equipment--><g class="entity" data-entity="Equipment" data-source-line="13" data-uid="ent0002" id="entity_Equipment"><rect fill="#EEEEEE" height="178.375" rx="2.5" ry="2.5" style="stroke:#999999;stroke-width:0.5;" width="182.6045" x="444.05" y="555.0469"/><ellipse cx="493.1047" cy="571.0469" fill="#ADD1B2" rx="11" ry="11" style="stroke:#181818;stroke-width:1;"/><path d="M496.0734,576.6875 Q495.4953,576.9844 494.8547,577.125 Q494.2141,577.2812 493.5109,577.2812 Q491.0109,577.2812 489.6828,575.6406 Q488.3703,573.9844 488.3703,570.8594 Q488.3703,567.7344 489.6828,566.0781 Q491.0109,564.4219 493.5109,564.4219 Q494.2141,564.4219 494.8547,564.5781 Q495.5109,564.7344 496.0734,565.0312 L496.0734,567.75 Q495.4484,567.1719 494.8547,566.9062 Q494.2609,566.625 493.6359,566.625 Q492.2922,566.625 491.6047,567.7031 Q490.9172,568.7656 490.9172,570.8594 Q490.9172,572.9531 491.6047,574.0312 Q492.2922,575.0937 493.6359,575.0937 Q494.2609,575.0937 494.8547,574.8281 Q495.4484,574.5469 496.0734,573.9687 L496.0734,576.6875 Z " fill="#000000"/><text fill="#000000" font-family="sans-serif" font-size="14" lengthAdjust="spacing" textLength="75.9951" x="513.6047" y="575.8936">Equipment</text><line style="stroke:#999999;stroke-width:0.5;" x1="445.05" x2="625.6545" y1="587.0469" y2="587.0469"/><ellipse cx="455.05" cy="600.6953" fill="none" rx="3" ry="3" style="stroke:#038048;stroke-width:1;"/><text fill="#000000" font-family="sans-serif" font-size="14" lengthAdjust="spacing" textLength="122.958" x="464.05" y="604.042">equipment_id: int</text><ellipse cx="455.05" cy="616.9922" fill="none" rx="3" ry="3" style="stroke:#038048;stroke-width:1;"/><text fill="#000000" font-family="sans-serif" font-size="14" lengthAdjust="spacing" textLength="155.0732" x="464.05" y="620.3389">equipment_tag: string</text><ellipse cx="455.05" cy="633.2891" fill="none" rx="3" ry="3" style="stroke:#038048;stroke-width:1;"/><text fill="#000000" font-family="sans-serif" font-size="14" lengthAdjust="spacing" textLength="145.0107" x="464.05" y="636.6357">manufacturer: string</text><ellipse cx="455.05" cy="649.5859" fill="none" rx="3" ry="3" style="stroke:#038048;stroke-width:1;"/><text fill="#000000" font-family="sans-serif" font-size="14" lengthAdjust="spacing" textLength="92.9482" x="464.05" y="652.9326">model: string</text><ellipse cx="455.05" cy="665.8828" fill="none" rx="3" ry="3" style="stroke:#038048;stroke-width:1;"/><text fill="#000000" font-family="sans-serif" font-size="14" lengthAdjust="spacing" textLength="156.6045" x="464.05" y="669.2295">installation_date: date</text><ellipse cx="455.05" cy="682.1797" fill="none" rx="3" ry="3" style="stroke:#038048;stroke-width:1;"/><text fill="#000000" font-family="sans-serif" font-size="14" lengthAdjust="spacing" textLength="115.165" x="464.05" y="685.5264">initial_cost: float</text><line style="stroke:#999999;stroke-width:0.5;" x1="445.05" x2="625.6545" y1="692.8281" y2="692.8281"/><ellipse cx="455.05" cy="706.4766" fill="#84BE84" rx="3" ry="3" style="stroke:#038048;stroke-width:1;"/><text fill="#000000" font-family="sans-serif" font-size="14" lengthAdjust="spacing" textLength="141.6748" x="464.05" y="709.8232">category_id: int (FK)</text><ellipse cx="455.05" cy="722.7734" fill="#84BE84" rx="3" ry="3" style="stroke:#038048;stroke-width:1;"/><text fill="#000000" font-family="sans-serif" font-size="14" lengthAdjust="spacing" textLength="135.3516" x="464.05" y="726.1201">location_id: int (FK)</text></g><!--class EquipmentCategory--><g class="entity" data-entity="EquipmentCategory" data-source-line="24" data-uid="ent0003" id="entity_EquipmentCategory"><rect fill="#EEEEEE" height="145.7813" rx="2.5" ry="2.5" style="stroke:#999999;stroke-width:0.5;" width="240.334" x="771.18" y="332.2669"/><ellipse cx="817.1243" cy="348.2669" fill="#ADD1B2" rx="11" ry="11" style="stroke:#181818;stroke-width:1;"/><path d="M820.0931,353.9075 Q819.515,354.2044 818.8743,354.345 Q818.2337,354.5012 817.5306,354.5012 Q815.0306,354.5012 813.7025,352.8606 Q812.39,351.2044 812.39,348.0794 Q812.39,344.9544 813.7025,343.2981 Q815.0306,341.6419 817.5306,341.6419 Q818.2337,341.6419 818.8743,341.7981 Q819.5306,341.9544 820.0931,342.2512 L820.0931,344.97 Q819.4681,344.3919 818.8743,344.1262 Q818.2806,343.845 817.6556,343.845 Q816.3118,343.845 815.6243,344.9231 Q814.9368,345.9856 814.9368,348.0794 Q814.9368,350.1731 815.6243,351.2512 Q816.3118,352.3137 817.6556,352.3137 Q818.2806,352.3137 818.8743,352.0481 Q819.4681,351.7669 820.0931,351.1887 L820.0931,353.9075 Z " fill="#000000"/><text fill="#000000" font-family="sans-serif" font-size="14" lengthAdjust="spacing" textLength="139.9453" x="837.6243" y="353.1136">EquipmentCategory</text><line style="stroke:#999999;stroke-width:0.5;" x1="772.18" x2="1010.514" y1="364.2669" y2="364.2669"/><ellipse cx="782.18" cy="377.9153" fill="none" rx="3" ry="3" style="stroke:#038048;stroke-width:1;"/><text fill="#000000" font-family="sans-serif" font-size="14" lengthAdjust="spacing" textLength="109.0674" x="791.18" y="381.262">category_id: int</text><ellipse cx="782.18" cy="394.2122" fill="none" rx="3" ry="3" style="stroke:#038048;stroke-width:1;"/><text fill="#000000" font-family="sans-serif" font-size="14" lengthAdjust="spacing" textLength="157.9307" x="791.18" y="397.5589">category_name: string</text><ellipse cx="782.18" cy="410.5091" fill="none" rx="3" ry="3" style="stroke:#038048;stroke-width:1;"/><text fill="#000000" font-family="sans-serif" font-size="14" lengthAdjust="spacing" textLength="214.334" x="791.18" y="413.8557">mcaa_system_category: string</text><line style="stroke:#999999;stroke-width:0.5;" x1="772.18" x2="1010.514" y1="421.1575" y2="421.1575"/><ellipse cx="782.18" cy="434.8059" fill="#84BE84" rx="3" ry="3" style="stroke:#038048;stroke-width:1;"/><text fill="#000000" font-family="sans-serif" font-size="14" lengthAdjust="spacing" textLength="171.459" x="791.18" y="438.1526">omniclass_id: string (FK)</text><ellipse cx="782.18" cy="451.1028" fill="#84BE84" rx="3" ry="3" style="stroke:#038048;stroke-width:1;"/><text fill="#000000" font-family="sans-serif" font-size="14" lengthAdjust="spacing" textLength="170.3311" x="791.18" y="454.4495">uniformat_id: string (FK)</text><ellipse cx="782.18" cy="467.3997" fill="#84BE84" rx="3" ry="3" style="stroke:#038048;stroke-width:1;"/><text fill="#000000" font-family="sans-serif" font-size="14" lengthAdjust="spacing" textLength="198.0645" x="791.18" y="470.7464">masterformat_id: string (FK)</text></g><!--class EquipmentAttribute--><g class="entity" data-entity="EquipmentAttribute" data-source-line="33" data-uid="ent0004" id="entity_EquipmentAttribute"><rect fill="#EEEEEE" height="145.7813" rx="2.5" ry="2.5" style="stroke:#999999;stroke-width:0.5;" width="183.124" x="99.79" y="810.4169"/><ellipse cx="120.6694" cy="826.4169" fill="#ADD1B2" rx="11" ry="11" style="stroke:#181818;stroke-width:1;"/><path d="M123.6382,832.0575 Q123.0601,832.3544 122.4194,832.495 Q121.7788,832.6513 121.0757,832.6513 Q118.5757,832.6513 117.2476,831.0106 Q115.9351,829.3544 115.9351,826.2294 Q115.9351,823.1044 117.2476,821.4481 Q118.5757,819.7919 121.0757,819.7919 Q121.7788,819.7919 122.4194,819.9481 Q123.0757,820.1044 123.6382,820.4013 L123.6382,823.12 Q123.0132,822.5419 122.4194,822.2763 Q121.8257,821.995 121.2007,821.995 Q119.8569,821.995 119.1694,823.0731 Q118.4819,824.1356 118.4819,826.2294 Q118.4819,828.3231 119.1694,829.4013 Q119.8569,830.4638 121.2007,830.4638 Q121.8257,830.4638 122.4194,830.1981 Q123.0132,829.9169 123.6382,829.3388 L123.6382,832.0575 Z " fill="#000000"/><text fill="#000000" font-family="sans-serif" font-size="14" lengthAdjust="spacing" textLength="138.0586" x="135.976" y="831.2636">EquipmentAttribute</text><line style="stroke:#999999;stroke-width:0.5;" x1="100.79" x2="281.914" y1="842.4169" y2="842.4169"/><ellipse cx="110.79" cy="856.0653" fill="none" rx="3" ry="3" style="stroke:#038048;stroke-width:1;"/><text fill="#000000" font-family="sans-serif" font-size="14" lengthAdjust="spacing" textLength="108.2607" x="119.79" y="859.412">attribute_id: int</text><ellipse cx="110.79" cy="872.3622" fill="none" rx="3" ry="3" style="stroke:#038048;stroke-width:1;"/><text fill="#000000" font-family="sans-serif" font-size="14" lengthAdjust="spacing" textLength="157.124" x="119.79" y="875.7089">attribute_name: string</text><ellipse cx="110.79" cy="888.6591" fill="none" rx="3" ry="3" style="stroke:#038048;stroke-width:1;"/><text fill="#000000" font-family="sans-serif" font-size="14" lengthAdjust="spacing" textLength="155.6611" x="119.79" y="892.0057">attribute_value: string</text><ellipse cx="110.79" cy="904.9559" fill="none" rx="3" ry="3" style="stroke:#038048;stroke-width:1;"/><text fill="#000000" font-family="sans-serif" font-size="14" lengthAdjust="spacing" textLength="144.5459" x="119.79" y="908.3026">attribute_unit: string</text><ellipse cx="110.79" cy="921.2528" fill="none" rx="3" ry="3" style="stroke:#038048;stroke-width:1;"/><text fill="#000000" font-family="sans-serif" font-size="14" lengthAdjust="spacing" textLength="148.6953" x="119.79" y="924.5995">attribute_type: string</text><line style="stroke:#999999;stroke-width:0.5;" x1="100.79" x2="281.914" y1="931.9013" y2="931.9013"/><ellipse cx="110.79" cy="945.5497" fill="#84BE84" rx="3" ry="3" style="stroke:#038048;stroke-width:1;"/><text fill="#000000" font-family="sans-serif" font-size="14" lengthAdjust="spacing" textLength="155.5654" x="119.79" y="948.8964">equipment_id: int (FK)</text></g><!--class AttributeTemplate--><g class="entity" data-entity="AttributeTemplate" data-source-line="42" data-uid="ent0005" id="entity_AttributeTemplate"><rect fill="#EEEEEE" height="162.0781" rx="2.5" ry="2.5" style="stroke:#999999;stroke-width:0.5;" width="250.4375" x="766.13" y="563.1969"/><ellipse cx="822.9366" cy="579.1969" fill="#ADD1B2" rx="11" ry="11" style="stroke:#181818;stroke-width:1;"/><path d="M825.9054,584.8375 Q825.3273,585.1344 824.6866,585.275 Q824.046,585.4313 823.3429,585.4313 Q820.8429,585.4313 819.5148,583.7906 Q818.2023,582.1344 818.2023,579.0094 Q818.2023,575.8844 819.5148,574.2281 Q820.8429,572.5719 823.3429,572.5719 Q824.046,572.5719 824.6866,572.7281 Q825.3429,572.8844 825.9054,573.1813 L825.9054,575.9 Q825.2804,575.3219 824.6866,575.0563 Q824.0929,574.775 823.4679,574.775 Q822.1241,574.775 821.4366,575.8531 Q820.7491,576.9156 820.7491,579.0094 Q820.7491,581.1031 821.4366,582.1813 Q822.1241,583.2438 823.4679,583.2438 Q824.0929,583.2438 824.6866,582.9781 Q825.2804,582.6969 825.9054,582.1188 L825.9054,584.8375 Z " fill="#000000"/><text fill="#000000" font-family="sans-serif" font-size="14" lengthAdjust="spacing" textLength="128.3242" x="843.4366" y="584.0436">AttributeTemplate</text><line style="stroke:#999999;stroke-width:0.5;" x1="767.13" x2="1015.5675" y1="595.1969" y2="595.1969"/><ellipse cx="777.13" cy="608.8453" fill="none" rx="3" ry="3" style="stroke:#038048;stroke-width:1;"/><text fill="#000000" font-family="sans-serif" font-size="14" lengthAdjust="spacing" textLength="110.3936" x="786.13" y="612.192">template_id: int</text><ellipse cx="777.13" cy="625.1422" fill="none" rx="3" ry="3" style="stroke:#038048;stroke-width:1;"/><text fill="#000000" font-family="sans-serif" font-size="14" lengthAdjust="spacing" textLength="157.124" x="786.13" y="628.4889">attribute_name: string</text><ellipse cx="777.13" cy="641.4391" fill="none" rx="3" ry="3" style="stroke:#038048;stroke-width:1;"/><text fill="#000000" font-family="sans-serif" font-size="14" lengthAdjust="spacing" textLength="142.5977" x="786.13" y="644.7857">is_required: boolean</text><ellipse cx="777.13" cy="657.7359" fill="none" rx="3" ry="3" style="stroke:#038048;stroke-width:1;"/><text fill="#000000" font-family="sans-serif" font-size="14" lengthAdjust="spacing" textLength="143.8555" x="786.13" y="661.0826">default_value: string</text><ellipse cx="777.13" cy="674.0328" fill="none" rx="3" ry="3" style="stroke:#038048;stroke-width:1;"/><text fill="#000000" font-family="sans-serif" font-size="14" lengthAdjust="spacing" textLength="132.7402" x="786.13" y="677.3795">default_unit: string</text><ellipse cx="777.13" cy="690.3297" fill="none" rx="3" ry="3" style="stroke:#038048;stroke-width:1;"/><text fill="#000000" font-family="sans-serif" font-size="14" lengthAdjust="spacing" textLength="148.6953" x="786.13" y="693.6764">attribute_type: string</text><line style="stroke:#999999;stroke-width:0.5;" x1="767.13" x2="1015.5675" y1="700.9781" y2="700.9781"/><ellipse cx="777.13" cy="714.6266" fill="#84BE84" rx="3" ry="3" style="stroke:#038048;stroke-width:1;"/><text fill="#000000" font-family="sans-serif" font-size="14" lengthAdjust="spacing" textLength="224.4375" x="786.13" y="717.9732">equipment_category_id: int (FK)</text></g><!--class ClassificationSystem--><g class="entity" data-entity="ClassificationSystem" data-source-line="52" data-uid="ent0006" id="entity_ClassificationSystem"><rect fill="#EEEEEE" height="145.7813" rx="2.5" ry="2.5" style="stroke:#999999;stroke-width:0.5;" width="204.1855" x="1060.26" y="76.8869"/><ellipse cx="1087.5656" cy="92.8869" fill="#ADD1B2" rx="11" ry="11" style="stroke:#181818;stroke-width:1;"/><path d="M1090.5343,98.5275 Q1089.9562,98.8244 1089.3156,98.965 Q1088.6749,99.1212 1087.9718,99.1212 Q1085.4718,99.1212 1084.1437,97.4806 Q1082.8312,95.8244 1082.8312,92.6994 Q1082.8312,89.5744 1084.1437,87.9181 Q1085.4718,86.2619 1087.9718,86.2619 Q1088.6749,86.2619 1089.3156,86.4181 Q1089.9718,86.5744 1090.5343,86.8712 L1090.5343,89.59 Q1089.9093,89.0119 1089.3156,88.7462 Q1088.7218,88.465 1088.0968,88.465 Q1086.7531,88.465 1086.0656,89.5431 Q1085.3781,90.6056 1085.3781,92.6994 Q1085.3781,94.7931 1086.0656,95.8712 Q1086.7531,96.9337 1088.0968,96.9337 Q1088.7218,96.9337 1089.3156,96.6681 Q1089.9093,96.3869 1090.5343,95.8087 L1090.5343,98.5275 Z " fill="#000000"/><text fill="#000000" font-family="sans-serif" font-size="14" lengthAdjust="spacing" textLength="144.8398" x="1104.3001" y="97.7336">ClassificationSystem</text><line style="stroke:#999999;stroke-width:0.5;" x1="1061.26" x2="1263.4455" y1="108.8869" y2="108.8869"/><ellipse cx="1071.26" cy="122.5353" fill="none" rx="3" ry="3" style="stroke:#038048;stroke-width:1;"/><text fill="#000000" font-family="sans-serif" font-size="14" lengthAdjust="spacing" textLength="159.6875" x="1080.26" y="125.882">classification_id: string</text><ellipse cx="1071.26" cy="138.8322" fill="none" rx="3" ry="3" style="stroke:#038048;stroke-width:1;"/><text fill="#000000" font-family="sans-serif" font-size="14" lengthAdjust="spacing" textLength="178.1855" x="1080.26" y="142.1789">classification_type: string</text><ellipse cx="1071.26" cy="155.1291" fill="none" rx="3" ry="3" style="stroke:#038048;stroke-width:1;"/><text fill="#000000" font-family="sans-serif" font-size="14" lengthAdjust="spacing" textLength="115.3291" x="1080.26" y="158.4757">parent_id: string</text><ellipse cx="1071.26" cy="171.4259" fill="none" rx="3" ry="3" style="stroke:#038048;stroke-width:1;"/><text fill="#000000" font-family="sans-serif" font-size="14" lengthAdjust="spacing" textLength="89.0586" x="1080.26" y="174.7726">name: string</text><ellipse cx="1071.26" cy="187.7228" fill="none" rx="3" ry="3" style="stroke:#038048;stroke-width:1;"/><text fill="#000000" font-family="sans-serif" font-size="14" lengthAdjust="spacing" textLength="127.1963" x="1080.26" y="191.0695">description: string</text><ellipse cx="1071.26" cy="204.0197" fill="none" rx="3" ry="3" style="stroke:#038048;stroke-width:1;"/><text fill="#000000" font-family="sans-serif" font-size="14" lengthAdjust="spacing" textLength="60.71" x="1080.26" y="207.3664">level: int</text><line style="stroke:#999999;stroke-width:0.5;" x1="1061.26" x2="1263.4455" y1="214.6681" y2="214.6681"/></g><g class="entity" data-entity="GMN11" data-source-line="69" data-uid="ent0012" id="entity_GMN11"><path d="M317.6,863.1769 L317.6,903.4425 A0,0 0 0 0 317.6,903.4425 L753.1083,903.4425 A0,0 0 0 0 753.1083,903.4425 L753.1083,873.1769 L743.1083,863.1769 L539.35,863.1769 L535.35,733.8469 L531.35,863.1769 L317.6,863.1769 A0,0 0 0 0 317.6,863.1769 " fill="#EEEEEE" style="stroke:#999999;stroke-width:0.5;"/><path d="M743.1083,863.1769 L743.1083,873.1769 L753.1083,873.1769 L743.1083,863.1769 " fill="#EEEEEE" style="stroke:#999999;stroke-width:0.5;"/><text fill="#000000" font-family="sans-serif" font-size="13" lengthAdjust="spacing" textLength="414.5083" x="323.6" y="880.2438">The Equipment entity represents a physical piece of equipment</text><text fill="#000000" font-family="sans-serif" font-size="13" lengthAdjust="spacing" textLength="322.4355" x="323.6" y="895.3766">with basic identification and location information.</text></g><g class="entity" data-entity="GMN14" data-source-line="74" data-uid="ent0015" id="entity_GMN14"><path d="M1051.6,624.0969 L1051.6,664.3625 A0,0 0 0 0 1051.6,664.3625 L1483.0966,664.3625 A0,0 0 0 0 1483.0966,664.3625 L1483.0966,634.0969 L1473.0966,624.0969 L1240.22,624.0969 L1005.95,478.4169 L1232.22,624.0969 L1051.6,624.0969 A0,0 0 0 0 1051.6,624.0969 " fill="#EEEEEE" style="stroke:#999999;stroke-width:0.5;"/><path d="M1473.0966,624.0969 L1473.0966,634.0969 L1483.0966,634.0969 L1473.0966,624.0969 " fill="#EEEEEE" style="stroke:#999999;stroke-width:0.5;"/><text fill="#000000" font-family="sans-serif" font-size="13" lengthAdjust="spacing" textLength="410.4966" x="1057.6" y="641.1638">The EquipmentCategory entity represents a type of equipment</text><text fill="#000000" font-family="sans-serif" font-size="13" lengthAdjust="spacing" textLength="277.5068" x="1057.6" y="656.2966">and links to various classification systems.</text></g><g class="entity" data-entity="GMN17" data-source-line="79" data-uid="ent0018" id="entity_GMN17"><path d="M6,1017.1969 L6,1057.4625 A0,0 0 0 0 6,1057.4625 L376.6987,1057.4625 A0,0 0 0 0 376.6987,1057.4625 L376.6987,1027.1969 L366.6987,1017.1969 L195.35,1017.1969 L191.35,956.3169 L187.35,1017.1969 L6,1017.1969 A0,0 0 0 0 6,1017.1969 " fill="#EEEEEE" style="stroke:#999999;stroke-width:0.5;"/><path d="M366.6987,1017.1969 L366.6987,1027.1969 L376.6987,1027.1969 L366.6987,1017.1969 " fill="#EEEEEE" style="stroke:#999999;stroke-width:0.5;"/><text fill="#000000" font-family="sans-serif" font-size="13" lengthAdjust="spacing" textLength="349.6987" x="12" y="1034.2638">The EquipmentAttribute entity stores attribute values</text><text fill="#000000" font-family="sans-serif" font-size="13" lengthAdjust="spacing" textLength="322.8545" x="12" y="1049.3966">for specific equipment in a flexible EAV structure.</text></g><g class="entity" data-entity="GMN20" data-source-line="84" data-uid="ent0021" id="entity_GMN20"><path d="M788.55,863.1769 L788.55,903.4425 A0,0 0 0 0 788.55,903.4425 L1154.1452,903.4425 A0,0 0 0 0 1154.1452,903.4425 L1154.1452,873.1769 L1144.1452,863.1769 L968.78,863.1769 L918.43,725.4969 L960.78,863.1769 L788.55,863.1769 A0,0 0 0 0 788.55,863.1769 " fill="#EEEEEE" style="stroke:#999999;stroke-width:0.5;"/><path d="M1144.1452,863.1769 L1144.1452,873.1769 L1154.1452,873.1769 L1144.1452,863.1769 " fill="#EEEEEE" style="stroke:#999999;stroke-width:0.5;"/><text fill="#000000" font-family="sans-serif" font-size="13" lengthAdjust="spacing" textLength="344.5952" x="794.55" y="880.2438">The AttributeTemplate entity defines what attributes</text><text fill="#000000" font-family="sans-serif" font-size="13" lengthAdjust="spacing" textLength="283.5688" x="794.55" y="895.3766">are expected for each equipment category.</text></g><g class="entity" data-entity="GMN23" data-source-line="89" data-uid="ent0024" id="entity_GMN23"><path d="M1046.31,385.0169 L1046.31,425.2825 A0,0 0 0 0 1046.31,425.2825 L1514.3818,425.2825 A0,0 0 0 0 1514.3818,425.2825 L1514.3818,395.0169 L1504.3818,385.0169 L1275.21,385.0169 L1196.01,223.0469 L1267.21,385.0169 L1046.31,385.0169 A0,0 0 0 0 1046.31,385.0169 " fill="#EEEEEE" style="stroke:#999999;stroke-width:0.5;"/><path d="M1504.3818,385.0169 L1504.3818,395.0169 L1514.3818,395.0169 L1504.3818,385.0169 " fill="#EEEEEE" style="stroke:#999999;stroke-width:0.5;"/><text fill="#000000" font-family="sans-serif" font-size="13" lengthAdjust="spacing" textLength="358.9854" x="1052.31" y="402.0838">The ClassificationSystem entity represents hierarchical</text><text fill="#000000" font-family="sans-serif" font-size="13" lengthAdjust="spacing" textLength="447.0718" x="1052.31" y="417.2166">classification systems like OmniClass, Uniformat, and MasterFormat.</text></g><!--class EAVManager--><g class="entity" data-entity="EAVManager" data-source-line="94" data-uid="ent0026" id="entity_EAVManager"><rect fill="#EEEEEE" height="210.9688" rx="2.5" ry="2.5" style="stroke:#999999;stroke-width:0.5;" width="520.1768" x="52.26" y="44.2969"/><ellipse cx="263.4153" cy="60.2969" fill="#ADD1B2" rx="11" ry="11" style="stroke:#181818;stroke-width:1;"/><path d="M266.384,65.9375 Q265.8059,66.2344 265.1653,66.375 Q264.5246,66.5313 263.8215,66.5313 Q261.3215,66.5313 259.9934,64.8906 Q258.6809,63.2344 258.6809,60.1094 Q258.6809,56.9844 259.9934,55.3281 Q261.3215,53.6719 263.8215,53.6719 Q264.5246,53.6719 265.1653,53.8281 Q265.8215,53.9844 266.384,54.2813 L266.384,57 Q265.759,56.4219 265.1653,56.1563 Q264.5715,55.875 263.9465,55.875 Q262.6028,55.875 261.9153,56.9531 Q261.2278,58.0156 261.2278,60.1094 Q261.2278,62.2031 261.9153,63.2813 Q262.6028,64.3438 263.9465,64.3438 Q264.5715,64.3438 265.1653,64.0781 Q265.759,63.7969 266.384,63.2188 L266.384,65.9375 Z " fill="#000000"/><text fill="#000000" font-family="sans-serif" font-size="14" lengthAdjust="spacing" textLength="89.3662" x="283.9153" y="65.1436">EAVManager</text><line style="stroke:#999999;stroke-width:0.5;" x1="53.26" x2="571.4368" y1="76.2969" y2="76.2969"/><line style="stroke:#999999;stroke-width:0.5;" x1="53.26" x2="571.4368" y1="84.2969" y2="84.2969"/><ellipse cx="63.26" cy="97.9453" fill="#84BE84" rx="3" ry="3" style="stroke:#038048;stroke-width:1;"/><text fill="#000000" font-family="sans-serif" font-size="14" lengthAdjust="spacing" textLength="300.9111" x="72.26" y="101.292">get_equipment_template(equipment_type)</text><ellipse cx="63.26" cy="114.2422" fill="#84BE84" rx="3" ry="3" style="stroke:#038048;stroke-width:1;"/><text fill="#000000" font-family="sans-serif" font-size="14" lengthAdjust="spacing" textLength="289.584" x="72.26" y="117.5889">get_required_attributes(equipment_type)</text><ellipse cx="63.26" cy="130.5391" fill="#84BE84" rx="3" ry="3" style="stroke:#038048;stroke-width:1;"/><text fill="#000000" font-family="sans-serif" font-size="14" lengthAdjust="spacing" textLength="287.0479" x="72.26" y="133.8857">get_optional_attributes(equipment_type)</text><ellipse cx="63.26" cy="146.8359" fill="#84BE84" rx="3" ry="3" style="stroke:#038048;stroke-width:1;"/><text fill="#000000" font-family="sans-serif" font-size="14" lengthAdjust="spacing" textLength="246.668" x="72.26" y="150.1826">get_all_attributes(equipment_type)</text><ellipse cx="63.26" cy="163.1328" fill="#84BE84" rx="3" ry="3" style="stroke:#038048;stroke-width:1;"/><text fill="#000000" font-family="sans-serif" font-size="14" lengthAdjust="spacing" textLength="320.1064" x="72.26" y="166.4795">get_attribute_unit(equipment_type, attribute)</text><ellipse cx="63.26" cy="179.4297" fill="#84BE84" rx="3" ry="3" style="stroke:#038048;stroke-width:1;"/><text fill="#000000" font-family="sans-serif" font-size="14" lengthAdjust="spacing" textLength="272.5762" x="72.26" y="182.7764">get_classification_ids(equipment_type)</text><ellipse cx="63.26" cy="195.7266" fill="#84BE84" rx="3" ry="3" style="stroke:#038048;stroke-width:1;"/><text fill="#000000" font-family="sans-serif" font-size="14" lengthAdjust="spacing" textLength="289.3584" x="72.26" y="199.0732">get_performance_fields(equipment_type)</text><ellipse cx="63.26" cy="212.0234" fill="#84BE84" rx="3" ry="3" style="stroke:#038048;stroke-width:1;"/><text fill="#000000" font-family="sans-serif" font-size="14" lengthAdjust="spacing" textLength="333.792" x="72.26" y="215.3701">validate_attributes(equipment_type, attributes)</text><ellipse cx="63.26" cy="228.3203" fill="#84BE84" rx="3" ry="3" style="stroke:#038048;stroke-width:1;"/><text fill="#000000" font-family="sans-serif" font-size="14" lengthAdjust="spacing" textLength="326.6484" x="72.26" y="231.667">generate_attribute_template(equipment_type)</text><ellipse cx="63.26" cy="244.6172" fill="#84BE84" rx="3" ry="3" style="stroke:#038048;stroke-width:1;"/><text fill="#000000" font-family="sans-serif" font-size="14" lengthAdjust="spacing" textLength="494.1768" x="72.26" y="247.9639">fill_missing_attributes(equipment_type, attributes, description, model)</text></g><g class="entity" data-entity="GMN27" data-source-line="108" data-uid="ent0028" id="entity_GMN27"><path d="M607.87,114.5169 L607.87,145.7769 L572.72,149.7769 L607.87,153.7769 L607.87,185.0481 A0,0 0 0 0 607.87,185.0481 L1024.8241,185.0481 A0,0 0 0 0 1024.8241,185.0481 L1024.8241,124.5169 L1014.8241,114.5169 L607.87,114.5169 A0,0 0 0 0 607.87,114.5169 " fill="#EEEEEE" style="stroke:#999999;stroke-width:0.5;"/><path d="M1014.8241,114.5169 L1014.8241,124.5169 L1024.8241,124.5169 L1014.8241,114.5169 " fill="#EEEEEE" style="stroke:#999999;stroke-width:0.5;"/><text fill="#000000" font-family="sans-serif" font-size="13" lengthAdjust="spacing" textLength="374.645" x="613.87" y="131.5838">The EAVManager class provides an interface to work with</text><text fill="#000000" font-family="sans-serif" font-size="13" lengthAdjust="spacing" textLength="395.9541" x="613.87" y="146.7166">the EAV structure in the NexusML system. It loads templates</text><text fill="#000000" font-family="sans-serif" font-size="13" lengthAdjust="spacing" textLength="354.6753" x="613.87" y="161.8494">from JSON configuration files and provides methods to</text><text fill="#000000" font-family="sans-serif" font-size="13" lengthAdjust="spacing" textLength="283.0039" x="613.87" y="176.9822">validate, generate, and fill attribute values.</text></g><!--link Equipment to EquipmentAttribute--><g class="link" data-entity-1="Equipment" data-entity-2="EquipmentAttribute" data-source-line="62" data-uid="lnk7" id="link_Equipment_EquipmentAttribute"><path codeLine="62" d="M443.62,708.4569 C393.96,742.6769 332.79,784.8269 283.13,819.0569 " fill="none" id="Equipment-EquipmentAttribute" style="stroke:#666666;stroke-width:1;"/><text fill="#000000" font-family="sans-serif" font-size="13" lengthAdjust="spacing" textLength="22.9785" x="364.35" y="776.4838">has</text><text fill="#000000" font-family="sans-serif" font-size="13" lengthAdjust="spacing" textLength="8.271" x="427.7034" y="710.2266">1</text><text fill="#000000" font-family="sans-serif" font-size="13" lengthAdjust="spacing" textLength="36.5625" x="290.8685" y="811.0835">many</text></g><!--link EquipmentCategory to Equipment--><g class="link" data-entity-1="EquipmentCategory" data-entity-2="Equipment" data-source-line="63" data-uid="lnk8" id="link_EquipmentCategory_Equipment"><path codeLine="63" d="M783.09,478.2469 C733.17,511.4869 674.57,550.5169 626.89,582.2669 " fill="none" id="EquipmentCategory-Equipment" style="stroke:#666666;stroke-width:1;"/><text fill="#000000" font-family="sans-serif" font-size="13" lengthAdjust="spacing" textLength="74.9658" x="736.35" y="521.1138">categorizes</text><text fill="#000000" font-family="sans-serif" font-size="13" lengthAdjust="spacing" textLength="8.271" x="764.4034" y="498.0013">1</text><text fill="#000000" font-family="sans-serif" font-size="13" lengthAdjust="spacing" textLength="36.5625" x="634.6116" y="574.454">many</text></g><!--link EquipmentCategory to AttributeTemplate--><g class="link" data-entity-1="EquipmentCategory" data-entity-2="AttributeTemplate" data-source-line="64" data-uid="lnk9" id="link_EquipmentCategory_AttributeTemplate"><path codeLine="64" d="M891.35,478.2469 C891.35,504.9569 891.35,535.3869 891.35,562.7869 " fill="none" id="EquipmentCategory-AttributeTemplate" style="stroke:#666666;stroke-width:1;"/><text fill="#000000" font-family="sans-serif" font-size="13" lengthAdjust="spacing" textLength="47.4487" x="892.35" y="521.1138">defines</text><text fill="#000000" font-family="sans-serif" font-size="13" lengthAdjust="spacing" textLength="8.271" x="882.982" y="498.0013">1</text><text fill="#000000" font-family="sans-serif" font-size="13" lengthAdjust="spacing" textLength="36.5625" x="853.8274" y="552.2154">many</text></g><!--link ClassificationSystem to EquipmentCategory--><g class="link" data-entity-1="ClassificationSystem" data-entity-2="EquipmentCategory" data-source-line="65" data-uid="lnk10" id="link_ClassificationSystem_EquipmentCategory"><path codeLine="65" d="M1085.05,223.0469 C1048.6,257.1269 1005.21,297.6969 968.75,331.7869 " fill="none" id="ClassificationSystem-EquipmentCategory" style="stroke:#666666;stroke-width:1;"/><text fill="#000000" font-family="sans-serif" font-size="13" lengthAdjust="spacing" textLength="58.8428" x="1012.35" y="298.3338">classifies</text><text fill="#000000" font-family="sans-serif" font-size="13" lengthAdjust="spacing" textLength="8.271" x="1069.3137" y="242.8184">1</text><text fill="#000000" font-family="sans-serif" font-size="13" lengthAdjust="spacing" textLength="36.5625" x="938.4387" y="321.1521">many</text></g><!--SRC=[bLPBR-Gs3BxxLn3PGn9qia0l1JgtDCW2RJTPO9FcEb1isXR6bhmIdMIssFzUIhPiZH-pwHoSM7pe8_cHz3ayqA52o32NIfBKoYPsBrKZZAZXMQJxmkXMPJUwqWPUIqaOoQ-DqQ-TwCDl_XS9RofXxH_QP6XwbT_zRwOokUJ3hVz5QlUQyBGZhx7Y9pc7HqaL9kIUS8zlhRtx3BUAtmzNrqH6FhU4Lq-YQX4kRg-VBZaffasfDUYiFKgqIUh-mkstLZOrAe9_4u1VCBpkPBO5gUZua4In1SjNgC89Ka5OQ7C8od3nwUzB9wWqYpZxCq4jL9iBZyN4dcgTOHKVI6L9L5Nd9UDxjk2UdOWhAwfTgYrj8Q-qeEH7CetdfiVMnJL5UdIcH8tntRfMqdlpsjtv446hPAvDBMX9M0jBQ4x8Ko5szi1AzIvSFzmyZs6ePXU42A_BnPdcUbIV1ZXANXnBbaKSA2rBwD3W7FK0zX7hXWlNWwR-RHdpAeFMmKkxCyw1GJPvrhf2eTmvzxneAvg750J_Do3VA3AN7PKVVDLwDXr9ea8l28zyivWxF1HhF9p6cA5DZMoSW_YumXVN9IwBFrmhVyMkGMmf6vkChNpswnbSNS4PTzlXR8bEMoX5P33qoeeXw_U5aj_nvtPp9coxYSosYqbTkNPmpzVtPko1utRpqIQAdqm08bs3paSppjHZYH5wzBCH33O6BRzO4D2K1yiWAcWafkZiCR9_bLJokc0Da9ap3u11g0p2TED2TAtE_tzCa2KEKh8ABCGp1JZ4kGJKyMSApuEGQc-1DBm88tLhuPXtq4qP-nvSGxscm4R2zCWiQKO6G-U0RpRBTfm8i0sc3i28bJF48UGLlibdNbQyZ1oRkrrq0jcCG3smER5wN3sxUACB6j4vNDnjW6yCZ33p856aPGGm3A0JQ9OesmDQPFEyYgL48qnQEiAnvNAbkA9xX2-yUxpN3VmJDit65_pExvPF_YH6U-xJUYUKAD243NBzr1zq0wj0saLRlC_UHNJ4BBiCcc6yxiPChgbgFwDu6VzSbRVvUxIEziz4QpFMTZ2OpU9Lrqs_cLMAEvuarR8cCrgwBurrh14AspjNND_Ov6IASycPg2MZLiNxRjb0j10su3-MBjqAy4mriYZ9D_HGzT388mqwNZH6l_10umvsmyjzgWWUVZn4NhNP-wd7bbHEEjLriJiCtveTOJ_2dyIZK6GyXVfe_I0mt3L_FNovXrIhN1QjwLZEKVjxin54ZLHgPwxPBkHz0o6T7UrTjcO3P-J_Vm00]--></g></svg>