<svg xmlns="http://www.w3.org/2000/svg" xmlns:xlink="http://www.w3.org/1999/xlink" contentStyleType="text/css" data-diagram-type="DESCRIPTION" height="671px" preserveAspectRatio="none" style="width:2484px;height:671px;background:#FFFFFF;" version="1.1" viewBox="0 0 2484 671" width="2484px" zoomAndPan="magnify"><title>NexusML Model Pipeline Architecture</title><defs/><g><text fill="#000000" font-family="sans-serif" font-size="14" font-weight="bold" lengthAdjust="spacing" textLength="295.8662" x="1087.3261" y="22.9951">NexusML Model Pipeline Architecture</text><!--cluster Data Ingestion--><g class="cluster" data-entity="Data Ingestion" data-source-line="16" data-uid="ent0002" id="cluster_Data Ingestion"><path d="M1012.17,87.3969 L1129.3536,87.3969 A3.75,3.75 0 0 1 1131.8536,89.8969 L1138.8536,109.6937 L1624.17,109.6937 A2.5,2.5 0 0 1 1626.67,112.1937 L1626.67,182.1869 A2.5,2.5 0 0 1 1624.17,184.6869 L1012.17,184.6869 A2.5,2.5 0 0 1 1009.67,182.1869 L1009.67,89.8969 A2.5,2.5 0 0 1 1012.17,87.3969 " fill="none" style="stroke:#000000;stroke-width:1.5;"/><line style="stroke:#000000;stroke-width:1.5;" x1="1009.67" x2="1138.8536" y1="109.6937" y2="109.6937"/><text fill="#000000" font-family="sans-serif" font-size="14" font-weight="bold" lengthAdjust="spacing" textLength="116.1836" x="1013.67" y="102.392">Data Ingestion</text></g><!--cluster Core--><g class="cluster" data-entity="Core" data-source-line="22" data-uid="ent0006" id="cluster_Core"><path d="M255.17,233.6869 L292.462,233.6869 A3.75,3.75 0 0 1 294.962,236.1869 L301.962,255.9837 L1601.17,255.9837 A2.5,2.5 0 0 1 1603.67,258.4837 L1603.67,575.0769 A2.5,2.5 0 0 1 1601.17,577.5769 L255.17,577.5769 A2.5,2.5 0 0 1 252.67,575.0769 L252.67,236.1869 A2.5,2.5 0 0 1 255.17,233.6869 " fill="none" style="stroke:#000000;stroke-width:1.5;"/><line style="stroke:#000000;stroke-width:1.5;" x1="252.67" x2="301.962" y1="255.9837" y2="255.9837"/><text fill="#000000" font-family="sans-serif" font-size="14" font-weight="bold" lengthAdjust="spacing" textLength="36.292" x="256.67" y="248.682">Core</text></g><!--entity ClassifyEquipment--><g class="entity" data-entity="ClassifyEquipment" data-source-line="17" data-uid="ent0003" id="entity_ClassifyEquipment"><rect fill="#EEEEEE" height="46.2969" rx="2.5" ry="2.5" style="stroke:#999999;stroke-width:0.5;" width="196.2422" x="1025.55" y="122.3969"/><rect fill="#EEEEEE" height="10" style="stroke:#999999;stroke-width:0.5;" width="15" x="1201.7922" y="127.3969"/><rect fill="#EEEEEE" height="2" style="stroke:#999999;stroke-width:0.5;" width="4" x="1199.7922" y="129.3969"/><rect fill="#EEEEEE" height="2" style="stroke:#999999;stroke-width:0.5;" width="4" x="1199.7922" y="133.3969"/><text fill="#000000" font-family="sans-serif" font-size="14" lengthAdjust="spacing" textLength="156.2422" x="1040.55" y="155.392">classify_equipment.py</text></g><!--entity Predict--><g class="entity" data-entity="Predict" data-source-line="18" data-uid="ent0004" id="entity_Predict"><rect fill="#EEEEEE" height="46.2969" rx="2.5" ry="2.5" style="stroke:#999999;stroke-width:0.5;" width="110.8408" x="1257.25" y="122.3969"/><rect fill="#EEEEEE" height="10" style="stroke:#999999;stroke-width:0.5;" width="15" x="1348.0908" y="127.3969"/><rect fill="#EEEEEE" height="2" style="stroke:#999999;stroke-width:0.5;" width="4" x="1346.0908" y="129.3969"/><rect fill="#EEEEEE" height="2" style="stroke:#999999;stroke-width:0.5;" width="4" x="1346.0908" y="133.3969"/><text fill="#000000" font-family="sans-serif" font-size="14" lengthAdjust="spacing" textLength="70.8408" x="1272.25" y="155.392">predict.py</text></g><!--entity TrainModel--><g class="entity" data-entity="TrainModel" data-source-line="19" data-uid="ent0005" id="entity_TrainModel"><rect fill="#EEEEEE" height="46.2969" rx="2.5" ry="2.5" style="stroke:#999999;stroke-width:0.5;" width="207.3438" x="1403" y="122.3969"/><rect fill="#EEEEEE" height="10" style="stroke:#999999;stroke-width:0.5;" width="15" x="1590.3438" y="127.3969"/><rect fill="#EEEEEE" height="2" style="stroke:#999999;stroke-width:0.5;" width="4" x="1588.3438" y="129.3969"/><rect fill="#EEEEEE" height="2" style="stroke:#999999;stroke-width:0.5;" width="4" x="1588.3438" y="133.3969"/><text fill="#000000" font-family="sans-serif" font-size="14" lengthAdjust="spacing" textLength="167.3438" x="1418" y="155.392">train_model_pipeline.py</text></g><!--entity DataMapper--><g class="entity" data-entity="DataMapper" data-source-line="23" data-uid="ent0007" id="entity_DataMapper"><rect fill="#EEEEEE" height="46.2969" rx="2.5" ry="2.5" style="stroke:#999999;stroke-width:0.5;" width="154.5156" x="1194.42" y="391.9869"/><rect fill="#EEEEEE" height="10" style="stroke:#999999;stroke-width:0.5;" width="15" x="1328.9356" y="396.9869"/><rect fill="#EEEEEE" height="2" style="stroke:#999999;stroke-width:0.5;" width="4" x="1326.9356" y="398.9869"/><rect fill="#EEEEEE" height="2" style="stroke:#999999;stroke-width:0.5;" width="4" x="1326.9356" y="402.9869"/><text fill="#000000" font-family="sans-serif" font-size="14" lengthAdjust="spacing" textLength="114.5156" x="1209.42" y="424.982">data_mapper.py</text></g><!--entity DataPreprocessing--><g class="entity" data-entity="DataPreprocessing" data-source-line="24" data-uid="ent0008" id="entity_DataPreprocessing"><rect fill="#EEEEEE" height="46.2969" rx="2.5" ry="2.5" style="stroke:#999999;stroke-width:0.5;" width="199.168" x="587.09" y="391.9869"/><rect fill="#EEEEEE" height="10" style="stroke:#999999;stroke-width:0.5;" width="15" x="766.258" y="396.9869"/><rect fill="#EEEEEE" height="2" style="stroke:#999999;stroke-width:0.5;" width="4" x="764.258" y="398.9869"/><rect fill="#EEEEEE" height="2" style="stroke:#999999;stroke-width:0.5;" width="4" x="764.258" y="402.9869"/><text fill="#000000" font-family="sans-serif" font-size="14" lengthAdjust="spacing" textLength="159.168" x="602.09" y="424.982">data_preprocessing.py</text></g><!--entity DynamicMapper--><g class="entity" data-entity="DynamicMapper" data-source-line="25" data-uid="ent0009" id="entity_DynamicMapper"><rect fill="#EEEEEE" height="46.2969" rx="2.5" ry="2.5" style="stroke:#999999;stroke-width:0.5;" width="182.8301" x="369.26" y="391.9869"/><rect fill="#EEEEEE" height="10" style="stroke:#999999;stroke-width:0.5;" width="15" x="532.0901" y="396.9869"/><rect fill="#EEEEEE" height="2" style="stroke:#999999;stroke-width:0.5;" width="4" x="530.0901" y="398.9869"/><rect fill="#EEEEEE" height="2" style="stroke:#999999;stroke-width:0.5;" width="4" x="530.0901" y="402.9869"/><text fill="#000000" font-family="sans-serif" font-size="14" lengthAdjust="spacing" textLength="142.8301" x="384.26" y="424.982">dynamic_mapper.py</text></g><!--entity EAVManager--><g class="entity" data-entity="EAVManager" data-source-line="26" data-uid="ent0010" id="entity_EAVManager"><rect fill="#EEEEEE" height="46.2969" rx="2.5" ry="2.5" style="stroke:#999999;stroke-width:0.5;" width="157.0244" x="1196.16" y="515.2869"/><rect fill="#EEEEEE" height="10" style="stroke:#999999;stroke-width:0.5;" width="15" x="1333.1844" y="520.2869"/><rect fill="#EEEEEE" height="2" style="stroke:#999999;stroke-width:0.5;" width="4" x="1331.1844" y="522.2869"/><rect fill="#EEEEEE" height="2" style="stroke:#999999;stroke-width:0.5;" width="4" x="1331.1844" y="526.2869"/><text fill="#000000" font-family="sans-serif" font-size="14" lengthAdjust="spacing" textLength="117.0244" x="1211.16" y="548.282">eav_manager.py</text></g><!--entity Evaluation--><g class="entity" data-entity="Evaluation" data-source-line="27" data-uid="ent0011" id="entity_Evaluation"><rect fill="#EEEEEE" height="46.2969" rx="2.5" ry="2.5" style="stroke:#999999;stroke-width:0.5;" width="135.2588" x="821.05" y="391.9869"/><rect fill="#EEEEEE" height="10" style="stroke:#999999;stroke-width:0.5;" width="15" x="936.3088" y="396.9869"/><rect fill="#EEEEEE" height="2" style="stroke:#999999;stroke-width:0.5;" width="4" x="934.3088" y="398.9869"/><rect fill="#EEEEEE" height="2" style="stroke:#999999;stroke-width:0.5;" width="4" x="934.3088" y="402.9869"/><text fill="#000000" font-family="sans-serif" font-size="14" lengthAdjust="spacing" textLength="95.2588" x="836.05" y="424.982">evaluation.py</text></g><!--entity FeatureEngineering--><g class="entity" data-entity="FeatureEngineering" data-source-line="28" data-uid="ent0012" id="entity_FeatureEngineering"><rect fill="#EEEEEE" height="46.2969" rx="2.5" ry="2.5" style="stroke:#999999;stroke-width:0.5;" width="203.2422" x="1384.05" y="391.9869"/><rect fill="#EEEEEE" height="10" style="stroke:#999999;stroke-width:0.5;" width="15" x="1567.2922" y="396.9869"/><rect fill="#EEEEEE" height="2" style="stroke:#999999;stroke-width:0.5;" width="4" x="1565.2922" y="398.9869"/><rect fill="#EEEEEE" height="2" style="stroke:#999999;stroke-width:0.5;" width="4" x="1565.2922" y="402.9869"/><text fill="#000000" font-family="sans-serif" font-size="14" lengthAdjust="spacing" textLength="163.2422" x="1399.05" y="424.982">feature_engineering.py</text></g><!--entity ModelBuilding--><g class="entity" data-entity="ModelBuilding" data-source-line="29" data-uid="ent0013" id="entity_ModelBuilding"><rect fill="#EEEEEE" height="46.2969" rx="2.5" ry="2.5" style="stroke:#999999;stroke-width:0.5;" width="168.29" x="991.53" y="391.9869"/><rect fill="#EEEEEE" height="10" style="stroke:#999999;stroke-width:0.5;" width="15" x="1139.82" y="396.9869"/><rect fill="#EEEEEE" height="2" style="stroke:#999999;stroke-width:0.5;" width="4" x="1137.82" y="398.9869"/><rect fill="#EEEEEE" height="2" style="stroke:#999999;stroke-width:0.5;" width="4" x="1137.82" y="402.9869"/><text fill="#000000" font-family="sans-serif" font-size="14" lengthAdjust="spacing" textLength="128.29" x="1006.53" y="424.982">model_building.py</text></g><!--entity Model--><g class="entity" data-entity="Model" data-source-line="30" data-uid="ent0014" id="entity_Model"><rect fill="#EEEEEE" height="46.2969" rx="2.5" ry="2.5" style="stroke:#999999;stroke-width:0.5;" width="105.2148" x="723.07" y="268.6869"/><rect fill="#EEEEEE" height="10" style="stroke:#999999;stroke-width:0.5;" width="15" x="808.2848" y="273.6869"/><rect fill="#EEEEEE" height="2" style="stroke:#999999;stroke-width:0.5;" width="4" x="806.2848" y="275.6869"/><rect fill="#EEEEEE" height="2" style="stroke:#999999;stroke-width:0.5;" width="4" x="806.2848" y="279.6869"/><text fill="#000000" font-family="sans-serif" font-size="14" lengthAdjust="spacing" textLength="65.2148" x="738.07" y="301.682">model.py</text></g><!--entity ReferenceManager--><g class="entity" data-entity="ReferenceManager" data-source-line="31" data-uid="ent0015" id="entity_ReferenceManager"><rect fill="#EEEEEE" height="46.2969" rx="2.5" ry="2.5" style="stroke:#999999;stroke-width:0.5;" width="199.0107" x="1388.17" y="515.2869"/><rect fill="#EEEEEE" height="10" style="stroke:#999999;stroke-width:0.5;" width="15" x="1567.1807" y="520.2869"/><rect fill="#EEEEEE" height="2" style="stroke:#999999;stroke-width:0.5;" width="4" x="1565.1807" y="522.2869"/><rect fill="#EEEEEE" height="2" style="stroke:#999999;stroke-width:0.5;" width="4" x="1565.1807" y="526.2869"/><text fill="#000000" font-family="sans-serif" font-size="14" lengthAdjust="spacing" textLength="159.0107" x="1403.17" y="548.282">reference_manager.py</text></g><g class="entity" data-entity="GMN37" data-source-line="63" data-uid="ent0038" id="entity_GMN37"><path d="M1645.8,125.4069 L1645.8,165.6725 L1907.5539,165.6725 L1907.5539,135.4069 L1897.5539,125.4069 L1645.8,125.4069 " fill="#EEEEEE" style="stroke:#999999;stroke-width:0.5;"/><path d="M1897.5539,125.4069 L1897.5539,135.4069 L1907.5539,135.4069 L1897.5539,125.4069 " fill="#EEEEEE" style="stroke:#999999;stroke-width:1;"/><text fill="#000000" font-family="sans-serif" font-size="13" lengthAdjust="spacing" textLength="240.7539" x="1651.8" y="142.4738">Entry point for classifying equipment</text><text fill="#000000" font-family="sans-serif" font-size="13" lengthAdjust="spacing" textLength="167.8066" x="1651.8" y="157.6066">from any input file format</text></g><g class="entity" data-entity="GMN40" data-source-line="68" data-uid="ent0041" id="entity_GMN40"><path d="M2233.83,125.4069 L2233.83,165.6725 L2477.5185,165.6725 L2477.5185,135.4069 L2467.5185,125.4069 L2233.83,125.4069 " fill="#EEEEEE" style="stroke:#999999;stroke-width:0.5;"/><path d="M2467.5185,125.4069 L2467.5185,135.4069 L2477.5185,135.4069 L2467.5185,125.4069 " fill="#EEEEEE" style="stroke:#999999;stroke-width:1;"/><text fill="#000000" font-family="sans-serif" font-size="13" lengthAdjust="spacing" textLength="222.6885" x="2239.83" y="142.4738">Entry point for making predictions</text><text fill="#000000" font-family="sans-serif" font-size="13" lengthAdjust="spacing" textLength="134.9321" x="2239.83" y="157.6066">with a trained model</text></g><g class="entity" data-entity="GMN43" data-source-line="73" data-uid="ent0044" id="entity_GMN43"><path d="M1942.13,125.4069 L1942.13,165.6725 L2199.2184,165.6725 L2199.2184,135.4069 L2189.2184,125.4069 L1942.13,125.4069 " fill="#EEEEEE" style="stroke:#999999;stroke-width:0.5;"/><path d="M2189.2184,125.4069 L2189.2184,135.4069 L2199.2184,135.4069 L2189.2184,125.4069 " fill="#EEEEEE" style="stroke:#999999;stroke-width:1;"/><text fill="#000000" font-family="sans-serif" font-size="13" lengthAdjust="spacing" textLength="236.0884" x="1948.13" y="142.4738">Entry point for training a new model</text><text fill="#000000" font-family="sans-serif" font-size="13" lengthAdjust="spacing" textLength="187.332" x="1948.13" y="157.6066">with comprehensive pipeline</text></g><g class="entity" data-entity="GMN46" data-source-line="78" data-uid="ent0047" id="entity_GMN46"><path d="M6,395.0069 L6,435.2725 L233.3496,435.2725 L233.3496,405.0069 L223.3496,395.0069 L6,395.0069 " fill="#EEEEEE" style="stroke:#999999;stroke-width:0.5;"/><path d="M223.3496,395.0069 L223.3496,405.0069 L233.3496,405.0069 L223.3496,395.0069 " fill="#EEEEEE" style="stroke:#999999;stroke-width:1;"/><text fill="#000000" font-family="sans-serif" font-size="13" lengthAdjust="spacing" textLength="200.1353" x="12" y="412.0738">Central class that orchestrates</text><text fill="#000000" font-family="sans-serif" font-size="13" lengthAdjust="spacing" textLength="206.3496" x="12" y="427.2066">the entire classification process</text></g><g class="entity" data-entity="GMN49" data-source-line="83" data-uid="ent0050" id="entity_GMN49"><path d="M1130.36,624.5769 L1130.36,664.8425 A0,0 0 0 0 1130.36,664.8425 L1418.9899,664.8425 A0,0 0 0 0 1418.9899,664.8425 L1418.9899,634.5769 L1408.9899,624.5769 L1278.67,624.5769 L1274.67,562.0569 L1270.67,624.5769 L1130.36,624.5769 A0,0 0 0 0 1130.36,624.5769 " fill="#EEEEEE" style="stroke:#999999;stroke-width:0.5;"/><path d="M1408.9899,624.5769 L1408.9899,634.5769 L1418.9899,634.5769 L1408.9899,624.5769 " fill="#EEEEEE" style="stroke:#999999;stroke-width:0.5;"/><text fill="#000000" font-family="sans-serif" font-size="13" lengthAdjust="spacing" textLength="267.6299" x="1136.36" y="641.6438">Manages Entity-Attribute-Value structure</text><text fill="#000000" font-family="sans-serif" font-size="13" lengthAdjust="spacing" textLength="159.9673" x="1136.36" y="656.7766">for equipment attributes</text></g><!--link ClassifyEquipment to DynamicMapper--><g class="link" data-entity-1="ClassifyEquipment" data-entity-2="DynamicMapper" data-source-line="35" data-uid="lnk16" id="link_ClassifyEquipment_DynamicMapper"><path d="M1098.6,169.1369 C1083.35,183.9869 1064.41,204.5169 1051.67,225.6869 C1018.49,280.8469 1054.02,323.1669 1002.67,361.9869 C964.21,391.0769 617.46,385.5069 569.67,391.9869 C564.03,392.7569 564.1603,392.662 558.3303,393.622 " fill="none" id="ClassifyEquipment-to-DynamicMapper" style="stroke:#666666;stroke-width:1;"/><polygon fill="#666666" points="552.41,394.5969,561.9403,397.0814,557.3436,393.7845,560.6405,389.1877,552.41,394.5969" style="stroke:#666666;stroke-width:1;"/><text fill="#000000" font-family="sans-serif" font-size="13" lengthAdjust="spacing" textLength="29.7832" x="1052.67" y="296.4038">uses</text></g><!--link ClassifyEquipment to EAVManager--><g class="link" data-entity-1="ClassifyEquipment" data-entity-2="EAVManager" data-source-line="36" data-uid="lnk17" id="link_ClassifyEquipment_EAVManager"><path d="M1172.1,169.1869 C1192.54,177.8469 1216.86,187.0069 1239.67,192.6869 C1304.54,208.8569 1485.52,185.1569 1538.67,225.6869 C1601.91,273.9069 1589.74,313.8869 1604.67,391.9869 C1608.54,412.1969 1614.85,420.3969 1604.67,438.2869 C1584.48,473.7969 1563.85,470.7369 1525.67,485.2869 C1460.1,510.2569 1439.32,500.7269 1370.67,515.2869 C1365.07,516.4769 1365.1478,516.4285 1359.3278,517.7185 " fill="none" id="ClassifyEquipment-to-EAVManager" style="stroke:#666666;stroke-width:1;"/><polygon fill="#666666" points="1353.47,519.0169,1363.1223,520.9745,1358.3515,517.9349,1361.3912,513.1641,1353.47,519.0169" style="stroke:#666666;stroke-width:1;"/><text fill="#000000" font-family="sans-serif" font-size="13" lengthAdjust="spacing" textLength="29.7832" x="1600.67" y="358.0538">uses</text></g><!--link ClassifyEquipment to Model--><g class="link" data-entity-1="ClassifyEquipment" data-entity-2="Model" data-source-line="37" data-uid="lnk18" id="link_ClassifyEquipment_Model"><path d="M1025.14,152.8069 C973.82,159.4569 911.53,173.0369 861.67,200.6869 C831.98,217.1569 809.918,242.5057 794.548,263.3757 " fill="none" id="ClassifyEquipment-to-Model" style="stroke:#666666;stroke-width:1;"/><polygon fill="#666666" points="790.99,268.2069,799.5478,263.3321,793.955,264.1809,793.1062,258.5881,790.99,268.2069" style="stroke:#666666;stroke-width:1;"/><text fill="#000000" font-family="sans-serif" font-size="13" lengthAdjust="spacing" textLength="29.7832" x="862.67" y="213.7538">uses</text></g><!--link Predict to Model--><g class="link" data-entity-1="Predict" data-entity-2="Model" data-source-line="39" data-uid="lnk19" id="link_Predict_Model"><path d="M1284.57,169.1269 C1271.67,178.1769 1255.69,187.6469 1239.67,192.6869 C1203.39,204.1269 1106.21,194.5069 1068.67,200.6869 C1028.98,207.2269 1020.19,214.0669 981.67,225.6869 C929.42,241.4569 875.7315,258.5086 834.1915,271.8786 " fill="none" id="Predict-to-Model" style="stroke:#666666;stroke-width:1;"/><polygon fill="#666666" points="828.48,273.7169,838.2727,274.7671,833.2395,272.185,835.8217,267.1518,828.48,273.7169" style="stroke:#666666;stroke-width:1;"/><text fill="#000000" font-family="sans-serif" font-size="13" lengthAdjust="spacing" textLength="29.7832" x="1069.67" y="213.7538">uses</text></g><!--link Predict to DataMapper--><g class="link" data-entity-1="Predict" data-entity-2="DataMapper" data-source-line="40" data-uid="lnk20" id="link_Predict_DataMapper"><path d="M1289.57,169.1469 C1276.26,183.8469 1260.8,204.2169 1253.67,225.6869 C1234.58,283.2469 1250.5458,349.9977 1261.9658,385.9977 " fill="none" id="Predict-to-DataMapper" style="stroke:#666666;stroke-width:1;"/><polygon fill="#666666" points="1263.78,391.7169,1264.8714,381.9287,1262.2681,386.9509,1257.2459,384.3477,1263.78,391.7169" style="stroke:#666666;stroke-width:1;"/><text fill="#000000" font-family="sans-serif" font-size="13" lengthAdjust="spacing" textLength="29.7832" x="1254.67" y="296.4038">uses</text></g><!--link Predict to FeatureEngineering--><g class="link" data-entity-1="Predict" data-entity-2="FeatureEngineering" data-source-line="41" data-uid="lnk21" id="link_Predict_FeatureEngineering"><path d="M1328.25,168.9169 C1339.15,184.6869 1353.98,206.3669 1366.67,225.6869 C1405.64,285.0469 1446.7373,351.0219 1468.6673,386.5319 " fill="none" id="Predict-to-FeatureEngineering" style="stroke:#666666;stroke-width:1;"/><polygon fill="#666666" points="1471.82,391.6369,1470.4943,381.8776,1469.1928,387.3827,1463.6877,386.0812,1471.82,391.6369" style="stroke:#666666;stroke-width:1;"/><text fill="#000000" font-family="sans-serif" font-size="13" lengthAdjust="spacing" textLength="29.7832" x="1423.67" y="296.4038">uses</text></g><!--link TrainModel to DataMapper--><g class="link" data-entity-1="TrainModel" data-entity-2="DataMapper" data-source-line="43" data-uid="lnk22" id="link_TrainModel_DataMapper"><path d="M1569.78,169.1069 C1601.66,181.0669 1634.67,194.5169 1639.67,200.6869 C1685.4,257.0969 1714.39,308.1369 1665.67,361.9869 C1620.87,411.5069 1432.55,381.0469 1366.67,391.9869 C1360.99,392.9269 1361.0343,392.844 1355.1643,394.014 " fill="none" id="TrainModel-to-DataMapper" style="stroke:#666666;stroke-width:1;"/><polygon fill="#666666" points="1349.28,395.1869,1358.8883,397.3504,1354.1835,394.2095,1357.3245,389.5048,1349.28,395.1869" style="stroke:#666666;stroke-width:1;"/><text fill="#000000" font-family="sans-serif" font-size="13" lengthAdjust="spacing" textLength="29.7832" x="1691.67" y="296.4038">uses</text></g><!--link TrainModel to DataPreprocessing--><g class="link" data-entity-1="TrainModel" data-entity-2="DataPreprocessing" data-source-line="44" data-uid="lnk23" id="link_TrainModel_DataPreprocessing"><path d="M1454.77,169.1469 C1433.66,177.5969 1408.83,186.6069 1385.67,192.6869 C1362.64,198.7469 1356.15,196.6069 1332.67,200.6869 C1276,210.5369 1257.81,201.3669 1205.67,225.6869 C1118.23,266.4869 1125.42,324.1069 1036.67,361.9869 C940.64,402.9669 906.79,375.6069 803.67,391.9869 C798.06,392.8769 798.2147,392.829 792.4047,393.819 " fill="none" id="TrainModel-to-DataPreprocessing" style="stroke:#666666;stroke-width:1;"/><polygon fill="#666666" points="786.49,394.8269,796.034,397.2583,791.419,393.987,794.6902,389.3719,786.49,394.8269" style="stroke:#666666;stroke-width:1;"/><text fill="#000000" font-family="sans-serif" font-size="13" lengthAdjust="spacing" textLength="29.7832" x="1206.67" y="296.4038">uses</text></g><!--link TrainModel to Evaluation--><g class="link" data-entity-1="TrainModel" data-entity-2="Evaluation" data-source-line="45" data-uid="lnk24" id="link_TrainModel_Evaluation"><path d="M1450.35,169.0369 C1401.45,188.9669 1337.02,216.2969 1327.67,225.6869 C1297.12,256.3869 1320.52,285.6369 1288.67,314.9869 C1241.34,358.6169 1214.07,346.1369 1151.67,361.9869 C1073.92,381.7369 1052.12,375.1869 973.67,391.9869 C968.16,393.1669 968.2944,393.067 962.5844,394.437 " fill="none" id="TrainModel-to-Evaluation" style="stroke:#666666;stroke-width:1;"/><polygon fill="#666666" points="956.75,395.8369,966.4349,397.6267,961.612,394.6703,964.5684,389.8475,956.75,395.8369" style="stroke:#666666;stroke-width:1;"/><text fill="#000000" font-family="sans-serif" font-size="13" lengthAdjust="spacing" textLength="29.7832" x="1328.67" y="296.4038">uses</text></g><!--link TrainModel to FeatureEngineering--><g class="link" data-entity-1="TrainModel" data-entity-2="FeatureEngineering" data-source-line="46" data-uid="lnk25" id="link_TrainModel_FeatureEngineering"><path d="M1556.74,169.1169 C1578.43,177.9369 1604.37,187.2269 1628.67,192.6869 C1650.21,197.5269 1709.28,188.4869 1727.67,200.6869 C1763.74,224.6269 1742,305.2069 1740.67,314.9869 C1737.76,336.4669 1743.44,347.1069 1727.67,361.9869 C1707.2,381.3069 1650.2467,393.6473 1593.7167,401.9273 " fill="none" id="TrainModel-to-FeatureEngineering" style="stroke:#666666;stroke-width:1;"/><polygon fill="#666666" points="1587.78,402.7969,1597.2647,405.4503,1592.7272,402.0723,1596.1053,397.5348,1587.78,402.7969" style="stroke:#666666;stroke-width:1;"/><text fill="#000000" font-family="sans-serif" font-size="13" lengthAdjust="spacing" textLength="29.7832" x="1748.67" y="296.4038">uses</text></g><!--link TrainModel to ModelBuilding--><g class="link" data-entity-1="TrainModel" data-entity-2="ModelBuilding" data-source-line="47" data-uid="lnk26" id="link_TrainModel_ModelBuilding"><path d="M1506.62,169.0069 C1505.36,204.2269 1498.01,272.7769 1461.67,314.9869 C1376.08,414.4269 1305.47,366.9669 1176.67,391.9869 C1171.3,393.0269 1171.6461,392.9237 1166.0761,394.0737 " fill="none" id="TrainModel-to-ModelBuilding" style="stroke:#666666;stroke-width:1;"/><polygon fill="#666666" points="1160.2,395.2869,1169.8229,397.3845,1165.0967,394.2759,1168.2053,389.5497,1160.2,395.2869" style="stroke:#666666;stroke-width:1;"/><text fill="#000000" font-family="sans-serif" font-size="13" lengthAdjust="spacing" textLength="29.7832" x="1500.67" y="296.4038">uses</text></g><!--link TrainModel to ReferenceManager--><g class="link" data-entity-1="TrainModel" data-entity-2="ReferenceManager" data-source-line="48" data-uid="lnk27" id="link_TrainModel_ReferenceManager"><path d="M1556.1,169.1169 C1577.9,178.0469 1604.1,187.4169 1628.67,192.6869 C1657.19,198.8069 1732.86,189.2269 1759.67,200.6869 C1807.67,221.2069 1800.53,264.6669 1786.67,314.9869 C1773.17,364.0369 1694.87,465.7169 1666.67,485.2869 C1643.27,501.5269 1620.5811,511.1153 1593.3011,518.8753 " fill="none" id="TrainModel-to-ReferenceManager" style="stroke:#666666;stroke-width:1;"/><polygon fill="#666666" points="1587.53,520.5169,1597.281,521.9018,1592.3392,519.1489,1595.0922,514.2071,1587.53,520.5169" style="stroke:#666666;stroke-width:1;"/><text fill="#000000" font-family="sans-serif" font-size="13" lengthAdjust="spacing" textLength="29.7832" x="1774.67" y="358.0538">uses</text></g><!--link Model to DataMapper--><g class="link" data-entity-1="Model" data-entity-2="DataMapper" data-source-line="50" data-uid="lnk28" id="link_Model_DataMapper"><path d="M811.27,315.3569 C840.32,333.3169 879.29,356.3669 896.67,361.9869 C1016.18,400.6369 1053.86,370.8769 1177.67,391.9869 C1183.05,392.9069 1182.6886,392.76 1188.2386,393.88 " fill="none" id="Model-to-DataMapper" style="stroke:#666666;stroke-width:1;"/><polygon fill="#666666" points="1194.12,395.0669,1186.0891,389.3656,1189.2188,394.0778,1184.5066,397.2075,1194.12,395.0669" style="stroke:#666666;stroke-width:1;"/><text fill="#000000" font-family="sans-serif" font-size="13" lengthAdjust="spacing" textLength="29.7832" x="897.67" y="358.0538">uses</text></g><!--link Model to DataPreprocessing--><g class="link" data-entity-1="Model" data-entity-2="DataPreprocessing" data-source-line="51" data-uid="lnk29" id="link_Model_DataPreprocessing"><path d="M722.7,310.8869 C707.39,318.8469 692.46,329.9169 683.67,344.9869 C675.51,359.0069 675.5479,371.5968 678.5779,385.9168 " fill="none" id="Model-to-DataPreprocessing" style="stroke:#666666;stroke-width:1;"/><polygon fill="#666666" points="679.82,391.7869,681.8703,382.1538,678.785,386.8952,674.0436,383.8099,679.82,391.7869" style="stroke:#666666;stroke-width:1;"/><text fill="#000000" font-family="sans-serif" font-size="13" lengthAdjust="spacing" textLength="29.7832" x="684.67" y="358.0538">uses</text></g><!--link Model to DynamicMapper--><g class="link" data-entity-1="Model" data-entity-2="DynamicMapper" data-source-line="52" data-uid="lnk30" id="link_Model_DynamicMapper"><path d="M722.62,312.9369 C697.21,322.5869 666.35,334.3469 638.67,344.9869 C598.45,360.4569 558.7707,375.8687 523.9407,389.4387 " fill="none" id="Model-to-DynamicMapper" style="stroke:#666666;stroke-width:1;"/><polygon fill="#666666" points="518.35,391.6169,528.1881,392.0767,523.0089,389.8017,525.2839,384.6225,518.35,391.6169" style="stroke:#666666;stroke-width:1;"/><text fill="#000000" font-family="sans-serif" font-size="13" lengthAdjust="spacing" textLength="29.7832" x="639.67" y="358.0538">uses</text></g><!--link Model to EAVManager--><g class="link" data-entity-1="Model" data-entity-2="EAVManager" data-source-line="53" data-uid="lnk31" id="link_Model_EAVManager"><path d="M722.79,292.7369 C579.98,294.1269 204.83,309.7769 320.67,438.2869 C378.93,502.9069 971.9232,527.9024 1189.9032,534.9724 " fill="none" id="Model-to-EAVManager" style="stroke:#666666;stroke-width:1;"/><polygon fill="#666666" points="1195.9,535.1669,1187.0344,530.8772,1190.9026,535.0048,1186.7751,538.873,1195.9,535.1669" style="stroke:#666666;stroke-width:1;"/><text fill="#000000" font-family="sans-serif" font-size="13" lengthAdjust="spacing" textLength="29.7832" x="321.67" y="419.7038">uses</text></g><!--link Model to Evaluation--><g class="link" data-entity-1="Model" data-entity-2="Evaluation" data-source-line="54" data-uid="lnk32" id="link_Model_Evaluation"><path d="M759.63,315.2069 C751.48,329.5369 745.11,348.0069 754.67,361.9869 C762.95,374.0969 786.1556,384.2169 815.0156,393.6269 " fill="none" id="Model-to-Evaluation" style="stroke:#666666;stroke-width:1;"/><polygon fill="#666666" points="820.72,395.4869,813.4033,388.894,815.9663,393.9369,810.9234,396.4999,820.72,395.4869" style="stroke:#666666;stroke-width:1;"/><text fill="#000000" font-family="sans-serif" font-size="13" lengthAdjust="spacing" textLength="29.7832" x="755.67" y="358.0538">uses</text></g><!--link Model to FeatureEngineering--><g class="link" data-entity-1="Model" data-entity-2="FeatureEngineering" data-source-line="55" data-uid="lnk33" id="link_Model_FeatureEngineering"><path d="M828.71,301.4069 C932.23,318.2169 1168.44,356.9169 1366.67,391.9869 C1372.26,392.9769 1372.0845,392.9461 1377.8745,393.9861 " fill="none" id="Model-to-FeatureEngineering" style="stroke:#666666;stroke-width:1;"/><polygon fill="#666666" points="1383.78,395.0469,1375.6289,389.5188,1378.8588,394.1629,1374.2146,397.3928,1383.78,395.0469" style="stroke:#666666;stroke-width:1;"/><text fill="#000000" font-family="sans-serif" font-size="13" lengthAdjust="spacing" textLength="29.7832" x="1188.67" y="358.0538">uses</text></g><!--link Model to ModelBuilding--><g class="link" data-entity-1="Model" data-entity-2="ModelBuilding" data-source-line="56" data-uid="lnk34" id="link_Model_ModelBuilding"><path d="M786.25,315.3169 C794.73,330.8469 808.12,350.6769 825.67,361.9869 C882.09,398.3369 907.99,378.1969 973.67,391.9869 C979.35,393.1769 979.3327,393.1617 985.2227,394.4217 " fill="none" id="Model-to-ModelBuilding" style="stroke:#666666;stroke-width:1;"/><polygon fill="#666666" points="991.09,395.6769,983.1259,389.8827,986.2006,394.6309,981.4524,397.7057,991.09,395.6769" style="stroke:#666666;stroke-width:1;"/><text fill="#000000" font-family="sans-serif" font-size="13" lengthAdjust="spacing" textLength="29.7832" x="826.67" y="358.0538">uses</text></g><!--link FeatureEngineering to EAVManager--><g class="link" data-entity-1="FeatureEngineering" data-entity-2="EAVManager" data-source-line="58" data-uid="lnk35" id="link_FeatureEngineering_EAVManager"><path d="M1446.48,438.6669 C1408.7,460.3869 1357.0412,490.0757 1319.2212,511.8257 " fill="none" id="FeatureEngineering-to-EAVManager" style="stroke:#666666;stroke-width:1;"/><polygon fill="#666666" points="1314.02,514.8169,1323.816,513.7976,1318.3544,512.3242,1319.8277,506.8626,1314.02,514.8169" style="stroke:#666666;stroke-width:1;"/><text fill="#000000" font-family="sans-serif" font-size="13" lengthAdjust="spacing" textLength="29.7832" x="1393.67" y="481.3538">uses</text></g><!--link FeatureEngineering to ReferenceManager--><g class="link" data-entity-1="FeatureEngineering" data-entity-2="ReferenceManager" data-source-line="59" data-uid="lnk36" id="link_FeatureEngineering_ReferenceManager"><path d="M1486.05,438.6669 C1486.41,460.4569 1486.8507,487.2777 1487.2107,509.0277 " fill="none" id="FeatureEngineering-to-ReferenceManager" style="stroke:#666666;stroke-width:1;"/><polygon fill="#666666" points="1487.31,515.0269,1491.1605,505.9619,1487.2273,510.0276,1483.1616,506.0943,1487.31,515.0269" style="stroke:#666666;stroke-width:1;"/><text fill="#000000" font-family="sans-serif" font-size="13" lengthAdjust="spacing" textLength="29.7832" x="1487.67" y="481.3538">uses</text></g><!--link ClassifyEquipment to GMN37--><g class="link" data-entity-1="ClassifyEquipment" data-entity-2="GMN37" data-source-line="63" data-uid="lnk39" id="link_ClassifyEquipment_GMN37"><path d="M1151.96,121.9469 C1177.59,102.2069 1217.35,75.5469 1257.17,64.3969 C1332.5,43.2969 1532.93,46.8969 1609.17,64.3969 C1659.72,75.9969 1712.73,104.9469 1745.24,124.9269 " fill="none" id="ClassifyEquipment-GMN37" style="stroke:#666666;stroke-width:1;stroke-dasharray:7.0,7.0;"/></g><!--link Predict to GMN40--><g class="link" data-entity-1="Predict" data-entity-2="GMN40" data-source-line="68" data-uid="lnk42" id="link_Predict_GMN40"><path d="M1330.13,122.1469 C1346.48,102.3969 1372.89,75.5969 1403.17,64.3969 C1444.65,49.0469 2156.21,53.9169 2199.17,64.3969 C2246.9,76.0269 2296.3,104.9769 2326.51,124.9469 " fill="none" id="Predict-GMN40" style="stroke:#666666;stroke-width:1;stroke-dasharray:7.0,7.0;"/></g><!--link TrainModel to GMN43--><g class="link" data-entity-1="TrainModel" data-entity-2="GMN43" data-source-line="73" data-uid="lnk45" id="link_TrainModel_GMN43"><path d="M1536.41,121.9269 C1563.31,102.1869 1604.92,75.5169 1646.17,64.3969 C1702.17,49.2869 1850.71,51.1469 1907.17,64.3969 C1956.69,76.0069 2008.39,104.9569 2040.06,124.9369 " fill="none" id="TrainModel-GMN43" style="stroke:#666666;stroke-width:1;stroke-dasharray:7.0,7.0;"/></g><!--link Model to GMN46--><g class="link" data-entity-1="Model" data-entity-2="GMN46" data-source-line="78" data-uid="lnk48" id="link_Model_GMN46"><path d="M722.92,293.9569 C633.53,296.8569 447.17,307.3269 294.67,344.9869 C246.94,356.7769 194.85,378.6069 160.02,394.5869 " fill="none" id="Model-GMN46" style="stroke:#666666;stroke-width:1;stroke-dasharray:7.0,7.0;"/></g><!--SRC=[ZLLDRzim3BthLn3jeQViiCE0xJ2WJJDWm58KNT7BC0IAJIT2RKcJv6R6qFy-IlA7ujXfVGWIlIVoyP6Xh-2dQqg470iXXHDAMcQVXTJSy0eoLMabKRf8ggloOu9kUVQyCwgM-LALoi1XBnmc-BKnwX2Xoq_XIS1b5_f6cHnDI_iSdadQADdbAZm9zKuvF1yiCDwCioovjM-e2fIPIEmA7eKhaJd_2NVujxRh7x1MEPPmBpIMGYAPatcxCbSRz5VwGYtJ59Zl42vkkUFmNUxG-iPSm3y6y2lpkKNHRF1FBNH5DpxevZTm6rKHike0JzS6Sv7rdFluqoFES24tbPUrqQsiZlReiQ2OlR91q58PR6Naf6rJSQtHT9Uyt7KuwGcKNHkL8UcIkvHtdmA1taXUYMmSCfuEKP6_44MIcfwpkdvQnvD0UE5bpRrVFTwVUBn0xYtVeDnHlMWINTyYj1eGVo4QjAr5cIVSuCrDUzZJZb1_Qh10WpB3iUY73kYal_eXUC0o2BLxeIqxwISi5b-FBO4lK5kSemxEdEV5qMmfh1sHKoG5XbvFeQTEzj67oPg9Cq4u6fOPtj3b6SAyfX7ngBKpd77x-lBELVQEeXBAL9kJSazQUywAzxZmXW5iukQqa1dYh6LNOIzR9kaJZDZj7QXYSfcjf3CDQ2LeRWlQkDqgz2amuHL6LS1b0xIlQw8AMiF4hxXZA7FmYTWetR0Nnqag_kpZjtiql2013iBjWKDOePX3-FFFnawMwMdu4C8du23nq4Pg4_ZNhy4zIYjU4BeTFSwpLSvHlPIeox4a6mmlep_WzfnaqEk6NYE6UwU1pX2890ns9eeiJamxa_D9ZjPj_6PzLS8rYsldZDZM3XTFD888bB2ERpW8nVPD0junXqp_0G00]--></g></svg>