<svg xmlns="http://www.w3.org/2000/svg" xmlns:xlink="http://www.w3.org/1999/xlink" contentStyleType="text/css" data-diagram-type="ACTIVITY" height="1206px" preserveAspectRatio="none" style="width:567px;height:1206px;background:#FFFFFF;" version="1.1" viewBox="0 0 567 1206" width="567px" zoomAndPan="magnify"><title>NexusML Pipeline Flow</title><defs/><g><text fill="#000000" font-family="sans-serif" font-size="14" font-weight="bold" lengthAdjust="spacing" textLength="181.6924" x="191.2969" y="32.9951">NexusML Pipeline Flow</text><ellipse cx="159.7969" cy="57.2969" fill="#222222" rx="10" ry="10" style="stroke:#222222;stroke-width:1;"/><rect fill="none" height="714.3555" style="stroke:#000000;stroke-width:1.5;" width="545.2861" x="11" y="77.2969"/><path d="M137.8467,77.2969 L137.8467,86.5938 L127.8467,96.5938 L11,96.5938 " fill="none" style="stroke:#000000;stroke-width:1.5;"/><text fill="#000000" font-family="sans-serif" font-size="14" lengthAdjust="spacing" textLength="116.8467" x="14" y="91.292">Training Pipeline</text><path d="M260.707,118.0117 L260.707,126.5781 L240.707,130.5781 L260.707,134.5781 L260.707,143.1445 A0,0 0 0 0 260.707,143.1445 L540.4565,143.1445 A0,0 0 0 0 540.4565,143.1445 L540.4565,128.0117 L530.4565,118.0117 L260.707,118.0117 A0,0 0 0 0 260.707,118.0117 " fill="#FFFFCC" style="stroke:#999999;stroke-width:0.5;"/><path d="M530.4565,118.0117 L530.4565,128.0117 L540.4565,128.0117 L530.4565,118.0117 " fill="#FFFFCC" style="stroke:#999999;stroke-width:0.5;"/><text fill="#000000" font-family="sans-serif" font-size="13" lengthAdjust="spacing" textLength="258.7495" x="266.707" y="135.0786">Load data from CSV, Excel, or database</text><rect fill="#EEEEEE" height="33.9688" rx="12.5" ry="12.5" style="stroke:#999999;stroke-width:0.5;" width="161.8203" x="78.8867" y="113.5938"/><text fill="#000000" font-family="sans-serif" font-size="12" lengthAdjust="spacing" textLength="141.8203" x="88.8867" y="134.7324">DataLoader.load_data()</text><path d="M282.9697,171.9805 L282.9697,180.5469 L262.9697,184.5469 L282.9697,188.5469 L282.9697,197.1133 A0,0 0 0 0 282.9697,197.1133 L458.1543,197.1133 A0,0 0 0 0 458.1543,197.1133 L458.1543,181.9805 L448.1543,171.9805 L282.9697,171.9805 A0,0 0 0 0 282.9697,171.9805 " fill="#FFFFCC" style="stroke:#999999;stroke-width:0.5;"/><path d="M448.1543,171.9805 L448.1543,181.9805 L458.1543,181.9805 L448.1543,171.9805 " fill="#FFFFCC" style="stroke:#999999;stroke-width:0.5;"/><text fill="#000000" font-family="sans-serif" font-size="13" lengthAdjust="spacing" textLength="154.1846" x="288.9697" y="189.0474">Clean and prepare data</text><rect fill="#EEEEEE" height="33.9688" rx="12.5" ry="12.5" style="stroke:#999999;stroke-width:0.5;" width="206.3457" x="56.624" y="167.5625"/><text fill="#000000" font-family="sans-serif" font-size="12" lengthAdjust="spacing" textLength="186.3457" x="66.624" y="188.7012">DataPreprocessor.preprocess()</text><rect fill="#EEEEEE" height="33.9688" rx="12.5" ry="12.5" style="stroke:#999999;stroke-width:0.5;" width="191.4922" x="64.0508" y="221.5313"/><text fill="#000000" font-family="sans-serif" font-size="12" lengthAdjust="spacing" textLength="171.4922" x="74.0508" y="242.6699">Split data into train/test sets</text><path d="M252.3721,279.918 L252.3721,288.4844 L232.3721,292.4844 L252.3721,296.4844 L252.3721,305.0508 A0,0 0 0 0 252.3721,305.0508 L469.248,305.0508 A0,0 0 0 0 469.248,305.0508 L469.248,289.918 L459.248,279.918 L252.3721,279.918 A0,0 0 0 0 252.3721,279.918 " fill="#FFFFCC" style="stroke:#999999;stroke-width:0.5;"/><path d="M459.248,279.918 L459.248,289.918 L469.248,289.918 L459.248,279.918 " fill="#FFFFCC" style="stroke:#999999;stroke-width:0.5;"/><text fill="#000000" font-family="sans-serif" font-size="13" lengthAdjust="spacing" textLength="195.876" x="258.3721" y="296.9849">Learn feature transformations</text><rect fill="#EEEEEE" height="33.9688" rx="12.5" ry="12.5" style="stroke:#999999;stroke-width:0.5;" width="145.1504" x="87.2217" y="275.5"/><text fill="#000000" font-family="sans-serif" font-size="12" lengthAdjust="spacing" textLength="125.1504" x="97.2217" y="296.6387">FeatureEngineer.fit()</text><path d="M275.7598,333.8867 L275.7598,342.4531 L255.7598,346.4531 L275.7598,350.4531 L275.7598,359.0195 A0,0 0 0 0 275.7598,359.0195 L546.2861,359.0195 A0,0 0 0 0 546.2861,359.0195 L546.2861,343.8867 L536.2861,333.8867 L275.7598,333.8867 A0,0 0 0 0 275.7598,333.8867 " fill="#FFFFCC" style="stroke:#999999;stroke-width:0.5;"/><path d="M536.2861,333.8867 L536.2861,343.8867 L546.2861,343.8867 L536.2861,333.8867 " fill="#FFFFCC" style="stroke:#999999;stroke-width:0.5;"/><text fill="#000000" font-family="sans-serif" font-size="13" lengthAdjust="spacing" textLength="249.5264" x="281.7598" y="350.9536">Apply transformations to training data</text><rect fill="#EEEEEE" height="33.9688" rx="12.5" ry="12.5" style="stroke:#999999;stroke-width:0.5;" width="191.9258" x="63.834" y="329.4688"/><text fill="#000000" font-family="sans-serif" font-size="12" lengthAdjust="spacing" textLength="171.9258" x="73.834" y="350.6074">FeatureEngineer.transform()</text><path d="M272.0566,387.8555 L272.0566,396.4219 L252.0566,400.4219 L272.0566,404.4219 L272.0566,412.9883 A0,0 0 0 0 272.0566,412.9883 L440.354,412.9883 A0,0 0 0 0 440.354,412.9883 L440.354,397.8555 L430.354,387.8555 L272.0566,387.8555 A0,0 0 0 0 272.0566,387.8555 " fill="#FFFFCC" style="stroke:#999999;stroke-width:0.5;"/><path d="M430.354,387.8555 L430.354,397.8555 L440.354,397.8555 L430.354,387.8555 " fill="#FFFFCC" style="stroke:#999999;stroke-width:0.5;"/><text fill="#000000" font-family="sans-serif" font-size="13" lengthAdjust="spacing" textLength="147.2974" x="278.0566" y="404.9224">Create model instance</text><rect fill="#EEEEEE" height="33.9688" rx="12.5" ry="12.5" style="stroke:#999999;stroke-width:0.5;" width="184.5195" x="67.5371" y="383.4375"/><text fill="#000000" font-family="sans-serif" font-size="12" lengthAdjust="spacing" textLength="164.5195" x="77.5371" y="404.5762">ModelBuilder.build_model()</text><path d="M316.5938,490.2266 L316.5938,498.793 L296.5938,502.793 L316.5938,506.793 L316.5938,515.3594 A0,0 0 0 0 316.5938,515.3594 L494.1587,515.3594 A0,0 0 0 0 494.1587,515.3594 L494.1587,500.2266 L484.1587,490.2266 L316.5938,490.2266 A0,0 0 0 0 316.5938,490.2266 " fill="#FFFFCC" style="stroke:#999999;stroke-width:0.5;"/><path d="M484.1587,490.2266 L484.1587,500.2266 L494.1587,500.2266 L484.1587,490.2266 " fill="#FFFFCC" style="stroke:#999999;stroke-width:0.5;"/><text fill="#000000" font-family="sans-serif" font-size="13" lengthAdjust="spacing" textLength="156.5649" x="322.5938" y="507.2935">Tune model parameters</text><rect fill="#EEEEEE" height="33.9688" rx="12.5" ry="12.5" style="stroke:#999999;stroke-width:0.5;" width="273.5938" x="23" y="485.8086"/><text fill="#000000" font-family="sans-serif" font-size="12" lengthAdjust="spacing" textLength="253.5938" x="33" y="506.9473">ModelBuilder.optimize_hyperparameters()</text><polygon fill="#EEEEEE" points="82.6895,437.4063,236.9043,437.4063,248.9043,449.4063,236.9043,461.4063,82.6895,461.4063,70.6895,449.4063,82.6895,437.4063" style="stroke:#999999;stroke-width:0.5;"/><text fill="#000000" font-family="sans-serif" font-size="11" lengthAdjust="spacing" textLength="19.0083" x="163.7969" y="471.6167">yes</text><text fill="#000000" font-family="sans-serif" font-size="11" lengthAdjust="spacing" textLength="154.2148" x="82.6895" y="453.2144">Optimize hyperparameters?</text><text fill="#000000" font-family="sans-serif" font-size="11" lengthAdjust="spacing" textLength="13.7017" x="248.9043" y="446.812">no</text><polygon fill="#EEEEEE" points="159.7969,539.7773,171.7969,551.7773,159.7969,563.7773,147.7969,551.7773,159.7969,539.7773" style="stroke:#999999;stroke-width:0.5;"/><path d="M249.8027,588.1953 L249.8027,596.7617 L229.8027,600.7617 L249.8027,604.7617 L249.8027,613.3281 A0,0 0 0 0 249.8027,613.3281 L438.3555,613.3281 A0,0 0 0 0 438.3555,613.3281 L438.3555,598.1953 L428.3555,588.1953 L249.8027,588.1953 A0,0 0 0 0 249.8027,588.1953 " fill="#FFFFCC" style="stroke:#999999;stroke-width:0.5;"/><path d="M428.3555,588.1953 L428.3555,598.1953 L438.3555,598.1953 L428.3555,588.1953 " fill="#FFFFCC" style="stroke:#999999;stroke-width:0.5;"/><text fill="#000000" font-family="sans-serif" font-size="13" lengthAdjust="spacing" textLength="167.5527" x="255.8027" y="605.2622">Train model with features</text><rect fill="#EEEEEE" height="33.9688" rx="12.5" ry="12.5" style="stroke:#999999;stroke-width:0.5;" width="140.0117" x="89.791" y="583.7773"/><text fill="#000000" font-family="sans-serif" font-size="12" lengthAdjust="spacing" textLength="120.0117" x="99.791" y="604.916">ModelTrainer.train()</text><path d="M275.7598,642.1641 L275.7598,650.7305 L255.7598,654.7305 L275.7598,658.7305 L275.7598,667.2969 A0,0 0 0 0 275.7598,667.2969 L520.8892,667.2969 A0,0 0 0 0 520.8892,667.2969 L520.8892,652.1641 L510.8892,642.1641 L275.7598,642.1641 A0,0 0 0 0 275.7598,642.1641 " fill="#FFFFCC" style="stroke:#999999;stroke-width:0.5;"/><path d="M510.8892,642.1641 L510.8892,652.1641 L520.8892,652.1641 L510.8892,642.1641 " fill="#FFFFCC" style="stroke:#999999;stroke-width:0.5;"/><text fill="#000000" font-family="sans-serif" font-size="13" lengthAdjust="spacing" textLength="224.1294" x="281.7598" y="659.231">Apply transformations to test data</text><rect fill="#EEEEEE" height="33.9688" rx="12.5" ry="12.5" style="stroke:#999999;stroke-width:0.5;" width="191.9258" x="63.834" y="637.7461"/><text fill="#000000" font-family="sans-serif" font-size="12" lengthAdjust="spacing" textLength="171.9258" x="73.834" y="658.8848">FeatureEngineer.transform()</text><path d="M269.165,696.1328 L269.165,704.6992 L249.165,708.6992 L269.165,712.6992 L269.165,721.2656 A0,0 0 0 0 269.165,721.2656 L491.2651,721.2656 A0,0 0 0 0 491.2651,721.2656 L491.2651,706.1328 L481.2651,696.1328 L269.165,696.1328 A0,0 0 0 0 269.165,696.1328 " fill="#FFFFCC" style="stroke:#999999;stroke-width:0.5;"/><path d="M481.2651,696.1328 L481.2651,706.1328 L491.2651,706.1328 L481.2651,696.1328 " fill="#FFFFCC" style="stroke:#999999;stroke-width:0.5;"/><text fill="#000000" font-family="sans-serif" font-size="13" lengthAdjust="spacing" textLength="201.1001" x="275.165" y="713.1997">Calculate performance metrics</text><rect fill="#EEEEEE" height="33.9688" rx="12.5" ry="12.5" style="stroke:#999999;stroke-width:0.5;" width="178.7363" x="70.4287" y="691.7148"/><text fill="#000000" font-family="sans-serif" font-size="12" lengthAdjust="spacing" textLength="158.7363" x="80.4287" y="712.8535">ModelEvaluator.evaluate()</text><path d="M278.0801,750.1016 L278.0801,758.668 L258.0801,762.668 L278.0801,766.668 L278.0801,775.2344 A0,0 0 0 0 278.0801,775.2344 L423.0815,775.2344 A0,0 0 0 0 423.0815,775.2344 L423.0815,760.1016 L413.0815,750.1016 L278.0801,750.1016 A0,0 0 0 0 278.0801,750.1016 " fill="#FFFFCC" style="stroke:#999999;stroke-width:0.5;"/><path d="M413.0815,750.1016 L413.0815,760.1016 L423.0815,760.1016 L413.0815,750.1016 " fill="#FFFFCC" style="stroke:#999999;stroke-width:0.5;"/><text fill="#000000" font-family="sans-serif" font-size="13" lengthAdjust="spacing" textLength="124.0015" x="284.0801" y="767.1685">Save model to disk</text><rect fill="#EEEEEE" height="33.9688" rx="12.5" ry="12.5" style="stroke:#999999;stroke-width:0.5;" width="196.5664" x="61.5137" y="745.6836"/><text fill="#000000" font-family="sans-serif" font-size="12" lengthAdjust="spacing" textLength="176.5664" x="71.5137" y="766.8223">ModelSerializer.save_model()</text><rect fill="none" height="352.1094" style="stroke:#000000;stroke-width:1.5;" width="486.1694" x="46.624" y="801.6523"/><path d="M186.2744,801.6523 L186.2744,810.9492 L176.2744,820.9492 L46.624,820.9492 " fill="none" style="stroke:#000000;stroke-width:1.5;"/><text fill="#000000" font-family="sans-serif" font-size="14" lengthAdjust="spacing" textLength="129.6504" x="49.624" y="815.6475">Prediction Pipeline</text><path d="M276.8584,842.3672 L276.8584,850.9336 L256.8584,854.9336 L276.8584,858.9336 L276.8584,867.5 A0,0 0 0 0 276.8584,867.5 L438.8525,867.5 A0,0 0 0 0 438.8525,867.5 L438.8525,852.3672 L428.8525,842.3672 L276.8584,842.3672 A0,0 0 0 0 276.8584,842.3672 " fill="#FFFFCC" style="stroke:#999999;stroke-width:0.5;"/><path d="M428.8525,842.3672 L428.8525,852.3672 L438.8525,852.3672 L428.8525,842.3672 " fill="#FFFFCC" style="stroke:#999999;stroke-width:0.5;"/><text fill="#000000" font-family="sans-serif" font-size="13" lengthAdjust="spacing" textLength="140.9941" x="282.8584" y="859.4341">Load model from disk</text><rect fill="#EEEEEE" height="33.9688" rx="12.5" ry="12.5" style="stroke:#999999;stroke-width:0.5;" width="194.123" x="62.7354" y="837.9492"/><text fill="#000000" font-family="sans-serif" font-size="12" lengthAdjust="spacing" textLength="174.123" x="72.7354" y="859.0879">ModelSerializer.load_model()</text><path d="M260.707,896.3359 L260.707,904.9023 L240.707,908.9023 L260.707,912.9023 L260.707,921.4688 A0,0 0 0 0 260.707,921.4688 L377.5376,921.4688 A0,0 0 0 0 377.5376,921.4688 L377.5376,906.3359 L367.5376,896.3359 L260.707,896.3359 A0,0 0 0 0 260.707,896.3359 " fill="#FFFFCC" style="stroke:#999999;stroke-width:0.5;"/><path d="M367.5376,896.3359 L367.5376,906.3359 L377.5376,906.3359 L367.5376,896.3359 " fill="#FFFFCC" style="stroke:#999999;stroke-width:0.5;"/><text fill="#000000" font-family="sans-serif" font-size="13" lengthAdjust="spacing" textLength="95.8306" x="266.707" y="913.4028">Load new data</text><rect fill="#EEEEEE" height="33.9688" rx="12.5" ry="12.5" style="stroke:#999999;stroke-width:0.5;" width="161.8203" x="78.8867" y="891.918"/><text fill="#000000" font-family="sans-serif" font-size="12" lengthAdjust="spacing" textLength="141.8203" x="88.8867" y="913.0566">DataLoader.load_data()</text><path d="M282.9697,950.3047 L282.9697,958.8711 L262.9697,962.8711 L282.9697,966.8711 L282.9697,975.4375 A0,0 0 0 0 282.9697,975.4375 L458.1543,975.4375 A0,0 0 0 0 458.1543,975.4375 L458.1543,960.3047 L448.1543,950.3047 L282.9697,950.3047 A0,0 0 0 0 282.9697,950.3047 " fill="#FFFFCC" style="stroke:#999999;stroke-width:0.5;"/><path d="M448.1543,950.3047 L448.1543,960.3047 L458.1543,960.3047 L448.1543,950.3047 " fill="#FFFFCC" style="stroke:#999999;stroke-width:0.5;"/><text fill="#000000" font-family="sans-serif" font-size="13" lengthAdjust="spacing" textLength="154.1846" x="288.9697" y="967.3716">Clean and prepare data</text><rect fill="#EEEEEE" height="33.9688" rx="12.5" ry="12.5" style="stroke:#999999;stroke-width:0.5;" width="206.3457" x="56.624" y="945.8867"/><text fill="#000000" font-family="sans-serif" font-size="12" lengthAdjust="spacing" textLength="186.3457" x="66.624" y="967.0254">DataPreprocessor.preprocess()</text><path d="M275.7598,1004.2734 L275.7598,1012.8398 L255.7598,1016.8398 L275.7598,1020.8398 L275.7598,1029.4063 A0,0 0 0 0 275.7598,1029.4063 L522.7935,1029.4063 A0,0 0 0 0 522.7935,1029.4063 L522.7935,1014.2734 L512.7935,1004.2734 L275.7598,1004.2734 A0,0 0 0 0 275.7598,1004.2734 " fill="#FFFFCC" style="stroke:#999999;stroke-width:0.5;"/><path d="M512.7935,1004.2734 L512.7935,1014.2734 L522.7935,1014.2734 L512.7935,1004.2734 " fill="#FFFFCC" style="stroke:#999999;stroke-width:0.5;"/><text fill="#000000" font-family="sans-serif" font-size="13" lengthAdjust="spacing" textLength="226.0337" x="281.7598" y="1021.3403">Apply transformations to new data</text><rect fill="#EEEEEE" height="33.9688" rx="12.5" ry="12.5" style="stroke:#999999;stroke-width:0.5;" width="191.9258" x="63.834" y="999.8555"/><text fill="#000000" font-family="sans-serif" font-size="12" lengthAdjust="spacing" textLength="171.9258" x="73.834" y="1020.9941">FeatureEngineer.transform()</text><path d="M244.5205,1058.2422 L244.5205,1066.8086 L224.5205,1070.8086 L244.5205,1074.8086 L244.5205,1083.375 A0,0 0 0 0 244.5205,1083.375 L402.6489,1083.375 A0,0 0 0 0 402.6489,1083.375 L402.6489,1068.2422 L392.6489,1058.2422 L244.5205,1058.2422 A0,0 0 0 0 244.5205,1058.2422 " fill="#FFFFCC" style="stroke:#999999;stroke-width:0.5;"/><path d="M392.6489,1058.2422 L392.6489,1068.2422 L402.6489,1068.2422 L392.6489,1058.2422 " fill="#FFFFCC" style="stroke:#999999;stroke-width:0.5;"/><text fill="#000000" font-family="sans-serif" font-size="13" lengthAdjust="spacing" textLength="137.1284" x="250.5205" y="1075.3091">Generate predictions</text><rect fill="#EEEEEE" height="33.9688" rx="12.5" ry="12.5" style="stroke:#999999;stroke-width:0.5;" width="129.4473" x="95.0732" y="1053.8242"/><text fill="#000000" font-family="sans-serif" font-size="12" lengthAdjust="spacing" textLength="109.4473" x="105.0732" y="1074.9629">Predictor.predict()</text><rect fill="#EEEEEE" height="33.9688" rx="12.5" ry="12.5" style="stroke:#999999;stroke-width:0.5;" width="177.0605" x="71.2666" y="1107.793"/><text fill="#000000" font-family="sans-serif" font-size="12" lengthAdjust="spacing" textLength="157.0605" x="81.2666" y="1128.9316">Save or return predictions</text><ellipse cx="159.7969" cy="1184.7617" fill="none" rx="11" ry="11" style="stroke:#222222;stroke-width:1;"/><ellipse cx="159.7969" cy="1184.7617" fill="#222222" rx="6" ry="6" style="stroke:#222222;stroke-width:1;"/><line style="stroke:#666666;stroke-width:1;" x1="159.7969" x2="159.7969" y1="147.5625" y2="167.5625"/><polygon fill="#666666" points="155.7969,157.5625,159.7969,167.5625,163.7969,157.5625,159.7969,161.5625" style="stroke:#666666;stroke-width:1;"/><line style="stroke:#666666;stroke-width:1;" x1="159.7969" x2="159.7969" y1="201.5313" y2="221.5313"/><polygon fill="#666666" points="155.7969,211.5313,159.7969,221.5313,163.7969,211.5313,159.7969,215.5313" style="stroke:#666666;stroke-width:1;"/><line style="stroke:#666666;stroke-width:1;" x1="159.7969" x2="159.7969" y1="255.5" y2="275.5"/><polygon fill="#666666" points="155.7969,265.5,159.7969,275.5,163.7969,265.5,159.7969,269.5" style="stroke:#666666;stroke-width:1;"/><line style="stroke:#666666;stroke-width:1;" x1="159.7969" x2="159.7969" y1="309.4688" y2="329.4688"/><polygon fill="#666666" points="155.7969,319.4688,159.7969,329.4688,163.7969,319.4688,159.7969,323.4688" style="stroke:#666666;stroke-width:1;"/><line style="stroke:#666666;stroke-width:1;" x1="159.7969" x2="159.7969" y1="363.4375" y2="383.4375"/><polygon fill="#666666" points="155.7969,373.4375,159.7969,383.4375,163.7969,373.4375,159.7969,377.4375" style="stroke:#666666;stroke-width:1;"/><line style="stroke:#666666;stroke-width:1;" x1="159.7969" x2="159.7969" y1="461.4063" y2="485.8086"/><polygon fill="#666666" points="155.7969,475.8086,159.7969,485.8086,163.7969,475.8086,159.7969,479.8086" style="stroke:#666666;stroke-width:1;"/><line style="stroke:#666666;stroke-width:1;" x1="248.9043" x2="504.1587" y1="449.4063" y2="449.4063"/><polygon fill="#666666" points="500.1587,492.793,504.1587,502.793,508.1587,492.793,504.1587,496.793" style="stroke:#666666;stroke-width:1;"/><line style="stroke:#666666;stroke-width:1;" x1="504.1587" x2="504.1587" y1="449.4063" y2="551.7773"/><line style="stroke:#666666;stroke-width:1;" x1="504.1587" x2="171.7969" y1="551.7773" y2="551.7773"/><polygon fill="#666666" points="181.7969,547.7773,171.7969,551.7773,181.7969,555.7773,177.7969,551.7773" style="stroke:#666666;stroke-width:1;"/><line style="stroke:#666666;stroke-width:1;" x1="159.7969" x2="159.7969" y1="519.7773" y2="539.7773"/><polygon fill="#666666" points="155.7969,529.7773,159.7969,539.7773,163.7969,529.7773,159.7969,533.7773" style="stroke:#666666;stroke-width:1;"/><line style="stroke:#666666;stroke-width:1;" x1="159.7969" x2="159.7969" y1="417.4063" y2="437.4063"/><polygon fill="#666666" points="155.7969,427.4063,159.7969,437.4063,163.7969,427.4063,159.7969,431.4063" style="stroke:#666666;stroke-width:1;"/><line style="stroke:#666666;stroke-width:1;" x1="159.7969" x2="159.7969" y1="563.7773" y2="583.7773"/><polygon fill="#666666" points="155.7969,573.7773,159.7969,583.7773,163.7969,573.7773,159.7969,577.7773" style="stroke:#666666;stroke-width:1;"/><line style="stroke:#666666;stroke-width:1;" x1="159.7969" x2="159.7969" y1="617.7461" y2="637.7461"/><polygon fill="#666666" points="155.7969,627.7461,159.7969,637.7461,163.7969,627.7461,159.7969,631.7461" style="stroke:#666666;stroke-width:1;"/><line style="stroke:#666666;stroke-width:1;" x1="159.7969" x2="159.7969" y1="671.7148" y2="691.7148"/><polygon fill="#666666" points="155.7969,681.7148,159.7969,691.7148,163.7969,681.7148,159.7969,685.7148" style="stroke:#666666;stroke-width:1;"/><line style="stroke:#666666;stroke-width:1;" x1="159.7969" x2="159.7969" y1="725.6836" y2="745.6836"/><polygon fill="#666666" points="155.7969,735.6836,159.7969,745.6836,163.7969,735.6836,159.7969,739.6836" style="stroke:#666666;stroke-width:1;"/><line style="stroke:#666666;stroke-width:1;" x1="159.7969" x2="159.7969" y1="67.2969" y2="113.5938"/><polygon fill="#666666" points="155.7969,103.5938,159.7969,113.5938,163.7969,103.5938,159.7969,107.5938" style="stroke:#666666;stroke-width:1;"/><line style="stroke:#666666;stroke-width:1;" x1="159.7969" x2="159.7969" y1="871.918" y2="891.918"/><polygon fill="#666666" points="155.7969,881.918,159.7969,891.918,163.7969,881.918,159.7969,885.918" style="stroke:#666666;stroke-width:1;"/><line style="stroke:#666666;stroke-width:1;" x1="159.7969" x2="159.7969" y1="925.8867" y2="945.8867"/><polygon fill="#666666" points="155.7969,935.8867,159.7969,945.8867,163.7969,935.8867,159.7969,939.8867" style="stroke:#666666;stroke-width:1;"/><line style="stroke:#666666;stroke-width:1;" x1="159.7969" x2="159.7969" y1="979.8555" y2="999.8555"/><polygon fill="#666666" points="155.7969,989.8555,159.7969,999.8555,163.7969,989.8555,159.7969,993.8555" style="stroke:#666666;stroke-width:1;"/><line style="stroke:#666666;stroke-width:1;" x1="159.7969" x2="159.7969" y1="1033.8242" y2="1053.8242"/><polygon fill="#666666" points="155.7969,1043.8242,159.7969,1053.8242,163.7969,1043.8242,159.7969,1047.8242" style="stroke:#666666;stroke-width:1;"/><line style="stroke:#666666;stroke-width:1;" x1="159.7969" x2="159.7969" y1="1087.793" y2="1107.793"/><polygon fill="#666666" points="155.7969,1097.793,159.7969,1107.793,163.7969,1097.793,159.7969,1101.793" style="stroke:#666666;stroke-width:1;"/><line style="stroke:#666666;stroke-width:1;" x1="159.7969" x2="159.7969" y1="779.6523" y2="837.9492"/><polygon fill="#666666" points="155.7969,827.9492,159.7969,837.9492,163.7969,827.9492,159.7969,831.9492" style="stroke:#666666;stroke-width:1;"/><line style="stroke:#666666;stroke-width:1;" x1="159.7969" x2="159.7969" y1="1141.7617" y2="1173.7617"/><polygon fill="#666666" points="155.7969,1163.7617,159.7969,1173.7617,163.7969,1163.7617,159.7969,1167.7617" style="stroke:#666666;stroke-width:1;"/><!--SRC=[hLHDJzj04BtdLupWG91GUgjKE5GGabw08WNrYXPxd8oosRLcnuIqwd_lxDeEnZ4g1_RWh_VspSoR7P_0GdOM8SU270bv5qPXJQuqR3RmPBBradtbygctdc6x8i4EVidijpLq_3MjBfW9FPFihZpdo0thMrf3h5weurbQ0ynhCXllye_9jkJ_gjzvmGFMNDTqscSD11wTm0E9nP74AzpXInLkR-2UIhJa4ERMRoDf8OPb5D8rxc6Zhhib517N499Q04Txe5KuWZyZWFDh8-R66uq_iNfxpFLzV7gXaDFCW6cvadE838WG5EmtC5tyEeFPIuRs33Jd23oPWBgfbRndBDbd68BdIRb_ELIUMZGEZCiXiWnZKckK5gKbgUEI4myIY_WY60G2IhXeQ7CqKZ7Et5Bhqa8Aae4IqB23egP69HSApnjJdz1XeJthKEwoBEskBmDjZj7eJXstFaTxLP6DDZ_5- -CcVXgmWpK5X8HgpTfNbpM-KW7ZdwNGXduZh7ObSZf1ACZX-od82XsCTnXEbTkFwPjzZxrzTG9lKtYeN9l0Ar5PQ0F2sFceZowdebjSEbwrO-GEoqfm8xebMRLz-5JZux7ecpvxDhOoeeSGwoSSyDpOhBBHTlKcQQhde7KpPQ4hja0cOzL6dWJpZE_rSA5OKwkcbLDOZ_x6sTIPo2bBuzYVpWxKcyz-u3IaxmHEKre7JcEQGh_Ev0V7tE6sQ-FdJVDdDBcNNEDRdLLyEfJwWNekKtFt7hTDJOtI_nUZvkMwX8kwOpENww_Lb_y0]--></g></svg>