<svg xmlns="http://www.w3.org/2000/svg" xmlns:xlink="http://www.w3.org/1999/xlink" contentStyleType="text/css" data-diagram-type="SEQUENCE" height="1228px" preserveAspectRatio="none" style="width:1867px;height:1228px;background:#FFFFFF;" version="1.1" viewBox="0 0 1867 1228" width="1867px" zoomAndPan="magnify"><title>NexusML Model Prediction Sequence</title><defs/><g><text fill="#000000" font-family="sans-serif" font-size="14" font-weight="bold" lengthAdjust="spacing" textLength="291.5596" x="789.6145" y="27.9951">NexusML Model Prediction Sequence</text><g><title>predict.py</title><rect fill="#FFFFFF" height="979.9844" style="stroke:#999999;stroke-width:1;" width="10" x="190.9253" y="149.7266"/></g><g><title>EquipmentClassifier</title><rect fill="#FFFFFF" height="29.1328" style="stroke:#999999;stroke-width:1;" width="10" x="418.1035" y="220.9922"/></g><g><title>EquipmentClassifier</title><rect fill="#FFFFFF" height="505.125" style="stroke:#999999;stroke-width:1;" width="10" x="418.1035" y="462.0547"/></g><g><title>predict_with_enhanced_model()</title><rect fill="#FFFFFF" height="388.5938" style="stroke:#999999;stroke-width:1;" width="10" x="927.4307" y="491.1875"/></g><g><title>map_staging_to_model_input()</title><rect fill="#FFFFFF" height="29.1328" style="stroke:#999999;stroke-width:1;" width="10" x="1170.9463" y="321.3906"/></g><g><title>GenericFeatureEngineer</title><rect fill="#FFFFFF" height="29.1328" style="stroke:#999999;stroke-width:1;" width="10" x="1388.0479" y="379.6563"/></g><g><title>EAVManager</title><rect fill="#FFFFFF" height="29.1328" style="stroke:#999999;stroke-width:1;" width="10" x="1542.04" y="646.7188"/></g><g><title>EAVManager</title><rect fill="#FFFFFF" height="29.1328" style="stroke:#999999;stroke-width:1;" width="10" x="1542.04" y="704.9844"/></g><g><title>EAVManager</title><rect fill="#FFFFFF" height="29.1328" style="stroke:#999999;stroke-width:1;" width="10" x="1542.04" y="763.25"/></g><g><title>EAVManager</title><rect fill="#FFFFFF" height="29.1328" style="stroke:#999999;stroke-width:1;" width="10" x="1542.04" y="908.9141"/></g><g><title>map_predictions_to_master_db()</title><rect fill="#FFFFFF" height="29.1328" style="stroke:#999999;stroke-width:1;" width="10" x="1725.2559" y="821.5156"/></g><rect fill="none" height="593.5234" style="stroke:#000000;stroke-width:1.5;" width="1718.2837" x="143.5049" y="423.7891"/><g><title>User</title><rect fill="#000000" fill-opacity="0.00000" height="1029.1172" width="8" x="19.9551" y="118.5938"/><line style="stroke:#999999;stroke-width:0.5;stroke-dasharray:5.0,5.0;" x1="23" x2="23" y1="118.5938" y2="1147.7109"/></g><g><title>predict.py</title><rect fill="#000000" fill-opacity="0.00000" height="1029.1172" width="8" x="191.9253" y="118.5938"/><line style="stroke:#999999;stroke-width:0.5;stroke-dasharray:5.0,5.0;" x1="195.5049" x2="195.5049" y1="118.5938" y2="1147.7109"/></g><g><title>EquipmentClassifier</title><rect fill="#000000" fill-opacity="0.00000" height="1029.1172" width="8" x="419.1035" y="118.5938"/><line style="stroke:#999999;stroke-width:0.5;stroke-dasharray:5.0,5.0;" x1="422.1514" x2="422.1514" y1="118.5938" y2="1147.7109"/></g><g><title>predict_with_enhanced_model()</title><rect fill="#000000" fill-opacity="0.00000" height="1029.1172" width="8" x="928.4307" y="118.5938"/><line style="stroke:#999999;stroke-width:0.5;stroke-dasharray:5.0,5.0;" x1="931.7075" x2="931.7075" y1="118.5938" y2="1147.7109"/></g><g><title>map_staging_to_model_input()</title><rect fill="#000000" fill-opacity="0.00000" height="1029.1172" width="8" x="1171.9463" y="118.5938"/><line style="stroke:#999999;stroke-width:0.5;stroke-dasharray:5.0,5.0;" x1="1175.1538" x2="1175.1538" y1="118.5938" y2="1147.7109"/></g><g><title>GenericFeatureEngineer</title><rect fill="#000000" fill-opacity="0.00000" height="1029.1172" width="8" x="1389.0479" y="118.5938"/><line style="stroke:#999999;stroke-width:0.5;stroke-dasharray:5.0,5.0;" x1="1392.7388" x2="1392.7388" y1="118.5938" y2="1147.7109"/></g><g><title>EAVManager</title><rect fill="#000000" fill-opacity="0.00000" height="1029.1172" width="8" x="1543.04" y="118.5938"/><line style="stroke:#999999;stroke-width:0.5;stroke-dasharray:5.0,5.0;" x1="1546.3569" x2="1546.3569" y1="118.5938" y2="1147.7109"/></g><g><title>map_predictions_to_master_db()</title><rect fill="#000000" fill-opacity="0.00000" height="1029.1172" width="8" x="1726.2559" y="118.5938"/><line style="stroke:#999999;stroke-width:0.5;stroke-dasharray:5.0,5.0;" x1="1729.7231" x2="1729.7231" y1="118.5938" y2="1147.7109"/></g><g class="participant participant-head" data-participant="User"><text fill="#000000" font-family="sans-serif" font-size="14" lengthAdjust="spacing" textLength="31.9102" x="5" y="115.292">User</text><ellipse cx="23.9551" cy="50.7969" fill="#E2E2F0" rx="8" ry="8" style="stroke:#181818;stroke-width:0.5;"/><path d="M23.9551,58.7969 L23.9551,85.7969 M10.9551,66.7969 L36.9551,66.7969 M23.9551,85.7969 L10.9551,100.7969 M23.9551,85.7969 L36.9551,100.7969 " fill="none" style="stroke:#181818;stroke-width:0.5;"/></g><g class="participant participant-tail" data-participant="User"><text fill="#000000" font-family="sans-serif" font-size="14" lengthAdjust="spacing" textLength="31.9102" x="5" y="1159.7061">User</text><ellipse cx="23.9551" cy="1171.5078" fill="#E2E2F0" rx="8" ry="8" style="stroke:#181818;stroke-width:0.5;"/><path d="M23.9551,1179.5078 L23.9551,1206.5078 M10.9551,1187.5078 L36.9551,1187.5078 M23.9551,1206.5078 L10.9551,1221.5078 M23.9551,1206.5078 L36.9551,1221.5078 " fill="none" style="stroke:#181818;stroke-width:0.5;"/></g><g class="participant participant-head" data-participant="PredictScript"><rect fill="#EEEEEE" height="30.2969" rx="2.5" ry="2.5" style="stroke:#999999;stroke-width:0.5;" width="84.8408" x="153.5049" y="87.2969"/><text fill="#000000" font-family="sans-serif" font-size="14" lengthAdjust="spacing" textLength="70.8408" x="160.5049" y="107.292">predict.py</text></g><g class="participant participant-tail" data-participant="PredictScript"><rect fill="#EEEEEE" height="30.2969" rx="2.5" ry="2.5" style="stroke:#999999;stroke-width:0.5;" width="84.8408" x="153.5049" y="1146.7109"/><text fill="#000000" font-family="sans-serif" font-size="14" lengthAdjust="spacing" textLength="70.8408" x="160.5049" y="1166.7061">predict.py</text></g><g class="participant participant-head" data-participant="Classifier"><rect fill="#EEEEEE" height="30.2969" rx="2.5" ry="2.5" style="stroke:#999999;stroke-width:0.5;" width="153.9043" x="346.1514" y="87.2969"/><text fill="#000000" font-family="sans-serif" font-size="14" lengthAdjust="spacing" textLength="139.9043" x="353.1514" y="107.292">EquipmentClassifier</text></g><g class="participant participant-tail" data-participant="Classifier"><rect fill="#EEEEEE" height="30.2969" rx="2.5" ry="2.5" style="stroke:#999999;stroke-width:0.5;" width="153.9043" x="346.1514" y="1146.7109"/><text fill="#000000" font-family="sans-serif" font-size="14" lengthAdjust="spacing" textLength="139.9043" x="353.1514" y="1166.7061">EquipmentClassifier</text></g><g class="participant participant-head" data-participant="PredictFunc"><rect fill="#EEEEEE" height="30.2969" rx="2.5" ry="2.5" style="stroke:#999999;stroke-width:0.5;" width="237.4463" x="813.7075" y="87.2969"/><text fill="#000000" font-family="sans-serif" font-size="14" lengthAdjust="spacing" textLength="223.4463" x="820.7075" y="107.292">predict_with_enhanced_model()</text></g><g class="participant participant-tail" data-participant="PredictFunc"><rect fill="#EEEEEE" height="30.2969" rx="2.5" ry="2.5" style="stroke:#999999;stroke-width:0.5;" width="237.4463" x="813.7075" y="1146.7109"/><text fill="#000000" font-family="sans-serif" font-size="14" lengthAdjust="spacing" textLength="223.4463" x="820.7075" y="1166.7061">predict_with_enhanced_model()</text></g><g class="participant participant-head" data-participant="DataMapper"><rect fill="#EEEEEE" height="30.2969" rx="2.5" ry="2.5" style="stroke:#999999;stroke-width:0.5;" width="229.585" x="1061.1538" y="87.2969"/><text fill="#000000" font-family="sans-serif" font-size="14" lengthAdjust="spacing" textLength="215.585" x="1068.1538" y="107.292">map_staging_to_model_input()</text></g><g class="participant participant-tail" data-participant="DataMapper"><rect fill="#EEEEEE" height="30.2969" rx="2.5" ry="2.5" style="stroke:#999999;stroke-width:0.5;" width="229.585" x="1061.1538" y="1146.7109"/><text fill="#000000" font-family="sans-serif" font-size="14" lengthAdjust="spacing" textLength="215.585" x="1068.1538" y="1166.7061">map_staging_to_model_input()</text></g><g class="participant participant-head" data-participant="FeatureEngineer"><rect fill="#EEEEEE" height="30.2969" rx="2.5" ry="2.5" style="stroke:#999999;stroke-width:0.5;" width="184.6182" x="1300.7388" y="87.2969"/><text fill="#000000" font-family="sans-serif" font-size="14" lengthAdjust="spacing" textLength="170.6182" x="1307.7388" y="107.292">GenericFeatureEngineer</text></g><g class="participant participant-tail" data-participant="FeatureEngineer"><rect fill="#EEEEEE" height="30.2969" rx="2.5" ry="2.5" style="stroke:#999999;stroke-width:0.5;" width="184.6182" x="1300.7388" y="1146.7109"/><text fill="#000000" font-family="sans-serif" font-size="14" lengthAdjust="spacing" textLength="170.6182" x="1307.7388" y="1166.7061">GenericFeatureEngineer</text></g><g class="participant participant-head" data-participant="EAVManager"><rect fill="#EEEEEE" height="30.2969" rx="2.5" ry="2.5" style="stroke:#999999;stroke-width:0.5;" width="103.3662" x="1495.3569" y="87.2969"/><text fill="#000000" font-family="sans-serif" font-size="14" lengthAdjust="spacing" textLength="89.3662" x="1502.3569" y="107.292">EAVManager</text></g><g class="participant participant-tail" data-participant="EAVManager"><rect fill="#EEEEEE" height="30.2969" rx="2.5" ry="2.5" style="stroke:#999999;stroke-width:0.5;" width="103.3662" x="1495.3569" y="1146.7109"/><text fill="#000000" font-family="sans-serif" font-size="14" lengthAdjust="spacing" textLength="89.3662" x="1502.3569" y="1166.7061">EAVManager</text></g><g class="participant participant-head" data-participant="DBMapper"><rect fill="#EEEEEE" height="30.2969" rx="2.5" ry="2.5" style="stroke:#999999;stroke-width:0.5;" width="243.0654" x="1608.7231" y="87.2969"/><text fill="#000000" font-family="sans-serif" font-size="14" lengthAdjust="spacing" textLength="229.0654" x="1615.7231" y="107.292">map_predictions_to_master_db()</text></g><g class="participant participant-tail" data-participant="DBMapper"><rect fill="#EEEEEE" height="30.2969" rx="2.5" ry="2.5" style="stroke:#999999;stroke-width:0.5;" width="243.0654" x="1608.7231" y="1146.7109"/><text fill="#000000" font-family="sans-serif" font-size="14" lengthAdjust="spacing" textLength="229.0654" x="1615.7231" y="1166.7061">map_predictions_to_master_db()</text></g><g><title>predict.py</title><rect fill="#FFFFFF" height="979.9844" style="stroke:#999999;stroke-width:1;" width="10" x="190.9253" y="149.7266"/></g><g><title>EquipmentClassifier</title><rect fill="#FFFFFF" height="29.1328" style="stroke:#999999;stroke-width:1;" width="10" x="418.1035" y="220.9922"/></g><g><title>EquipmentClassifier</title><rect fill="#FFFFFF" height="505.125" style="stroke:#999999;stroke-width:1;" width="10" x="418.1035" y="462.0547"/></g><g><title>predict_with_enhanced_model()</title><rect fill="#FFFFFF" height="388.5938" style="stroke:#999999;stroke-width:1;" width="10" x="927.4307" y="491.1875"/></g><g><title>map_staging_to_model_input()</title><rect fill="#FFFFFF" height="29.1328" style="stroke:#999999;stroke-width:1;" width="10" x="1170.9463" y="321.3906"/></g><g><title>GenericFeatureEngineer</title><rect fill="#FFFFFF" height="29.1328" style="stroke:#999999;stroke-width:1;" width="10" x="1388.0479" y="379.6563"/></g><g><title>EAVManager</title><rect fill="#FFFFFF" height="29.1328" style="stroke:#999999;stroke-width:1;" width="10" x="1542.04" y="646.7188"/></g><g><title>EAVManager</title><rect fill="#FFFFFF" height="29.1328" style="stroke:#999999;stroke-width:1;" width="10" x="1542.04" y="704.9844"/></g><g><title>EAVManager</title><rect fill="#FFFFFF" height="29.1328" style="stroke:#999999;stroke-width:1;" width="10" x="1542.04" y="763.25"/></g><g><title>EAVManager</title><rect fill="#FFFFFF" height="29.1328" style="stroke:#999999;stroke-width:1;" width="10" x="1542.04" y="908.9141"/></g><g><title>map_predictions_to_master_db()</title><rect fill="#FFFFFF" height="29.1328" style="stroke:#999999;stroke-width:1;" width="10" x="1725.2559" y="821.5156"/></g><g class="message" data-participant-1="User" data-participant-2="PredictScript"><polygon fill="#666666" points="178.9253,145.7266,188.9253,149.7266,178.9253,153.7266,182.9253,149.7266" style="stroke:#666666;stroke-width:1;"/><line style="stroke:#666666;stroke-width:1;" x1="23.9551" x2="184.9253" y1="149.7266" y2="149.7266"/><text fill="#000000" font-family="sans-serif" font-size="13" lengthAdjust="spacing" textLength="147.9702" x="30.9551" y="144.6606">Execute with input_file</text></g><g class="message" data-participant-1="PredictScript" data-participant-2="PredictScript"><line style="stroke:#666666;stroke-width:1;" x1="200.9253" x2="242.9253" y1="178.8594" y2="178.8594"/><line style="stroke:#666666;stroke-width:1;" x1="242.9253" x2="242.9253" y1="178.8594" y2="191.8594"/><line style="stroke:#666666;stroke-width:1;" x1="201.9253" x2="242.9253" y1="191.8594" y2="191.8594"/><polygon fill="#666666" points="211.9253,187.8594,201.9253,191.8594,211.9253,195.8594,207.9253,191.8594" style="stroke:#666666;stroke-width:1;"/><text fill="#000000" font-family="sans-serif" font-size="13" lengthAdjust="spacing" textLength="110.627" x="207.9253" y="173.7935">Parse arguments</text></g><g class="message" data-participant-1="PredictScript" data-participant-2="Classifier"><polygon fill="#666666" points="406.1035,216.9922,416.1035,220.9922,406.1035,224.9922,410.1035,220.9922" style="stroke:#666666;stroke-width:1;"/><line style="stroke:#666666;stroke-width:1;" x1="200.9253" x2="412.1035" y1="220.9922" y2="220.9922"/><text fill="#000000" font-family="sans-serif" font-size="13" lengthAdjust="spacing" textLength="161.4399" x="207.9253" y="215.9263">load_model(model_path)</text></g><g class="message" data-participant-1="Classifier" data-participant-2="PredictScript"><polygon fill="#666666" points="211.9253,246.125,201.9253,250.125,211.9253,254.125,207.9253,250.125" style="stroke:#666666;stroke-width:1;"/><line style="stroke:#666666;stroke-width:1;stroke-dasharray:2.0,2.0;" x1="205.9253" x2="422.1035" y1="250.125" y2="250.125"/><text fill="#000000" font-family="sans-serif" font-size="13" lengthAdjust="spacing" textLength="107.9482" x="217.9253" y="245.0591">loaded_classifier</text></g><g class="message" data-participant-1="PredictScript" data-participant-2="PredictScript"><line style="stroke:#666666;stroke-width:1;" x1="200.9253" x2="242.9253" y1="279.2578" y2="279.2578"/><line style="stroke:#666666;stroke-width:1;" x1="242.9253" x2="242.9253" y1="279.2578" y2="292.2578"/><line style="stroke:#666666;stroke-width:1;" x1="201.9253" x2="242.9253" y1="292.2578" y2="292.2578"/><polygon fill="#666666" points="211.9253,288.2578,201.9253,292.2578,211.9253,296.2578,207.9253,292.2578" style="stroke:#666666;stroke-width:1;"/><text fill="#000000" font-family="sans-serif" font-size="13" lengthAdjust="spacing" textLength="97.1191" x="207.9253" y="274.1919">Read input_file</text></g><g class="message" data-participant-1="PredictScript" data-participant-2="DataMapper"><polygon fill="#666666" points="1158.9463,317.3906,1168.9463,321.3906,1158.9463,325.3906,1162.9463,321.3906" style="stroke:#666666;stroke-width:1;"/><line style="stroke:#666666;stroke-width:1;" x1="200.9253" x2="1164.9463" y1="321.3906" y2="321.3906"/><text fill="#000000" font-family="sans-serif" font-size="13" lengthAdjust="spacing" textLength="269.4072" x="207.9253" y="316.3247">map_staging_to_model_input(input_data)</text></g><g class="message" data-participant-1="DataMapper" data-participant-2="PredictScript"><polygon fill="#666666" points="211.9253,346.5234,201.9253,350.5234,211.9253,354.5234,207.9253,350.5234" style="stroke:#666666;stroke-width:1;"/><line style="stroke:#666666;stroke-width:1;stroke-dasharray:2.0,2.0;" x1="205.9253" x2="1174.9463" y1="350.5234" y2="350.5234"/><text fill="#000000" font-family="sans-serif" font-size="13" lengthAdjust="spacing" textLength="89.1655" x="217.9253" y="345.4575">mapped_data</text></g><g class="message" data-participant-1="PredictScript" data-participant-2="FeatureEngineer"><polygon fill="#666666" points="1376.0479,375.6563,1386.0479,379.6563,1376.0479,383.6563,1380.0479,379.6563" style="stroke:#666666;stroke-width:1;"/><line style="stroke:#666666;stroke-width:1;" x1="200.9253" x2="1382.0479" y1="379.6563" y2="379.6563"/><text fill="#000000" font-family="sans-serif" font-size="13" lengthAdjust="spacing" textLength="163.2681" x="207.9253" y="374.5903">transform(mapped_data)</text></g><g class="message" data-participant-1="FeatureEngineer" data-participant-2="PredictScript"><polygon fill="#666666" points="211.9253,404.7891,201.9253,408.7891,211.9253,412.7891,207.9253,408.7891" style="stroke:#666666;stroke-width:1;"/><line style="stroke:#666666;stroke-width:1;stroke-dasharray:2.0,2.0;" x1="205.9253" x2="1392.0479" y1="408.7891" y2="408.7891"/><text fill="#000000" font-family="sans-serif" font-size="13" lengthAdjust="spacing" textLength="102.2734" x="217.9253" y="403.7231">processed_data</text></g><path d="M143.5049,423.7891 L220.1289,423.7891 L220.1289,430.9219 L210.1289,440.9219 L143.5049,440.9219 L143.5049,423.7891 " fill="#EEEEEE" style="stroke:#000000;stroke-width:1.5;"/><rect fill="none" height="593.5234" style="stroke:#000000;stroke-width:1.5;" width="1718.2837" x="143.5049" y="423.7891"/><text fill="#000000" font-family="sans-serif" font-size="13" font-weight="bold" lengthAdjust="spacing" textLength="31.624" x="158.5049" y="436.856">loop</text><text fill="#000000" font-family="sans-serif" font-size="11" font-weight="bold" lengthAdjust="spacing" textLength="206.5938" x="235.1289" y="435.9995">[For each row in processed_data]</text><g class="message" data-participant-1="PredictScript" data-participant-2="Classifier"><polygon fill="#666666" points="406.1035,458.0547,416.1035,462.0547,406.1035,466.0547,410.1035,462.0547" style="stroke:#666666;stroke-width:1;"/><line style="stroke:#666666;stroke-width:1;" x1="200.9253" x2="412.1035" y1="462.0547" y2="462.0547"/><text fill="#000000" font-family="sans-serif" font-size="13" lengthAdjust="spacing" textLength="147.2466" x="207.9253" y="456.9888">predict_from_row(row)</text></g><g class="message" data-participant-1="Classifier" data-participant-2="PredictFunc"><polygon fill="#666666" points="915.4307,487.1875,925.4307,491.1875,915.4307,495.1875,919.4307,491.1875" style="stroke:#666666;stroke-width:1;"/><line style="stroke:#666666;stroke-width:1;" x1="428.1035" x2="921.4307" y1="491.1875" y2="491.1875"/><text fill="#000000" font-family="sans-serif" font-size="13" lengthAdjust="spacing" textLength="480.3271" x="435.1035" y="486.1216">predict_with_enhanced_model(model, description, service_life, asset_tag)</text></g><g class="message" data-participant-1="PredictFunc" data-participant-2="PredictFunc"><line style="stroke:#666666;stroke-width:1;" x1="937.4307" x2="979.4307" y1="520.3203" y2="520.3203"/><line style="stroke:#666666;stroke-width:1;" x1="979.4307" x2="979.4307" y1="520.3203" y2="533.3203"/><line style="stroke:#666666;stroke-width:1;" x1="938.4307" x2="979.4307" y1="533.3203" y2="533.3203"/><polygon fill="#666666" points="948.4307,529.3203,938.4307,533.3203,948.4307,537.3203,944.4307,533.3203" style="stroke:#666666;stroke-width:1;"/><text fill="#000000" font-family="sans-serif" font-size="13" lengthAdjust="spacing" textLength="157.6758" x="944.4307" y="515.2544">Create input DataFrame</text></g><g class="message" data-participant-1="PredictFunc" data-participant-2="PredictFunc"><line style="stroke:#666666;stroke-width:1;" x1="937.4307" x2="979.4307" y1="562.4531" y2="562.4531"/><line style="stroke:#666666;stroke-width:1;" x1="979.4307" x2="979.4307" y1="562.4531" y2="575.4531"/><line style="stroke:#666666;stroke-width:1;" x1="938.4307" x2="979.4307" y1="575.4531" y2="575.4531"/><polygon fill="#666666" points="948.4307,571.4531,938.4307,575.4531,948.4307,579.4531,944.4307,575.4531" style="stroke:#666666;stroke-width:1;"/><text fill="#000000" font-family="sans-serif" font-size="13" lengthAdjust="spacing" textLength="169.6792" x="944.4307" y="557.3872">model.predict(input_data)</text></g><g class="message" data-participant-1="PredictFunc" data-participant-2="PredictFunc"><line style="stroke:#666666;stroke-width:1;" x1="937.4307" x2="979.4307" y1="604.5859" y2="604.5859"/><line style="stroke:#666666;stroke-width:1;" x1="979.4307" x2="979.4307" y1="604.5859" y2="617.5859"/><line style="stroke:#666666;stroke-width:1;" x1="938.4307" x2="979.4307" y1="617.5859" y2="617.5859"/><polygon fill="#666666" points="948.4307,613.5859,938.4307,617.5859,948.4307,621.5859,944.4307,617.5859" style="stroke:#666666;stroke-width:1;"/><text fill="#000000" font-family="sans-serif" font-size="13" lengthAdjust="spacing" textLength="122.9731" x="944.4307" y="599.52">Extract predictions</text></g><g class="message" data-participant-1="PredictFunc" data-participant-2="EAVManager"><polygon fill="#666666" points="1530.04,642.7188,1540.04,646.7188,1530.04,650.7188,1534.04,646.7188" style="stroke:#666666;stroke-width:1;"/><line style="stroke:#666666;stroke-width:1;" x1="937.4307" x2="1536.04" y1="646.7188" y2="646.7188"/><text fill="#000000" font-family="sans-serif" font-size="13" lengthAdjust="spacing" textLength="253.1064" x="944.4307" y="641.6528">get_classification_ids(equipment_type)</text></g><g class="message" data-participant-1="EAVManager" data-participant-2="PredictFunc"><polygon fill="#666666" points="948.4307,671.8516,938.4307,675.8516,948.4307,679.8516,944.4307,675.8516" style="stroke:#666666;stroke-width:1;"/><line style="stroke:#666666;stroke-width:1;stroke-dasharray:2.0,2.0;" x1="942.4307" x2="1546.04" y1="675.8516" y2="675.8516"/><text fill="#000000" font-family="sans-serif" font-size="13" lengthAdjust="spacing" textLength="109.2241" x="954.4307" y="670.7856">classification_ids</text></g><g class="message" data-participant-1="PredictFunc" data-participant-2="EAVManager"><polygon fill="#666666" points="1530.04,700.9844,1540.04,704.9844,1530.04,708.9844,1534.04,704.9844" style="stroke:#666666;stroke-width:1;"/><line style="stroke:#666666;stroke-width:1;" x1="937.4307" x2="1536.04" y1="704.9844" y2="704.9844"/><text fill="#000000" font-family="sans-serif" font-size="13" lengthAdjust="spacing" textLength="268.6899" x="944.4307" y="699.9185">get_performance_fields(equipment_type)</text></g><g class="message" data-participant-1="EAVManager" data-participant-2="PredictFunc"><polygon fill="#666666" points="948.4307,730.1172,938.4307,734.1172,948.4307,738.1172,944.4307,734.1172" style="stroke:#666666;stroke-width:1;"/><line style="stroke:#666666;stroke-width:1;stroke-dasharray:2.0,2.0;" x1="942.4307" x2="1546.04" y1="734.1172" y2="734.1172"/><text fill="#000000" font-family="sans-serif" font-size="13" lengthAdjust="spacing" textLength="124.8076" x="954.4307" y="729.0513">performance_fields</text></g><g class="message" data-participant-1="PredictFunc" data-participant-2="EAVManager"><polygon fill="#666666" points="1530.04,759.25,1540.04,763.25,1530.04,767.25,1534.04,763.25" style="stroke:#666666;stroke-width:1;"/><line style="stroke:#666666;stroke-width:1;" x1="937.4307" x2="1536.04" y1="763.25" y2="763.25"/><text fill="#000000" font-family="sans-serif" font-size="13" lengthAdjust="spacing" textLength="268.8994" x="944.4307" y="758.1841">get_required_attributes(equipment_type)</text></g><g class="message" data-participant-1="EAVManager" data-participant-2="PredictFunc"><polygon fill="#666666" points="948.4307,788.3828,938.4307,792.3828,948.4307,796.3828,944.4307,792.3828" style="stroke:#666666;stroke-width:1;"/><line style="stroke:#666666;stroke-width:1;stroke-dasharray:2.0,2.0;" x1="942.4307" x2="1546.04" y1="792.3828" y2="792.3828"/><text fill="#000000" font-family="sans-serif" font-size="13" lengthAdjust="spacing" textLength="125.0171" x="954.4307" y="787.3169">required_attributes</text></g><g class="message" data-participant-1="PredictFunc" data-participant-2="DBMapper"><polygon fill="#666666" points="1713.2559,817.5156,1723.2559,821.5156,1713.2559,825.5156,1717.2559,821.5156" style="stroke:#666666;stroke-width:1;"/><line style="stroke:#666666;stroke-width:1;" x1="937.4307" x2="1719.2559" y1="821.5156" y2="821.5156"/><text fill="#000000" font-family="sans-serif" font-size="13" lengthAdjust="spacing" textLength="249.7676" x="944.4307" y="816.4497">map_predictions_to_master_db(result)</text></g><g class="message" data-participant-1="DBMapper" data-participant-2="PredictFunc"><polygon fill="#666666" points="948.4307,846.6484,938.4307,850.6484,948.4307,854.6484,944.4307,850.6484" style="stroke:#666666;stroke-width:1;"/><line style="stroke:#666666;stroke-width:1;stroke-dasharray:2.0,2.0;" x1="942.4307" x2="1729.2559" y1="850.6484" y2="850.6484"/><text fill="#000000" font-family="sans-serif" font-size="13" lengthAdjust="spacing" textLength="87.0137" x="954.4307" y="845.5825">db_mappings</text></g><g class="message" data-participant-1="PredictFunc" data-participant-2="Classifier"><polygon fill="#666666" points="439.1035,875.7813,429.1035,879.7813,439.1035,883.7813,435.1035,879.7813" style="stroke:#666666;stroke-width:1;"/><line style="stroke:#666666;stroke-width:1;stroke-dasharray:2.0,2.0;" x1="433.1035" x2="931.4307" y1="879.7813" y2="879.7813"/><text fill="#000000" font-family="sans-serif" font-size="13" lengthAdjust="spacing" textLength="109.0718" x="445.1035" y="874.7153">prediction_result</text></g><g class="message" data-participant-1="Classifier" data-participant-2="EAVManager"><polygon fill="#666666" points="1530.04,904.9141,1540.04,908.9141,1530.04,912.9141,1534.04,908.9141" style="stroke:#666666;stroke-width:1;"/><line style="stroke:#666666;stroke-width:1;" x1="428.1035" x2="1536.04" y1="908.9141" y2="908.9141"/><text fill="#000000" font-family="sans-serif" font-size="13" lengthAdjust="spacing" textLength="303.3164" x="435.1035" y="903.8481">generate_attribute_template(equipment_type)</text></g><g class="message" data-participant-1="EAVManager" data-participant-2="Classifier"><polygon fill="#666666" points="439.1035,934.0469,429.1035,938.0469,439.1035,942.0469,435.1035,938.0469" style="stroke:#666666;stroke-width:1;"/><line style="stroke:#666666;stroke-width:1;stroke-dasharray:2.0,2.0;" x1="433.1035" x2="1546.04" y1="938.0469" y2="938.0469"/><text fill="#000000" font-family="sans-serif" font-size="13" lengthAdjust="spacing" textLength="121.8877" x="445.1035" y="932.981">attribute_template</text></g><g class="message" data-participant-1="Classifier" data-participant-2="PredictScript"><polygon fill="#666666" points="211.9253,963.1797,201.9253,967.1797,211.9253,971.1797,207.9253,967.1797" style="stroke:#666666;stroke-width:1;"/><line style="stroke:#666666;stroke-width:1;stroke-dasharray:2.0,2.0;" x1="205.9253" x2="422.1035" y1="967.1797" y2="967.1797"/><text fill="#000000" font-family="sans-serif" font-size="13" lengthAdjust="spacing" textLength="132.7295" x="217.9253" y="962.1138">complete_prediction</text></g><g class="message" data-participant-1="PredictScript" data-participant-2="PredictScript"><line style="stroke:#666666;stroke-width:1;" x1="200.9253" x2="242.9253" y1="996.3125" y2="996.3125"/><line style="stroke:#666666;stroke-width:1;" x1="242.9253" x2="242.9253" y1="996.3125" y2="1009.3125"/><line style="stroke:#666666;stroke-width:1;" x1="201.9253" x2="242.9253" y1="1009.3125" y2="1009.3125"/><polygon fill="#666666" points="211.9253,1005.3125,201.9253,1009.3125,211.9253,1013.3125,207.9253,1009.3125" style="stroke:#666666;stroke-width:1;"/><text fill="#000000" font-family="sans-serif" font-size="13" lengthAdjust="spacing" textLength="168.2383" x="207.9253" y="991.2466">Store prediction in results</text></g><g class="message" data-participant-1="PredictScript" data-participant-2="PredictScript"><line style="stroke:#666666;stroke-width:1;" x1="200.9253" x2="242.9253" y1="1045.4453" y2="1045.4453"/><line style="stroke:#666666;stroke-width:1;" x1="242.9253" x2="242.9253" y1="1045.4453" y2="1058.4453"/><line style="stroke:#666666;stroke-width:1;" x1="201.9253" x2="242.9253" y1="1058.4453" y2="1058.4453"/><polygon fill="#666666" points="211.9253,1054.4453,201.9253,1058.4453,211.9253,1062.4453,207.9253,1058.4453" style="stroke:#666666;stroke-width:1;"/><text fill="#000000" font-family="sans-serif" font-size="13" lengthAdjust="spacing" textLength="193.1782" x="207.9253" y="1040.3794">Convert results to DataFrame</text></g><g class="message" data-participant-1="PredictScript" data-participant-2="PredictScript"><line style="stroke:#666666;stroke-width:1;" x1="200.9253" x2="242.9253" y1="1087.5781" y2="1087.5781"/><line style="stroke:#666666;stroke-width:1;" x1="242.9253" x2="242.9253" y1="1087.5781" y2="1100.5781"/><line style="stroke:#666666;stroke-width:1;" x1="201.9253" x2="242.9253" y1="1100.5781" y2="1100.5781"/><polygon fill="#666666" points="211.9253,1096.5781,201.9253,1100.5781,211.9253,1104.5781,207.9253,1100.5781" style="stroke:#666666;stroke-width:1;"/><text fill="#000000" font-family="sans-serif" font-size="13" lengthAdjust="spacing" textLength="170.3711" x="207.9253" y="1082.5122">Save results to output_file</text></g><g class="message" data-participant-1="PredictScript" data-participant-2="User"><polygon fill="#666666" points="34.9551,1125.7109,24.9551,1129.7109,34.9551,1133.7109,30.9551,1129.7109" style="stroke:#666666;stroke-width:1;"/><line style="stroke:#666666;stroke-width:1;stroke-dasharray:2.0,2.0;" x1="28.9551" x2="194.9253" y1="1129.7109" y2="1129.7109"/><text fill="#000000" font-family="sans-serif" font-size="13" lengthAdjust="spacing" textLength="113.0645" x="40.9551" y="1124.645">Prediction results</text></g><!--SRC=[hLPTRziW57tthq3jGrEfxUEavQ7IcYLxQQPgsVQA2Bv9K6sWWDFst- -2uu2nrrHRBTao-9x3uNxX2x9ohnMG4ZP22YUKj8Lz558pmsgoPlnnQrGZovcgb27FE-4W-Rw2fmOaXo_6gEVMvFnJk4QCxiK6RmbtofHW3jQVmvLOFp3Z11UQIVT-mqpc-JnSHN51VWfNGU7yato7byOkxybIbL2H1mEbu7x7HuKUaD3QWd67T6U_B9WpmYpnBuME5kHCjomt-ZKO74XNt0Zj-fRpfqRe6gIRLSnQiH47pZWSPQRFmkqeo1r3WIMjlVR9PRhOef6y3wsPfjQnhP1RwbIBeUYtnXsGNvbZIwPrlkOta604Nm1pZO6vH0OuoCpcihrz-RraacqFjd4urAMFRhT16xCE32tNdRAxWouCnJ4itkta-hRltIcPlm1l713l8HAsHpS2eurH4tk67_hHA7h34JuClGN2pBRnOR93-nYgAQaKwwBH-bSpjxkCQoTXZQ_aUhYg9yB0ycXVmXZBIVa_W9Mf6mRsCUfJyaQAj1Gb6YVRIJ8clevjf_PVoW1FDvBWXyAot9eIPvYq6sNgIKANgCcJCHkFwT96SR1sH5fELbHAQRB0maUR7S7EXbxDyGIlD_EZAz-DKJL5ZWdUbm4s5bm_7nvfhjoc5HuPnnf2U5vX5xT135RN5S6YsGiEjCA-UuMrPS5HZ7Wc8cqYoQRyUA1WPi13GeA4Y2wm4SD9M11tSv3VIwzJoFaBPW9t96aQqLKPC3QTATdYLhk2uipZg2Zj1BeMJDshXimHITFoyt6OPbChQqWT84bEPMJlqOkbuJFUHnNh5weFr3ka_W2zngj34ygSCsADZVZZ18zm_uFYxYnfkzrV3nu3jgbS9lPu3ldPRZ0KMgwfxr3OHGS2Umn3UUFjmgTJgoUdo-jqf5lq8uGdEUAY1wc3MbSuzJzHIYKFcTyJexSFGwwG2P0o-YCd7UkQfux65Vx6GU9Ztz1RDzi2P7dwR9qfkGVZEX1nAkb_9rTdUqYHgd77Gpe78zh_xKpJtzDEwJ0RMjGV]--></g></svg>