<svg xmlns="http://www.w3.org/2000/svg" xmlns:xlink="http://www.w3.org/1999/xlink" contentStyleType="text/css" data-diagram-type="DESCRIPTION" height="778px" preserveAspectRatio="none" style="width:3333px;height:778px;background:#FFFFFF;" version="1.1" viewBox="0 0 3333 778" width="3333px" zoomAndPan="magnify"><title>NexusML Reference Data Integration</title><defs/><g><text fill="#000000" font-family="sans-serif" font-size="14" font-weight="bold" lengthAdjust="spacing" textLength="292.0586" x="1513.6172" y="22.9951">NexusML Reference Data Integration</text><!--cluster Reference Data Sources--><g class="cluster" data-entity="Reference Data Sources" data-source-line="13" data-uid="ent0002" id="cluster_Reference Data Sources"><path d="M8.5,43.2969 L199.1768,43.2969 A3.75,3.75 0 0 1 201.6768,45.7969 L208.6768,65.5938 L1144.5,65.5938 A2.5,2.5 0 0 1 1147,68.0938 L1147,138.0969 A2.5,2.5 0 0 1 1144.5,140.5969 L8.5,140.5969 A2.5,2.5 0 0 1 6,138.0969 L6,45.7969 A2.5,2.5 0 0 1 8.5,43.2969 " fill="none" style="stroke:#000000;stroke-width:1.5;"/><line style="stroke:#000000;stroke-width:1.5;" x1="6" x2="208.6768" y1="65.5938" y2="65.5938"/><text fill="#000000" font-family="sans-serif" font-size="14" font-weight="bold" lengthAdjust="spacing" textLength="189.6768" x="10" y="58.292">Reference Data Sources</text></g><!--cluster Configuration Files--><g class="cluster" data-entity="Configuration Files" data-source-line="23" data-uid="ent0010" id="cluster_Configuration Files"><path d="M1173.5,43.2969 L1324.5283,43.2969 A3.75,3.75 0 0 1 1327.0283,45.7969 L1334.0283,65.5938 L2200.5,65.5938 A2.5,2.5 0 0 1 2203,68.0938 L2203,138.0969 A2.5,2.5 0 0 1 2200.5,140.5969 L1173.5,140.5969 A2.5,2.5 0 0 1 1171,138.0969 L1171,45.7969 A2.5,2.5 0 0 1 1173.5,43.2969 " fill="none" style="stroke:#000000;stroke-width:1.5;"/><line style="stroke:#000000;stroke-width:1.5;" x1="1171" x2="1334.0283" y1="65.5938" y2="65.5938"/><text fill="#000000" font-family="sans-serif" font-size="14" font-weight="bold" lengthAdjust="spacing" textLength="150.0283" x="1175" y="58.292">Configuration Files</text></g><!--cluster Core Components--><g class="cluster" data-entity="Core Components" data-source-line="30" data-uid="ent0015" id="cluster_Core Components"><path d="M803.5,189.5969 L944.2402,189.5969 A3.75,3.75 0 0 1 946.7402,192.0969 L953.7402,211.8937 L1494.5,211.8937 A2.5,2.5 0 0 1 1497,214.3937 L1497,428.6869 A2.5,2.5 0 0 1 1494.5,431.1869 L803.5,431.1869 A2.5,2.5 0 0 1 801,428.6869 L801,192.0969 A2.5,2.5 0 0 1 803.5,189.5969 " fill="none" style="stroke:#000000;stroke-width:1.5;"/><line style="stroke:#000000;stroke-width:1.5;" x1="801" x2="953.7402" y1="211.8937" y2="211.8937"/><text fill="#000000" font-family="sans-serif" font-size="14" font-weight="bold" lengthAdjust="spacing" textLength="139.7402" x="805" y="204.592">Core Components</text></g><!--cluster Data Flow--><g class="cluster" data-entity="Data Flow" data-source-line="38" data-uid="ent0021" id="cluster_Data Flow"><path d="M2450.5,333.8869 L2530.4961,333.8869 A3.75,3.75 0 0 1 2532.9961,336.3869 L2539.9961,356.1838 L2766.5,356.1838 A2.5,2.5 0 0 1 2769,358.6838 L2769,768.5769 A2.5,2.5 0 0 1 2766.5,771.0769 L2450.5,771.0769 A2.5,2.5 0 0 1 2448,768.5769 L2448,336.3869 A2.5,2.5 0 0 1 2450.5,333.8869 " fill="none" style="stroke:#000000;stroke-width:1.5;"/><line style="stroke:#000000;stroke-width:1.5;" x1="2448" x2="2539.9961" y1="356.1838" y2="356.1838"/><text fill="#000000" font-family="sans-serif" font-size="14" font-weight="bold" lengthAdjust="spacing" textLength="78.9961" x="2452" y="348.882">Data Flow</text></g><!--entity OmniClass--><g class="entity" data-entity="OmniClass" data-source-line="14" data-uid="ent0003" id="entity_OmniClass"><rect fill="#EEEEEE" height="46.2969" rx="2.5" ry="2.5" style="stroke:#999999;stroke-width:0.5;" width="114.252" x="698.87" y="78.2969"/><rect fill="#EEEEEE" height="10" style="stroke:#999999;stroke-width:0.5;" width="15" x="793.122" y="83.2969"/><rect fill="#EEEEEE" height="2" style="stroke:#999999;stroke-width:0.5;" width="4" x="791.122" y="85.2969"/><rect fill="#EEEEEE" height="2" style="stroke:#999999;stroke-width:0.5;" width="4" x="791.122" y="89.2969"/><text fill="#000000" font-family="sans-serif" font-size="14" lengthAdjust="spacing" textLength="74.252" x="713.87" y="111.292">OmniClass</text></g><!--entity Uniformat--><g class="entity" data-entity="Uniformat" data-source-line="15" data-uid="ent0004" id="entity_Uniformat"><rect fill="#EEEEEE" height="46.2969" rx="2.5" ry="2.5" style="stroke:#999999;stroke-width:0.5;" width="109.9658" x="848.02" y="78.2969"/><rect fill="#EEEEEE" height="10" style="stroke:#999999;stroke-width:0.5;" width="15" x="937.9858" y="83.2969"/><rect fill="#EEEEEE" height="2" style="stroke:#999999;stroke-width:0.5;" width="4" x="935.9858" y="85.2969"/><rect fill="#EEEEEE" height="2" style="stroke:#999999;stroke-width:0.5;" width="4" x="935.9858" y="89.2969"/><text fill="#000000" font-family="sans-serif" font-size="14" lengthAdjust="spacing" textLength="69.9658" x="863.02" y="111.292">Uniformat</text></g><!--entity MasterFormat--><g class="entity" data-entity="MasterFormat" data-source-line="16" data-uid="ent0005" id="entity_MasterFormat"><rect fill="#EEEEEE" height="46.2969" rx="2.5" ry="2.5" style="stroke:#999999;stroke-width:0.5;" width="137.8906" x="993.05" y="78.2969"/><rect fill="#EEEEEE" height="10" style="stroke:#999999;stroke-width:0.5;" width="15" x="1110.9406" y="83.2969"/><rect fill="#EEEEEE" height="2" style="stroke:#999999;stroke-width:0.5;" width="4" x="1108.9406" y="85.2969"/><rect fill="#EEEEEE" height="2" style="stroke:#999999;stroke-width:0.5;" width="4" x="1108.9406" y="89.2969"/><text fill="#000000" font-family="sans-serif" font-size="14" lengthAdjust="spacing" textLength="97.8906" x="1008.05" y="111.292">MasterFormat</text></g><!--entity MCAA--><g class="entity" data-entity="MCAA" data-source-line="17" data-uid="ent0006" id="entity_MCAA"><rect fill="#EEEEEE" height="46.2969" rx="2.5" ry="2.5" style="stroke:#999999;stroke-width:0.5;" width="145.9707" x="22.01" y="78.2969"/><rect fill="#EEEEEE" height="10" style="stroke:#999999;stroke-width:0.5;" width="15" x="147.9807" y="83.2969"/><rect fill="#EEEEEE" height="2" style="stroke:#999999;stroke-width:0.5;" width="4" x="145.9807" y="85.2969"/><rect fill="#EEEEEE" height="2" style="stroke:#999999;stroke-width:0.5;" width="4" x="145.9807" y="89.2969"/><text fill="#000000" font-family="sans-serif" font-size="14" lengthAdjust="spacing" textLength="105.9707" x="37.01" y="111.292">MCAA Glossary</text></g><!--entity SMACNA--><g class="entity" data-entity="SMACNA" data-source-line="18" data-uid="ent0007" id="entity_SMACNA"><rect fill="#EEEEEE" height="46.2969" rx="2.5" ry="2.5" style="stroke:#999999;stroke-width:0.5;" width="100.3682" x="202.82" y="78.2969"/><rect fill="#EEEEEE" height="10" style="stroke:#999999;stroke-width:0.5;" width="15" x="283.1882" y="83.2969"/><rect fill="#EEEEEE" height="2" style="stroke:#999999;stroke-width:0.5;" width="4" x="281.1882" y="85.2969"/><rect fill="#EEEEEE" height="2" style="stroke:#999999;stroke-width:0.5;" width="4" x="281.1882" y="89.2969"/><text fill="#000000" font-family="sans-serif" font-size="14" lengthAdjust="spacing" textLength="60.3682" x="217.82" y="111.292">SMACNA</text></g><!--entity ASHRAE--><g class="entity" data-entity="ASHRAE" data-source-line="19" data-uid="ent0008" id="entity_ASHRAE"><rect fill="#EEEEEE" height="46.2969" rx="2.5" ry="2.5" style="stroke:#999999;stroke-width:0.5;" width="97.1416" x="338.43" y="78.2969"/><rect fill="#EEEEEE" height="10" style="stroke:#999999;stroke-width:0.5;" width="15" x="415.5716" y="83.2969"/><rect fill="#EEEEEE" height="2" style="stroke:#999999;stroke-width:0.5;" width="4" x="413.5716" y="85.2969"/><rect fill="#EEEEEE" height="2" style="stroke:#999999;stroke-width:0.5;" width="4" x="413.5716" y="89.2969"/><text fill="#000000" font-family="sans-serif" font-size="14" lengthAdjust="spacing" textLength="57.1416" x="353.43" y="111.292">ASHRAE</text></g><!--entity Taxonomy--><g class="entity" data-entity="Taxonomy" data-source-line="20" data-uid="ent0009" id="entity_Taxonomy"><rect fill="#EEEEEE" height="46.2969" rx="2.5" ry="2.5" style="stroke:#999999;stroke-width:0.5;" width="193.7881" x="470.11" y="78.2969"/><rect fill="#EEEEEE" height="10" style="stroke:#999999;stroke-width:0.5;" width="15" x="643.8981" y="83.2969"/><rect fill="#EEEEEE" height="2" style="stroke:#999999;stroke-width:0.5;" width="4" x="641.8981" y="85.2969"/><rect fill="#EEEEEE" height="2" style="stroke:#999999;stroke-width:0.5;" width="4" x="641.8981" y="89.2969"/><text fill="#000000" font-family="sans-serif" font-size="14" lengthAdjust="spacing" textLength="153.7881" x="485.11" y="111.292">Equipment Taxonomy</text></g><!--entity RefConfig--><g class="entity" data-entity="RefConfig" data-source-line="24" data-uid="ent0011" id="entity_RefConfig"><rect fill="#EEEEEE" height="46.2969" rx="2.5" ry="2.5" style="stroke:#999999;stroke-width:0.5;" width="187.5674" x="1740.22" y="78.2969"/><rect fill="#EEEEEE" height="10" style="stroke:#999999;stroke-width:0.5;" width="15" x="1907.7874" y="83.2969"/><rect fill="#EEEEEE" height="2" style="stroke:#999999;stroke-width:0.5;" width="4" x="1905.7874" y="85.2969"/><rect fill="#EEEEEE" height="2" style="stroke:#999999;stroke-width:0.5;" width="4" x="1905.7874" y="89.2969"/><text fill="#000000" font-family="sans-serif" font-size="14" lengthAdjust="spacing" textLength="147.5674" x="1755.22" y="111.292">reference_config.yml</text></g><!--entity EAVConfig--><g class="entity" data-entity="EAVConfig" data-source-line="25" data-uid="ent0012" id="entity_EAVConfig"><rect fill="#EEEEEE" height="46.2969" rx="2.5" ry="2.5" style="stroke:#999999;stroke-width:0.5;" width="224.1943" x="1962.9" y="78.2969"/><rect fill="#EEEEEE" height="10" style="stroke:#999999;stroke-width:0.5;" width="15" x="2167.0943" y="83.2969"/><rect fill="#EEEEEE" height="2" style="stroke:#999999;stroke-width:0.5;" width="4" x="2165.0943" y="85.2969"/><rect fill="#EEEEEE" height="2" style="stroke:#999999;stroke-width:0.5;" width="4" x="2165.0943" y="89.2969"/><text fill="#000000" font-family="sans-serif" font-size="14" lengthAdjust="spacing" textLength="184.1943" x="1977.9" y="111.292">equipment_attributes.json</text></g><!--entity MFPrimary--><g class="entity" data-entity="MFPrimary" data-source-line="26" data-uid="ent0013" id="entity_MFPrimary"><rect fill="#EEEEEE" height="46.2969" rx="2.5" ry="2.5" style="stroke:#999999;stroke-width:0.5;" width="231.1875" x="1474.41" y="78.2969"/><rect fill="#EEEEEE" height="10" style="stroke:#999999;stroke-width:0.5;" width="15" x="1685.5975" y="83.2969"/><rect fill="#EEEEEE" height="2" style="stroke:#999999;stroke-width:0.5;" width="4" x="1683.5975" y="85.2969"/><rect fill="#EEEEEE" height="2" style="stroke:#999999;stroke-width:0.5;" width="4" x="1683.5975" y="89.2969"/><text fill="#000000" font-family="sans-serif" font-size="14" lengthAdjust="spacing" textLength="191.1875" x="1489.41" y="111.292">masterformat_primary.json</text></g><!--entity MFEquipment--><g class="entity" data-entity="MFEquipment" data-source-line="27" data-uid="ent0014" id="entity_MFEquipment"><rect fill="#EEEEEE" height="46.2969" rx="2.5" ry="2.5" style="stroke:#999999;stroke-width:0.5;" width="252.1602" x="1186.92" y="78.2969"/><rect fill="#EEEEEE" height="10" style="stroke:#999999;stroke-width:0.5;" width="15" x="1419.0802" y="83.2969"/><rect fill="#EEEEEE" height="2" style="stroke:#999999;stroke-width:0.5;" width="4" x="1417.0802" y="85.2969"/><rect fill="#EEEEEE" height="2" style="stroke:#999999;stroke-width:0.5;" width="4" x="1417.0802" y="89.2969"/><text fill="#000000" font-family="sans-serif" font-size="14" lengthAdjust="spacing" textLength="212.1602" x="1201.92" y="111.292">masterformat_equipment.json</text></g><!--entity RefManager--><g class="entity" data-entity="RefManager" data-source-line="31" data-uid="ent0016" id="entity_RefManager"><rect fill="#EEEEEE" height="46.2969" rx="2.5" ry="2.5" style="stroke:#999999;stroke-width:0.5;" width="172.8018" x="816.6" y="224.5969"/><rect fill="#EEEEEE" height="10" style="stroke:#999999;stroke-width:0.5;" width="15" x="969.4018" y="229.5969"/><rect fill="#EEEEEE" height="2" style="stroke:#999999;stroke-width:0.5;" width="4" x="967.4018" y="231.5969"/><rect fill="#EEEEEE" height="2" style="stroke:#999999;stroke-width:0.5;" width="4" x="967.4018" y="235.5969"/><text fill="#000000" font-family="sans-serif" font-size="14" lengthAdjust="spacing" textLength="132.8018" x="831.6" y="257.592">ReferenceManager</text></g><!--entity EAVManager--><g class="entity" data-entity="EAVManager" data-source-line="32" data-uid="ent0017" id="entity_EAVManager"><rect fill="#EEEEEE" height="46.2969" rx="2.5" ry="2.5" style="stroke:#999999;stroke-width:0.5;" width="129.3662" x="1351.32" y="224.5969"/><rect fill="#EEEEEE" height="10" style="stroke:#999999;stroke-width:0.5;" width="15" x="1460.6862" y="229.5969"/><rect fill="#EEEEEE" height="2" style="stroke:#999999;stroke-width:0.5;" width="4" x="1458.6862" y="231.5969"/><rect fill="#EEEEEE" height="2" style="stroke:#999999;stroke-width:0.5;" width="4" x="1458.6862" y="235.5969"/><text fill="#000000" font-family="sans-serif" font-size="14" lengthAdjust="spacing" textLength="89.3662" x="1366.32" y="257.592">EAVManager</text></g><!--entity KeywordMapper--><g class="entity" data-entity="KeywordMapper" data-source-line="33" data-uid="ent0018" id="entity_KeywordMapper"><rect fill="#EEEEEE" height="46.2969" rx="2.5" ry="2.5" style="stroke:#999999;stroke-width:0.5;" width="246.1719" x="816.91" y="368.8869"/><rect fill="#EEEEEE" height="10" style="stroke:#999999;stroke-width:0.5;" width="15" x="1043.0819" y="373.8869"/><rect fill="#EEEEEE" height="2" style="stroke:#999999;stroke-width:0.5;" width="4" x="1041.0819" y="375.8869"/><rect fill="#EEEEEE" height="2" style="stroke:#999999;stroke-width:0.5;" width="4" x="1041.0819" y="379.8869"/><text fill="#000000" font-family="sans-serif" font-size="14" lengthAdjust="spacing" textLength="206.1719" x="831.91" y="401.882">KeywordClassificationMapper</text></g><!--entity ClassMapper--><g class="entity" data-entity="ClassMapper" data-source-line="34" data-uid="ent0019" id="entity_ClassMapper"><rect fill="#EEEEEE" height="46.2969" rx="2.5" ry="2.5" style="stroke:#999999;stroke-width:0.5;" width="237.6406" x="1165.18" y="368.8869"/><rect fill="#EEEEEE" height="10" style="stroke:#999999;stroke-width:0.5;" width="15" x="1382.8206" y="373.8869"/><rect fill="#EEEEEE" height="2" style="stroke:#999999;stroke-width:0.5;" width="4" x="1380.8206" y="375.8869"/><rect fill="#EEEEEE" height="2" style="stroke:#999999;stroke-width:0.5;" width="4" x="1380.8206" y="379.8869"/><text fill="#000000" font-family="sans-serif" font-size="14" lengthAdjust="spacing" textLength="197.6406" x="1180.18" y="401.882">ClassificationSystemMapper</text></g><!--entity EnhancedMapping--><g class="entity" data-entity="EnhancedMapping" data-source-line="35" data-uid="ent0020" id="entity_EnhancedMapping"><rect fill="#EEEEEE" height="46.2969" rx="2.5" ry="2.5" style="stroke:#999999;stroke-width:0.5;" width="291.8975" x="1024.05" y="224.5969"/><rect fill="#EEEEEE" height="10" style="stroke:#999999;stroke-width:0.5;" width="15" x="1295.9475" y="229.5969"/><rect fill="#EEEEEE" height="2" style="stroke:#999999;stroke-width:0.5;" width="4" x="1293.9475" y="231.5969"/><rect fill="#EEEEEE" height="2" style="stroke:#999999;stroke-width:0.5;" width="4" x="1293.9475" y="235.5969"/><text fill="#000000" font-family="sans-serif" font-size="14" lengthAdjust="spacing" textLength="251.8975" x="1039.05" y="257.592">enhanced_masterformat_mapping()</text></g><!--entity Preprocessing--><g class="entity" data-entity="Preprocessing" data-source-line="39" data-uid="ent0022" id="entity_Preprocessing"><rect fill="#EEEEEE" height="46.2969" rx="2.5" ry="2.5" style="stroke:#999999;stroke-width:0.5;" width="176.4453" x="2466.78" y="368.8869"/><rect fill="#EEEEEE" height="10" style="stroke:#999999;stroke-width:0.5;" width="15" x="2623.2253" y="373.8869"/><rect fill="#EEEEEE" height="2" style="stroke:#999999;stroke-width:0.5;" width="4" x="2621.2253" y="375.8869"/><rect fill="#EEEEEE" height="2" style="stroke:#999999;stroke-width:0.5;" width="4" x="2621.2253" y="379.8869"/><text fill="#000000" font-family="sans-serif" font-size="14" lengthAdjust="spacing" textLength="136.4453" x="2481.78" y="401.882">Data Preprocessing</text></g><!--entity Mapping--><g class="entity" data-entity="Mapping" data-source-line="40" data-uid="ent0023" id="entity_Mapping"><rect fill="#EEEEEE" height="46.2969" rx="2.5" ry="2.5" style="stroke:#999999;stroke-width:0.5;" width="137.959" x="2486.02" y="494.1869"/><rect fill="#EEEEEE" height="10" style="stroke:#999999;stroke-width:0.5;" width="15" x="2603.979" y="499.1869"/><rect fill="#EEEEEE" height="2" style="stroke:#999999;stroke-width:0.5;" width="4" x="2601.979" y="501.1869"/><rect fill="#EEEEEE" height="2" style="stroke:#999999;stroke-width:0.5;" width="4" x="2601.979" y="505.1869"/><text fill="#000000" font-family="sans-serif" font-size="14" lengthAdjust="spacing" textLength="97.959" x="2501.02" y="527.182">Data Mapping</text></g><!--entity FeatureEng--><g class="entity" data-entity="FeatureEng" data-source-line="41" data-uid="ent0024" id="entity_FeatureEng"><rect fill="#EEEEEE" height="46.2969" rx="2.5" ry="2.5" style="stroke:#999999;stroke-width:0.5;" width="182.4268" x="2463.79" y="601.4869"/><rect fill="#EEEEEE" height="10" style="stroke:#999999;stroke-width:0.5;" width="15" x="2626.2168" y="606.4869"/><rect fill="#EEEEEE" height="2" style="stroke:#999999;stroke-width:0.5;" width="4" x="2624.2168" y="608.4869"/><rect fill="#EEEEEE" height="2" style="stroke:#999999;stroke-width:0.5;" width="4" x="2624.2168" y="612.4869"/><text fill="#000000" font-family="sans-serif" font-size="14" lengthAdjust="spacing" textLength="142.4268" x="2478.79" y="634.482">Feature Engineering</text></g><!--entity Training--><g class="entity" data-entity="Training" data-source-line="42" data-uid="ent0025" id="entity_Training"><rect fill="#EEEEEE" height="46.2969" rx="2.5" ry="2.5" style="stroke:#999999;stroke-width:0.5;" width="143.7832" x="2464.11" y="708.7769"/><rect fill="#EEEEEE" height="10" style="stroke:#999999;stroke-width:0.5;" width="15" x="2587.8932" y="713.7769"/><rect fill="#EEEEEE" height="2" style="stroke:#999999;stroke-width:0.5;" width="4" x="2585.8932" y="715.7769"/><rect fill="#EEEEEE" height="2" style="stroke:#999999;stroke-width:0.5;" width="4" x="2585.8932" y="719.7769"/><text fill="#000000" font-family="sans-serif" font-size="14" lengthAdjust="spacing" textLength="103.7832" x="2479.11" y="741.772">Model Training</text></g><!--entity Prediction--><g class="entity" data-entity="Prediction" data-source-line="43" data-uid="ent0026" id="entity_Prediction"><rect fill="#EEEEEE" height="46.2969" rx="2.5" ry="2.5" style="stroke:#999999;stroke-width:0.5;" width="110.1025" x="2642.95" y="708.7769"/><rect fill="#EEEEEE" height="10" style="stroke:#999999;stroke-width:0.5;" width="15" x="2733.0525" y="713.7769"/><rect fill="#EEEEEE" height="2" style="stroke:#999999;stroke-width:0.5;" width="4" x="2731.0525" y="715.7769"/><rect fill="#EEEEEE" height="2" style="stroke:#999999;stroke-width:0.5;" width="4" x="2731.0525" y="719.7769"/><text fill="#000000" font-family="sans-serif" font-size="14" lengthAdjust="spacing" textLength="70.1025" x="2657.95" y="741.772">Prediction</text></g><g class="entity" data-entity="GMN52" data-source-line="83" data-uid="ent0053" id="entity_GMN52"><path d="M1513.18,371.9069 L1513.18,412.1725 L1838.8231,412.1725 L1838.8231,381.9069 L1828.8231,371.9069 L1513.18,371.9069 " fill="#EEEEEE" style="stroke:#999999;stroke-width:0.5;"/><path d="M1828.8231,371.9069 L1828.8231,381.9069 L1838.8231,381.9069 L1828.8231,371.9069 " fill="#EEEEEE" style="stroke:#999999;stroke-width:1;"/><text fill="#000000" font-family="sans-serif" font-size="13" lengthAdjust="spacing" textLength="304.6431" x="1519.18" y="388.9738">Loads and manages all reference data sources</text><text fill="#000000" font-family="sans-serif" font-size="13" lengthAdjust="spacing" textLength="200.7256" x="1519.18" y="404.1066">based on reference_config.yml</text></g><g class="entity" data-entity="GMN55" data-source-line="88" data-uid="ent0056" id="entity_GMN55"><path d="M2147.84,371.9069 L2147.84,412.1725 L2432.1598,412.1725 L2432.1598,381.9069 L2422.1598,371.9069 L2147.84,371.9069 " fill="#EEEEEE" style="stroke:#999999;stroke-width:0.5;"/><path d="M2422.1598,371.9069 L2422.1598,381.9069 L2432.1598,381.9069 L2422.1598,371.9069 " fill="#EEEEEE" style="stroke:#999999;stroke-width:1;"/><text fill="#000000" font-family="sans-serif" font-size="13" lengthAdjust="spacing" textLength="263.3198" x="2153.84" y="388.9738">Manages equipment attribute templates</text><text fill="#000000" font-family="sans-serif" font-size="13" lengthAdjust="spacing" textLength="234.7363" x="2153.84" y="404.1066">based on equipment_attributes.json</text></g><g class="entity" data-entity="GMN58" data-source-line="93" data-uid="ent0059" id="entity_GMN58"><path d="M796.74,497.2069 L796.74,537.4725 A0,0 0 0 0 796.74,537.4725 L1083.2625,537.4725 A0,0 0 0 0 1083.2625,537.4725 L1083.2625,507.2069 L1073.2625,497.2069 L944,497.2069 L940,415.6569 L936,497.2069 L796.74,497.2069 A0,0 0 0 0 796.74,497.2069 " fill="#EEEEEE" style="stroke:#999999;stroke-width:0.5;"/><path d="M1073.2625,497.2069 L1073.2625,507.2069 L1083.2625,507.2069 L1073.2625,497.2069 " fill="#EEEEEE" style="stroke:#999999;stroke-width:0.5;"/><text fill="#000000" font-family="sans-serif" font-size="13" lengthAdjust="spacing" textLength="209.0601" x="802.74" y="514.2738">Maps equipment descriptions to</text><text fill="#000000" font-family="sans-serif" font-size="13" lengthAdjust="spacing" textLength="265.5225" x="802.74" y="529.4066">classification system IDs using keywords</text></g><g class="entity" data-entity="GMN61" data-source-line="98" data-uid="ent0062" id="entity_GMN61"><path d="M1123.25,497.2069 L1123.25,537.4725 A0,0 0 0 0 1123.25,537.4725 L1444.7544,537.4725 A0,0 0 0 0 1444.7544,537.4725 L1444.7544,507.2069 L1434.7544,497.2069 L1288,497.2069 L1284,415.6569 L1280,497.2069 L1123.25,497.2069 A0,0 0 0 0 1123.25,497.2069 " fill="#EEEEEE" style="stroke:#999999;stroke-width:0.5;"/><path d="M1434.7544,497.2069 L1434.7544,507.2069 L1444.7544,507.2069 L1434.7544,497.2069 " fill="#EEEEEE" style="stroke:#999999;stroke-width:0.5;"/><text fill="#000000" font-family="sans-serif" font-size="13" lengthAdjust="spacing" textLength="300.5044" x="1129.25" y="514.2738">Maps between different classification systems</text><text fill="#000000" font-family="sans-serif" font-size="13" lengthAdjust="spacing" textLength="220.105" x="1129.25" y="529.4066">(e.g., Uniformat to MasterFormat)</text></g><!--link OmniClass to RefManager--><g class="link" data-entity-1="OmniClass" data-entity-2="RefManager" data-source-line="47" data-uid="lnk27" id="link_OmniClass_RefManager"><path d="M778.97,124.9869 C806.59,152.0969 848.3687,193.1133 875.9087,220.1533 " fill="none" id="OmniClass-to-RefManager" style="stroke:#666666;stroke-width:1;"/><polygon fill="#666666" points="880.19,224.3569,876.5704,215.1973,876.6222,220.8539,870.9656,220.9057,880.19,224.3569" style="stroke:#666666;stroke-width:1;"/></g><!--link Uniformat to RefManager--><g class="link" data-entity-1="Uniformat" data-entity-2="RefManager" data-source-line="48" data-uid="lnk28" id="link_Uniformat_RefManager"><path d="M903,124.9869 C903,152.0969 903,191.3169 903,218.3569 " fill="none" id="Uniformat-to-RefManager" style="stroke:#666666;stroke-width:1;"/><polygon fill="#666666" points="903,224.3569,907,215.3569,903,219.3569,899,215.3569,903,224.3569" style="stroke:#666666;stroke-width:1;"/></g><!--link MasterFormat to RefManager--><g class="link" data-entity-1="MasterFormat" data-entity-2="RefManager" data-source-line="49" data-uid="lnk29" id="link_MasterFormat_RefManager"><path d="M1037.16,124.9869 C1007.37,152.0169 962.1925,193.014 932.3725,220.084 " fill="none" id="MasterFormat-to-RefManager" style="stroke:#666666;stroke-width:1;"/><polygon fill="#666666" points="927.93,224.1169,937.2824,221.0293,931.6321,220.7562,931.9052,215.1059,927.93,224.1169" style="stroke:#666666;stroke-width:1;"/></g><!--link MCAA to RefManager--><g class="link" data-entity-1="MCAA" data-entity-2="RefManager" data-source-line="50" data-uid="lnk30" id="link_MCAA_RefManager"><path d="M132.38,124.9869 C148.14,133.5769 166.97,142.7069 185,148.5969 C404.78,220.2969 672.9743,239.3993 810.2343,244.6093 " fill="none" id="MCAA-to-RefManager" style="stroke:#666666;stroke-width:1;"/><polygon fill="#666666" points="816.23,244.8369,807.3882,240.4984,811.2336,244.6472,807.0848,248.4926,816.23,244.8369" style="stroke:#666666;stroke-width:1;"/></g><!--link SMACNA to RefManager--><g class="link" data-entity-1="SMACNA" data-entity-2="RefManager" data-source-line="51" data-uid="lnk31" id="link_SMACNA_RefManager"><path d="M280.24,124.8869 C292.1,133.5769 306.57,142.7969 321,148.5969 C488.13,215.6669 694.1,236.5612 810.56,243.2812 " fill="none" id="SMACNA-to-RefManager" style="stroke:#666666;stroke-width:1;"/><polygon fill="#666666" points="816.55,243.6269,807.7954,239.1151,811.5583,243.3388,807.3345,247.1018,816.55,243.6269" style="stroke:#666666;stroke-width:1;"/></g><!--link ASHRAE to RefManager--><g class="link" data-entity-1="ASHRAE" data-entity-2="RefManager" data-source-line="52" data-uid="lnk32" id="link_ASHRAE_RefManager"><path d="M414.12,125.0469 C425.52,133.5469 439.29,142.5969 453,148.5969 C469.67,155.8869 684.2064,201.1916 810.2364,227.4816 " fill="none" id="ASHRAE-to-RefManager" style="stroke:#666666;stroke-width:1;"/><polygon fill="#666666" points="816.11,228.7069,808.1165,222.9533,811.2154,227.6858,806.4828,230.7847,816.11,228.7069" style="stroke:#666666;stroke-width:1;"/></g><!--link Taxonomy to RefManager--><g class="link" data-entity-1="Taxonomy" data-entity-2="RefManager" data-source-line="53" data-uid="lnk33" id="link_Taxonomy_RefManager"><path d="M619.5,124.9869 C682.44,152.0169 781.7769,194.6791 844.8069,221.7491 " fill="none" id="Taxonomy-to-RefManager" style="stroke:#666666;stroke-width:1;"/><polygon fill="#666666" points="850.32,224.1169,843.6289,216.8899,845.7258,222.1438,840.4719,224.2406,850.32,224.1169" style="stroke:#666666;stroke-width:1;"/></g><!--link RefConfig to RefManager--><g class="link" data-entity-1="RefConfig" data-entity-2="RefManager" data-source-line="56" data-uid="lnk34" id="link_RefConfig_RefManager"><path d="M1788.03,125.0469 C1768.43,133.7569 1745.04,142.9569 1723,148.5969 C1621.67,174.4869 1593.39,167.1669 1489,173.5969 C1462.27,175.2369 1032.68,173.9869 1007,181.5969 C978.2,190.1269 954.3324,205.3773 934.4324,220.6273 " fill="none" id="RefConfig-to-RefManager" style="stroke:#666666;stroke-width:1;"/><polygon fill="#666666" points="929.67,224.2769,939.2467,221.9774,933.6387,221.2356,934.3806,215.6276,929.67,224.2769" style="stroke:#666666;stroke-width:1;"/><text fill="#000000" font-family="sans-serif" font-size="13" lengthAdjust="spacing" textLength="68.1357" x="1685" y="169.6638">configures</text></g><!--link EAVConfig to EAVManager--><g class="link" data-entity-1="EAVConfig" data-entity-2="EAVManager" data-source-line="57" data-uid="lnk35" id="link_EAVConfig_EAVManager"><path d="M2017.7,124.9869 C1995.27,133.2269 1969.17,142.1069 1945,148.5969 C1780.36,192.7969 1587.5611,223.0184 1487.0111,237.2084 " fill="none" id="EAVConfig-to-EAVManager" style="stroke:#666666;stroke-width:1;"/><polygon fill="#666666" points="1481.07,238.0469,1490.5407,240.75,1486.0209,237.3482,1489.4227,232.8285,1481.07,238.0469" style="stroke:#666666;stroke-width:1;"/><text fill="#000000" font-family="sans-serif" font-size="13" lengthAdjust="spacing" textLength="68.1357" x="1903" y="169.6638">configures</text></g><!--link MFPrimary to EnhancedMapping--><g class="link" data-entity-1="MFPrimary" data-entity-2="EnhancedMapping" data-source-line="58" data-uid="lnk36" id="link_MFPrimary_EnhancedMapping"><path d="M1527.72,125.0869 C1505.51,132.8869 1480.25,141.4469 1457,148.5969 C1402.9,165.2169 1387.72,163.7769 1334,181.5969 C1296.05,194.1769 1259.7063,208.5439 1227.7763,221.8839 " fill="none" id="MFPrimary-to-EnhancedMapping" style="stroke:#666666;stroke-width:1;"/><polygon fill="#666666" points="1222.24,224.1969,1232.0864,224.4182,1226.8535,222.2694,1229.0024,217.0366,1222.24,224.1969" style="stroke:#666666;stroke-width:1;"/><text fill="#000000" font-family="sans-serif" font-size="13" lengthAdjust="spacing" textLength="51.3398" x="1429" y="169.6638">used by</text></g><!--link MFEquipment to EnhancedMapping--><g class="link" data-entity-1="MFEquipment" data-entity-2="EnhancedMapping" data-source-line="59" data-uid="lnk37" id="link_MFEquipment_EnhancedMapping"><path d="M1290.66,124.9869 C1263.79,152.0969 1223.2029,193.0546 1196.4129,220.0946 " fill="none" id="MFEquipment-to-EnhancedMapping" style="stroke:#666666;stroke-width:1;"/><polygon fill="#666666" points="1192.19,224.3569,1201.3659,220.7787,1195.7091,220.805,1195.6828,215.1482,1192.19,224.3569" style="stroke:#666666;stroke-width:1;"/><text fill="#000000" font-family="sans-serif" font-size="13" lengthAdjust="spacing" textLength="51.3398" x="1259" y="169.6638">used by</text></g><!--link RefManager to KeywordMapper--><g class="link" data-entity-1="RefManager" data-entity-2="KeywordMapper" data-source-line="62" data-uid="lnk38" id="link_RefManager_KeywordMapper"><path d="M893.35,271.1669 C888.79,284.8569 885.27,302.5969 890,317.8869 C895.81,336.6969 904.5248,350.3316 915.5748,363.9216 " fill="none" id="RefManager-to-KeywordMapper" style="stroke:#666666;stroke-width:1;"/><polygon fill="#666666" points="919.36,368.5769,916.7857,359.0704,916.2056,364.6974,910.5786,364.1174,919.36,368.5769" style="stroke:#666666;stroke-width:1;"/><text fill="#000000" font-family="sans-serif" font-size="13" lengthAdjust="spacing" textLength="156.0698" x="891" y="313.9538">provides reference data</text></g><!--link RefManager to ClassMapper--><g class="link" data-entity-1="RefManager" data-entity-2="ClassMapper" data-source-line="63" data-uid="lnk39" id="link_RefManager_ClassMapper"><path d="M974.72,271.3769 C999.51,279.8569 1027.27,290.0669 1052,300.8869 C1066.75,307.3469 1069.29,311.3269 1084,317.8869 C1126.71,336.9369 1170.3768,353.0737 1209.3568,366.4937 " fill="none" id="RefManager-to-ClassMapper" style="stroke:#666666;stroke-width:1;"/><polygon fill="#666666" points="1215.03,368.4469,1207.8223,361.735,1210.3023,366.8192,1205.2181,369.2993,1215.03,368.4469" style="stroke:#666666;stroke-width:1;"/><text fill="#000000" font-family="sans-serif" font-size="13" lengthAdjust="spacing" textLength="156.0698" x="1085" y="313.9538">provides reference data</text></g><!--link EAVManager to FeatureEng--><g class="link" data-entity-1="EAVManager" data-entity-2="FeatureEng" data-source-line="64" data-uid="lnk40" id="link_EAVManager_FeatureEng"><path d="M1481.16,250.1769 C1624.64,253.9569 1958.08,266.3969 1995,300.8869 C2048.7,351.0569 1978.11,404.5169 2021,464.1869 C2081.02,547.6869 2128.37,539.1669 2226,571.4869 C2303.82,597.2469 2390.3595,609.8731 2457.4295,616.5431 " fill="none" id="EAVManager-to-FeatureEng" style="stroke:#666666;stroke-width:1;"/><polygon fill="#666666" points="2463.4,617.1369,2454.84,612.2659,2458.4245,616.6421,2454.0483,620.2266,2463.4,617.1369" style="stroke:#666666;stroke-width:1;"/><text fill="#000000" font-family="sans-serif" font-size="13" lengthAdjust="spacing" textLength="186.3037" x="2022" y="460.2538">provides attribute templates</text></g><!--link EAVManager to FeatureEng--><g class="link" data-entity-1="EAVManager" data-entity-2="FeatureEng" data-source-line="77" data-uid="lnk49" id="link_EAVManager_FeatureEng"><path d="M1480.91,251.2769 C1628.51,257.4769 1980.14,274.8069 2027,300.8869 C2093.97,338.1669 2063.24,401.5469 2130,439.1869 C2162.28,457.3869 2177.45,436.7269 2213,447.1869 C2334.14,482.8369 2457.8135,558.71 2516.8735,597.72 " fill="none" id="EAVManager-to-FeatureEng-1" style="stroke:#666666;stroke-width:1;"/><polygon fill="#666666" points="2521.88,601.0269,2516.5749,592.729,2517.7079,598.2712,2512.1657,599.4043,2521.88,601.0269" style="stroke:#666666;stroke-width:1;"/><text fill="#000000" font-family="sans-serif" font-size="13" lengthAdjust="spacing" textLength="132.2471" x="2263" y="460.2538">attribute integration</text></g><!--link EAVManager to Prediction--><g class="link" data-entity-1="EAVManager" data-entity-2="Prediction" data-source-line="65" data-uid="lnk41" id="link_EAVManager_Prediction"><path d="M1480.8,250.5869 C1709.67,257.4069 2479.31,283.0569 2722,325.8869 C2821.58,343.4669 2940,289.9169 2940,391.0369 C2940,391.0369 2940,391.0369 2940,625.6269 C2940,706.4969 2830.9594,725.5498 2759.5094,729.8098 " fill="none" id="EAVManager-to-Prediction" style="stroke:#666666;stroke-width:1;"/><polygon fill="#666666" points="2753.52,730.1669,2762.7421,733.6241,2758.5111,729.8693,2762.266,725.6383,2753.52,730.1669" style="stroke:#666666;stroke-width:1;"/><text fill="#000000" font-family="sans-serif" font-size="13" lengthAdjust="spacing" textLength="186.3037" x="2941" y="521.9038">provides attribute templates</text></g><!--link EAVManager to Prediction--><g class="link" data-entity-1="EAVManager" data-entity-2="Prediction" data-source-line="79" data-uid="lnk51" id="link_EAVManager_Prediction"><path d="M1481,250.4569 C1801.49,259.3469 3198,303.1169 3198,391.0369 C3198,391.0369 3198,391.0369 3198,625.6269 C3198,715.6669 2889.5995,729.0481 2759.4195,730.7581 " fill="none" id="EAVManager-to-Prediction-1" style="stroke:#666666;stroke-width:1;"/><polygon fill="#666666" points="2753.42,730.8369,2762.4718,734.7183,2758.4196,730.7712,2762.3667,726.719,2753.42,730.8369" style="stroke:#666666;stroke-width:1;"/><text fill="#000000" font-family="sans-serif" font-size="13" lengthAdjust="spacing" textLength="126.293" x="3199" y="521.9038">attribute templates</text></g><!--link EnhancedMapping to ClassMapper--><g class="link" data-entity-1="EnhancedMapping" data-entity-2="ClassMapper" data-source-line="66" data-uid="lnk42" id="link_EnhancedMapping_ClassMapper"><path d="M1215.08,271.1469 C1227.71,279.1369 1240.55,289.1269 1250,300.8869 C1266.03,320.8369 1273.6481,343.3106 1278.3081,362.8506 " fill="none" id="EnhancedMapping-to-ClassMapper" style="stroke:#666666;stroke-width:1;"/><polygon fill="#666666" points="1279.7,368.6869,1281.5031,359.0045,1278.5401,363.8233,1273.7213,360.8603,1279.7,368.6869" style="stroke:#666666;stroke-width:1;"/><text fill="#000000" font-family="sans-serif" font-size="13" lengthAdjust="spacing" textLength="51.3398" x="1261" y="313.9538">used by</text></g><!--link Preprocessing to Mapping--><g class="link" data-entity-1="Preprocessing" data-entity-2="Mapping" data-source-line="69" data-uid="lnk43" id="link_Preprocessing_Mapping"><path d="M2555,415.6569 C2555,437.8969 2555,465.6669 2555,487.8669 " fill="none" id="Preprocessing-to-Mapping" style="stroke:#666666;stroke-width:1;"/><polygon fill="#666666" points="2555,493.8669,2559,484.8669,2555,488.8669,2551,484.8669,2555,493.8669" style="stroke:#666666;stroke-width:1;"/></g><!--link Mapping to FeatureEng--><g class="link" data-entity-1="Mapping" data-entity-2="FeatureEng" data-source-line="70" data-uid="lnk44" id="link_Mapping_FeatureEng"><path d="M2555,540.9269 C2555,558.6869 2555,577.3269 2555,595.0769 " fill="none" id="Mapping-to-FeatureEng" style="stroke:#666666;stroke-width:1;"/><polygon fill="#666666" points="2555,601.0769,2559,592.0769,2555,596.0769,2551,592.0769,2555,601.0769" style="stroke:#666666;stroke-width:1;"/></g><!--link FeatureEng to Training--><g class="link" data-entity-1="FeatureEng" data-entity-2="Training" data-source-line="71" data-uid="lnk45" id="link_FeatureEng_Training"><path d="M2550.92,648.2169 C2547.72,665.9869 2544.3339,684.712 2541.1339,702.472 " fill="none" id="FeatureEng-to-Training" style="stroke:#666666;stroke-width:1;"/><polygon fill="#666666" points="2540.07,708.3769,2545.6025,700.2288,2540.9566,703.4561,2537.7293,698.8102,2540.07,708.3769" style="stroke:#666666;stroke-width:1;"/></g><!--link FeatureEng to Prediction--><g class="link" data-entity-1="FeatureEng" data-entity-2="Prediction" data-source-line="72" data-uid="lnk46" id="link_FeatureEng_Prediction"><path d="M2585.68,648.2169 C2609.8,665.9869 2638.4292,687.0584 2662.5392,704.8184 " fill="none" id="FeatureEng-to-Prediction" style="stroke:#666666;stroke-width:1;"/><polygon fill="#666666" points="2667.37,708.3769,2662.4961,699.8185,2663.3443,705.4114,2657.7514,706.2597,2667.37,708.3769" style="stroke:#666666;stroke-width:1;"/></g><!--link RefManager to Preprocessing--><g class="link" data-entity-1="RefManager" data-entity-2="Preprocessing" data-source-line="75" data-uid="lnk47" id="link_RefManager_Preprocessing"><path d="M989.63,268.3669 C995.49,269.3369 1001.32,270.1869 1007,270.8869 C1192.82,293.8069 1667.07,256.6769 1849,300.8869 C1866.19,305.0669 1867.76,313.8969 1885,317.8869 C1946.16,332.0569 2389.74,308.2569 2450,325.8869 C2479.03,334.3869 2503.1615,349.6584 2523.2715,364.9284 " fill="none" id="RefManager-to-Preprocessing" style="stroke:#666666;stroke-width:1;"/><polygon fill="#666666" points="2528.05,368.5569,2523.3012,359.9285,2524.0679,365.5332,2518.4632,366.2999,2528.05,368.5569" style="stroke:#666666;stroke-width:1;"/><text fill="#000000" font-family="sans-serif" font-size="13" lengthAdjust="spacing" textLength="100.1025" x="1886" y="313.9538">validation rules</text></g><!--link RefManager to FeatureEng--><g class="link" data-entity-1="RefManager" data-entity-2="FeatureEng" data-source-line="76" data-uid="lnk48" id="link_RefManager_FeatureEng"><path d="M989.66,268.1769 C995.51,269.1869 1001.33,270.1069 1007,270.8869 C1100.64,283.8269 1791.35,256.9169 1856,325.8869 C1890.44,362.6269 1873.71,392.0469 1856,439.1869 C1854.34,443.6069 1850.66,442.7669 1849,447.1869 C1846.34,454.2569 1844.77,457.9269 1849,464.1869 C1899.67,539.2769 1950.9,515.5769 2038,540.4869 C2183.75,582.1669 2353.0114,604.2138 2457.4714,614.9438 " fill="none" id="RefManager-to-FeatureEng" style="stroke:#666666;stroke-width:1;"/><polygon fill="#666666" points="2463.44,615.5569,2454.8958,610.6582,2458.4662,615.046,2454.0784,618.6163,2463.44,615.5569" style="stroke:#666666;stroke-width:1;"/><text fill="#000000" font-family="sans-serif" font-size="13" lengthAdjust="spacing" textLength="152.2295" x="1850" y="460.2538">classification mappings</text></g><!--link RefManager to Prediction--><g class="link" data-entity-1="RefManager" data-entity-2="Prediction" data-source-line="78" data-uid="lnk50" id="link_RefManager_Prediction"><path d="M989.63,268.4069 C995.49,269.3569 1001.32,270.2069 1007,270.8869 C1441.38,323.3369 1553.71,286.0669 1991,300.8869 C1995.65,301.0469 2657.62,322.6869 2661,325.8869 C2716.42,378.4069 2704.9975,625.2294 2699.9975,702.4794 " fill="none" id="RefManager-to-Prediction" style="stroke:#666666;stroke-width:1;"/><polygon fill="#666666" points="2699.61,708.4669,2704.183,699.744,2699.9329,703.4773,2696.1997,699.2273,2699.61,708.4669" style="stroke:#666666;stroke-width:1;"/><text fill="#000000" font-family="sans-serif" font-size="13" lengthAdjust="spacing" textLength="172.231" x="2704" y="521.9038">validation &amp; enhancement</text></g><!--link RefManager to GMN52--><g class="link" data-entity-1="RefManager" data-entity-2="GMN52" data-source-line="83" data-uid="lnk54" id="link_RefManager_GMN52"><path d="M989.69,267.9769 C995.53,269.0369 1001.34,270.0169 1007,270.8869 C1223.6,304.1869 1284.4,272.7169 1497,325.8869 C1543.52,337.5269 1594.77,356.8769 1630.46,371.4769 " fill="none" id="RefManager-GMN52" style="stroke:#666666;stroke-width:1;stroke-dasharray:7.0,7.0;"/></g><!--link EAVManager to GMN55--><g class="link" data-entity-1="EAVManager" data-entity-2="GMN55" data-source-line="88" data-uid="lnk57" id="link_EAVManager_GMN55"><path d="M1480.98,250.1169 C1631.82,253.8669 2001.94,266.4069 2121,300.8869 C2174.34,316.3369 2230.01,349.9969 2262.27,371.5269 " fill="none" id="EAVManager-GMN55" style="stroke:#666666;stroke-width:1;stroke-dasharray:7.0,7.0;"/></g><!--SRC=[XLPBRziu4BxhLmnQODC0JOu5jeS2gcFl5gtIeCxsKXG1BOqTRYHIIr9rZQB_VOSFKHJZE3uOvimtx_b8dy7Q75g41hTSSCEbq8L-uA9dYdMmOVN3Jib1D0lPIWNxUsumqPTAoRrNlNpZFebo8RjU2XJclLGDgW3xqtsEmh9WBvVkaq2lfS7JpXpY2J_56Tnoqs9Xx3TSuyz1Lv_W2svHeQWHhfXXy44Ot2bcEs4jOdQwwCalso6yo2pMSb0rwXVmgm3uzhaJVD4ohRy3qn1FLlMFu5kfEcQSAfwigcBQe5fDsbJW08koXBzQgJLJ1uyWYTMigt9nNJgH_sc5vVhlB-NI2VrFArp-D_2-erhWblsKGdRUqNWeVXTJZGifjdmt-4R0YhUnG3LMVrSxpEMXQvqVQektiYWSOzqnOnJV30RrvRzQ2WTTbbydQETAzRsuwnNlgC89MgrklEWHD8P8mR76h1g5oIX39N6E5HC4KsCLuUXQLdvDbTFHAZ_YOK_RwERBjxnslQfOtmTqq7k9DPWZrmSgfalmJZsXKTmpIgwvcrNTaPwBtQjpdr30L5uwAzejvwgL-r2kEzyex9MaTTK4TovcaeWB3iCkUkUaMo4p0_LoANPS8AeH4kHBZwfaWotSAaPNIW2C1wkcY0slRGl61CBHfdz64sXTV_GzxpLS90GDJ0CZOHn391XSNBnBXnVfbIjIPZtIMPPbCa-gNEfPbKj7AkNo8rND2JPLf8l8eymBl8Kw6A4k8eKSQbhCEIgonwFcsqBGGMC3cqEH4ESPv95Ininj5SbzcMHkNSxOG0vfwNxmXgOPBnHeQFDoiuGK9uoI-gtHj8wfJRo9W7ZNKms-ZQdXj8lF6cOTUfphYOv5QXOpzZad8zjInmczajAi9l8gaoUaSl77RYNF6zn8VcHEyupUmW_MyiORg86UWHm_wtKzk-4WN5Rwv7ocxlBaxNsSrJIO9AK_85oJxiu_DSrZGwJMs7yCkX3q3HjfZEn0RkUFm2V96je1qL0vLaQ_spPRGD3-QYBuXjcvssuTUIWB93SsM967d3qjLGWKdxYZsIUnddnkdmwOlqxq8mr8Uryhthkj9M8J89kjTiyNVBZIjEbsLHwyG_rqoFa3vm9kqEmH1JHywxfbZeUnnRx2oztbw-b_axyqfylyF0R-7m00]--></g></svg>