<svg xmlns="http://www.w3.org/2000/svg" xmlns:xlink="http://www.w3.org/1999/xlink" contentStyleType="text/css" data-diagram-type="SEQUENCE" height="753px" preserveAspectRatio="none" style="width:1689px;height:753px;background:#FFFFFF;" version="1.1" viewBox="0 0 1689 753" width="1689px" zoomAndPan="magnify"><title>NexusML Model Training Sequence</title><defs/><g><text fill="#000000" font-family="sans-serif" font-size="14" font-weight="bold" lengthAdjust="spacing" textLength="276.1582" x="705.6909" y="27.9951">NexusML Model Training Sequence</text><g><title>train_model_pipeline.py</title><rect fill="#FFFFFF" height="505.125" style="stroke:#999999;stroke-width:1;" width="10" x="290.9878" y="149.7266"/></g><g><title>load_and_preprocess_data()</title><rect fill="#FFFFFF" height="29.1328" style="stroke:#999999;stroke-width:1;" width="10" x="568.3271" y="178.8594"/></g><g><title>map_staging_to_model_input()</title><rect fill="#FFFFFF" height="29.1328" style="stroke:#999999;stroke-width:1;" width="10" x="798.6597" y="237.125"/></g><g><title>GenericFeatureEngineer</title><rect fill="#FFFFFF" height="29.1328" style="stroke:#999999;stroke-width:1;" width="10" x="1015.7612" y="295.3906"/></g><g><title>build_enhanced_model()</title><rect fill="#FFFFFF" height="29.1328" style="stroke:#999999;stroke-width:1;" width="10" x="1211.0459" y="437.9219"/></g><g><title>RandomForestClassifier</title><rect fill="#FFFFFF" height="29.1328" style="stroke:#999999;stroke-width:1;" width="10" x="1403.9961" y="496.1875"/></g><g><title>enhanced_evaluation()</title><rect fill="#FFFFFF" height="29.1328" style="stroke:#999999;stroke-width:1;" width="10" x="1591.2554" y="554.4531"/></g><g><title>User</title><rect fill="#000000" fill-opacity="0.00000" height="554.2578" width="8" x="19.9551" y="118.5938"/><line style="stroke:#999999;stroke-width:0.5;stroke-dasharray:5.0,5.0;" x1="23" x2="23" y1="118.5938" y2="672.8516"/></g><g><title>train_model_pipeline.py</title><rect fill="#000000" fill-opacity="0.00000" height="554.2578" width="8" x="291.9878" y="118.5938"/><line style="stroke:#999999;stroke-width:0.5;stroke-dasharray:5.0,5.0;" x1="295.3159" x2="295.3159" y1="118.5938" y2="672.8516"/></g><g><title>load_and_preprocess_data()</title><rect fill="#000000" fill-opacity="0.00000" height="554.2578" width="8" x="569.3271" y="118.5938"/><line style="stroke:#999999;stroke-width:0.5;stroke-dasharray:5.0,5.0;" x1="572.7871" x2="572.7871" y1="118.5938" y2="672.8516"/></g><g><title>map_staging_to_model_input()</title><rect fill="#000000" fill-opacity="0.00000" height="554.2578" width="8" x="799.6597" y="118.5938"/><line style="stroke:#999999;stroke-width:0.5;stroke-dasharray:5.0,5.0;" x1="802.8672" x2="802.8672" y1="118.5938" y2="672.8516"/></g><g><title>GenericFeatureEngineer</title><rect fill="#000000" fill-opacity="0.00000" height="554.2578" width="8" x="1016.7612" y="118.5938"/><line style="stroke:#999999;stroke-width:0.5;stroke-dasharray:5.0,5.0;" x1="1020.4521" x2="1020.4521" y1="118.5938" y2="672.8516"/></g><g><title>build_enhanced_model()</title><rect fill="#000000" fill-opacity="0.00000" height="554.2578" width="8" x="1212.0459" y="118.5938"/><line style="stroke:#999999;stroke-width:0.5;stroke-dasharray:5.0,5.0;" x1="1215.0703" x2="1215.0703" y1="118.5938" y2="672.8516"/></g><g><title>RandomForestClassifier</title><rect fill="#000000" fill-opacity="0.00000" height="554.2578" width="8" x="1404.9961" y="118.5938"/><line style="stroke:#999999;stroke-width:0.5;stroke-dasharray:5.0,5.0;" x1="1408.0215" x2="1408.0215" y1="118.5938" y2="672.8516"/></g><g><title>enhanced_evaluation()</title><rect fill="#000000" fill-opacity="0.00000" height="554.2578" width="8" x="1592.2554" y="118.5938"/><line style="stroke:#999999;stroke-width:0.5;stroke-dasharray:5.0,5.0;" x1="1595.9707" x2="1595.9707" y1="118.5938" y2="672.8516"/></g><g class="participant participant-head" data-participant="User"><text fill="#000000" font-family="sans-serif" font-size="14" lengthAdjust="spacing" textLength="31.9102" x="5" y="115.292">User</text><ellipse cx="23.9551" cy="50.7969" fill="#E2E2F0" rx="8" ry="8" style="stroke:#181818;stroke-width:0.5;"/><path d="M23.9551,58.7969 L23.9551,85.7969 M10.9551,66.7969 L36.9551,66.7969 M23.9551,85.7969 L10.9551,100.7969 M23.9551,85.7969 L36.9551,100.7969 " fill="none" style="stroke:#181818;stroke-width:0.5;"/></g><g class="participant participant-tail" data-participant="User"><text fill="#000000" font-family="sans-serif" font-size="14" lengthAdjust="spacing" textLength="31.9102" x="5" y="684.8467">User</text><ellipse cx="23.9551" cy="696.6484" fill="#E2E2F0" rx="8" ry="8" style="stroke:#181818;stroke-width:0.5;"/><path d="M23.9551,704.6484 L23.9551,731.6484 M10.9551,712.6484 L36.9551,712.6484 M23.9551,731.6484 L10.9551,746.6484 M23.9551,731.6484 L36.9551,746.6484 " fill="none" style="stroke:#181818;stroke-width:0.5;"/></g><g class="participant participant-head" data-participant="TrainPipeline"><rect fill="#EEEEEE" height="30.2969" rx="2.5" ry="2.5" style="stroke:#999999;stroke-width:0.5;" width="181.3438" x="205.3159" y="87.2969"/><text fill="#000000" font-family="sans-serif" font-size="14" lengthAdjust="spacing" textLength="167.3438" x="212.3159" y="107.292">train_model_pipeline.py</text></g><g class="participant participant-tail" data-participant="TrainPipeline"><rect fill="#EEEEEE" height="30.2969" rx="2.5" ry="2.5" style="stroke:#999999;stroke-width:0.5;" width="181.3438" x="205.3159" y="671.8516"/><text fill="#000000" font-family="sans-serif" font-size="14" lengthAdjust="spacing" textLength="167.3438" x="212.3159" y="691.8467">train_model_pipeline.py</text></g><g class="participant participant-head" data-participant="DataLoader"><rect fill="#EEEEEE" height="30.2969" rx="2.5" ry="2.5" style="stroke:#999999;stroke-width:0.5;" width="211.0801" x="467.7871" y="87.2969"/><text fill="#000000" font-family="sans-serif" font-size="14" lengthAdjust="spacing" textLength="197.0801" x="474.7871" y="107.292">load_and_preprocess_data()</text></g><g class="participant participant-tail" data-participant="DataLoader"><rect fill="#EEEEEE" height="30.2969" rx="2.5" ry="2.5" style="stroke:#999999;stroke-width:0.5;" width="211.0801" x="467.7871" y="671.8516"/><text fill="#000000" font-family="sans-serif" font-size="14" lengthAdjust="spacing" textLength="197.0801" x="474.7871" y="691.8467">load_and_preprocess_data()</text></g><g class="participant participant-head" data-participant="DataMapper"><rect fill="#EEEEEE" height="30.2969" rx="2.5" ry="2.5" style="stroke:#999999;stroke-width:0.5;" width="229.585" x="688.8672" y="87.2969"/><text fill="#000000" font-family="sans-serif" font-size="14" lengthAdjust="spacing" textLength="215.585" x="695.8672" y="107.292">map_staging_to_model_input()</text></g><g class="participant participant-tail" data-participant="DataMapper"><rect fill="#EEEEEE" height="30.2969" rx="2.5" ry="2.5" style="stroke:#999999;stroke-width:0.5;" width="229.585" x="688.8672" y="671.8516"/><text fill="#000000" font-family="sans-serif" font-size="14" lengthAdjust="spacing" textLength="215.585" x="695.8672" y="691.8467">map_staging_to_model_input()</text></g><g class="participant participant-head" data-participant="FeatureEngineer"><rect fill="#EEEEEE" height="30.2969" rx="2.5" ry="2.5" style="stroke:#999999;stroke-width:0.5;" width="184.6182" x="928.4521" y="87.2969"/><text fill="#000000" font-family="sans-serif" font-size="14" lengthAdjust="spacing" textLength="170.6182" x="935.4521" y="107.292">GenericFeatureEngineer</text></g><g class="participant participant-tail" data-participant="FeatureEngineer"><rect fill="#EEEEEE" height="30.2969" rx="2.5" ry="2.5" style="stroke:#999999;stroke-width:0.5;" width="184.6182" x="928.4521" y="671.8516"/><text fill="#000000" font-family="sans-serif" font-size="14" lengthAdjust="spacing" textLength="170.6182" x="935.4521" y="691.8467">GenericFeatureEngineer</text></g><g class="participant participant-head" data-participant="ModelBuilder"><rect fill="#EEEEEE" height="30.2969" rx="2.5" ry="2.5" style="stroke:#999999;stroke-width:0.5;" width="185.9512" x="1123.0703" y="87.2969"/><text fill="#000000" font-family="sans-serif" font-size="14" lengthAdjust="spacing" textLength="171.9512" x="1130.0703" y="107.292">build_enhanced_model()</text></g><g class="participant participant-tail" data-participant="ModelBuilder"><rect fill="#EEEEEE" height="30.2969" rx="2.5" ry="2.5" style="stroke:#999999;stroke-width:0.5;" width="185.9512" x="1123.0703" y="671.8516"/><text fill="#000000" font-family="sans-serif" font-size="14" lengthAdjust="spacing" textLength="171.9512" x="1130.0703" y="691.8467">build_enhanced_model()</text></g><g class="participant participant-head" data-participant="RandomForest"><rect fill="#EEEEEE" height="30.2969" rx="2.5" ry="2.5" style="stroke:#999999;stroke-width:0.5;" width="179.9492" x="1319.0215" y="87.2969"/><text fill="#000000" font-family="sans-serif" font-size="14" lengthAdjust="spacing" textLength="165.9492" x="1326.0215" y="107.292">RandomForestClassifier</text></g><g class="participant participant-tail" data-participant="RandomForest"><rect fill="#EEEEEE" height="30.2969" rx="2.5" ry="2.5" style="stroke:#999999;stroke-width:0.5;" width="179.9492" x="1319.0215" y="671.8516"/><text fill="#000000" font-family="sans-serif" font-size="14" lengthAdjust="spacing" textLength="165.9492" x="1326.0215" y="691.8467">RandomForestClassifier</text></g><g class="participant participant-head" data-participant="Evaluator"><rect fill="#EEEEEE" height="30.2969" rx="2.5" ry="2.5" style="stroke:#999999;stroke-width:0.5;" width="174.5693" x="1508.9707" y="87.2969"/><text fill="#000000" font-family="sans-serif" font-size="14" lengthAdjust="spacing" textLength="160.5693" x="1515.9707" y="107.292">enhanced_evaluation()</text></g><g class="participant participant-tail" data-participant="Evaluator"><rect fill="#EEEEEE" height="30.2969" rx="2.5" ry="2.5" style="stroke:#999999;stroke-width:0.5;" width="174.5693" x="1508.9707" y="671.8516"/><text fill="#000000" font-family="sans-serif" font-size="14" lengthAdjust="spacing" textLength="160.5693" x="1515.9707" y="691.8467">enhanced_evaluation()</text></g><g><title>train_model_pipeline.py</title><rect fill="#FFFFFF" height="505.125" style="stroke:#999999;stroke-width:1;" width="10" x="290.9878" y="149.7266"/></g><g><title>load_and_preprocess_data()</title><rect fill="#FFFFFF" height="29.1328" style="stroke:#999999;stroke-width:1;" width="10" x="568.3271" y="178.8594"/></g><g><title>map_staging_to_model_input()</title><rect fill="#FFFFFF" height="29.1328" style="stroke:#999999;stroke-width:1;" width="10" x="798.6597" y="237.125"/></g><g><title>GenericFeatureEngineer</title><rect fill="#FFFFFF" height="29.1328" style="stroke:#999999;stroke-width:1;" width="10" x="1015.7612" y="295.3906"/></g><g><title>build_enhanced_model()</title><rect fill="#FFFFFF" height="29.1328" style="stroke:#999999;stroke-width:1;" width="10" x="1211.0459" y="437.9219"/></g><g><title>RandomForestClassifier</title><rect fill="#FFFFFF" height="29.1328" style="stroke:#999999;stroke-width:1;" width="10" x="1403.9961" y="496.1875"/></g><g><title>enhanced_evaluation()</title><rect fill="#FFFFFF" height="29.1328" style="stroke:#999999;stroke-width:1;" width="10" x="1591.2554" y="554.4531"/></g><g class="message" data-participant-1="User" data-participant-2="TrainPipeline"><polygon fill="#666666" points="278.9878,145.7266,288.9878,149.7266,278.9878,153.7266,282.9878,149.7266" style="stroke:#666666;stroke-width:1;"/><line style="stroke:#666666;stroke-width:1;" x1="23.9551" x2="284.9878" y1="149.7266" y2="149.7266"/><text fill="#000000" font-family="sans-serif" font-size="13" lengthAdjust="spacing" textLength="153.5688" x="30.9551" y="144.6606">Execute with data_path</text></g><g class="message" data-participant-1="TrainPipeline" data-participant-2="DataLoader"><polygon fill="#666666" points="556.3271,174.8594,566.3271,178.8594,556.3271,182.8594,560.3271,178.8594" style="stroke:#666666;stroke-width:1;"/><line style="stroke:#666666;stroke-width:1;" x1="300.9878" x2="562.3271" y1="178.8594" y2="178.8594"/><text fill="#000000" font-family="sans-serif" font-size="13" lengthAdjust="spacing" textLength="248.3394" x="307.9878" y="173.7935">load_and_preprocess_data(data_path)</text></g><g class="message" data-participant-1="DataLoader" data-participant-2="TrainPipeline"><polygon fill="#666666" points="311.9878,203.9922,301.9878,207.9922,311.9878,211.9922,307.9878,207.9922" style="stroke:#666666;stroke-width:1;"/><line style="stroke:#666666;stroke-width:1;stroke-dasharray:2.0,2.0;" x1="305.9878" x2="572.3271" y1="207.9922" y2="207.9922"/><text fill="#000000" font-family="sans-serif" font-size="13" lengthAdjust="spacing" textLength="43.272" x="317.9878" y="202.9263">raw_df</text></g><g class="message" data-participant-1="TrainPipeline" data-participant-2="DataMapper"><polygon fill="#666666" points="786.6597,233.125,796.6597,237.125,786.6597,241.125,790.6597,237.125" style="stroke:#666666;stroke-width:1;"/><line style="stroke:#666666;stroke-width:1;" x1="300.9878" x2="792.6597" y1="237.125" y2="237.125"/><text fill="#000000" font-family="sans-serif" font-size="13" lengthAdjust="spacing" textLength="243.458" x="307.9878" y="232.0591">map_staging_to_model_input(raw_df)</text></g><g class="message" data-participant-1="DataMapper" data-participant-2="TrainPipeline"><polygon fill="#666666" points="311.9878,262.2578,301.9878,266.2578,311.9878,270.2578,307.9878,266.2578" style="stroke:#666666;stroke-width:1;"/><line style="stroke:#666666;stroke-width:1;stroke-dasharray:2.0,2.0;" x1="305.9878" x2="802.6597" y1="266.2578" y2="266.2578"/><text fill="#000000" font-family="sans-serif" font-size="13" lengthAdjust="spacing" textLength="72.7124" x="317.9878" y="261.1919">mapped_df</text></g><g class="message" data-participant-1="TrainPipeline" data-participant-2="FeatureEngineer"><polygon fill="#666666" points="1003.7612,291.3906,1013.7612,295.3906,1003.7612,299.3906,1007.7612,295.3906" style="stroke:#666666;stroke-width:1;"/><line style="stroke:#666666;stroke-width:1;" x1="300.9878" x2="1009.7612" y1="295.3906" y2="295.3906"/><text fill="#000000" font-family="sans-serif" font-size="13" lengthAdjust="spacing" textLength="146.8149" x="307.9878" y="290.3247">transform(mapped_df)</text></g><g class="message" data-participant-1="FeatureEngineer" data-participant-2="TrainPipeline"><polygon fill="#666666" points="311.9878,320.5234,301.9878,324.5234,311.9878,328.5234,307.9878,324.5234" style="stroke:#666666;stroke-width:1;"/><line style="stroke:#666666;stroke-width:1;stroke-dasharray:2.0,2.0;" x1="305.9878" x2="1019.7612" y1="324.5234" y2="324.5234"/><text fill="#000000" font-family="sans-serif" font-size="13" lengthAdjust="spacing" textLength="85.8203" x="317.9878" y="319.4575">processed_df</text></g><g class="message" data-participant-1="TrainPipeline" data-participant-2="TrainPipeline"><line style="stroke:#666666;stroke-width:1;" x1="300.9878" x2="342.9878" y1="353.6563" y2="353.6563"/><line style="stroke:#666666;stroke-width:1;" x1="342.9878" x2="342.9878" y1="353.6563" y2="366.6563"/><line style="stroke:#666666;stroke-width:1;" x1="301.9878" x2="342.9878" y1="366.6563" y2="366.6563"/><polygon fill="#666666" points="311.9878,362.6563,301.9878,366.6563,311.9878,370.6563,307.9878,366.6563" style="stroke:#666666;stroke-width:1;"/><text fill="#000000" font-family="sans-serif" font-size="13" lengthAdjust="spacing" textLength="144.7266" x="307.9878" y="348.5903">Split data into X and y</text></g><g class="message" data-participant-1="TrainPipeline" data-participant-2="TrainPipeline"><line style="stroke:#666666;stroke-width:1;" x1="300.9878" x2="342.9878" y1="395.7891" y2="395.7891"/><line style="stroke:#666666;stroke-width:1;" x1="342.9878" x2="342.9878" y1="395.7891" y2="408.7891"/><line style="stroke:#666666;stroke-width:1;" x1="301.9878" x2="342.9878" y1="408.7891" y2="408.7891"/><polygon fill="#666666" points="311.9878,404.7891,301.9878,408.7891,311.9878,412.7891,307.9878,408.7891" style="stroke:#666666;stroke-width:1;"/><text fill="#000000" font-family="sans-serif" font-size="13" lengthAdjust="spacing" textLength="130.5776" x="307.9878" y="390.7231">train_test_split(X, y)</text></g><g class="message" data-participant-1="TrainPipeline" data-participant-2="ModelBuilder"><polygon fill="#666666" points="1199.0459,433.9219,1209.0459,437.9219,1199.0459,441.9219,1203.0459,437.9219" style="stroke:#666666;stroke-width:1;"/><line style="stroke:#666666;stroke-width:1;" x1="300.9878" x2="1205.0459" y1="437.9219" y2="437.9219"/><text fill="#000000" font-family="sans-serif" font-size="13" lengthAdjust="spacing" textLength="159.6689" x="307.9878" y="432.856">build_enhanced_model()</text></g><g class="message" data-participant-1="ModelBuilder" data-participant-2="TrainPipeline"><polygon fill="#666666" points="311.9878,463.0547,301.9878,467.0547,311.9878,471.0547,307.9878,467.0547" style="stroke:#666666;stroke-width:1;"/><line style="stroke:#666666;stroke-width:1;stroke-dasharray:2.0,2.0;" x1="305.9878" x2="1215.0459" y1="467.0547" y2="467.0547"/><text fill="#000000" font-family="sans-serif" font-size="13" lengthAdjust="spacing" textLength="98.5537" x="317.9878" y="461.9888">model_pipeline</text></g><g class="message" data-participant-1="TrainPipeline" data-participant-2="RandomForest"><polygon fill="#666666" points="1391.9961,492.1875,1401.9961,496.1875,1391.9961,500.1875,1395.9961,496.1875" style="stroke:#666666;stroke-width:1;"/><line style="stroke:#666666;stroke-width:1;" x1="300.9878" x2="1397.9961" y1="496.1875" y2="496.1875"/><text fill="#000000" font-family="sans-serif" font-size="13" lengthAdjust="spacing" textLength="121.8115" x="307.9878" y="491.1216">fit(X_train, y_train)</text></g><g class="message" data-participant-1="RandomForest" data-participant-2="TrainPipeline"><polygon fill="#666666" points="311.9878,521.3203,301.9878,525.3203,311.9878,529.3203,307.9878,525.3203" style="stroke:#666666;stroke-width:1;"/><line style="stroke:#666666;stroke-width:1;stroke-dasharray:2.0,2.0;" x1="305.9878" x2="1407.9961" y1="525.3203" y2="525.3203"/><text fill="#000000" font-family="sans-serif" font-size="13" lengthAdjust="spacing" textLength="93.4883" x="317.9878" y="520.2544">trained_model</text></g><g class="message" data-participant-1="TrainPipeline" data-participant-2="Evaluator"><polygon fill="#666666" points="1579.2554,550.4531,1589.2554,554.4531,1579.2554,558.4531,1583.2554,554.4531" style="stroke:#666666;stroke-width:1;"/><line style="stroke:#666666;stroke-width:1;" x1="300.9878" x2="1585.2554" y1="554.4531" y2="554.4531"/><text fill="#000000" font-family="sans-serif" font-size="13" lengthAdjust="spacing" textLength="285.6382" x="307.9878" y="549.3872">enhanced_evaluation(model, X_test, y_test)</text></g><g class="message" data-participant-1="Evaluator" data-participant-2="TrainPipeline"><polygon fill="#666666" points="311.9878,579.5859,301.9878,583.5859,311.9878,587.5859,307.9878,583.5859" style="stroke:#666666;stroke-width:1;"/><line style="stroke:#666666;stroke-width:1;stroke-dasharray:2.0,2.0;" x1="305.9878" x2="1595.2554" y1="583.5859" y2="583.5859"/><text fill="#000000" font-family="sans-serif" font-size="13" lengthAdjust="spacing" textLength="118.7139" x="317.9878" y="578.52">evaluation_results</text></g><g class="message" data-participant-1="TrainPipeline" data-participant-2="TrainPipeline"><line style="stroke:#666666;stroke-width:1;" x1="300.9878" x2="342.9878" y1="612.7188" y2="612.7188"/><line style="stroke:#666666;stroke-width:1;" x1="342.9878" x2="342.9878" y1="612.7188" y2="625.7188"/><line style="stroke:#666666;stroke-width:1;" x1="301.9878" x2="342.9878" y1="625.7188" y2="625.7188"/><polygon fill="#666666" points="311.9878,621.7188,301.9878,625.7188,311.9878,629.7188,307.9878,625.7188" style="stroke:#666666;stroke-width:1;"/><text fill="#000000" font-family="sans-serif" font-size="13" lengthAdjust="spacing" textLength="172.25" x="307.9878" y="607.6528">Save model and metadata</text></g><g class="message" data-participant-1="TrainPipeline" data-participant-2="User"><polygon fill="#666666" points="34.9551,650.8516,24.9551,654.8516,34.9551,658.8516,30.9551,654.8516" style="stroke:#666666;stroke-width:1;"/><line style="stroke:#666666;stroke-width:1;stroke-dasharray:2.0,2.0;" x1="28.9551" x2="294.9878" y1="654.8516" y2="654.8516"/><text fill="#000000" font-family="sans-serif" font-size="13" lengthAdjust="spacing" textLength="243.0327" x="40.9551" y="649.7856">Trained model and evaluation results</text></g><!--SRC=[ZLHDJzmm4BtdLupW04ZGOwNcKAdGfPVT2XKgSRE6U7RN8h5Tszbb_trj9qsSn2sD1EkFUM_UVFa27jsf9k2q5L8ueQGjxAkG6Wqsy8BLwyweLl8xLIi3nxrmbDm_qg-MP4LVZ577pkJyO_moHcknzN-IRfNXP7hhJ_5Bh1_GE549ZTBzl-5CvlagVaLn0K_2rLIuy1- -qrjhDslOA4urF1dq4SlTe2-O9wIsmCfvihEVbimPe8MmAFHe0MSkSB0cy34jDDK-l0_w5AqZ_qD_E8NL2Zb3oPasf8sgo5h6qU7bLKH-zSkrDvbxQr0pwt3dHJEdUhS-7QrBW1lKUWxyHfACgEu9NMje9Jq3zJ7DpgQubrRKd97SeqyFxnpshc8ERyFz7FJ31wQQUsN8khiQhHLRqJjBhwQWmGSTi6unz67lQDKTA1FACvGgb09kFa-JNCBgZQhM4Ho5sqF8ADFezg6Gue3-V5gJOh8DT6FcI_XhaGRUgv4uATcuX9kbGeD7nhS5fnmqBwYhQ0d_A7_7EjFJTyAupEbfmWtFIEhHIqcpZYd13u6qMsMQou4iKJ9liDa-fwdFzaBMd6gfRKRqg6lXOX-0a4x1C_XwmkbTN3VMpdSfiu7YylaQJbSPV-aKb90Vbp4Lavb9Dzd2J1wLD0qJcgMcTCXAs0RrB0RaO-WMYQJ9HAQRdAG8_XDOgcZ2ibGqZ709kJcFTDVm71CUHVhVHEFu0WohdBgHaNaTRUqVy4HYyeoyspLue2xziLqQSXXQQ07qoF0CbHsUU88PjK16ouJdDm00]--></g></svg>