<svg xmlns="http://www.w3.org/2000/svg" xmlns:xlink="http://www.w3.org/1999/xlink" contentStyleType="text/css" data-diagram-type="CLASS" height="651px" preserveAspectRatio="none" style="width:1441px;height:651px;background:#FFFFFF;" version="1.1" viewBox="0 0 1441 651" width="1441px" zoomAndPan="magnify"><defs/><g><!--class NexusMLConfig--><g class="entity" data-entity="NexusMLConfig" data-source-line="10" data-uid="ent0002" id="entity_NexusMLConfig"><rect fill="#F1F1F1" height="199.6563" rx="4" ry="4" style="stroke:#666666;stroke-width:0.5;" width="383.959" x="481.85" y="239.75"/><ellipse cx="623.3998" cy="254.75" fill="#ADD1B2" rx="10" ry="10" style="stroke:#181818;stroke-width:1;"/><path d="M625.2279,259 Q624.8217,259.2031 624.3686,259.3125 Q623.9154,259.4219 623.4311,259.4219 Q621.6498,259.4219 620.7123,258.2656 Q619.7904,257.0938 619.7904,254.8906 Q619.7904,252.6719 620.7123,251.5156 Q621.6498,250.3438 623.4311,250.3438 Q623.9154,250.3438 624.3686,250.4531 Q624.8373,250.5469 625.2279,250.7656 L625.2279,252.6875 Q624.7904,252.2813 624.3686,252.0938 Q623.9467,251.8906 623.5092,251.8906 Q622.5561,251.8906 622.0717,252.6563 Q621.5873,253.4063 621.5873,254.8906 Q621.5873,256.3594 622.0717,257.1094 Q622.5561,257.8594 623.5092,257.8594 Q623.9467,257.8594 624.3686,257.6719 Q624.7904,257.4844 625.2279,257.0781 L625.2279,259 Z " fill="#000000"/><text fill="#000000" font-family="Arial" font-size="12" lengthAdjust="spacing" textLength="92.8594" x="642.3998" y="258.9043">NexusMLConfig</text><line style="stroke:#666666;stroke-width:0.5;" x1="482.85" x2="864.809" y1="269.75" y2="269.75"/><text fill="#000000" font-family="Arial" font-size="12" lengthAdjust="spacing" textLength="296.0684" x="487.85" y="284.8887">+feature_engineering: FeatureEngineeringConfig</text><text fill="#000000" font-family="Arial" font-size="12" lengthAdjust="spacing" textLength="213.4336" x="487.85" y="298.8574">+classification: ClassificationConfig</text><text fill="#000000" font-family="Arial" font-size="12" lengthAdjust="spacing" textLength="112.0957" x="487.85" y="312.8262">+data: DataConfig</text><text fill="#000000" font-family="Arial" font-size="12" lengthAdjust="spacing" textLength="175.4707" x="487.85" y="326.7949">+reference: ReferenceConfig</text><text fill="#000000" font-family="Arial" font-size="12" lengthAdjust="spacing" textLength="322.541" x="487.85" y="340.7637">+equipment_attributes: Dict[str, EquipmentAttribute]</text><text fill="#000000" font-family="Arial" font-size="12" lengthAdjust="spacing" textLength="288.8438" x="487.85" y="354.7324">+masterformat_primary: MasterFormatMapping</text><text fill="#000000" font-family="Arial" font-size="12" lengthAdjust="spacing" textLength="371.959" x="487.85" y="368.7012">+masterformat_equipment: EquipmentMasterFormatMapping</text><line style="stroke:#666666;stroke-width:0.5;" x1="482.85" x2="864.809" y1="375.5313" y2="375.5313"/><text fill="#000000" font-family="Arial" font-size="12" lengthAdjust="spacing" textLength="235.3594" x="487.85" y="390.6699">+from_yaml(file_path): NexusMLConfig</text><text fill="#000000" font-family="Arial" font-size="12" lengthAdjust="spacing" textLength="157.6641" x="487.85" y="404.6387">+to_yaml(file_path): None</text><text fill="#000000" font-family="Arial" font-size="12" lengthAdjust="spacing" textLength="176.4141" x="487.85" y="418.6074">+from_env(): NexusMLConfig</text><text fill="#000000" font-family="Arial" font-size="12" lengthAdjust="spacing" textLength="172.4004" x="487.85" y="432.5762">+default_config_path(): Path</text></g><!--class FeatureEngineeringConfig--><g class="entity" data-entity="FeatureEngineeringConfig" data-source-line="24" data-uid="ent0003" id="entity_FeatureEngineeringConfig"><rect fill="#F1F1F1" height="143.7813" rx="4" ry="4" style="stroke:#666666;stroke-width:0.5;" width="317.6543" x="7" y="500.41"/><ellipse cx="83.4434" cy="515.41" fill="#ADD1B2" rx="10" ry="10" style="stroke:#181818;stroke-width:1;"/><path d="M85.2715,519.66 Q84.8652,519.8631 84.4121,519.9725 Q83.959,520.0819 83.4746,520.0819 Q81.6934,520.0819 80.7559,518.9256 Q79.834,517.7538 79.834,515.5506 Q79.834,513.3319 80.7559,512.1756 Q81.6934,511.0038 83.4746,511.0038 Q83.959,511.0038 84.4121,511.1131 Q84.8809,511.2069 85.2715,511.4256 L85.2715,513.3475 Q84.834,512.9413 84.4121,512.7538 Q83.9902,512.5506 83.5527,512.5506 Q82.5996,512.5506 82.1152,513.3163 Q81.6309,514.0663 81.6309,515.5506 Q81.6309,517.0194 82.1152,517.7694 Q82.5996,518.5194 83.5527,518.5194 Q83.9902,518.5194 84.4121,518.3319 Q84.834,518.1444 85.2715,517.7381 L85.2715,519.66 Z " fill="#000000"/><text fill="#000000" font-family="Arial" font-size="12" lengthAdjust="spacing" textLength="156.7676" x="102.4434" y="519.5643">FeatureEngineeringConfig</text><line style="stroke:#666666;stroke-width:0.5;" x1="8" x2="323.6543" y1="530.41" y2="530.41"/><text fill="#000000" font-family="Arial" font-size="12" lengthAdjust="spacing" textLength="261.75" x="13" y="545.5487">+text_combinations: List[TextCombination]</text><text fill="#000000" font-family="Arial" font-size="12" lengthAdjust="spacing" textLength="250.3008" x="13" y="559.5174">+numeric_columns: List[NumericColumn]</text><text fill="#000000" font-family="Arial" font-size="12" lengthAdjust="spacing" textLength="173.2324" x="13" y="573.4862">+hierarchies: List[Hierarchy]</text><text fill="#000000" font-family="Arial" font-size="12" lengthAdjust="spacing" textLength="254.9648" x="13" y="587.4549">+column_mappings: List[ColumnMapping]</text><text fill="#000000" font-family="Arial" font-size="12" lengthAdjust="spacing" textLength="305.6543" x="13" y="601.4237">+classification_systems: List[ClassificationSystem]</text><text fill="#000000" font-family="Arial" font-size="12" lengthAdjust="spacing" textLength="245.3613" x="13" y="615.3924">+direct_mappings: List[ColumnMapping]</text><text fill="#000000" font-family="Arial" font-size="12" lengthAdjust="spacing" textLength="201.791" x="13" y="629.3612">+eav_integration: EAVIntegration</text><line style="stroke:#666666;stroke-width:0.5;" x1="8" x2="323.6543" y1="636.1913" y2="636.1913"/></g><!--class ClassificationConfig--><g class="entity" data-entity="ClassificationConfig" data-source-line="34" data-uid="ent0004" id="entity_ClassificationConfig"><rect fill="#F1F1F1" height="73.9375" rx="4" ry="4" style="stroke:#666666;stroke-width:0.5;" width="305.543" x="360.06" y="535.33"/><ellipse cx="449.8803" cy="550.33" fill="#ADD1B2" rx="10" ry="10" style="stroke:#181818;stroke-width:1;"/><path d="M451.7084,554.58 Q451.3022,554.7831 450.8491,554.8925 Q450.3959,555.0019 449.9116,555.0019 Q448.1303,555.0019 447.1928,553.8456 Q446.2709,552.6738 446.2709,550.4706 Q446.2709,548.2519 447.1928,547.0956 Q448.1303,545.9238 449.9116,545.9238 Q450.3959,545.9238 450.8491,546.0331 Q451.3178,546.1269 451.7084,546.3456 L451.7084,548.2675 Q451.2709,547.8613 450.8491,547.6738 Q450.4272,547.4706 449.9897,547.4706 Q449.0366,547.4706 448.5522,548.2363 Q448.0678,548.9863 448.0678,550.4706 Q448.0678,551.9394 448.5522,552.6894 Q449.0366,553.4394 449.9897,553.4394 Q450.4272,553.4394 450.8491,553.2519 Q451.2709,553.0644 451.7084,552.6581 L451.7084,554.58 Z " fill="#000000"/><text fill="#000000" font-family="Arial" font-size="12" lengthAdjust="spacing" textLength="117.9023" x="468.8803" y="554.4843">ClassificationConfig</text><line style="stroke:#666666;stroke-width:0.5;" x1="361.06" x2="664.603" y1="565.33" y2="565.33"/><text fill="#000000" font-family="Arial" font-size="12" lengthAdjust="spacing" textLength="293.543" x="366.06" y="580.4687">+classification_targets: List[ClassificationTarget]</text><text fill="#000000" font-family="Arial" font-size="12" lengthAdjust="spacing" textLength="287.2383" x="366.06" y="594.4374">+input_field_mappings: List[InputFieldMapping]</text><line style="stroke:#666666;stroke-width:0.5;" x1="361.06" x2="664.603" y1="601.2675" y2="601.2675"/></g><!--class DataConfig--><g class="entity" data-entity="DataConfig" data-source-line="39" data-uid="ent0005" id="entity_DataConfig"><rect fill="#F1F1F1" height="73.9375" rx="4" ry="4" style="stroke:#666666;stroke-width:0.5;" width="267.6504" x="701" y="535.33"/><ellipse cx="797.248" cy="550.33" fill="#ADD1B2" rx="10" ry="10" style="stroke:#181818;stroke-width:1;"/><path d="M799.0762,554.58 Q798.6699,554.7831 798.2168,554.8925 Q797.7637,555.0019 797.2793,555.0019 Q795.498,555.0019 794.5605,553.8456 Q793.6387,552.6738 793.6387,550.4706 Q793.6387,548.2519 794.5605,547.0956 Q795.498,545.9238 797.2793,545.9238 Q797.7637,545.9238 798.2168,546.0331 Q798.6855,546.1269 799.0762,546.3456 L799.0762,548.2675 Q798.6387,547.8613 798.2168,547.6738 Q797.7949,547.4706 797.3574,547.4706 Q796.4043,547.4706 795.9199,548.2363 Q795.4355,548.9863 795.4355,550.4706 Q795.4355,551.9394 795.9199,552.6894 Q796.4043,553.4394 797.3574,553.4394 Q797.7949,553.4394 798.2168,553.2519 Q798.6387,553.0644 799.0762,552.6581 L799.0762,554.58 Z " fill="#000000"/><text fill="#000000" font-family="Arial" font-size="12" lengthAdjust="spacing" textLength="67.1543" x="816.248" y="554.4843">DataConfig</text><line style="stroke:#666666;stroke-width:0.5;" x1="702" x2="967.6504" y1="565.33" y2="565.33"/><text fill="#000000" font-family="Arial" font-size="12" lengthAdjust="spacing" textLength="255.6504" x="707" y="580.4687">+required_columns: List[RequiredColumn]</text><text fill="#000000" font-family="Arial" font-size="12" lengthAdjust="spacing" textLength="213.6973" x="707" y="594.4374">+training_data: TrainingDataConfig</text><line style="stroke:#666666;stroke-width:0.5;" x1="702" x2="967.6504" y1="601.2675" y2="601.2675"/></g><!--class ReferenceConfig--><g class="entity" data-entity="ReferenceConfig" data-source-line="44" data-uid="ent0006" id="entity_ReferenceConfig"><rect fill="#F1F1F1" height="115.8438" rx="4" ry="4" style="stroke:#666666;stroke-width:0.5;" width="304.1074" x="1003.77" y="514.38"/><ellipse cx="1101.9575" cy="529.38" fill="#ADD1B2" rx="10" ry="10" style="stroke:#181818;stroke-width:1;"/><path d="M1103.7856,533.63 Q1103.3794,533.8331 1102.9263,533.9425 Q1102.4731,534.0519 1101.9888,534.0519 Q1100.2075,534.0519 1099.27,532.8956 Q1098.3481,531.7238 1098.3481,529.5206 Q1098.3481,527.3019 1099.27,526.1456 Q1100.2075,524.9738 1101.9888,524.9738 Q1102.4731,524.9738 1102.9263,525.0831 Q1103.395,525.1769 1103.7856,525.3956 L1103.7856,527.3175 Q1103.3481,526.9113 1102.9263,526.7238 Q1102.5044,526.5206 1102.0669,526.5206 Q1101.1138,526.5206 1100.6294,527.2863 Q1100.145,528.0363 1100.145,529.5206 Q1100.145,530.9894 1100.6294,531.7394 Q1101.1138,532.4894 1102.0669,532.4894 Q1102.5044,532.4894 1102.9263,532.3019 Q1103.3481,532.1144 1103.7856,531.7081 L1103.7856,533.63 Z " fill="#000000"/><text fill="#000000" font-family="Arial" font-size="12" lengthAdjust="spacing" textLength="99.7324" x="1120.9575" y="533.5343">ReferenceConfig</text><line style="stroke:#666666;stroke-width:0.5;" x1="1004.77" x2="1306.8774" y1="544.38" y2="544.38"/><text fill="#000000" font-family="Arial" font-size="12" lengthAdjust="spacing" textLength="116.8477" x="1009.77" y="559.5187">+paths: PathConfig</text><text fill="#000000" font-family="Arial" font-size="12" lengthAdjust="spacing" textLength="196.1191" x="1009.77" y="573.4874">+file_patterns: FilePatternConfig</text><text fill="#000000" font-family="Arial" font-size="12" lengthAdjust="spacing" textLength="292.1074" x="1009.77" y="587.4562">+column_mappings: ReferenceColumnMappings</text><text fill="#000000" font-family="Arial" font-size="12" lengthAdjust="spacing" textLength="191.2617" x="1009.77" y="601.4249">+hierarchies: HierarchiesConfig</text><text fill="#000000" font-family="Arial" font-size="12" lengthAdjust="spacing" textLength="154.9863" x="1009.77" y="615.3937">+defaults: DefaultsConfig</text><line style="stroke:#666666;stroke-width:0.5;" x1="1004.77" x2="1306.8774" y1="622.2238" y2="622.2238"/></g><!--class ConfigurationProvider--><g class="entity" data-entity="ConfigurationProvider" data-source-line="53" data-uid="ent0007" id="entity_ConfigurationProvider"><rect fill="#F1F1F1" height="157.75" rx="4" ry="4" style="stroke:#666666;stroke-width:0.5;" width="241.6641" x="738" y="7"/><ellipse cx="789.2012" cy="22" fill="#ADD1B2" rx="10" ry="10" style="stroke:#181818;stroke-width:1;"/><path d="M791.0293,26.25 Q790.623,26.4531 790.1699,26.5625 Q789.7168,26.6719 789.2324,26.6719 Q787.4512,26.6719 786.5137,25.5156 Q785.5918,24.3438 785.5918,22.1406 Q785.5918,19.9219 786.5137,18.7656 Q787.4512,17.5938 789.2324,17.5938 Q789.7168,17.5938 790.1699,17.7031 Q790.6387,17.7969 791.0293,18.0156 L791.0293,19.9375 Q790.5918,19.5313 790.1699,19.3438 Q789.748,19.1406 789.3105,19.1406 Q788.3574,19.1406 787.873,19.9063 Q787.3887,20.6563 787.3887,22.1406 Q787.3887,23.6094 787.873,24.3594 Q788.3574,25.1094 789.3105,25.1094 Q789.748,25.1094 790.1699,24.9219 Q790.5918,24.7344 791.0293,24.3281 L791.0293,26.25 Z " fill="#000000"/><text fill="#000000" font-family="Arial" font-size="12" lengthAdjust="spacing" textLength="131.2617" x="808.2012" y="26.1543">ConfigurationProvider</text><line style="stroke:#666666;stroke-width:0.5;" x1="739" x2="978.6641" y1="37" y2="37"/><text fill="#000000" font-family="Arial" font-size="12" lengthAdjust="spacing" textLength="200.2852" x="744" y="52.1387">-_instance: ConfigurationProvider</text><text fill="#000000" font-family="Arial" font-size="12" lengthAdjust="spacing" textLength="147.7676" x="744" y="66.1074">-_config: NexusMLConfig</text><text fill="#000000" font-family="Arial" font-size="12" lengthAdjust="spacing" textLength="147.4922" x="744" y="80.0762">+config: NexusMLConfig</text><line style="stroke:#666666;stroke-width:0.5;" x1="739" x2="978.6641" y1="86.9063" y2="86.9063"/><text fill="#000000" font-family="Arial" font-size="12" lengthAdjust="spacing" textLength="188.7773" x="744" y="102.0449">-_load_config(): NexusMLConfig</text><text fill="#000000" font-family="Arial" font-size="12" lengthAdjust="spacing" textLength="96.5449" x="744" y="116.0137">+reload(): None</text><text fill="#000000" font-family="Arial" font-size="12" lengthAdjust="spacing" textLength="156.3633" x="744" y="129.9824">+set_config(config): None</text><text fill="#000000" font-family="Arial" font-size="12" lengthAdjust="spacing" textLength="229.6641" x="744" y="143.9512">+set_config_from_file(file_path): None</text><text fill="#000000" font-family="Arial" font-size="12" lengthAdjust="spacing" textLength="89.2383" x="744" y="157.9199">+reset(): None</text></g><g class="entity" data-entity="GMN8" data-source-line="66" data-uid="ent0009" id="entity_GMN8"><path d="M1014.96,42.97 L1014.96,81.88 L979.99,85.88 L1014.96,89.88 L1014.96,128.7825 A4,4 0 0 0 1018.96,132.7825 L1430.6963,132.7825 A4,4 0 0 0 1434.6963,128.7825 L1434.6963,48.97 L1424.6963,38.97 L1018.96,38.97 A4,4 0 0 0 1014.96,42.97 " fill="#FEFFDD" style="stroke:#181818;stroke-width:0.5;"/><path d="M1424.6963,38.97 L1424.6963,46.97 A2,2 0 0 0 1426.6963,48.97 L1434.6963,48.97 L1424.6963,38.97 " fill="#FEFFDD" style="stroke:#181818;stroke-width:0.5;"/><text fill="#000000" font-family="Arial" font-size="12" lengthAdjust="spacing" textLength="186.6035" x="1020.96" y="55.1087">Configuration Loading Process:</text><text fill="#000000" font-family="Arial" font-size="12" lengthAdjust="spacing" textLength="299.4785" x="1020.96" y="69.0774">1. Check NEXUSML_CONFIG environment variable</text><text fill="#000000" font-family="Arial" font-size="12" lengthAdjust="spacing" textLength="253.1543" x="1020.96" y="83.0462">2. If set, load configuration from that path</text><text fill="#000000" font-family="Arial" font-size="12" lengthAdjust="spacing" textLength="398.7363" x="1020.96" y="97.0149">3. If not set, try default path (nexusml/config/nexusml_config.yml)</text><text fill="#000000" font-family="Arial" font-size="12" lengthAdjust="spacing" textLength="323.5195" x="1020.96" y="110.9837">4. If default path exists, load configuration from there</text><text fill="#000000" font-family="Arial" font-size="12" lengthAdjust="spacing" textLength="195.9668" x="1020.96" y="124.9524">5. If not, raise FileNotFoundError</text></g><g class="entity" data-entity="GMN16" data-source-line="83" data-uid="ent0017" id="entity_GMN16"><path d="M900.37,268.74 L900.37,410.4275 A4,4 0 0 0 904.37,414.4275 L1183.286,414.4275 A4,4 0 0 0 1187.286,410.4275 L1187.286,274.74 L1177.286,264.74 L993.19,264.74 L916.35,165.14 L985.19,264.74 L904.37,264.74 A4,4 0 0 0 900.37,268.74 " fill="#FEFFDD" style="stroke:#181818;stroke-width:0.5;"/><path d="M1177.286,264.74 L1177.286,272.74 A2,2 0 0 0 1179.286,274.74 L1187.286,274.74 L1177.286,264.74 " fill="#FEFFDD" style="stroke:#181818;stroke-width:0.5;"/><text fill="#000000" font-family="Arial" font-size="12" lengthAdjust="spacing" textLength="97.3066" x="906.37" y="280.8787">Usage Example:</text><text fill="#000000" font-family="Arial" font-size="12" lengthAdjust="spacing" textLength="59.9766" x="906.37" y="294.8474">```python</text><text fill="#000000" font-family="Arial" font-size="12" lengthAdjust="spacing" textLength="11.4492" x="906.37" y="308.8162">1.</text><text fill="#000000" font-family="Arial" font-size="12" lengthAdjust="spacing" textLength="104.8008" x="921.6337" y="308.8162">Get configuration</text><text fill="#000000" font-family="Arial" font-size="12" lengthAdjust="spacing" textLength="251.291" x="906.37" y="322.7849">config_provider = ConfigurationProvider()</text><text fill="#000000" font-family="Arial" font-size="12" lengthAdjust="spacing" textLength="187.9219" x="906.37" y="336.7537">config = config_provider.config</text><text fill="#000000" font-family="Arial" font-size="12" lengthAdjust="spacing" textLength="3.8145" x="906.37" y="350.7224">&#160;</text><text fill="#000000" font-family="Arial" font-size="12" lengthAdjust="spacing" textLength="11.4492" x="906.37" y="364.6912">2.</text><text fill="#000000" font-family="Arial" font-size="12" lengthAdjust="spacing" textLength="167.5488" x="921.6337" y="364.6912">Access configuration values</text><text fill="#000000" font-family="Arial" font-size="12" lengthAdjust="spacing" textLength="265.916" x="906.37" y="378.6599">feature_config = config.feature_engineering</text><text fill="#000000" font-family="Arial" font-size="12" lengthAdjust="spacing" textLength="154.998" x="906.37" y="392.6287">data_config = config.data</text><text fill="#000000" font-family="Arial" font-size="12" lengthAdjust="spacing" textLength="18" x="906.37" y="406.5974">```</text></g><!--link ConfigurationProvider to NexusMLConfig--><g class="link" data-entity-1="ConfigurationProvider" data-entity-2="NexusMLConfig" data-source-line="75" data-uid="lnk11" id="link_ConfigurationProvider_NexusMLConfig"><path codeLine="75" d="M801.31,165.14 C784.02,188.66 768.3747,209.9564 750.2247,234.6364 " fill="none" id="ConfigurationProvider-to-NexusMLConfig" style="stroke:#181818;stroke-width:1;"/><polygon fill="#181818" points="746.67,239.47,755.2245,234.5894,749.6323,235.442,748.7797,229.8497,746.67,239.47" style="stroke:#181818;stroke-width:1;"/><text fill="#000000" font-family="Arial" font-size="12" lengthAdjust="spacing" textLength="51.5801" x="778.83" y="206.8887">provides</text></g><!--reverse link NexusMLConfig to FeatureEngineeringConfig--><g class="link" data-entity-1="NexusMLConfig" data-entity-2="FeatureEngineeringConfig" data-source-line="76" data-uid="lnk12" id="link_NexusMLConfig_FeatureEngineeringConfig"><path codeLine="76" d="M470.4845,432.9331 C418.1145,456.7231 372.95,477.23 322.79,500.01 " fill="none" id="NexusMLConfig-backto-FeatureEngineeringConfig" style="stroke:#181818;stroke-width:1;"/><polygon fill="#181818" points="481.41,427.97,474.2929,426.8097,470.4845,432.9331,477.6016,434.0934,481.41,427.97" style="stroke:#181818;stroke-width:1;"/></g><!--reverse link NexusMLConfig to ClassificationConfig--><g class="link" data-entity-1="NexusMLConfig" data-entity-2="ClassificationConfig" data-source-line="77" data-uid="lnk13" id="link_NexusMLConfig_ClassificationConfig"><path codeLine="77" d="M597.7443,449.6118 C574.1443,483.4418 556.08,509.32 538.17,534.99 " fill="none" id="NexusMLConfig-backto-ClassificationConfig" style="stroke:#181818;stroke-width:1;"/><polygon fill="#181818" points="604.61,439.77,597.8965,442.4023,597.7443,449.6118,604.4578,446.9795,604.61,439.77" style="stroke:#181818;stroke-width:1;"/></g><!--reverse link NexusMLConfig to DataConfig--><g class="link" data-entity-1="NexusMLConfig" data-entity-2="DataConfig" data-source-line="78" data-uid="lnk14" id="link_NexusMLConfig_DataConfig"><path codeLine="78" d="M749.9077,449.6105 C773.5177,483.4405 791.58,509.32 809.49,534.99 " fill="none" id="NexusMLConfig-backto-DataConfig" style="stroke:#181818;stroke-width:1;"/><polygon fill="#181818" points="743.04,439.77,743.1937,446.9795,749.9077,449.6105,749.754,442.401,743.04,439.77" style="stroke:#181818;stroke-width:1;"/></g><!--reverse link NexusMLConfig to ReferenceConfig--><g class="link" data-entity-1="NexusMLConfig" data-entity-2="ReferenceConfig" data-source-line="79" data-uid="lnk15" id="link_NexusMLConfig_ReferenceConfig"><path codeLine="79" d="M876.8842,437.7804 C934.3442,465.2804 984.84,489.45 1036.2,514.04 " fill="none" id="NexusMLConfig-backto-ReferenceConfig" style="stroke:#181818;stroke-width:1;"/><polygon fill="#181818" points="866.06,432.6,869.7453,438.7983,876.8842,437.7804,873.1989,431.5821,866.06,432.6" style="stroke:#181818;stroke-width:1;"/></g><!--SRC=[XLPjRzis4FwkNq6W7-fiiRkssp0OQ87CjLi3YHSqwJ2WA1HQFjb4958xdhnuG_zxZwJUBCjTFiJctNCll7lkwEVY7QHAWx1qoC16zb7fGgBCnLecZriqfTxCJ6PG_BDJ11rzaabhhuXGhKk2PMBqdVeNn4yTo0PIMMQqC9fMCWTnXKfcmtfl-_9LHrc5HWqeVkl7_TtW1Z0azknN_nT5p-kxS2wfsfOeIHaT3FXg_bEiuAcqDzSp3n7_HKByc8Aa4Y46lMLhGAMtKx48mdah2oREm7jIgKfyWAcO7PrRt4QId8ft_B-L8QI0e1EOYe_rrrOBVvUgo45JBElAMlQW4lfi2I_5lDOtXV_Yp79f2J0rc4kA2rIvnCDKt7ZfmajlP57m7Kx0JS1fw_kCNOecZmyopqQfoY0k9EqkfiVrT30o0o2ZeN41UZyQCgpO48VkULE7k-NFw6jKjUzSMq8d2PwSVRvMshU2QtUjB7s-P_ci5VkQwJ9d-uJXMPato5MGphpGutOAK6B27pNcGoKvU7smZ_DGg1eJ75JL-t9AcjWUkCXv0pzItdcTjzeeX8J-tpl8VQmqmHOhJiwl_bosvxQ0GrmDnUibI1AtGCC9tdkT3ynZMLASAiWs_IoNJhLmcYRJ9ersA49mT4H4sFJQyR4IT_f1A9LcPt6Ohllgs9co9aXlm48anoiRQDLohoOhyzx5Nl3nDfmwKzzlTCTzfntsX3GVsiC9szrqLz_QxCyiiWBDNl7QgplPLTvMEd_7CLF1alHBPX3bCS7vm22UKupZpCXDPJSumWWECUfCl8Lwe4VXOr0N-yNWcZ2uDX0OsdWzNo0Nd3lW2fM0jP4s10BLTaV2f6ShSIGNrvMFs-1Zoe2N4p7RGV8eLlE_FjtTNCUpFrQBvNl1YqoXqMvbYhtajssTkNHVJSGo5PpnfK-ebwExgQ2T9E4koV3N7iwf1XF2G_qkUeGOQLVbF7iH_BoeZbNb9eSyks0lFtilHuRmn1DalvS4ivTDVwaJk1GyInOy-rU6dsL-WEU81YFG6mU0JkMvrM75xbHXes4kZiTlU-_jj2QnZOuLFup7vv_SK-ZWYtiAwoo5KsN_-MtlLbgv1QwVp0lkg6VHsX1npRv3eq_UQ1wC76qU7XwA0-ru-GhnJBm7Ecu2I-kNhgxNcs7deui6ov2UqIIffy-7kKeSQtljtiki1BUNwbywFMUJWLz0Z7OBzWJgXE5o3Ik-0G00]--></g></svg>