<svg xmlns="http://www.w3.org/2000/svg" xmlns:xlink="http://www.w3.org/1999/xlink" contentStyleType="text/css" data-diagram-type="CLASS" height="789px" preserveAspectRatio="none" style="width:1801px;height:789px;background:#FFFFFF;" version="1.1" viewBox="0 0 1801 789" width="1801px" zoomAndPan="magnify"><defs/><g><!--class DIContainer--><g class="entity" data-entity="DIContainer" data-source-line="10" data-uid="ent0002" id="entity_DIContainer"><rect fill="#F1F1F1" height="157.75" rx="4" ry="4" style="stroke:#666666;stroke-width:0.5;" width="445.248" x="84.26" y="38.62"/><ellipse cx="267.1741" cy="53.62" fill="#ADD1B2" rx="10" ry="10" style="stroke:#181818;stroke-width:1;"/><path d="M269.0022,57.87 Q268.5959,58.0731 268.1428,58.1825 Q267.6897,58.2919 267.2053,58.2919 Q265.4241,58.2919 264.4866,57.1356 Q263.5647,55.9638 263.5647,53.7606 Q263.5647,51.5419 264.4866,50.3856 Q265.4241,49.2138 267.2053,49.2138 Q267.6897,49.2138 268.1428,49.3231 Q268.6116,49.4169 269.0022,49.6356 L269.0022,51.5575 Q268.5647,51.1513 268.1428,50.9638 Q267.7209,50.7606 267.2834,50.7606 Q266.3303,50.7606 265.8459,51.5263 Q265.3616,52.2763 265.3616,53.7606 Q265.3616,55.2294 265.8459,55.9794 Q266.3303,56.7294 267.2834,56.7294 Q267.7209,56.7294 268.1428,56.5419 Q268.5647,56.3544 269.0022,55.9481 L269.0022,57.87 Z " fill="#000000"/><text fill="#000000" font-family="Arial" font-size="12" lengthAdjust="spacing" textLength="71.4199" x="286.1741" y="57.7743">DIContainer</text><line style="stroke:#666666;stroke-width:0.5;" x1="85.26" x2="528.508" y1="68.62" y2="68.62"/><text fill="#000000" font-family="Arial" font-size="12" lengthAdjust="spacing" textLength="188.7012" x="90.26" y="83.7587">-_factories: Dict[Type, Callable]</text><text fill="#000000" font-family="Arial" font-size="12" lengthAdjust="spacing" textLength="175.5527" x="90.26" y="97.7274">-_singletons: Dict[Type, bool]</text><text fill="#000000" font-family="Arial" font-size="12" lengthAdjust="spacing" textLength="168.4922" x="90.26" y="111.6962">-_instances: Dict[Type, Any]</text><line style="stroke:#666666;stroke-width:0.5;" x1="85.26" x2="528.508" y1="118.5263" y2="118.5263"/><text fill="#000000" font-family="Arial" font-size="12" lengthAdjust="spacing" textLength="433.248" x="90.26" y="133.6649">+register(interface_type, implementation_type=None, singleton=False)</text><text fill="#000000" font-family="Arial" font-size="12" lengthAdjust="spacing" textLength="354.5156" x="90.26" y="147.6337">+register_factory(interface_type, factory, singleton=False)</text><text fill="#000000" font-family="Arial" font-size="12" lengthAdjust="spacing" textLength="267.5859" x="90.26" y="161.6024">+register_instance(interface_type, instance)</text><text fill="#000000" font-family="Arial" font-size="12" lengthAdjust="spacing" textLength="149.4727" x="90.26" y="175.5712">+resolve(interface_type)</text><text fill="#000000" font-family="Arial" font-size="12" lengthAdjust="spacing" textLength="49.0195" x="90.26" y="189.5399">+clear()</text></g><!--class ComponentRegistry--><g class="entity" data-entity="ComponentRegistry" data-source-line="22" data-uid="ent0003" id="entity_ComponentRegistry"><rect fill="#F1F1F1" height="129.8125" rx="4" ry="4" style="stroke:#666666;stroke-width:0.5;" width="341.4609" x="1453.15" y="52.59"/><ellipse cx="1560.2145" cy="67.59" fill="#ADD1B2" rx="10" ry="10" style="stroke:#181818;stroke-width:1;"/><path d="M1562.0426,71.84 Q1561.6363,72.0431 1561.1832,72.1525 Q1560.7301,72.2619 1560.2457,72.2619 Q1558.4645,72.2619 1557.527,71.1056 Q1556.6051,69.9338 1556.6051,67.7306 Q1556.6051,65.5119 1557.527,64.3556 Q1558.4645,63.1838 1560.2457,63.1838 Q1560.7301,63.1838 1561.1832,63.2931 Q1561.652,63.3869 1562.0426,63.6056 L1562.0426,65.5275 Q1561.6051,65.1213 1561.1832,64.9338 Q1560.7613,64.7306 1560.3238,64.7306 Q1559.3707,64.7306 1558.8863,65.4963 Q1558.402,66.2463 1558.402,67.7306 Q1558.402,69.1994 1558.8863,69.9494 Q1559.3707,70.6994 1560.3238,70.6994 Q1560.7613,70.6994 1561.1832,70.5119 Q1561.6051,70.3244 1562.0426,69.9181 L1562.0426,71.84 Z " fill="#000000"/><text fill="#000000" font-family="Arial" font-size="12" lengthAdjust="spacing" textLength="119.332" x="1579.2145" y="71.7443">ComponentRegistry</text><line style="stroke:#666666;stroke-width:0.5;" x1="1454.15" x2="1793.6109" y1="82.59" y2="82.59"/><text fill="#000000" font-family="Arial" font-size="12" lengthAdjust="spacing" textLength="143.3965" x="1459.15" y="97.7287">-_implementations: Dict</text><text fill="#000000" font-family="Arial" font-size="12" lengthAdjust="spacing" textLength="191.6191" x="1459.15" y="111.6974">-_default_implementations: Dict</text><line style="stroke:#666666;stroke-width:0.5;" x1="1454.15" x2="1793.6109" y1="118.5275" y2="118.5275"/><text fill="#000000" font-family="Arial" font-size="12" lengthAdjust="spacing" textLength="329.4609" x="1459.15" y="133.6662">+register(interface_type, name, implementation_type)</text><text fill="#000000" font-family="Arial" font-size="12" lengthAdjust="spacing" textLength="309.5508" x="1459.15" y="147.6349">+get_implementation(interface_type, name=None)</text><text fill="#000000" font-family="Arial" font-size="12" lengthAdjust="spacing" textLength="315.0469" x="1459.15" y="161.6037">+set_default_implementation(interface_type, name)</text><text fill="#000000" font-family="Arial" font-size="12" lengthAdjust="spacing" textLength="274.752" x="1459.15" y="175.5724">+get_default_implementation(interface_type)</text></g><!--class PipelineFactory--><g class="entity" data-entity="PipelineFactory" data-source-line="32" data-uid="ent0004" id="entity_PipelineFactory"><rect fill="#F1F1F1" height="199.6563" rx="4" ry="4" style="stroke:#666666;stroke-width:0.5;" width="242.3086" x="1261.73" y="271.37"/><ellipse cx="1332.8032" cy="286.37" fill="#ADD1B2" rx="10" ry="10" style="stroke:#181818;stroke-width:1;"/><path d="M1334.6314,290.62 Q1334.2251,290.8231 1333.772,290.9325 Q1333.3189,291.0419 1332.8345,291.0419 Q1331.0532,291.0419 1330.1157,289.8856 Q1329.1939,288.7138 1329.1939,286.5106 Q1329.1939,284.2919 1330.1157,283.1356 Q1331.0532,281.9638 1332.8345,281.9638 Q1333.3189,281.9638 1333.772,282.0731 Q1334.2407,282.1669 1334.6314,282.3856 L1334.6314,284.3075 Q1334.1939,283.9013 1333.772,283.7138 Q1333.3501,283.5106 1332.9126,283.5106 Q1331.9595,283.5106 1331.4751,284.2763 Q1330.9907,285.0263 1330.9907,286.5106 Q1330.9907,287.9794 1331.4751,288.7294 Q1331.9595,289.4794 1332.9126,289.4794 Q1333.3501,289.4794 1333.772,289.2919 Q1334.1939,289.1044 1334.6314,288.6981 L1334.6314,290.62 Z " fill="#000000"/><text fill="#000000" font-family="Arial" font-size="12" lengthAdjust="spacing" textLength="92.1621" x="1351.8032" y="290.5243">PipelineFactory</text><line style="stroke:#666666;stroke-width:0.5;" x1="1262.73" x2="1503.0386" y1="301.37" y2="301.37"/><text fill="#000000" font-family="Arial" font-size="12" lengthAdjust="spacing" textLength="183.7793" x="1267.73" y="316.5087">-_registry: ComponentRegistry</text><text fill="#000000" font-family="Arial" font-size="12" lengthAdjust="spacing" textLength="146.4668" x="1267.73" y="330.4774">-_container: DIContainer</text><line style="stroke:#666666;stroke-width:0.5;" x1="1262.73" x2="1503.0386" y1="337.3075" y2="337.3075"/><text fill="#000000" font-family="Arial" font-size="12" lengthAdjust="spacing" textLength="189.6855" x="1267.73" y="352.4462">+create_data_loader(**kwargs)</text><text fill="#000000" font-family="Arial" font-size="12" lengthAdjust="spacing" textLength="230.3086" x="1267.73" y="366.4149">+create_data_preprocessor(**kwargs)</text><text fill="#000000" font-family="Arial" font-size="12" lengthAdjust="spacing" textLength="221.5254" x="1267.73" y="380.3837">+create_feature_engineer(**kwargs)</text><text fill="#000000" font-family="Arial" font-size="12" lengthAdjust="spacing" textLength="203.8828" x="1267.73" y="394.3524">+create_model_builder(**kwargs)</text><text fill="#000000" font-family="Arial" font-size="12" lengthAdjust="spacing" textLength="202.3066" x="1267.73" y="408.3212">+create_model_trainer(**kwargs)</text><text fill="#000000" font-family="Arial" font-size="12" lengthAdjust="spacing" textLength="219.1699" x="1267.73" y="422.2899">+create_model_evaluator(**kwargs)</text><text fill="#000000" font-family="Arial" font-size="12" lengthAdjust="spacing" textLength="216.5977" x="1267.73" y="436.2587">+create_model_serializer(**kwargs)</text><text fill="#000000" font-family="Arial" font-size="12" lengthAdjust="spacing" textLength="173.1563" x="1267.73" y="450.2274">+create_predictor(**kwargs)</text><text fill="#000000" font-family="Arial" font-size="12" lengthAdjust="spacing" textLength="221.0156" x="1267.73" y="464.1962">+create(component_type, **kwargs)</text></g><!--class ComponentWithDependencies--><g class="entity" data-entity="ComponentWithDependencies" data-source-line="47" data-uid="ent0005" id="entity_ComponentWithDependencies"><rect fill="#F1F1F1" height="101.875" rx="4" ry="4" style="stroke:#666666;stroke-width:0.5;" width="231.6035" x="191.08" y="320.26"/><ellipse cx="213.6414" cy="335.26" fill="#ADD1B2" rx="10" ry="10" style="stroke:#181818;stroke-width:1;"/><path d="M215.4696,339.51 Q215.0633,339.7131 214.6102,339.8225 Q214.1571,339.9319 213.6727,339.9319 Q211.8914,339.9319 210.9539,338.7756 Q210.0321,337.6038 210.0321,335.4006 Q210.0321,333.1819 210.9539,332.0256 Q211.8914,330.8538 213.6727,330.8538 Q214.1571,330.8538 214.6102,330.9631 Q215.0789,331.0569 215.4696,331.2756 L215.4696,333.1975 Q215.0321,332.7913 214.6102,332.6038 Q214.1883,332.4006 213.7508,332.4006 Q212.7977,332.4006 212.3133,333.1663 Q211.8289,333.9163 211.8289,335.4006 Q211.8289,336.8694 212.3133,337.6194 Q212.7977,338.3694 213.7508,338.3694 Q214.1883,338.3694 214.6102,338.1819 Q215.0321,337.9944 215.4696,337.5881 L215.4696,339.51 Z " fill="#000000"/><text fill="#000000" font-family="Arial" font-size="12" lengthAdjust="spacing" textLength="182.5781" x="228.544" y="339.4143">ComponentWithDependencies</text><line style="stroke:#666666;stroke-width:0.5;" x1="192.08" x2="421.6835" y1="350.26" y2="350.26"/><text fill="#000000" font-family="Arial" font-size="12" lengthAdjust="spacing" textLength="159.1465" x="197.08" y="365.3987">-_data_loader: DataLoader</text><text fill="#000000" font-family="Arial" font-size="12" lengthAdjust="spacing" textLength="203.6309" x="197.08" y="379.3674">-_preprocessor: DataPreprocessor</text><line style="stroke:#666666;stroke-width:0.5;" x1="192.08" x2="421.6835" y1="386.1975" y2="386.1975"/><text fill="#000000" font-family="Arial" font-size="12" lengthAdjust="spacing" textLength="219.6035" x="197.08" y="401.3362">+__init__(data_loader, preprocessor)</text><text fill="#000000" font-family="Arial" font-size="12" lengthAdjust="spacing" textLength="159.1348" x="197.08" y="415.3049">+process_data(data_path)</text></g><!--class DataLoader--><g class="entity" data-entity="DataLoader" data-source-line="55" data-uid="ent0006" id="entity_DataLoader"><rect fill="#F1F1F1" height="73.9375" rx="4" ry="4" style="stroke:#666666;stroke-width:0.5;" width="174.1523" x="120.81" y="546.03"/><ellipse cx="168.9028" cy="561.03" fill="#B4A7E5" rx="10" ry="10" style="stroke:#181818;stroke-width:1;"/><path d="M165.9184,558.3113 L165.9184,556.78 L171.1215,556.78 L171.1215,558.3113 L169.3871,558.3113 L169.3871,563.9988 L171.1215,563.9988 L171.1215,565.53 L165.9184,565.53 L165.9184,563.9988 L167.6528,563.9988 L167.6528,558.3113 L165.9184,558.3113 Z " fill="#000000"/><text fill="#000000" font-family="Arial" font-size="12" font-style="italic" lengthAdjust="spacing" textLength="69.9668" x="187.9028" y="565.1843">DataLoader</text><line style="stroke:#666666;stroke-width:0.5;" x1="121.81" x2="293.9623" y1="576.03" y2="576.03"/><line style="stroke:#666666;stroke-width:0.5;" x1="121.81" x2="293.9623" y1="584.03" y2="584.03"/><text fill="#000000" font-family="Arial" font-size="12" lengthAdjust="spacing" textLength="162.1523" x="126.81" y="599.1687">+load_data(data_path: str)</text><text fill="#000000" font-family="Arial" font-size="12" lengthAdjust="spacing" textLength="81.8438" x="126.81" y="613.1374">+get_config()</text></g><!--class DataPreprocessor--><g class="entity" data-entity="DataPreprocessor" data-source-line="60" data-uid="ent0007" id="entity_DataPreprocessor"><rect fill="#F1F1F1" height="73.9375" rx="4" ry="4" style="stroke:#666666;stroke-width:0.5;" width="205.7578" x="330" y="546.03"/><ellipse cx="375.4502" cy="561.03" fill="#B4A7E5" rx="10" ry="10" style="stroke:#181818;stroke-width:1;"/><path d="M372.4658,558.3113 L372.4658,556.78 L377.6689,556.78 L377.6689,558.3113 L375.9346,558.3113 L375.9346,563.9988 L377.6689,563.9988 L377.6689,565.53 L372.4658,565.53 L372.4658,563.9988 L374.2002,563.9988 L374.2002,558.3113 L372.4658,558.3113 Z " fill="#000000"/><text fill="#000000" font-family="Arial" font-size="12" font-style="italic" lengthAdjust="spacing" textLength="106.8574" x="394.4502" y="565.1843">DataPreprocessor</text><line style="stroke:#666666;stroke-width:0.5;" x1="331" x2="534.7578" y1="576.03" y2="576.03"/><line style="stroke:#666666;stroke-width:0.5;" x1="331" x2="534.7578" y1="584.03" y2="584.03"/><text fill="#000000" font-family="Arial" font-size="12" lengthAdjust="spacing" textLength="112.7578" x="336" y="599.1687">+preprocess(data)</text><text fill="#000000" font-family="Arial" font-size="12" lengthAdjust="spacing" textLength="193.7578" x="336" y="613.1374">+verify_required_columns(data)</text></g><!--class CSVDataLoader--><g class="entity" data-entity="CSVDataLoader" data-source-line="66" data-uid="ent0008" id="entity_CSVDataLoader"><rect fill="#F1F1F1" height="101.875" rx="4" ry="4" style="stroke:#666666;stroke-width:0.5;" width="191.7656" x="7" y="680.96"/><ellipse cx="51.7969" cy="695.96" fill="#ADD1B2" rx="10" ry="10" style="stroke:#181818;stroke-width:1;"/><path d="M53.625,700.21 Q53.2188,700.4131 52.7656,700.5225 Q52.3125,700.6319 51.8281,700.6319 Q50.0469,700.6319 49.1094,699.4756 Q48.1875,698.3038 48.1875,696.1006 Q48.1875,693.8819 49.1094,692.7256 Q50.0469,691.5538 51.8281,691.5538 Q52.3125,691.5538 52.7656,691.6631 Q53.2344,691.7569 53.625,691.9756 L53.625,693.8975 Q53.1875,693.4913 52.7656,693.3038 Q52.3438,693.1006 51.9063,693.1006 Q50.9531,693.1006 50.4688,693.8663 Q49.9844,694.6163 49.9844,696.1006 Q49.9844,697.5694 50.4688,698.3194 Q50.9531,699.0694 51.9063,699.0694 Q52.3438,699.0694 52.7656,698.8819 Q53.1875,698.6944 53.625,698.2881 L53.625,700.21 Z " fill="#000000"/><text fill="#000000" font-family="Arial" font-size="12" lengthAdjust="spacing" textLength="94.1719" x="70.7969" y="700.1143">CSVDataLoader</text><line style="stroke:#666666;stroke-width:0.5;" x1="8" x2="197.7656" y1="710.96" y2="710.96"/><text fill="#000000" font-family="Arial" font-size="12" lengthAdjust="spacing" textLength="85.6348" x="13" y="726.0987">-_file_path: str</text><line style="stroke:#666666;stroke-width:0.5;" x1="8" x2="197.7656" y1="732.9288" y2="732.9288"/><text fill="#000000" font-family="Arial" font-size="12" lengthAdjust="spacing" textLength="155.3145" x="13" y="748.0674">+__init__(file_path=None)</text><text fill="#000000" font-family="Arial" font-size="12" lengthAdjust="spacing" textLength="179.7656" x="13" y="762.0362">+load_data(data_path=None)</text><text fill="#000000" font-family="Arial" font-size="12" lengthAdjust="spacing" textLength="81.8438" x="13" y="776.0049">+get_config()</text></g><!--class StandardPreprocessor--><g class="entity" data-entity="StandardPreprocessor" data-source-line="73" data-uid="ent0009" id="entity_StandardPreprocessor"><rect fill="#F1F1F1" height="73.9375" rx="4" ry="4" style="stroke:#666666;stroke-width:0.5;" width="205.7578" x="437" y="694.93"/><ellipse cx="470.2375" cy="709.93" fill="#ADD1B2" rx="10" ry="10" style="stroke:#181818;stroke-width:1;"/><path d="M472.0656,714.18 Q471.6594,714.3831 471.2063,714.4925 Q470.7531,714.6019 470.2688,714.6019 Q468.4875,714.6019 467.55,713.4456 Q466.6281,712.2738 466.6281,710.0706 Q466.6281,707.8519 467.55,706.6956 Q468.4875,705.5238 470.2688,705.5238 Q470.7531,705.5238 471.2063,705.6331 Q471.675,705.7269 472.0656,705.9456 L472.0656,707.8675 Q471.6281,707.4613 471.2063,707.2738 Q470.7844,707.0706 470.3469,707.0706 Q469.3938,707.0706 468.9094,707.8363 Q468.425,708.5863 468.425,710.0706 Q468.425,711.5394 468.9094,712.2894 Q469.3938,713.0394 470.3469,713.0394 Q470.7844,713.0394 471.2063,712.8519 Q471.6281,712.6644 472.0656,712.2581 L472.0656,714.18 Z " fill="#000000"/><text fill="#000000" font-family="Arial" font-size="12" lengthAdjust="spacing" textLength="133.0078" x="487.5125" y="714.0843">StandardPreprocessor</text><line style="stroke:#666666;stroke-width:0.5;" x1="438" x2="641.7578" y1="724.93" y2="724.93"/><line style="stroke:#666666;stroke-width:0.5;" x1="438" x2="641.7578" y1="732.93" y2="732.93"/><text fill="#000000" font-family="Arial" font-size="12" lengthAdjust="spacing" textLength="112.7578" x="443" y="748.0687">+preprocess(data)</text><text fill="#000000" font-family="Arial" font-size="12" lengthAdjust="spacing" textLength="193.7578" x="443" y="762.0374">+verify_required_columns(data)</text></g><g class="entity" data-entity="GMN19" data-source-line="94" data-uid="ent0020" id="entity_GMN19"><path d="M1017.71,88.56 L1017.71,146.435 A4,4 0 0 0 1021.71,150.435 L1414.0459,150.435 A4,4 0 0 0 1418.0459,146.435 L1418.0459,94.56 L1408.0459,84.56 L1021.71,84.56 A4,4 0 0 0 1017.71,88.56 " fill="#FEFFDD" style="stroke:#181818;stroke-width:0.5;"/><path d="M1408.0459,84.56 L1408.0459,92.56 A2,2 0 0 0 1410.0459,94.56 L1418.0459,94.56 L1408.0459,84.56 " fill="#FEFFDD" style="stroke:#181818;stroke-width:1;"/><text fill="#000000" font-family="Arial" font-size="12" lengthAdjust="spacing" textLength="76.9453" x="1023.71" y="100.6987">Registration:</text><text fill="#000000" font-family="Arial" font-size="12" lengthAdjust="spacing" textLength="303.6094" x="1023.71" y="114.6674">1. container.register(DataLoader, CSVDataLoader)</text><text fill="#000000" font-family="Arial" font-size="12" lengthAdjust="spacing" textLength="379.3359" x="1023.71" y="128.6362">2. container.register(DataPreprocessor, StandardPreprocessor)</text><text fill="#000000" font-family="Arial" font-size="12" lengthAdjust="spacing" textLength="314.4199" x="1023.71" y="142.6049">3. container.register(ComponentWithDependencies)</text></g><g class="entity" data-entity="GMN22" data-source-line="101" data-uid="ent0023" id="entity_GMN22"><path d="M564.79,74.59 L564.79,113.5 L529.89,117.5 L564.79,121.5 L564.79,160.4025 A4,4 0 0 0 568.79,164.4025 L978.9677,164.4025 A4,4 0 0 0 982.9677,160.4025 L982.9677,80.59 L972.9677,70.59 L568.79,70.59 A4,4 0 0 0 564.79,74.59 " fill="#FEFFDD" style="stroke:#181818;stroke-width:0.5;"/><path d="M972.9677,70.59 L972.9677,78.59 A2,2 0 0 0 974.9677,80.59 L982.9677,80.59 L972.9677,70.59 " fill="#FEFFDD" style="stroke:#181818;stroke-width:0.5;"/><text fill="#000000" font-family="Arial" font-size="12" lengthAdjust="spacing" textLength="67.2832" x="570.79" y="86.7287">Resolution:</text><text fill="#000000" font-family="Arial" font-size="12" lengthAdjust="spacing" textLength="397.1777" x="570.79" y="100.6974">1. component = container.resolve(ComponentWithDependencies)</text><text fill="#000000" font-family="Arial" font-size="12" lengthAdjust="spacing" textLength="303.1758" x="570.79" y="114.6662">2. container automatically resolves dependencies:</text><text fill="#000000" font-family="Arial" font-size="12" lengthAdjust="spacing" textLength="280.5527" x="582.2334" y="128.6349">- data_loader = container.resolve(DataLoader)</text><text fill="#000000" font-family="Arial" font-size="12" lengthAdjust="spacing" textLength="325.0371" x="582.2334" y="142.6037">- preprocessor = container.resolve(DataPreprocessor)</text><text fill="#000000" font-family="Arial" font-size="12" lengthAdjust="spacing" textLength="318.3633" x="570.79" y="156.5724">3. component is created with resolved dependencies</text></g><!--reverse link DIContainer to PipelineFactory--><g class="link" data-entity-1="DIContainer" data-entity-2="PipelineFactory" data-source-line="79" data-uid="lnk10" id="link_DIContainer_PipelineFactory"><path codeLine="79" d="M535.6701,193.3595 C541.3801,194.9495 541.27,194.88 546.88,196.37 C798.35,263.1 1097.93,320.03 1261.47,349.24 " fill="none" id="DIContainer-backto-PipelineFactory" style="stroke:#181818;stroke-width:1;"/><polygon fill="#181818" points="529.89,191.75,537.4871,198.0177,534.7067,193.0913,539.6331,190.3109,529.89,191.75" style="stroke:#181818;stroke-width:1;"/></g><!--reverse link ComponentRegistry to PipelineFactory--><g class="link" data-entity-1="ComponentRegistry" data-entity-2="PipelineFactory" data-source-line="80" data-uid="lnk11" id="link_ComponentRegistry_PipelineFactory"><path codeLine="80" d="M1558.2905,186.9938 C1532.6305,213.7938 1506.38,241.22 1477.95,270.91 " fill="none" id="ComponentRegistry-backto-PipelineFactory" style="stroke:#181818;stroke-width:1;"/><polygon fill="#181818" points="1562.44,182.66,1553.3266,186.3944,1558.9821,186.2715,1559.105,191.927,1562.44,182.66" style="stroke:#181818;stroke-width:1;"/></g><!--reverse link DataLoader to CSVDataLoader--><g class="link" data-entity-1="DataLoader" data-entity-2="CSVDataLoader" data-source-line="82" data-uid="lnk12" id="link_DataLoader_CSVDataLoader"><path codeLine="82" d="M171.4601,634.9518 C158.4601,653.1318 152.99,660.8 138.84,680.6 " fill="none" id="DataLoader-backto-CSVDataLoader" style="stroke:#181818;stroke-width:1;stroke-dasharray:7.0,7.0;"/><polygon fill="none" points="181.93,620.31,166.5795,631.4618,176.3407,638.4417,181.93,620.31" style="stroke:#181818;stroke-width:1;"/></g><!--reverse link DataPreprocessor to StandardPreprocessor--><g class="link" data-entity-1="DataPreprocessor" data-entity-2="StandardPreprocessor" data-source-line="83" data-uid="lnk13" id="link_DataPreprocessor_StandardPreprocessor"><path codeLine="83" d="M469.927,634.86 C486.387,657.46 496.89,671.88 513.37,694.5 " fill="none" id="DataPreprocessor-backto-StandardPreprocessor" style="stroke:#181818;stroke-width:1;stroke-dasharray:7.0,7.0;"/><polygon fill="none" points="459.33,620.31,465.077,638.3924,474.777,631.3277,459.33,620.31" style="stroke:#181818;stroke-width:1;"/></g><!--link DIContainer to CSVDataLoader--><g class="link" data-entity-1="DIContainer" data-entity-2="CSVDataLoader" data-source-line="85" data-uid="lnk14" id="link_DIContainer_CSVDataLoader"><path codeLine="85" d="M226.78,196.58 C207.15,219.17 187.81,244.91 173.88,271.37 C115.16,382.94 118.79,420.95 102.88,546.03 C97.13,591.24 97.4868,637.1862 99.1868,674.4762 " fill="none" id="DIContainer-to-CSVDataLoader" style="stroke:#181818;stroke-width:1;"/><polygon fill="#181818" points="99.46,680.47,103.046,671.2972,99.2323,675.4752,95.0543,671.6615,99.46,680.47" style="stroke:#181818;stroke-width:1;"/><text fill="#000000" font-family="Arial" font-size="12" lengthAdjust="spacing" textLength="44.6074" x="109.88" y="513.1687">creates</text></g><!--link DIContainer to StandardPreprocessor--><g class="link" data-entity-1="DIContainer" data-entity-2="StandardPreprocessor" data-source-line="86" data-uid="lnk15" id="link_DIContainer_StandardPreprocessor"><path codeLine="86" d="M383.56,196.75 C403.53,219.63 423.9,245.48 439.88,271.37 C509.23,383.68 527.29,416.54 552.88,546.03 C562.96,597 556.2717,651.3458 549.1317,688.8658 " fill="none" id="DIContainer-to-StandardPreprocessor" style="stroke:#181818;stroke-width:1;"/><polygon fill="#181818" points="548.01,694.76,553.622,686.6664,548.9447,689.8481,545.763,685.1709,548.01,694.76" style="stroke:#181818;stroke-width:1;"/><text fill="#000000" font-family="Arial" font-size="12" lengthAdjust="spacing" textLength="44.6074" x="547.88" y="513.1687">creates</text></g><!--link DIContainer to ComponentWithDependencies--><g class="link" data-entity-1="DIContainer" data-entity-2="ComponentWithDependencies" data-source-line="87" data-uid="lnk16" id="link_DIContainer_ComponentWithDependencies"><path codeLine="87" d="M306.88,196.76 C306.88,236.88 306.88,278.56 306.88,313.77 " fill="none" id="DIContainer-to-ComponentWithDependencies" style="stroke:#181818;stroke-width:1;"/><polygon fill="#181818" points="306.88,319.77,310.88,310.77,306.88,314.77,302.88,310.77,306.88,319.77" style="stroke:#181818;stroke-width:1;"/><text fill="#000000" font-family="Arial" font-size="12" lengthAdjust="spacing" textLength="44.6074" x="307.88" y="238.5087">creates</text></g><!--link ComponentWithDependencies to DataLoader--><g class="link" data-entity-1="ComponentWithDependencies" data-entity-2="DataLoader" data-source-line="89" data-uid="lnk17" id="link_ComponentWithDependencies_DataLoader"><path codeLine="89" d="M283.17,422.45 C265.27,460.39 243.6808,506.1439 227.6108,540.1939 " fill="none" id="ComponentWithDependencies-to-DataLoader" style="stroke:#181818;stroke-width:1;"/><polygon fill="#181818" points="225.05,545.62,232.5086,539.1881,227.184,541.0983,225.2739,535.7737,225.05,545.62" style="stroke:#181818;stroke-width:1;"/><text fill="#000000" font-family="Arial" font-size="12" lengthAdjust="spacing" textLength="70.2363" x="246.88" y="513.1687">depends on</text></g><!--link ComponentWithDependencies to DataPreprocessor--><g class="link" data-entity-1="ComponentWithDependencies" data-entity-2="DataPreprocessor" data-source-line="90" data-uid="lnk18" id="link_ComponentWithDependencies_DataPreprocessor"><path codeLine="90" d="M337.06,422.45 C359.85,460.39 387.5008,506.4264 407.9508,540.4764 " fill="none" id="ComponentWithDependencies-to-DataPreprocessor" style="stroke:#181818;stroke-width:1;"/><polygon fill="#181818" points="411.04,545.62,409.8353,535.8451,408.4657,541.3336,402.9771,539.964,411.04,545.62" style="stroke:#181818;stroke-width:1;"/><text fill="#000000" font-family="Arial" font-size="12" lengthAdjust="spacing" textLength="70.2363" x="393.88" y="513.1687">depends on</text></g><!--link DIContainer to GMN19--><g class="link" data-entity-1="DIContainer" data-entity-2="GMN19" data-source-line="94" data-uid="lnk21" id="link_DIContainer_GMN19"><path d="M502.83,38.17 C523.35,32.25 544.12,27.2 564.38,23.62 C656.08,7.43 891.95,6 983.38,23.62 C1043.45,35.2 1107.69,62.03 1153.71,84.06 " fill="none" id="DIContainer-GMN19" style="stroke:#181818;stroke-width:1;stroke-dasharray:7.0,7.0;"/></g><!--SRC=[hLRVQzim47xtNo7OGzCs2Mi7OuHsq2KK2gEKTcmFOnZ5lZYYikH9Salsut_VMPPjoR7JFYmFmTPzT_VTfzF9HsG56oQ0QBFZe2Fzo4H15St9cYQFcPAbI9UIIqMUjyo0PqyurVhA6CNMfO6RH8e7zWl8Mm-ImeQMt5nBOMvf3kHACSg7xTRtxDmpkjHAW28V-da_IPM2geczUMz_KNJKrBAw8KZ7K7nMaSNZqh9P8RyZGcRnXYP6AWPwGLOiCT-_x0gOaYNbdAuv_B0OpKJ6mKWHWjPIyXh0X3PK9BqWLs9NcKyLP4mRK1Ccy1yJGcmiWEK5XnoGa65IsCNBModGqcQylAPSmx4Vnb7UxOLpwozuDrptsJY3Wsl9d_eWQqeuK3KvZlvwKYSoBv2uCAJEetPEy6LZk7VhJlQmTAURjRXk64MCoocmkGP5jRGpwCSS360tm3feT1WcC-ZO9dcLJoYVspcdsHqhWEFoTRtg56k4NUnhQkrjgo_yBhSRfe0QY5DgQCmbnHCpEJbvVAOgqyTzUw6WK18xMSjXr0R_ImKnY0pZZuJAPGeyNfUCfmSHHbcI1n3mH7b9ZJo4qL0D59mSmo0iAMN9I8X9sxbkAplCS7y_CxF5YLM0I44aE3VwZVuD0IlFxhRFKnyt25y-ssThyqMlZNVUIaKsncFBJ1nFl31JullPcjoRJLP32sgsOIbj7-geVVG8MRgdLOPUb0NU3QfjSkos3SlgAH26yQdNmJgQDfgDyOHxjjbXK_yi6UuFnkDbBXf0m3US0utS3rzxd76KCmuTrK2srjGTxu4IEsE_n3hf0yx7bAhqVvUeWDV5RLcX8_-EkfZD-kCWsX-fGwZ8a-VYptmUAXRjxPJ531KO1OHciuyzxHUaFabw3pSerpXy_0HrFj4ug0eHqAeFgIPIlCAhnz7pzRV9wcstYc1fn5wIfNtLkCiO4Y8X3I9PjZL4RdgJ-DuBiC3titdtWJ9lhxMkY6aeTTLLvwCkVWNJGUqh_tU3_gFw74VuIAgQeXSgQvHewse6vcMGiFwgE90lB97GqiWS1KlmWsn7dByE1d2L4Nypuit6mQoXajR5dw2ZFeCQDkKnxPephQy6vvY6TqIZuZy0]--></g></svg>