<svg xmlns="http://www.w3.org/2000/svg" xmlns:xlink="http://www.w3.org/1999/xlink" contentStyleType="text/css" data-diagram-type="CLASS" height="635px" preserveAspectRatio="none" style="width:3027px;height:635px;background:#FFFFFF;" version="1.1" viewBox="0 0 3027 635" width="3027px" zoomAndPan="magnify"><defs/><g><!--class DataLoader--><g class="entity" data-entity="DataLoader" data-source-line="10" data-uid="ent0002" id="entity_DataLoader"><rect fill="#F1F1F1" height="73.9375" rx="4" ry="4" style="stroke:#666666;stroke-width:0.5;" width="252.7383" x="400.94" y="505.36"/><ellipse cx="488.3257" cy="520.36" fill="#B4A7E5" rx="10" ry="10" style="stroke:#181818;stroke-width:1;"/><path d="M485.3414,517.6413 L485.3414,516.11 L490.5445,516.11 L490.5445,517.6413 L488.8101,517.6413 L488.8101,523.3288 L490.5445,523.3288 L490.5445,524.86 L485.3414,524.86 L485.3414,523.3288 L487.0757,523.3288 L487.0757,517.6413 L485.3414,517.6413 Z " fill="#000000"/><text fill="#000000" font-family="Arial" font-size="12" font-style="italic" lengthAdjust="spacing" textLength="69.9668" x="507.3257" y="524.5143">DataLoader</text><line style="stroke:#666666;stroke-width:0.5;" x1="401.94" x2="652.6783" y1="535.36" y2="535.36"/><line style="stroke:#666666;stroke-width:0.5;" x1="401.94" x2="652.6783" y1="543.36" y2="543.36"/><text fill="#000000" font-family="Arial" font-size="12" lengthAdjust="spacing" textLength="240.7383" x="406.94" y="558.4987">+load_data(data_path: str) : DataFrame</text><text fill="#000000" font-family="Arial" font-size="12" lengthAdjust="spacing" textLength="117.3926" x="406.94" y="572.4674">+get_config() : Dict</text></g><!--class DataPreprocessor--><g class="entity" data-entity="DataPreprocessor" data-source-line="15" data-uid="ent0003" id="entity_DataPreprocessor"><rect fill="#F1F1F1" height="73.9375" rx="4" ry="4" style="stroke:#666666;stroke-width:0.5;" width="359.1152" x="688.75" y="505.36"/><ellipse cx="810.8789" cy="520.36" fill="#B4A7E5" rx="10" ry="10" style="stroke:#181818;stroke-width:1;"/><path d="M807.8945,517.6413 L807.8945,516.11 L813.0977,516.11 L813.0977,517.6413 L811.3633,517.6413 L811.3633,523.3288 L813.0977,523.3288 L813.0977,524.86 L807.8945,524.86 L807.8945,523.3288 L809.6289,523.3288 L809.6289,517.6413 L807.8945,517.6413 Z " fill="#000000"/><text fill="#000000" font-family="Arial" font-size="12" font-style="italic" lengthAdjust="spacing" textLength="106.8574" x="829.8789" y="524.5143">DataPreprocessor</text><line style="stroke:#666666;stroke-width:0.5;" x1="689.75" x2="1046.8652" y1="535.36" y2="535.36"/><line style="stroke:#666666;stroke-width:0.5;" x1="689.75" x2="1046.8652" y1="543.36" y2="543.36"/><text fill="#000000" font-family="Arial" font-size="12" lengthAdjust="spacing" textLength="266.1152" x="694.75" y="558.4987">+preprocess(data: DataFrame) : DataFrame</text><text fill="#000000" font-family="Arial" font-size="12" lengthAdjust="spacing" textLength="347.1152" x="694.75" y="572.4674">+verify_required_columns(data: DataFrame) : DataFrame</text></g><!--class FeatureEngineer--><g class="entity" data-entity="FeatureEngineer" data-source-line="20" data-uid="ent0004" id="entity_FeatureEngineer"><rect fill="#F1F1F1" height="87.9063" rx="4" ry="4" style="stroke:#666666;stroke-width:0.5;" width="320.8887" x="1082.86" y="498.38"/><ellipse cx="1189.4498" cy="513.38" fill="#B4A7E5" rx="10" ry="10" style="stroke:#181818;stroke-width:1;"/><path d="M1186.4655,510.6613 L1186.4655,509.13 L1191.6686,509.13 L1191.6686,510.6613 L1189.9342,510.6613 L1189.9342,516.3488 L1191.6686,516.3488 L1191.6686,517.88 L1186.4655,517.88 L1186.4655,516.3488 L1188.1998,516.3488 L1188.1998,510.6613 L1186.4655,510.6613 Z " fill="#000000"/><text fill="#000000" font-family="Arial" font-size="12" font-style="italic" lengthAdjust="spacing" textLength="99.709" x="1208.4498" y="517.5343">FeatureEngineer</text><line style="stroke:#666666;stroke-width:0.5;" x1="1083.86" x2="1402.7487" y1="528.38" y2="528.38"/><line style="stroke:#666666;stroke-width:0.5;" x1="1083.86" x2="1402.7487" y1="536.38" y2="536.38"/><text fill="#000000" font-family="Arial" font-size="12" lengthAdjust="spacing" textLength="308.8887" x="1088.86" y="551.5187">+engineer_features(data: DataFrame) : DataFrame</text><text fill="#000000" font-family="Arial" font-size="12" lengthAdjust="spacing" textLength="244.8633" x="1088.86" y="565.4874">+fit(data: DataFrame) : FeatureEngineer</text><text fill="#000000" font-family="Arial" font-size="12" lengthAdjust="spacing" textLength="258.8438" x="1088.86" y="579.4562">+transform(data: DataFrame) : DataFrame</text></g><!--class ModelBuilder--><g class="entity" data-entity="ModelBuilder" data-source-line="26" data-uid="ent0005" id="entity_ModelBuilder"><rect fill="#F1F1F1" height="73.9375" rx="4" ry="4" style="stroke:#666666;stroke-width:0.5;" width="386.9531" x="1438.83" y="505.36"/><ellipse cx="1589.0722" cy="520.36" fill="#B4A7E5" rx="10" ry="10" style="stroke:#181818;stroke-width:1;"/><path d="M1586.0878,517.6413 L1586.0878,516.11 L1591.2909,516.11 L1591.2909,517.6413 L1589.5566,517.6413 L1589.5566,523.3288 L1591.2909,523.3288 L1591.2909,524.86 L1586.0878,524.86 L1586.0878,523.3288 L1587.8222,523.3288 L1587.8222,517.6413 L1586.0878,517.6413 Z " fill="#000000"/><text fill="#000000" font-family="Arial" font-size="12" font-style="italic" lengthAdjust="spacing" textLength="78.4688" x="1608.0722" y="524.5143">ModelBuilder</text><line style="stroke:#666666;stroke-width:0.5;" x1="1439.83" x2="1824.7831" y1="535.36" y2="535.36"/><line style="stroke:#666666;stroke-width:0.5;" x1="1439.83" x2="1824.7831" y1="543.36" y2="543.36"/><text fill="#000000" font-family="Arial" font-size="12" lengthAdjust="spacing" textLength="151.1895" x="1444.83" y="558.4987">+build_model() : Pipeline</text><text fill="#000000" font-family="Arial" font-size="12" lengthAdjust="spacing" textLength="374.9531" x="1444.83" y="572.4674">+optimize_hyperparameters(model, x_train, y_train) : Pipeline</text></g><!--class ModelTrainer--><g class="entity" data-entity="ModelTrainer" data-source-line="31" data-uid="ent0006" id="entity_ModelTrainer"><rect fill="#F1F1F1" height="73.9375" rx="4" ry="4" style="stroke:#666666;stroke-width:0.5;" width="252.9375" x="1860.84" y="505.36"/><ellipse cx="1943.8576" cy="520.36" fill="#B4A7E5" rx="10" ry="10" style="stroke:#181818;stroke-width:1;"/><path d="M1940.8732,517.6413 L1940.8732,516.11 L1946.0763,516.11 L1946.0763,517.6413 L1944.342,517.6413 L1944.342,523.3288 L1946.0763,523.3288 L1946.0763,524.86 L1940.8732,524.86 L1940.8732,523.3288 L1942.6076,523.3288 L1942.6076,517.6413 L1940.8732,517.6413 Z " fill="#000000"/><text fill="#000000" font-family="Arial" font-size="12" font-style="italic" lengthAdjust="spacing" textLength="78.9023" x="1962.8576" y="524.5143">ModelTrainer</text><line style="stroke:#666666;stroke-width:0.5;" x1="1861.84" x2="2112.7775" y1="535.36" y2="535.36"/><line style="stroke:#666666;stroke-width:0.5;" x1="1861.84" x2="2112.7775" y1="543.36" y2="543.36"/><text fill="#000000" font-family="Arial" font-size="12" lengthAdjust="spacing" textLength="240.9375" x="1866.84" y="558.4987">+train(model, x_train, y_train) : Pipeline</text><text fill="#000000" font-family="Arial" font-size="12" lengthAdjust="spacing" textLength="207.3516" x="1866.84" y="572.4674">+cross_validate(model, x, y) : Dict</text></g><!--class ModelEvaluator--><g class="entity" data-entity="ModelEvaluator" data-source-line="36" data-uid="ent0007" id="entity_ModelEvaluator"><rect fill="#F1F1F1" height="73.9375" rx="4" ry="4" style="stroke:#666666;stroke-width:0.5;" width="359.3145" x="2148.65" y="505.36"/><ellipse cx="2277.6373" cy="520.36" fill="#B4A7E5" rx="10" ry="10" style="stroke:#181818;stroke-width:1;"/><path d="M2274.6529,517.6413 L2274.6529,516.11 L2279.8561,516.11 L2279.8561,517.6413 L2278.1217,517.6413 L2278.1217,523.3288 L2279.8561,523.3288 L2279.8561,524.86 L2274.6529,524.86 L2274.6529,523.3288 L2276.3873,523.3288 L2276.3873,517.6413 L2274.6529,517.6413 Z " fill="#000000"/><text fill="#000000" font-family="Arial" font-size="12" font-style="italic" lengthAdjust="spacing" textLength="93.3398" x="2296.6373" y="524.5143">ModelEvaluator</text><line style="stroke:#666666;stroke-width:0.5;" x1="2149.65" x2="2506.9645" y1="535.36" y2="535.36"/><line style="stroke:#666666;stroke-width:0.5;" x1="2149.65" x2="2506.9645" y1="543.36" y2="543.36"/><text fill="#000000" font-family="Arial" font-size="12" lengthAdjust="spacing" textLength="232.1016" x="2154.65" y="558.4987">+evaluate(model, x_test, y_test) : Dict</text><text fill="#000000" font-family="Arial" font-size="12" lengthAdjust="spacing" textLength="347.3145" x="2154.65" y="572.4674">+analyze_predictions(model, x_test, y_test, y_pred) : Dict</text></g><!--class ModelSerializer--><g class="entity" data-entity="ModelSerializer" data-source-line="41" data-uid="ent0008" id="entity_ModelSerializer"><rect fill="#F1F1F1" height="73.9375" rx="4" ry="4" style="stroke:#666666;stroke-width:0.5;" width="218.127" x="2543.24" y="505.36"/><ellipse cx="2602.3367" cy="520.36" fill="#B4A7E5" rx="10" ry="10" style="stroke:#181818;stroke-width:1;"/><path d="M2599.3523,517.6413 L2599.3523,516.11 L2604.5554,516.11 L2604.5554,517.6413 L2602.8211,517.6413 L2602.8211,523.3288 L2604.5554,523.3288 L2604.5554,524.86 L2599.3523,524.86 L2599.3523,523.3288 L2601.0867,523.3288 L2601.0867,517.6413 L2599.3523,517.6413 Z " fill="#000000"/><text fill="#000000" font-family="Arial" font-size="12" font-style="italic" lengthAdjust="spacing" textLength="91.9336" x="2621.3367" y="524.5143">ModelSerializer</text><line style="stroke:#666666;stroke-width:0.5;" x1="2544.24" x2="2760.367" y1="535.36" y2="535.36"/><line style="stroke:#666666;stroke-width:0.5;" x1="2544.24" x2="2760.367" y1="543.36" y2="543.36"/><text fill="#000000" font-family="Arial" font-size="12" lengthAdjust="spacing" textLength="206.127" x="2549.24" y="558.4987">+save_model(model, path) : None</text><text fill="#000000" font-family="Arial" font-size="12" lengthAdjust="spacing" textLength="174.6094" x="2549.24" y="572.4674">+load_model(path) : Pipeline</text></g><!--class Predictor--><g class="entity" data-entity="Predictor" data-source-line="46" data-uid="ent0009" id="entity_Predictor"><rect fill="#F1F1F1" height="73.9375" rx="4" ry="4" style="stroke:#666666;stroke-width:0.5;" width="224.2148" x="2796.2" y="505.36"/><ellipse cx="2877.2664" cy="520.36" fill="#B4A7E5" rx="10" ry="10" style="stroke:#181818;stroke-width:1;"/><path d="M2874.282,517.6413 L2874.282,516.11 L2879.4852,516.11 L2879.4852,517.6413 L2877.7508,517.6413 L2877.7508,523.3288 L2879.4852,523.3288 L2879.4852,524.86 L2874.282,524.86 L2874.282,523.3288 L2876.0164,523.3288 L2876.0164,517.6413 L2874.282,517.6413 Z " fill="#000000"/><text fill="#000000" font-family="Arial" font-size="12" font-style="italic" lengthAdjust="spacing" textLength="54.082" x="2896.2664" y="524.5143">Predictor</text><line style="stroke:#666666;stroke-width:0.5;" x1="2797.2" x2="3019.4148" y1="535.36" y2="535.36"/><line style="stroke:#666666;stroke-width:0.5;" x1="2797.2" x2="3019.4148" y1="543.36" y2="543.36"/><text fill="#000000" font-family="Arial" font-size="12" lengthAdjust="spacing" textLength="212.2148" x="2802.2" y="558.4987">+predict(model, data) : DataFrame</text><text fill="#000000" font-family="Arial" font-size="12" lengthAdjust="spacing" textLength="210.041" x="2802.2" y="572.4674">+predict_proba(model, data) : Dict</text></g><!--class ComponentRegistry--><g class="entity" data-entity="ComponentRegistry" data-source-line="52" data-uid="ent0010" id="entity_ComponentRegistry"><rect fill="#F1F1F1" height="129.8125" rx="4" ry="4" style="stroke:#666666;stroke-width:0.5;" width="341.4609" x="1461.58" y="7"/><ellipse cx="1568.6445" cy="22" fill="#ADD1B2" rx="10" ry="10" style="stroke:#181818;stroke-width:1;"/><path d="M1570.4726,26.25 Q1570.0663,26.4531 1569.6132,26.5625 Q1569.1601,26.6719 1568.6757,26.6719 Q1566.8945,26.6719 1565.957,25.5156 Q1565.0351,24.3438 1565.0351,22.1406 Q1565.0351,19.9219 1565.957,18.7656 Q1566.8945,17.5938 1568.6757,17.5938 Q1569.1601,17.5938 1569.6132,17.7031 Q1570.082,17.7969 1570.4726,18.0156 L1570.4726,19.9375 Q1570.0351,19.5313 1569.6132,19.3438 Q1569.1913,19.1406 1568.7538,19.1406 Q1567.8007,19.1406 1567.3163,19.9063 Q1566.832,20.6563 1566.832,22.1406 Q1566.832,23.6094 1567.3163,24.3594 Q1567.8007,25.1094 1568.7538,25.1094 Q1569.1913,25.1094 1569.6132,24.9219 Q1570.0351,24.7344 1570.4726,24.3281 L1570.4726,26.25 Z " fill="#000000"/><text fill="#000000" font-family="Arial" font-size="12" lengthAdjust="spacing" textLength="119.332" x="1587.6445" y="26.1543">ComponentRegistry</text><line style="stroke:#666666;stroke-width:0.5;" x1="1462.58" x2="1802.0409" y1="37" y2="37"/><text fill="#000000" font-family="Arial" font-size="12" lengthAdjust="spacing" textLength="143.3965" x="1467.58" y="52.1387">-_implementations: Dict</text><text fill="#000000" font-family="Arial" font-size="12" lengthAdjust="spacing" textLength="191.6191" x="1467.58" y="66.1074">-_default_implementations: Dict</text><line style="stroke:#666666;stroke-width:0.5;" x1="1462.58" x2="1802.0409" y1="72.9375" y2="72.9375"/><text fill="#000000" font-family="Arial" font-size="12" lengthAdjust="spacing" textLength="329.4609" x="1467.58" y="88.0762">+register(interface_type, name, implementation_type)</text><text fill="#000000" font-family="Arial" font-size="12" lengthAdjust="spacing" textLength="309.5508" x="1467.58" y="102.0449">+get_implementation(interface_type, name=None)</text><text fill="#000000" font-family="Arial" font-size="12" lengthAdjust="spacing" textLength="315.0469" x="1467.58" y="116.0137">+set_default_implementation(interface_type, name)</text><text fill="#000000" font-family="Arial" font-size="12" lengthAdjust="spacing" textLength="274.752" x="1467.58" y="129.9824">+get_default_implementation(interface_type)</text></g><!--class PipelineFactory--><g class="entity" data-entity="PipelineFactory" data-source-line="61" data-uid="ent0011" id="entity_PipelineFactory"><rect fill="#F1F1F1" height="199.6563" rx="4" ry="4" style="stroke:#666666;stroke-width:0.5;" width="360.8379" x="1451.89" y="196.82"/><ellipse cx="1582.2279" cy="211.82" fill="#ADD1B2" rx="10" ry="10" style="stroke:#181818;stroke-width:1;"/><path d="M1584.056,216.07 Q1583.6498,216.2731 1583.1966,216.3825 Q1582.7435,216.4919 1582.2591,216.4919 Q1580.4779,216.4919 1579.5404,215.3356 Q1578.6185,214.1638 1578.6185,211.9606 Q1578.6185,209.7419 1579.5404,208.5856 Q1580.4779,207.4138 1582.2591,207.4138 Q1582.7435,207.4138 1583.1966,207.5231 Q1583.6654,207.6169 1584.056,207.8356 L1584.056,209.7575 Q1583.6185,209.3513 1583.1966,209.1638 Q1582.7748,208.9606 1582.3373,208.9606 Q1581.3841,208.9606 1580.8998,209.7263 Q1580.4154,210.4763 1580.4154,211.9606 Q1580.4154,213.4294 1580.8998,214.1794 Q1581.3841,214.9294 1582.3373,214.9294 Q1582.7748,214.9294 1583.1966,214.7419 Q1583.6185,214.5544 1584.056,214.1481 L1584.056,216.07 Z " fill="#000000"/><text fill="#000000" font-family="Arial" font-size="12" lengthAdjust="spacing" textLength="92.1621" x="1601.2279" y="215.9743">PipelineFactory</text><line style="stroke:#666666;stroke-width:0.5;" x1="1452.89" x2="1811.7279" y1="226.82" y2="226.82"/><text fill="#000000" font-family="Arial" font-size="12" lengthAdjust="spacing" textLength="183.7793" x="1457.89" y="241.9587">-_registry: ComponentRegistry</text><text fill="#000000" font-family="Arial" font-size="12" lengthAdjust="spacing" textLength="146.4668" x="1457.89" y="255.9274">-_container: DIContainer</text><line style="stroke:#666666;stroke-width:0.5;" x1="1452.89" x2="1811.7279" y1="262.7575" y2="262.7575"/><text fill="#000000" font-family="Arial" font-size="12" lengthAdjust="spacing" textLength="271.3242" x="1457.89" y="277.8962">+create_data_loader(**kwargs) : DataLoader</text><text fill="#000000" font-family="Arial" font-size="12" lengthAdjust="spacing" textLength="348.8379" x="1457.89" y="291.8649">+create_data_preprocessor(**kwargs) : DataPreprocessor</text><text fill="#000000" font-family="Arial" font-size="12" lengthAdjust="spacing" textLength="332.9063" x="1457.89" y="305.8337">+create_feature_engineer(**kwargs) : FeatureEngineer</text><text fill="#000000" font-family="Arial" font-size="12" lengthAdjust="spacing" textLength="294.0234" x="1457.89" y="319.8024">+create_model_builder(**kwargs) : ModelBuilder</text><text fill="#000000" font-family="Arial" font-size="12" lengthAdjust="spacing" textLength="292.8809" x="1457.89" y="333.7712">+create_model_trainer(**kwargs) : ModelTrainer</text><text fill="#000000" font-family="Arial" font-size="12" lengthAdjust="spacing" textLength="324.1816" x="1457.89" y="347.7399">+create_model_evaluator(**kwargs) : ModelEvaluator</text><text fill="#000000" font-family="Arial" font-size="12" lengthAdjust="spacing" textLength="320.2031" x="1457.89" y="361.7087">+create_model_serializer(**kwargs) : ModelSerializer</text><text fill="#000000" font-family="Arial" font-size="12" lengthAdjust="spacing" textLength="238.9102" x="1457.89" y="375.6774">+create_predictor(**kwargs) : Predictor</text><text fill="#000000" font-family="Arial" font-size="12" lengthAdjust="spacing" textLength="255.6035" x="1457.89" y="389.6462">+create(component_type, **kwargs) : Any</text></g><!--class PipelineContext--><g class="entity" data-entity="PipelineContext" data-source-line="76" data-uid="ent0012" id="entity_PipelineContext"><rect fill="#F1F1F1" height="129.8125" rx="4" ry="4" style="stroke:#666666;stroke-width:0.5;" width="124.4473" x="124.08" y="231.74"/><ellipse cx="138.08" cy="246.74" fill="#ADD1B2" rx="10" ry="10" style="stroke:#181818;stroke-width:1;"/><path d="M139.9081,250.99 Q139.5019,251.1931 139.0487,251.3025 Q138.5956,251.4119 138.1112,251.4119 Q136.33,251.4119 135.3925,250.2556 Q134.4706,249.0838 134.4706,246.8806 Q134.4706,244.6619 135.3925,243.5056 Q136.33,242.3338 138.1112,242.3338 Q138.5956,242.3338 139.0487,242.4431 Q139.5175,242.5369 139.9081,242.7556 L139.9081,244.6775 Q139.4706,244.2713 139.0487,244.0838 Q138.6269,243.8806 138.1894,243.8806 Q137.2362,243.8806 136.7519,244.6463 Q136.2675,245.3963 136.2675,246.8806 Q136.2675,248.3494 136.7519,249.0994 Q137.2362,249.8494 138.1894,249.8494 Q138.6269,249.8494 139.0487,249.6619 Q139.4706,249.4744 139.9081,249.0681 L139.9081,250.99 Z " fill="#000000"/><text fill="#000000" font-family="Arial" font-size="12" lengthAdjust="spacing" textLength="94.4473" x="151.08" y="250.8943">PipelineContext</text><line style="stroke:#666666;stroke-width:0.5;" x1="125.08" x2="247.5273" y1="261.74" y2="261.74"/><text fill="#000000" font-family="Arial" font-size="12" lengthAdjust="spacing" textLength="69.0938" x="130.08" y="276.8787">-_data: Dict</text><text fill="#000000" font-family="Arial" font-size="12" lengthAdjust="spacing" textLength="70.9512" x="130.08" y="290.8474">-_status: str</text><line style="stroke:#666666;stroke-width:0.5;" x1="125.08" x2="247.5273" y1="297.6775" y2="297.6775"/><text fill="#000000" font-family="Arial" font-size="12" lengthAdjust="spacing" textLength="99.5977" x="130.08" y="312.8162">+set(key, value)</text><text fill="#000000" font-family="Arial" font-size="12" lengthAdjust="spacing" textLength="60.5566" x="130.08" y="326.7849">+get(key)</text><text fill="#000000" font-family="Arial" font-size="12" lengthAdjust="spacing" textLength="59.1445" x="130.08" y="340.7537">+get_all()</text><text fill="#000000" font-family="Arial" font-size="12" lengthAdjust="spacing" textLength="49.0195" x="130.08" y="354.7224">+clear()</text></g><!--class PipelineOrchestrator--><g class="entity" data-entity="PipelineOrchestrator" data-source-line="85" data-uid="ent0013" id="entity_PipelineOrchestrator"><rect fill="#F1F1F1" height="171.7188" rx="4" ry="4" style="stroke:#666666;stroke-width:0.5;" width="358.6113" x="7" y="456.47"/><ellipse cx="120.5977" cy="471.47" fill="#ADD1B2" rx="10" ry="10" style="stroke:#181818;stroke-width:1;"/><path d="M122.4258,475.72 Q122.0195,475.9231 121.5664,476.0325 Q121.1133,476.1419 120.6289,476.1419 Q118.8477,476.1419 117.9102,474.9856 Q116.9883,473.8138 116.9883,471.6106 Q116.9883,469.3919 117.9102,468.2356 Q118.8477,467.0638 120.6289,467.0638 Q121.1133,467.0638 121.5664,467.1731 Q122.0352,467.2669 122.4258,467.4856 L122.4258,469.4075 Q121.9883,469.0013 121.5664,468.8138 Q121.1445,468.6106 120.707,468.6106 Q119.7539,468.6106 119.2695,469.3763 Q118.7852,470.1263 118.7852,471.6106 Q118.7852,473.0794 119.2695,473.8294 Q119.7539,474.5794 120.707,474.5794 Q121.1445,474.5794 121.5664,474.3919 Q121.9883,474.2044 122.4258,473.7981 L122.4258,475.72 Z " fill="#000000"/><text fill="#000000" font-family="Arial" font-size="12" lengthAdjust="spacing" textLength="123.416" x="139.5977" y="475.6243">PipelineOrchestrator</text><line style="stroke:#666666;stroke-width:0.5;" x1="8" x2="364.6113" y1="486.47" y2="486.47"/><text fill="#000000" font-family="Arial" font-size="12" lengthAdjust="spacing" textLength="152.6074" x="13" y="501.6087">-_factory: PipelineFactory</text><text fill="#000000" font-family="Arial" font-size="12" lengthAdjust="spacing" textLength="158.0742" x="13" y="515.5774">-_context: PipelineContext</text><text fill="#000000" font-family="Arial" font-size="12" lengthAdjust="spacing" textLength="140.4844" x="13" y="529.5462">-_execution_times: Dict</text><line style="stroke:#666666;stroke-width:0.5;" x1="8" x2="364.6113" y1="536.3763" y2="536.3763"/><text fill="#000000" font-family="Arial" font-size="12" lengthAdjust="spacing" textLength="346.6113" x="13" y="551.5149">+train_model(data_path, **kwargs) : Tuple[Pipeline, Dict]</text><text fill="#000000" font-family="Arial" font-size="12" lengthAdjust="spacing" textLength="274.7637" x="13" y="565.4837">+predict(model, data, **kwargs) : DataFrame</text><text fill="#000000" font-family="Arial" font-size="12" lengthAdjust="spacing" textLength="275.0391" x="13" y="579.4524">+evaluate(model, data_path, **kwargs) : Dict</text><text fill="#000000" font-family="Arial" font-size="12" lengthAdjust="spacing" textLength="253.2598" x="13" y="593.4212">+save_model(model, path, **kwargs) : str</text><text fill="#000000" font-family="Arial" font-size="12" lengthAdjust="spacing" textLength="237.1582" x="13" y="607.3899">+load_model(path, **kwargs) : Pipeline</text><text fill="#000000" font-family="Arial" font-size="12" lengthAdjust="spacing" textLength="202.3535" x="13" y="621.3587">+get_execution_summary() : Dict</text></g><!--reverse link ComponentRegistry to PipelineFactory--><g class="link" data-entity-1="ComponentRegistry" data-entity-2="PipelineFactory" data-source-line="98" data-uid="lnk14" id="link_ComponentRegistry_PipelineFactory"><path codeLine="98" d="M1632.31,143.03 C1632.31,161.67 1632.31,176.47 1632.31,196.72 " fill="none" id="ComponentRegistry-backto-PipelineFactory" style="stroke:#181818;stroke-width:1;"/><polygon fill="#181818" points="1632.31,137.03,1628.31,146.03,1632.31,142.03,1636.31,146.03,1632.31,137.03" style="stroke:#181818;stroke-width:1;"/></g><!--reverse link PipelineFactory to PipelineOrchestrator--><g class="link" data-entity-1="PipelineFactory" data-entity-2="PipelineOrchestrator" data-source-line="99" data-uid="lnk15" id="link_PipelineFactory_PipelineOrchestrator"><path codeLine="99" d="M1445.6187,305.0934 C1199.9287,318.3534 754.56,355.08 383.31,456.47 C377.56,458.04 371.76,459.75 365.94,461.56 " fill="none" id="PipelineFactory-backto-PipelineOrchestrator" style="stroke:#181818;stroke-width:1;"/><polygon fill="#181818" points="1451.61,304.77,1442.4075,301.2608,1446.6173,305.0395,1442.8386,309.2492,1451.61,304.77" style="stroke:#181818;stroke-width:1;"/></g><!--reverse link PipelineContext to PipelineOrchestrator--><g class="link" data-entity-1="PipelineContext" data-entity-2="PipelineOrchestrator" data-source-line="100" data-uid="lnk16" id="link_PipelineContext_PipelineOrchestrator"><path codeLine="100" d="M186.31,367.99 C186.31,396.9 186.31,425.4 186.31,456.4 " fill="none" id="PipelineContext-backto-PipelineOrchestrator" style="stroke:#181818;stroke-width:1;"/><polygon fill="#181818" points="186.31,361.99,182.31,370.99,186.31,366.99,190.31,370.99,186.31,361.99" style="stroke:#181818;stroke-width:1;"/></g><!--link PipelineFactory to DataLoader--><g class="link" data-entity-1="PipelineFactory" data-entity-2="DataLoader" data-source-line="102" data-uid="lnk17" id="link_PipelineFactory_DataLoader"><path codeLine="102" d="M1451.53,307.67 C1254.54,323.11 932.59,361.64 671.31,456.47 C638.57,468.35 609.9219,484.4719 583.3619,501.7219 " fill="none" id="PipelineFactory-to-DataLoader" style="stroke:#181818;stroke-width:1;"/><polygon fill="#181818" points="578.33,504.99,588.0565,503.4425,582.5232,502.2666,583.6991,496.7333,578.33,504.99" style="stroke:#181818;stroke-width:1;"/></g><!--link PipelineFactory to DataPreprocessor--><g class="link" data-entity-1="PipelineFactory" data-entity-2="DataPreprocessor" data-source-line="103" data-uid="lnk18" id="link_PipelineFactory_DataPreprocessor"><path codeLine="103" d="M1451.63,341.67 C1339.3,370.66 1192.52,411.48 1065.31,456.47 C1025.28,470.63 987.3181,486.5525 951.4381,502.5825 " fill="none" id="PipelineFactory-to-DataPreprocessor" style="stroke:#181818;stroke-width:1;"/><polygon fill="#181818" points="945.96,505.03,955.8088,505.0109,950.5251,502.9905,952.5456,497.7067,945.96,505.03" style="stroke:#181818;stroke-width:1;"/></g><!--link PipelineFactory to FeatureEngineer--><g class="link" data-entity-1="PipelineFactory" data-entity-2="FeatureEngineer" data-source-line="104" data-uid="lnk19" id="link_PipelineFactory_FeatureEngineer"><path codeLine="104" d="M1473.8,396.94 C1417.68,432.1 1362.4944,466.6642 1317.6644,494.7542 " fill="none" id="PipelineFactory-to-FeatureEngineer" style="stroke:#181818;stroke-width:1;"/><polygon fill="#181818" points="1312.58,497.94,1322.3304,496.5509,1316.817,495.2852,1318.0827,489.7717,1312.58,497.94" style="stroke:#181818;stroke-width:1;"/></g><!--link PipelineFactory to ModelBuilder--><g class="link" data-entity-1="PipelineFactory" data-entity-2="ModelBuilder" data-source-line="105" data-uid="lnk20" id="link_PipelineFactory_ModelBuilder"><path codeLine="105" d="M1632.31,396.76 C1632.31,434.97 1632.31,470.28 1632.31,498.91 " fill="none" id="PipelineFactory-to-ModelBuilder" style="stroke:#181818;stroke-width:1;"/><polygon fill="#181818" points="1632.31,504.91,1636.31,495.91,1632.31,499.91,1628.31,495.91,1632.31,504.91" style="stroke:#181818;stroke-width:1;"/></g><!--link PipelineFactory to ModelTrainer--><g class="link" data-entity-1="PipelineFactory" data-entity-2="ModelTrainer" data-source-line="106" data-uid="lnk21" id="link_PipelineFactory_ModelTrainer"><path codeLine="106" d="M1776.95,396.94 C1832.59,435.13 1887.7329,472.985 1929.3929,501.575 " fill="none" id="PipelineFactory-to-ModelTrainer" style="stroke:#181818;stroke-width:1;"/><polygon fill="#181818" points="1934.34,504.97,1929.1827,496.5794,1930.2174,502.1408,1924.656,503.1755,1934.34,504.97" style="stroke:#181818;stroke-width:1;"/></g><!--link PipelineFactory to ModelEvaluator--><g class="link" data-entity-1="PipelineFactory" data-entity-2="ModelEvaluator" data-source-line="107" data-uid="lnk22" id="link_PipelineFactory_ModelEvaluator"><path codeLine="107" d="M1813.05,350.47 C1908.47,379.54 2027.08,417.54 2131.31,456.47 C2170.55,471.13 2207.8623,486.864 2243.5123,502.624 " fill="none" id="PipelineFactory-to-ModelEvaluator" style="stroke:#181818;stroke-width:1;"/><polygon fill="#181818" points="2249,505.05,2242.3858,497.7526,2244.4269,503.0284,2239.1512,505.0695,2249,505.05" style="stroke:#181818;stroke-width:1;"/></g><!--link PipelineFactory to ModelSerializer--><g class="link" data-entity-1="PipelineFactory" data-entity-2="ModelSerializer" data-source-line="108" data-uid="lnk23" id="link_PipelineFactory_ModelSerializer"><path codeLine="108" d="M1813.22,307.97 C1998,323.47 2290.29,361.91 2525.31,456.47 C2554.83,468.35 2579.7592,484.1679 2603.0392,501.4179 " fill="none" id="PipelineFactory-to-ModelSerializer" style="stroke:#181818;stroke-width:1;"/><polygon fill="#181818" points="2607.86,504.99,2603.0102,496.418,2603.8427,502.0132,2598.2474,502.8457,2607.86,504.99" style="stroke:#181818;stroke-width:1;"/></g><!--link PipelineFactory to Predictor--><g class="link" data-entity-1="PipelineFactory" data-entity-2="Predictor" data-source-line="109" data-uid="lnk24" id="link_PipelineFactory_Predictor"><path codeLine="109" d="M1813.18,298.3 C2044.41,304.55 2453.78,334.04 2779.31,456.47 C2809.67,467.89 2835.3213,483.9086 2859.0213,501.3886 " fill="none" id="PipelineFactory-to-Predictor" style="stroke:#181818;stroke-width:1;"/><polygon fill="#181818" points="2863.85,504.95,2858.9812,496.3887,2859.8261,501.9822,2854.2327,502.827,2863.85,504.95" style="stroke:#181818;stroke-width:1;"/></g><!--SRC=[bLNRRjGm47tFLrZYeMcxAm4F2Aq0gHGg8K6fQDyGYhpPsLshZXrifpGW_ftnjSvbAVIXctZEcPjdJex8EzWo0KIRdeCkz2qJBLMq8MjQt-wKxCJcN7Afo8yzCv3PQqwrFZD6iNLdu4CjnJNx2UHf1jd0bdRSN4XXBca3v4mnokVjZlliUMOCePK0HLwEuxwLQWFA9_RaXVihYgDO2nC6r9RMM4zw9E-eeHybHHhvLH1ool6vsk1XQVzLBJNx5NP17PELmrvWCB307PWAgzkoNUbih3R5xsBa-Kf1goH6r3BuRzE92v0vdKIu0yMsVQNWUySKR30Qxnhn26-GmWLGqobuBtPOVwmGmbkrzTR74zaoCuSPURT8ewZGMwcQ_qZoazm0VzindkvWRL-gnfwxtbwn5ZZ6i3RP6jRWL5JxlWNbxXxGaouTV47kAyo1YGNf_SE0FurxOp4nhYFyaoC4rqfgNTrHph1KI2p4pu-32_SUyHqrSHZ0lq8M4xHn8V4t-K4a5PJtM3MEpmQFc1HwdcH_BUWlILo3NJZiOSX2qpi8tGukxTHR1vVIr-gMmYEYQRwdLpwzRDZjQtHhPs8oN063ISirdI131Mc7CGfwxmaL6w9Wnt0p-yBjFZcNJOlv2lCbdBiSbXLhMWuDdbFNjjJJPHM4vY3Yr4S0LQOAAuDZjo02ar-G8S-PZgCq36sp3bxRzZg2Hi9yChF45EIVECUsWRv5yT8kGXTzWs8VLzCMEZkgd75RWetvS1vV_0wW182Jouex4IrFJcv_KBNJyPwzjex1RQQB4qekcXano5KLzMl0cz6YG7CJLQszlWmukV1C2COBmvGG56D2WBZQKqhQ-Wb9frMSiXxMDAErSS46-BHs3yYoZdSP1YV7dub-i5LIrNlK3kMKoQwMlNAuDwEnEVUdOMo2miTbqZXydNRVoZ3IvItq2s9hJnDhZzBqKexoxZBcG5KvCwUVyxnyr200g_4ifqd515VZZ9qHxg7k_AAo1h8jTrSTv2rzz8SDk-bmmRv6hmj7_NP0uORCWTQDzVv0j9ZOl30FiQ7T8uKUOlBFbctyGoTqrpHKzUMirYhWNX3thDN5L5vVBPUJMnWhJ8x9RxCOpzH1uCJbSlacLvP3ve6Ap876aZ676KZ4GK2KX8E01m4u2CcsVGwJDlmF]--></g></svg>