<svg xmlns="http://www.w3.org/2000/svg" xmlns:xlink="http://www.w3.org/1999/xlink" contentStyleType="text/css" data-diagram-type="SEQUENCE" height="3481.25px" preserveAspectRatio="none" style="width:3628px;height:3481px;background:#FFFFFF;" version="1.1" viewBox="0 0 3628 3481" width="3628.125px" zoomAndPan="magnify"><title>Diagram Rendering Workflow</title><defs/><g><rect fill="#FFFFCC" height="83.252" rx="7.8125" ry="7.8125" style="stroke:#FFDD88;stroke-width:9.375;" width="3595.163" x="15.625" y="15.625"/><text fill="#000000" font-family="monospace" font-size="31.25" lengthAdjust="spacing" textLength="1110.0311" x="31.25" y="62.5">Please&#160;use&#160;'!option&#160;handwritten&#160;true'&#160;to&#160;enable&#160;handwritten</text><text fill="#000000" font-family="Arial" font-size="43.75" font-weight="bold" lengthAdjust="spacing" textLength="727.3224" x="1432.3578" y="201.9867">Diagram Rendering Workflow</text><rect fill="none" height="156.0547" rx="12.5" ry="12.5" style="stroke:#000000;stroke-width:4.6875;" width="1465.9149" x="40.625" y="637.1094"/><rect fill="none" height="1473.1445" rx="12.5" ry="12.5" style="stroke:#000000;stroke-width:4.6875;" width="3077.5482" x="28.125" y="836.9141"/><rect fill="none" height="349.6094" rx="12.5" ry="12.5" style="stroke:#000000;stroke-width:4.6875;" width="3523.288" x="40.625" y="2353.8086"/><rect fill="none" height="437.0117" rx="12.5" ry="12.5" style="stroke:#000000;stroke-width:4.6875;" width="3477.182" x="40.625" y="2747.168"/><g><title>Developer</title><rect fill="#000000" fill-opacity="0.00000" height="2759.4727" width="25" x="165.1825" y="477.832"/><line style="stroke:#181818;stroke-width:1.5625;stroke-dasharray:5.0,5.0;" x1="175" x2="175" y1="477.832" y2="3237.3047"/></g><g><title>PlantUML Files</title><rect fill="#000000" fill-opacity="0.00000" height="2759.4727" width="25" x="657.7911" y="477.832"/><line style="stroke:#181818;stroke-width:1.5625;stroke-dasharray:5.0,5.0;" x1="668.6096" x2="668.6096" y1="477.832" y2="3237.3047"/></g><g><title>PlantUML CLI</title><rect fill="#000000" fill-opacity="0.00000" height="2759.4727" width="25" x="1217.5262" y="477.832"/><line style="stroke:#181818;stroke-width:1.5625;stroke-dasharray:5.0,5.0;" x1="1229.2847" x2="1229.2847" y1="477.832" y2="3237.3047"/></g><g><title>PlantUML Server</title><rect fill="#000000" fill-opacity="0.00000" height="2759.4727" width="25" x="1758.1451" y="477.832"/><line style="stroke:#181818;stroke-width:1.5625;stroke-dasharray:5.0,5.0;" x1="1768.7347" x2="1768.7347" y1="477.832" y2="3237.3047"/></g><g><title>Rendered Output</title><rect fill="#000000" fill-opacity="0.00000" height="2759.4727" width="25" x="2150.3021" y="477.832"/><line style="stroke:#181818;stroke-width:1.5625;stroke-dasharray:5.0,5.0;" x1="2160.0555" x2="2160.0555" y1="477.832" y2="3237.3047"/></g><g><title>HTML Viewer</title><rect fill="#000000" fill-opacity="0.00000" height="2759.4727" width="25" x="2686.6547" y="477.832"/><line style="stroke:#181818;stroke-width:1.5625;stroke-dasharray:5.0,5.0;" x1="2698.7427" x2="2698.7427" y1="477.832" y2="3237.3047"/></g><g class="participant participant-head" data-participant="dev"><text fill="#000000" font-family="Arial" font-size="37.5" lengthAdjust="spacing" textLength="192.865" x="71.875" y="468.988">Developer</text><ellipse cx="177.6825" cy="273.2422" fill="#E2E2F0" rx="25" ry="25" style="stroke:#181818;stroke-width:1.5625;"/><path d="M177.6825,298.2422 L177.6825,382.6172 M137.0575,323.2422 L218.3075,323.2422 M177.6825,382.6172 L137.0575,429.4922 M177.6825,382.6172 L218.3075,429.4922 " fill="none" style="stroke:#181818;stroke-width:1.5625;"/></g><g class="participant participant-tail" data-participant="dev"><text fill="#000000" font-family="Arial" font-size="37.5" lengthAdjust="spacing" textLength="192.865" x="71.875" y="3268.988">Developer</text><ellipse cx="177.6825" cy="3304.3945" fill="#E2E2F0" rx="25" ry="25" style="stroke:#181818;stroke-width:1.5625;"/><path d="M177.6825,3329.3945 L177.6825,3413.7695 M137.0575,3354.3945 L218.3075,3354.3945 M177.6825,3413.7695 L137.0575,3460.6445 M177.6825,3413.7695 L218.3075,3460.6445 " fill="none" style="stroke:#181818;stroke-width:1.5625;"/></g><g class="participant participant-head" data-participant="puml"><rect fill="#E2E2F0" height="131.0547" rx="12.5" ry="12.5" style="stroke:#181818;stroke-width:1.5625;" width="315.863" x="512.3596" y="343.6523"/><text fill="#000000" font-family="Arial" font-size="37.5" lengthAdjust="spacing" textLength="272.113" x="534.2346" y="400.3357">PlantUML Files</text><text fill="#000000" font-family="Arial" font-size="37.5" lengthAdjust="spacing" textLength="135.6995" x="602.4414" y="443.988">(.puml)</text></g><g class="participant participant-tail" data-participant="puml"><rect fill="#E2E2F0" height="131.0547" rx="12.5" ry="12.5" style="stroke:#181818;stroke-width:1.5625;" width="315.863" x="512.3596" y="3234.1797"/><text fill="#000000" font-family="Arial" font-size="37.5" lengthAdjust="spacing" textLength="272.113" x="534.2346" y="3290.863">PlantUML Files</text><text fill="#000000" font-family="Arial" font-size="37.5" lengthAdjust="spacing" textLength="135.6995" x="602.4414" y="3334.5154">(.puml)</text></g><g class="participant participant-head" data-participant="cli"><rect fill="#E2E2F0" height="131.0547" rx="12.5" ry="12.5" style="stroke:#181818;stroke-width:1.5625;" width="288.9832" x="1085.5347" y="343.6523"/><text fill="#000000" font-family="Arial" font-size="37.5" lengthAdjust="spacing" textLength="245.2332" x="1107.4097" y="400.3357">PlantUML CLI</text><text fill="#000000" font-family="Arial" font-size="37.5" lengthAdjust="spacing" textLength="110.3027" x="1174.8749" y="443.988">Utility</text></g><g class="participant participant-tail" data-participant="cli"><rect fill="#E2E2F0" height="131.0547" rx="12.5" ry="12.5" style="stroke:#181818;stroke-width:1.5625;" width="288.9832" x="1085.5347" y="3234.1797"/><text fill="#000000" font-family="Arial" font-size="37.5" lengthAdjust="spacing" textLength="245.2332" x="1107.4097" y="3290.863">PlantUML CLI</text><text fill="#000000" font-family="Arial" font-size="37.5" lengthAdjust="spacing" textLength="110.3027" x="1174.8749" y="3334.5154">Utility</text></g><g class="participant participant-head" data-participant="server"><rect fill="#E2E2F0" height="87.4023" rx="12.5" ry="12.5" style="stroke:#181818;stroke-width:1.5625;" width="353.8208" x="1593.7347" y="387.3047"/><text fill="#000000" font-family="Arial" font-size="37.5" lengthAdjust="spacing" textLength="310.0708" x="1615.6097" y="443.988">PlantUML Server</text></g><g class="participant participant-tail" data-participant="server"><rect fill="#E2E2F0" height="87.4023" rx="12.5" ry="12.5" style="stroke:#181818;stroke-width:1.5625;" width="353.8208" x="1593.7347" y="3234.1797"/><text fill="#000000" font-family="Arial" font-size="37.5" lengthAdjust="spacing" textLength="310.0708" x="1615.6097" y="3290.863">PlantUML Server</text></g><g class="participant participant-head" data-participant="output"><rect fill="#E2E2F0" height="131.0547" rx="12.5" ry="12.5" style="stroke:#181818;stroke-width:1.5625;" width="367.9932" x="1978.8055" y="343.6523"/><text fill="#000000" font-family="Arial" font-size="37.5" lengthAdjust="spacing" textLength="324.2432" x="2000.6805" y="400.3357">Rendered Output</text><text fill="#000000" font-family="Arial" font-size="37.5" lengthAdjust="spacing" textLength="200.1343" x="2062.735" y="443.988">(SVG/PNG)</text></g><g class="participant participant-tail" data-participant="output"><rect fill="#E2E2F0" height="131.0547" rx="12.5" ry="12.5" style="stroke:#181818;stroke-width:1.5625;" width="367.9932" x="1978.8055" y="3234.1797"/><text fill="#000000" font-family="Arial" font-size="37.5" lengthAdjust="spacing" textLength="324.2432" x="2000.6805" y="3290.863">Rendered Output</text><text fill="#000000" font-family="Arial" font-size="37.5" lengthAdjust="spacing" textLength="200.1343" x="2062.735" y="3334.5154">(SVG/PNG)</text></g><g class="participant participant-head" data-participant="viewer"><rect fill="#E2E2F0" height="87.4023" rx="12.5" ry="12.5" style="stroke:#181818;stroke-width:1.5625;" width="288.324" x="2554.9927" y="387.3047"/><text fill="#000000" font-family="Arial" font-size="37.5" lengthAdjust="spacing" textLength="244.574" x="2576.8677" y="443.988">HTML Viewer</text></g><g class="participant participant-tail" data-participant="viewer"><rect fill="#E2E2F0" height="87.4023" rx="12.5" ry="12.5" style="stroke:#181818;stroke-width:1.5625;" width="288.324" x="2554.9927" y="3234.1797"/><text fill="#000000" font-family="Arial" font-size="37.5" lengthAdjust="spacing" textLength="244.574" x="2576.8677" y="3290.863">HTML Viewer</text></g><path d="M59.375,537.207 L59.375,584.082 A12.5,12.5 0 0 0 71.875,596.582 L2800,596.582 A12.5,12.5 0 0 0 2812.5,584.082 L2812.5,555.957 L2781.25,524.707 L71.875,524.707 A12.5,12.5 0 0 0 59.375,537.207 " fill="#FEFFDD" style="stroke:#181818;stroke-width:1.5625;"/><path d="M2781.25,524.707 L2781.25,549.707 A6.25,6.25 0 0 0 2787.5,555.957 L2812.5,555.957 L2781.25,524.707 " fill="#FEFFDD" style="stroke:#181818;stroke-width:1.5625;"/><text fill="#000000" font-family="Arial" font-size="37.5" lengthAdjust="spacing" textLength="700.1404" x="1073.1506" y="575.1404">SOP-004: PlantUML Utilities Workflow</text><path d="M53.125,637.1094 L803.0396,637.1094 L803.0396,655.7617 L771.7896,687.0117 L40.625,687.0117 L40.625,649.6094 A12.5,12.5 0 0 1 53.125,637.1094 " fill="#EEEEEE" style="stroke:#000000;stroke-width:4.6875;"/><rect fill="none" height="156.0547" rx="12.5" ry="12.5" style="stroke:#000000;stroke-width:4.6875;" width="1465.9149" x="40.625" y="637.1094"/><text fill="#000000" font-family="Arial" font-size="37.5" font-weight="bold" lengthAdjust="spacing" textLength="621.7896" x="87.5" y="675.0427">1. Create or Modify Diagrams</text><g class="message" data-participant-1="dev" data-participant-2="puml"><polygon fill="#181818" points="632.7911,746.2891,664.0411,758.7891,632.7911,771.2891,645.2911,758.7891" style="stroke:#181818;stroke-width:3.125;"/><line style="stroke:#181818;stroke-width:3.125;" x1="177.6825" x2="651.5411" y1="758.7891" y2="758.7891"/><text fill="#000000" font-family="Arial" font-size="37.5" lengthAdjust="spacing" textLength="417.6086" x="199.5575" y="743.6951">Create/Edit .puml files</text></g><path d="M684.375,715.1367 L684.375,762.0117 A12.5,12.5 0 0 0 696.875,774.5117 L1443.75,774.5117 A12.5,12.5 0 0 0 1456.25,762.0117 L1456.25,733.8867 L1425,702.6367 L696.875,702.6367 A12.5,12.5 0 0 0 684.375,715.1367 " fill="#FEFFDD" style="stroke:#181818;stroke-width:1.5625;"/><path d="M1425,702.6367 L1425,727.6367 A6.25,6.25 0 0 0 1431.25,733.8867 L1456.25,733.8867 L1425,702.6367 " fill="#FEFFDD" style="stroke:#181818;stroke-width:1.5625;"/><text fill="#000000" font-family="Arial" font-size="37.5" lengthAdjust="spacing" textLength="708.1238" x="703.125" y="753.0701">Located in docs/diagrams/{category}</text><path d="M40.625,836.9141 L588.2996,836.9141 L588.2996,855.5664 L557.0496,886.8164 L28.125,886.8164 L28.125,849.4141 A12.5,12.5 0 0 1 40.625,836.9141 " fill="#EEEEEE" style="stroke:#000000;stroke-width:4.6875;"/><rect fill="none" height="1473.1445" rx="12.5" ry="12.5" style="stroke:#000000;stroke-width:4.6875;" width="3077.5482" x="28.125" y="836.9141"/><text fill="#000000" font-family="Arial" font-size="37.5" font-weight="bold" lengthAdjust="spacing" textLength="419.5496" x="75" y="874.8474">2. Render Diagrams</text><path d="M59.375,914.9414 L59.375,1093.0664 A12.5,12.5 0 0 0 71.875,1105.5664 L1331.25,1105.5664 A12.5,12.5 0 0 0 1343.75,1093.0664 L1343.75,933.6914 L1312.5,902.4414 L71.875,902.4414 A12.5,12.5 0 0 0 59.375,914.9414 " fill="#FEFFDD" style="stroke:#181818;stroke-width:1.5625;"/><path d="M1312.5,902.4414 L1312.5,927.4414 A6.25,6.25 0 0 0 1318.75,933.6914 L1343.75,933.6914 L1312.5,902.4414 " fill="#FEFFDD" style="stroke:#181818;stroke-width:1.5625;"/><text fill="#000000" font-family="Arial" font-size="37.5" font-weight="bold" lengthAdjust="spacing" textLength="534.6313" x="173.9838" y="952.8748">Efficiency Best Practices:</text><text fill="#000000" font-family="Arial" font-size="37.5" lengthAdjust="spacing" textLength="1029.6753" x="173.9838" y="996.5271">- Only render new or modified diagrams when possible</text><text fill="#000000" font-family="Arial" font-size="37.5" lengthAdjust="spacing" textLength="1001.9897" x="173.9838" y="1040.1794">- Use the --file parameter to render specific diagrams</text><text fill="#000000" font-family="Arial" font-size="37.5" lengthAdjust="spacing" textLength="1003.2349" x="173.9838" y="1083.8318">- Only parse all diagrams in the repo when necessary</text><g class="message" data-participant-1="dev" data-participant-2="cli"><polygon fill="#181818" points="1192.5262,1183.2031,1223.7762,1195.7031,1192.5262,1208.2031,1205.0262,1195.7031" style="stroke:#181818;stroke-width:3.125;"/><line style="stroke:#181818;stroke-width:3.125;" x1="177.6825" x2="1211.2762" y1="1195.7031" y2="1195.7031"/><text fill="#000000" font-family="Arial" font-size="37.5" lengthAdjust="spacing" textLength="772.7966" x="199.5575" y="1180.6091">Execute render command for specific file</text></g><path d="M1243.75,1152.0508 L1243.75,1198.9258 A12.5,12.5 0 0 0 1256.25,1211.4258 L2731.25,1211.4258 A12.5,12.5 0 0 0 2743.75,1198.9258 L2743.75,1170.8008 L2712.5,1139.5508 L1256.25,1139.5508 A12.5,12.5 0 0 0 1243.75,1152.0508 " fill="#FEFFDD" style="stroke:#181818;stroke-width:1.5625;"/><path d="M2712.5,1139.5508 L2712.5,1164.5508 A6.25,6.25 0 0 0 2718.75,1170.8008 L2743.75,1170.8008 L2712.5,1139.5508 " fill="#FEFFDD" style="stroke:#181818;stroke-width:1.5625;"/><text fill="#000000" font-family="Arial" font-size="37.5" lengthAdjust="spacing" textLength="1434.9609" x="1262.5" y="1189.9841">python -m fca_dashboard.utils.puml.cli render --file=category/diagram.puml</text><g class="message" data-participant-1="cli" data-participant-2="puml"><polygon fill="#181818" points="704.6661,1279.9805,673.4161,1292.4805,704.6661,1304.9805,692.1661,1292.4805" style="stroke:#181818;stroke-width:3.125;"/><line style="stroke:#181818;stroke-width:3.125;" x1="685.9161" x2="1226.9012" y1="1292.4805" y2="1292.4805"/><text fill="#000000" font-family="Arial" font-size="37.5" lengthAdjust="spacing" textLength="484.7351" x="723.4161" y="1277.3865">Process specific .puml file</text></g><g class="message" data-participant-1="cli" data-participant-2="server"><polygon fill="#181818" points="1733.1451,1367.3828,1764.3951,1379.8828,1733.1451,1392.3828,1745.6451,1379.8828" style="stroke:#181818;stroke-width:3.125;"/><line style="stroke:#181818;stroke-width:3.125;" x1="1230.0262" x2="1751.8951" y1="1379.8828" y2="1379.8828"/><text fill="#000000" font-family="Arial" font-size="37.5" lengthAdjust="spacing" textLength="461.7371" x="1251.9012" y="1364.7888">Send to PlantUML server</text></g><g class="message" data-participant-1="server" data-participant-2="cli"><polygon fill="#181818" points="1264.4012,1454.7852,1233.1512,1467.2852,1264.4012,1479.7852,1251.9012,1467.2852" style="stroke:#181818;stroke-width:3.125;"/><line style="stroke:#181818;stroke-width:3.125;" x1="1245.6512" x2="1767.5201" y1="1467.2852" y2="1467.2852"/><text fill="#000000" font-family="Arial" font-size="37.5" lengthAdjust="spacing" textLength="465.6189" x="1283.1512" y="1452.1912">Return rendered content</text></g><g class="message" data-participant-1="cli" data-participant-2="output"><polygon fill="#181818" points="2125.3021,1551.5625,2156.5521,1564.0625,2125.3021,1576.5625,2137.8021,1564.0625" style="stroke:#181818;stroke-width:3.125;"/><line style="stroke:#181818;stroke-width:3.125;" x1="1230.0262" x2="2144.0521" y1="1564.0625" y2="1564.0625"/><text fill="#000000" font-family="Arial" font-size="37.5" lengthAdjust="spacing" textLength="410.0464" x="1251.9012" y="1548.9685">Save as SVG (default)</text></g><path d="M2178.125,1520.4102 L2178.125,1567.2852 A12.5,12.5 0 0 0 2190.625,1579.7852 L3043.75,1579.7852 A12.5,12.5 0 0 0 3056.25,1567.2852 L3056.25,1539.1602 L3025,1507.9102 L2190.625,1507.9102 A12.5,12.5 0 0 0 2178.125,1520.4102 " fill="#FEFFDD" style="stroke:#181818;stroke-width:1.5625;"/><path d="M3025,1507.9102 L3025,1532.9102 A6.25,6.25 0 0 0 3031.25,1539.1602 L3056.25,1539.1602 L3025,1507.9102 " fill="#FEFFDD" style="stroke:#181818;stroke-width:1.5625;"/><text fill="#000000" font-family="Arial" font-size="37.5" lengthAdjust="spacing" textLength="814.7461" x="2196.875" y="1558.3435">Saved to docs/diagrams/output/{category}</text><g class="message" data-participant-1="dev" data-participant-2="cli"><polygon fill="#181818" points="1192.5262,1657.7148,1223.7762,1670.2148,1192.5262,1682.7148,1205.0262,1670.2148" style="stroke:#181818;stroke-width:3.125;"/><line style="stroke:#181818;stroke-width:3.125;" x1="177.6825" x2="1211.2762" y1="1670.2148" y2="1670.2148"/><text fill="#000000" font-family="Arial" font-size="37.5" lengthAdjust="spacing" textLength="807.4951" x="199.5575" y="1655.1208">Execute render command with PNG format</text></g><path d="M1243.75,1626.5625 L1243.75,1673.4375 A12.5,12.5 0 0 0 1256.25,1685.9375 L2943.75,1685.9375 A12.5,12.5 0 0 0 2956.25,1673.4375 L2956.25,1645.3125 L2925,1614.0625 L1256.25,1614.0625 A12.5,12.5 0 0 0 1243.75,1626.5625 " fill="#FEFFDD" style="stroke:#181818;stroke-width:1.5625;"/><path d="M2925,1614.0625 L2925,1639.0625 A6.25,6.25 0 0 0 2931.25,1645.3125 L2956.25,1645.3125 L2925,1614.0625 " fill="#FEFFDD" style="stroke:#181818;stroke-width:1.5625;"/><text fill="#000000" font-family="Arial" font-size="37.5" lengthAdjust="spacing" textLength="866.7114" x="1262.5" y="1664.4958">python -m fca_dashboard.utils.puml.cli render</text><text fill="#000000" font-family="Arial" font-size="37.5" lengthAdjust="spacing" text-decoration="line-through" textLength="529.2664" x="2141.1316" y="1664.4958">file=category/diagram.puml</text><text fill="#000000" font-family="Arial" font-size="37.5" lengthAdjust="spacing" textLength="228.5706" x="2682.3181" y="1664.4958">format=png</text><g class="message" data-participant-1="cli" data-participant-2="puml"><polygon fill="#181818" points="704.6661,1754.4922,673.4161,1766.9922,704.6661,1779.4922,692.1661,1766.9922" style="stroke:#181818;stroke-width:3.125;"/><line style="stroke:#181818;stroke-width:3.125;" x1="685.9161" x2="1226.9012" y1="1766.9922" y2="1766.9922"/><text fill="#000000" font-family="Arial" font-size="37.5" lengthAdjust="spacing" textLength="484.7351" x="723.4161" y="1751.8982">Process specific .puml file</text></g><g class="message" data-participant-1="cli" data-participant-2="server"><polygon fill="#181818" points="1733.1451,1841.8945,1764.3951,1854.3945,1733.1451,1866.8945,1745.6451,1854.3945" style="stroke:#181818;stroke-width:3.125;"/><line style="stroke:#181818;stroke-width:3.125;" x1="1230.0262" x2="1751.8951" y1="1854.3945" y2="1854.3945"/><text fill="#000000" font-family="Arial" font-size="37.5" lengthAdjust="spacing" textLength="461.7371" x="1251.9012" y="1839.3005">Send to PlantUML server</text></g><g class="message" data-participant-1="server" data-participant-2="cli"><polygon fill="#181818" points="1264.4012,1929.2969,1233.1512,1941.7969,1264.4012,1954.2969,1251.9012,1941.7969" style="stroke:#181818;stroke-width:3.125;"/><line style="stroke:#181818;stroke-width:3.125;" x1="1245.6512" x2="1767.5201" y1="1941.7969" y2="1941.7969"/><text fill="#000000" font-family="Arial" font-size="37.5" lengthAdjust="spacing" textLength="465.6189" x="1283.1512" y="1926.7029">Return rendered content</text></g><g class="message" data-participant-1="cli" data-participant-2="output"><polygon fill="#181818" points="2125.3021,2026.0742,2156.5521,2038.5742,2125.3021,2051.0742,2137.8021,2038.5742" style="stroke:#181818;stroke-width:3.125;"/><line style="stroke:#181818;stroke-width:3.125;" x1="1230.0262" x2="2144.0521" y1="2038.5742" y2="2038.5742"/><text fill="#000000" font-family="Arial" font-size="37.5" lengthAdjust="spacing" textLength="238.1287" x="1251.9012" y="2023.4802">Save as PNG</text></g><path d="M2178.125,1994.9219 L2178.125,2041.7969 A12.5,12.5 0 0 0 2190.625,2054.2969 L3043.75,2054.2969 A12.5,12.5 0 0 0 3056.25,2041.7969 L3056.25,2013.6719 L3025,1982.4219 L2190.625,1982.4219 A12.5,12.5 0 0 0 2178.125,1994.9219 " fill="#FEFFDD" style="stroke:#181818;stroke-width:1.5625;"/><path d="M3025,1982.4219 L3025,2007.4219 A6.25,6.25 0 0 0 3031.25,2013.6719 L3056.25,2013.6719 L3025,1982.4219 " fill="#FEFFDD" style="stroke:#181818;stroke-width:1.5625;"/><text fill="#000000" font-family="Arial" font-size="37.5" lengthAdjust="spacing" textLength="814.7461" x="2196.875" y="2032.8552">Saved to docs/diagrams/output/{category}</text><path d="M59.375,2101.0742 L59.375,2279.1992 A12.5,12.5 0 0 0 71.875,2291.6992 L1331.25,2291.6992 A12.5,12.5 0 0 0 1343.75,2279.1992 L1343.75,2119.8242 L1312.5,2088.5742 L71.875,2088.5742 A12.5,12.5 0 0 0 59.375,2101.0742 " fill="#FEFFDD" style="stroke:#181818;stroke-width:1.5625;"/><path d="M1312.5,2088.5742 L1312.5,2113.5742 A6.25,6.25 0 0 0 1318.75,2119.8242 L1343.75,2119.8242 L1312.5,2088.5742 " fill="#FEFFDD" style="stroke:#181818;stroke-width:1.5625;"/><text fill="#000000" font-family="Arial" font-size="37.5" font-weight="bold" lengthAdjust="spacing" textLength="566.0156" x="108.963" y="2139.0076">Full Repository Rendering:</text><text fill="#000000" font-family="Arial" font-size="37.5" lengthAdjust="spacing" textLength="1052.5818" x="108.963" y="2182.6599">Only when necessary (e.g., initial setup, major updates)</text><text fill="#000000" font-family="Arial" font-size="37.5" lengthAdjust="spacing" textLength="892.1631" x="108.963" y="2226.3123">- python -m fca_dashboard.utils.puml.cli render</text><text fill="#000000" font-family="Arial" font-size="37.5" lengthAdjust="spacing" textLength="1159.7168" x="108.963" y="2269.9646">- python -m fca_dashboard.utils.puml.cli render --format=png</text><path d="M53.125,2353.8086 L550.9766,2353.8086 L550.9766,2372.4609 L519.7266,2403.7109 L40.625,2403.7109 L40.625,2366.3086 A12.5,12.5 0 0 1 53.125,2353.8086 " fill="#EEEEEE" style="stroke:#000000;stroke-width:4.6875;"/><rect fill="none" height="349.6094" rx="12.5" ry="12.5" style="stroke:#000000;stroke-width:4.6875;" width="3523.288" x="40.625" y="2353.8086"/><text fill="#000000" font-family="Arial" font-size="37.5" font-weight="bold" lengthAdjust="spacing" textLength="369.7266" x="87.5" y="2391.7419">3. View Diagrams</text><g class="message" data-participant-1="dev" data-participant-2="viewer"><polygon fill="#181818" points="2661.6547,2462.9883,2692.9047,2475.4883,2661.6547,2487.9883,2674.1547,2475.4883" style="stroke:#181818;stroke-width:3.125;"/><line style="stroke:#181818;stroke-width:3.125;" x1="177.6825" x2="2680.4047" y1="2475.4883" y2="2475.4883"/><text fill="#000000" font-family="Arial" font-size="37.5" lengthAdjust="spacing" textLength="353.1921" x="199.5575" y="2460.3943">Open HTML viewer</text></g><path d="M2712.5,2431.8359 L2712.5,2478.7109 A12.5,12.5 0 0 0 2725,2491.2109 L3500,2491.2109 A12.5,12.5 0 0 0 3512.5,2478.7109 L3512.5,2450.5859 L3481.25,2419.3359 L2725,2419.3359 A12.5,12.5 0 0 0 2712.5,2431.8359 " fill="#FEFFDD" style="stroke:#181818;stroke-width:1.5625;"/><path d="M3481.25,2419.3359 L3481.25,2444.3359 A6.25,6.25 0 0 0 3487.5,2450.5859 L3512.5,2450.5859 L3481.25,2419.3359 " fill="#FEFFDD" style="stroke:#181818;stroke-width:1.5625;"/><text fill="#000000" font-family="Arial" font-size="37.5" lengthAdjust="spacing" textLength="736.6333" x="2731.25" y="2469.7693">Open docs/diagrams/output/index.html</text><g class="message" data-participant-1="viewer" data-participant-2="output"><polygon fill="#181818" points="2197.1771,2559.7656,2165.9271,2572.2656,2197.1771,2584.7656,2184.6771,2572.2656" style="stroke:#181818;stroke-width:3.125;"/><line style="stroke:#181818;stroke-width:3.125;" x1="2178.4271" x2="2696.0297" y1="2572.2656" y2="2572.2656"/><text fill="#000000" font-family="Arial" font-size="37.5" lengthAdjust="spacing" textLength="461.3525" x="2215.9271" y="2557.1716">Load rendered diagrams</text></g><g class="message" data-participant-1="viewer" data-participant-2="dev"><polygon fill="#181818" points="212.0575,2656.543,180.8075,2669.043,212.0575,2681.543,199.5575,2669.043" style="stroke:#181818;stroke-width:3.125;"/><line style="stroke:#181818;stroke-width:3.125;" x1="193.3075" x2="2696.0297" y1="2669.043" y2="2669.043"/><text fill="#000000" font-family="Arial" font-size="37.5" lengthAdjust="spacing" textLength="626.9897" x="230.8075" y="2653.949">Display diagrams with navigation</text></g><path d="M2712.5,2625.3906 L2712.5,2672.2656 A12.5,12.5 0 0 0 2725,2684.7656 L3437.5,2684.7656 A12.5,12.5 0 0 0 3450,2672.2656 L3450,2644.1406 L3418.75,2612.8906 L2725,2612.8906 A12.5,12.5 0 0 0 2712.5,2625.3906 " fill="#FEFFDD" style="stroke:#181818;stroke-width:1.5625;"/><path d="M3418.75,2612.8906 L3418.75,2637.8906 A6.25,6.25 0 0 0 3425,2644.1406 L3450,2644.1406 L3418.75,2612.8906 " fill="#FEFFDD" style="stroke:#181818;stroke-width:1.5625;"/><text fill="#000000" font-family="Arial" font-size="37.5" lengthAdjust="spacing" textLength="674.8901" x="2731.25" y="2663.324">Categories as tabs, SVG/PNG toggle</text><path d="M53.125,2747.168 L854.8767,2747.168 L854.8767,2765.8203 L823.6267,2797.0703 L40.625,2797.0703 L40.625,2759.668 A12.5,12.5 0 0 1 53.125,2747.168 " fill="#EEEEEE" style="stroke:#000000;stroke-width:4.6875;"/><rect fill="none" height="437.0117" rx="12.5" ry="12.5" style="stroke:#000000;stroke-width:4.6875;" width="3477.182" x="40.625" y="2747.168"/><text fill="#000000" font-family="Arial" font-size="37.5" font-weight="bold" lengthAdjust="spacing" textLength="673.6267" x="87.5" y="2785.1013">4. Add New Diagram Categories</text><g class="message" data-participant-1="dev" data-participant-2="puml"><polygon fill="#181818" points="632.7911,2856.3477,664.0411,2868.8477,632.7911,2881.3477,645.2911,2868.8477" style="stroke:#181818;stroke-width:3.125;"/><line style="stroke:#181818;stroke-width:3.125;" x1="177.6825" x2="651.5411" y1="2868.8477" y2="2868.8477"/><text fill="#000000" font-family="Arial" font-size="37.5" lengthAdjust="spacing" textLength="395.3613" x="199.5575" y="2853.7537">Create new directory</text></g><path d="M684.375,2825.1953 L684.375,2872.0703 A12.5,12.5 0 0 0 696.875,2884.5703 L1328.125,2884.5703 A12.5,12.5 0 0 0 1340.625,2872.0703 L1340.625,2843.9453 L1309.375,2812.6953 L696.875,2812.6953 A12.5,12.5 0 0 0 684.375,2825.1953 " fill="#FEFFDD" style="stroke:#181818;stroke-width:1.5625;"/><path d="M1309.375,2812.6953 L1309.375,2837.6953 A6.25,6.25 0 0 0 1315.625,2843.9453 L1340.625,2843.9453 L1309.375,2812.6953 " fill="#FEFFDD" style="stroke:#181818;stroke-width:1.5625;"/><text fill="#000000" font-family="Arial" font-size="37.5" lengthAdjust="spacing" textLength="592.1265" x="703.125" y="2863.1287">docs/diagrams/{new-category}</text><g class="message" data-participant-1="dev" data-participant-2="puml"><polygon fill="#181818" points="632.7911,2953.125,664.0411,2965.625,632.7911,2978.125,645.2911,2965.625" style="stroke:#181818;stroke-width:3.125;"/><line style="stroke:#181818;stroke-width:3.125;" x1="177.6825" x2="651.5411" y1="2965.625" y2="2965.625"/><text fill="#000000" font-family="Arial" font-size="37.5" lengthAdjust="spacing" textLength="280.188" x="199.5575" y="2950.531">Add .puml files</text></g><g class="message" data-participant-1="dev" data-participant-2="cli"><polygon fill="#181818" points="1192.5262,3040.5273,1223.7762,3053.0273,1192.5262,3065.5273,1205.0262,3053.0273" style="stroke:#181818;stroke-width:3.125;"/><line style="stroke:#181818;stroke-width:3.125;" x1="177.6825" x2="1211.2762" y1="3053.0273" y2="3053.0273"/><text fill="#000000" font-family="Arial" font-size="37.5" lengthAdjust="spacing" textLength="322.5769" x="199.5575" y="3037.9333">Render diagrams</text></g><g class="message" data-participant-1="dev" data-participant-2="viewer"><polygon fill="#181818" points="2661.6547,3137.3047,2692.9047,3149.8047,2661.6547,3162.3047,2674.1547,3149.8047" style="stroke:#181818;stroke-width:3.125;"/><line style="stroke:#181818;stroke-width:3.125;" x1="177.6825" x2="2680.4047" y1="3149.8047" y2="3149.8047"/><text fill="#000000" font-family="Arial" font-size="37.5" lengthAdjust="spacing" textLength="388.9526" x="199.5575" y="3134.7107">View in HTML viewer</text></g><path d="M2712.5,3106.1523 L2712.5,3153.0273 A12.5,12.5 0 0 0 2725,3165.5273 L3453.125,3165.5273 A12.5,12.5 0 0 0 3465.625,3153.0273 L3465.625,3124.9023 L3434.375,3093.6523 L2725,3093.6523 A12.5,12.5 0 0 0 2712.5,3106.1523 " fill="#FEFFDD" style="stroke:#181818;stroke-width:1.5625;"/><path d="M3434.375,3093.6523 L3434.375,3118.6523 A6.25,6.25 0 0 0 3440.625,3124.9023 L3465.625,3124.9023 L3434.375,3093.6523 " fill="#FEFFDD" style="stroke:#181818;stroke-width:1.5625;"/><text fill="#000000" font-family="Arial" font-size="37.5" lengthAdjust="spacing" textLength="690.5273" x="2731.25" y="3144.0857">New category appears automatically</text><!--SRC=[rLRBRjiw4DthAmPP9K0ifuz5ORG1sZHf2wI94T_qRWfSqE98PaEH14dPLOl-UuSKRKjs4g0NxQBUM1Q7PyxCcOVTdL26MLR3d1LtbTMDucTQQWkhXV2OkStvWYc-ii9xL50owVfd74lMI7-XbRzYDS9hAvYy_tmclY4yUTexJ3wjGWil-fUCW6Sd9rdcXPS8RmMhmkiRL1ojK1Nyg-rTAVKgorZXYV71MroYr0Rj0J17JfSP8NbH2CEKXuEffA_RZvTm8IIwp-emDqqjZw9nU7h0-kpomsTrwuKKlessXHGFcCxGBfDt5n-7TXrrv73TUDDuOZ3xz6uylNhNST3nxV3A-ty8zfF0LO9TniSiKzeZQF8GmZnEhoSmkvwEJawUJs13gICkqFNI5MGsy2I7Cuiiu5ZugBaestMINGRq8MGOdSRKm2JPZi-vy10J1sL8OxICRAoe5du2bxeWEmv20TU56_C4EVuUtbVQjZyooiEQnTCyAJhqlHDVI3capylvwNbPKePG5IsyGUTXQga2H85kyd8yFzrOZk1QoHPiXwzm5IAjGwI22Aw9KQLJIHljd9XBx5s-TGX-WJ0QXKWXLYLwGl9wZUaC5eHMRC1sVTCbGc5IRjrHOWAgHQCxrmg9kMEsZPS9E4OVV_Hre1oG3ETViMX2jZi2XQvhQameTOzCeBkdYsdzGYiOrL0Mx3_Et6AkcULvGmNYeg1vy91mkvXVhILRgnZj8dImtHR7rEeGmvR2jaBwrbrJaFqiH4bft9HfQfTWcums4T-WRwnAn4YtWgO8Aj_7xJeduB8bXZQXleB3D7MEzb8HhABxOO5sAFqw_IK9Li8lW9evQ54p_mS528VHnokZghz03KhARz3WyP5mqL2FtL1FEK6xeDskYU58Y4qvx3eunBpAZwalQKuoIH7xnXn3pRvGJpM64nDtrElhNzBn_zxRbtWp5th3yraUTyEzOxjR2QJ2jQ5eunv9osDNYcXmhmo2g7pD5pxrV8BiItof6TyMms0ARgq3emcHT4QojZTtGyCejXGLyqAhFLvdNGs4tKL5vDdS7KDQc5GuLIK7kNYUmslEuMgRZXx0W_iiRWKkB8P_4EqUXPqDHiQZOMKECGE1tTqu61rfrV77z8gAYiSb2r6kYG0p1cdD06kyfeeH1QsRDgJc9m00]--></g></svg>