<svg xmlns="http://www.w3.org/2000/svg" xmlns:xlink="http://www.w3.org/1999/xlink" contentStyleType="text/css" data-diagram-type="DESCRIPTION" height="1064px" preserveAspectRatio="none" style="width:860px;height:1064px;background:#FFFFFF;" version="1.1" viewBox="0 0 860 1064" width="860px" zoomAndPan="magnify"><defs/><g><!--cluster Configuration--><g class="cluster" data-entity="Configuration" data-source-line="10" data-uid="ent0002" id="cluster_Configuration"><path d="M37.19,121.97 L127.9029,121.97 A6,6 0 0 1 131.9029,125.97 L138.9029,141.9388 L231.19,141.9388 A4,4 0 0 1 235.19,145.9388 L235.19,209.94 A4,4 0 0 1 231.19,213.94 L37.19,213.94 A4,4 0 0 1 33.19,209.94 L33.19,125.97 A4,4 0 0 1 37.19,121.97 " fill="none" style="stroke:#000000;stroke-width:1.5;"/><line style="stroke:#000000;stroke-width:1.5;" x1="33.19" x2="138.9029" y1="141.9388" y2="141.9388"/><text fill="#000000" font-family="Arial" font-size="12" font-weight="bold" lengthAdjust="spacing" textLength="92.7129" x="37.19" y="135.1087">Configuration</text></g><!--cluster Pipeline Components--><g class="cluster" data-entity="Pipeline Components" data-source-line="14" data-uid="ent0004" id="cluster_Pipeline Components"><path d="M20.19,237.94 L161.4048,237.94 A6,6 0 0 1 165.4048,241.94 L172.4048,257.9088 L194.19,257.9088 A4,4 0 0 1 198.19,261.9088 L198.19,1053.69 A4,4 0 0 1 194.19,1057.69 L20.19,1057.69 A4,4 0 0 1 16.19,1053.69 L16.19,241.94 A4,4 0 0 1 20.19,237.94 " fill="none" style="stroke:#000000;stroke-width:1.5;"/><line style="stroke:#000000;stroke-width:1.5;" x1="16.19" x2="172.4048" y1="257.9088" y2="257.9088"/><text fill="#000000" font-family="Arial" font-size="12" font-weight="bold" lengthAdjust="spacing" textLength="143.2148" x="20.19" y="251.0787">Pipeline Components</text></g><!--cluster Pipeline Management--><g class="cluster" data-entity="Pipeline Management" data-source-line="25" data-uid="ent0013" id="cluster_Pipeline Management"><path d="M273.19,121.97 L418.2427,121.97 A6,6 0 0 1 422.2427,125.97 L429.2427,141.9388 L663.19,141.9388 A4,4 0 0 1 667.19,145.9388 L667.19,325.91 A4,4 0 0 1 663.19,329.91 L273.19,329.91 A4,4 0 0 1 269.19,325.91 L269.19,125.97 A4,4 0 0 1 273.19,121.97 " fill="none" style="stroke:#000000;stroke-width:1.5;"/><line style="stroke:#000000;stroke-width:1.5;" x1="269.19" x2="429.2427" y1="141.9388" y2="141.9388"/><text fill="#000000" font-family="Arial" font-size="12" font-weight="bold" lengthAdjust="spacing" textLength="147.0527" x="273.19" y="135.1087">Pipeline Management</text></g><!--cluster Dependency Injection--><g class="cluster" data-entity="Dependency Injection" data-source-line="32" data-uid="ent0018" id="cluster_Dependency Injection"><path d="M695.19,121.97 L839.9556,121.97 A6,6 0 0 1 843.9556,125.97 L850.9556,141.9388 L849.19,141.9388 A4,4 0 0 1 853.19,145.9388 L853.19,209.94 A4,4 0 0 1 849.19,213.94 L695.19,213.94 A4,4 0 0 1 691.19,209.94 L691.19,125.97 A4,4 0 0 1 695.19,121.97 " fill="none" style="stroke:#000000;stroke-width:1.5;"/><line style="stroke:#000000;stroke-width:1.5;" x1="691.19" x2="850.9556" y1="141.9388" y2="141.9388"/><text fill="#000000" font-family="Arial" font-size="12" font-weight="bold" lengthAdjust="spacing" textLength="146.7656" x="695.19" y="135.1087">Dependency Injection</text></g><!--cluster Entry Points--><g class="cluster" data-entity="Entry Points" data-source-line="36" data-uid="ent0020" id="cluster_Entry Points"><path d="M369.19,6 L450.1588,6 A6,6 0 0 1 454.1588,10 L461.1588,25.9688 L756.19,25.9688 A4,4 0 0 1 760.19,29.9688 L760.19,93.97 A4,4 0 0 1 756.19,97.97 L369.19,97.97 A4,4 0 0 1 365.19,93.97 L365.19,10 A4,4 0 0 1 369.19,6 " fill="none" style="stroke:#000000;stroke-width:1.5;"/><line style="stroke:#000000;stroke-width:1.5;" x1="365.19" x2="461.1588" y1="25.9688" y2="25.9688"/><text fill="#000000" font-family="Arial" font-size="12" font-weight="bold" lengthAdjust="spacing" textLength="82.9688" x="369.19" y="19.1387">Entry Points</text></g><!--entity Config--><g class="entity" data-entity="Config" data-source-line="11" data-uid="ent0003" id="entity_Config"><rect fill="#F1F1F1" height="43.9688" rx="4" ry="4" style="stroke:#666666;stroke-width:0.5;" width="169.9434" x="49.22" y="153.97"/><rect fill="#F1F1F1" height="10" style="stroke:#666666;stroke-width:0.5;" width="15" x="199.1634" y="158.97"/><rect fill="#F1F1F1" height="2" style="stroke:#666666;stroke-width:0.5;" width="4" x="197.1634" y="160.97"/><rect fill="#F1F1F1" height="2" style="stroke:#666666;stroke-width:0.5;" width="4" x="197.1634" y="164.97"/><text fill="#000000" font-family="Arial" font-size="12" lengthAdjust="spacing" textLength="129.9434" x="64.22" y="185.1087">Configuration System</text></g><!--entity DataLoader--><g class="entity" data-entity="DataLoader" data-source-line="15" data-uid="ent0005" id="entity_DataLoader"><rect fill="#F1F1F1" height="43.9688" rx="4" ry="4" style="stroke:#666666;stroke-width:0.5;" width="113.7813" x="68.3" y="269.94"/><rect fill="#F1F1F1" height="10" style="stroke:#666666;stroke-width:0.5;" width="15" x="162.0813" y="274.94"/><rect fill="#F1F1F1" height="2" style="stroke:#666666;stroke-width:0.5;" width="4" x="160.0813" y="276.94"/><rect fill="#F1F1F1" height="2" style="stroke:#666666;stroke-width:0.5;" width="4" x="160.0813" y="280.94"/><text fill="#000000" font-family="Arial" font-size="12" lengthAdjust="spacing" textLength="73.7813" x="83.3" y="301.0787">Data Loader</text></g><!--entity DataPreprocessor--><g class="entity" data-entity="DataPreprocessor" data-source-line="16" data-uid="ent0006" id="entity_DataPreprocessor"><rect fill="#F1F1F1" height="43.9688" rx="4" ry="4" style="stroke:#666666;stroke-width:0.5;" width="150.6719" x="31.85" y="373.91"/><rect fill="#F1F1F1" height="10" style="stroke:#666666;stroke-width:0.5;" width="15" x="162.5219" y="378.91"/><rect fill="#F1F1F1" height="2" style="stroke:#666666;stroke-width:0.5;" width="4" x="160.5219" y="380.91"/><rect fill="#F1F1F1" height="2" style="stroke:#666666;stroke-width:0.5;" width="4" x="160.5219" y="384.91"/><text fill="#000000" font-family="Arial" font-size="12" lengthAdjust="spacing" textLength="110.6719" x="46.85" y="405.0487">Data Preprocessor</text></g><!--entity FeatureEngineer--><g class="entity" data-entity="FeatureEngineer" data-source-line="17" data-uid="ent0007" id="entity_FeatureEngineer"><rect fill="#F1F1F1" height="43.9688" rx="4" ry="4" style="stroke:#666666;stroke-width:0.5;" width="143.5234" x="37.43" y="477.88"/><rect fill="#F1F1F1" height="10" style="stroke:#666666;stroke-width:0.5;" width="15" x="160.9534" y="482.88"/><rect fill="#F1F1F1" height="2" style="stroke:#666666;stroke-width:0.5;" width="4" x="158.9534" y="484.88"/><rect fill="#F1F1F1" height="2" style="stroke:#666666;stroke-width:0.5;" width="4" x="158.9534" y="488.88"/><text fill="#000000" font-family="Arial" font-size="12" lengthAdjust="spacing" textLength="103.5234" x="52.43" y="509.0187">Feature Engineer</text></g><!--entity ModelBuilder--><g class="entity" data-entity="ModelBuilder" data-source-line="18" data-uid="ent0008" id="entity_ModelBuilder"><rect fill="#F1F1F1" height="43.9688" rx="4" ry="4" style="stroke:#666666;stroke-width:0.5;" width="122.2832" x="60.05" y="581.85"/><rect fill="#F1F1F1" height="10" style="stroke:#666666;stroke-width:0.5;" width="15" x="162.3332" y="586.85"/><rect fill="#F1F1F1" height="2" style="stroke:#666666;stroke-width:0.5;" width="4" x="160.3332" y="588.85"/><rect fill="#F1F1F1" height="2" style="stroke:#666666;stroke-width:0.5;" width="4" x="160.3332" y="592.85"/><text fill="#000000" font-family="Arial" font-size="12" lengthAdjust="spacing" textLength="82.2832" x="75.05" y="612.9887">Model Builder</text></g><!--entity ModelTrainer--><g class="entity" data-entity="ModelTrainer" data-source-line="19" data-uid="ent0009" id="entity_ModelTrainer"><rect fill="#F1F1F1" height="43.9688" rx="4" ry="4" style="stroke:#666666;stroke-width:0.5;" width="122.7168" x="59.83" y="685.82"/><rect fill="#F1F1F1" height="10" style="stroke:#666666;stroke-width:0.5;" width="15" x="162.5468" y="690.82"/><rect fill="#F1F1F1" height="2" style="stroke:#666666;stroke-width:0.5;" width="4" x="160.5468" y="692.82"/><rect fill="#F1F1F1" height="2" style="stroke:#666666;stroke-width:0.5;" width="4" x="160.5468" y="696.82"/><text fill="#000000" font-family="Arial" font-size="12" lengthAdjust="spacing" textLength="82.7168" x="74.83" y="716.9587">Model Trainer</text></g><!--entity ModelEvaluator--><g class="entity" data-entity="ModelEvaluator" data-source-line="20" data-uid="ent0010" id="entity_ModelEvaluator"><rect fill="#F1F1F1" height="43.9688" rx="4" ry="4" style="stroke:#666666;stroke-width:0.5;" width="137.1543" x="44.61" y="789.78"/><rect fill="#F1F1F1" height="10" style="stroke:#666666;stroke-width:0.5;" width="15" x="161.7643" y="794.78"/><rect fill="#F1F1F1" height="2" style="stroke:#666666;stroke-width:0.5;" width="4" x="159.7643" y="796.78"/><rect fill="#F1F1F1" height="2" style="stroke:#666666;stroke-width:0.5;" width="4" x="159.7643" y="800.78"/><text fill="#000000" font-family="Arial" font-size="12" lengthAdjust="spacing" textLength="97.1543" x="59.61" y="820.9187">Model Evaluator</text></g><!--entity ModelSerializer--><g class="entity" data-entity="ModelSerializer" data-source-line="21" data-uid="ent0011" id="entity_ModelSerializer"><rect fill="#F1F1F1" height="43.9688" rx="4" ry="4" style="stroke:#666666;stroke-width:0.5;" width="135.748" x="46.32" y="893.75"/><rect fill="#F1F1F1" height="10" style="stroke:#666666;stroke-width:0.5;" width="15" x="162.068" y="898.75"/><rect fill="#F1F1F1" height="2" style="stroke:#666666;stroke-width:0.5;" width="4" x="160.068" y="900.75"/><rect fill="#F1F1F1" height="2" style="stroke:#666666;stroke-width:0.5;" width="4" x="160.068" y="904.75"/><text fill="#000000" font-family="Arial" font-size="12" lengthAdjust="spacing" textLength="95.748" x="61.32" y="924.8887">Model Serializer</text></g><!--entity Predictor--><g class="entity" data-entity="Predictor" data-source-line="22" data-uid="ent0012" id="entity_Predictor"><rect fill="#F1F1F1" height="43.9688" rx="4" ry="4" style="stroke:#666666;stroke-width:0.5;" width="94.082" x="77.15" y="997.72"/><rect fill="#F1F1F1" height="10" style="stroke:#666666;stroke-width:0.5;" width="15" x="151.232" y="1002.72"/><rect fill="#F1F1F1" height="2" style="stroke:#666666;stroke-width:0.5;" width="4" x="149.232" y="1004.72"/><rect fill="#F1F1F1" height="2" style="stroke:#666666;stroke-width:0.5;" width="4" x="149.232" y="1008.72"/><text fill="#000000" font-family="Arial" font-size="12" lengthAdjust="spacing" textLength="54.082" x="92.15" y="1028.8587">Predictor</text></g><!--entity Factory--><g class="entity" data-entity="Factory" data-source-line="26" data-uid="ent0014" id="entity_Factory"><rect fill="#F1F1F1" height="43.9688" rx="4" ry="4" style="stroke:#666666;stroke-width:0.5;" width="135.9766" x="318.2" y="269.94"/><rect fill="#F1F1F1" height="10" style="stroke:#666666;stroke-width:0.5;" width="15" x="434.1766" y="274.94"/><rect fill="#F1F1F1" height="2" style="stroke:#666666;stroke-width:0.5;" width="4" x="432.1766" y="276.94"/><rect fill="#F1F1F1" height="2" style="stroke:#666666;stroke-width:0.5;" width="4" x="432.1766" y="280.94"/><text fill="#000000" font-family="Arial" font-size="12" lengthAdjust="spacing" textLength="95.9766" x="333.2" y="301.0787">Pipeline Factory</text></g><!--entity Registry--><g class="entity" data-entity="Registry" data-source-line="27" data-uid="ent0015" id="entity_Registry"><rect fill="#F1F1F1" height="43.9688" rx="4" ry="4" style="stroke:#666666;stroke-width:0.5;" width="163.1465" x="285.62" y="153.97"/><rect fill="#F1F1F1" height="10" style="stroke:#666666;stroke-width:0.5;" width="15" x="428.7665" y="158.97"/><rect fill="#F1F1F1" height="2" style="stroke:#666666;stroke-width:0.5;" width="4" x="426.7665" y="160.97"/><rect fill="#F1F1F1" height="2" style="stroke:#666666;stroke-width:0.5;" width="4" x="426.7665" y="164.97"/><text fill="#000000" font-family="Arial" font-size="12" lengthAdjust="spacing" textLength="123.1465" x="300.62" y="185.1087">Component Registry</text></g><!--entity Orchestrator--><g class="entity" data-entity="Orchestrator" data-source-line="28" data-uid="ent0016" id="entity_Orchestrator"><rect fill="#F1F1F1" height="43.9688" rx="4" ry="4" style="stroke:#666666;stroke-width:0.5;" width="167.2305" x="483.57" y="153.97"/><rect fill="#F1F1F1" height="10" style="stroke:#666666;stroke-width:0.5;" width="15" x="630.8005" y="158.97"/><rect fill="#F1F1F1" height="2" style="stroke:#666666;stroke-width:0.5;" width="4" x="628.8005" y="160.97"/><rect fill="#F1F1F1" height="2" style="stroke:#666666;stroke-width:0.5;" width="4" x="628.8005" y="164.97"/><text fill="#000000" font-family="Arial" font-size="12" lengthAdjust="spacing" textLength="127.2305" x="498.57" y="185.1087">Pipeline Orchestrator</text></g><!--entity Context--><g class="entity" data-entity="Context" data-source-line="29" data-uid="ent0017" id="entity_Context"><rect fill="#F1F1F1" height="43.9688" rx="4" ry="4" style="stroke:#666666;stroke-width:0.5;" width="138.2617" x="498.06" y="269.94"/><rect fill="#F1F1F1" height="10" style="stroke:#666666;stroke-width:0.5;" width="15" x="616.3217" y="274.94"/><rect fill="#F1F1F1" height="2" style="stroke:#666666;stroke-width:0.5;" width="4" x="614.3217" y="276.94"/><rect fill="#F1F1F1" height="2" style="stroke:#666666;stroke-width:0.5;" width="4" x="614.3217" y="280.94"/><text fill="#000000" font-family="Arial" font-size="12" lengthAdjust="spacing" textLength="98.2617" x="513.06" y="301.0787">Pipeline Context</text></g><!--entity DIContainer--><g class="entity" data-entity="DIContainer" data-source-line="33" data-uid="ent0019" id="entity_DIContainer"><rect fill="#F1F1F1" height="43.9688" rx="4" ry="4" style="stroke:#666666;stroke-width:0.5;" width="115.2344" x="707.57" y="153.97"/><rect fill="#F1F1F1" height="10" style="stroke:#666666;stroke-width:0.5;" width="15" x="802.8044" y="158.97"/><rect fill="#F1F1F1" height="2" style="stroke:#666666;stroke-width:0.5;" width="4" x="800.8044" y="160.97"/><rect fill="#F1F1F1" height="2" style="stroke:#666666;stroke-width:0.5;" width="4" x="800.8044" y="164.97"/><text fill="#000000" font-family="Arial" font-size="12" lengthAdjust="spacing" textLength="75.2344" x="722.57" y="185.1087">DI Container</text></g><!--entity TrainingEntry--><g class="entity" data-entity="TrainingEntry" data-source-line="37" data-uid="ent0021" id="entity_TrainingEntry"><rect fill="#F1F1F1" height="43.9688" rx="4" ry="4" style="stroke:#666666;stroke-width:0.5;" width="158.8926" x="380.74" y="38"/><rect fill="#F1F1F1" height="10" style="stroke:#666666;stroke-width:0.5;" width="15" x="519.6326" y="43"/><rect fill="#F1F1F1" height="2" style="stroke:#666666;stroke-width:0.5;" width="4" x="517.6326" y="45"/><rect fill="#F1F1F1" height="2" style="stroke:#666666;stroke-width:0.5;" width="4" x="517.6326" y="49"/><text fill="#000000" font-family="Arial" font-size="12" lengthAdjust="spacing" textLength="118.8926" x="395.74" y="69.1387">Training Entry Point</text></g><!--entity PredictionEntry--><g class="entity" data-entity="PredictionEntry" data-source-line="38" data-uid="ent0022" id="entity_PredictionEntry"><rect fill="#F1F1F1" height="43.9688" rx="4" ry="4" style="stroke:#666666;stroke-width:0.5;" width="169.8672" x="574.26" y="38"/><rect fill="#F1F1F1" height="10" style="stroke:#666666;stroke-width:0.5;" width="15" x="724.1272" y="43"/><rect fill="#F1F1F1" height="2" style="stroke:#666666;stroke-width:0.5;" width="4" x="722.1272" y="45"/><rect fill="#F1F1F1" height="2" style="stroke:#666666;stroke-width:0.5;" width="4" x="722.1272" y="49"/><text fill="#000000" font-family="Arial" font-size="12" lengthAdjust="spacing" textLength="129.8672" x="589.26" y="69.1387">Prediction Entry Point</text></g><!--link Config to Factory--><g class="link" data-entity-1="Config" data-entity-2="Factory" data-source-line="42" data-uid="lnk23" id="link_Config_Factory"><path d="M187.63,198.44 C210.43,207.81 237.24,219.11 261.19,229.94 C289.02,242.52 314.4994,254.8847 338.5894,266.8847 " fill="none" id="Config-to-Factory" style="stroke:#181818;stroke-width:1;"/><polygon fill="#181818" points="343.96,269.56,337.6876,261.9667,339.4845,267.3306,334.1206,269.1275,343.96,269.56" style="stroke:#181818;stroke-width:1;"/></g><!--link Config to DataLoader--><g class="link" data-entity-1="Config" data-entity-2="DataLoader" data-source-line="43" data-uid="lnk24" id="link_Config_DataLoader"><path d="M132.5,198.39 C130.89,218.77 128.9505,243.2585 127.3505,263.5985 " fill="none" id="Config-to-DataLoader" style="stroke:#181818;stroke-width:1;"/><polygon fill="#181818" points="126.88,269.58,131.5735,260.9214,127.2721,264.5954,123.5981,260.294,126.88,269.58" style="stroke:#181818;stroke-width:1;"/></g><!--link Config to FeatureEngineer--><g class="link" data-entity-1="Config" data-entity-2="FeatureEngineer" data-source-line="44" data-uid="lnk25" id="link_Config_FeatureEngineer"><path d="M87.44,198.39 C74.02,206.55 60.52,217.07 51.19,229.94 C12.42,283.44 22.48,308.37 14.19,373.91 C11.74,393.3 6,400.13 14.19,417.88 C25.91,443.26 44.9462,460.304 65.9062,474.264 " fill="none" id="Config-to-FeatureEngineer" style="stroke:#181818;stroke-width:1;"/><polygon fill="#181818" points="70.9,477.59,65.6267,469.2718,66.7385,474.8183,61.192,475.9302,70.9,477.59" style="stroke:#181818;stroke-width:1;"/></g><!--link Config to ModelBuilder--><g class="link" data-entity-1="Config" data-entity-2="ModelBuilder" data-source-line="45" data-uid="lnk26" id="link_Config_ModelBuilder"><path d="M171.54,198.41 C182.5,206.73 193.15,217.34 199.19,229.94 C255.26,346.93 247.48,401.84 198.19,521.85 C188.31,545.89 172.2772,563.1044 154.8572,577.7144 " fill="none" id="Config-to-ModelBuilder" style="stroke:#181818;stroke-width:1;"/><polygon fill="#181818" points="150.26,581.57,159.7262,578.8514,154.091,578.357,154.5854,572.7218,150.26,581.57" style="stroke:#181818;stroke-width:1;"/></g><!--link DIContainer to Factory--><g class="link" data-entity-1="DIContainer" data-entity-2="Factory" data-source-line="47" data-uid="lnk27" id="link_DIContainer_Factory"><path d="M727.8,198.27 C710.02,207.3 688.12,216.89 667.19,221.94 C626.75,231.69 519.81,217.29 480.19,229.94 C454.43,238.17 433.6492,251.7347 415.7292,265.8047 " fill="none" id="DIContainer-to-Factory" style="stroke:#181818;stroke-width:1;"/><polygon fill="#181818" points="411.01,269.51,420.559,267.0982,414.9427,266.4222,415.6186,260.8059,411.01,269.51" style="stroke:#181818;stroke-width:1;"/></g><!--link Registry to Factory--><g class="link" data-entity-1="Registry" data-entity-2="Factory" data-source-line="48" data-uid="lnk28" id="link_Registry_Factory"><path d="M370.76,198.39 C374.16,218.77 378.2536,243.3216 381.6436,263.6616 " fill="none" id="Registry-to-Factory" style="stroke:#181818;stroke-width:1;"/><polygon fill="#181818" points="382.63,269.58,385.096,260.0449,381.808,264.648,377.2048,261.3601,382.63,269.58" style="stroke:#181818;stroke-width:1;"/></g><!--link Factory to DataLoader--><g class="link" data-entity-1="Factory" data-entity-2="DataLoader" data-source-line="50" data-uid="lnk29" id="link_Factory_DataLoader"><path d="M317.78,291.92 C272.7,291.92 233.62,291.92 188.54,291.92 " fill="none" id="Factory-to-DataLoader" style="stroke:#181818;stroke-width:1;"/><polygon fill="#181818" points="182.54,291.92,191.54,295.92,187.54,291.92,191.54,287.92,182.54,291.92" style="stroke:#181818;stroke-width:1;"/></g><!--link Factory to DataPreprocessor--><g class="link" data-entity-1="Factory" data-entity-2="DataPreprocessor" data-source-line="51" data-uid="lnk30" id="link_Factory_DataPreprocessor"><path d="M327.7,314.3 C280.09,331.7 218.8353,354.09 171.2353,371.49 " fill="none" id="Factory-to-DataPreprocessor" style="stroke:#181818;stroke-width:1;"/><polygon fill="#181818" points="165.6,373.55,175.4263,374.2169,170.2961,371.8334,172.6796,366.7032,165.6,373.55" style="stroke:#181818;stroke-width:1;"/></g><!--link Factory to FeatureEngineer--><g class="link" data-entity-1="Factory" data-entity-2="FeatureEngineer" data-source-line="52" data-uid="lnk31" id="link_Factory_FeatureEngineer"><path d="M357.33,314.38 C304.12,353.94 195.9652,434.3503 142.8052,473.8703 " fill="none" id="Factory-to-FeatureEngineer" style="stroke:#181818;stroke-width:1;"/><polygon fill="#181818" points="137.99,477.45,147.5992,475.2906,142.0026,474.4669,142.8263,468.8704,137.99,477.45" style="stroke:#181818;stroke-width:1;"/></g><!--link Factory to ModelBuilder--><g class="link" data-entity-1="Factory" data-entity-2="ModelBuilder" data-source-line="53" data-uid="lnk32" id="link_Factory_ModelBuilder"><path d="M379.02,314.29 C363.52,357.88 323.17,458.32 261.19,521.85 C236.19,547.47 206.7652,565.0555 178.1052,578.8655 " fill="none" id="Factory-to-ModelBuilder" style="stroke:#181818;stroke-width:1;"/><polygon fill="#181818" points="172.7,581.47,182.5442,581.1667,177.2043,579.2996,179.0715,573.9597,172.7,581.47" style="stroke:#181818;stroke-width:1;"/></g><!--link Factory to ModelTrainer--><g class="link" data-entity-1="Factory" data-entity-2="ModelTrainer" data-source-line="54" data-uid="lnk33" id="link_Factory_ModelTrainer"><path d="M386.25,314.36 C385.69,339.79 382.74,383.11 370.19,417.88 C326.56,538.71 210.8088,638.6627 154.9988,681.7627 " fill="none" id="Factory-to-ModelTrainer" style="stroke:#181818;stroke-width:1;"/><polygon fill="#181818" points="150.25,685.43,159.818,683.0949,154.2073,682.3739,154.9283,676.7632,150.25,685.43" style="stroke:#181818;stroke-width:1;"/></g><!--link Factory to ModelEvaluator--><g class="link" data-entity-1="Factory" data-entity-2="ModelEvaluator" data-source-line="55" data-uid="lnk34" id="link_Factory_ModelEvaluator"><path d="M412.15,314.33 C450.85,348.82 519.19,420.76 519.19,498.86 C519.19,498.86 519.19,498.86 519.19,604.83 C519.19,754.21 303.8719,794.6895 188.0319,805.9495 " fill="none" id="Factory-to-ModelEvaluator" style="stroke:#181818;stroke-width:1;"/><polygon fill="#181818" points="182.06,806.53,191.4048,809.6405,187.0365,806.0463,190.6308,801.678,182.06,806.53" style="stroke:#181818;stroke-width:1;"/></g><!--link Factory to ModelSerializer--><g class="link" data-entity-1="Factory" data-entity-2="ModelSerializer" data-source-line="56" data-uid="lnk35" id="link_Factory_ModelSerializer"><path d="M432.74,314.34 C492.94,345.62 590.19,409.91 590.19,498.86 C590.19,498.86 590.19,498.86 590.19,708.8 C590.19,884.38 320.0082,911.8151 188.3882,914.9951 " fill="none" id="Factory-to-ModelSerializer" style="stroke:#181818;stroke-width:1;"/><polygon fill="#181818" points="182.39,915.14,191.484,918.9215,187.3885,915.0192,191.2908,910.9238,182.39,915.14" style="stroke:#181818;stroke-width:1;"/></g><!--link Factory to Predictor--><g class="link" data-entity-1="Factory" data-entity-2="Predictor" data-source-line="57" data-uid="lnk36" id="link_Factory_Predictor"><path d="M429.47,314.28 C445.33,321.94 463.49,330.5 480.19,337.91 C518.82,355.04 534.8,348.01 568.19,373.91 C622.89,416.33 661.19,429.63 661.19,498.86 C661.19,498.86 661.19,498.86 661.19,812.77 C661.19,917.24 308.3231,987.4924 177.2831,1010.0424 " fill="none" id="Factory-to-Predictor" style="stroke:#181818;stroke-width:1;"/><polygon fill="#181818" points="171.37,1011.06,180.918,1013.4757,176.2976,1010.212,179.5613,1005.5916,171.37,1011.06" style="stroke:#181818;stroke-width:1;"/></g><!--link Orchestrator to Factory--><g class="link" data-entity-1="Orchestrator" data-entity-2="Factory" data-source-line="59" data-uid="lnk37" id="link_Orchestrator_Factory"><path d="M531.49,198.38 C515.71,207.94 496.96,219.4 480.19,229.94 C459.6,242.88 441.7312,254.4456 423.6912,266.2456 " fill="none" id="Orchestrator-to-Factory" style="stroke:#181818;stroke-width:1;"/><polygon fill="#181818" points="418.67,269.53,428.3914,267.9509,422.8544,266.793,424.0122,261.2559,418.67,269.53" style="stroke:#181818;stroke-width:1;"/></g><!--link Orchestrator to Context--><g class="link" data-entity-1="Orchestrator" data-entity-2="Context" data-source-line="60" data-uid="lnk38" id="link_Orchestrator_Context"><path d="M567.19,198.39 C567.19,218.77 567.19,243.24 567.19,263.58 " fill="none" id="Orchestrator-to-Context" style="stroke:#181818;stroke-width:1;"/><polygon fill="#181818" points="567.19,269.58,571.19,260.58,567.19,264.58,563.19,260.58,567.19,269.58" style="stroke:#181818;stroke-width:1;"/></g><!--link TrainingEntry to Orchestrator--><g class="link" data-entity-1="TrainingEntry" data-entity-2="Orchestrator" data-source-line="62" data-uid="lnk39" id="link_TrainingEntry_Orchestrator"><path d="M480.32,82.42 C499.45,102.8 523.9439,128.8951 543.0439,149.2451 " fill="none" id="TrainingEntry-to-Orchestrator" style="stroke:#181818;stroke-width:1;"/><polygon fill="#181818" points="547.15,153.62,543.9074,144.3203,543.7282,149.9743,538.0742,149.7951,547.15,153.62" style="stroke:#181818;stroke-width:1;"/></g><!--link PredictionEntry to Orchestrator--><g class="link" data-entity-1="PredictionEntry" data-entity-2="Orchestrator" data-source-line="63" data-uid="lnk40" id="link_PredictionEntry_Orchestrator"><path d="M641.89,82.42 C625.44,102.8 604.6077,128.6005 588.1877,148.9505 " fill="none" id="PredictionEntry-to-Orchestrator" style="stroke:#181818;stroke-width:1;"/><polygon fill="#181818" points="584.42,153.62,593.1846,149.1276,587.5598,149.7287,586.9586,144.1039,584.42,153.62" style="stroke:#181818;stroke-width:1;"/></g><!--link DataLoader to DataPreprocessor--><g class="link" data-entity-1="DataLoader" data-entity-2="DataPreprocessor" data-source-line="65" data-uid="lnk41" id="link_DataLoader_DataPreprocessor"><path d="M121.46,314.05 C118.39,331.44 115.1017,350.0611 112.0217,367.5311 " fill="none" id="DataLoader-to-DataPreprocessor" style="stroke:#181818;stroke-width:1;"/><polygon fill="#181818" points="110.98,373.44,116.4819,365.2712,111.8481,368.5159,108.6034,363.8822,110.98,373.44" style="stroke:#181818;stroke-width:1;"/></g><!--link DataPreprocessor to FeatureEngineer--><g class="link" data-entity-1="DataPreprocessor" data-entity-2="FeatureEngineer" data-source-line="66" data-uid="lnk42" id="link_DataPreprocessor_FeatureEngineer"><path d="M107.6,418.02 C107.95,435.4 108.3133,453.9411 108.6533,471.4111 " fill="none" id="DataPreprocessor-to-FeatureEngineer" style="stroke:#181818;stroke-width:1;"/><polygon fill="#181818" points="108.77,477.41,112.5941,468.3339,108.6727,472.4109,104.5956,468.4895,108.77,477.41" style="stroke:#181818;stroke-width:1;"/></g><!--link FeatureEngineer to ModelBuilder--><g class="link" data-entity-1="FeatureEngineer" data-entity-2="ModelBuilder" data-source-line="67" data-uid="lnk43" id="link_FeatureEngineer_ModelBuilder"><path d="M111.68,521.99 C113.72,539.37 115.9074,557.9513 117.9674,575.4213 " fill="none" id="FeatureEngineer-to-ModelBuilder" style="stroke:#181818;stroke-width:1;"/><polygon fill="#181818" points="118.67,581.38,121.5885,571.9735,118.0845,576.4144,113.6436,572.9103,118.67,581.38" style="stroke:#181818;stroke-width:1;"/></g><!--link ModelBuilder to ModelTrainer--><g class="link" data-entity-1="ModelBuilder" data-entity-2="ModelTrainer" data-source-line="68" data-uid="lnk44" id="link_ModelBuilder_ModelTrainer"><path d="M121.19,625.96 C121.19,643.34 121.19,661.88 121.19,679.35 " fill="none" id="ModelBuilder-to-ModelTrainer" style="stroke:#181818;stroke-width:1;"/><polygon fill="#181818" points="121.19,685.35,125.19,676.35,121.19,680.35,117.19,676.35,121.19,685.35" style="stroke:#181818;stroke-width:1;"/></g><!--link ModelTrainer to ModelEvaluator--><g class="link" data-entity-1="ModelTrainer" data-entity-2="ModelEvaluator" data-source-line="69" data-uid="lnk45" id="link_ModelTrainer_ModelEvaluator"><path d="M119.53,729.93 C118.17,747.31 116.7088,765.8583 115.3388,783.3383 " fill="none" id="ModelTrainer-to-ModelEvaluator" style="stroke:#181818;stroke-width:1;"/><polygon fill="#181818" points="114.87,789.32,119.561,780.6601,115.2607,784.3353,111.5855,780.035,114.87,789.32" style="stroke:#181818;stroke-width:1;"/></g><!--link ModelEvaluator to ModelSerializer--><g class="link" data-entity-1="ModelEvaluator" data-entity-2="ModelSerializer" data-source-line="70" data-uid="lnk46" id="link_ModelEvaluator_ModelSerializer"><path d="M113.4,833.9 C113.57,851.28 113.7517,869.8103 113.9217,887.2903 " fill="none" id="ModelEvaluator-to-ModelSerializer" style="stroke:#181818;stroke-width:1;"/><polygon fill="#181818" points="113.98,893.29,117.8923,884.2515,113.9314,888.2902,109.8927,884.3293,113.98,893.29" style="stroke:#181818;stroke-width:1;"/></g><!--link ModelSerializer to Predictor--><g class="link" data-entity-1="ModelSerializer" data-entity-2="Predictor" data-source-line="71" data-uid="lnk47" id="link_ModelSerializer_Predictor"><path d="M116.26,937.86 C117.97,955.25 119.7821,973.8089 121.5021,991.2789 " fill="none" id="ModelSerializer-to-Predictor" style="stroke:#181818;stroke-width:1;"/><polygon fill="#181818" points="122.09,997.25,125.1889,987.9014,121.6001,992.2741,117.2274,988.6852,122.09,997.25" style="stroke:#181818;stroke-width:1;"/></g><!--SRC=[RLF1ZjCm4BtxAqRBOKzxW0FYXCGshLI9XOfoGnnCCatDEdPaEq11- -_OYHsFa_IKUUzvx7dpUWyLNeH2iEucqJBxB5JF3U_W1w-VMwC7rUoqr0P-NuL3mjUwwxL2vSxX90oTV4FO1YzyaEwWbVl4EuGFHd2vpP_5NuJNz72yrIWqy6xhoaTj6ZJJkrwz7N-CtQTHPfbblH-2jmXtEwqkeXqCTqAhE_Z70BuL69nlrc7t7RY5YM0lB9y_YHvbQBwRcySk5NSSFchk7pGU3lLKpkp9O6zqZTRghA5WK1wGky4Wx5NhxudD8fYme7lI3Kfu78HCDuv81BBYg-7-355482lslxWSkDD4CqDPTSQmEhyZ8ijOqFb96b6dFdErxTyJLnxel87Hlvavy73gDiqzVKzRYeR35so5TL6HYgB5PrDVqQFpK1Geb7x53l-ujExmNRotmXvLWwg-mL7zn9h4fZgE9xAxrN6kYnvxvTy79oroMCOT2DK2uSOUYHXnOcf8vbARgKdzGh9lK8vnjbVHMpO56HuUti-E4eWabGeNaIDK4JH6nYvkI9ifG1O_bXSluU9VGSdbioXNl6j5fDolY1ps5KK2JhcSRKQJLKow8bAyMB7ZaIhYkLZhMi2oRzj-BO5juyfwRI0jrYxIOilAijnqT56Nplu7]--></g></svg>