<svg xmlns="http://www.w3.org/2000/svg" xmlns:xlink="http://www.w3.org/1999/xlink" contentStyleType="text/css" data-diagram-type="CLASS" height="366px" preserveAspectRatio="none" style="width:939px;height:366px;background:#FFFFFF;" version="1.1" viewBox="0 0 939 366" width="939px" zoomAndPan="magnify"><defs/><g><!--class AssetData--><g class="entity" data-entity="AssetData" data-source-line="2" data-uid="ent0002" id="entity_AssetData"><rect fill="#F1F1F1" height="96.8906" rx="2.5" ry="2.5" style="stroke:#181818;stroke-width:0.5;" width="175.5361" x="382.79" y="7"/><ellipse cx="404.3985" cy="23" fill="#ADD1B2" rx="11" ry="11" style="stroke:#181818;stroke-width:1;"/><path d="M408.5079,29 L400.7891,29 L400.7891,16.6094 L408.5079,16.6094 L408.5079,18.7656 L403.2422,18.7656 L403.2422,21.4375 L408.0079,21.4375 L408.0079,23.5938 L403.2422,23.5938 L403.2422,26.8438 L408.5079,26.8438 L408.5079,29 Z " fill="#000000"/><text fill="#000000" font-family="sans-serif" font-size="14" lengthAdjust="spacing" textLength="128.8506" x="419.8671" y="27.8467">Asset Data (Excel)</text><line style="stroke:#181818;stroke-width:0.5;" x1="383.79" x2="557.3261" y1="39" y2="39"/><ellipse cx="393.79" cy="52.6484" fill="#000000" rx="3" ry="3" style="stroke:#000000;stroke-width:1;"/><text fill="#000000" font-family="sans-serif" font-size="14" lengthAdjust="spacing" textLength="106.4014" x="402.79" y="55.9951">asset_id: string</text><line style="stroke:#181818;stroke-width:1;" x1="383.79" x2="557.3261" y1="63.2969" y2="63.2969"/><text fill="#000000" font-family="sans-serif" font-size="14" lengthAdjust="spacing" textLength="155.0732" x="388.79" y="80.292">equipment_tag: string</text><text fill="#000000" font-family="sans-serif" font-size="14" lengthAdjust="spacing" textLength="163.5361" x="388.79" y="96.5889">other_columns: various</text></g><!--class StagingTable--><g class="entity" data-entity="StagingTable" data-source-line="9" data-uid="ent0003" id="entity_StagingTable"><rect fill="#F1F1F1" height="178.375" rx="2.5" ry="2.5" style="stroke:#181818;stroke-width:0.5;" width="227.1064" x="7" y="180.89"/><ellipse cx="68.0723" cy="196.89" fill="#ADD1B2" rx="11" ry="11" style="stroke:#181818;stroke-width:1;"/><path d="M72.1816,202.89 L64.4629,202.89 L64.4629,190.4994 L72.1816,190.4994 L72.1816,192.6556 L66.916,192.6556 L66.916,195.3275 L71.6816,195.3275 L71.6816,197.4838 L66.916,197.4838 L66.916,200.7338 L72.1816,200.7338 L72.1816,202.89 Z " fill="#000000"/><text fill="#000000" font-family="sans-serif" font-size="14" lengthAdjust="spacing" textLength="96.4619" x="88.5723" y="201.7367">Staging Table</text><line style="stroke:#181818;stroke-width:0.5;" x1="8" x2="233.1064" y1="212.89" y2="212.89"/><ellipse cx="18" cy="226.5384" fill="#000000" rx="3" ry="3" style="stroke:#000000;stroke-width:1;"/><text fill="#000000" font-family="sans-serif" font-size="14" lengthAdjust="spacing" textLength="72.0645" x="27" y="229.8851">id: integer</text><line style="stroke:#181818;stroke-width:1;" x1="8" x2="233.1064" y1="237.1869" y2="237.1869"/><ellipse cx="18" cy="250.8353" fill="#000000" rx="3" ry="3" style="stroke:#000000;stroke-width:1;"/><text fill="#000000" font-family="sans-serif" font-size="14" lengthAdjust="spacing" textLength="153.7676" x="27" y="254.182">source_system: string</text><ellipse cx="18" cy="267.1322" fill="#000000" rx="3" ry="3" style="stroke:#000000;stroke-width:1;"/><text fill="#000000" font-family="sans-serif" font-size="14" lengthAdjust="spacing" textLength="161.8818" x="27" y="270.4789">import_batch_id: string</text><ellipse cx="18" cy="283.4291" fill="#000000" rx="3" ry="3" style="stroke:#000000;stroke-width:1;"/><text fill="#000000" font-family="sans-serif" font-size="14" lengthAdjust="spacing" textLength="201.1064" x="27" y="286.7757">import_timestamp: datetime</text><ellipse cx="18" cy="299.7259" fill="#000000" rx="3" ry="3" style="stroke:#000000;stroke-width:1;"/><text fill="#000000" font-family="sans-serif" font-size="14" lengthAdjust="spacing" textLength="92.374" x="27" y="303.0726">status: string</text><ellipse cx="18" cy="316.0228" fill="#000000" rx="3" ry="3" style="stroke:#000000;stroke-width:1;"/><text fill="#000000" font-family="sans-serif" font-size="14" lengthAdjust="spacing" textLength="75.209" x="27" y="319.3695">data: JSON</text><text fill="#000000" font-family="sans-serif" font-size="14" lengthAdjust="spacing" textLength="155.0732" x="27" y="335.6664">equipment_tag: string</text><text fill="#000000" font-family="sans-serif" font-size="14" lengthAdjust="spacing" textLength="163.5361" x="27" y="351.9632">other_columns: various</text></g><!--class SQLiteDB--><g class="entity" data-entity="SQLiteDB" data-source-line="21" data-uid="ent0004" id="entity_SQLiteDB"><rect fill="#F1F1F1" height="96.8906" rx="2.5" ry="2.5" style="stroke:#181818;stroke-width:0.5;" width="175.5361" x="268.79" y="221.64"/><ellipse cx="295.7541" cy="237.64" fill="#ADD1B2" rx="11" ry="11" style="stroke:#181818;stroke-width:1;"/><path d="M299.8635,243.64 L292.1447,243.64 L292.1447,231.2494 L299.8635,231.2494 L299.8635,233.4056 L294.5979,233.4056 L294.5979,236.0775 L299.3635,236.0775 L299.3635,238.2338 L294.5979,238.2338 L294.5979,241.4838 L299.8635,241.4838 L299.8635,243.64 Z " fill="#000000"/><text fill="#000000" font-family="sans-serif" font-size="14" lengthAdjust="spacing" textLength="116.9492" x="312.4128" y="242.4867">SQLite Database</text><line style="stroke:#181818;stroke-width:0.5;" x1="269.79" x2="443.3261" y1="253.64" y2="253.64"/><ellipse cx="279.79" cy="267.2884" fill="#000000" rx="3" ry="3" style="stroke:#000000;stroke-width:1;"/><text fill="#000000" font-family="sans-serif" font-size="14" lengthAdjust="spacing" textLength="106.4014" x="288.79" y="270.6351">asset_id: string</text><line style="stroke:#181818;stroke-width:1;" x1="269.79" x2="443.3261" y1="277.9369" y2="277.9369"/><text fill="#000000" font-family="sans-serif" font-size="14" lengthAdjust="spacing" textLength="155.0732" x="274.79" y="294.932">equipment_tag: string</text><text fill="#000000" font-family="sans-serif" font-size="14" lengthAdjust="spacing" textLength="163.5361" x="274.79" y="311.2289">other_columns: various</text></g><!--class AnalysisReport--><g class="entity" data-entity="AnalysisReport" data-source-line="28" data-uid="ent0005" id="entity_AnalysisReport"><rect fill="#F1F1F1" height="113.1875" rx="2.5" ry="2.5" style="stroke:#181818;stroke-width:0.5;" width="213.2705" x="478.92" y="213.49"/><ellipse cx="526.7203" cy="229.49" fill="#ADD1B2" rx="11" ry="11" style="stroke:#181818;stroke-width:1;"/><path d="M530.8297,235.49 L523.1109,235.49 L523.1109,223.0994 L530.8297,223.0994 L530.8297,225.2556 L525.564,225.2556 L525.564,227.9275 L530.3297,227.9275 L530.3297,230.0837 L525.564,230.0837 L525.564,233.3337 L530.8297,233.3337 L530.8297,235.49 Z " fill="#000000"/><text fill="#000000" font-family="sans-serif" font-size="14" lengthAdjust="spacing" textLength="109.1699" x="547.2203" y="234.3367">Analysis Report</text><line style="stroke:#181818;stroke-width:0.5;" x1="479.92" x2="691.1905" y1="245.49" y2="245.49"/><ellipse cx="489.92" cy="259.1384" fill="#000000" rx="3" ry="3" style="stroke:#000000;stroke-width:1;"/><text fill="#000000" font-family="sans-serif" font-size="14" lengthAdjust="spacing" textLength="134.9414" x="498.92" y="262.4851">sheet_name: string</text><line style="stroke:#181818;stroke-width:1;" x1="479.92" x2="691.1905" y1="269.7869" y2="269.7869"/><text fill="#000000" font-family="sans-serif" font-size="14" lengthAdjust="spacing" textLength="201.2705" x="484.92" y="286.782">unique_values_analysis: text</text><text fill="#000000" font-family="sans-serif" font-size="14" lengthAdjust="spacing" textLength="157.9854" x="484.92" y="303.0789">column_statistics: text</text><text fill="#000000" font-family="sans-serif" font-size="14" lengthAdjust="spacing" textLength="128.6045" x="484.92" y="319.3757">text_analysis: text</text></g><!--class ValidationReport--><g class="entity" data-entity="ValidationReport" data-source-line="36" data-uid="ent0006" id="entity_ValidationReport"><rect fill="#F1F1F1" height="129.4844" rx="2.5" ry="2.5" style="stroke:#181818;stroke-width:0.5;" width="205.4092" x="726.85" y="205.34"/><ellipse cx="765.116" cy="221.34" fill="#ADD1B2" rx="11" ry="11" style="stroke:#181818;stroke-width:1;"/><path d="M769.2253,227.34 L761.5066,227.34 L761.5066,214.9494 L769.2253,214.9494 L769.2253,217.1056 L763.9597,217.1056 L763.9597,219.7775 L768.7253,219.7775 L768.7253,221.9337 L763.9597,221.9337 L763.9597,225.1837 L769.2253,225.1837 L769.2253,227.34 Z " fill="#000000"/><text fill="#000000" font-family="sans-serif" font-size="14" lengthAdjust="spacing" textLength="121.707" x="784.2862" y="226.1867">Validation Report</text><line style="stroke:#181818;stroke-width:0.5;" x1="727.85" x2="931.2592" y1="237.34" y2="237.34"/><ellipse cx="737.85" cy="250.9884" fill="#000000" rx="3" ry="3" style="stroke:#000000;stroke-width:1;"/><text fill="#000000" font-family="sans-serif" font-size="14" lengthAdjust="spacing" textLength="134.9414" x="746.85" y="254.3351">sheet_name: string</text><line style="stroke:#181818;stroke-width:1;" x1="727.85" x2="931.2592" y1="261.6369" y2="261.6369"/><text fill="#000000" font-family="sans-serif" font-size="14" lengthAdjust="spacing" textLength="193.4092" x="732.85" y="278.632">missing_values_report: text</text><text fill="#000000" font-family="sans-serif" font-size="14" lengthAdjust="spacing" textLength="191.9805" x="732.85" y="294.9289">duplicate_rows_report: text</text><text fill="#000000" font-family="sans-serif" font-size="14" lengthAdjust="spacing" textLength="180.3525" x="732.85" y="311.2257">value_ranges_report: text</text><text fill="#000000" font-family="sans-serif" font-size="14" lengthAdjust="spacing" textLength="164.2129" x="732.85" y="327.5226">data_types_report: text</text></g><!--link AssetData to StagingTable--><g class="link" data-entity-1="AssetData" data-entity-2="StagingTable" data-source-line="46" data-uid="lnk7" id="link_AssetData_StagingTable"><path codeLine="46" d="M382.81,104.31 C342.42,126.85 294.12,154.53 251.55,180.89 C245.96,184.36 245.3165,184.7202 239.5865,188.3802 " fill="none" id="AssetData-to-StagingTable" style="stroke:#181818;stroke-width:1;"/><polygon fill="#181818" points="234.53,191.61,244.268,190.1363,238.7438,188.9185,239.9616,183.3943,234.53,191.61" style="stroke:#181818;stroke-width:1;"/><text fill="#000000" font-family="sans-serif" font-size="13" lengthAdjust="spacing" textLength="63.21" x="330.55" y="146.9569">staged as</text></g><!--link AssetData to SQLiteDB--><g class="link" data-entity-1="AssetData" data-entity-2="SQLiteDB" data-source-line="47" data-uid="lnk8" id="link_AssetData_SQLiteDB"><path codeLine="47" d="M444.97,104.17 C426.26,139.07 403.8141,180.9215 385.0841,215.8715 " fill="none" id="AssetData-to-SQLiteDB" style="stroke:#181818;stroke-width:1;"/><polygon fill="#181818" points="382.25,221.16,390.0268,215.1167,384.6118,216.753,382.9756,211.3379,382.25,221.16" style="stroke:#181818;stroke-width:1;"/><text fill="#000000" font-family="sans-serif" font-size="13" lengthAdjust="spacing" textLength="75.772" x="428.55" y="146.9569">exported to</text></g><!--link AssetData to AnalysisReport--><g class="link" data-entity-1="AssetData" data-entity-2="AnalysisReport" data-source-line="48" data-uid="lnk9" id="link_AssetData_AnalysisReport"><path codeLine="48" d="M496.56,104.36 C501.85,114.13 507.38,124.34 512.55,133.89 C526.64,159.93 539.3889,183.5307 552.5389,207.8807 " fill="none" id="AssetData-to-AnalysisReport" style="stroke:#181818;stroke-width:1;"/><polygon fill="#181818" points="555.39,213.16,554.633,203.3403,553.0141,208.7605,547.5938,207.1417,555.39,213.16" style="stroke:#181818;stroke-width:1;"/><text fill="#000000" font-family="sans-serif" font-size="13" lengthAdjust="spacing" textLength="74.5342" x="520.55" y="146.9569">analyzed in</text></g><!--link AssetData to ValidationReport--><g class="link" data-entity-1="AssetData" data-entity-2="ValidationReport" data-source-line="49" data-uid="lnk10" id="link_AssetData_ValidationReport"><path codeLine="49" d="M558.63,98.25 C604.55,121.05 661.1,150.73 709.55,180.89 C721.51,188.34 728.9106,193.1707 740.8806,201.5807 " fill="none" id="AssetData-to-ValidationReport" style="stroke:#181818;stroke-width:1;"/><polygon fill="#181818" points="745.79,205.03,740.7254,196.5831,741.6988,202.1556,736.1263,203.129,745.79,205.03" style="stroke:#181818;stroke-width:1;"/><text fill="#000000" font-family="sans-serif" font-size="13" lengthAdjust="spacing" textLength="76.4321" x="652.55" y="146.9569">validated in</text></g><!--SRC=[jLDDRzim3BtxLn2vf2lWF-33W0xfPIWsR1bs5HY7SmZOiYDIMTAY_xsqx7ovFHGeUh6inqSzyb6QmuB-iIVG3G5vPMMIBFqSO7OdGWeBL8IR-tr9zPSPe4224_gK0TmQP7l7wm940_lAm3ot3sqZTuqTvXIhYs1hOi6LRHqRBmNiC70R9NlEJi9BIp0k_C5LJKbpH18molQ2x9Kg2aV5Mv0sXfAS74IfkT0qUjErGTqAjTnS5tkAAJSaYarNm1gL-krmgA96kSgmE1RmVVdpnySQ_VN0IidY5ShOQi8MtpxDtJkFzK5Ou3VrRGyp7R416gLbGoRjiQ6fUFIyZUHsM4SIXsDo0KfxjV2WxdhVM9JBSwHVfloBqlvYpMOjj_wok3Fwpl8Q5h7jiRwGiaurh6DNSsa3Tg7z_ogQSbn0NxsHQNDoUkYc4UjWVdn9WUfKgcoua-pyLlByw_KjBc1c1bMqjXPdK-Bn3XY9zhsIqRITqYPJCtAozj78xAVaLouQVJTW0_y5]--></g></svg>