<svg xmlns="http://www.w3.org/2000/svg" xmlns:xlink="http://www.w3.org/1999/xlink" contentStyleType="text/css" data-diagram-type="SEQUENCE" height="1600px" preserveAspectRatio="none" style="width:1161px;height:1600px;background:#FFFFFF;" version="1.1" viewBox="0 0 1161 1600" width="1161px" zoomAndPan="magnify"><defs/><g><g><title>MedtronicsPipeline</title><rect fill="#FFFFFF" height="1388.9766" style="stroke:#181818;stroke-width:1;" width="10" x="147.499" y="112.4297"/></g><g><title>User</title><rect fill="#000000" fill-opacity="0.00000" height="1438.1094" width="8" x="19.9551" y="81.2969"/><line style="stroke:#181818;stroke-width:0.5;stroke-dasharray:5.0,5.0;" x1="23" x2="23" y1="81.2969" y2="1519.4063"/></g><g><title>MedtronicsPipeline</title><rect fill="#000000" fill-opacity="0.00000" height="1438.1094" width="8" x="148.499" y="81.2969"/><line style="stroke:#181818;stroke-width:0.5;stroke-dasharray:5.0,5.0;" x1="152.3784" x2="152.3784" y1="81.2969" y2="1519.4063"/></g><g><title>Excel Utilities</title><rect fill="#000000" fill-opacity="0.00000" height="1438.1094" width="8" x="356.7441" y="81.2969"/><line style="stroke:#181818;stroke-width:0.5;stroke-dasharray:5.0,5.0;" x1="360.5078" x2="360.5078" y1="81.2969" y2="1519.4063"/></g><g><title>Validation Utilities</title><rect fill="#000000" fill-opacity="0.00000" height="1438.1094" width="8" x="491.6606" y="81.2969"/><line style="stroke:#181818;stroke-width:0.5;stroke-dasharray:5.0,5.0;" x1="494.9805" x2="494.9805" y1="81.2969" y2="1519.4063"/></g><g><title>SQLiteStagingManager</title><rect fill="#000000" fill-opacity="0.00000" height="1438.1094" width="8" x="659.6187" y="81.2969"/><line style="stroke:#181818;stroke-width:0.5;stroke-dasharray:5.0,5.0;" x1="663.3408" x2="663.3408" y1="81.2969" y2="1519.4063"/></g><g><title>Database Utilities</title><rect fill="#000000" fill-opacity="0.00000" height="1438.1094" width="8" x="825.8677" y="81.2969"/><line style="stroke:#181818;stroke-width:0.5;stroke-dasharray:5.0,5.0;" x1="828.8965" x2="828.8965" y1="81.2969" y2="1519.4063"/></g><g><title>SQLite Database</title><rect fill="#000000" fill-opacity="0.00000" height="1438.1094" width="8" x="997.6792" y="81.2969"/><line style="stroke:#181818;stroke-width:0.5;stroke-dasharray:5.0,5.0;" x1="1001.2046" x2="1001.2046" y1="81.2969" y2="1519.4063"/></g><g><title>File System</title><rect fill="#000000" fill-opacity="0.00000" height="1438.1094" width="8" x="1112.7046" y="81.2969"/><line style="stroke:#181818;stroke-width:0.5;stroke-dasharray:5.0,5.0;" x1="1116.1538" x2="1116.1538" y1="81.2969" y2="1519.4063"/></g><g class="participant participant-head" data-participant="User"><text fill="#000000" font-family="sans-serif" font-size="14" lengthAdjust="spacing" textLength="31.9102" x="5" y="77.9951">User</text><ellipse cx="23.9551" cy="13.5" fill="#E2E2F0" rx="8" ry="8" style="stroke:#181818;stroke-width:0.5;"/><path d="M23.9551,21.5 L23.9551,48.5 M10.9551,29.5 L36.9551,29.5 M23.9551,48.5 L10.9551,63.5 M23.9551,48.5 L36.9551,63.5 " fill="none" style="stroke:#181818;stroke-width:0.5;"/></g><g class="participant participant-tail" data-participant="User"><text fill="#000000" font-family="sans-serif" font-size="14" lengthAdjust="spacing" textLength="31.9102" x="5" y="1531.4014">User</text><ellipse cx="23.9551" cy="1543.2031" fill="#E2E2F0" rx="8" ry="8" style="stroke:#181818;stroke-width:0.5;"/><path d="M23.9551,1551.2031 L23.9551,1578.2031 M10.9551,1559.2031 L36.9551,1559.2031 M23.9551,1578.2031 L10.9551,1593.2031 M23.9551,1578.2031 L36.9551,1593.2031 " fill="none" style="stroke:#181818;stroke-width:0.5;"/></g><g class="participant participant-head" data-participant="Pipeline"><rect fill="#E2E2F0" height="30.2969" rx="2.5" ry="2.5" style="stroke:#181818;stroke-width:0.5;" width="146.2412" x="79.3784" y="50"/><text fill="#000000" font-family="sans-serif" font-size="14" lengthAdjust="spacing" textLength="132.2412" x="86.3784" y="69.9951">MedtronicsPipeline</text></g><g class="participant participant-tail" data-participant="Pipeline"><rect fill="#E2E2F0" height="30.2969" rx="2.5" ry="2.5" style="stroke:#181818;stroke-width:0.5;" width="146.2412" x="79.3784" y="1518.4063"/><text fill="#000000" font-family="sans-serif" font-size="14" lengthAdjust="spacing" textLength="132.2412" x="86.3784" y="1538.4014">MedtronicsPipeline</text></g><g class="participant participant-head" data-participant="ExcelUtils"><rect fill="#E2E2F0" height="30.2969" rx="2.5" ry="2.5" style="stroke:#181818;stroke-width:0.5;" width="108.4727" x="306.5078" y="50"/><text fill="#000000" font-family="sans-serif" font-size="14" lengthAdjust="spacing" textLength="94.4727" x="313.5078" y="69.9951">Excel Utilities</text></g><g class="participant participant-tail" data-participant="ExcelUtils"><rect fill="#E2E2F0" height="30.2969" rx="2.5" ry="2.5" style="stroke:#181818;stroke-width:0.5;" width="108.4727" x="306.5078" y="1518.4063"/><text fill="#000000" font-family="sans-serif" font-size="14" lengthAdjust="spacing" textLength="94.4727" x="313.5078" y="1538.4014">Excel Utilities</text></g><g class="participant participant-head" data-participant="ValidationUtils"><rect fill="#E2E2F0" height="30.2969" rx="2.5" ry="2.5" style="stroke:#181818;stroke-width:0.5;" width="141.3604" x="424.9805" y="50"/><text fill="#000000" font-family="sans-serif" font-size="14" lengthAdjust="spacing" textLength="127.3604" x="431.9805" y="69.9951">Validation Utilities</text></g><g class="participant participant-tail" data-participant="ValidationUtils"><rect fill="#E2E2F0" height="30.2969" rx="2.5" ry="2.5" style="stroke:#181818;stroke-width:0.5;" width="141.3604" x="424.9805" y="1518.4063"/><text fill="#000000" font-family="sans-serif" font-size="14" lengthAdjust="spacing" textLength="127.3604" x="431.9805" y="1538.4014">Validation Utilities</text></g><g class="participant participant-head" data-participant="StagingManager"><rect fill="#E2E2F0" height="30.2969" rx="2.5" ry="2.5" style="stroke:#181818;stroke-width:0.5;" width="174.5557" x="576.3408" y="50"/><text fill="#000000" font-family="sans-serif" font-size="14" lengthAdjust="spacing" textLength="160.5557" x="583.3408" y="69.9951">SQLiteStagingManager</text></g><g class="participant participant-tail" data-participant="StagingManager"><rect fill="#E2E2F0" height="30.2969" rx="2.5" ry="2.5" style="stroke:#181818;stroke-width:0.5;" width="174.5557" x="576.3408" y="1518.4063"/><text fill="#000000" font-family="sans-serif" font-size="14" lengthAdjust="spacing" textLength="160.5557" x="583.3408" y="1538.4014">SQLiteStagingManager</text></g><g class="participant participant-head" data-participant="DBUtils"><rect fill="#E2E2F0" height="30.2969" rx="2.5" ry="2.5" style="stroke:#181818;stroke-width:0.5;" width="137.9424" x="760.8965" y="50"/><text fill="#000000" font-family="sans-serif" font-size="14" lengthAdjust="spacing" textLength="123.9424" x="767.8965" y="69.9951">Database Utilities</text></g><g class="participant participant-tail" data-participant="DBUtils"><rect fill="#E2E2F0" height="30.2969" rx="2.5" ry="2.5" style="stroke:#181818;stroke-width:0.5;" width="137.9424" x="760.8965" y="1518.4063"/><text fill="#000000" font-family="sans-serif" font-size="14" lengthAdjust="spacing" textLength="123.9424" x="767.8965" y="1538.4014">Database Utilities</text></g><g class="participant participant-head" data-participant="DB"><text fill="#000000" font-family="sans-serif" font-size="14" lengthAdjust="spacing" textLength="116.9492" x="940.2046" y="77.9951">SQLite Database</text><path d="M983.6792,29 C983.6792,19 1001.6792,19 1001.6792,19 C1001.6792,19 1019.6792,19 1019.6792,29 L1019.6792,55 C1019.6792,65 1001.6792,65 1001.6792,65 C1001.6792,65 983.6792,65 983.6792,55 L983.6792,29 " fill="#E2E2F0" style="stroke:#181818;stroke-width:1.5;"/><path d="M983.6792,29 C983.6792,39 1001.6792,39 1001.6792,39 C1001.6792,39 1019.6792,39 1019.6792,29 " fill="none" style="stroke:#181818;stroke-width:1.5;"/></g><g class="participant participant-tail" data-participant="DB"><text fill="#000000" font-family="sans-serif" font-size="14" lengthAdjust="spacing" textLength="116.9492" x="940.2046" y="1531.4014">SQLite Database</text><path d="M983.6792,1544.7031 C983.6792,1534.7031 1001.6792,1534.7031 1001.6792,1534.7031 C1001.6792,1534.7031 1019.6792,1534.7031 1019.6792,1544.7031 L1019.6792,1570.7031 C1019.6792,1580.7031 1001.6792,1580.7031 1001.6792,1580.7031 C1001.6792,1580.7031 983.6792,1580.7031 983.6792,1570.7031 L983.6792,1544.7031 " fill="#E2E2F0" style="stroke:#181818;stroke-width:1.5;"/><path d="M983.6792,1544.7031 C983.6792,1554.7031 1001.6792,1554.7031 1001.6792,1554.7031 C1001.6792,1554.7031 1019.6792,1554.7031 1019.6792,1544.7031 " fill="none" style="stroke:#181818;stroke-width:1.5;"/></g><g class="participant participant-head" data-participant="FS"><text fill="#000000" font-family="sans-serif" font-size="14" lengthAdjust="spacing" textLength="81.1016" x="1073.1538" y="77.9951">File System</text><ellipse cx="1116.7046" cy="49" fill="#E2E2F0" rx="12" ry="12" style="stroke:#181818;stroke-width:0.5;"/><line style="stroke:#181818;stroke-width:0.5;" x1="1104.7046" x2="1128.7046" y1="63" y2="63"/></g><g class="participant participant-tail" data-participant="FS"><text fill="#000000" font-family="sans-serif" font-size="14" lengthAdjust="spacing" textLength="81.1016" x="1073.1538" y="1531.4014">File System</text><ellipse cx="1116.7046" cy="1550.7031" fill="#E2E2F0" rx="12" ry="12" style="stroke:#181818;stroke-width:0.5;"/><line style="stroke:#181818;stroke-width:0.5;" x1="1104.7046" x2="1128.7046" y1="1564.7031" y2="1564.7031"/></g><g><title>MedtronicsPipeline</title><rect fill="#FFFFFF" height="1388.9766" style="stroke:#181818;stroke-width:1;" width="10" x="147.499" y="112.4297"/></g><g class="message" data-participant-1="User" data-participant-2="Pipeline"><polygon fill="#181818" points="135.499,108.4297,145.499,112.4297,135.499,116.4297,139.499,112.4297" style="stroke:#181818;stroke-width:1;"/><line style="stroke:#181818;stroke-width:1;" x1="23.9551" x2="141.499" y1="112.4297" y2="112.4297"/><text fill="#000000" font-family="sans-serif" font-size="13" lengthAdjust="spacing" textLength="31.9668" x="30.9551" y="107.3638">run()</text></g><g class="message" data-participant-1="Pipeline" data-participant-2="Pipeline"><line style="stroke:#181818;stroke-width:1;" x1="157.499" x2="199.499" y1="141.5625" y2="141.5625"/><line style="stroke:#181818;stroke-width:1;" x1="199.499" x2="199.499" y1="141.5625" y2="154.5625"/><line style="stroke:#181818;stroke-width:1;" x1="158.499" x2="199.499" y1="154.5625" y2="154.5625"/><polygon fill="#181818" points="168.499,150.5625,158.499,154.5625,168.499,158.5625,164.499,154.5625" style="stroke:#181818;stroke-width:1;"/><text fill="#000000" font-family="sans-serif" font-size="13" lengthAdjust="spacing" textLength="64.3271" x="164.499" y="136.4966">initialize()</text></g><path d="M250.3271,128.9297 L250.3271,153.9297 L483.3271,153.9297 L483.3271,138.9297 L473.3271,128.9297 L250.3271,128.9297 " fill="#FEFFDD" style="stroke:#181818;stroke-width:0.5;"/><path d="M473.3271,128.9297 L473.3271,138.9297 L483.3271,138.9297 L473.3271,128.9297 " fill="#FEFFDD" style="stroke:#181818;stroke-width:0.5;"/><text fill="#000000" font-family="sans-serif" font-size="13" lengthAdjust="spacing" textLength="212.4243" x="256.3271" y="145.9966">Load configuration from settings</text><g class="message" data-participant-1="Pipeline" data-participant-2="ExcelUtils"><polygon fill="#181818" points="348.7441,179.6953,358.7441,183.6953,348.7441,187.6953,352.7441,183.6953" style="stroke:#181818;stroke-width:1;"/><line style="stroke:#181818;stroke-width:1;" x1="157.499" x2="354.7441" y1="183.6953" y2="183.6953"/><text fill="#000000" font-family="sans-serif" font-size="13" lengthAdjust="spacing" textLength="167.1719" x="164.499" y="178.6294">analyze_excel_structure()</text></g><g class="message" data-participant-1="ExcelUtils" data-participant-2="Pipeline"><polygon fill="#181818" points="168.499,208.8281,158.499,212.8281,168.499,216.8281,164.499,212.8281" style="stroke:#181818;stroke-width:1;"/><line style="stroke:#181818;stroke-width:1;stroke-dasharray:2.0,2.0;" x1="162.499" x2="359.7441" y1="212.8281" y2="212.8281"/><text fill="#000000" font-family="sans-serif" font-size="13" lengthAdjust="spacing" textLength="116.0479" x="174.499" y="207.7622">structure analysis</text></g><g class="message" data-participant-1="Pipeline" data-participant-2="ExcelUtils"><polygon fill="#181818" points="348.7441,237.9609,358.7441,241.9609,348.7441,245.9609,352.7441,241.9609" style="stroke:#181818;stroke-width:1;"/><line style="stroke:#181818;stroke-width:1;" x1="157.499" x2="354.7441" y1="241.9609" y2="241.9609"/><text fill="#000000" font-family="sans-serif" font-size="13" lengthAdjust="spacing" textLength="177.7979" x="164.499" y="236.895">extract_excel_with_config()</text></g><g class="message" data-participant-1="ExcelUtils" data-participant-2="Pipeline"><polygon fill="#181818" points="168.499,267.0938,158.499,271.0938,168.499,275.0938,164.499,271.0938" style="stroke:#181818;stroke-width:1;"/><line style="stroke:#181818;stroke-width:1;stroke-dasharray:2.0,2.0;" x1="162.499" x2="359.7441" y1="271.0938" y2="271.0938"/><text fill="#000000" font-family="sans-serif" font-size="13" lengthAdjust="spacing" textLength="96.0083" x="174.499" y="266.0278">extracted data</text></g><g class="message" data-participant-1="Pipeline" data-participant-2="Pipeline"><line style="stroke:#181818;stroke-width:1;" x1="157.499" x2="199.499" y1="300.2266" y2="300.2266"/><line style="stroke:#181818;stroke-width:1;" x1="199.499" x2="199.499" y1="300.2266" y2="313.2266"/><line style="stroke:#181818;stroke-width:1;" x1="158.499" x2="199.499" y1="313.2266" y2="313.2266"/><polygon fill="#181818" points="168.499,309.2266,158.499,313.2266,168.499,317.2266,164.499,313.2266" style="stroke:#181818;stroke-width:1;"/><text fill="#000000" font-family="sans-serif" font-size="13" lengthAdjust="spacing" textLength="56.4878" x="164.499" y="295.1606">extract()</text></g><path d="M242.4878,287.5938 L242.4878,312.5938 L579.4878,312.5938 L579.4878,297.5938 L569.4878,287.5938 L242.4878,287.5938 " fill="#FEFFDD" style="stroke:#181818;stroke-width:0.5;"/><path d="M569.4878,287.5938 L569.4878,297.5938 L579.4878,297.5938 L569.4878,287.5938 " fill="#FEFFDD" style="stroke:#181818;stroke-width:0.5;"/><text fill="#000000" font-family="sans-serif" font-size="13" lengthAdjust="spacing" textLength="316.6021" x="248.4878" y="304.6606">Filter columns, normalize names, drop NaN rows</text><g class="message" data-participant-1="Pipeline" data-participant-2="ExcelUtils"><polygon fill="#181818" points="348.7441,338.3594,358.7441,342.3594,348.7441,346.3594,352.7441,342.3594" style="stroke:#181818;stroke-width:1;"/><line style="stroke:#181818;stroke-width:1;" x1="157.499" x2="354.7441" y1="342.3594" y2="342.3594"/><text fill="#000000" font-family="sans-serif" font-size="13" lengthAdjust="spacing" textLength="160.3037" x="164.499" y="337.2935">analyze_unique_values()</text></g><g class="message" data-participant-1="ExcelUtils" data-participant-2="Pipeline"><polygon fill="#181818" points="168.499,367.4922,158.499,371.4922,168.499,375.4922,164.499,371.4922" style="stroke:#181818;stroke-width:1;"/><line style="stroke:#181818;stroke-width:1;stroke-dasharray:2.0,2.0;" x1="162.499" x2="359.7441" y1="371.4922" y2="371.4922"/><text fill="#000000" font-family="sans-serif" font-size="13" lengthAdjust="spacing" textLength="147.7607" x="174.499" y="366.4263">unique values analysis</text></g><g class="message" data-participant-1="Pipeline" data-participant-2="ExcelUtils"><polygon fill="#181818" points="348.7441,396.625,358.7441,400.625,348.7441,404.625,352.7441,400.625" style="stroke:#181818;stroke-width:1;"/><line style="stroke:#181818;stroke-width:1;" x1="157.499" x2="354.7441" y1="400.625" y2="400.625"/><text fill="#000000" font-family="sans-serif" font-size="13" lengthAdjust="spacing" textLength="179.2451" x="164.499" y="395.5591">analyze_column_statistics()</text></g><g class="message" data-participant-1="ExcelUtils" data-participant-2="Pipeline"><polygon fill="#181818" points="168.499,425.7578,158.499,429.7578,168.499,433.7578,164.499,429.7578" style="stroke:#181818;stroke-width:1;"/><line style="stroke:#181818;stroke-width:1;stroke-dasharray:2.0,2.0;" x1="162.499" x2="359.7441" y1="429.7578" y2="429.7578"/><text fill="#000000" font-family="sans-serif" font-size="13" lengthAdjust="spacing" textLength="109.9351" x="174.499" y="424.6919">column statistics</text></g><g class="message" data-participant-1="Pipeline" data-participant-2="ExcelUtils"><polygon fill="#181818" points="348.7441,454.8906,358.7441,458.8906,348.7441,462.8906,352.7441,458.8906" style="stroke:#181818;stroke-width:1;"/><line style="stroke:#181818;stroke-width:1;" x1="157.499" x2="354.7441" y1="458.8906" y2="458.8906"/><text fill="#000000" font-family="sans-serif" font-size="13" lengthAdjust="spacing" textLength="153.9561" x="164.499" y="453.8247">analyze_text_columns()</text></g><g class="message" data-participant-1="ExcelUtils" data-participant-2="Pipeline"><polygon fill="#181818" points="168.499,484.0234,158.499,488.0234,168.499,492.0234,164.499,488.0234" style="stroke:#181818;stroke-width:1;"/><line style="stroke:#181818;stroke-width:1;stroke-dasharray:2.0,2.0;" x1="162.499" x2="359.7441" y1="488.0234" y2="488.0234"/><text fill="#000000" font-family="sans-serif" font-size="13" lengthAdjust="spacing" textLength="82.6528" x="174.499" y="482.9575">text analysis</text></g><g class="message" data-participant-1="Pipeline" data-participant-2="Pipeline"><line style="stroke:#181818;stroke-width:1;" x1="157.499" x2="199.499" y1="517.1563" y2="517.1563"/><line style="stroke:#181818;stroke-width:1;" x1="199.499" x2="199.499" y1="517.1563" y2="530.1563"/><line style="stroke:#181818;stroke-width:1;" x1="158.499" x2="199.499" y1="530.1563" y2="530.1563"/><polygon fill="#181818" points="168.499,526.1563,158.499,530.1563,168.499,534.1563,164.499,530.1563" style="stroke:#181818;stroke-width:1;"/><text fill="#000000" font-family="sans-serif" font-size="13" lengthAdjust="spacing" textLength="60.4424" x="164.499" y="512.0903">analyze()</text></g><path d="M246.4424,504.5234 L246.4424,529.5234 L429.4424,529.5234 L429.4424,514.5234 L419.4424,504.5234 L246.4424,504.5234 " fill="#FEFFDD" style="stroke:#181818;stroke-width:0.5;"/><path d="M419.4424,504.5234 L419.4424,514.5234 L429.4424,514.5234 L419.4424,504.5234 " fill="#FEFFDD" style="stroke:#181818;stroke-width:0.5;"/><text fill="#000000" font-family="sans-serif" font-size="13" lengthAdjust="spacing" textLength="162.5317" x="252.4424" y="521.5903">Combine analysis results</text><g class="message" data-participant-1="Pipeline" data-participant-2="ValidationUtils"><polygon fill="#181818" points="483.6606,555.2891,493.6606,559.2891,483.6606,563.2891,487.6606,559.2891" style="stroke:#181818;stroke-width:1;"/><line style="stroke:#181818;stroke-width:1;" x1="157.499" x2="489.6606" y1="559.2891" y2="559.2891"/><text fill="#000000" font-family="sans-serif" font-size="13" lengthAdjust="spacing" textLength="136.6714" x="164.499" y="554.2231">validate_dataframe()</text></g><g class="message" data-participant-1="ValidationUtils" data-participant-2="Pipeline"><polygon fill="#181818" points="168.499,584.4219,158.499,588.4219,168.499,592.4219,164.499,588.4219" style="stroke:#181818;stroke-width:1;"/><line style="stroke:#181818;stroke-width:1;stroke-dasharray:2.0,2.0;" x1="162.499" x2="494.6606" y1="588.4219" y2="588.4219"/><text fill="#000000" font-family="sans-serif" font-size="13" lengthAdjust="spacing" textLength="111.9727" x="174.499" y="583.356">validation results</text></g><g class="message" data-participant-1="Pipeline" data-participant-2="Pipeline"><line style="stroke:#181818;stroke-width:1;" x1="157.499" x2="199.499" y1="617.5547" y2="617.5547"/><line style="stroke:#181818;stroke-width:1;" x1="199.499" x2="199.499" y1="617.5547" y2="630.5547"/><line style="stroke:#181818;stroke-width:1;" x1="158.499" x2="199.499" y1="630.5547" y2="630.5547"/><polygon fill="#181818" points="168.499,626.5547,158.499,630.5547,168.499,634.5547,164.499,630.5547" style="stroke:#181818;stroke-width:1;"/><text fill="#000000" font-family="sans-serif" font-size="13" lengthAdjust="spacing" textLength="62.3403" x="164.499" y="612.4888">validate()</text></g><path d="M248.3403,604.9219 L248.3403,629.9219 L434.3403,629.9219 L434.3403,614.9219 L424.3403,604.9219 L248.3403,604.9219 " fill="#FEFFDD" style="stroke:#181818;stroke-width:0.5;"/><path d="M424.3403,604.9219 L424.3403,614.9219 L434.3403,614.9219 L424.3403,604.9219 " fill="#FEFFDD" style="stroke:#181818;stroke-width:0.5;"/><text fill="#000000" font-family="sans-serif" font-size="13" lengthAdjust="spacing" textLength="165.9341" x="254.3403" y="621.9888">Process validation results</text><g class="message" data-participant-1="Pipeline" data-participant-2="StagingManager"><polygon fill="#181818" points="651.6187,655.6875,661.6187,659.6875,651.6187,663.6875,655.6187,659.6875" style="stroke:#181818;stroke-width:1;"/><line style="stroke:#181818;stroke-width:1;" x1="157.499" x2="657.6187" y1="659.6875" y2="659.6875"/><text fill="#000000" font-family="sans-serif" font-size="13" lengthAdjust="spacing" textLength="87.3311" x="164.499" y="654.6216">initialize_db()</text></g><g class="message" data-participant-1="StagingManager" data-participant-2="DB"><polygon fill="#181818" points="989.6792,684.8203,999.6792,688.8203,989.6792,692.8203,993.6792,688.8203" style="stroke:#181818;stroke-width:1;"/><line style="stroke:#181818;stroke-width:1;" x1="663.6187" x2="995.6792" y1="688.8203" y2="688.8203"/><text fill="#000000" font-family="sans-serif" font-size="13" lengthAdjust="spacing" textLength="85.3823" x="670.6187" y="683.7544">create tables</text></g><g class="message" data-participant-1="DB" data-participant-2="StagingManager"><polygon fill="#181818" points="674.6187,713.9531,664.6187,717.9531,674.6187,721.9531,670.6187,717.9531" style="stroke:#181818;stroke-width:1;"/><line style="stroke:#181818;stroke-width:1;stroke-dasharray:2.0,2.0;" x1="668.6187" x2="1000.6792" y1="717.9531" y2="717.9531"/><text fill="#000000" font-family="sans-serif" font-size="13" lengthAdjust="spacing" textLength="93.6343" x="680.6187" y="712.8872">tables created</text></g><g class="message" data-participant-1="StagingManager" data-participant-2="Pipeline"><polygon fill="#181818" points="168.499,743.0859,158.499,747.0859,168.499,751.0859,164.499,747.0859" style="stroke:#181818;stroke-width:1;"/><line style="stroke:#181818;stroke-width:1;stroke-dasharray:2.0,2.0;" x1="162.499" x2="662.6187" y1="747.0859" y2="747.0859"/><text fill="#000000" font-family="sans-serif" font-size="13" lengthAdjust="spacing" textLength="126.8389" x="174.499" y="742.02">database initialized</text></g><g class="message" data-participant-1="Pipeline" data-participant-2="StagingManager"><polygon fill="#181818" points="651.6187,772.2188,661.6187,776.2188,651.6187,780.2188,655.6187,776.2188" style="stroke:#181818;stroke-width:1;"/><line style="stroke:#181818;stroke-width:1;" x1="157.499" x2="657.6187" y1="776.2188" y2="776.2188"/><text fill="#000000" font-family="sans-serif" font-size="13" lengthAdjust="spacing" textLength="189.1475" x="164.499" y="771.1528">save_dataframe_to_staging()</text></g><g class="message" data-participant-1="StagingManager" data-participant-2="DB"><polygon fill="#181818" points="989.6792,801.3516,999.6792,805.3516,989.6792,809.3516,993.6792,805.3516" style="stroke:#181818;stroke-width:1;"/><line style="stroke:#181818;stroke-width:1;" x1="663.6187" x2="995.6792" y1="805.3516" y2="805.3516"/><text fill="#000000" font-family="sans-serif" font-size="13" lengthAdjust="spacing" textLength="70.478" x="670.6187" y="800.2856">insert data</text></g><g class="message" data-participant-1="DB" data-participant-2="StagingManager"><polygon fill="#181818" points="674.6187,830.4844,664.6187,834.4844,674.6187,838.4844,670.6187,834.4844" style="stroke:#181818;stroke-width:1;"/><line style="stroke:#181818;stroke-width:1;stroke-dasharray:2.0,2.0;" x1="668.6187" x2="1000.6792" y1="834.4844" y2="834.4844"/><text fill="#000000" font-family="sans-serif" font-size="13" lengthAdjust="spacing" textLength="86.728" x="680.6187" y="829.4185">data inserted</text></g><g class="message" data-participant-1="StagingManager" data-participant-2="Pipeline"><polygon fill="#181818" points="168.499,859.6172,158.499,863.6172,168.499,867.6172,164.499,863.6172" style="stroke:#181818;stroke-width:1;"/><line style="stroke:#181818;stroke-width:1;stroke-dasharray:2.0,2.0;" x1="162.499" x2="662.6187" y1="863.6172" y2="863.6172"/><text fill="#000000" font-family="sans-serif" font-size="13" lengthAdjust="spacing" textLength="113.0454" x="174.499" y="858.5513">staging complete</text></g><g class="message" data-participant-1="Pipeline" data-participant-2="StagingManager"><polygon fill="#181818" points="651.6187,888.75,661.6187,892.75,651.6187,896.75,655.6187,892.75" style="stroke:#181818;stroke-width:1;"/><line style="stroke:#181818;stroke-width:1;" x1="157.499" x2="657.6187" y1="892.75" y2="892.75"/><text fill="#000000" font-family="sans-serif" font-size="13" lengthAdjust="spacing" textLength="133.4785" x="164.499" y="887.6841">get_pending_items()</text></g><g class="message" data-participant-1="StagingManager" data-participant-2="DB"><polygon fill="#181818" points="989.6792,917.8828,999.6792,921.8828,989.6792,925.8828,993.6792,921.8828" style="stroke:#181818;stroke-width:1;"/><line style="stroke:#181818;stroke-width:1;" x1="663.6187" x2="995.6792" y1="921.8828" y2="921.8828"/><text fill="#000000" font-family="sans-serif" font-size="13" lengthAdjust="spacing" textLength="134.7798" x="670.6187" y="916.8169">query pending items</text></g><g class="message" data-participant-1="DB" data-participant-2="StagingManager"><polygon fill="#181818" points="674.6187,947.0156,664.6187,951.0156,674.6187,955.0156,670.6187,951.0156" style="stroke:#181818;stroke-width:1;"/><line style="stroke:#181818;stroke-width:1;stroke-dasharray:2.0,2.0;" x1="668.6187" x2="1000.6792" y1="951.0156" y2="951.0156"/><text fill="#000000" font-family="sans-serif" font-size="13" lengthAdjust="spacing" textLength="93.1201" x="680.6187" y="945.9497">pending items</text></g><g class="message" data-participant-1="StagingManager" data-participant-2="Pipeline"><polygon fill="#181818" points="168.499,976.1484,158.499,980.1484,168.499,984.1484,164.499,980.1484" style="stroke:#181818;stroke-width:1;"/><line style="stroke:#181818;stroke-width:1;stroke-dasharray:2.0,2.0;" x1="162.499" x2="662.6187" y1="980.1484" y2="980.1484"/><text fill="#000000" font-family="sans-serif" font-size="13" lengthAdjust="spacing" textLength="133.9292" x="174.499" y="975.0825">pending items count</text></g><g class="message" data-participant-1="Pipeline" data-participant-2="Pipeline"><line style="stroke:#181818;stroke-width:1;" x1="157.499" x2="199.499" y1="1009.2813" y2="1009.2813"/><line style="stroke:#181818;stroke-width:1;" x1="199.499" x2="199.499" y1="1009.2813" y2="1022.2813"/><line style="stroke:#181818;stroke-width:1;" x1="158.499" x2="199.499" y1="1022.2813" y2="1022.2813"/><polygon fill="#181818" points="168.499,1018.2813,158.499,1022.2813,168.499,1026.2813,164.499,1022.2813" style="stroke:#181818;stroke-width:1;"/><text fill="#000000" font-family="sans-serif" font-size="13" lengthAdjust="spacing" textLength="82.0117" x="164.499" y="1004.2153">stage_data()</text></g><path d="M268.0117,996.6484 L268.0117,1021.6484 L439.0117,1021.6484 L439.0117,1006.6484 L429.0117,996.6484 L268.0117,996.6484 " fill="#FEFFDD" style="stroke:#181818;stroke-width:0.5;"/><path d="M429.0117,996.6484 L429.0117,1006.6484 L439.0117,1006.6484 L429.0117,996.6484 " fill="#FEFFDD" style="stroke:#181818;stroke-width:0.5;"/><text fill="#000000" font-family="sans-serif" font-size="13" lengthAdjust="spacing" textLength="150.1221" x="274.0117" y="1013.7153">Process staging results</text><g class="message" data-participant-1="Pipeline" data-participant-2="DBUtils"><polygon fill="#181818" points="817.8677,1047.4141,827.8677,1051.4141,817.8677,1055.4141,821.8677,1051.4141" style="stroke:#181818;stroke-width:1;"/><line style="stroke:#181818;stroke-width:1;" x1="157.499" x2="823.8677" y1="1051.4141" y2="1051.4141"/><text fill="#000000" font-family="sans-serif" font-size="13" lengthAdjust="spacing" textLength="201.2271" x="164.499" y="1046.3481">save_dataframe_to_database()</text></g><g class="message" data-participant-1="DBUtils" data-participant-2="DB"><polygon fill="#181818" points="989.6792,1076.5469,999.6792,1080.5469,989.6792,1084.5469,993.6792,1080.5469" style="stroke:#181818;stroke-width:1;"/><line style="stroke:#181818;stroke-width:1;" x1="829.8677" x2="995.6792" y1="1080.5469" y2="1080.5469"/><text fill="#000000" font-family="sans-serif" font-size="13" lengthAdjust="spacing" textLength="131.3076" x="836.8677" y="1075.481">create/replace table</text></g><g class="message" data-participant-1="DB" data-participant-2="DBUtils"><polygon fill="#181818" points="840.8677,1105.6797,830.8677,1109.6797,840.8677,1113.6797,836.8677,1109.6797" style="stroke:#181818;stroke-width:1;"/><line style="stroke:#181818;stroke-width:1;stroke-dasharray:2.0,2.0;" x1="834.8677" x2="1000.6792" y1="1109.6797" y2="1109.6797"/><text fill="#000000" font-family="sans-serif" font-size="13" lengthAdjust="spacing" textLength="147.8115" x="846.8677" y="1104.6138">table created/replaced</text></g><g class="message" data-participant-1="DBUtils" data-participant-2="Pipeline"><polygon fill="#181818" points="168.499,1134.8125,158.499,1138.8125,168.499,1142.8125,164.499,1138.8125" style="stroke:#181818;stroke-width:1;"/><line style="stroke:#181818;stroke-width:1;stroke-dasharray:2.0,2.0;" x1="162.499" x2="828.8677" y1="1138.8125" y2="1138.8125"/><text fill="#000000" font-family="sans-serif" font-size="13" lengthAdjust="spacing" textLength="107.1929" x="174.499" y="1133.7466">export complete</text></g><g class="message" data-participant-1="Pipeline" data-participant-2="DBUtils"><polygon fill="#181818" points="817.8677,1163.9453,827.8677,1167.9453,817.8677,1171.9453,821.8677,1167.9453" style="stroke:#181818;stroke-width:1;"/><line style="stroke:#181818;stroke-width:1;" x1="157.499" x2="823.8677" y1="1167.9453" y2="1167.9453"/><text fill="#000000" font-family="sans-serif" font-size="13" lengthAdjust="spacing" textLength="128.2036" x="164.499" y="1162.8794">get_table_schema()</text></g><g class="message" data-participant-1="DBUtils" data-participant-2="DB"><polygon fill="#181818" points="989.6792,1193.0781,999.6792,1197.0781,989.6792,1201.0781,993.6792,1197.0781" style="stroke:#181818;stroke-width:1;"/><line style="stroke:#181818;stroke-width:1;" x1="829.8677" x2="995.6792" y1="1197.0781" y2="1197.0781"/><text fill="#000000" font-family="sans-serif" font-size="13" lengthAdjust="spacing" textLength="92.4473" x="836.8677" y="1192.0122">query schema</text></g><g class="message" data-participant-1="DB" data-participant-2="DBUtils"><polygon fill="#181818" points="840.8677,1222.2109,830.8677,1226.2109,840.8677,1230.2109,836.8677,1226.2109" style="stroke:#181818;stroke-width:1;"/><line style="stroke:#181818;stroke-width:1;stroke-dasharray:2.0,2.0;" x1="834.8677" x2="1000.6792" y1="1226.2109" y2="1226.2109"/><text fill="#000000" font-family="sans-serif" font-size="13" lengthAdjust="spacing" textLength="50.7876" x="846.8677" y="1221.145">schema</text></g><g class="message" data-participant-1="DBUtils" data-participant-2="Pipeline"><polygon fill="#181818" points="168.499,1251.3438,158.499,1255.3438,168.499,1259.3438,164.499,1255.3438" style="stroke:#181818;stroke-width:1;"/><line style="stroke:#181818;stroke-width:1;stroke-dasharray:2.0,2.0;" x1="162.499" x2="828.8677" y1="1255.3438" y2="1255.3438"/><text fill="#000000" font-family="sans-serif" font-size="13" lengthAdjust="spacing" textLength="87.8452" x="174.499" y="1250.2778">table schema</text></g><g class="message" data-participant-1="Pipeline" data-participant-2="FS"><polygon fill="#181818" points="1104.7046,1280.4766,1114.7046,1284.4766,1104.7046,1288.4766,1108.7046,1284.4766" style="stroke:#181818;stroke-width:1;"/><line style="stroke:#181818;stroke-width:1;" x1="157.499" x2="1110.7046" y1="1284.4766" y2="1284.4766"/><text fill="#000000" font-family="sans-serif" font-size="13" lengthAdjust="spacing" textLength="111.5347" x="164.499" y="1279.4106">write schema file</text></g><g class="message" data-participant-1="FS" data-participant-2="Pipeline"><polygon fill="#181818" points="168.499,1309.6094,158.499,1313.6094,168.499,1317.6094,164.499,1313.6094" style="stroke:#181818;stroke-width:1;"/><line style="stroke:#181818;stroke-width:1;stroke-dasharray:2.0,2.0;" x1="162.499" x2="1115.7046" y1="1313.6094" y2="1313.6094"/><text fill="#000000" font-family="sans-serif" font-size="13" lengthAdjust="spacing" textLength="124.8711" x="174.499" y="1308.5435">schema file written</text></g><g class="message" data-participant-1="Pipeline" data-participant-2="FS"><polygon fill="#181818" points="1104.7046,1338.7422,1114.7046,1342.7422,1104.7046,1346.7422,1108.7046,1342.7422" style="stroke:#181818;stroke-width:1;"/><line style="stroke:#181818;stroke-width:1;" x1="157.499" x2="1110.7046" y1="1342.7422" y2="1342.7422"/><text fill="#000000" font-family="sans-serif" font-size="13" lengthAdjust="spacing" textLength="133.5737" x="164.499" y="1337.6763">write analysis report</text></g><g class="message" data-participant-1="FS" data-participant-2="Pipeline"><polygon fill="#181818" points="168.499,1367.875,158.499,1371.875,168.499,1375.875,164.499,1371.875" style="stroke:#181818;stroke-width:1;"/><line style="stroke:#181818;stroke-width:1;stroke-dasharray:2.0,2.0;" x1="162.499" x2="1115.7046" y1="1371.875" y2="1371.875"/><text fill="#000000" font-family="sans-serif" font-size="13" lengthAdjust="spacing" textLength="146.9102" x="174.499" y="1366.8091">analysis report written</text></g><g class="message" data-participant-1="Pipeline" data-participant-2="FS"><polygon fill="#181818" points="1104.7046,1397.0078,1114.7046,1401.0078,1104.7046,1405.0078,1108.7046,1401.0078" style="stroke:#181818;stroke-width:1;"/><line style="stroke:#181818;stroke-width:1;" x1="157.499" x2="1110.7046" y1="1401.0078" y2="1401.0078"/><text fill="#000000" font-family="sans-serif" font-size="13" lengthAdjust="spacing" textLength="144.9424" x="164.499" y="1395.9419">write validation report</text></g><g class="message" data-participant-1="FS" data-participant-2="Pipeline"><polygon fill="#181818" points="168.499,1426.1406,158.499,1430.1406,168.499,1434.1406,164.499,1430.1406" style="stroke:#181818;stroke-width:1;"/><line style="stroke:#181818;stroke-width:1;stroke-dasharray:2.0,2.0;" x1="162.499" x2="1115.7046" y1="1430.1406" y2="1430.1406"/><text fill="#000000" font-family="sans-serif" font-size="13" lengthAdjust="spacing" textLength="158.2788" x="174.499" y="1425.0747">validation report written</text></g><g class="message" data-participant-1="Pipeline" data-participant-2="Pipeline"><line style="stroke:#181818;stroke-width:1;" x1="157.499" x2="199.499" y1="1459.2734" y2="1459.2734"/><line style="stroke:#181818;stroke-width:1;" x1="199.499" x2="199.499" y1="1459.2734" y2="1472.2734"/><line style="stroke:#181818;stroke-width:1;" x1="158.499" x2="199.499" y1="1472.2734" y2="1472.2734"/><polygon fill="#181818" points="168.499,1468.2734,158.499,1472.2734,168.499,1476.2734,164.499,1472.2734" style="stroke:#181818;stroke-width:1;"/><text fill="#000000" font-family="sans-serif" font-size="13" lengthAdjust="spacing" textLength="93.8374" x="164.499" y="1454.2075">save_reports()</text></g><path d="M279.8374,1446.6406 L279.8374,1471.6406 L434.8374,1471.6406 L434.8374,1456.6406 L424.8374,1446.6406 L279.8374,1446.6406 " fill="#FEFFDD" style="stroke:#181818;stroke-width:0.5;"/><path d="M424.8374,1446.6406 L424.8374,1456.6406 L434.8374,1456.6406 L424.8374,1446.6406 " fill="#FEFFDD" style="stroke:#181818;stroke-width:0.5;"/><text fill="#000000" font-family="sans-serif" font-size="13" lengthAdjust="spacing" textLength="134.4116" x="285.8374" y="1463.7075">Process report paths</text><g class="message" data-participant-1="Pipeline" data-participant-2="User"><polygon fill="#181818" points="34.9551,1497.4063,24.9551,1501.4063,34.9551,1505.4063,30.9551,1501.4063" style="stroke:#181818;stroke-width:1;"/><line style="stroke:#181818;stroke-width:1;stroke-dasharray:2.0,2.0;" x1="28.9551" x2="151.499" y1="1501.4063" y2="1501.4063"/><text fill="#000000" font-family="sans-serif" font-size="13" lengthAdjust="spacing" textLength="99.5439" x="40.9551" y="1496.3403">pipeline results</text></g><!--SRC=[ZLR1Rjim3BtxAuXUkW4hUizXXoxBgIqw1DtLK6qc4M1BdaIdJRz-b2NPaMCxlRNKu-FJ8qNd5jQuamgX4OPa8HkXo6QY86tWrQB9pk9myuGb6QraOLzaWnNdtO2m4Fz9mRy_2gpWbMGbIQBja5tCXMoA_IigMGgIMeqIXeE9hEsVHqcu9R6NQlyabDYZwRBIK9gq5YJUXCLHeVM3Br36uy0E4HzG6IgIT8ARZQmGjYTBM7T7cssMtKOtBVvhKHMOEG_XxcTlqGfCgxvzTmxBes3wthii_fN2fMADRC8dSfRId67a_a0hUDIYX4AhdTotnbktCxhcqaHyTviI3iQlW5sfJf-OeulbbanRK6iS_u22kqH53_B9LYxGumSPlbwWVvTqoBtCfG8X2Kjm3PWp8w16Jd0dY5qkTDNMolu0fKtTEGPArCY1qkW6diKp6Ft-1LzQ9Rbx-L5KBTebqHu87lW5Ps81hvITvxPPdip58XuC0_WwFx5FeSWYjSFDo1v0WNJa-IzTlpbep0Q3jgren39wlIjdbGjWxhgyCzmUvXsXHYAFmsgOh76174jzCRf0QwyIfKlZ_ENbvHjpfkSkO_t0xJ7edZ7lY0fjjdxer8-f_6d0bXTCoItw1JJKBvU5Md4yCpGdxIRB8MP5IyLhYVnJcv7ipWBkck9GZIUrRYeaN5QxHyeRL2N7SjwljPrLoM_Bd21WeSFEgKr1YseJA6jk5SqDbBkOTtPcfEBD9-SfV56c-XDxpBG1bOxJlS6c4aKOgtZfdh2BnccAs7AW6ktCHdElfvlJKxgkTBIvBGvOYqjblXl-z49H7vvSCvtS04dARxOhU3VkA-jFOSSVrMop7G_OSDZ12TKSpza-SjU-v1e1hl4bIsEQyG8opNbs7JSF7cfd1YiGDO8EoLGnZ_j5mLCSGt7qIhpuIV4V]--></g></svg>