<svg xmlns="http://www.w3.org/2000/svg" xmlns:xlink="http://www.w3.org/1999/xlink" contentStyleType="text/css" data-diagram-type="ACTIVITY" height="573px" preserveAspectRatio="none" style="width:625px;height:573px;background:#FFFFFF;" version="1.1" viewBox="0 0 625 573" width="625px" zoomAndPan="magnify"><defs/><g><ellipse cx="132.7441" cy="20" fill="#222222" rx="10" ry="10" style="stroke:#222222;stroke-width:1;"/><rect fill="#F1F1F1" height="33.9688" rx="12.5" ry="12.5" style="stroke:#181818;stroke-width:0.5;" width="121.2617" x="72.1133" y="50"/><text fill="#000000" font-family="sans-serif" font-size="12" lengthAdjust="spacing" textLength="101.2617" x="82.1133" y="71.1387">Initialize Pipeline</text><path d="M246.7588,93.9688 L246.7588,125.2344 L226.7588,129.2344 L246.7588,133.2344 L246.7588,164.5 A0,0 0 0 0 246.7588,164.5 L613.2681,164.5 A0,0 0 0 0 613.2681,164.5 L613.2681,103.9688 L603.2681,93.9688 L246.7588,93.9688 A0,0 0 0 0 246.7588,93.9688 " fill="#FEFFDD" style="stroke:#181818;stroke-width:0.5;"/><path d="M603.2681,93.9688 L603.2681,103.9688 L613.2681,103.9688 L603.2681,93.9688 " fill="#FEFFDD" style="stroke:#181818;stroke-width:0.5;"/><text fill="#000000" font-family="sans-serif" font-size="13" lengthAdjust="spacing" textLength="345.5093" x="252.7588" y="111.0356">- Read from Medtronics Asset Log Uploader Excel file</text><text fill="#000000" font-family="sans-serif" font-size="13" lengthAdjust="spacing" textLength="175.3984" x="252.7588" y="126.1685">- Filter columns if specified</text><text fill="#000000" font-family="sans-serif" font-size="13" lengthAdjust="spacing" textLength="174.2813" x="252.7588" y="141.3013">- Normalize column names</text><text fill="#000000" font-family="sans-serif" font-size="13" lengthAdjust="spacing" textLength="321.9912" x="252.7588" y="156.4341">- Drop rows with NaN values in specified columns</text><rect fill="#F1F1F1" height="33.9688" rx="12.5" ry="12.5" style="stroke:#181818;stroke-width:0.5;" width="188.0293" x="38.7295" y="112.25"/><text fill="#000000" font-family="sans-serif" font-size="12" lengthAdjust="spacing" textLength="168.0293" x="48.7295" y="133.3887">Extract Data from Excel File</text><path d="M202.6201,174.5 L202.6201,198.1992 L182.6201,202.1992 L202.6201,206.1992 L202.6201,229.8984 A0,0 0 0 0 202.6201,229.8984 L535.8804,229.8984 A0,0 0 0 0 535.8804,229.8984 L535.8804,184.5 L525.8804,174.5 L202.6201,174.5 A0,0 0 0 0 202.6201,174.5 " fill="#FEFFDD" style="stroke:#181818;stroke-width:0.5;"/><path d="M525.8804,174.5 L525.8804,184.5 L535.8804,184.5 L525.8804,174.5 " fill="#FEFFDD" style="stroke:#181818;stroke-width:0.5;"/><text fill="#000000" font-family="sans-serif" font-size="13" lengthAdjust="spacing" textLength="155.1748" x="208.6201" y="191.5669">- Analyze unique values</text><text fill="#000000" font-family="sans-serif" font-size="13" lengthAdjust="spacing" textLength="312.2603" x="208.6201" y="206.6997">- Analyze column statistics for numeric columns</text><text fill="#000000" font-family="sans-serif" font-size="13" lengthAdjust="spacing" textLength="148.8271" x="208.6201" y="221.8325">- Analyze text columns</text><rect fill="#F1F1F1" height="33.9688" rx="12.5" ry="12.5" style="stroke:#181818;stroke-width:0.5;" width="99.752" x="82.8682" y="185.2148"/><text fill="#000000" font-family="sans-serif" font-size="12" lengthAdjust="spacing" textLength="79.752" x="92.8682" y="206.3535">Analyze Data</text><path d="M203.6221,239.8984 L203.6221,278.7305 L183.6221,282.7305 L203.6221,286.7305 L203.6221,325.5625 A0,0 0 0 0 203.6221,325.5625 L395.9136,325.5625 A0,0 0 0 0 395.9136,325.5625 L395.9136,249.8984 L385.9136,239.8984 L203.6221,239.8984 A0,0 0 0 0 203.6221,239.8984 " fill="#FEFFDD" style="stroke:#181818;stroke-width:0.5;"/><path d="M385.9136,239.8984 L385.9136,249.8984 L395.9136,249.8984 L385.9136,239.8984 " fill="#FEFFDD" style="stroke:#181818;stroke-width:0.5;"/><text fill="#000000" font-family="sans-serif" font-size="13" lengthAdjust="spacing" textLength="171.2915" x="209.6221" y="256.9653">- Check for missing values</text><text fill="#000000" font-family="sans-serif" font-size="13" lengthAdjust="spacing" textLength="169.9648" x="209.6221" y="272.0981">- Check for duplicate rows</text><text fill="#000000" font-family="sans-serif" font-size="13" lengthAdjust="spacing" textLength="135.5796" x="209.6221" y="287.231">- Validate data types</text><text fill="#000000" font-family="sans-serif" font-size="13" lengthAdjust="spacing" textLength="137.1602" x="209.6221" y="302.3638">- Check value ranges</text><text fill="#000000" font-family="sans-serif" font-size="13" lengthAdjust="spacing" textLength="164.874" x="209.6221" y="317.4966">- Verify required columns</text><rect fill="#F1F1F1" height="33.9688" rx="12.5" ry="12.5" style="stroke:#181818;stroke-width:0.5;" width="101.7559" x="81.8662" y="265.7461"/><text fill="#000000" font-family="sans-serif" font-size="12" lengthAdjust="spacing" textLength="81.7559" x="91.8662" y="286.8848">Validate Data</text><path d="M255.7207,335.5625 L255.7207,366.8281 L235.7207,370.8281 L255.7207,374.8281 L255.7207,406.0938 A0,0 0 0 0 255.7207,406.0938 L558.2393,406.0938 A0,0 0 0 0 558.2393,406.0938 L558.2393,345.5625 L548.2393,335.5625 L255.7207,335.5625 A0,0 0 0 0 255.7207,335.5625 " fill="#FEFFDD" style="stroke:#181818;stroke-width:0.5;"/><path d="M548.2393,335.5625 L548.2393,345.5625 L558.2393,345.5625 L548.2393,335.5625 " fill="#FEFFDD" style="stroke:#181818;stroke-width:0.5;"/><text fill="#000000" font-family="sans-serif" font-size="13" lengthAdjust="spacing" textLength="281.5186" x="261.7207" y="352.6294">- Create staging database if it doesn't exist</text><text fill="#000000" font-family="sans-serif" font-size="13" lengthAdjust="spacing" textLength="128.3496" x="261.7207" y="367.7622">- Generate batch ID</text><text fill="#000000" font-family="sans-serif" font-size="13" lengthAdjust="spacing" textLength="160.1196" x="261.7207" y="382.895">- Add metadata columns</text><text fill="#000000" font-family="sans-serif" font-size="13" lengthAdjust="spacing" textLength="147.2974" x="261.7207" y="398.0278">- Save to staging table</text><rect fill="#F1F1F1" height="33.9688" rx="12.5" ry="12.5" style="stroke:#181818;stroke-width:0.5;" width="205.9531" x="29.7676" y="353.8438"/><text fill="#000000" font-family="sans-serif" font-size="12" lengthAdjust="spacing" textLength="185.9531" x="39.7676" y="374.9824">Stage Data in SQLite Database</text><path d="M258.5771,422.9453 L258.5771,439.0781 L238.5771,443.0781 L258.5771,447.0781 L258.5771,463.2109 A0,0 0 0 0 258.5771,463.2109 L527.8149,463.2109 A0,0 0 0 0 527.8149,463.2109 L527.8149,432.9453 L517.8149,422.9453 L258.5771,422.9453 A0,0 0 0 0 258.5771,422.9453 " fill="#FEFFDD" style="stroke:#181818;stroke-width:0.5;"/><path d="M517.8149,422.9453 L517.8149,432.9453 L527.8149,432.9453 L517.8149,422.9453 " fill="#FEFFDD" style="stroke:#181818;stroke-width:0.5;"/><text fill="#000000" font-family="sans-serif" font-size="13" lengthAdjust="spacing" textLength="248.2378" x="264.5771" y="440.0122">- Export to dedicated SQLite database</text><text fill="#000000" font-family="sans-serif" font-size="13" lengthAdjust="spacing" textLength="187.1226" x="264.5771" y="455.145">- Get and save table schema</text><rect fill="#F1F1F1" height="33.9688" rx="12.5" ry="12.5" style="stroke:#181818;stroke-width:0.5;" width="211.666" x="26.9111" y="426.0938"/><text fill="#000000" font-family="sans-serif" font-size="12" lengthAdjust="spacing" textLength="191.666" x="36.9111" y="447.2324">Export Data to SQLite Database</text><path d="M274.4883,480.0625 L274.4883,496.1953 L254.4883,500.1953 L274.4883,504.1953 L274.4883,520.3281 A0,0 0 0 0 274.4883,520.3281 L448.4795,520.3281 A0,0 0 0 0 448.4795,520.3281 L448.4795,490.0625 L438.4795,480.0625 L274.4883,480.0625 A0,0 0 0 0 274.4883,480.0625 " fill="#FEFFDD" style="stroke:#181818;stroke-width:0.5;"/><path d="M438.4795,480.0625 L438.4795,490.0625 L448.4795,490.0625 L438.4795,480.0625 " fill="#FEFFDD" style="stroke:#181818;stroke-width:0.5;"/><text fill="#000000" font-family="sans-serif" font-size="13" lengthAdjust="spacing" textLength="141.6226" x="280.4883" y="497.1294">- Save analysis report</text><text fill="#000000" font-family="sans-serif" font-size="13" lengthAdjust="spacing" textLength="152.9912" x="280.4883" y="512.2622">- Save validation report</text><rect fill="#F1F1F1" height="33.9688" rx="12.5" ry="12.5" style="stroke:#181818;stroke-width:0.5;" width="243.4883" x="11" y="483.2109"/><text fill="#000000" font-family="sans-serif" font-size="12" lengthAdjust="spacing" textLength="223.4883" x="21" y="504.3496">Save Analysis and Validation Reports</text><ellipse cx="132.7441" cy="551.3281" fill="none" rx="11" ry="11" style="stroke:#222222;stroke-width:1;"/><ellipse cx="132.7441" cy="551.3281" fill="#222222" rx="6" ry="6" style="stroke:#222222;stroke-width:1;"/><line style="stroke:#181818;stroke-width:1;" x1="132.7441" x2="132.7441" y1="30" y2="50"/><polygon fill="#181818" points="128.7441,40,132.7441,50,136.7441,40,132.7441,44" style="stroke:#181818;stroke-width:1;"/><line style="stroke:#181818;stroke-width:1;" x1="132.7441" x2="132.7441" y1="83.9688" y2="112.25"/><polygon fill="#181818" points="128.7441,102.25,132.7441,112.25,136.7441,102.25,132.7441,106.25" style="stroke:#181818;stroke-width:1;"/><line style="stroke:#181818;stroke-width:1;" x1="132.7441" x2="132.7441" y1="146.2188" y2="185.2148"/><polygon fill="#181818" points="128.7441,175.2148,132.7441,185.2148,136.7441,175.2148,132.7441,179.2148" style="stroke:#181818;stroke-width:1;"/><line style="stroke:#181818;stroke-width:1;" x1="132.7441" x2="132.7441" y1="219.1836" y2="265.7461"/><polygon fill="#181818" points="128.7441,255.7461,132.7441,265.7461,136.7441,255.7461,132.7441,259.7461" style="stroke:#181818;stroke-width:1;"/><line style="stroke:#181818;stroke-width:1;" x1="132.7441" x2="132.7441" y1="299.7148" y2="353.8438"/><polygon fill="#181818" points="128.7441,343.8438,132.7441,353.8438,136.7441,343.8438,132.7441,347.8438" style="stroke:#181818;stroke-width:1;"/><line style="stroke:#181818;stroke-width:1;" x1="132.7441" x2="132.7441" y1="387.8125" y2="426.0938"/><polygon fill="#181818" points="128.7441,416.0938,132.7441,426.0938,136.7441,416.0938,132.7441,420.0938" style="stroke:#181818;stroke-width:1;"/><line style="stroke:#181818;stroke-width:1;" x1="132.7441" x2="132.7441" y1="460.0625" y2="483.2109"/><polygon fill="#181818" points="128.7441,473.2109,132.7441,483.2109,136.7441,473.2109,132.7441,477.2109" style="stroke:#181818;stroke-width:1;"/><line style="stroke:#181818;stroke-width:1;" x1="132.7441" x2="132.7441" y1="517.1797" y2="540.3281"/><polygon fill="#181818" points="128.7441,530.3281,132.7441,540.3281,136.7441,530.3281,132.7441,534.3281" style="stroke:#181818;stroke-width:1;"/><!--SRC=[XLF1Rjim3BtxAtZhQJ-mdOec6mfqmRQWlRCMRHEL9LUY4wTVFqgMumJfiAlUu-FZ8tK76shO4KX7SFJXhR7-M4N185NrzT6nC5h-8FZ50rabVjFdxIG1Qu4D2a8JV0_RgIOBtzagxhmG16uxgG2-m1z2CvD-af7W7TSHxcCaWIVVmlDWFHeAHQ9HYLocMgAljRTZxo9m0t6WcXica_6T3_tiRAQ0mvvYXZR13n3yCSAHfOCTxk20TYHLSQlA8bsHCv0yws3t3kr99TDWDuCiuEZuVQGYUOKK9vgUS9GqP-C3kB6dmFMvtsM5q2IV6NdHqGpAFvmyT5I_PUsUOsJNNffPGJCEbkkaaiB8u5dNfDN9QRWgoYeGqBNb-KMDDoS8z3vo-3oolM0xsqpfxdy_SN7zYl7s61u2fUwQK9jicy9BwsK1uocwEm6QDBxC_q6EGgfuHQaxUDpCwHa3FGdc8IvZtUD1C_LdVLNNSxfmkvq67yhXAkz_TWjTcOPCZj8iDOlrObC0jKlC_LDJY7L7FLubbS2y-CWnqyiss3lz9QbJl76GYt0f2fcr0eTLe41hloX- -0i0]--></g></svg>