<svg xmlns="http://www.w3.org/2000/svg" xmlns:xlink="http://www.w3.org/1999/xlink" contentStyleType="text/css" data-diagram-type="CLASS" height="675px" preserveAspectRatio="none" style="width:2895px;height:675px;background:#FFFFFF;" version="1.1" viewBox="0 0 2895 675" width="2895px" zoomAndPan="magnify"><defs/><g><!--class MedtronicsPipeline--><g class="entity" data-entity="MedtronicsPipeline" data-source-line="2" data-uid="ent0002" id="entity_MedtronicsPipeline"><rect fill="#F1F1F1" height="439.125" rx="2.5" ry="2.5" style="stroke:#181818;stroke-width:0.5;" width="317.5459" x="1762.62" y="7"/><ellipse cx="1851.0223" cy="23" fill="#ADD1B2" rx="11" ry="11" style="stroke:#181818;stroke-width:1;"/><path d="M1853.9911,28.6406 Q1853.413,28.9375 1852.7723,29.0781 Q1852.1317,29.2344 1851.4286,29.2344 Q1848.9286,29.2344 1847.6005,27.5938 Q1846.288,25.9375 1846.288,22.8125 Q1846.288,19.6875 1847.6005,18.0313 Q1848.9286,16.375 1851.4286,16.375 Q1852.1317,16.375 1852.7723,16.5313 Q1853.4286,16.6875 1853.9911,16.9844 L1853.9911,19.7031 Q1853.3661,19.125 1852.7723,18.8594 Q1852.1786,18.5781 1851.5536,18.5781 Q1850.2098,18.5781 1849.5223,19.6563 Q1848.8348,20.7188 1848.8348,22.8125 Q1848.8348,24.9063 1849.5223,25.9844 Q1850.2098,27.0469 1851.5536,27.0469 Q1852.1786,27.0469 1852.7723,26.7813 Q1853.3661,26.5 1853.9911,25.9219 L1853.9911,28.6406 Z " fill="#000000"/><text fill="#000000" font-family="sans-serif" font-size="14" lengthAdjust="spacing" textLength="132.2412" x="1871.5223" y="27.8467">MedtronicsPipeline</text><line style="stroke:#181818;stroke-width:0.5;" x1="1763.62" x2="2079.1659" y1="39" y2="39"/><rect fill="none" height="6" style="stroke:#C82930;stroke-width:1;" width="6" x="1770.62" y="49.6484"/><text fill="#000000" font-family="sans-serif" font-size="14" lengthAdjust="spacing" textLength="44.5977" x="1782.62" y="55.9951">logger</text><rect fill="none" height="6" style="stroke:#C82930;stroke-width:1;" width="6" x="1770.62" y="65.9453"/><text fill="#000000" font-family="sans-serif" font-size="14" lengthAdjust="spacing" textLength="113.6885" x="1782.62" y="72.292">input_file: string</text><rect fill="none" height="6" style="stroke:#C82930;stroke-width:1;" width="6" x="1770.62" y="82.2422"/><text fill="#000000" font-family="sans-serif" font-size="14" lengthAdjust="spacing" textLength="121.0645" x="1782.62" y="88.5889">output_dir: string</text><rect fill="none" height="6" style="stroke:#C82930;stroke-width:1;" width="6" x="1770.62" y="98.5391"/><text fill="#000000" font-family="sans-serif" font-size="14" lengthAdjust="spacing" textLength="113.832" x="1782.62" y="104.8857">db_name: string</text><rect fill="none" height="6" style="stroke:#C82930;stroke-width:1;" width="6" x="1770.62" y="114.8359"/><text fill="#000000" font-family="sans-serif" font-size="14" lengthAdjust="spacing" textLength="134.9414" x="1782.62" y="121.1826">sheet_name: string</text><rect fill="none" height="6" style="stroke:#C82930;stroke-width:1;" width="6" x="1770.62" y="131.1328"/><text fill="#000000" font-family="sans-serif" font-size="14" lengthAdjust="spacing" textLength="156.208" x="1782.62" y="137.4795">extraction_config: dict</text><rect fill="none" height="6" style="stroke:#C82930;stroke-width:1;" width="6" x="1770.62" y="147.4297"/><text fill="#000000" font-family="sans-serif" font-size="14" lengthAdjust="spacing" textLength="153.8975" x="1782.62" y="153.7764">validation_config: dict</text><rect fill="none" height="6" style="stroke:#C82930;stroke-width:1;" width="6" x="1770.62" y="163.7266"/><text fill="#000000" font-family="sans-serif" font-size="14" lengthAdjust="spacing" textLength="141.6543" x="1782.62" y="170.0732">analysis_config: dict</text><rect fill="none" height="6" style="stroke:#C82930;stroke-width:1;" width="6" x="1770.62" y="180.0234"/><text fill="#000000" font-family="sans-serif" font-size="14" lengthAdjust="spacing" textLength="166.5234" x="1782.62" y="186.3701">columns_to_extract: list</text><rect fill="none" height="6" style="stroke:#C82930;stroke-width:1;" width="6" x="1770.62" y="196.3203"/><text fill="#000000" font-family="sans-serif" font-size="14" lengthAdjust="spacing" textLength="152.1064" x="1782.62" y="202.667">drop_na_columns: list</text><rect fill="none" height="6" style="stroke:#C82930;stroke-width:1;" width="6" x="1770.62" y="212.6172"/><text fill="#000000" font-family="sans-serif" font-size="14" lengthAdjust="spacing" textLength="136.8691" x="1782.62" y="218.9639">staging_config: dict</text><rect fill="none" height="6" style="stroke:#C82930;stroke-width:1;" width="6" x="1770.62" y="228.9141"/><text fill="#000000" font-family="sans-serif" font-size="14" lengthAdjust="spacing" textLength="291.5459" x="1782.62" y="235.2607">staging_manager: SQLiteStagingManager</text><rect fill="none" height="6" style="stroke:#C82930;stroke-width:1;" width="6" x="1770.62" y="245.2109"/><text fill="#000000" font-family="sans-serif" font-size="14" lengthAdjust="spacing" textLength="141.0732" x="1782.62" y="251.5576">extracted_data: dict</text><rect fill="none" height="6" style="stroke:#C82930;stroke-width:1;" width="6" x="1770.62" y="261.5078"/><text fill="#000000" font-family="sans-serif" font-size="14" lengthAdjust="spacing" textLength="146.0225" x="1782.62" y="267.8545">analysis_results: dict</text><rect fill="none" height="6" style="stroke:#C82930;stroke-width:1;" width="6" x="1770.62" y="277.8047"/><text fill="#000000" font-family="sans-serif" font-size="14" lengthAdjust="spacing" textLength="158.2656" x="1782.62" y="284.1514">validation_results: dict</text><rect fill="none" height="6" style="stroke:#C82930;stroke-width:1;" width="6" x="1770.62" y="294.1016"/><text fill="#000000" font-family="sans-serif" font-size="14" lengthAdjust="spacing" textLength="141.2373" x="1782.62" y="300.4482">staging_results: dict</text><line style="stroke:#181818;stroke-width:0.5;" x1="1763.62" x2="2079.1659" y1="307.75" y2="307.75"/><ellipse cx="1773.62" cy="321.3984" fill="#84BE84" rx="3" ry="3" style="stroke:#038048;stroke-width:1;"/><text fill="#000000" font-family="sans-serif" font-size="14" lengthAdjust="spacing" textLength="61.0654" x="1782.62" y="324.7451">__init__()</text><ellipse cx="1773.62" cy="337.6953" fill="#84BE84" rx="3" ry="3" style="stroke:#038048;stroke-width:1;"/><text fill="#000000" font-family="sans-serif" font-size="14" lengthAdjust="spacing" textLength="148.0664" x="1782.62" y="341.042">extract(): DataFrame</text><ellipse cx="1773.62" cy="353.9922" fill="#84BE84" rx="3" ry="3" style="stroke:#038048;stroke-width:1;"/><text fill="#000000" font-family="sans-serif" font-size="14" lengthAdjust="spacing" textLength="201.2705" x="1782.62" y="357.3389">analyze(df: DataFrame): dict</text><ellipse cx="1773.62" cy="370.2891" fill="#84BE84" rx="3" ry="3" style="stroke:#038048;stroke-width:1;"/><text fill="#000000" font-family="sans-serif" font-size="14" lengthAdjust="spacing" textLength="203.3145" x="1782.62" y="373.6357">validate(df: DataFrame): dict</text><ellipse cx="1773.62" cy="386.5859" fill="#84BE84" rx="3" ry="3" style="stroke:#038048;stroke-width:1;"/><text fill="#000000" font-family="sans-serif" font-size="14" lengthAdjust="spacing" textLength="224.499" x="1782.62" y="389.9326">stage_data(df: DataFrame): dict</text><ellipse cx="1773.62" cy="402.8828" fill="#84BE84" rx="3" ry="3" style="stroke:#038048;stroke-width:1;"/><text fill="#000000" font-family="sans-serif" font-size="14" lengthAdjust="spacing" textLength="206.9238" x="1782.62" y="406.2295">export(df: DataFrame): string</text><ellipse cx="1773.62" cy="419.1797" fill="#84BE84" rx="3" ry="3" style="stroke:#038048;stroke-width:1;"/><text fill="#000000" font-family="sans-serif" font-size="14" lengthAdjust="spacing" textLength="237.2344" x="1782.62" y="422.5264">save_reports(df: DataFrame): dict</text><ellipse cx="1773.62" cy="435.4766" fill="#84BE84" rx="3" ry="3" style="stroke:#038048;stroke-width:1;"/><text fill="#000000" font-family="sans-serif" font-size="14" lengthAdjust="spacing" textLength="69.5557" x="1782.62" y="438.8232">run(): dict</text></g><!--class SQLiteStagingManager--><g class="entity" data-entity="SQLiteStagingManager" data-source-line="33" data-uid="ent0003" id="entity_SQLiteStagingManager"><rect fill="#F1F1F1" height="96.8906" rx="2.5" ry="2.5" style="stroke:#181818;stroke-width:0.5;" width="846.7773" x="7" y="547.57"/><ellipse cx="345.8608" cy="563.57" fill="#ADD1B2" rx="11" ry="11" style="stroke:#181818;stroke-width:1;"/><path d="M348.8296,569.2106 Q348.2515,569.5075 347.6108,569.6481 Q346.9702,569.8044 346.2671,569.8044 Q343.7671,569.8044 342.439,568.1637 Q341.1265,566.5075 341.1265,563.3825 Q341.1265,560.2575 342.439,558.6012 Q343.7671,556.945 346.2671,556.945 Q346.9702,556.945 347.6108,557.1012 Q348.2671,557.2575 348.8296,557.5544 L348.8296,560.2731 Q348.2046,559.695 347.6108,559.4294 Q347.0171,559.1481 346.3921,559.1481 Q345.0483,559.1481 344.3608,560.2262 Q343.6733,561.2887 343.6733,563.3825 Q343.6733,565.4762 344.3608,566.5544 Q345.0483,567.6169 346.3921,567.6169 Q347.0171,567.6169 347.6108,567.3512 Q348.2046,567.07 348.8296,566.4919 L348.8296,569.2106 Z " fill="#000000"/><text fill="#000000" font-family="sans-serif" font-size="14" lengthAdjust="spacing" textLength="160.5557" x="366.3608" y="568.4167">SQLiteStagingManager</text><line style="stroke:#181818;stroke-width:0.5;" x1="8" x2="852.7773" y1="579.57" y2="579.57"/><line style="stroke:#181818;stroke-width:0.5;" x1="8" x2="852.7773" y1="587.57" y2="587.57"/><ellipse cx="18" cy="601.2184" fill="#84BE84" rx="3" ry="3" style="stroke:#038048;stroke-width:1;"/><text fill="#000000" font-family="sans-serif" font-size="14" lengthAdjust="spacing" textLength="200.0059" x="27" y="604.5651">initialize_db(db_path: string)</text><ellipse cx="18" cy="617.5153" fill="#84BE84" rx="3" ry="3" style="stroke:#038048;stroke-width:1;"/><text fill="#000000" font-family="sans-serif" font-size="14" lengthAdjust="spacing" textLength="820.7773" x="27" y="620.862">save_dataframe_to_staging(df: DataFrame, connection_string: string, source_system: string, import_batch_id: string)</text><ellipse cx="18" cy="633.8122" fill="#84BE84" rx="3" ry="3" style="stroke:#038048;stroke-width:1;"/><text fill="#000000" font-family="sans-serif" font-size="14" lengthAdjust="spacing" textLength="347.1563" x="27" y="637.1589">get_pending_items(connection_string: string): list</text></g><!--class ExcelUtils--><g class="entity" data-entity="ExcelUtils" data-source-line="40" data-uid="ent0004" id="entity_ExcelUtils"><rect fill="#F1F1F1" height="145.7813" rx="2.5" ry="2.5" style="stroke:#181818;stroke-width:0.5;" width="606.6377" x="889.07" y="523.13"/><ellipse cx="1140.9025" cy="539.13" fill="#FF7700" rx="11" ry="11" style="stroke:#181818;stroke-width:1;"/><path d="M1145.1369,534.8956 L1139.8556,534.8956 L1139.8556,537.5675 L1144.6525,537.5675 L1144.6525,539.7238 L1139.8556,539.7238 L1139.8556,545.13 L1137.4181,545.13 L1137.4181,532.7394 L1145.1369,532.7394 L1145.1369,534.8956 Z " fill="#000000"/><text fill="#000000" font-family="sans-serif" font-size="14" lengthAdjust="spacing" textLength="94.4727" x="1161.4025" y="543.9767">Excel Utilities</text><line style="stroke:#181818;stroke-width:0.5;" x1="890.07" x2="1494.7077" y1="555.13" y2="555.13"/><line style="stroke:#181818;stroke-width:0.5;" x1="890.07" x2="1494.7077" y1="563.13" y2="563.13"/><ellipse cx="900.07" cy="576.7784" fill="#84BE84" rx="3" ry="3" style="stroke:#038048;stroke-width:1;"/><text fill="#000000" font-family="sans-serif" font-size="14" lengthAdjust="spacing" textLength="324.666" x="909.07" y="580.1251">analyze_excel_structure(file_path: string): dict</text><ellipse cx="900.07" cy="593.0753" fill="#84BE84" rx="3" ry="3" style="stroke:#038048;stroke-width:1;"/><text fill="#000000" font-family="sans-serif" font-size="14" lengthAdjust="spacing" textLength="422.9805" x="909.07" y="596.422">extract_excel_with_config(file_path: string, config: dict): dict</text><ellipse cx="900.07" cy="609.3722" fill="#84BE84" rx="3" ry="3" style="stroke:#038048;stroke-width:1;"/><text fill="#000000" font-family="sans-serif" font-size="14" lengthAdjust="spacing" textLength="580.6377" x="909.07" y="612.7189">analyze_unique_values(df: DataFrame, columns: list, max_unique_values: int): dict</text><ellipse cx="900.07" cy="625.6691" fill="#84BE84" rx="3" ry="3" style="stroke:#038048;stroke-width:1;"/><text fill="#000000" font-family="sans-serif" font-size="14" lengthAdjust="spacing" textLength="426.6719" x="909.07" y="629.0157">analyze_column_statistics(df: DataFrame, columns: list): dict</text><ellipse cx="900.07" cy="641.9659" fill="#84BE84" rx="3" ry="3" style="stroke:#038048;stroke-width:1;"/><text fill="#000000" font-family="sans-serif" font-size="14" lengthAdjust="spacing" textLength="399.4375" x="909.07" y="645.3126">analyze_text_columns(df: DataFrame, columns: list): dict</text><ellipse cx="900.07" cy="658.2628" fill="#84BE84" rx="3" ry="3" style="stroke:#038048;stroke-width:1;"/><text fill="#000000" font-family="sans-serif" font-size="14" lengthAdjust="spacing" textLength="370.2344" x="909.07" y="661.6095">validate_dataframe(df: DataFrame, config: dict): dict</text></g><!--class DBUtils--><g class="entity" data-entity="DBUtils" data-source-line="49" data-uid="ent0005" id="entity_DBUtils"><rect fill="#F1F1F1" height="80.5938" rx="2.5" ry="2.5" style="stroke:#181818;stroke-width:0.5;" width="781.6924" x="1530.54" y="555.72"/><ellipse cx="1855.165" cy="571.72" fill="#FF7700" rx="11" ry="11" style="stroke:#181818;stroke-width:1;"/><path d="M1859.3994,567.4856 L1854.1181,567.4856 L1854.1181,570.1575 L1858.915,570.1575 L1858.915,572.3137 L1854.1181,572.3137 L1854.1181,577.72 L1851.6806,577.72 L1851.6806,565.3294 L1859.3994,565.3294 L1859.3994,567.4856 Z " fill="#000000"/><text fill="#000000" font-family="sans-serif" font-size="14" lengthAdjust="spacing" textLength="123.9424" x="1875.665" y="576.5667">Database Utilities</text><line style="stroke:#181818;stroke-width:0.5;" x1="1531.54" x2="2311.2324" y1="587.72" y2="587.72"/><line style="stroke:#181818;stroke-width:0.5;" x1="1531.54" x2="2311.2324" y1="595.72" y2="595.72"/><ellipse cx="1541.54" cy="609.3684" fill="#84BE84" rx="3" ry="3" style="stroke:#038048;stroke-width:1;"/><text fill="#000000" font-family="sans-serif" font-size="14" lengthAdjust="spacing" textLength="755.6924" x="1550.54" y="612.7151">save_dataframe_to_database(df: DataFrame, table_name: string, connection_string: string, if_exists: string)</text><ellipse cx="1541.54" cy="625.6653" fill="#84BE84" rx="3" ry="3" style="stroke:#038048;stroke-width:1;"/><text fill="#000000" font-family="sans-serif" font-size="14" lengthAdjust="spacing" textLength="501.5186" x="1550.54" y="629.012">get_table_schema(connection_string: string, table_name: string): string</text></g><!--class PathUtils--><g class="entity" data-entity="PathUtils" data-source-line="54" data-uid="ent0006" id="entity_PathUtils"><rect fill="#F1F1F1" height="80.5938" rx="2.5" ry="2.5" style="stroke:#181818;stroke-width:0.5;" width="248.5029" x="2347.14" y="555.72"/><ellipse cx="2422.8788" cy="571.72" fill="#FF7700" rx="11" ry="11" style="stroke:#181818;stroke-width:1;"/><path d="M2427.1131,567.4856 L2421.8319,567.4856 L2421.8319,570.1575 L2426.6288,570.1575 L2426.6288,572.3137 L2421.8319,572.3137 L2421.8319,577.72 L2419.3944,577.72 L2419.3944,565.3294 L2427.1131,565.3294 L2427.1131,567.4856 Z " fill="#000000"/><text fill="#000000" font-family="sans-serif" font-size="14" lengthAdjust="spacing" textLength="88.5254" x="2443.3788" y="576.5667">Path Utilities</text><line style="stroke:#181818;stroke-width:0.5;" x1="2348.14" x2="2594.6429" y1="587.72" y2="587.72"/><line style="stroke:#181818;stroke-width:0.5;" x1="2348.14" x2="2594.6429" y1="595.72" y2="595.72"/><ellipse cx="2358.14" cy="609.3684" fill="#84BE84" rx="3" ry="3" style="stroke:#038048;stroke-width:1;"/><text fill="#000000" font-family="sans-serif" font-size="14" lengthAdjust="spacing" textLength="135.3721" x="2367.14" y="612.7151">get_root_dir(): Path</text><ellipse cx="2358.14" cy="625.6653" fill="#84BE84" rx="3" ry="3" style="stroke:#038048;stroke-width:1;"/><text fill="#000000" font-family="sans-serif" font-size="14" lengthAdjust="spacing" textLength="222.5029" x="2367.14" y="629.012">resolve_path(path: string): Path</text></g><!--class LoggingUtils--><g class="entity" data-entity="LoggingUtils" data-source-line="59" data-uid="ent0007" id="entity_LoggingUtils"><rect fill="#F1F1F1" height="64.2969" rx="2.5" ry="2.5" style="stroke:#181818;stroke-width:0.5;" width="258.2441" x="2630.27" y="563.87"/><ellipse cx="2698.6772" cy="579.87" fill="#FF7700" rx="11" ry="11" style="stroke:#181818;stroke-width:1;"/><path d="M2702.9116,575.6356 L2697.6304,575.6356 L2697.6304,578.3075 L2702.4272,578.3075 L2702.4272,580.4638 L2697.6304,580.4638 L2697.6304,585.87 L2695.1929,585.87 L2695.1929,573.4794 L2702.9116,573.4794 L2702.9116,575.6356 Z " fill="#000000"/><text fill="#000000" font-family="sans-serif" font-size="14" lengthAdjust="spacing" textLength="112.9297" x="2719.1772" y="584.7167">Logging Utilities</text><line style="stroke:#181818;stroke-width:0.5;" x1="2631.27" x2="2887.5141" y1="595.87" y2="595.87"/><line style="stroke:#181818;stroke-width:0.5;" x1="2631.27" x2="2887.5141" y1="603.87" y2="603.87"/><ellipse cx="2641.27" cy="617.5184" fill="#84BE84" rx="3" ry="3" style="stroke:#038048;stroke-width:1;"/><text fill="#000000" font-family="sans-serif" font-size="14" lengthAdjust="spacing" textLength="232.2441" x="2650.27" y="620.8651">get_logger(name: string): Logger</text></g><!--link MedtronicsPipeline to SQLiteStagingManager--><g class="link" data-entity-1="MedtronicsPipeline" data-entity-2="SQLiteStagingManager" data-source-line="64" data-uid="lnk8" id="link_MedtronicsPipeline_SQLiteStagingManager"><path codeLine="64" d="M1762.18,266.8 C1486.82,334.66 928.4357,472.2742 630.4657,545.7142 " fill="none" id="MedtronicsPipeline-to-SQLiteStagingManager" style="stroke:#181818;stroke-width:1;"/><polygon fill="#181818" points="624.64,547.15,634.3357,548.88,629.4947,545.9535,632.4213,541.1125,624.64,547.15" style="stroke:#181818;stroke-width:1;"/><text fill="#000000" font-family="sans-serif" font-size="13" lengthAdjust="spacing" textLength="29.7832" x="914.39" y="489.1969">uses</text></g><!--link MedtronicsPipeline to ExcelUtils--><g class="link" data-entity-1="MedtronicsPipeline" data-entity-2="ExcelUtils" data-source-line="65" data-uid="lnk9" id="link_MedtronicsPipeline_ExcelUtils"><path codeLine="65" d="M1762.31,307.75 C1635.26,371.79 1464.1379,458.0395 1341.3479,519.9295 " fill="none" id="MedtronicsPipeline-to-ExcelUtils" style="stroke:#181818;stroke-width:1;stroke-dasharray:7.0,7.0;"/><polygon fill="#181818" points="1335.99,522.63,1345.8272,522.1511,1340.4549,520.3795,1342.2265,515.0072,1335.99,522.63" style="stroke:#181818;stroke-width:1;"/><text fill="#000000" font-family="sans-serif" font-size="13" lengthAdjust="spacing" textLength="29.7832" x="1429.39" y="489.1969">uses</text></g><!--link MedtronicsPipeline to DBUtils--><g class="link" data-entity-1="MedtronicsPipeline" data-entity-2="DBUtils" data-source-line="66" data-uid="lnk10" id="link_MedtronicsPipeline_DBUtils"><path codeLine="66" d="M1921.39,446.62 C1921.39,488.43 1921.39,521.7 1921.39,549.32 " fill="none" id="MedtronicsPipeline-to-DBUtils" style="stroke:#181818;stroke-width:1;stroke-dasharray:7.0,7.0;"/><polygon fill="#181818" points="1921.39,555.32,1925.39,546.32,1921.39,550.32,1917.39,546.32,1921.39,555.32" style="stroke:#181818;stroke-width:1;"/><text fill="#000000" font-family="sans-serif" font-size="13" lengthAdjust="spacing" textLength="29.7832" x="1922.39" y="489.1969">uses</text></g><!--link MedtronicsPipeline to PathUtils--><g class="link" data-entity-1="MedtronicsPipeline" data-entity-2="PathUtils" data-source-line="67" data-uid="lnk11" id="link_MedtronicsPipeline_PathUtils"><path codeLine="67" d="M2080.47,333.85 C2191.51,408.03 2328.4209,499.507 2407.1109,552.077 " fill="none" id="MedtronicsPipeline-to-PathUtils" style="stroke:#181818;stroke-width:1;stroke-dasharray:7.0,7.0;"/><polygon fill="#181818" points="2412.1,555.41,2406.8384,547.0844,2407.9424,552.6325,2402.3944,553.7365,2412.1,555.41" style="stroke:#181818;stroke-width:1;"/><text fill="#000000" font-family="sans-serif" font-size="13" lengthAdjust="spacing" textLength="29.7832" x="2310.39" y="489.1969">uses</text></g><!--link MedtronicsPipeline to LoggingUtils--><g class="link" data-entity-1="MedtronicsPipeline" data-entity-2="LoggingUtils" data-source-line="68" data-uid="lnk12" id="link_MedtronicsPipeline_LoggingUtils"><path codeLine="68" d="M2080.49,292.66 C2221.44,351 2432.35,439.97 2613.39,523.13 C2641.12,535.87 2666.0589,547.9759 2691.8489,560.8159 " fill="none" id="MedtronicsPipeline-to-LoggingUtils" style="stroke:#181818;stroke-width:1;stroke-dasharray:7.0,7.0;"/><polygon fill="#181818" points="2697.22,563.49,2690.946,555.8981,2692.7441,561.2616,2687.3806,563.0596,2697.22,563.49" style="stroke:#181818;stroke-width:1;"/><text fill="#000000" font-family="sans-serif" font-size="13" lengthAdjust="spacing" textLength="29.7832" x="2540.39" y="489.1969">uses</text></g><!--SRC=[ZLLDRzim3BtdLmZTeGwI5hqLC8e06xgSMg13iREWs7HCm9OyK-hI3lllesGxSMp7tIM8-Vb8FbBNuX4or21i3g9Kg4LIAA95-1NFaDhQQ4pe1IielDsVXH3NugkrDUwS1UBFcyBizr3xVwWhPsM61SI2s4JllTGuwyKfrdrfkfDQbMU6b0FOaHGEjbQ9HQDbOdI6-rYac5YlUbC5fcfIfRGgtWbff4XCuKfDqXhPHev5WHHqQMqgpYzRcvE2hDepd56mJbvoEkv1B5v_FA65rqRyt4XxHK0g6Q-QW5a3kSBIP6qZNPTsg0Z3UGQRczHFPYKbQhHIHal_rMA8bh5uP13RcXljvG731qHfrbCiZq5NBPBB1XuEXC8kci2XChKTgOzJNf5w0wx7Mz75ABNJKVVvTx6uxjZhB1PetnloGaVVgLa40gzyLv2h-c3KkuYPM2cRTsYMHpY-ein3y6HfUtwERIsO4HeQTZRkNPYr8EFg12IzauNo9CRI5obtoYQvnFGixPxvNu5E_N0PUqdHnVZBbfrJVSYS3YvT9ww-7n8enC-WHg0heKW4cHUHU7WGqNRzPRkzlx-xMuhDfcbJImpU4xRqwLrYNGsHN_3pblK77KZM-ln6cxTBC_OApJkkKoz6bzTf_EL0ClySqBZnlHrTy_4wdDl70lLKqCRFZzEo8z-ssS0J0IoNs5s8__NjLkX4gGaUZLh1estdvmrtYc0mmiTli_CRapXjumopivI7qx-yiyp6ZEVB5TA8l4qWId8eLJGJOPpmT0rEPRymMmObUz5iqHv5RKnuR_ony0xXTW2PugrXO3GWRx0vfNtY1uqLWyojzDFapNCO3MfxQXx9_hRMK8JxJZbMj9XuR6zkDfD7B1RENxa9ZzlRJM-lv-rQyimR7TizRzRlJMFv3m00]--></g></svg>