<svg xmlns="http://www.w3.org/2000/svg" xmlns:xlink="http://www.w3.org/1999/xlink" contentStyleType="text/css" data-diagram-type="CLASS" height="828px" preserveAspectRatio="none" style="width:1252px;height:828px;background:#FFFFFF;" version="1.1" viewBox="0 0 1252 828" width="1252px" zoomAndPan="magnify"><defs/><g><!--cluster Extractors--><g class="cluster" data-entity="Extractors" data-source-line="2" data-uid="ent0002" id="cluster_Extractors"><path d="M397.5,22.29 L479.9844,22.29 A3.75,3.75 0 0 1 482.4844,24.79 L489.4844,44.5869 L664.5,44.5869 A2.5,2.5 0 0 1 667,47.0869 L667,446.06 A2.5,2.5 0 0 1 664.5,448.56 L397.5,448.56 A2.5,2.5 0 0 1 395,446.06 L395,24.79 A2.5,2.5 0 0 1 397.5,22.29 " fill="none" style="stroke:#000000;stroke-width:1.5;"/><line style="stroke:#000000;stroke-width:1.5;" x1="395" x2="489.4844" y1="44.5869" y2="44.5869"/><text fill="#000000" font-family="sans-serif" font-size="14" font-weight="bold" lengthAdjust="spacing" textLength="81.4844" x="399" y="37.2851">Extractors</text></g><!--cluster Database--><g class="cluster" data-entity="Database" data-source-line="18" data-uid="ent0005" id="cluster_Database"><path d="M693.5,251.78 L769.0049,251.78 A3.75,3.75 0 0 1 771.5049,254.28 L778.5049,274.0769 L1242.5,274.0769 A2.5,2.5 0 0 1 1245,276.5769 L1245,478.65 A2.5,2.5 0 0 1 1242.5,481.15 L693.5,481.15 A2.5,2.5 0 0 1 691,478.65 L691,254.28 A2.5,2.5 0 0 1 693.5,251.78 " fill="none" style="stroke:#000000;stroke-width:1.5;"/><line style="stroke:#000000;stroke-width:1.5;" x1="691" x2="778.5049" y1="274.0769" y2="274.0769"/><text fill="#000000" font-family="sans-serif" font-size="14" font-weight="bold" lengthAdjust="spacing" textLength="74.5049" x="695" y="266.7751">Database</text></g><!--cluster Services--><g class="cluster" data-entity="Services" data-source-line="31" data-uid="ent0007" id="cluster_Services"><path d="M517.5,530.15 L585.0342,530.15 A3.75,3.75 0 0 1 587.5342,532.65 L594.5342,552.4469 L1006.5,552.4469 A2.5,2.5 0 0 1 1009,554.9469 L1009,675.54 A2.5,2.5 0 0 1 1006.5,678.04 L517.5,678.04 A2.5,2.5 0 0 1 515,675.54 L515,532.65 A2.5,2.5 0 0 1 517.5,530.15 " fill="none" style="stroke:#000000;stroke-width:1.5;"/><line style="stroke:#000000;stroke-width:1.5;" x1="515" x2="594.5342" y1="552.4469" y2="552.4469"/><text fill="#000000" font-family="sans-serif" font-size="14" font-weight="bold" lengthAdjust="spacing" textLength="66.5342" x="519" y="545.1451">Services</text></g><!--cluster Mappers--><g class="cluster" data-entity="Mappers" data-source-line="47" data-uid="ent0011" id="cluster_Mappers"><path d="M1035.5,546.45 L1104.6543,546.45 A3.75,3.75 0 0 1 1107.1543,548.95 L1114.1543,568.7469 L1210.5,568.7469 A2.5,2.5 0 0 1 1213,571.2469 L1213,818.84 A2.5,2.5 0 0 1 1210.5,821.34 L1035.5,821.34 A2.5,2.5 0 0 1 1033,818.84 L1033,548.95 A2.5,2.5 0 0 1 1035.5,546.45 " fill="none" style="stroke:#000000;stroke-width:1.5;"/><line style="stroke:#000000;stroke-width:1.5;" x1="1033" x2="1114.1543" y1="568.7469" y2="568.7469"/><text fill="#000000" font-family="sans-serif" font-size="14" font-weight="bold" lengthAdjust="spacing" textLength="68.1543" x="1037" y="561.4451">Mappers</text></g><!--cluster Pipeline--><g class="cluster" data-entity="Pipeline" data-source-line="57" data-uid="ent0014" id="cluster_Pipeline"><path d="M782.5,6 L847.1357,6 A3.75,3.75 0 0 1 849.6357,8.5 L856.6357,28.2969 L973.5,28.2969 A2.5,2.5 0 0 1 976,30.7969 L976,200.28 A2.5,2.5 0 0 1 973.5,202.78 L782.5,202.78 A2.5,2.5 0 0 1 780,200.28 L780,8.5 A2.5,2.5 0 0 1 782.5,6 " fill="none" style="stroke:#000000;stroke-width:1.5;"/><line style="stroke:#000000;stroke-width:1.5;" x1="780" x2="856.6357" y1="28.2969" y2="28.2969"/><text fill="#000000" font-family="sans-serif" font-size="14" font-weight="bold" lengthAdjust="spacing" textLength="63.6357" x="784" y="20.9951">Pipeline</text></g><!--class ExcelExtractor--><g class="entity" data-entity="ExcelExtractor" data-source-line="3" data-uid="ent0003" id="entity_ExcelExtractor"><rect fill="#F1F1F1" height="113.1875" rx="2.5" ry="2.5" style="stroke:#181818;stroke-width:0.5;" width="240.1494" x="410.92" y="319.37"/><ellipse cx="475.8477" cy="335.37" fill="#ADD1B2" rx="11" ry="11" style="stroke:#181818;stroke-width:1;"/><path d="M478.8165,341.0106 Q478.2384,341.3075 477.5977,341.4481 Q476.9571,341.6044 476.254,341.6044 Q473.754,341.6044 472.4259,339.9638 Q471.1134,338.3075 471.1134,335.1825 Q471.1134,332.0575 472.4259,330.4013 Q473.754,328.745 476.254,328.745 Q476.9571,328.745 477.5977,328.9013 Q478.254,329.0575 478.8165,329.3544 L478.8165,332.0731 Q478.1915,331.495 477.5977,331.2294 Q477.004,330.9481 476.379,330.9481 Q475.0352,330.9481 474.3477,332.0263 Q473.6602,333.0888 473.6602,335.1825 Q473.6602,337.2763 474.3477,338.3544 Q475.0352,339.4169 476.379,339.4169 Q477.004,339.4169 477.5977,339.1513 Q478.1915,338.87 478.8165,338.2919 L478.8165,341.0106 Z " fill="#000000"/><text fill="#000000" font-family="sans-serif" font-size="14" lengthAdjust="spacing" textLength="101.7939" x="496.3477" y="340.2167">ExcelExtractor</text><line style="stroke:#181818;stroke-width:0.5;" x1="411.92" x2="650.0694" y1="351.37" y2="351.37"/><rect fill="none" height="6" style="stroke:#C82930;stroke-width:1;" width="6" x="418.92" y="362.0184"/><text fill="#000000" font-family="sans-serif" font-size="14" lengthAdjust="spacing" textLength="104.8291" x="430.92" y="368.3651">upload_service</text><line style="stroke:#181818;stroke-width:0.5;" x1="411.92" x2="650.0694" y1="375.6669" y2="375.6669"/><ellipse cx="421.92" cy="389.3153" fill="#84BE84" rx="3" ry="3" style="stroke:#038048;stroke-width:1;"/><text fill="#000000" font-family="sans-serif" font-size="14" lengthAdjust="spacing" textLength="214.1494" x="430.92" y="392.662">__init__(upload_service=None)</text><ellipse cx="421.92" cy="405.6122" fill="#84BE84" rx="3" ry="3" style="stroke:#038048;stroke-width:1;"/><text fill="#000000" font-family="sans-serif" font-size="14" lengthAdjust="spacing" textLength="60.833" x="430.92" y="408.9589">extract()</text><ellipse cx="421.92" cy="421.9091" fill="#84BE84" rx="3" ry="3" style="stroke:#038048;stroke-width:1;"/><text fill="#000000" font-family="sans-serif" font-size="14" lengthAdjust="spacing" textLength="133.9434" x="430.92" y="425.2557">extract_and_save()</text></g><!--class ExtractorFactory--><g class="entity" data-entity="ExtractorFactory" data-source-line="10" data-uid="ent0004" id="entity_ExtractorFactory"><rect fill="#F1F1F1" height="113.1875" rx="2.5" ry="2.5" style="stroke:#181818;stroke-width:0.5;" width="162.4521" x="449.77" y="57.29"/><ellipse cx="470.874" cy="73.29" fill="#ADD1B2" rx="11" ry="11" style="stroke:#181818;stroke-width:1;"/><path d="M473.8428,78.9306 Q473.2646,79.2275 472.624,79.3681 Q471.9834,79.5244 471.2803,79.5244 Q468.7803,79.5244 467.4521,77.8838 Q466.1396,76.2275 466.1396,73.1025 Q466.1396,69.9775 467.4521,68.3213 Q468.7803,66.665 471.2803,66.665 Q471.9834,66.665 472.624,66.8213 Q473.2803,66.9775 473.8428,67.2744 L473.8428,69.9931 Q473.2178,69.415 472.624,69.1494 Q472.0303,68.8681 471.4053,68.8681 Q470.0615,68.8681 469.374,69.9463 Q468.6865,71.0088 468.6865,73.1025 Q468.6865,75.1963 469.374,76.2744 Q470.0615,77.3369 471.4053,77.3369 Q472.0303,77.3369 472.624,77.0713 Q473.2178,76.79 473.8428,76.2119 L473.8428,78.9306 Z " fill="#000000"/><text fill="#000000" font-family="sans-serif" font-size="14" lengthAdjust="spacing" textLength="116.8877" x="486.2304" y="78.1367">ExtractorFactory</text><line style="stroke:#181818;stroke-width:0.5;" x1="450.77" x2="611.2221" y1="89.29" y2="89.29"/><line style="stroke:#181818;stroke-width:0.5;" x1="450.77" x2="611.2221" y1="97.29" y2="97.29"/><ellipse cx="460.77" cy="110.9384" fill="#84BE84" rx="3" ry="3" style="stroke:#038048;stroke-width:1;"/><text fill="#000000" font-family="sans-serif" font-size="14" lengthAdjust="spacing" textLength="136.4521" x="469.77" y="114.2851">register_extractor()</text><ellipse cx="460.77" cy="127.2353" fill="#84BE84" rx="3" ry="3" style="stroke:#038048;stroke-width:1;"/><text fill="#000000" font-family="sans-serif" font-size="14" lengthAdjust="spacing" textLength="105.1436" x="469.77" y="130.582">get_extractor()</text><ellipse cx="460.77" cy="143.5322" fill="#84BE84" rx="3" ry="3" style="stroke:#038048;stroke-width:1;"/><text fill="#000000" font-family="sans-serif" font-size="14" lengthAdjust="spacing" textLength="60.833" x="469.77" y="146.8789">extract()</text><ellipse cx="460.77" cy="159.8291" fill="#84BE84" rx="3" ry="3" style="stroke:#038048;stroke-width:1;"/><text fill="#000000" font-family="sans-serif" font-size="14" lengthAdjust="spacing" textLength="133.9434" x="469.77" y="163.1757">extract_and_save()</text></g><!--class SQLiteStagingManager--><g class="entity" data-entity="SQLiteStagingManager" data-source-line="19" data-uid="ent0006" id="entity_SQLiteStagingManager"><rect fill="#F1F1F1" height="178.375" rx="2.5" ry="2.5" style="stroke:#181818;stroke-width:0.5;" width="521.1885" x="707.4" y="286.78"/><ellipse cx="883.4664" cy="302.78" fill="#ADD1B2" rx="11" ry="11" style="stroke:#181818;stroke-width:1;"/><path d="M886.4352,308.4206 Q885.857,308.7175 885.2164,308.8581 Q884.5758,309.0144 883.8727,309.0144 Q881.3727,309.0144 880.0445,307.3738 Q878.732,305.7175 878.732,302.5925 Q878.732,299.4675 880.0445,297.8113 Q881.3727,296.155 883.8727,296.155 Q884.5758,296.155 885.2164,296.3113 Q885.8727,296.4675 886.4352,296.7644 L886.4352,299.4831 Q885.8102,298.905 885.2164,298.6394 Q884.6227,298.3581 883.9977,298.3581 Q882.6539,298.3581 881.9664,299.4363 Q881.2789,300.4988 881.2789,302.5925 Q881.2789,304.6863 881.9664,305.7644 Q882.6539,306.8269 883.9977,306.8269 Q884.6227,306.8269 885.2164,306.5613 Q885.8102,306.28 886.4352,305.7019 L886.4352,308.4206 Z " fill="#000000"/><text fill="#000000" font-family="sans-serif" font-size="14" lengthAdjust="spacing" textLength="160.5557" x="903.9664" y="307.6267">SQLiteStagingManager</text><line style="stroke:#181818;stroke-width:0.5;" x1="708.4" x2="1227.5885" y1="318.78" y2="318.78"/><rect fill="none" height="6" style="stroke:#C82930;stroke-width:1;" width="6" x="715.4" y="329.4284"/><text fill="#000000" font-family="sans-serif" font-size="14" lengthAdjust="spacing" textLength="44.5977" x="727.4" y="335.7751">logger</text><rect fill="none" height="6" style="stroke:#C82930;stroke-width:1;" width="6" x="715.4" y="345.7253"/><text fill="#000000" font-family="sans-serif" font-size="14" lengthAdjust="spacing" textLength="133.4375" x="727.4" y="352.072">connection_factory</text><rect fill="none" height="6" style="stroke:#C82930;stroke-width:1;" width="6" x="715.4" y="362.0222"/><text fill="#000000" font-family="sans-serif" font-size="14" lengthAdjust="spacing" textLength="93.5225" x="727.4" y="368.3689">schema_path</text><line style="stroke:#181818;stroke-width:0.5;" x1="708.4" x2="1227.5885" y1="375.6706" y2="375.6706"/><ellipse cx="718.4" cy="389.3191" fill="#84BE84" rx="3" ry="3" style="stroke:#038048;stroke-width:1;"/><text fill="#000000" font-family="sans-serif" font-size="14" lengthAdjust="spacing" textLength="495.1885" x="727.4" y="392.6657">__init__(logger=None, connection_factory=None, schema_path=None)</text><ellipse cx="718.4" cy="405.6159" fill="#84BE84" rx="3" ry="3" style="stroke:#038048;stroke-width:1;"/><text fill="#000000" font-family="sans-serif" font-size="14" lengthAdjust="spacing" textLength="94.0488" x="727.4" y="408.9626">initialize_db()</text><ellipse cx="718.4" cy="421.9128" fill="#84BE84" rx="3" ry="3" style="stroke:#038048;stroke-width:1;"/><text fill="#000000" font-family="sans-serif" font-size="14" lengthAdjust="spacing" textLength="203.6973" x="727.4" y="425.2595">save_dataframe_to_staging()</text><ellipse cx="718.4" cy="438.2097" fill="#84BE84" rx="3" ry="3" style="stroke:#038048;stroke-width:1;"/><text fill="#000000" font-family="sans-serif" font-size="14" lengthAdjust="spacing" textLength="143.7461" x="727.4" y="441.5564">get_pending_items()</text><ellipse cx="718.4" cy="454.5066" fill="#84BE84" rx="3" ry="3" style="stroke:#038048;stroke-width:1;"/><text fill="#000000" font-family="sans-serif" font-size="14" lengthAdjust="spacing" textLength="148.9004" x="727.4" y="457.8532">update_item_status()</text></g><!--class UploadService--><g class="entity" data-entity="UploadService" data-source-line="32" data-uid="ent0008" id="entity_UploadService"><rect fill="#F1F1F1" height="64.2969" rx="2.5" ry="2.5" style="stroke:#181818;stroke-width:0.5;" width="132.7959" x="530.6" y="581.45"/><ellipse cx="545.6" cy="597.45" fill="#B4A7E5" rx="11" ry="11" style="stroke:#181818;stroke-width:1;"/><path d="M541.5219,593.2156 L541.5219,591.0594 L548.9125,591.0594 L548.9125,593.2156 L546.4438,593.2156 L546.4438,601.2938 L548.9125,601.2938 L548.9125,603.45 L541.5219,603.45 L541.5219,601.2938 L543.9906,601.2938 L543.9906,593.2156 L541.5219,593.2156 Z " fill="#000000"/><text fill="#000000" font-family="sans-serif" font-size="14" font-style="italic" lengthAdjust="spacing" textLength="100.7959" x="559.6" y="602.2967">UploadService</text><line style="stroke:#181818;stroke-width:0.5;" x1="531.6" x2="662.3959" y1="613.45" y2="613.45"/><line style="stroke:#181818;stroke-width:0.5;" x1="531.6" x2="662.3959" y1="621.45" y2="621.45"/><ellipse cx="541.6" cy="635.0984" fill="#84BE84" rx="3" ry="3" style="stroke:#038048;stroke-width:1;"/><text fill="#000000" font-family="sans-serif" font-size="14" lengthAdjust="spacing" textLength="86.9258" x="550.6" y="638.4451">upload_file()</text></g><!--class ConnectionFactory--><g class="entity" data-entity="ConnectionFactory" data-source-line="36" data-uid="ent0009" id="entity_ConnectionFactory"><rect fill="#F1F1F1" height="64.2969" rx="2.5" ry="2.5" style="stroke:#181818;stroke-width:0.5;" width="165.8086" x="698.09" y="581.45"/><ellipse cx="714.066" cy="597.45" fill="#B4A7E5" rx="11" ry="11" style="stroke:#181818;stroke-width:1;"/><path d="M709.9879,593.2156 L709.9879,591.0594 L717.3785,591.0594 L717.3785,593.2156 L714.9098,593.2156 L714.9098,601.2938 L717.3785,601.2938 L717.3785,603.45 L709.9879,603.45 L709.9879,601.2938 L712.4567,601.2938 L712.4567,593.2156 L709.9879,593.2156 Z " fill="#000000"/><text fill="#000000" font-family="sans-serif" font-size="14" font-style="italic" lengthAdjust="spacing" textLength="131.6396" x="728.2829" y="602.2967">ConnectionFactory</text><line style="stroke:#181818;stroke-width:0.5;" x1="699.09" x2="862.8986" y1="613.45" y2="613.45"/><line style="stroke:#181818;stroke-width:0.5;" x1="699.09" x2="862.8986" y1="621.45" y2="621.45"/><ellipse cx="709.09" cy="635.0984" fill="#84BE84" rx="3" ry="3" style="stroke:#038048;stroke-width:1;"/><text fill="#000000" font-family="sans-serif" font-size="14" lengthAdjust="spacing" textLength="139.8086" x="718.09" y="638.4451">create_connection()</text></g><!--class Logger--><g class="entity" data-entity="Logger" data-source-line="40" data-uid="ent0010" id="entity_Logger"><rect fill="#F1F1F1" height="96.8906" rx="2.5" ry="2.5" style="stroke:#181818;stroke-width:0.5;" width="93.2314" x="899.38" y="565.15"/><ellipse cx="920.1056" cy="581.15" fill="#B4A7E5" rx="11" ry="11" style="stroke:#181818;stroke-width:1;"/><path d="M916.0275,576.9156 L916.0275,574.7594 L923.4181,574.7594 L923.4181,576.9156 L920.9494,576.9156 L920.9494,584.9938 L923.4181,584.9938 L923.4181,587.15 L916.0275,587.15 L916.0275,584.9938 L918.4963,584.9938 L918.4963,576.9156 L916.0275,576.9156 Z " fill="#000000"/><text fill="#000000" font-family="sans-serif" font-size="14" font-style="italic" lengthAdjust="spacing" textLength="48.5078" x="935.378" y="585.9967">Logger</text><line style="stroke:#181818;stroke-width:0.5;" x1="900.38" x2="991.6114" y1="597.15" y2="597.15"/><line style="stroke:#181818;stroke-width:0.5;" x1="900.38" x2="991.6114" y1="605.15" y2="605.15"/><ellipse cx="910.38" cy="618.7984" fill="#84BE84" rx="3" ry="3" style="stroke:#038048;stroke-width:1;"/><text fill="#000000" font-family="sans-serif" font-size="14" lengthAdjust="spacing" textLength="37.1807" x="919.38" y="622.1451">info()</text><ellipse cx="910.38" cy="635.0953" fill="#84BE84" rx="3" ry="3" style="stroke:#038048;stroke-width:1;"/><text fill="#000000" font-family="sans-serif" font-size="14" lengthAdjust="spacing" textLength="45.3701" x="919.38" y="638.442">error()</text><ellipse cx="910.38" cy="651.3922" fill="#84BE84" rx="3" ry="3" style="stroke:#038048;stroke-width:1;"/><text fill="#000000" font-family="sans-serif" font-size="14" lengthAdjust="spacing" textLength="67.2314" x="919.38" y="654.7389">warning()</text></g><!--class MapperFactory--><g class="entity" data-entity="MapperFactory" data-source-line="48" data-uid="ent0012" id="entity_MapperFactory"><rect fill="#F1F1F1" height="64.2969" rx="2.5" ry="2.5" style="stroke:#181818;stroke-width:0.5;" width="143.0313" x="1050.48" y="581.45"/><ellipse cx="1068.0925" cy="597.45" fill="#ADD1B2" rx="11" ry="11" style="stroke:#181818;stroke-width:1;"/><path d="M1071.0613,603.0906 Q1070.4832,603.3875 1069.8425,603.5281 Q1069.2019,603.6844 1068.4988,603.6844 Q1065.9988,603.6844 1064.6707,602.0438 Q1063.3582,600.3875 1063.3582,597.2625 Q1063.3582,594.1375 1064.6707,592.4813 Q1065.9988,590.825 1068.4988,590.825 Q1069.2019,590.825 1069.8425,590.9813 Q1070.4988,591.1375 1071.0613,591.4344 L1071.0613,594.1531 Q1070.4363,593.575 1069.8425,593.3094 Q1069.2488,593.0281 1068.6238,593.0281 Q1067.28,593.0281 1066.5925,594.1063 Q1065.905,595.1688 1065.905,597.2625 Q1065.905,599.3563 1066.5925,600.4344 Q1067.28,601.4969 1068.6238,601.4969 Q1069.2488,601.4969 1069.8425,601.2313 Q1070.4363,600.95 1071.0613,600.3719 L1071.0613,603.0906 Z " fill="#000000"/><text fill="#000000" font-family="sans-serif" font-size="14" lengthAdjust="spacing" textLength="105.2256" x="1082.6731" y="602.2967">MapperFactory</text><line style="stroke:#181818;stroke-width:0.5;" x1="1051.48" x2="1192.5113" y1="613.45" y2="613.45"/><line style="stroke:#181818;stroke-width:0.5;" x1="1051.48" x2="1192.5113" y1="621.45" y2="621.45"/><ellipse cx="1061.48" cy="635.0984" fill="#84BE84" rx="3" ry="3" style="stroke:#038048;stroke-width:1;"/><text fill="#000000" font-family="sans-serif" font-size="14" lengthAdjust="spacing" textLength="117.0313" x="1070.48" y="638.4451">create_mapper()</text></g><!--class Mapper--><g class="entity" data-entity="Mapper" data-source-line="52" data-uid="ent0013" id="entity_Mapper"><rect fill="#F1F1F1" height="64.2969" rx="2.5" ry="2.5" style="stroke:#181818;stroke-width:0.5;" width="148.0762" x="1048.96" y="741.04"/><ellipse cx="1092.4339" cy="757.04" fill="#B4A7E5" rx="11" ry="11" style="stroke:#181818;stroke-width:1;"/><path d="M1088.3558,752.8056 L1088.3558,750.6494 L1095.7464,750.6494 L1095.7464,752.8056 L1093.2777,752.8056 L1093.2777,760.8838 L1095.7464,760.8838 L1095.7464,763.04 L1088.3558,763.04 L1088.3558,760.8838 L1090.8246,760.8838 L1090.8246,752.8056 L1088.3558,752.8056 Z " fill="#000000"/><text fill="#000000" font-family="sans-serif" font-size="14" font-style="italic" lengthAdjust="spacing" textLength="52.8008" x="1112.7615" y="761.8867">Mapper</text><line style="stroke:#181818;stroke-width:0.5;" x1="1049.96" x2="1196.0362" y1="773.04" y2="773.04"/><line style="stroke:#181818;stroke-width:0.5;" x1="1049.96" x2="1196.0362" y1="781.04" y2="781.04"/><ellipse cx="1059.96" cy="794.6884" fill="#84BE84" rx="3" ry="3" style="stroke:#038048;stroke-width:1;"/><text fill="#000000" font-family="sans-serif" font-size="14" lengthAdjust="spacing" textLength="122.0762" x="1068.96" y="798.0351">map_dataframe()</text></g><!--class MedtronicsPipeline--><g class="entity" data-entity="MedtronicsPipeline" data-source-line="58" data-uid="ent0015" id="entity_MedtronicsPipeline"><rect fill="#F1F1F1" height="145.7813" rx="2.5" ry="2.5" style="stroke:#181818;stroke-width:0.5;" width="164.2412" x="795.88" y="41"/><ellipse cx="810.88" cy="57" fill="#ADD1B2" rx="11" ry="11" style="stroke:#181818;stroke-width:1;"/><path d="M813.8488,62.6406 Q813.2706,62.9375 812.63,63.0781 Q811.9894,63.2344 811.2863,63.2344 Q808.7863,63.2344 807.4581,61.5938 Q806.1456,59.9375 806.1456,56.8125 Q806.1456,53.6875 807.4581,52.0313 Q808.7863,50.375 811.2863,50.375 Q811.9894,50.375 812.63,50.5313 Q813.2863,50.6875 813.8488,50.9844 L813.8488,53.7031 Q813.2238,53.125 812.63,52.8594 Q812.0363,52.5781 811.4113,52.5781 Q810.0675,52.5781 809.38,53.6563 Q808.6925,54.7188 808.6925,56.8125 Q808.6925,58.9063 809.38,59.9844 Q810.0675,61.0469 811.4113,61.0469 Q812.0363,61.0469 812.63,60.7813 Q813.2238,60.5 813.8488,59.9219 L813.8488,62.6406 Z " fill="#000000"/><text fill="#000000" font-family="sans-serif" font-size="14" lengthAdjust="spacing" textLength="132.2412" x="824.88" y="61.8467">MedtronicsPipeline</text><line style="stroke:#181818;stroke-width:0.5;" x1="796.88" x2="959.1212" y1="73" y2="73"/><rect fill="none" height="6" style="stroke:#C82930;stroke-width:1;" width="6" x="803.88" y="83.6484"/><text fill="#000000" font-family="sans-serif" font-size="14" lengthAdjust="spacing" textLength="121.8232" x="815.88" y="89.9951">staging_manager</text><line style="stroke:#181818;stroke-width:0.5;" x1="796.88" x2="959.1212" y1="97.2969" y2="97.2969"/><ellipse cx="806.88" cy="110.9453" fill="#84BE84" rx="3" ry="3" style="stroke:#038048;stroke-width:1;"/><text fill="#000000" font-family="sans-serif" font-size="14" lengthAdjust="spacing" textLength="60.833" x="815.88" y="114.292">extract()</text><ellipse cx="806.88" cy="127.2422" fill="#84BE84" rx="3" ry="3" style="stroke:#038048;stroke-width:1;"/><text fill="#000000" font-family="sans-serif" font-size="14" lengthAdjust="spacing" textLength="65.0918" x="815.88" y="130.5889">analyze()</text><ellipse cx="806.88" cy="143.5391" fill="#84BE84" rx="3" ry="3" style="stroke:#038048;stroke-width:1;"/><text fill="#000000" font-family="sans-serif" font-size="14" lengthAdjust="spacing" textLength="67.1357" x="815.88" y="146.8857">validate()</text><ellipse cx="806.88" cy="159.8359" fill="#84BE84" rx="3" ry="3" style="stroke:#038048;stroke-width:1;"/><text fill="#000000" font-family="sans-serif" font-size="14" lengthAdjust="spacing" textLength="88.3203" x="815.88" y="163.1826">stage_data()</text><ellipse cx="806.88" cy="176.1328" fill="#84BE84" rx="3" ry="3" style="stroke:#038048;stroke-width:1;"/><text fill="#000000" font-family="sans-serif" font-size="14" lengthAdjust="spacing" textLength="56.5195" x="815.88" y="179.4795">export()</text></g><g class="entity" data-entity="N1" data-source-line="82" data-uid="ent0024" id="entity_N1"><path d="M92.75,101.32 L92.75,126.4528 L289.25,126.4528 L289.25,111.32 L279.25,101.32 L92.75,101.32 " fill="#FEFFDD" style="stroke:#181818;stroke-width:0.5;"/><path d="M279.25,101.32 L279.25,111.32 L289.25,111.32 L279.25,101.32 " fill="#FEFFDD" style="stroke:#181818;stroke-width:1;"/><text fill="#000000" font-family="sans-serif" font-size="13" lengthAdjust="spacing" textLength="175.5" x="98.75" y="118.3869">Dependency Injection Flow</text></g><g class="entity" data-entity="N2" data-source-line="83" data-uid="ent0025" id="entity_N2"><path d="M6,363.4 L6,388.5328 L375.9941,388.5328 L375.9941,373.4 L365.9941,363.4 L6,363.4 " fill="#FEFFDD" style="stroke:#181818;stroke-width:0.5;"/><path d="M365.9941,363.4 L365.9941,373.4 L375.9941,373.4 L365.9941,363.4 " fill="#FEFFDD" style="stroke:#181818;stroke-width:1;"/><text fill="#000000" font-family="sans-serif" font-size="13" lengthAdjust="spacing" textLength="348.9941" x="12" y="380.4669">1. External dependencies are injected via constructor</text></g><g class="entity" data-entity="N3" data-source-line="84" data-uid="ent0026" id="entity_N3"><path d="M11.49,601.03 L11.49,626.1628 L370.5027,626.1628 L370.5027,611.03 L360.5027,601.03 L11.49,601.03 " fill="#FEFFDD" style="stroke:#181818;stroke-width:0.5;"/><path d="M360.5027,601.03 L360.5027,611.03 L370.5027,611.03 L360.5027,601.03 " fill="#FEFFDD" style="stroke:#181818;stroke-width:1;"/><text fill="#000000" font-family="sans-serif" font-size="13" lengthAdjust="spacing" textLength="338.0127" x="17.49" y="618.0969">2. Default implementations are used if not provided</text></g><g class="entity" data-entity="N4" data-source-line="85" data-uid="ent0027" id="entity_N4"><path d="M33.04,760.63 L33.04,785.7628 L348.9458,785.7628 L348.9458,770.63 L338.9458,760.63 L33.04,760.63 " fill="#FEFFDD" style="stroke:#181818;stroke-width:0.5;"/><path d="M338.9458,760.63 L338.9458,770.63 L348.9458,770.63 L338.9458,760.63 " fill="#FEFFDD" style="stroke:#181818;stroke-width:1;"/><text fill="#000000" font-family="sans-serif" font-size="13" lengthAdjust="spacing" textLength="294.9058" x="39.04" y="777.6969">3. This allows for easier testing and flexibility</text></g><!--link MedtronicsPipeline to SQLiteStagingManager--><g class="link" data-entity-1="MedtronicsPipeline" data-entity-2="SQLiteStagingManager" data-source-line="69" data-uid="lnk16" id="link_MedtronicsPipeline_SQLiteStagingManager"><path codeLine="69" d="M902.95,186.99 C913.61,217.81 924.1977,248.41 935.4177,280.83 " fill="none" id="MedtronicsPipeline-to-SQLiteStagingManager" style="stroke:#181818;stroke-width:1;"/><polygon fill="#181818" points="937.38,286.5,938.2166,276.6867,935.7447,281.775,930.6565,279.3031,937.38,286.5" style="stroke:#181818;stroke-width:1;"/><text fill="#000000" font-family="sans-serif" font-size="13" lengthAdjust="spacing" textLength="29.7832" x="918" y="231.8469">uses</text></g><!--link MedtronicsPipeline to ExcelExtractor--><g class="link" data-entity-1="MedtronicsPipeline" data-entity-2="ExcelExtractor" data-source-line="70" data-uid="lnk17" id="link_MedtronicsPipeline_ExcelExtractor"><path codeLine="70" d="M795.49,169.58 C762.55,191.98 724.55,218.53 691,243.78 C659.28,267.64 629.7516,291.5116 601.1816,315.2916 " fill="none" id="MedtronicsPipeline-to-ExcelExtractor" style="stroke:#181818;stroke-width:1;stroke-dasharray:7.0,7.0;"/><polygon fill="#181818" points="596.57,319.13,606.0463,316.4468,600.413,315.9313,600.9284,310.298,596.57,319.13" style="stroke:#181818;stroke-width:1;"/><text fill="#000000" font-family="sans-serif" font-size="13" lengthAdjust="spacing" textLength="94.5229" x="721" y="231.8469">uses indirectly</text></g><!--link SQLiteStagingManager to Logger--><g class="link" data-entity-1="SQLiteStagingManager" data-entity-2="Logger" data-source-line="72" data-uid="lnk18" id="link_SQLiteStagingManager_Logger"><path codeLine="72" d="M959.74,465.38 C956.6,499.07 953.6868,530.2159 951.0268,558.7559 " fill="none" id="SQLiteStagingManager-to-Logger" style="stroke:#181818;stroke-width:1;stroke-dasharray:7.0,7.0;"/><polygon fill="#181818" points="950.47,564.73,955.2879,556.14,950.934,559.7516,947.3225,555.3976,950.47,564.73" style="stroke:#181818;stroke-width:1;"/><text fill="#000000" font-family="sans-serif" font-size="13" lengthAdjust="spacing" textLength="76.0894" x="957" y="510.2169">depends on</text></g><!--link SQLiteStagingManager to ConnectionFactory--><g class="link" data-entity-1="SQLiteStagingManager" data-entity-2="ConnectionFactory" data-source-line="73" data-uid="lnk19" id="link_SQLiteStagingManager_ConnectionFactory"><path codeLine="73" d="M894.36,465.59 C885.75,476.18 877.14,486.88 869,497.15 C846.77,525.2 825.7359,552.8544 808.1859,576.1944 " fill="none" id="SQLiteStagingManager-to-ConnectionFactory" style="stroke:#181818;stroke-width:1;stroke-dasharray:7.0,7.0;"/><polygon fill="#181818" points="804.58,580.99,813.1859,576.2006,807.5849,576.9937,806.7918,571.3927,804.58,580.99" style="stroke:#181818;stroke-width:1;"/><text fill="#000000" font-family="sans-serif" font-size="13" lengthAdjust="spacing" textLength="76.0894" x="870" y="510.2169">depends on</text></g><!--link SQLiteStagingManager to MapperFactory--><g class="link" data-entity-1="SQLiteStagingManager" data-entity-2="MapperFactory" data-source-line="74" data-uid="lnk20" id="link_SQLiteStagingManager_MapperFactory"><path codeLine="74" d="M1025.78,465.38 C1052.32,505.99 1078.8371,546.5578 1098.1471,576.0978 " fill="none" id="SQLiteStagingManager-to-MapperFactory" style="stroke:#181818;stroke-width:1;stroke-dasharray:7.0,7.0;"/><polygon fill="#181818" points="1101.43,581.12,1099.8537,571.3981,1098.6942,576.9349,1093.1575,575.7754,1101.43,581.12" style="stroke:#181818;stroke-width:1;"/><text fill="#000000" font-family="sans-serif" font-size="13" lengthAdjust="spacing" textLength="29.7832" x="1055" y="510.2169">uses</text></g><!--link ExcelExtractor to UploadService--><g class="link" data-entity-1="ExcelExtractor" data-entity-2="UploadService" data-source-line="76" data-uid="lnk21" id="link_ExcelExtractor_UploadService"><path codeLine="76" d="M546.64,432.81 C559.6,479.08 575.9319,537.4023 586.5319,575.2523 " fill="none" id="ExcelExtractor-to-UploadService" style="stroke:#181818;stroke-width:1;stroke-dasharray:7.0,7.0;"/><polygon fill="#181818" points="588.15,581.03,589.5747,571.2847,586.8016,576.2152,581.8711,573.4422,588.15,581.03" style="stroke:#181818;stroke-width:1;"/><text fill="#000000" font-family="sans-serif" font-size="13" lengthAdjust="spacing" textLength="76.0894" x="568" y="510.2169">depends on</text></g><!--link ExtractorFactory to ExcelExtractor--><g class="link" data-entity-1="ExtractorFactory" data-entity-2="ExcelExtractor" data-source-line="77" data-uid="lnk22" id="link_ExtractorFactory_ExcelExtractor"><path codeLine="77" d="M531,170.68 C531,214.56 531,269.41 531,313.26 " fill="none" id="ExtractorFactory-to-ExcelExtractor" style="stroke:#181818;stroke-width:1;stroke-dasharray:7.0,7.0;"/><polygon fill="#181818" points="531,319.26,535,310.26,531,314.26,527,310.26,531,319.26" style="stroke:#181818;stroke-width:1;"/><text fill="#000000" font-family="sans-serif" font-size="13" lengthAdjust="spacing" textLength="48.3247" x="532" y="231.8469">creates</text></g><!--link MapperFactory to Mapper--><g class="link" data-entity-1="MapperFactory" data-entity-2="Mapper" data-source-line="79" data-uid="lnk23" id="link_MapperFactory_Mapper"><path codeLine="79" d="M1122.2,646.11 C1122.37,673.6 1122.5807,707.2601 1122.7607,734.7301 " fill="none" id="MapperFactory-to-Mapper" style="stroke:#181818;stroke-width:1;stroke-dasharray:7.0,7.0;"/><polygon fill="#181818" points="1122.8,740.73,1126.7409,731.704,1122.7672,735.7301,1118.7411,731.7564,1122.8,740.73" style="stroke:#181818;stroke-width:1;"/><text fill="#000000" font-family="sans-serif" font-size="13" lengthAdjust="spacing" textLength="48.3247" x="1123" y="707.1069">creates</text></g><!--link N1 to N2--><g class="link" data-entity-1="N1" data-entity-2="N2" data-source-line="87" data-uid="lnk28" id="link_N1_N2"><path codeLine="87" d="M191,126.74 C191,170.06 191,319.6 191,363.04 " fill="none" id="N1-N2" style="stroke:#181818;stroke-width:1;stroke-dasharray:7.0,7.0;"/></g><!--link N2 to N3--><g class="link" data-entity-1="N2" data-entity-2="N3" data-source-line="88" data-uid="lnk29" id="link_N2_N3"><path codeLine="88" d="M191,388.97 C191,429.39 191,560.23 191,600.61 " fill="none" id="N2-N3" style="stroke:#181818;stroke-width:1;stroke-dasharray:7.0,7.0;"/></g><!--link N3 to N4--><g class="link" data-entity-1="N3" data-entity-2="N4" data-source-line="89" data-uid="lnk30" id="link_N3_N4"><path codeLine="89" d="M191,626.44 C191,655.65 191,730.86 191,760.21 " fill="none" id="N3-N4" style="stroke:#181818;stroke-width:1;stroke-dasharray:7.0,7.0;"/></g><!--SRC=[ZLLDJnin4Btlhx2uGDKI2S89gLmAI9KWQaLxjipkR3AjrxPi9n0g_dl7N_j15ea3oEkPUNxpvjavPjVGeW9Mwyve1SgxoeZwhrW3ExfvzbRKNbjtnFvLZDLIECTkdckGVIW663lT6gb5mntO7TOGzpvpZWezvoVJuDSL7VGffK32EPb-Sg4eM-mWxh_It-ZqVF1j_B_Fvt-si4RdmN8e2GLp3VvmysFdlbQ36DV2YqVXO2p5myyxzF3WnHhL-bueIkm5aNfDNsbTQwMWzgWLRnFjjE_g3NI26-4tRnHBrL6fB-omF0T6zMDH0mOAYI_0cyVIOcYBDzH4QqK7t6lk4k-nJWPKGrkSkkfS2MmDbK7S2pL-wsRaUKYppKv1HQCWhXJu7MUVmqTCE3RPAVFB5cbHJeO-0lhMgv177y4ETWjWRI6m7hHx1_OkAXsnqh80e6frxmzh1-yy2QkARbCHxeKnCBqjQMkUMnTZx_1AXP5NMfPYgXhcE4FY1ngGTAKdBA3nLYkiNOaMcsOJ49VetjdRGI6vVu7okIDh1KVqpYA8PAtXEXbj_S3jkBmo5gG8it0RDAwQONLwUZL_goxPri5ioM9nzVPDIicaPeEMXY_tLJKB6ahpq2zP0y7zZcdrVlAXspvMDtL1xgLwmpeaJk_61FpWvPjjF5cBmAT73YJ6EVrSqZ6WwZs9zYTro5gfdrobj0-ltv3mlK-ufOHeqDLPJZjRX0SQB1bcm4GQXR2GaQ5XEnJXJNFURWEx176U8SuNWPJOIi-mCn8w-arAdeaWf5p3i6MKp8pLEsoWIG3B3B1Si5yRf6mP-BEMP07Xa3gddZqDXj4hJyt1CpwYH9_UaTL5LQtEIAV0P7KU5yjgjOoBY_y0]--></g></svg>