<svg xmlns="http://www.w3.org/2000/svg" xmlns:xlink="http://www.w3.org/1999/xlink" contentStyleType="text/css" data-diagram-type="ACTIVITY" height="1206px" preserveAspectRatio="none" style="width:3479px;height:1206px;background:#FFFFFF;" version="1.1" viewBox="0 0 3479 1206" width="3479px" zoomAndPan="magnify"><title>ML Classification Data Flow</title><defs/><g><text fill="#000000" font-family="sans-serif" font-size="14" font-weight="bold" lengthAdjust="spacing" textLength="217.2939" x="1629.406" y="32.9951">ML Classification Data Flow</text><rect fill="none" height="20.9531" style="stroke:none;stroke-width:1;" width="3446.106" x="15" y="50.042"/><rect fill="#E3F2FD" height="1143.9844" style="stroke:#E3F2FD;stroke-width:1;" width="398.3975" x="15" y="50.042"/><ellipse cx="133.1025" cy="85.9951" fill="#222222" rx="10" ry="10" style="stroke:#222222;stroke-width:1;"/><path d="M265.2051,105.9951 L265.2051,175.0928 L245.2051,179.0928 L265.2051,183.0928 L265.2051,252.1904 A0,0 0 0 0 265.2051,252.1904 L408.3975,252.1904 A0,0 0 0 0 408.3975,252.1904 L408.3975,115.9951 L398.3975,105.9951 L265.2051,105.9951 A0,0 0 0 0 265.2051,105.9951 " fill="#FFF9C4" style="stroke:#FFD54F;stroke-width:0.5;"/><path d="M398.3975,105.9951 L398.3975,115.9951 L408.3975,115.9951 L398.3975,105.9951 " fill="#FFF9C4" style="stroke:#FFD54F;stroke-width:0.5;"/><text fill="#000000" font-family="sans-serif" font-size="13" lengthAdjust="spacing" textLength="60.9375" x="271.2051" y="123.062">Columns:</text><text fill="#000000" font-family="sans-serif" font-size="13" lengthAdjust="spacing" textLength="86.8423" x="271.2051" y="138.1948">- Asset Name</text><text fill="#000000" font-family="sans-serif" font-size="13" lengthAdjust="spacing" textLength="72.6489" x="271.2051" y="153.3276">- Asset Tag</text><text fill="#000000" font-family="sans-serif" font-size="13" lengthAdjust="spacing" textLength="46.3252" x="271.2051" y="168.4604">- Trade</text><text fill="#000000" font-family="sans-serif" font-size="13" lengthAdjust="spacing" textLength="120.8149" x="271.2051" y="183.5933">- System Category</text><text fill="#000000" font-family="sans-serif" font-size="13" lengthAdjust="spacing" textLength="122.1924" x="271.2051" y="198.7261">- Sub System Type</text><text fill="#000000" font-family="sans-serif" font-size="13" lengthAdjust="spacing" textLength="96.1987" x="271.2051" y="213.8589">- Manufacturer</text><text fill="#000000" font-family="sans-serif" font-size="13" lengthAdjust="spacing" textLength="104.2095" x="271.2051" y="228.9917">- Model Number</text><text fill="#000000" font-family="sans-serif" font-size="13" lengthAdjust="spacing" textLength="84.4302" x="271.2051" y="244.1245">- Service Life</text><rect fill="#EEEEEE" height="33.9688" rx="12.5" ry="12.5" style="stroke:#666666;stroke-width:0.5;" width="224.2051" x="21" y="162.1084"/><text fill="#000000" font-family="sans-serif" font-size="12" lengthAdjust="spacing" textLength="204.2051" x="31" y="183.2471">Load staging data from CSV/Excel</text><line style="stroke:#000000;stroke-width:1.5;" x1="15" x2="15" y1="50.042" y2="1194.0264"/><rect fill="#E8F5E9" height="1143.9844" style="stroke:#E8F5E9;stroke-width:1;" width="571.9751" x="413.3975" y="50.042"/><path d="M709.2178,262.1904 L709.2178,301.0225 L689.2178,305.0225 L709.2178,309.0225 L709.2178,347.8545 A0,0 0 0 0 709.2178,347.8545 L980.3726,347.8545 A0,0 0 0 0 980.3726,347.8545 L980.3726,272.1904 L970.3726,262.1904 L709.2178,262.1904 A0,0 0 0 0 709.2178,262.1904 " fill="#FFF9C4" style="stroke:#FFD54F;stroke-width:0.5;"/><path d="M970.3726,262.1904 L970.3726,272.1904 L980.3726,272.1904 L970.3726,262.1904 " fill="#FFF9C4" style="stroke:#FFD54F;stroke-width:0.5;"/><text fill="#000000" font-family="sans-serif" font-size="13" lengthAdjust="spacing" textLength="163.4458" x="715.2178" y="279.2573">Data Mapper transforms:</text><text fill="#000000" font-family="sans-serif" font-size="13" lengthAdjust="spacing" textLength="250.1548" x="715.2178" y="294.3901">- Asset Name &#226;&#8224;&#8217; Equipment_Category</text><text fill="#000000" font-family="sans-serif" font-size="13" lengthAdjust="spacing" textLength="178.8579" x="715.2178" y="309.5229">- Trade &#226;&#8224;&#8217; Uniformat_Class</text><text fill="#000000" font-family="sans-serif" font-size="13" lengthAdjust="spacing" textLength="234.5396" x="715.2178" y="324.6558">- System Category &#226;&#8224;&#8217; System_Type</text><text fill="#000000" font-family="sans-serif" font-size="13" lengthAdjust="spacing" textLength="33.1982" x="715.2178" y="339.7886">- etc.</text><rect fill="#EEEEEE" height="33.9688" rx="12.5" ry="12.5" style="stroke:#666666;stroke-width:0.5;" width="269.8203" x="419.3975" y="288.0381"/><text fill="#000000" font-family="sans-serif" font-size="12" lengthAdjust="spacing" textLength="249.8203" x="429.3975" y="309.1768">Map staging columns to ML model format</text><path d="M652.4932,357.8545 L652.4932,381.5537 L632.4932,385.5537 L652.4932,389.5537 L652.4932,413.2529 A0,0 0 0 0 652.4932,413.2529 L857.6514,413.2529 A0,0 0 0 0 857.6514,413.2529 L857.6514,367.8545 L847.6514,357.8545 L652.4932,357.8545 A0,0 0 0 0 652.4932,357.8545 " fill="#FFF9C4" style="stroke:#FFD54F;stroke-width:0.5;"/><path d="M847.6514,357.8545 L847.6514,367.8545 L857.6514,367.8545 L847.6514,357.8545 " fill="#FFF9C4" style="stroke:#FFD54F;stroke-width:0.5;"/><text fill="#000000" font-family="sans-serif" font-size="13" lengthAdjust="spacing" textLength="184.1582" x="658.4932" y="374.9214">- Service Life &#226;&#8224;&#8217; service_life</text><text fill="#000000" font-family="sans-serif" font-size="13" lengthAdjust="spacing" textLength="157.0029" x="658.4932" y="390.0542">- Motor HP &#226;&#8224;&#8217; motor_hp</text><text fill="#000000" font-family="sans-serif" font-size="13" lengthAdjust="spacing" textLength="164.4297" x="658.4932" y="405.187">- Size &#226;&#8224;&#8217; equipment_size</text><rect fill="#EEEEEE" height="33.9688" rx="12.5" ry="12.5" style="stroke:#666666;stroke-width:0.5;" width="156.3711" x="476.1221" y="368.5693"/><text fill="#000000" font-family="sans-serif" font-size="12" lengthAdjust="spacing" textLength="136.3711" x="486.1221" y="389.708">Convert numeric fields</text><line style="stroke:#000000;stroke-width:1.5;" x1="413.3975" x2="413.3975" y1="50.042" y2="1194.0264"/><rect fill="#FFF3E0" height="1143.9844" style="stroke:#FFF3E0;stroke-width:1;" width="634.2905" x="985.3726" y="50.042"/><path d="M1189.5376,423.2529 L1189.5376,469.6514 L1169.5376,473.6514 L1189.5376,477.6514 L1189.5376,524.0498 A0,0 0 0 0 1189.5376,524.0498 L1420.3403,524.0498 A0,0 0 0 0 1420.3403,524.0498 L1420.3403,433.2529 L1410.3403,423.2529 L1189.5376,423.2529 A0,0 0 0 0 1189.5376,423.2529 " fill="#FFF9C4" style="stroke:#FFD54F;stroke-width:0.5;"/><path d="M1410.3403,423.2529 L1410.3403,433.2529 L1420.3403,433.2529 L1410.3403,423.2529 " fill="#FFF9C4" style="stroke:#FFD54F;stroke-width:0.5;"/><text fill="#000000" font-family="sans-serif" font-size="13" lengthAdjust="spacing" textLength="209.8027" x="1195.5376" y="440.3198">Combined text feature includes:</text><text fill="#000000" font-family="sans-serif" font-size="13" lengthAdjust="spacing" textLength="86.8423" x="1195.5376" y="455.4526">- Asset Name</text><text fill="#000000" font-family="sans-serif" font-size="13" lengthAdjust="spacing" textLength="96.1987" x="1195.5376" y="470.5854">- Manufacturer</text><text fill="#000000" font-family="sans-serif" font-size="13" lengthAdjust="spacing" textLength="104.2095" x="1195.5376" y="485.7183">- Model Number</text><text fill="#000000" font-family="sans-serif" font-size="13" lengthAdjust="spacing" textLength="120.8149" x="1195.5376" y="500.8511">- System Category</text><text fill="#000000" font-family="sans-serif" font-size="13" lengthAdjust="spacing" textLength="122.1924" x="1195.5376" y="515.9839">- Sub System Type</text><rect fill="#EEEEEE" height="33.9688" rx="12.5" ry="12.5" style="stroke:#666666;stroke-width:0.5;" width="155.2988" x="1014.2388" y="456.667"/><text fill="#000000" font-family="sans-serif" font-size="12" lengthAdjust="spacing" textLength="135.2988" x="1024.2388" y="477.8057">Combine text columns</text><path d="M1212.4038,540.9014 L1212.4038,557.0342 L1192.4038,561.0342 L1212.4038,565.0342 L1212.4038,581.167 A0,0 0 0 0 1212.4038,581.167 L1614.6631,581.167 A0,0 0 0 0 1614.6631,581.167 L1614.6631,550.9014 L1604.6631,540.9014 L1212.4038,540.9014 A0,0 0 0 0 1212.4038,540.9014 " fill="#FFF9C4" style="stroke:#FFD54F;stroke-width:0.5;"/><path d="M1604.6631,540.9014 L1604.6631,550.9014 L1614.6631,550.9014 L1604.6631,540.9014 " fill="#FFF9C4" style="stroke:#FFD54F;stroke-width:0.5;"/><text fill="#000000" font-family="sans-serif" font-size="13" lengthAdjust="spacing" textLength="346.0996" x="1218.4038" y="557.9683">- Equipment_Type = System Category + Asset Name</text><text fill="#000000" font-family="sans-serif" font-size="13" lengthAdjust="spacing" textLength="381.2593" x="1218.4038" y="573.1011">- System_Subtype = System Category + Sub System Type</text><rect fill="#EEEEEE" height="33.9688" rx="12.5" ry="12.5" style="stroke:#666666;stroke-width:0.5;" width="201.0313" x="991.3726" y="544.0498"/><text fill="#000000" font-family="sans-serif" font-size="12" lengthAdjust="spacing" textLength="181.0313" x="1001.3726" y="565.1885">Create hierarchical categories</text><path d="M1194.272,598.0186 L1194.272,614.1514 L1174.272,618.1514 L1194.272,622.1514 L1194.272,638.2842 A0,0 0 0 0 1194.272,638.2842 L1475.6592,638.2842 A0,0 0 0 0 1475.6592,638.2842 L1475.6592,608.0186 L1465.6592,598.0186 L1194.272,598.0186 A0,0 0 0 0 1194.272,598.0186 " fill="#FFF9C4" style="stroke:#FFD54F;stroke-width:0.5;"/><path d="M1465.6592,598.0186 L1465.6592,608.0186 L1475.6592,608.0186 L1465.6592,598.0186 " fill="#FFF9C4" style="stroke:#FFD54F;stroke-width:0.5;"/><text fill="#000000" font-family="sans-serif" font-size="13" lengthAdjust="spacing" textLength="260.3872" x="1200.272" y="615.0854">Maps source columns to target columns</text><text fill="#000000" font-family="sans-serif" font-size="13" lengthAdjust="spacing" textLength="185.3008" x="1200.272" y="630.2183">based on feature_config.yml</text><rect fill="#EEEEEE" height="33.9688" rx="12.5" ry="12.5" style="stroke:#666666;stroke-width:0.5;" width="164.7676" x="1009.5044" y="601.167"/><text fill="#000000" font-family="sans-serif" font-size="12" lengthAdjust="spacing" textLength="144.7676" x="1019.5044" y="622.3057">Apply column mappings</text><line style="stroke:#000000;stroke-width:1.5;" x1="985.3726" x2="985.3726" y1="50.042" y2="1194.0264"/><rect fill="#F3E5F5" height="1143.9844" style="stroke:#F3E5F5;stroke-width:1;" width="448.7476" x="1619.6631" y="50.042"/><rect fill="#EEEEEE" height="33.9688" rx="12.5" ry="12.5" style="stroke:#666666;stroke-width:0.5;" width="182.1816" x="1636.6934" y="658.2842"/><text fill="#000000" font-family="sans-serif" font-size="12" lengthAdjust="spacing" textLength="162.1816" x="1646.6934" y="679.4229">Vectorize text using TF-IDF</text><path d="M1849.9053,709.1045 L1849.9053,725.2373 L1829.9053,729.2373 L1849.9053,733.2373 L1849.9053,749.3701 A0,0 0 0 0 1849.9053,749.3701 L2063.4106,749.3701 A0,0 0 0 0 2063.4106,749.3701 L2063.4106,719.1045 L2053.4106,709.1045 L1849.9053,709.1045 A0,0 0 0 0 1849.9053,709.1045 " fill="#FFF9C4" style="stroke:#FFD54F;stroke-width:0.5;"/><path d="M2053.4106,709.1045 L2053.4106,719.1045 L2063.4106,719.1045 L2053.4106,709.1045 " fill="#FFF9C4" style="stroke:#FFD54F;stroke-width:0.5;"/><text fill="#000000" font-family="sans-serif" font-size="13" lengthAdjust="spacing" textLength="185.7642" x="1855.9053" y="726.1714">Uses balanced class weights</text><text fill="#000000" font-family="sans-serif" font-size="13" lengthAdjust="spacing" textLength="192.5054" x="1855.9053" y="741.3042">to handle imbalanced classes</text><rect fill="#EEEEEE" height="33.9688" rx="12.5" ry="12.5" style="stroke:#666666;stroke-width:0.5;" width="204.2422" x="1625.6631" y="712.2529"/><text fill="#000000" font-family="sans-serif" font-size="12" lengthAdjust="spacing" textLength="184.2422" x="1635.6631" y="733.3916">Train Random Forest Classifier</text><path d="M1821.0742,759.3701 L1821.0742,805.7686 L1801.0742,809.7686 L1821.0742,813.7686 L1821.0742,860.167 A0,0 0 0 0 1821.0742,860.167 L1987.3467,860.167 A0,0 0 0 0 1987.3467,860.167 L1987.3467,769.3701 L1977.3467,759.3701 L1821.0742,759.3701 A0,0 0 0 0 1821.0742,759.3701 " fill="#FFF9C4" style="stroke:#FFD54F;stroke-width:0.5;"/><path d="M1977.3467,759.3701 L1977.3467,769.3701 L1987.3467,769.3701 L1977.3467,759.3701 " fill="#FFF9C4" style="stroke:#FFD54F;stroke-width:0.5;"/><text fill="#000000" font-family="sans-serif" font-size="13" lengthAdjust="spacing" textLength="56.4434" x="1827.0742" y="776.437">Predicts:</text><text fill="#000000" font-family="sans-serif" font-size="13" lengthAdjust="spacing" textLength="145.2725" x="1827.0742" y="791.5698">- Equipment_Category</text><text fill="#000000" font-family="sans-serif" font-size="13" lengthAdjust="spacing" textLength="114.4927" x="1827.0742" y="806.7026">- Uniformat_Class</text><text fill="#000000" font-family="sans-serif" font-size="13" lengthAdjust="spacing" textLength="95.6846" x="1827.0742" y="821.8354">- System_Type</text><text fill="#000000" font-family="sans-serif" font-size="13" lengthAdjust="spacing" textLength="117.7744" x="1827.0742" y="836.9683">- Equipment_Type</text><text fill="#000000" font-family="sans-serif" font-size="13" lengthAdjust="spacing" textLength="117.584" x="1827.0742" y="852.1011">- System_Subtype</text><rect fill="#EEEEEE" height="33.9688" rx="12.5" ry="12.5" style="stroke:#666666;stroke-width:0.5;" width="146.5801" x="1654.4941" y="792.7842"/><text fill="#000000" font-family="sans-serif" font-size="12" lengthAdjust="spacing" textLength="126.5801" x="1664.4941" y="813.9229">Generate predictions</text><line style="stroke:#000000;stroke-width:1.5;" x1="1619.6631" x2="1619.6631" y1="50.042" y2="1194.0264"/><rect fill="#E0F2F1" height="1143.9844" style="stroke:#E0F2F1;stroke-width:1;" width="420.7324" x="2068.4106" y="50.042"/><path d="M2263.3647,870.167 L2263.3647,893.8662 L2243.3647,897.8662 L2263.3647,901.8662 L2263.3647,925.5654 A0,0 0 0 0 2263.3647,925.5654 L2404.4307,925.5654 A0,0 0 0 0 2404.4307,925.5654 L2404.4307,880.167 L2394.4307,870.167 L2263.3647,870.167 A0,0 0 0 0 2263.3647,870.167 " fill="#FFF9C4" style="stroke:#FFD54F;stroke-width:0.5;"/><path d="M2394.4307,870.167 L2394.4307,880.167 L2404.4307,880.167 L2394.4307,870.167 " fill="#FFF9C4" style="stroke:#FFD54F;stroke-width:0.5;"/><text fill="#000000" font-family="sans-serif" font-size="13" lengthAdjust="spacing" textLength="98.1157" x="2269.3647" y="887.2339">- OmniClass_ID</text><text fill="#000000" font-family="sans-serif" font-size="13" lengthAdjust="spacing" textLength="94.1357" x="2269.3647" y="902.3667">- Uniformat_ID</text><text fill="#000000" font-family="sans-serif" font-size="13" lengthAdjust="spacing" textLength="120.0659" x="2269.3647" y="917.4995">- MasterFormat_ID</text><rect fill="#EEEEEE" height="33.9688" rx="12.5" ry="12.5" style="stroke:#666666;stroke-width:0.5;" width="147.7227" x="2095.6421" y="880.8818"/><text fill="#000000" font-family="sans-serif" font-size="12" lengthAdjust="spacing" textLength="127.7227" x="2105.6421" y="902.0205">Add classification IDs</text><path d="M2284.5962,935.5654 L2284.5962,959.2646 L2264.5962,963.2646 L2284.5962,967.2646 L2284.5962,990.9639 A0,0 0 0 0 2284.5962,990.9639 L2484.1431,990.9639 A0,0 0 0 0 2484.1431,990.9639 L2484.1431,945.5654 L2474.1431,935.5654 L2284.5962,935.5654 A0,0 0 0 0 2284.5962,935.5654 " fill="#FFF9C4" style="stroke:#FFD54F;stroke-width:0.5;"/><path d="M2474.1431,935.5654 L2474.1431,945.5654 L2484.1431,945.5654 L2474.1431,935.5654 " fill="#FFF9C4" style="stroke:#FFD54F;stroke-width:0.5;"/><text fill="#000000" font-family="sans-serif" font-size="13" lengthAdjust="spacing" textLength="178.5469" x="2290.5962" y="952.6323">Creates equipment-specific</text><text fill="#000000" font-family="sans-serif" font-size="13" lengthAdjust="spacing" textLength="169.6665" x="2290.5962" y="967.7651">attribute templates based</text><text fill="#000000" font-family="sans-serif" font-size="13" lengthAdjust="spacing" textLength="123.8491" x="2290.5962" y="982.8979">on equipment type</text><rect fill="#EEEEEE" height="33.9688" rx="12.5" ry="12.5" style="stroke:#666666;stroke-width:0.5;" width="190.1855" x="2074.4106" y="946.2803"/><text fill="#000000" font-family="sans-serif" font-size="12" lengthAdjust="spacing" textLength="170.1855" x="2084.4106" y="967.4189">Generate attribute template</text><line style="stroke:#000000;stroke-width:1.5;" x1="2068.4106" x2="2068.4106" y1="50.042" y2="1194.0264"/><rect fill="#FFEBEE" height="1143.9844" style="stroke:#FFEBEE;stroke-width:1;" width="522.1704" x="2489.1431" y="50.042"/><path d="M2717.8677,1000.9639 L2717.8677,1039.7959 L2697.8677,1043.7959 L2717.8677,1047.7959 L2717.8677,1086.6279 A0,0 0 0 0 2717.8677,1086.6279 L3006.3135,1086.6279 A0,0 0 0 0 3006.3135,1086.6279 L3006.3135,1010.9639 L2996.3135,1000.9639 L2717.8677,1000.9639 A0,0 0 0 0 2717.8677,1000.9639 " fill="#FFF9C4" style="stroke:#FFD54F;stroke-width:0.5;"/><path d="M2996.3135,1000.9639 L2996.3135,1010.9639 L3006.3135,1010.9639 L2996.3135,1000.9639 " fill="#FFF9C4" style="stroke:#FFD54F;stroke-width:0.5;"/><text fill="#000000" font-family="sans-serif" font-size="13" lengthAdjust="spacing" textLength="132.1836" x="2723.8677" y="1018.0308">Maps predictions to:</text><text fill="#000000" font-family="sans-serif" font-size="13" lengthAdjust="spacing" textLength="267.4458" x="2723.8677" y="1033.1636">- CategoryID (from Equipment_Category)</text><text fill="#000000" font-family="sans-serif" font-size="13" lengthAdjust="spacing" textLength="177.5376" x="2723.8677" y="1048.2964">- LocationID (default value)</text><text fill="#000000" font-family="sans-serif" font-size="13" lengthAdjust="spacing" textLength="216.3218" x="2723.8677" y="1063.4292">- EquipmentTag (from Asset Tag)</text><text fill="#000000" font-family="sans-serif" font-size="13" lengthAdjust="spacing" textLength="194.5366" x="2723.8677" y="1078.562">- Classification IDs (from EAV)</text><rect fill="#EEEEEE" height="33.9688" rx="12.5" ry="12.5" style="stroke:#666666;stroke-width:0.5;" width="202.7246" x="2495.1431" y="1026.8115"/><text fill="#000000" font-family="sans-serif" font-size="12" lengthAdjust="spacing" textLength="182.7246" x="2505.1431" y="1047.9502">Map to master database fields</text><line style="stroke:#000000;stroke-width:1.5;" x1="2489.1431" x2="2489.1431" y1="50.042" y2="1194.0264"/><rect fill="#F9FBE7" height="1143.9844" style="stroke:#F9FBE7;stroke-width:1;" width="447.9316" x="3011.3135" y="50.042"/><path d="M3240.2256,1096.6279 L3240.2256,1120.3271 L3220.2256,1124.3271 L3240.2256,1128.3271 L3240.2256,1152.0264 A0,0 0 0 0 3240.2256,1152.0264 L3454.2451,1152.0264 A0,0 0 0 0 3454.2451,1152.0264 L3454.2451,1106.6279 L3444.2451,1096.6279 L3240.2256,1096.6279 A0,0 0 0 0 3240.2256,1096.6279 " fill="#FFF9C4" style="stroke:#FFD54F;stroke-width:0.5;"/><path d="M3444.2451,1096.6279 L3444.2451,1106.6279 L3454.2451,1106.6279 L3444.2451,1096.6279 " fill="#FFF9C4" style="stroke:#FFD54F;stroke-width:0.5;"/><text fill="#000000" font-family="sans-serif" font-size="13" lengthAdjust="spacing" textLength="188.8491" x="3246.2256" y="1113.6948">Data ready for insertion into:</text><text fill="#000000" font-family="sans-serif" font-size="13" lengthAdjust="spacing" textLength="116.4478" x="3246.2256" y="1128.8276">- Equipment table</text><text fill="#000000" font-family="sans-serif" font-size="13" lengthAdjust="spacing" textLength="193.0195" x="3246.2256" y="1143.9604">- Equipment_Categories table</text><rect fill="#EEEEEE" height="33.9688" rx="12.5" ry="12.5" style="stroke:#666666;stroke-width:0.5;" width="202.9121" x="3017.3135" y="1107.3428"/><text fill="#000000" font-family="sans-serif" font-size="12" lengthAdjust="spacing" textLength="182.9121" x="3027.3135" y="1128.4814">Prepare for database insertion</text><ellipse cx="3118.7695" cy="1183.0264" fill="none" rx="11" ry="11" style="stroke:#222222;stroke-width:1;"/><ellipse cx="3118.7695" cy="1183.0264" fill="#222222" rx="6" ry="6" style="stroke:#222222;stroke-width:1;"/><line style="stroke:#000000;stroke-width:1.5;" x1="3011.3135" x2="3011.3135" y1="50.042" y2="1194.0264"/><line style="stroke:#000000;stroke-width:1.5;" x1="3459.2451" x2="3459.2451" y1="50.042" y2="1194.0264"/><line style="stroke:#333333;stroke-width:1;" x1="133.1025" x2="133.1025" y1="95.9951" y2="162.1084"/><polygon fill="#333333" points="129.1025,152.1084,133.1025,162.1084,137.1025,152.1084,133.1025,156.1084" style="stroke:#333333;stroke-width:1;"/><line style="stroke:#333333;stroke-width:1;" x1="554.3076" x2="554.3076" y1="322.0068" y2="368.5693"/><polygon fill="#333333" points="550.3076,358.5693,554.3076,368.5693,558.3076,358.5693,554.3076,362.5693" style="stroke:#333333;stroke-width:1;"/><line style="stroke:#333333;stroke-width:1;" x1="1091.8882" x2="1091.8882" y1="490.6357" y2="544.0498"/><polygon fill="#333333" points="1087.8882,534.0498,1091.8882,544.0498,1095.8882,534.0498,1091.8882,538.0498" style="stroke:#333333;stroke-width:1;"/><line style="stroke:#333333;stroke-width:1;" x1="1091.8882" x2="1091.8882" y1="578.0186" y2="601.167"/><polygon fill="#333333" points="1087.8882,591.167,1091.8882,601.167,1095.8882,591.167,1091.8882,595.167" style="stroke:#333333;stroke-width:1;"/><line style="stroke:#333333;stroke-width:1;" x1="1727.7842" x2="1727.7842" y1="692.2529" y2="712.2529"/><polygon fill="#333333" points="1723.7842,702.2529,1727.7842,712.2529,1731.7842,702.2529,1727.7842,706.2529" style="stroke:#333333;stroke-width:1;"/><line style="stroke:#333333;stroke-width:1;" x1="1727.7842" x2="1727.7842" y1="746.2217" y2="792.7842"/><polygon fill="#333333" points="1723.7842,782.7842,1727.7842,792.7842,1731.7842,782.7842,1727.7842,786.7842" style="stroke:#333333;stroke-width:1;"/><line style="stroke:#333333;stroke-width:1;" x1="2169.5034" x2="2169.5034" y1="914.8506" y2="946.2803"/><polygon fill="#333333" points="2165.5034,936.2803,2169.5034,946.2803,2173.5034,936.2803,2169.5034,940.2803" style="stroke:#333333;stroke-width:1;"/><line style="stroke:#333333;stroke-width:1;" x1="3118.7695" x2="3118.7695" y1="1141.3115" y2="1172.0264"/><polygon fill="#333333" points="3114.7695,1162.0264,3118.7695,1172.0264,3122.7695,1162.0264,3118.7695,1166.0264" style="stroke:#333333;stroke-width:1;"/><line style="stroke:#333333;stroke-width:1;" x1="133.1025" x2="133.1025" y1="196.0771" y2="254.5576"/><line style="stroke:#333333;stroke-width:1;" x1="133.1025" x2="554.3076" y1="254.5576" y2="254.5576"/><line style="stroke:#333333;stroke-width:1;" x1="554.3076" x2="554.3076" y1="254.5576" y2="288.0381"/><polygon fill="#333333" points="550.3076,278.0381,554.3076,288.0381,558.3076,278.0381,554.3076,282.0381" style="stroke:#333333;stroke-width:1;"/><line style="stroke:#333333;stroke-width:1;" x1="554.3076" x2="554.3076" y1="402.5381" y2="418.2529"/><line style="stroke:#333333;stroke-width:1;" x1="554.3076" x2="1091.8882" y1="418.2529" y2="418.2529"/><line style="stroke:#333333;stroke-width:1;" x1="1091.8882" x2="1091.8882" y1="418.2529" y2="456.667"/><polygon fill="#333333" points="1087.8882,446.667,1091.8882,456.667,1095.8882,446.667,1091.8882,450.667" style="stroke:#333333;stroke-width:1;"/><line style="stroke:#333333;stroke-width:1;" x1="1091.8882" x2="1091.8882" y1="635.1357" y2="643.2842"/><line style="stroke:#333333;stroke-width:1;" x1="1091.8882" x2="1727.7842" y1="643.2842" y2="643.2842"/><line style="stroke:#333333;stroke-width:1;" x1="1727.7842" x2="1727.7842" y1="643.2842" y2="658.2842"/><polygon fill="#333333" points="1723.7842,648.2842,1727.7842,658.2842,1731.7842,648.2842,1727.7842,652.2842" style="stroke:#333333;stroke-width:1;"/><line style="stroke:#333333;stroke-width:1;" x1="1727.7842" x2="1727.7842" y1="826.7529" y2="865.167"/><line style="stroke:#333333;stroke-width:1;" x1="1727.7842" x2="2169.5034" y1="865.167" y2="865.167"/><line style="stroke:#333333;stroke-width:1;" x1="2169.5034" x2="2169.5034" y1="865.167" y2="880.8818"/><polygon fill="#333333" points="2165.5034,870.8818,2169.5034,880.8818,2173.5034,870.8818,2169.5034,874.8818" style="stroke:#333333;stroke-width:1;"/><line style="stroke:#333333;stroke-width:1;" x1="2169.5034" x2="2169.5034" y1="980.249" y2="995.9639"/><line style="stroke:#333333;stroke-width:1;" x1="2169.5034" x2="2596.5054" y1="995.9639" y2="995.9639"/><line style="stroke:#333333;stroke-width:1;" x1="2596.5054" x2="2596.5054" y1="995.9639" y2="1026.8115"/><polygon fill="#333333" points="2592.5054,1016.8115,2596.5054,1026.8115,2600.5054,1016.8115,2596.5054,1020.8115" style="stroke:#333333;stroke-width:1;"/><line style="stroke:#333333;stroke-width:1;" x1="2596.5054" x2="2596.5054" y1="1060.7803" y2="1091.6279"/><line style="stroke:#333333;stroke-width:1;" x1="2596.5054" x2="3118.7695" y1="1091.6279" y2="1091.6279"/><line style="stroke:#333333;stroke-width:1;" x1="3118.7695" x2="3118.7695" y1="1091.6279" y2="1107.3428"/><polygon fill="#333333" points="3114.7695,1097.3428,3118.7695,1107.3428,3122.7695,1097.3428,3118.7695,1101.3428" style="stroke:#333333;stroke-width:1;"/><text fill="#000000" font-family="sans-serif" font-size="18" lengthAdjust="spacing" textLength="117.4746" x="155.4614" y="66.75">Staging Data</text><text fill="#000000" font-family="sans-serif" font-size="18" lengthAdjust="spacing" textLength="125.9473" x="636.4114" y="66.75">Data Mapping</text><text fill="#000000" font-family="sans-serif" font-size="18" lengthAdjust="spacing" textLength="183.1201" x="1210.9578" y="66.75">Feature Engineering</text><text fill="#000000" font-family="sans-serif" font-size="18" lengthAdjust="spacing" textLength="85.3242" x="1801.3748" y="66.75">ML Model</text><text fill="#000000" font-family="sans-serif" font-size="18" lengthAdjust="spacing" textLength="140.9063" x="2208.3237" y="66.75">EAV Integration</text><text fill="#000000" font-family="sans-serif" font-size="18" lengthAdjust="spacing" textLength="176.3701" x="2662.0432" y="66.75">Master DB Mapping</text><text fill="#000000" font-family="sans-serif" font-size="18" lengthAdjust="spacing" textLength="85.8867" x="3192.3359" y="66.75">Database</text><!--SRC=[ZLN1Rjiu4BthAmZaq0qMwIPDqsvSxC6sn5q3IHgitLmDMXhPH2LIIr99lT2Xlx6teh_IF-cNT4ZAaYmfYyg08Sqy3cVU6mvVa11IBe1eiyz01_eZ5mLJB2SR5d_SAbcAP2upgSZJZXle-ATAoIVlEhbqJzSP6_x8pNucLGAgHhrnpnYgjzL9v9uHPCXPBaKoN71Etz9fPy6TD310KKglvw_xg6wAb8PNhsa7SS-KuOPBCGnsPN-Zq6x4MMX_VTwe56R9_mLoSJ5IPUjz5GGlo8gR309Z_ydj3PbdJ6kUyfZPpKZ832Cqaqz1K9r4b_GL3QkbOLikjivN1TfWPi7aHh84PVQUnAvAbSp9VFdmM_GfXknT890EelXsPm92CFyo5tg2hsTagZKOSiTow7oksDPzhHHBl7svrmOm93EmbMhlRUNcO5_j2u-xPQ9CMMnA1SeRP08PkIlpJMrOWdhaCP0Rda808Y4sDrVXx_GgkgvSrRUiAB2OAfZWMrDQx1CdHbgsSXSvbIfdfbTX4mCKCOe9RL63Wicthzy_V_d- -JyI_LFo8WTXraS5kl9Rr0V1_Mvh9zGOBotOEzODCM3Ybvro9tCf7a4P8ieS58z9oY5BTA-EOxRQuDfRrvdbqBDii2N_kcyXkRMiTuMFObkkSK5JhKRxaGPuZYwZyue2imgII23lWFavAUOotzY1Ok2JEMWnQ2q7IJmchSDm4MTb0kCTznCTynEzrsLMuRP0TXmKK_4EJrD6Oh-Mmv3XLdiRYFmnaFJNViQrj9Y2UMx5_wGtBOfiNzD7Sj_d_QomTJNHibIeVAVfyRHleQ4USHkcaMiS5JNJwrYAb6zVxlFiMDRB22TQXOV6aOjQFa2C_M7RmYbLQdk-LlHi4T9tmGGRdmloDnC9ZX4g5MZJ32TGlMG_QD2OISP4ZCd45aQUm3fjYfZs3kFWWEFvCGZlf0ujVu90lJ1ieI3XiHs0VLRklQTkesVExFE7j3sBnvAFQ7eybyvnybvKqVI1B0JkfDnqHWwdILr9Ex8NuR31tkU2krpMYx2NOcsuPRYveerjZ1PcZEARqbZ1yY93K__ekRRNxUa-qmN4DZLq3bThtppemxIRDMHGFQNHB8egdo89PxtHZFBctcNl7HjoV9AvZkv8YmkzZ0Vn5Y7vnTrQGrrF7V16UeujC86KbPaXZomhuVHOKxoxwaZDNUOHyu5KXnsd3wV7DL_JMVJMtKIs8YmLMmylSh2tJLie5pY7RQonsmVLIFOEty3mxL1rr1BEDXcCDpHEgzhT9gUDB7u0]--></g></svg>