<svg xmlns="http://www.w3.org/2000/svg" xmlns:xlink="http://www.w3.org/1999/xlink" contentStyleType="text/css" data-diagram-type="CLASS" height="2020px" preserveAspectRatio="none" style="width:1064px;height:2020px;background:#FFFFFF;" version="1.1" viewBox="0 0 1064 2020" width="1064px" zoomAndPan="magnify"><title>ML Classification Column Mapping</title><defs/><g><text fill="#000000" font-family="sans-serif" font-size="14" font-weight="bold" lengthAdjust="spacing" textLength="270.5938" x="389.8581" y="22.9951">ML Classification Column Mapping</text><!--class StagingData--><g class="entity" data-entity="StagingData" data-source-line="16" data-uid="ent0002" id="entity_StagingData"><rect fill="#EEEEEE" height="243.5625" rx="2.5" ry="2.5" style="stroke:#666666;stroke-width:0.5;" width="255.7422" x="80.43" y="44.2969"/><ellipse cx="158.3665" cy="60.2969" fill="#ADD1B2" rx="11" ry="11" style="stroke:#181818;stroke-width:1;"/><path d="M161.3353,65.9375 Q160.7571,66.2344 160.1165,66.375 Q159.4759,66.5313 158.7728,66.5313 Q156.2728,66.5313 154.9446,64.8906 Q153.6321,63.2344 153.6321,60.1094 Q153.6321,56.9844 154.9446,55.3281 Q156.2728,53.6719 158.7728,53.6719 Q159.4759,53.6719 160.1165,53.8281 Q160.7728,53.9844 161.3353,54.2813 L161.3353,57 Q160.7103,56.4219 160.1165,56.1563 Q159.5228,55.875 158.8978,55.875 Q157.554,55.875 156.8665,56.9531 Q156.179,58.0156 156.179,60.1094 Q156.179,62.2031 156.8665,63.2813 Q157.554,64.3438 158.8978,64.3438 Q159.5228,64.3438 160.1165,64.0781 Q160.7103,63.7969 161.3353,63.2188 L161.3353,65.9375 Z " fill="#000000"/><text fill="#000000" font-family="sans-serif" font-size="14" lengthAdjust="spacing" textLength="91.3691" x="178.8665" y="65.1436">Staging Data</text><line style="stroke:#666666;stroke-width:0.5;" x1="81.43" x2="335.1722" y1="76.2969" y2="76.2969"/><ellipse cx="91.43" cy="89.9453" fill="none" rx="3" ry="3" style="stroke:#038048;stroke-width:1;"/><text fill="#000000" font-family="sans-serif" font-size="14" lengthAdjust="spacing" textLength="133.376" x="100.43" y="93.292">Asset Name: string</text><ellipse cx="91.43" cy="106.2422" fill="none" rx="3" ry="3" style="stroke:#038048;stroke-width:1;"/><text fill="#000000" font-family="sans-serif" font-size="14" lengthAdjust="spacing" textLength="118.0908" x="100.43" y="109.5889">Asset Tag: string</text><ellipse cx="91.43" cy="122.5391" fill="none" rx="3" ry="3" style="stroke:#038048;stroke-width:1;"/><text fill="#000000" font-family="sans-serif" font-size="14" lengthAdjust="spacing" textLength="89.7422" x="100.43" y="125.8857">Trade: string</text><ellipse cx="91.43" cy="138.8359" fill="none" rx="3" ry="3" style="stroke:#038048;stroke-width:1;"/><text fill="#000000" font-family="sans-serif" font-size="14" lengthAdjust="spacing" textLength="143.4521" x="100.43" y="142.1826">Manufacturer: string</text><ellipse cx="91.43" cy="155.1328" fill="none" rx="3" ry="3" style="stroke:#038048;stroke-width:1;"/><text fill="#000000" font-family="sans-serif" font-size="14" lengthAdjust="spacing" textLength="152.0791" x="100.43" y="158.4795">Model Number: string</text><ellipse cx="91.43" cy="171.4297" fill="none" rx="3" ry="3" style="stroke:#038048;stroke-width:1;"/><text fill="#000000" font-family="sans-serif" font-size="14" lengthAdjust="spacing" textLength="69.3574" x="100.43" y="174.7764">Size: float</text><ellipse cx="91.43" cy="187.7266" fill="none" rx="3" ry="3" style="stroke:#038048;stroke-width:1;"/><text fill="#000000" font-family="sans-serif" font-size="14" lengthAdjust="spacing" textLength="77.8545" x="100.43" y="191.0732">Unit: string</text><ellipse cx="91.43" cy="204.0234" fill="none" rx="3" ry="3" style="stroke:#038048;stroke-width:1;"/><text fill="#000000" font-family="sans-serif" font-size="14" lengthAdjust="spacing" textLength="104.4941" x="100.43" y="207.3701">Motor HP: float</text><ellipse cx="91.43" cy="220.3203" fill="none" rx="3" ry="3" style="stroke:#038048;stroke-width:1;"/><text fill="#000000" font-family="sans-serif" font-size="14" lengthAdjust="spacing" textLength="169.9619" x="100.43" y="223.667">System Category: string</text><ellipse cx="91.43" cy="236.6172" fill="none" rx="3" ry="3" style="stroke:#038048;stroke-width:1;"/><text fill="#000000" font-family="sans-serif" font-size="14" lengthAdjust="spacing" textLength="171.4453" x="100.43" y="239.9639">Sub System Type: string</text><ellipse cx="91.43" cy="252.9141" fill="none" rx="3" ry="3" style="stroke:#038048;stroke-width:1;"/><text fill="#000000" font-family="sans-serif" font-size="14" lengthAdjust="spacing" textLength="229.7422" x="100.43" y="256.2607">Sub System Classification: string</text><ellipse cx="91.43" cy="269.2109" fill="none" rx="3" ry="3" style="stroke:#038048;stroke-width:1;"/><text fill="#000000" font-family="sans-serif" font-size="14" lengthAdjust="spacing" textLength="122.042" x="100.43" y="272.5576">Service Life: float</text><line style="stroke:#666666;stroke-width:0.5;" x1="81.43" x2="335.1722" y1="279.8594" y2="279.8594"/></g><!--class MLInput--><g class="entity" data-entity="MLInput" data-source-line="31" data-uid="ent0003" id="entity_MLInput"><rect fill="#EEEEEE" height="162.0781" rx="2.5" ry="2.5" style="stroke:#666666;stroke-width:0.5;" width="222.3008" x="150.16" y="749.7469"/><ellipse cx="203.5282" cy="765.7469" fill="#ADD1B2" rx="11" ry="11" style="stroke:#181818;stroke-width:1;"/><path d="M206.4969,771.3875 Q205.9188,771.6844 205.2782,771.825 Q204.6375,771.9812 203.9344,771.9812 Q201.4344,771.9812 200.1063,770.3406 Q198.7938,768.6844 198.7938,765.5594 Q198.7938,762.4344 200.1063,760.7781 Q201.4344,759.1219 203.9344,759.1219 Q204.6375,759.1219 205.2782,759.2781 Q205.9344,759.4344 206.4969,759.7312 L206.4969,762.45 Q205.8719,761.8719 205.2782,761.6062 Q204.6844,761.325 204.0594,761.325 Q202.7157,761.325 202.0282,762.4031 Q201.3407,763.4656 201.3407,765.5594 Q201.3407,767.6531 202.0282,768.7312 Q202.7157,769.7937 204.0594,769.7937 Q204.6844,769.7937 205.2782,769.5281 Q205.8719,769.2469 206.4969,768.6687 L206.4969,771.3875 Z " fill="#000000"/><text fill="#000000" font-family="sans-serif" font-size="14" lengthAdjust="spacing" textLength="107.0645" x="224.0282" y="770.5936">ML Model Input</text><line style="stroke:#666666;stroke-width:0.5;" x1="151.16" x2="371.4608" y1="781.7469" y2="781.7469"/><ellipse cx="161.16" cy="795.3953" fill="none" rx="3" ry="3" style="stroke:#038048;stroke-width:1;"/><text fill="#000000" font-family="sans-serif" font-size="14" lengthAdjust="spacing" textLength="196.3008" x="170.16" y="798.742">Equipment_Category: string</text><ellipse cx="161.16" cy="811.6922" fill="none" rx="3" ry="3" style="stroke:#038048;stroke-width:1;"/><text fill="#000000" font-family="sans-serif" font-size="14" lengthAdjust="spacing" textLength="163.1533" x="170.16" y="815.0389">Uniformat_Class: string</text><ellipse cx="161.16" cy="827.9891" fill="none" rx="3" ry="3" style="stroke:#038048;stroke-width:1;"/><text fill="#000000" font-family="sans-serif" font-size="14" lengthAdjust="spacing" textLength="142.8984" x="170.16" y="831.3357">System_Type: string</text><ellipse cx="161.16" cy="844.2859" fill="none" rx="3" ry="3" style="stroke:#038048;stroke-width:1;"/><text fill="#000000" font-family="sans-serif" font-size="14" lengthAdjust="spacing" textLength="166.6875" x="170.16" y="847.6326">Equipment_Type: string</text><ellipse cx="161.16" cy="860.5828" fill="none" rx="3" ry="3" style="stroke:#038048;stroke-width:1;"/><text fill="#000000" font-family="sans-serif" font-size="14" lengthAdjust="spacing" textLength="166.4824" x="170.16" y="863.9295">System_Subtype: string</text><ellipse cx="161.16" cy="876.8797" fill="none" rx="3" ry="3" style="stroke:#038048;stroke-width:1;"/><text fill="#000000" font-family="sans-serif" font-size="14" lengthAdjust="spacing" textLength="153.2822" x="170.16" y="880.2264">combined_text: string</text><ellipse cx="161.16" cy="893.1766" fill="none" rx="3" ry="3" style="stroke:#038048;stroke-width:1;"/><text fill="#000000" font-family="sans-serif" font-size="14" lengthAdjust="spacing" textLength="119.0889" x="170.16" y="896.5232">service_life: float</text><line style="stroke:#666666;stroke-width:0.5;" x1="151.16" x2="371.4608" y1="903.825" y2="903.825"/></g><!--class MLOutput--><g class="entity" data-entity="MLOutput" data-source-line="41" data-uid="ent0004" id="entity_MLOutput"><rect fill="#EEEEEE" height="178.375" rx="2.5" ry="2.5" style="stroke:#666666;stroke-width:0.5;" width="222.3008" x="15.16" y="1330.3069"/><ellipse cx="62.3382" cy="1346.3069" fill="#ADD1B2" rx="11" ry="11" style="stroke:#181818;stroke-width:1;"/><path d="M65.307,1351.9475 Q64.7288,1352.2444 64.0882,1352.385 Q63.4476,1352.5413 62.7445,1352.5413 Q60.2445,1352.5413 58.9163,1350.9006 Q57.6038,1349.2444 57.6038,1346.1194 Q57.6038,1342.9944 58.9163,1341.3381 Q60.2445,1339.6819 62.7445,1339.6819 Q63.4476,1339.6819 64.0882,1339.8381 Q64.7445,1339.9944 65.307,1340.2913 L65.307,1343.01 Q64.682,1342.4319 64.0882,1342.1663 Q63.4945,1341.885 62.8695,1341.885 Q61.5257,1341.885 60.8382,1342.9631 Q60.1507,1344.0256 60.1507,1346.1194 Q60.1507,1348.2131 60.8382,1349.2913 Q61.5257,1350.3538 62.8695,1350.3538 Q63.4945,1350.3538 64.0882,1350.0881 Q64.682,1349.8069 65.307,1349.2288 L65.307,1351.9475 Z " fill="#000000"/><text fill="#000000" font-family="sans-serif" font-size="14" lengthAdjust="spacing" textLength="119.4443" x="82.8382" y="1351.1536">ML Model Output</text><line style="stroke:#666666;stroke-width:0.5;" x1="16.16" x2="236.4608" y1="1362.3069" y2="1362.3069"/><ellipse cx="26.16" cy="1375.9553" fill="none" rx="3" ry="3" style="stroke:#038048;stroke-width:1;"/><text fill="#000000" font-family="sans-serif" font-size="14" lengthAdjust="spacing" textLength="196.3008" x="35.16" y="1379.302">Equipment_Category: string</text><ellipse cx="26.16" cy="1392.2522" fill="none" rx="3" ry="3" style="stroke:#038048;stroke-width:1;"/><text fill="#000000" font-family="sans-serif" font-size="14" lengthAdjust="spacing" textLength="163.1533" x="35.16" y="1395.5989">Uniformat_Class: string</text><ellipse cx="26.16" cy="1408.5491" fill="none" rx="3" ry="3" style="stroke:#038048;stroke-width:1;"/><text fill="#000000" font-family="sans-serif" font-size="14" lengthAdjust="spacing" textLength="142.8984" x="35.16" y="1411.8957">System_Type: string</text><ellipse cx="26.16" cy="1424.8459" fill="none" rx="3" ry="3" style="stroke:#038048;stroke-width:1;"/><text fill="#000000" font-family="sans-serif" font-size="14" lengthAdjust="spacing" textLength="166.6875" x="35.16" y="1428.1926">Equipment_Type: string</text><ellipse cx="26.16" cy="1441.1428" fill="none" rx="3" ry="3" style="stroke:#038048;stroke-width:1;"/><text fill="#000000" font-family="sans-serif" font-size="14" lengthAdjust="spacing" textLength="166.4824" x="35.16" y="1444.4895">System_Subtype: string</text><ellipse cx="26.16" cy="1457.4397" fill="none" rx="3" ry="3" style="stroke:#038048;stroke-width:1;"/><text fill="#000000" font-family="sans-serif" font-size="14" lengthAdjust="spacing" textLength="191.0781" x="35.16" y="1460.7864">MasterFormat_Class: string</text><ellipse cx="26.16" cy="1473.7366" fill="none" rx="3" ry="3" style="stroke:#038048;stroke-width:1;"/><text fill="#000000" font-family="sans-serif" font-size="14" lengthAdjust="spacing" textLength="145.5166" x="35.16" y="1477.0832">OmniClass_ID: string</text><ellipse cx="26.16" cy="1490.0334" fill="none" rx="3" ry="3" style="stroke:#038048;stroke-width:1;"/><text fill="#000000" font-family="sans-serif" font-size="14" lengthAdjust="spacing" textLength="141.2305" x="35.16" y="1493.3801">Uniformat_ID: string</text><line style="stroke:#666666;stroke-width:0.5;" x1="16.16" x2="236.4608" y1="1500.6819" y2="1500.6819"/></g><!--class MasterDB--><g class="entity" data-entity="MasterDB" data-source-line="52" data-uid="ent0005" id="entity_MasterDB"><rect fill="#EEEEEE" height="194.6719" rx="2.5" ry="2.5" style="stroke:#666666;stroke-width:0.5;" width="222.3008" x="535.16" y="733.4469"/><ellipse cx="583.1996" cy="749.4469" fill="#ADD1B2" rx="11" ry="11" style="stroke:#181818;stroke-width:1;"/><path d="M586.1683,755.0875 Q585.5902,755.3844 584.9496,755.525 Q584.3089,755.6812 583.6058,755.6812 Q581.1058,755.6812 579.7777,754.0406 Q578.4652,752.3844 578.4652,749.2594 Q578.4652,746.1344 579.7777,744.4781 Q581.1058,742.8219 583.6058,742.8219 Q584.3089,742.8219 584.9496,742.9781 Q585.6058,743.1344 586.1683,743.4312 L586.1683,746.15 Q585.5433,745.5719 584.9496,745.3062 Q584.3558,745.025 583.7308,745.025 Q582.3871,745.025 581.6996,746.1031 Q581.0121,747.1656 581.0121,749.2594 Q581.0121,751.3531 581.6996,752.4312 Q582.3871,753.4937 583.7308,753.4937 Q584.3558,753.4937 584.9496,753.2281 Q585.5433,752.9469 586.1683,752.3687 L586.1683,755.0875 Z " fill="#000000"/><text fill="#000000" font-family="sans-serif" font-size="14" lengthAdjust="spacing" textLength="117.7217" x="603.6996" y="754.2936">Master DB Fields</text><line style="stroke:#666666;stroke-width:0.5;" x1="536.16" x2="756.4608" y1="765.4469" y2="765.4469"/><ellipse cx="546.16" cy="779.0953" fill="none" rx="3" ry="3" style="stroke:#038048;stroke-width:1;"/><text fill="#000000" font-family="sans-serif" font-size="14" lengthAdjust="spacing" textLength="106.2783" x="555.16" y="782.442">CategoryID: int</text><ellipse cx="546.16" cy="795.3922" fill="none" rx="3" ry="3" style="stroke:#038048;stroke-width:1;"/><text fill="#000000" font-family="sans-serif" font-size="14" lengthAdjust="spacing" textLength="101.7871" x="555.16" y="798.7389">LocationID: int</text><ellipse cx="546.16" cy="811.6891" fill="none" rx="3" ry="3" style="stroke:#038048;stroke-width:1;"/><text fill="#000000" font-family="sans-serif" font-size="14" lengthAdjust="spacing" textLength="151.3682" x="555.16" y="815.0357">EquipmentTag: string</text><ellipse cx="546.16" cy="827.9859" fill="none" rx="3" ry="3" style="stroke:#038048;stroke-width:1;"/><text fill="#000000" font-family="sans-serif" font-size="14" lengthAdjust="spacing" textLength="196.3008" x="555.16" y="831.3326">Equipment_Category: string</text><ellipse cx="546.16" cy="844.2828" fill="none" rx="3" ry="3" style="stroke:#038048;stroke-width:1;"/><text fill="#000000" font-family="sans-serif" font-size="14" lengthAdjust="spacing" textLength="163.1533" x="555.16" y="847.6295">Uniformat_Class: string</text><ellipse cx="546.16" cy="860.5797" fill="none" rx="3" ry="3" style="stroke:#038048;stroke-width:1;"/><text fill="#000000" font-family="sans-serif" font-size="14" lengthAdjust="spacing" textLength="142.8984" x="555.16" y="863.9264">System_Type: string</text><ellipse cx="546.16" cy="876.8766" fill="none" rx="3" ry="3" style="stroke:#038048;stroke-width:1;"/><text fill="#000000" font-family="sans-serif" font-size="14" lengthAdjust="spacing" textLength="191.0781" x="555.16" y="880.2232">MasterFormat_Class: string</text><ellipse cx="546.16" cy="893.1734" fill="none" rx="3" ry="3" style="stroke:#038048;stroke-width:1;"/><text fill="#000000" font-family="sans-serif" font-size="14" lengthAdjust="spacing" textLength="145.5166" x="555.16" y="896.5201">OmniClass_ID: string</text><ellipse cx="546.16" cy="909.4703" fill="none" rx="3" ry="3" style="stroke:#038048;stroke-width:1;"/><text fill="#000000" font-family="sans-serif" font-size="14" lengthAdjust="spacing" textLength="141.2305" x="555.16" y="912.817">Uniformat_ID: string</text><line style="stroke:#666666;stroke-width:0.5;" x1="536.16" x2="756.4608" y1="920.1187" y2="920.1187"/></g><!--class DataMapper--><g class="entity" data-entity="DataMapper" data-source-line="65" data-uid="ent0006" id="entity_DataMapper"><rect fill="#EEEEEE" height="80.5938" rx="2.5" ry="2.5" style="stroke:#666666;stroke-width:0.5;" width="255.0654" x="80.77" y="361.8569"/><ellipse cx="158.7134" cy="377.8569" fill="#ADD1B2" rx="11" ry="11" style="stroke:#181818;stroke-width:1;"/><path d="M161.6821,383.4975 Q161.104,383.7944 160.4634,383.935 Q159.8227,384.0912 159.1196,384.0912 Q156.6196,384.0912 155.2915,382.4506 Q153.979,380.7944 153.979,377.6694 Q153.979,374.5444 155.2915,372.8881 Q156.6196,371.2319 159.1196,371.2319 Q159.8227,371.2319 160.4634,371.3881 Q161.1196,371.5444 161.6821,371.8412 L161.6821,374.56 Q161.0571,373.9819 160.4634,373.7162 Q159.8696,373.435 159.2446,373.435 Q157.9009,373.435 157.2134,374.5131 Q156.5259,375.5756 156.5259,377.6694 Q156.5259,379.7631 157.2134,380.8412 Q157.9009,381.9037 159.2446,381.9037 Q159.8696,381.9037 160.4634,381.6381 Q161.0571,381.3569 161.6821,380.7787 L161.6821,383.4975 Z " fill="#000000"/><text fill="#000000" font-family="sans-serif" font-size="14" lengthAdjust="spacing" textLength="90.6787" x="179.2134" y="382.7036">Data Mapper</text><line style="stroke:#666666;stroke-width:0.5;" x1="81.77" x2="334.8354" y1="393.8569" y2="393.8569"/><line style="stroke:#666666;stroke-width:0.5;" x1="81.77" x2="334.8354" y1="401.8569" y2="401.8569"/><ellipse cx="91.77" cy="415.5053" fill="#84BE84" rx="3" ry="3" style="stroke:#038048;stroke-width:1;"/><text fill="#000000" font-family="sans-serif" font-size="14" lengthAdjust="spacing" textLength="215.585" x="100.77" y="418.852">map_staging_to_model_input()</text><ellipse cx="91.77" cy="431.8022" fill="#84BE84" rx="3" ry="3" style="stroke:#038048;stroke-width:1;"/><text fill="#000000" font-family="sans-serif" font-size="14" lengthAdjust="spacing" textLength="229.0654" x="100.77" y="435.1489">map_predictions_to_master_db()</text></g><!--class FeatureEng--><g class="entity" data-entity="FeatureEng" data-source-line="70" data-uid="ent0007" id="entity_FeatureEng"><rect fill="#EEEEEE" height="113.1875" rx="2.5" ry="2.5" style="stroke:#666666;stroke-width:0.5;" width="174.4268" x="162.09" y="1002.1269"/><ellipse cx="177.09" cy="1018.1269" fill="#ADD1B2" rx="11" ry="11" style="stroke:#181818;stroke-width:1;"/><path d="M180.0588,1023.7675 Q179.4806,1024.0644 178.84,1024.205 Q178.1994,1024.3613 177.4963,1024.3613 Q174.9963,1024.3613 173.6681,1022.7206 Q172.3556,1021.0644 172.3556,1017.9394 Q172.3556,1014.8144 173.6681,1013.1581 Q174.9963,1011.5019 177.4963,1011.5019 Q178.1994,1011.5019 178.84,1011.6581 Q179.4963,1011.8144 180.0588,1012.1112 L180.0588,1014.83 Q179.4338,1014.2519 178.84,1013.9862 Q178.2463,1013.705 177.6213,1013.705 Q176.2775,1013.705 175.59,1014.7831 Q174.9025,1015.8456 174.9025,1017.9394 Q174.9025,1020.0331 175.59,1021.1112 Q176.2775,1022.1737 177.6213,1022.1737 Q178.2463,1022.1737 178.84,1021.9081 Q179.4338,1021.6269 180.0588,1021.0487 L180.0588,1023.7675 Z " fill="#000000"/><text fill="#000000" font-family="sans-serif" font-size="14" lengthAdjust="spacing" textLength="142.4268" x="191.09" y="1022.9736">Feature Engineering</text><line style="stroke:#666666;stroke-width:0.5;" x1="163.09" x2="335.5168" y1="1034.1269" y2="1034.1269"/><ellipse cx="173.09" cy="1047.7753" fill="none" rx="3" ry="3" style="stroke:#038048;stroke-width:1;"/><text fill="#000000" font-family="sans-serif" font-size="14" lengthAdjust="spacing" textLength="98.9365" x="182.09" y="1051.122">TextCombiner</text><ellipse cx="173.09" cy="1064.0722" fill="none" rx="3" ry="3" style="stroke:#038048;stroke-width:1;"/><text fill="#000000" font-family="sans-serif" font-size="14" lengthAdjust="spacing" textLength="113.0391" x="182.09" y="1067.4189">NumericCleaner</text><ellipse cx="173.09" cy="1080.3691" fill="none" rx="3" ry="3" style="stroke:#038048;stroke-width:1;"/><text fill="#000000" font-family="sans-serif" font-size="14" lengthAdjust="spacing" textLength="117.4893" x="182.09" y="1083.7157">HierarchyBuilder</text><ellipse cx="173.09" cy="1096.6659" fill="none" rx="3" ry="3" style="stroke:#038048;stroke-width:1;"/><text fill="#000000" font-family="sans-serif" font-size="14" lengthAdjust="spacing" textLength="106.415" x="182.09" y="1100.0126">ColumnMapper</text><line style="stroke:#666666;stroke-width:0.5;" x1="163.09" x2="335.5168" y1="1107.3144" y2="1107.3144"/></g><!--class EAVManager--><g class="entity" data-entity="EAVManager" data-source-line="77" data-uid="ent0008" id="entity_EAVManager"><rect fill="#EEEEEE" height="96.8906" rx="2.5" ry="2.5" style="stroke:#666666;stroke-width:0.5;" width="238.6113" x="7" y="1663.6869"/><ellipse cx="75.1475" cy="1679.6869" fill="#ADD1B2" rx="11" ry="11" style="stroke:#181818;stroke-width:1;"/><path d="M78.1162,1685.3275 Q77.5381,1685.6244 76.8975,1685.765 Q76.2568,1685.9212 75.5537,1685.9212 Q73.0537,1685.9212 71.7256,1684.2806 Q70.4131,1682.6244 70.4131,1679.4994 Q70.4131,1676.3744 71.7256,1674.7181 Q73.0537,1673.0619 75.5537,1673.0619 Q76.2568,1673.0619 76.8975,1673.2181 Q77.5537,1673.3744 78.1162,1673.6712 L78.1162,1676.39 Q77.4912,1675.8119 76.8975,1675.5462 Q76.3037,1675.265 75.6787,1675.265 Q74.335,1675.265 73.6475,1676.3431 Q72.96,1677.4056 72.96,1679.4994 Q72.96,1681.5931 73.6475,1682.6712 Q74.335,1683.7337 75.6787,1683.7337 Q76.3037,1683.7337 76.8975,1683.4681 Q77.4912,1683.1869 78.1162,1682.6087 L78.1162,1685.3275 Z " fill="#000000"/><text fill="#000000" font-family="sans-serif" font-size="14" lengthAdjust="spacing" textLength="93.8164" x="95.6475" y="1684.5336">EAV Manager</text><line style="stroke:#666666;stroke-width:0.5;" x1="8" x2="244.6113" y1="1695.6869" y2="1695.6869"/><line style="stroke:#666666;stroke-width:0.5;" x1="8" x2="244.6113" y1="1703.6869" y2="1703.6869"/><ellipse cx="18" cy="1717.3353" fill="#84BE84" rx="3" ry="3" style="stroke:#038048;stroke-width:1;"/><text fill="#000000" font-family="sans-serif" font-size="14" lengthAdjust="spacing" textLength="158.5391" x="27" y="1720.682">get_classification_ids()</text><ellipse cx="18" cy="1733.6322" fill="#84BE84" rx="3" ry="3" style="stroke:#038048;stroke-width:1;"/><text fill="#000000" font-family="sans-serif" font-size="14" lengthAdjust="spacing" textLength="212.6113" x="27" y="1736.9789">generate_attribute_template()</text><ellipse cx="18" cy="1749.9291" fill="#84BE84" rx="3" ry="3" style="stroke:#038048;stroke-width:1;"/><text fill="#000000" font-family="sans-serif" font-size="14" lengthAdjust="spacing" textLength="175.5469" x="27" y="1753.2757">get_required_attributes()</text></g><!--link StagingData to DataMapper--><g class="link" data-entity-1="StagingData" data-entity-2="DataMapper" data-source-line="84" data-uid="lnk9" id="link_StagingData_DataMapper"><path codeLine="84" d="M208.31,288.2269 C208.31,314.7769 208.31,335.0469 208.31,355.5569 " fill="none" id="StagingData-to-DataMapper" style="stroke:#333333;stroke-width:1;"/><polygon fill="#333333" points="208.31,361.5569,212.31,352.5569,208.31,356.5569,204.31,352.5569,208.31,361.5569" style="stroke:#333333;stroke-width:1;"/><text fill="#000000" font-family="sans-serif" font-size="11" lengthAdjust="spacing" textLength="28.4829" x="209.31" y="329.0673">Input</text></g><!--link DataMapper to MLInput--><g class="link" data-entity-1="DataMapper" data-entity-2="MLInput" data-source-line="85" data-uid="lnk10" id="link_DataMapper_MLInput"><path codeLine="85" d="M202.53,442.5669 C195.25,500.4769 185.87,611.6369 205.31,703.4469 C208.56,718.8269 211.5833,729.0394 217.5933,743.9994 " fill="none" id="DataMapper-to-MLInput" style="stroke:#333333;stroke-width:1;"/><polygon fill="#333333" points="219.83,749.5669,220.1867,739.7245,217.9661,744.9273,212.7633,742.7067,219.83,749.5669" style="stroke:#333333;stroke-width:1;"/><text fill="#000000" font-family="sans-serif" font-size="11" lengthAdjust="spacing" textLength="38.21" x="385.6474" y="483.6573">Output</text><path d="M210.31,492.2516 L210.31,698.2516 L598.31,698.2516 L598.31,502.2516 L588.31,492.2516 L210.31,492.2516 " fill="#FFF9C4" style="stroke:#FFD54F;stroke-width:0.5;"/><path d="M588.31,492.2516 L588.31,502.2516 L598.31,502.2516 L588.31,492.2516 " fill="#FFF9C4" style="stroke:#FFD54F;stroke-width:0.5;"/><text fill="#000000" font-family="sans-serif" font-size="13" font-weight="bold" lengthAdjust="spacing" textLength="128.0449" x="216.31" y="509.3185">Column Mapping:</text><text fill="#000000" font-family="sans-serif" font-size="13" lengthAdjust="spacing" textLength="241.3315" x="216.31" y="524.4513">Asset Name &#226;&#8224;&#8217; Equipment_Category</text><text fill="#000000" font-family="sans-serif" font-size="13" lengthAdjust="spacing" textLength="170.0347" x="216.31" y="539.5841">Trade &#226;&#8224;&#8217; Uniformat_Class</text><text fill="#000000" font-family="sans-serif" font-size="13" lengthAdjust="spacing" textLength="225.7163" x="216.31" y="554.7169">System Category &#226;&#8224;&#8217; System_Type</text><text fill="#000000" font-family="sans-serif" font-size="13" lengthAdjust="spacing" textLength="4.1323" x="216.31" y="569.8497">&#160;</text><text fill="#000000" font-family="sans-serif" font-size="13" font-weight="bold" lengthAdjust="spacing" textLength="134.6719" x="216.31" y="584.9825">Text Combination:</text><text fill="#000000" font-family="sans-serif" font-size="13" lengthAdjust="spacing" textLength="314.1201" x="216.31" y="600.1153">Asset Name + Manufacturer + Model Number +</text><text fill="#000000" font-family="sans-serif" font-size="13" lengthAdjust="spacing" textLength="367.8848" x="216.31" y="615.2481">System Category + Sub System Type &#226;&#8224;&#8217; combined_text</text><text fill="#000000" font-family="sans-serif" font-size="13" lengthAdjust="spacing" textLength="4.1323" x="216.31" y="630.381">&#160;</text><text fill="#000000" font-family="sans-serif" font-size="13" font-weight="bold" lengthAdjust="spacing" textLength="152.604" x="216.31" y="645.5138">Numeric Conversion:</text><text fill="#000000" font-family="sans-serif" font-size="13" lengthAdjust="spacing" textLength="218.8164" x="216.31" y="660.6466">Service Life &#226;&#8224;&#8217; service_life (float)</text><text fill="#000000" font-family="sans-serif" font-size="13" lengthAdjust="spacing" textLength="191.6611" x="216.31" y="675.7794">Motor HP &#226;&#8224;&#8217; motor_hp (float)</text><text fill="#000000" font-family="sans-serif" font-size="13" lengthAdjust="spacing" textLength="199.0879" x="216.31" y="690.9122">Size &#226;&#8224;&#8217; equipment_size (float)</text></g><!--link MLInput to FeatureEng--><g class="link" data-entity-1="MLInput" data-entity-2="FeatureEng" data-source-line="102" data-uid="lnk11" id="link_MLInput_FeatureEng"><path codeLine="102" d="M257.04,912.0769 C255.46,941.7569 254.0266,968.7352 252.5966,995.7952 " fill="none" id="MLInput-to-FeatureEng" style="stroke:#333333;stroke-width:1;"/><polygon fill="#333333" points="252.28,1001.7869,256.7494,993.0105,252.5439,996.7938,248.7605,992.5883,252.28,1001.7869" style="stroke:#333333;stroke-width:1;"/><text fill="#000000" font-family="sans-serif" font-size="11" lengthAdjust="spacing" textLength="28.4829" x="255.31" y="969.3373">Input</text></g><!--link FeatureEng to MLOutput--><g class="link" data-entity-1="FeatureEng" data-entity-2="MLOutput" data-source-line="103" data-uid="lnk12" id="link_FeatureEng_MLOutput"><path codeLine="103" d="M230.09,1115.7769 C210.43,1173.1269 181.5361,1257.4013 158.5761,1324.3613 " fill="none" id="FeatureEng-to-MLOutput" style="stroke:#333333;stroke-width:1;"/><polygon fill="#333333" points="156.63,1330.0369,163.3329,1322.8209,158.2518,1325.3072,155.7654,1320.226,156.63,1330.0369" style="stroke:#333333;stroke-width:1;"/><text fill="#000000" font-family="sans-serif" font-size="11" lengthAdjust="spacing" textLength="38.21" x="406.7761" y="1156.5173">Output</text><path d="M225.31,1165.1116 L225.31,1296.1116 L626.31,1296.1116 L626.31,1175.1116 L616.31,1165.1116 L225.31,1165.1116 " fill="#FFF9C4" style="stroke:#FFD54F;stroke-width:0.5;"/><path d="M616.31,1165.1116 L616.31,1175.1116 L626.31,1175.1116 L616.31,1165.1116 " fill="#FFF9C4" style="stroke:#FFD54F;stroke-width:0.5;"/><text fill="#000000" font-family="sans-serif" font-size="13" font-weight="bold" lengthAdjust="spacing" textLength="176.8267" x="231.31" y="1182.1785">Hierarchical Categories:</text><text fill="#000000" font-family="sans-serif" font-size="13" lengthAdjust="spacing" textLength="344.9824" x="231.31" y="1197.3113">System Category + Asset Name &#226;&#8224;&#8217; Equipment_Type</text><text fill="#000000" font-family="sans-serif" font-size="13" lengthAdjust="spacing" textLength="380.1421" x="231.31" y="1212.4441">System Category + Sub System Type &#226;&#8224;&#8217; System_Subtype</text><text fill="#000000" font-family="sans-serif" font-size="13" lengthAdjust="spacing" textLength="4.1323" x="231.31" y="1227.5769">&#160;</text><text fill="#000000" font-family="sans-serif" font-size="13" font-weight="bold" lengthAdjust="spacing" textLength="171.209" x="231.31" y="1242.7097">Classification Mapping:</text><text fill="#000000" font-family="sans-serif" font-size="13" lengthAdjust="spacing" textLength="252.605" x="231.31" y="1257.8425">Equipment_Category &#226;&#8224;&#8217; OmniClass_ID</text><text fill="#000000" font-family="sans-serif" font-size="13" lengthAdjust="spacing" textLength="217.8452" x="231.31" y="1272.9753">Uniformat_Class &#226;&#8224;&#8217; Uniformat_ID</text><text fill="#000000" font-family="sans-serif" font-size="13" lengthAdjust="spacing" textLength="249.0566" x="231.31" y="1288.1081">Multiple fields &#226;&#8224;&#8217; MasterFormat_Class</text></g><!--link MLOutput to DataMapper--><g class="link" data-entity-1="MLOutput" data-entity-2="DataMapper" data-source-line="115" data-uid="lnk13" id="link_MLOutput_DataMapper"><path codeLine="115" d="M121.59,1330.0469 C115.86,1199.2269 109.54,946.6269 132.31,733.4469 C144.88,615.6669 156.34,587.0569 186.31,472.4469 C188.83,462.8069 190.0946,458.242 193.1146,448.612 " fill="none" id="MLOutput-to-DataMapper" style="stroke:#333333;stroke-width:1;"/><polygon fill="#333333" points="194.91,442.8869,188.4002,450.2776,193.4138,447.6578,196.0336,452.6714,194.91,442.8869" style="stroke:#333333;stroke-width:1;"/><text fill="#000000" font-family="sans-serif" font-size="11" lengthAdjust="spacing" textLength="28.4829" x="119.31" y="969.3373">Input</text></g><!--link DataMapper to MasterDB--><g class="link" data-entity-1="DataMapper" data-entity-2="MasterDB" data-source-line="116" data-uid="lnk14" id="link_DataMapper_MasterDB"><path codeLine="116" d="M336.28,409.0369 C438.69,416.5969 570.98,433.7469 607.31,472.4469 C671.69,541.0469 674.451,646.8056 665.281,727.0756 " fill="none" id="DataMapper-to-MasterDB" style="stroke:#333333;stroke-width:1;"/><polygon fill="#333333" points="664.6,733.0369,669.5957,724.549,665.1675,728.0692,661.6474,723.641,664.6,733.0369" style="stroke:#333333;stroke-width:1;"/><text fill="#000000" font-family="sans-serif" font-size="11" lengthAdjust="spacing" textLength="38.21" x="846.4543" y="529.1573">Output</text><path d="M673.31,537.7516 L673.31,652.7516 L1057.31,652.7516 L1057.31,547.7516 L1047.31,537.7516 L673.31,537.7516 " fill="#FFF9C4" style="stroke:#FFD54F;stroke-width:0.5;"/><path d="M1047.31,537.7516 L1047.31,547.7516 L1057.31,547.7516 L1047.31,537.7516 " fill="#FFF9C4" style="stroke:#FFD54F;stroke-width:0.5;"/><text fill="#000000" font-family="sans-serif" font-size="13" font-weight="bold" lengthAdjust="spacing" textLength="182.6855" x="679.31" y="554.8185">Database Field Mapping:</text><text fill="#000000" font-family="sans-serif" font-size="13" lengthAdjust="spacing" textLength="362.6733" x="679.31" y="569.9513">Equipment_Category &#226;&#8224;&#8217; CategoryID (via hash function)</text><text fill="#000000" font-family="sans-serif" font-size="13" lengthAdjust="spacing" textLength="185.415" x="679.31" y="585.0841">Asset Tag &#226;&#8224;&#8217; EquipmentTag</text><text fill="#000000" font-family="sans-serif" font-size="13" lengthAdjust="spacing" textLength="183.0601" x="679.31" y="600.2169">Default value &#226;&#8224;&#8217; LocationID</text><text fill="#000000" font-family="sans-serif" font-size="13" lengthAdjust="spacing" textLength="4.1323" x="679.31" y="615.3497">&#160;</text><text fill="#000000" font-family="sans-serif" font-size="13" font-weight="bold" lengthAdjust="spacing" textLength="131.2378" x="679.31" y="630.4825">Classification IDs:</text><text fill="#000000" font-family="sans-serif" font-size="13" lengthAdjust="spacing" textLength="363.4985" x="679.31" y="645.6153">Preserve OmniClass_ID, Uniformat_ID, MasterFormat_ID</text></g><!--link MLOutput to EAVManager--><g class="link" data-entity-1="MLOutput" data-entity-2="EAVManager" data-source-line="127" data-uid="lnk15" id="link_MLOutput_EAVManager"><path codeLine="127" d="M94.46,1509.0769 C84.76,1547.5569 78.87,1593.0369 88.31,1633.6869 C90.61,1643.6069 91.9076,1648.2455 96.1876,1657.7555 " fill="none" id="MLOutput-to-EAVManager" style="stroke:#333333;stroke-width:1;"/><polygon fill="#333333" points="98.65,1663.2269,98.604,1653.3781,96.598,1658.6674,91.3087,1656.6614,98.65,1663.2269" style="stroke:#333333;stroke-width:1;"/><text fill="#000000" font-family="sans-serif" font-size="11" lengthAdjust="spacing" textLength="28.4829" x="89.31" y="1590.3973">Input</text></g><!--link EAVManager to MLOutput--><g class="link" data-entity-1="EAVManager" data-entity-2="MLOutput" data-source-line="128" data-uid="lnk16" id="link_EAVManager_MLOutput"><path codeLine="128" d="M126.31,1663.2469 C126.31,1621.4369 126.31,1565.6469 126.31,1514.8869 " fill="none" id="EAVManager-to-MLOutput" style="stroke:#333333;stroke-width:1;"/><polygon fill="#333333" points="126.31,1508.8869,122.31,1517.8869,126.31,1513.8869,130.31,1517.8869,126.31,1508.8869" style="stroke:#333333;stroke-width:1;"/><text fill="#000000" font-family="sans-serif" font-size="11" lengthAdjust="spacing" textLength="133.7563" x="219.0966" y="1549.8973">Enhances with EAV data</text><path d="M131.31,1558.4916 L131.31,1628.4916 L440.31,1628.4916 L440.31,1568.4916 L430.31,1558.4916 L131.31,1558.4916 " fill="#FFF9C4" style="stroke:#FFD54F;stroke-width:0.5;"/><path d="M430.31,1558.4916 L430.31,1568.4916 L440.31,1568.4916 L430.31,1558.4916 " fill="#FFF9C4" style="stroke:#FFD54F;stroke-width:0.5;"/><text fill="#000000" font-family="sans-serif" font-size="13" font-weight="bold" lengthAdjust="spacing" textLength="121.1958" x="137.31" y="1575.5585">EAV Integration:</text><text fill="#000000" font-family="sans-serif" font-size="13" lengthAdjust="spacing" textLength="285.2002" x="137.31" y="1590.6913">Equipment_Category &#226;&#8224;&#8217; attribute_template</text><text fill="#000000" font-family="sans-serif" font-size="13" lengthAdjust="spacing" textLength="288.3296" x="137.31" y="1605.8241">Equipment_Category &#226;&#8224;&#8217; required_attributes</text><text fill="#000000" font-family="sans-serif" font-size="13" lengthAdjust="spacing" textLength="272.5366" x="137.31" y="1620.9569">Equipment_Category &#226;&#8224;&#8217; classification_ids</text></g><rect fill="none" height="221.8594" rx="7.5" ry="7.5" style="stroke:#000000;stroke-width:1;" width="408.7334" x="629.5766" y="1778.5775"/><text fill="#000000" font-family="sans-serif" font-size="14" font-weight="bold" lengthAdjust="spacing" textLength="198.4131" x="634.5766" y="1796.5726">Column Mapping Process</text><text fill="#000000" font-family="sans-serif" font-size="14" lengthAdjust="spacing" textLength="4.4502" x="634.5766" y="1812.8695">&#160;</text><text fill="#000000" font-family="sans-serif" font-size="14" lengthAdjust="spacing" textLength="13.3574" x="634.5766" y="1829.1664">1.</text><text fill="#000000" font-family="sans-serif" font-size="14" font-weight="bold" lengthAdjust="spacing" textLength="168.2803" x="652.3842" y="1829.1664">Staging to ML Model:</text><text fill="#000000" font-family="sans-serif" font-size="14" lengthAdjust="spacing" textLength="375.1973" x="647.9272" y="1845.4632">Maps staging data columns to ML model input format</text><text fill="#000000" font-family="sans-serif" font-size="14" lengthAdjust="spacing" textLength="4.4502" x="634.5766" y="1861.7601">&#160;</text><text fill="#000000" font-family="sans-serif" font-size="14" lengthAdjust="spacing" textLength="13.3574" x="634.5766" y="1878.057">2.</text><text fill="#000000" font-family="sans-serif" font-size="14" font-weight="bold" lengthAdjust="spacing" textLength="167.0361" x="652.3842" y="1878.057">Feature Engineering:</text><text fill="#000000" font-family="sans-serif" font-size="14" lengthAdjust="spacing" textLength="385.3828" x="647.9272" y="1894.3539">Creates combined features and hierarchical categories</text><text fill="#000000" font-family="sans-serif" font-size="14" lengthAdjust="spacing" textLength="4.4502" x="634.5766" y="1910.6507">&#160;</text><text fill="#000000" font-family="sans-serif" font-size="14" lengthAdjust="spacing" textLength="13.3574" x="634.5766" y="1926.9476">3.</text><text fill="#000000" font-family="sans-serif" font-size="14" font-weight="bold" lengthAdjust="spacing" textLength="130.5186" x="652.3842" y="1926.9476">EAV Integration:</text><text fill="#000000" font-family="sans-serif" font-size="14" lengthAdjust="spacing" textLength="327.5508" x="647.9272" y="1943.2445">Adds attribute templates and classification IDs</text><text fill="#000000" font-family="sans-serif" font-size="14" lengthAdjust="spacing" textLength="4.4502" x="634.5766" y="1959.5414">&#160;</text><text fill="#000000" font-family="sans-serif" font-size="14" lengthAdjust="spacing" textLength="13.3574" x="634.5766" y="1975.8382">4.</text><text fill="#000000" font-family="sans-serif" font-size="14" font-weight="bold" lengthAdjust="spacing" textLength="136.4795" x="652.3842" y="1975.8382">ML to Master DB:</text><text fill="#000000" font-family="sans-serif" font-size="14" lengthAdjust="spacing" textLength="327.0928" x="647.9272" y="1992.1351">Maps ML predictions to master database fields</text><!--SRC=[pLVRRjms47tNLmoS1pjmaiADKw16OC3UNI46l8u1R_igSANP5M69KadAxhO8aD_8Mz5VwP_aIpeaTQ4ktYH07g8rlERmSCWvCpmZ7y8SDrmWABtBK0NgdekIIPR3ciNtMrbK8faLMI7XCUKQlVaBAOj7D_NijNsyoLd6bBeiP8AoXlnYdn5aiCcpXNqys4sXSOGAm_3NsUaGvMyNXlCtfw67k2KVR3lXwetvJ01zRvTpyna67nP2t_6_44vEWk0GLbnd66Zp6vRNBZw-uJ7Jl110dgfSm9AL9HTRWw-9ZmsEcBVVS72dsPO0C6UQ7G1JK1lC6FuE08ul2AxXXkLuHbcJnbjhNR6jRrn9blHGIoQg3Ojr9L7sx4M26TnK-RflD-6TmIOhc3R3tmJN_MMQw7btwq7kTaeZPPTft1PortDMhQ6UNkrAV6AgpriFXFA1nmZNVDCUwaFG44UKkoYkH5bfIztoslxjQ5lyKV4oHw6ZgRDHP9j2vencZRlUjlPSqV38dRzHC6u1nQG7Ct6HhoddIQJnpnwHoeKMPVj3Ur_fBZOt-762MpAQaU4J6xtF1RV6w6e-VJRFxeLkdSBy4aAEMQ9SxDP8DXjx4x5PpuKjmkl2LOzdQYCQN97lpTptPQ5LYTpfnb0jh2eOJK5fcJ5ZDtJSqB98EG69T17bfeeYRYx5qVDclfIOyDZGfIp61X0bQq9qUGYH6T60XI1VYEPyTiFQJcQtuOeAU-QgN9enIGg1urc6hBQyuoYPZDFTPSMpnDcSEBg3UvikBdwdu0IfiOkEnlNGRRP57SKzkOXuebnaMwJzAACHqyJckgA_A5rbHgO6e2E9b7qAlmCf5tNBkyJCEbOfBnKySfssgKXGCvwfm1Vebo_F_HoSmO5Jey0p6aoZJ0IextGWg8K1DOgCYtiwtzlrURzbdBtzQNrE4vtymt__Vlxup-UFds1Sn0IqujzX1gLCW85KTr2lj0dc3cCI2owpJfZ7npa6lxsOeTTLQ3YnvJ4Cca9tY9vMjiUewubE8XvGAkyWVdVelFZ22aTMM4tscyRL0NDZYTBI0zdUtWAmvLWPUmD3aO19NH0qEJNvzQv5LmEUqTL0hU1xYw2vBbJWMSCRHzL6FI9qVttKEVs6FFG5lqt4uFLcKAJZWkmS-Xf8q45TJXMinIshJFEItgqsjX5qkB7Yzf9Ia_pLDxFfBNkpOXQjcKBNbRub-gvRmT43Pv0obSAc4bQ0dxSNYhhKHFh8IWYI9aPam0FBAYzHNTDxAabNyxPkRYMQgu6zRBpeSVwYpoovVO9MJvOxMZtZiDWN8cKYnbfEZSWdvcLtWcOpToM8CDdJd7tyZkN-2micUi0NLenRZiVC8Lma2MH8_IS9t1T8latrbAPJ6WeYGjLnqS_9AuDg_WdG1JJlVatizD1Y1NLNjzIHLXglgiRRBW-souFBflFzi_KzqSaztpD9qvIQHdrXu-0A60MI-c8KjsBatBz-jITbz10lgaiFDEbndkDHfJgdfzOf1ML2Qzu5XrpGjFSIOw3k9SQIOw-fqmoR9fUJ_m40]--></g></svg>