<svg xmlns="http://www.w3.org/2000/svg" xmlns:xlink="http://www.w3.org/1999/xlink" contentStyleType="text/css" data-diagram-type="DESCRIPTION" height="1261px" preserveAspectRatio="none" style="width:1070px;height:1261px;background:#FFFFFF;" version="1.1" viewBox="0 0 1070 1261" width="1070px" zoomAndPan="magnify"><title>ML Classification Model Architecture</title><defs/><g><text fill="#000000" font-family="sans-serif" font-size="14" font-weight="bold" lengthAdjust="spacing" textLength="289.3857" x="383.6204" y="22.9951">ML Classification Model Architecture</text><!--cluster Data Sources--><g class="cluster" data-entity="Data Sources" data-source-line="17" data-uid="ent0002" id="cluster_Data Sources"><path d="M8.5,43.2969 L114.2813,43.2969 A3.75,3.75 0 0 1 116.7813,45.7969 L123.7813,65.5938 L675.5,65.5938 A2.5,2.5 0 0 1 678,68.0938 L678,154.3869 A2.5,2.5 0 0 1 675.5,156.8869 L8.5,156.8869 A2.5,2.5 0 0 1 6,154.3869 L6,45.7969 A2.5,2.5 0 0 1 8.5,43.2969 " fill="#F5F5F5" style="stroke:#BDBDBD;stroke-width:1.5;"/><line style="stroke:#BDBDBD;stroke-width:1.5;" x1="6" x2="123.7813" y1="65.5938" y2="65.5938"/><text fill="#000000" font-family="sans-serif" font-size="14" font-weight="bold" lengthAdjust="spacing" textLength="104.7813" x="10" y="58.292">Data Sources</text></g><!--cluster Data Mapping Layer--><g class="cluster" data-entity="Data Mapping Layer" data-source-line="27" data-uid="ent0008" id="cluster_Data Mapping Layer"><path d="M517.5,205.8869 L677.5586,205.8869 A3.75,3.75 0 0 1 680.0586,208.3869 L687.0586,228.1838 L1041.5,228.1838 A2.5,2.5 0 0 1 1044,230.6838 L1044,340.0469 A2.5,2.5 0 0 1 1041.5,342.5469 L517.5,342.5469 A2.5,2.5 0 0 1 515,340.0469 L515,208.3869 A2.5,2.5 0 0 1 517.5,205.8869 " fill="#F5F5F5" style="stroke:#BDBDBD;stroke-width:1.5;"/><line style="stroke:#BDBDBD;stroke-width:1.5;" x1="515" x2="687.0586" y1="228.1838" y2="228.1838"/><text fill="#000000" font-family="sans-serif" font-size="14" font-weight="bold" lengthAdjust="spacing" textLength="159.0586" x="519" y="220.882">Data Mapping Layer</text></g><!--cluster Feature Engineering--><g class="cluster" data-entity="Feature Engineering" data-source-line="38" data-uid="ent0013" id="cluster_Feature Engineering"><path d="M304.5,391.5469 L466.9375,391.5469 A3.75,3.75 0 0 1 469.4375,394.0469 L476.4375,413.8438 L1049.5,413.8438 A2.5,2.5 0 0 1 1052,416.3438 L1052,486.3469 A2.5,2.5 0 0 1 1049.5,488.8469 L304.5,488.8469 A2.5,2.5 0 0 1 302,486.3469 L302,394.0469 A2.5,2.5 0 0 1 304.5,391.5469 " fill="#F5F5F5" style="stroke:#BDBDBD;stroke-width:1.5;"/><line style="stroke:#BDBDBD;stroke-width:1.5;" x1="302" x2="476.4375" y1="413.8438" y2="413.8438"/><text fill="#000000" font-family="sans-serif" font-size="14" font-weight="bold" lengthAdjust="spacing" textLength="161.4375" x="306" y="406.542">Feature Engineering</text></g><!--cluster ML Model--><g class="cluster" data-entity="ML Model" data-source-line="45" data-uid="ent0018" id="cluster_ML Model"><path d="M325.5,537.8469 L402.0918,537.8469 A3.75,3.75 0 0 1 404.5918,540.3469 L411.5918,560.1438 L512.5,560.1438 A2.5,2.5 0 0 1 515,562.6438 L515,772.2369 A2.5,2.5 0 0 1 512.5,774.7369 L325.5,774.7369 A2.5,2.5 0 0 1 323,772.2369 L323,540.3469 A2.5,2.5 0 0 1 325.5,537.8469 " fill="#F5F5F5" style="stroke:#BDBDBD;stroke-width:1.5;"/><line style="stroke:#BDBDBD;stroke-width:1.5;" x1="323" x2="411.5918" y1="560.1438" y2="560.1438"/><text fill="#000000" font-family="sans-serif" font-size="14" font-weight="bold" lengthAdjust="spacing" textLength="75.5918" x="327" y="552.842">ML Model</text></g><!--cluster EAV Integration--><g class="cluster" data-entity="EAV Integration" data-source-line="50" data-uid="ent0021" id="cluster_EAV Integration"><path d="M248.5,823.7369 L374.4199,823.7369 A3.75,3.75 0 0 1 376.9199,826.2369 L383.9199,846.0338 L594.5,846.0338 A2.5,2.5 0 0 1 597,848.5338 L597,934.8369 A2.5,2.5 0 0 1 594.5,937.3369 L248.5,937.3369 A2.5,2.5 0 0 1 246,934.8369 L246,826.2369 A2.5,2.5 0 0 1 248.5,823.7369 " fill="#F5F5F5" style="stroke:#BDBDBD;stroke-width:1.5;"/><line style="stroke:#BDBDBD;stroke-width:1.5;" x1="246" x2="383.9199" y1="846.0338" y2="846.0338"/><text fill="#000000" font-family="sans-serif" font-size="14" font-weight="bold" lengthAdjust="spacing" textLength="124.9199" x="250" y="838.732">EAV Integration</text></g><!--cluster Master DB Mapping--><g class="cluster" data-entity="Master DB Mapping" data-source-line="55" data-uid="ent0024" id="cluster_Master DB Mapping"><path d="M325.5,986.3369 L481.5527,986.3369 A3.75,3.75 0 0 1 484.0527,988.8369 L491.0527,1008.6338 L508.5,1008.6338 A2.5,2.5 0 0 1 511,1011.1338 L511,1081.1269 A2.5,2.5 0 0 1 508.5,1083.6269 L325.5,1083.6269 A2.5,2.5 0 0 1 323,1081.1269 L323,988.8369 A2.5,2.5 0 0 1 325.5,986.3369 " fill="#F5F5F5" style="stroke:#BDBDBD;stroke-width:1.5;"/><line style="stroke:#BDBDBD;stroke-width:1.5;" x1="323" x2="491.0527" y1="1008.6338" y2="1008.6338"/><text fill="#000000" font-family="sans-serif" font-size="14" font-weight="bold" lengthAdjust="spacing" textLength="155.0527" x="327" y="1001.332">Master DB Mapping</text></g><!--cluster Master Database--><g class="cluster" data-entity="Master Database" data-source-line="59" data-uid="ent0026" id="cluster_Master Database"><path d="M239,1142.6269 C239,1132.6269 429.5,1132.6269 429.5,1132.6269 C429.5,1132.6269 620,1132.6269 620,1142.6269 L620,1234.9269 C620,1244.9269 429.5,1244.9269 429.5,1244.9269 C429.5,1244.9269 239,1244.9269 239,1234.9269 L239,1142.6269 " fill="#F5F5F5" style="stroke:#BDBDBD;stroke-width:1;"/><path d="M239,1142.6269 C239,1152.6269 429.5,1152.6269 429.5,1152.6269 C429.5,1152.6269 620,1152.6269 620,1142.6269 " fill="none" style="stroke:#BDBDBD;stroke-width:1;"/><text fill="#000000" font-family="sans-serif" font-size="14" font-weight="bold" lengthAdjust="spacing" textLength="134.1826" x="362.4087" y="1167.622">Master Database</text></g><!--entity StagingData--><g class="entity" data-entity="StagingData" data-source-line="18" data-uid="ent0003" id="entity_StagingData"><rect fill="#EEEEEE" height="62.5938" rx="2.5" ry="2.5" style="stroke:#666666;stroke-width:0.5;" width="131.3691" x="530.32" y="78.2969"/><rect fill="#EEEEEE" height="10" style="stroke:#666666;stroke-width:0.5;" width="15" x="641.6891" y="83.2969"/><rect fill="#EEEEEE" height="2" style="stroke:#666666;stroke-width:0.5;" width="4" x="639.6891" y="85.2969"/><rect fill="#EEEEEE" height="2" style="stroke:#666666;stroke-width:0.5;" width="4" x="639.6891" y="89.2969"/><text fill="#000000" font-family="sans-serif" font-size="14" lengthAdjust="spacing" textLength="91.3691" x="545.32" y="111.292">Staging Data</text><text fill="#000000" font-family="sans-serif" font-size="14" lengthAdjust="spacing" textLength="81.2109" x="545.32" y="127.5889">(CSV/Excel)</text></g><!--entity TrainingData--><g class="entity" data-entity="TrainingData" data-source-line="19" data-uid="ent0004" id="entity_TrainingData"><rect fill="#EEEEEE" height="62.5938" rx="2.5" ry="2.5" style="stroke:#666666;stroke-width:0.5;" width="135.1768" x="22.41" y="78.2969"/><rect fill="#EEEEEE" height="10" style="stroke:#666666;stroke-width:0.5;" width="15" x="137.5868" y="83.2969"/><rect fill="#EEEEEE" height="2" style="stroke:#666666;stroke-width:0.5;" width="4" x="135.5868" y="85.2969"/><rect fill="#EEEEEE" height="2" style="stroke:#666666;stroke-width:0.5;" width="4" x="135.5868" y="89.2969"/><text fill="#000000" font-family="sans-serif" font-size="14" lengthAdjust="spacing" textLength="95.1768" x="37.41" y="111.292">Training Data</text><text fill="#000000" font-family="sans-serif" font-size="14" lengthAdjust="spacing" textLength="83.2207" x="37.41" y="127.5889">(eq_ids.csv)</text></g><g class="entity" data-entity="GMN5" data-source-line="21" data-uid="ent0006" id="entity_GMN5"><path d="M192.45,81.8869 L192.45,105.5869 L157.96,109.5869 L192.45,113.5869 L192.45,137.2853 A0,0 0 0 0 192.45,137.2853 L495.5589,137.2853 A0,0 0 0 0 495.5589,137.2853 L495.5589,91.8869 L485.5589,81.8869 L192.45,81.8869 A0,0 0 0 0 192.45,81.8869 " fill="#FFF9C4" style="stroke:#FFD54F;stroke-width:0.5;"/><path d="M485.5589,81.8869 L485.5589,91.8869 L495.5589,91.8869 L485.5589,81.8869 " fill="#FFF9C4" style="stroke:#FFD54F;stroke-width:0.5;"/><text fill="#000000" font-family="sans-serif" font-size="13" lengthAdjust="spacing" textLength="282.1089" x="198.45" y="98.9538">Located at: nexusml/ingest/data/eq_ids.csv</text><text fill="#000000" font-family="sans-serif" font-size="13" lengthAdjust="spacing" textLength="248.3901" x="198.45" y="114.0866">Contains labeled equipment data with</text><text fill="#000000" font-family="sans-serif" font-size="13" lengthAdjust="spacing" textLength="191.7246" x="198.45" y="129.2194">categories and classifications</text></g><!--entity DataMapper--><g class="entity" data-entity="DataMapper" data-source-line="28" data-uid="ent0009" id="entity_DataMapper"><rect fill="#EEEEEE" height="46.2969" rx="2.5" ry="2.5" style="stroke:#666666;stroke-width:0.5;" width="130.6787" x="530.66" y="260.5669"/><rect fill="#EEEEEE" height="10" style="stroke:#666666;stroke-width:0.5;" width="15" x="641.3387" y="265.5669"/><rect fill="#EEEEEE" height="2" style="stroke:#666666;stroke-width:0.5;" width="4" x="639.3387" y="267.5669"/><rect fill="#EEEEEE" height="2" style="stroke:#666666;stroke-width:0.5;" width="4" x="639.3387" y="271.5669"/><text fill="#000000" font-family="sans-serif" font-size="14" lengthAdjust="spacing" textLength="90.6787" x="545.66" y="293.562">Data Mapper</text></g><g class="entity" data-entity="GMN10" data-source-line="30" data-uid="ent0011" id="entity_GMN10"><path d="M696.09,240.8869 L696.09,279.7169 L661.72,283.7169 L696.09,287.7169 L696.09,326.5509 A0,0 0 0 0 696.09,326.5509 L1027.9157,326.5509 A0,0 0 0 0 1027.9157,326.5509 L1027.9157,250.8869 L1017.9157,240.8869 L696.09,240.8869 A0,0 0 0 0 696.09,240.8869 " fill="#FFF9C4" style="stroke:#FFD54F;stroke-width:0.5;"/><path d="M1017.9157,240.8869 L1017.9157,250.8869 L1027.9157,250.8869 L1017.9157,240.8869 " fill="#FFF9C4" style="stroke:#FFD54F;stroke-width:0.5;"/><text fill="#000000" font-family="sans-serif" font-size="13" lengthAdjust="spacing" textLength="310.8257" x="702.09" y="257.9538">Maps staging data columns to ML model format</text><text fill="#000000" font-family="sans-serif" font-size="13" lengthAdjust="spacing" textLength="250.1548" x="702.09" y="273.0866">- Asset Name &#226;&#8224;&#8217; Equipment_Category</text><text fill="#000000" font-family="sans-serif" font-size="13" lengthAdjust="spacing" textLength="178.8579" x="702.09" y="288.2194">- Trade &#226;&#8224;&#8217; Uniformat_Class</text><text fill="#000000" font-family="sans-serif" font-size="13" lengthAdjust="spacing" textLength="234.5396" x="702.09" y="303.3522">- System Category &#226;&#8224;&#8217; System_Type</text><text fill="#000000" font-family="sans-serif" font-size="13" lengthAdjust="spacing" textLength="33.1982" x="702.09" y="318.485">- etc.</text></g><!--entity TextCombiner--><g class="entity" data-entity="TextCombiner" data-source-line="39" data-uid="ent0014" id="entity_TextCombiner"><rect fill="#EEEEEE" height="46.2969" rx="2.5" ry="2.5" style="stroke:#666666;stroke-width:0.5;" width="143.3867" x="318.31" y="426.5469"/><rect fill="#EEEEEE" height="10" style="stroke:#666666;stroke-width:0.5;" width="15" x="441.6967" y="431.5469"/><rect fill="#EEEEEE" height="2" style="stroke:#666666;stroke-width:0.5;" width="4" x="439.6967" y="433.5469"/><rect fill="#EEEEEE" height="2" style="stroke:#666666;stroke-width:0.5;" width="4" x="439.6967" y="437.5469"/><text fill="#000000" font-family="sans-serif" font-size="14" lengthAdjust="spacing" textLength="103.3867" x="333.31" y="459.542">Text Combiner</text></g><!--entity NumericCleaner--><g class="entity" data-entity="NumericCleaner" data-source-line="40" data-uid="ent0015" id="entity_NumericCleaner"><rect fill="#EEEEEE" height="46.2969" rx="2.5" ry="2.5" style="stroke:#666666;stroke-width:0.5;" width="157.4893" x="496.26" y="426.5469"/><rect fill="#EEEEEE" height="10" style="stroke:#666666;stroke-width:0.5;" width="15" x="633.7493" y="431.5469"/><rect fill="#EEEEEE" height="2" style="stroke:#666666;stroke-width:0.5;" width="4" x="631.7493" y="433.5469"/><rect fill="#EEEEEE" height="2" style="stroke:#666666;stroke-width:0.5;" width="4" x="631.7493" y="437.5469"/><text fill="#000000" font-family="sans-serif" font-size="14" lengthAdjust="spacing" textLength="117.4893" x="511.26" y="459.542">Numeric Cleaner</text></g><!--entity HierarchyBuilder--><g class="entity" data-entity="HierarchyBuilder" data-source-line="41" data-uid="ent0016" id="entity_HierarchyBuilder"><rect fill="#EEEEEE" height="46.2969" rx="2.5" ry="2.5" style="stroke:#666666;stroke-width:0.5;" width="161.9395" x="689.03" y="426.5469"/><rect fill="#EEEEEE" height="10" style="stroke:#666666;stroke-width:0.5;" width="15" x="830.9695" y="431.5469"/><rect fill="#EEEEEE" height="2" style="stroke:#666666;stroke-width:0.5;" width="4" x="828.9695" y="433.5469"/><rect fill="#EEEEEE" height="2" style="stroke:#666666;stroke-width:0.5;" width="4" x="828.9695" y="437.5469"/><text fill="#000000" font-family="sans-serif" font-size="14" lengthAdjust="spacing" textLength="121.9395" x="704.03" y="459.542">Hierarchy Builder</text></g><!--entity ColumnMapper--><g class="entity" data-entity="ColumnMapper" data-source-line="42" data-uid="ent0017" id="entity_ColumnMapper"><rect fill="#EEEEEE" height="46.2969" rx="2.5" ry="2.5" style="stroke:#666666;stroke-width:0.5;" width="150.8652" x="885.57" y="426.5469"/><rect fill="#EEEEEE" height="10" style="stroke:#666666;stroke-width:0.5;" width="15" x="1016.4352" y="431.5469"/><rect fill="#EEEEEE" height="2" style="stroke:#666666;stroke-width:0.5;" width="4" x="1014.4352" y="433.5469"/><rect fill="#EEEEEE" height="2" style="stroke:#666666;stroke-width:0.5;" width="4" x="1014.4352" y="437.5469"/><text fill="#000000" font-family="sans-serif" font-size="14" lengthAdjust="spacing" textLength="110.8652" x="900.57" y="459.542">Column Mapper</text></g><!--entity TFIDF--><g class="entity" data-entity="TFIDF" data-source-line="46" data-uid="ent0019" id="entity_TFIDF"><rect fill="#EEEEEE" height="46.2969" rx="2.5" ry="2.5" style="stroke:#666666;stroke-width:0.5;" width="160.374" x="338.81" y="572.8469"/><rect fill="#EEEEEE" height="10" style="stroke:#666666;stroke-width:0.5;" width="15" x="479.184" y="577.8469"/><rect fill="#EEEEEE" height="2" style="stroke:#666666;stroke-width:0.5;" width="4" x="477.184" y="579.8469"/><rect fill="#EEEEEE" height="2" style="stroke:#666666;stroke-width:0.5;" width="4" x="477.184" y="583.8469"/><text fill="#000000" font-family="sans-serif" font-size="14" lengthAdjust="spacing" textLength="120.374" x="353.81" y="605.842">TF-IDF Vectorizer</text></g><!--entity RandomForest--><g class="entity" data-entity="RandomForest" data-source-line="47" data-uid="ent0020" id="entity_RandomForest"><rect fill="#EEEEEE" height="62.5938" rx="2.5" ry="2.5" style="stroke:#666666;stroke-width:0.5;" width="146.4902" x="352.75" y="696.1469"/><rect fill="#EEEEEE" height="10" style="stroke:#666666;stroke-width:0.5;" width="15" x="479.2402" y="701.1469"/><rect fill="#EEEEEE" height="2" style="stroke:#666666;stroke-width:0.5;" width="4" x="477.2402" y="703.1469"/><rect fill="#EEEEEE" height="2" style="stroke:#666666;stroke-width:0.5;" width="4" x="477.2402" y="707.1469"/><text fill="#000000" font-family="sans-serif" font-size="14" lengthAdjust="spacing" textLength="106.4902" x="367.75" y="729.142">Random Forest</text><text fill="#000000" font-family="sans-serif" font-size="14" lengthAdjust="spacing" textLength="63.9092" x="367.75" y="745.4389">Classifier</text></g><!--entity EAVManager--><g class="entity" data-entity="EAVManager" data-source-line="51" data-uid="ent0022" id="entity_EAVManager"><rect fill="#EEEEEE" height="46.2969" rx="2.5" ry="2.5" style="stroke:#666666;stroke-width:0.5;" width="133.8164" x="262.09" y="866.8869"/><rect fill="#EEEEEE" height="10" style="stroke:#666666;stroke-width:0.5;" width="15" x="375.9064" y="871.8869"/><rect fill="#EEEEEE" height="2" style="stroke:#666666;stroke-width:0.5;" width="4" x="373.9064" y="873.8869"/><rect fill="#EEEEEE" height="2" style="stroke:#666666;stroke-width:0.5;" width="4" x="373.9064" y="877.8869"/><text fill="#000000" font-family="sans-serif" font-size="14" lengthAdjust="spacing" textLength="93.8164" x="277.09" y="899.882">EAV Manager</text></g><!--entity ClassificationMapper--><g class="entity" data-entity="ClassificationMapper" data-source-line="52" data-uid="ent0023" id="entity_ClassificationMapper"><rect fill="#EEEEEE" height="62.5938" rx="2.5" ry="2.5" style="stroke:#666666;stroke-width:0.5;" width="149.457" x="431.27" y="858.7369"/><rect fill="#EEEEEE" height="10" style="stroke:#666666;stroke-width:0.5;" width="15" x="560.727" y="863.7369"/><rect fill="#EEEEEE" height="2" style="stroke:#666666;stroke-width:0.5;" width="4" x="558.727" y="865.7369"/><rect fill="#EEEEEE" height="2" style="stroke:#666666;stroke-width:0.5;" width="4" x="558.727" y="869.7369"/><text fill="#000000" font-family="sans-serif" font-size="14" lengthAdjust="spacing" textLength="92.6338" x="446.27" y="891.732">Classification</text><text fill="#000000" font-family="sans-serif" font-size="14" lengthAdjust="spacing" textLength="109.457" x="446.27" y="908.0289">System Mapper</text></g><!--entity DBFieldMapper--><g class="entity" data-entity="DBFieldMapper" data-source-line="56" data-uid="ent0025" id="entity_DBFieldMapper"><rect fill="#EEEEEE" height="46.2969" rx="2.5" ry="2.5" style="stroke:#666666;stroke-width:0.5;" width="155.418" x="339.29" y="1021.3369"/><rect fill="#EEEEEE" height="10" style="stroke:#666666;stroke-width:0.5;" width="15" x="474.708" y="1026.3369"/><rect fill="#EEEEEE" height="2" style="stroke:#666666;stroke-width:0.5;" width="4" x="472.708" y="1028.3369"/><rect fill="#EEEEEE" height="2" style="stroke:#666666;stroke-width:0.5;" width="4" x="472.708" y="1032.3369"/><text fill="#000000" font-family="sans-serif" font-size="14" lengthAdjust="spacing" textLength="115.418" x="354.29" y="1054.332">DB Field Mapper</text></g><!--entity EquipmentTable--><g class="entity" data-entity="EquipmentTable" data-source-line="60" data-uid="ent0027" id="entity_EquipmentTable"><rect fill="#EEEEEE" height="46.2969" rx="2.5" ry="2.5" style="stroke:#666666;stroke-width:0.5;" width="115.9951" x="255" y="1182.6269"/><rect fill="#EEEEEE" height="10" style="stroke:#666666;stroke-width:0.5;" width="15" x="350.9951" y="1187.6269"/><rect fill="#EEEEEE" height="2" style="stroke:#666666;stroke-width:0.5;" width="4" x="348.9951" y="1189.6269"/><rect fill="#EEEEEE" height="2" style="stroke:#666666;stroke-width:0.5;" width="4" x="348.9951" y="1193.6269"/><text fill="#000000" font-family="sans-serif" font-size="14" lengthAdjust="spacing" textLength="75.9951" x="270" y="1215.622">Equipment</text></g><!--entity CategoriesTable--><g class="entity" data-entity="CategoriesTable" data-source-line="61" data-uid="ent0028" id="entity_CategoriesTable"><rect fill="#EEEEEE" height="46.2969" rx="2.5" ry="2.5" style="stroke:#666666;stroke-width:0.5;" width="198.457" x="405.77" y="1182.6269"/><rect fill="#EEEEEE" height="10" style="stroke:#666666;stroke-width:0.5;" width="15" x="584.227" y="1187.6269"/><rect fill="#EEEEEE" height="2" style="stroke:#666666;stroke-width:0.5;" width="4" x="582.227" y="1189.6269"/><rect fill="#EEEEEE" height="2" style="stroke:#666666;stroke-width:0.5;" width="4" x="582.227" y="1193.6269"/><text fill="#000000" font-family="sans-serif" font-size="14" lengthAdjust="spacing" textLength="158.457" x="420.77" y="1215.622">Equipment_Categories</text></g><!--entity MLModel--><g class="entity" data-entity="MLModel" data-source-line="66" data-uid="ent0030" id="entity_MLModel"><ellipse cx="90" cy="283.7169" fill="#F1F1F1" rx="8" ry="8" style="stroke:#181818;stroke-width:0.5;"/><text fill="#000000" font-family="sans-serif" font-size="14" lengthAdjust="spacing" textLength="61.9131" x="59.0435" y="313.712">MLModel</text></g><!--link StagingData to DataMapper--><g class="link" data-entity-1="StagingData" data-entity-2="DataMapper" data-source-line="65" data-uid="lnk29" id="link_StagingData_DataMapper"><path d="M596,141.3669 C596,175.4969 596,223.7569 596,254.1669 " fill="none" id="StagingData-to-DataMapper" style="stroke:#333333;stroke-width:1;"/><polygon fill="#333333" points="596,260.1669,600,251.1669,596,255.1669,592,251.1669,596,260.1669" style="stroke:#333333;stroke-width:1;"/><text fill="#000000" font-family="sans-serif" font-size="13" lengthAdjust="spacing" textLength="50.1973" x="597" y="185.9538">1. Input</text></g><!--link TrainingData to MLModel--><g class="link" data-entity-1="TrainingData" data-entity-2="MLModel" data-source-line="66" data-uid="lnk31" id="link_TrainingData_MLModel"><path d="M90,141.3669 C90,182.1669 90,245.7369 90,268.9369 " fill="none" id="TrainingData-to-MLModel" style="stroke:#333333;stroke-width:1;"/><polygon fill="#333333" points="90,274.9369,94,265.9369,90,269.9369,86,265.9369,90,274.9369" style="stroke:#333333;stroke-width:1;"/><text fill="#000000" font-family="sans-serif" font-size="13" lengthAdjust="spacing" textLength="53.2061" x="91" y="185.9538">Training</text></g><!--link DataMapper to TextCombiner--><g class="link" data-entity-1="DataMapper" data-entity-2="TextCombiner" data-source-line="68" data-uid="lnk32" id="link_DataMapper_TextCombiner"><path d="M550.45,307.2569 C525.75,320.5169 495.38,338.5869 471,358.5469 C446.26,378.8169 426.0642,402.0926 410.7142,421.4826 " fill="none" id="DataMapper-to-TextCombiner" style="stroke:#333333;stroke-width:1;"/><polygon fill="#333333" points="406.99,426.1869,415.7124,421.6132,410.0935,422.2666,409.44,416.6476,406.99,426.1869" style="stroke:#333333;stroke-width:1;"/><text fill="#000000" font-family="sans-serif" font-size="13" lengthAdjust="spacing" textLength="103.6445" x="472" y="371.6138">2. Mapped Data</text></g><!--link DataMapper to NumericCleaner--><g class="link" data-entity-1="DataMapper" data-entity-2="NumericCleaner" data-source-line="69" data-uid="lnk33" id="link_DataMapper_NumericCleaner"><path d="M593.12,307.1769 C589.11,338.4869 582.6422,388.9955 578.6322,420.3055 " fill="none" id="DataMapper-to-NumericCleaner" style="stroke:#333333;stroke-width:1;"/><polygon fill="#333333" points="577.87,426.2569,582.9809,417.8379,578.5052,421.2974,575.0457,416.8216,577.87,426.2569" style="stroke:#333333;stroke-width:1;"/></g><!--link DataMapper to HierarchyBuilder--><g class="link" data-entity-1="DataMapper" data-entity-2="HierarchyBuilder" data-source-line="70" data-uid="lnk34" id="link_DataMapper_HierarchyBuilder"><path d="M619.83,307.1769 C653.06,338.4869 708.5937,390.8316 741.8137,422.1416 " fill="none" id="DataMapper-to-HierarchyBuilder" style="stroke:#333333;stroke-width:1;"/><polygon fill="#333333" points="746.18,426.2569,742.3741,417.1731,742.5414,422.8275,736.887,422.9949,746.18,426.2569" style="stroke:#333333;stroke-width:1;"/></g><!--link DataMapper to ColumnMapper--><g class="link" data-entity-1="DataMapper" data-entity-2="ColumnMapper" data-source-line="71" data-uid="lnk35" id="link_DataMapper_ColumnMapper"><path d="M617.89,307.1669 C633.53,321.8469 655.84,340.1669 679,350.5469 C698.45,359.2769 848.3,375.4069 868,383.5469 C892.96,393.8669 913.188,408.0076 930.928,422.4576 " fill="none" id="DataMapper-to-ColumnMapper" style="stroke:#333333;stroke-width:1;"/><polygon fill="#333333" points="935.58,426.2469,931.1281,417.4616,931.7033,423.0891,926.0758,423.6643,935.58,426.2469" style="stroke:#333333;stroke-width:1;"/></g><!--link TextCombiner to TFIDF--><g class="link" data-entity-1="TextCombiner" data-entity-2="TFIDF" data-source-line="73" data-uid="lnk36" id="link_TextCombiner_TFIDF"><path d="M394.53,473.2469 C399.98,500.3569 407.8887,539.6843 413.3187,566.7243 " fill="none" id="TextCombiner-to-TFIDF" style="stroke:#333333;stroke-width:1;"/><polygon fill="#333333" points="414.5,572.6069,416.6498,562.9955,413.5156,567.7047,408.8063,564.5706,414.5,572.6069" style="stroke:#333333;stroke-width:1;"/><text fill="#000000" font-family="sans-serif" font-size="13" lengthAdjust="spacing" textLength="106.2915" x="404" y="517.9138">3. Text Features</text></g><!--link NumericCleaner to RandomForest--><g class="link" data-entity-1="NumericCleaner" data-entity-2="RandomForest" data-source-line="74" data-uid="lnk37" id="link_NumericCleaner_RandomForest"><path d="M578.5,473.3069 C583.76,515.4669 589.01,607.1569 547,666.1469 C535.29,682.5869 523.1666,692.1238 505.0966,701.0738 " fill="none" id="NumericCleaner-to-RandomForest" style="stroke:#333333;stroke-width:1;"/><polygon fill="#333333" points="499.72,703.7369,509.5603,703.3268,504.2005,701.5177,506.0096,696.1579,499.72,703.7369" style="stroke:#333333;stroke-width:1;"/><text fill="#000000" font-family="sans-serif" font-size="13" lengthAdjust="spacing" textLength="115.7559" x="582" y="600.5638">Numeric Features</text></g><!--link HierarchyBuilder to RandomForest--><g class="link" data-entity-1="HierarchyBuilder" data-entity-2="RandomForest" data-source-line="75" data-uid="lnk38" id="link_HierarchyBuilder_RandomForest"><path d="M767.35,473.2169 C762.01,508.8269 746.75,578.2769 706,619.1469 C650.22,675.0869 568.0545,701.1859 505.6045,714.1659 " fill="none" id="HierarchyBuilder-to-RandomForest" style="stroke:#333333;stroke-width:1;"/><polygon fill="#333333" points="499.73,715.3869,509.3557,717.4717,504.6254,714.3694,507.7277,709.6391,499.73,715.3869" style="stroke:#333333;stroke-width:1;"/><text fill="#000000" font-family="sans-serif" font-size="13" lengthAdjust="spacing" textLength="138.7915" x="755" y="600.5638">Hierarchical Features</text></g><!--link ColumnMapper to RandomForest--><g class="link" data-entity-1="ColumnMapper" data-entity-2="RandomForest" data-source-line="76" data-uid="lnk39" id="link_ColumnMapper_RandomForest"><path d="M959.81,473.2869 C956.62,509.6469 944.92,580.9069 902,619.1469 C843.1,671.6269 623.9082,703.8299 505.5882,717.8699 " fill="none" id="ColumnMapper-to-RandomForest" style="stroke:#333333;stroke-width:1;"/><polygon fill="#333333" points="499.63,718.5769,509.0386,721.4885,504.5952,717.9877,508.096,713.5442,499.63,718.5769" style="stroke:#333333;stroke-width:1;"/><text fill="#000000" font-family="sans-serif" font-size="13" lengthAdjust="spacing" textLength="112.6265" x="950" y="600.5638">Mapped Columns</text></g><!--link TFIDF to RandomForest--><g class="link" data-entity-1="TFIDF" data-entity-2="RandomForest" data-source-line="78" data-uid="lnk40" id="link_TFIDF_RandomForest"><path d="M420.22,619.5469 C421.36,640.6969 422.7551,666.4957 424.0251,689.9157 " fill="none" id="TFIDF-to-RandomForest" style="stroke:#333333;stroke-width:1;"/><polygon fill="#333333" points="424.35,695.9069,427.8568,686.7035,424.0793,690.9142,419.8685,687.1367,424.35,695.9069" style="stroke:#333333;stroke-width:1;"/><text fill="#000000" font-family="sans-serif" font-size="13" lengthAdjust="spacing" textLength="118.5171" x="423" y="662.2138">4. Vectorized Text</text></g><!--link RandomForest to EAVManager--><g class="link" data-entity-1="RandomForest" data-entity-2="EAVManager" data-source-line="80" data-uid="lnk41" id="link_RandomForest_EAVManager"><path d="M387.87,758.9869 C378.05,768.3369 368.23,779.2269 361,790.7369 C346.11,814.4469 338.7483,839.9003 334.2783,860.7403 " fill="none" id="RandomForest-to-EAVManager" style="stroke:#333333;stroke-width:1;"/><polygon fill="#333333" points="333.02,866.6069,338.8185,858.6459,334.0686,861.7181,330.9964,856.9681,333.02,866.6069" style="stroke:#333333;stroke-width:1;"/><text fill="#000000" font-family="sans-serif" font-size="13" lengthAdjust="spacing" textLength="88.4038" x="362" y="803.8038">5. Predictions</text></g><!--link RandomForest to ClassificationMapper--><g class="link" data-entity-1="RandomForest" data-entity-2="ClassificationMapper" data-source-line="81" data-uid="lnk42" id="link_RandomForest_ClassificationMapper"><path d="M442.53,759.0469 C447.88,769.0969 453.77,780.3569 459,790.7369 C470.32,813.2069 480.007,833.4371 489.157,852.8971 " fill="none" id="RandomForest-to-ClassificationMapper" style="stroke:#333333;stroke-width:1;"/><polygon fill="#333333" points="491.71,858.3269,491.5003,848.4803,489.5825,853.8021,484.2606,851.8843,491.71,858.3269" style="stroke:#333333;stroke-width:1;"/></g><!--link EAVManager to DBFieldMapper--><g class="link" data-entity-1="EAVManager" data-entity-2="DBFieldMapper" data-source-line="83" data-uid="lnk43" id="link_EAVManager_DBFieldMapper"><path d="M329.72,913.3869 C331.06,929.9469 334.65,952.6169 344,970.3369 C354.39,990.0069 367.2912,1003.8743 382.5212,1016.9743 " fill="none" id="EAVManager-to-DBFieldMapper" style="stroke:#333333;stroke-width:1;"/><polygon fill="#333333" points="387.07,1020.8869,382.8552,1011.9854,383.2793,1017.6264,377.6384,1018.0505,387.07,1020.8869" style="stroke:#333333;stroke-width:1;"/><text fill="#000000" font-family="sans-serif" font-size="13" lengthAdjust="spacing" textLength="111.0713" x="345" y="966.4038">6. EAV Attributes</text></g><!--link ClassificationMapper to DBFieldMapper--><g class="link" data-entity-1="ClassificationMapper" data-entity-2="DBFieldMapper" data-source-line="84" data-uid="lnk44" id="link_ClassificationMapper_DBFieldMapper"><path d="M488.87,921.6369 C480.55,936.4069 470.34,954.3469 461,970.3369 C451.06,987.3469 442.6841,1001.2983 433.9341,1015.7083 " fill="none" id="ClassificationMapper-to-DBFieldMapper" style="stroke:#333333;stroke-width:1;"/><polygon fill="#333333" points="430.82,1020.8369,438.9103,1015.2201,433.4151,1016.5631,432.0722,1011.0679,430.82,1020.8369" style="stroke:#333333;stroke-width:1;"/><text fill="#000000" font-family="sans-serif" font-size="13" lengthAdjust="spacing" textLength="110.7666" x="470" y="966.4038">Classification IDs</text></g><!--link DBFieldMapper to EquipmentTable--><g class="link" data-entity-1="DBFieldMapper" data-entity-2="EquipmentTable" data-source-line="86" data-uid="lnk45" id="link_DBFieldMapper_EquipmentTable"><path d="M377.26,1067.9469 C365.11,1076.4869 352.67,1087.2069 344,1099.6269 C326.46,1124.7469 319.5946,1153.931 316.2646,1176.531 " fill="none" id="DBFieldMapper-to-EquipmentTable" style="stroke:#333333;stroke-width:1;"/><polygon fill="#333333" points="315.39,1182.4669,320.6592,1174.1461,316.1189,1177.5203,312.7447,1172.9799,315.39,1182.4669" style="stroke:#333333;stroke-width:1;"/><text fill="#000000" font-family="sans-serif" font-size="13" lengthAdjust="spacing" textLength="105.2822" x="345" y="1112.6938">7. Insert/Update</text></g><!--link DBFieldMapper to CategoriesTable--><g class="link" data-entity-1="DBFieldMapper" data-entity-2="CategoriesTable" data-source-line="87" data-uid="lnk46" id="link_DBFieldMapper_CategoriesTable"><path d="M436.51,1068.0369 C444.09,1077.4269 452.5,1088.6869 459,1099.6269 C475.08,1126.6969 486.7255,1154.7881 494.9055,1176.6281 " fill="none" id="DBFieldMapper-to-CategoriesTable" style="stroke:#333333;stroke-width:1;"/><polygon fill="#333333" points="497.01,1182.2469,497.5992,1172.4157,495.2563,1177.5645,490.1074,1175.2216,497.01,1182.2469" style="stroke:#333333;stroke-width:1;"/></g><!--SRC=[TPNDRjj64CVlV8e1SqXxiDGcTeBcK41VH0rOHb0fljI5iIB7yYBaBhExhAqK0V8QlHLzbRv9dgIpNzQIOYN0yCxyPdPc-1_g9IpndWi4RGurwan_vA9bYZLGogQL0eNPM0zqJVqgyUvO-N6lP2UgXQobWiS7RZ3npvIIZzxruhNx9Cv5J3sNga8Li3VkCueDBdknSfy4NJB3TapZAVb3yRQO9UIrDATKKHG_BSw7L5fSKImlpek4U4yvs7uarONzZe1fjldIVhFi9MovgJ4pzY-ihs1HCwtvFI-PuLB0MbPOqonBEztIT0fjJ7XYhK-ii_0Fv7OAi96TAb7dy6S6yDl6i3qNUpUWM_7TOdCpNJsLM7__Ep0DmMkT5jugnaL2uwSxNkb9gV_mUFG7Nj2GGF7zWm5vFtG2N4dg0YjWvXq8VEfqKq_9ZzfCAsAcn-mENqXXA8E6cksmfZZyrF6seSSF5eT7RXuSQBFkfUAeWOaAojx8D258LbjRzYKRp6RDsjRsTyKEgCA4dXseN9Fsx8ydBVPSO8CqxOqViAknb7NNK0j6seVPkATtBrN3Z0iuWvdMQE2QDGZ__lFjwz_Vllu5gzZdtS9tTWWmJRHAk0-2-rntJYK1sXoqGTgL47h4lUDkUsWne6ZAoV-Dfq1cvGKhGTqWAcefp6UBJyQkuexiVaBM4WsMkEuQ2YX9lCWY4sp1PAbVE2f6IZx0lEDr5RXdQp1QSk6cc3uJRmcZJykcARiTYRKMPvVB0cveLqWWdsEz1Hcj-rVIYsoWa8f4U2lYiWNCUxspTybgTWENWkQhdCJ2NTQwPe887qxdS7Gzz5HvAy9ZIdlg4MEzCGfHi9n7sKR1pg7WM5SzqSwTwPYb2Y_4OvfWYDL7qVdQusdBTZNs_56Kj6w-xEUZPxyaRoI5jL_21zxgB7cvmDdPpydsm3l8VvpGJDlEv5dwud3W-ig_zuYAlZpBad0BfIAqvAk9dqVbxic7-42F0- -92WV-dlwotjMk5YimMyJhYQiBmZRfFElVw-XKPpOehiynQ5ZEQ5Y4I41r4fkMEXeNfkGv2iXyzMFe-UIuIfNhZF0UPAEEmhSn5nDuhx3YfHD2VegFwZvBaZYjf7gsQTzCx3qmCqRnNMTSfoE9neC7lwgNIzjsdtADzBR01hwr8jMepFH3Ink5-KZKO27-0m00]--></g></svg>