<svg xmlns="http://www.w3.org/2000/svg" xmlns:xlink="http://www.w3.org/1999/xlink" contentStyleType="text/css" data-diagram-type="ACTIVITY" height="789px" preserveAspectRatio="none" style="width:3576px;height:789px;background:#FFFFFF;" version="1.1" viewBox="0 0 3576 789" width="3576px" zoomAndPan="magnify"><title>ML Model Parameter Tuning Process</title><defs/><g><text fill="#000000" font-family="sans-serif" font-size="14" font-weight="bold" lengthAdjust="spacing" textLength="288.9619" x="1642.2856" y="32.9951">ML Model Parameter Tuning Process</text><rect fill="none" height="20.9531" style="stroke:none;stroke-width:1;" width="3543.5332" x="15" y="50.042"/><rect fill="#E3F2FD" height="727.625" style="stroke:#E3F2FD;stroke-width:1;" width="646.0991" x="15" y="50.042"/><ellipse cx="138.1094" cy="85.9951" fill="#222222" rx="10" ry="10" style="stroke:#222222;stroke-width:1;"/><path d="M275.2188,112.8467 L275.2188,128.9795 L255.2188,132.9795 L275.2188,136.9795 L275.2188,153.1123 A0,0 0 0 0 275.2188,153.1123 L656.0991,153.1123 A0,0 0 0 0 656.0991,153.1123 L656.0991,122.8467 L646.0991,112.8467 L275.2188,112.8467 A0,0 0 0 0 275.2188,112.8467 " fill="#FFF9C4" style="stroke:#FFD54F;stroke-width:0.5;"/><path d="M646.0991,112.8467 L646.0991,122.8467 L656.0991,122.8467 L646.0991,112.8467 " fill="#FFF9C4" style="stroke:#FFD54F;stroke-width:0.5;"/><text fill="#000000" font-family="sans-serif" font-size="13" lengthAdjust="spacing" textLength="190.8994" x="281.2188" y="129.9136">Located in model_building.py</text><text fill="#000000" font-family="sans-serif" font-size="13" lengthAdjust="spacing" textLength="359.8804" x="281.2188" y="145.0464">Default parameters defined in build_enhanced_model()</text><rect fill="#EEEEEE" height="33.9688" rx="12.5" ry="12.5" style="stroke:#666666;stroke-width:0.5;" width="234.2188" x="21" y="115.9951"/><text fill="#000000" font-family="sans-serif" font-size="12" lengthAdjust="spacing" textLength="214.2188" x="31" y="137.1338">Load hyperparameter configuration</text><line style="stroke:#000000;stroke-width:1.5;" x1="15" x2="15" y1="50.042" y2="777.667"/><rect fill="#E8F5E9" height="727.625" style="stroke:#E8F5E9;stroke-width:1;" width="417.0557" x="661.0991" y="50.042"/><path d="M948.1421,163.1123 L948.1421,186.8115 L928.1421,190.8115 L948.1421,194.8115 L948.1421,218.5107 A0,0 0 0 0 948.1421,218.5107 L1073.1548,218.5107 A0,0 0 0 0 1073.1548,218.5107 L1073.1548,173.1123 L1063.1548,163.1123 L948.1421,163.1123 A0,0 0 0 0 948.1421,163.1123 " fill="#FFF9C4" style="stroke:#FFD54F;stroke-width:0.5;"/><path d="M1063.1548,163.1123 L1063.1548,173.1123 L1073.1548,173.1123 L1063.1548,163.1123 " fill="#FFF9C4" style="stroke:#FFD54F;stroke-width:0.5;"/><text fill="#000000" font-family="sans-serif" font-size="13" lengthAdjust="spacing" textLength="104.0127" x="954.1421" y="180.1792">Parameter Grid:</text><text fill="#000000" font-family="sans-serif" font-size="13" lengthAdjust="spacing" textLength="8.271" x="954.1421" y="195.312">{</text><text fill="#000000" font-family="sans-serif" font-size="13" lengthAdjust="spacing" textLength="8.271" x="954.1421" y="210.4448">}</text><rect fill="#EEEEEE" height="33.9688" rx="12.5" ry="12.5" style="stroke:#666666;stroke-width:0.5;" width="261.043" x="667.0991" y="173.8271"/><text fill="#000000" font-family="sans-serif" font-size="12" lengthAdjust="spacing" textLength="241.043" x="677.0991" y="194.9658">Define parameter grid for GridSearchCV</text><line style="stroke:#000000;stroke-width:1.5;" x1="661.0991" x2="661.0991" y1="50.042" y2="777.667"/><rect fill="#FFF3E0" height="727.625" style="stroke:#FFF3E0;stroke-width:1;" width="537.1304" x="1078.1548" y="50.042"/><path d="M1261.4985,228.5107 L1261.4985,252.21 L1241.4985,256.21 L1261.4985,260.21 L1261.4985,283.9092 A0,0 0 0 0 1261.4985,283.9092 L1610.2852,283.9092 A0,0 0 0 0 1610.2852,283.9092 L1610.2852,238.5107 L1600.2852,228.5107 L1261.4985,228.5107 A0,0 0 0 0 1261.4985,228.5107 " fill="#FFF9C4" style="stroke:#FFD54F;stroke-width:0.5;"/><path d="M1600.2852,228.5107 L1600.2852,238.5107 L1610.2852,238.5107 L1600.2852,228.5107 " fill="#FFF9C4" style="stroke:#FFD54F;stroke-width:0.5;"/><text fill="#000000" font-family="sans-serif" font-size="13" lengthAdjust="spacing" textLength="152.9976" x="1267.4985" y="245.5776">- 5-fold cross-validation</text><text fill="#000000" font-family="sans-serif" font-size="13" lengthAdjust="spacing" textLength="327.7866" x="1267.4985" y="260.7104">- f1_macro scoring (better for imbalanced classes)</text><text fill="#000000" font-family="sans-serif" font-size="13" lengthAdjust="spacing" textLength="232.7749" x="1267.4985" y="275.8433">- n_jobs=-1 (use all available cores)</text><rect fill="#EEEEEE" height="33.9688" rx="12.5" ry="12.5" style="stroke:#666666;stroke-width:0.5;" width="157.3438" x="1084.1548" y="239.2256"/><text fill="#000000" font-family="sans-serif" font-size="12" lengthAdjust="spacing" textLength="137.3438" x="1094.1548" y="260.3643">Set up cross-validation</text><line style="stroke:#000000;stroke-width:1.5;" x1="1078.1548" x2="1078.1548" y1="50.042" y2="777.667"/><rect fill="#F3E5F5" height="727.625" style="stroke:#F3E5F5;stroke-width:1;" width="463.1577" x="1615.2852" y="50.042"/><path d="M1794.0234,293.9092 L1794.0234,332.7412 L1774.0234,336.7412 L1794.0234,340.7412 L1794.0234,379.5732 A0,0 0 0 0 1794.0234,379.5732 L2073.4429,379.5732 A0,0 0 0 0 2073.4429,379.5732 L2073.4429,303.9092 L2063.4429,293.9092 L1794.0234,293.9092 A0,0 0 0 0 1794.0234,293.9092 " fill="#FFF9C4" style="stroke:#FFD54F;stroke-width:0.5;"/><path d="M2063.4429,293.9092 L2063.4429,303.9092 L2073.4429,303.9092 L2063.4429,293.9092 " fill="#FFF9C4" style="stroke:#FFD54F;stroke-width:0.5;"/><text fill="#000000" font-family="sans-serif" font-size="13" lengthAdjust="spacing" textLength="139.9912" x="1800.0234" y="310.9761">Pipeline components:</text><text fill="#000000" font-family="sans-serif" font-size="13" lengthAdjust="spacing" textLength="245.8765" x="1800.0234" y="326.1089">1. preprocessor (ColumnTransformer)</text><text fill="#000000" font-family="sans-serif" font-size="13" lengthAdjust="spacing" textLength="160.4053" x="1812.4204" y="341.2417">- TF-IDF for text features</text><text fill="#000000" font-family="sans-serif" font-size="13" lengthAdjust="spacing" textLength="246.0225" x="1812.4204" y="356.3745">- StandardScaler for numeric features</text><text fill="#000000" font-family="sans-serif" font-size="13" lengthAdjust="spacing" textLength="242.3218" x="1800.0234" y="371.5073">2. classifier (RandomForestClassifier)</text><rect fill="#EEEEEE" height="33.9688" rx="12.5" ry="12.5" style="stroke:#666666;stroke-width:0.5;" width="152.7383" x="1621.2852" y="319.7568"/><text fill="#000000" font-family="sans-serif" font-size="12" lengthAdjust="spacing" textLength="132.7383" x="1631.2852" y="340.8955">Create model pipeline</text><line style="stroke:#000000;stroke-width:1.5;" x1="1615.2852" x2="1615.2852" y1="50.042" y2="777.667"/><rect fill="#E0F2F1" height="727.625" style="stroke:#E0F2F1;stroke-width:1;" width="605.73" x="2078.4429" y="50.042"/><path d="M2371.3159,389.5732 L2371.3159,420.8389 L2351.3159,424.8389 L2371.3159,428.8389 L2371.3159,460.1045 A0,0 0 0 0 2371.3159,460.1045 L2679.1729,460.1045 A0,0 0 0 0 2679.1729,460.1045 L2679.1729,399.5732 L2669.1729,389.5732 L2371.3159,389.5732 A0,0 0 0 0 2371.3159,389.5732 " fill="#FFF9C4" style="stroke:#FFD54F;stroke-width:0.5;"/><path d="M2669.1729,389.5732 L2669.1729,399.5732 L2679.1729,399.5732 L2669.1729,389.5732 " fill="#FFF9C4" style="stroke:#FFD54F;stroke-width:0.5;"/><text fill="#000000" font-family="sans-serif" font-size="13" lengthAdjust="spacing" textLength="157.6187" x="2377.3159" y="406.6401">GridSearchCV performs:</text><text fill="#000000" font-family="sans-serif" font-size="13" lengthAdjust="spacing" textLength="286.8569" x="2377.3159" y="421.7729">- Training with each parameter combination</text><text fill="#000000" font-family="sans-serif" font-size="13" lengthAdjust="spacing" textLength="223.4819" x="2377.3159" y="436.9058">- Evaluation using cross-validation</text><text fill="#000000" font-family="sans-serif" font-size="13" lengthAdjust="spacing" textLength="197.1836" x="2377.3159" y="452.0386">- Selection of best parameters</text><rect fill="#EEEEEE" height="33.9688" rx="12.5" ry="12.5" style="stroke:#666666;stroke-width:0.5;" width="266.873" x="2084.4429" y="407.8545"/><text fill="#000000" font-family="sans-serif" font-size="12" lengthAdjust="spacing" textLength="246.873" x="2094.4429" y="428.9932">Perform grid search with cross-validation</text><line style="stroke:#000000;stroke-width:1.5;" x1="2078.4429" x2="2078.4429" y1="50.042" y2="777.667"/><rect fill="#FFEBEE" height="727.625" style="stroke:#FFEBEE;stroke-width:1;" width="455.7559" x="2684.1729" y="50.042"/><path d="M2870.3818,470.1045 L2870.3818,516.5029 L2850.3818,520.5029 L2870.3818,524.5029 L2870.3818,570.9014 A0,0 0 0 0 2870.3818,570.9014 L3134.9287,570.9014 A0,0 0 0 0 3134.9287,570.9014 L3134.9287,480.1045 L3124.9287,470.1045 L2870.3818,470.1045 A0,0 0 0 0 2870.3818,470.1045 " fill="#FFF9C4" style="stroke:#FFD54F;stroke-width:0.5;"/><path d="M3124.9287,470.1045 L3124.9287,480.1045 L3134.9287,480.1045 L3124.9287,470.1045 " fill="#FFF9C4" style="stroke:#FFD54F;stroke-width:0.5;"/><text fill="#000000" font-family="sans-serif" font-size="13" lengthAdjust="spacing" textLength="163.668" x="2876.3818" y="487.1714">Default best parameters:</text><text fill="#000000" font-family="sans-serif" font-size="13" lengthAdjust="spacing" textLength="126.166" x="2876.3818" y="502.3042">- n_estimators: 100</text><text fill="#000000" font-family="sans-serif" font-size="13" lengthAdjust="spacing" textLength="123.9126" x="2876.3818" y="517.437">- max_depth: None</text><text fill="#000000" font-family="sans-serif" font-size="13" lengthAdjust="spacing" textLength="144.5044" x="2876.3818" y="532.5698">- min_samples_split: 2</text><text fill="#000000" font-family="sans-serif" font-size="13" lengthAdjust="spacing" textLength="141.3115" x="2876.3818" y="547.7026">- min_samples_leaf: 1</text><text fill="#000000" font-family="sans-serif" font-size="13" lengthAdjust="spacing" textLength="243.5469" x="2876.3818" y="562.8354">- class_weight: 'balanced_subsample'</text><rect fill="#EEEEEE" height="33.9688" rx="12.5" ry="12.5" style="stroke:#666666;stroke-width:0.5;" width="160.209" x="2690.1729" y="503.5186"/><text fill="#000000" font-family="sans-serif" font-size="12" lengthAdjust="spacing" textLength="140.209" x="2700.1729" y="524.6572">Select best parameters</text><line style="stroke:#000000;stroke-width:1.5;" x1="2684.1729" x2="2684.1729" y1="50.042" y2="777.667"/><rect fill="#F9FBE7" height="727.625" style="stroke:#F9FBE7;stroke-width:1;" width="416.7437" x="3139.9287" y="50.042"/><rect fill="#EEEEEE" height="33.9688" rx="12.5" ry="12.5" style="stroke:#666666;stroke-width:0.5;" width="253.8652" x="3145.9287" y="590.9014"/><text fill="#000000" font-family="sans-serif" font-size="12" lengthAdjust="spacing" textLength="233.8652" x="3155.9287" y="612.04">Train final model with best parameters</text><path d="M3404.9316,634.8701 L3404.9316,681.2686 L3384.9316,685.2686 L3404.9316,689.2686 L3404.9316,735.667 A0,0 0 0 0 3404.9316,735.667 L3551.6724,735.667 A0,0 0 0 0 3551.6724,735.667 L3551.6724,644.8701 L3541.6724,634.8701 L3404.9316,634.8701 A0,0 0 0 0 3404.9316,634.8701 " fill="#FFF9C4" style="stroke:#FFD54F;stroke-width:0.5;"/><path d="M3541.6724,634.8701 L3541.6724,644.8701 L3551.6724,644.8701 L3541.6724,634.8701 " fill="#FFF9C4" style="stroke:#FFD54F;stroke-width:0.5;"/><text fill="#000000" font-family="sans-serif" font-size="13" lengthAdjust="spacing" textLength="125.7407" x="3410.9316" y="651.937">Evaluation metrics:</text><text fill="#000000" font-family="sans-serif" font-size="13" lengthAdjust="spacing" textLength="68.4023" x="3410.9316" y="667.0698">- Accuracy</text><text fill="#000000" font-family="sans-serif" font-size="13" lengthAdjust="spacing" textLength="67.3423" x="3410.9316" y="682.2026">- Precision</text><text fill="#000000" font-family="sans-serif" font-size="13" lengthAdjust="spacing" textLength="48.1914" x="3410.9316" y="697.3354">- Recall</text><text fill="#000000" font-family="sans-serif" font-size="13" lengthAdjust="spacing" textLength="65.3999" x="3410.9316" y="712.4683">- F1 Score</text><text fill="#000000" font-family="sans-serif" font-size="13" lengthAdjust="spacing" textLength="118.5488" x="3410.9316" y="727.6011">- Confusion Matrix</text><rect fill="#EEEEEE" height="33.9688" rx="12.5" ry="12.5" style="stroke:#666666;stroke-width:0.5;" width="224.1406" x="3160.791" y="668.2842"/><text fill="#000000" font-family="sans-serif" font-size="12" lengthAdjust="spacing" textLength="204.1406" x="3170.791" y="689.4229">Evaluate final model performance</text><ellipse cx="3272.8613" cy="766.667" fill="none" rx="11" ry="11" style="stroke:#222222;stroke-width:1;"/><ellipse cx="3272.8613" cy="766.667" fill="#222222" rx="6" ry="6" style="stroke:#222222;stroke-width:1;"/><line style="stroke:#000000;stroke-width:1.5;" x1="3139.9287" x2="3139.9287" y1="50.042" y2="777.667"/><line style="stroke:#000000;stroke-width:1.5;" x1="3556.6724" x2="3556.6724" y1="50.042" y2="777.667"/><line style="stroke:#333333;stroke-width:1;" x1="138.1094" x2="138.1094" y1="95.9951" y2="115.9951"/><polygon fill="#333333" points="134.1094,105.9951,138.1094,115.9951,142.1094,105.9951,138.1094,109.9951" style="stroke:#333333;stroke-width:1;"/><line style="stroke:#333333;stroke-width:1;" x1="3272.8613" x2="3272.8613" y1="624.8701" y2="668.2842"/><polygon fill="#333333" points="3268.8613,658.2842,3272.8613,668.2842,3276.8613,658.2842,3272.8613,662.2842" style="stroke:#333333;stroke-width:1;"/><line style="stroke:#333333;stroke-width:1;" x1="3272.8613" x2="3272.8613" y1="702.2529" y2="755.667"/><polygon fill="#333333" points="3268.8613,745.667,3272.8613,755.667,3276.8613,745.667,3272.8613,749.667" style="stroke:#333333;stroke-width:1;"/><line style="stroke:#333333;stroke-width:1;" x1="138.1094" x2="138.1094" y1="149.9639" y2="158.1123"/><line style="stroke:#333333;stroke-width:1;" x1="138.1094" x2="797.6206" y1="158.1123" y2="158.1123"/><line style="stroke:#333333;stroke-width:1;" x1="797.6206" x2="797.6206" y1="158.1123" y2="173.8271"/><polygon fill="#333333" points="793.6206,163.8271,797.6206,173.8271,801.6206,163.8271,797.6206,167.8271" style="stroke:#333333;stroke-width:1;"/><line style="stroke:#333333;stroke-width:1;" x1="797.6206" x2="797.6206" y1="207.7959" y2="223.5107"/><line style="stroke:#333333;stroke-width:1;" x1="797.6206" x2="1162.8267" y1="223.5107" y2="223.5107"/><line style="stroke:#333333;stroke-width:1;" x1="1162.8267" x2="1162.8267" y1="223.5107" y2="239.2256"/><polygon fill="#333333" points="1158.8267,229.2256,1162.8267,239.2256,1166.8267,229.2256,1162.8267,233.2256" style="stroke:#333333;stroke-width:1;"/><line style="stroke:#333333;stroke-width:1;" x1="1162.8267" x2="1162.8267" y1="273.1943" y2="288.9092"/><line style="stroke:#333333;stroke-width:1;" x1="1162.8267" x2="1697.6543" y1="288.9092" y2="288.9092"/><line style="stroke:#333333;stroke-width:1;" x1="1697.6543" x2="1697.6543" y1="288.9092" y2="319.7568"/><polygon fill="#333333" points="1693.6543,309.7568,1697.6543,319.7568,1701.6543,309.7568,1697.6543,313.7568" style="stroke:#333333;stroke-width:1;"/><line style="stroke:#333333;stroke-width:1;" x1="1697.6543" x2="1697.6543" y1="353.7256" y2="384.5732"/><line style="stroke:#333333;stroke-width:1;" x1="1697.6543" x2="2217.8794" y1="384.5732" y2="384.5732"/><line style="stroke:#333333;stroke-width:1;" x1="2217.8794" x2="2217.8794" y1="384.5732" y2="407.8545"/><polygon fill="#333333" points="2213.8794,397.8545,2217.8794,407.8545,2221.8794,397.8545,2217.8794,401.8545" style="stroke:#333333;stroke-width:1;"/><line style="stroke:#333333;stroke-width:1;" x1="2217.8794" x2="2217.8794" y1="441.8232" y2="465.1045"/><line style="stroke:#333333;stroke-width:1;" x1="2217.8794" x2="2770.2773" y1="465.1045" y2="465.1045"/><line style="stroke:#333333;stroke-width:1;" x1="2770.2773" x2="2770.2773" y1="465.1045" y2="503.5186"/><polygon fill="#333333" points="2766.2773,493.5186,2770.2773,503.5186,2774.2773,493.5186,2770.2773,497.5186" style="stroke:#333333;stroke-width:1;"/><line style="stroke:#333333;stroke-width:1;" x1="2770.2773" x2="2770.2773" y1="537.4873" y2="571.6943"/><line style="stroke:#333333;stroke-width:1;" x1="2770.2773" x2="3272.8613" y1="571.6943" y2="571.6943"/><line style="stroke:#333333;stroke-width:1;" x1="3272.8613" x2="3272.8613" y1="571.6943" y2="590.9014"/><polygon fill="#333333" points="3268.8613,580.9014,3272.8613,590.9014,3276.8613,580.9014,3272.8613,584.9014" style="stroke:#333333;stroke-width:1;"/><text fill="#000000" font-family="sans-serif" font-size="18" lengthAdjust="spacing" textLength="122.0713" x="277.0139" y="66.75">Configuration</text><text fill="#000000" font-family="sans-serif" font-size="18" lengthAdjust="spacing" textLength="137.9531" x="800.6504" y="66.75">Parameter Grid</text><text fill="#000000" font-family="sans-serif" font-size="18" lengthAdjust="spacing" textLength="146.5137" x="1273.4631" y="66.75">Cross-Validation</text><text fill="#000000" font-family="sans-serif" font-size="18" lengthAdjust="spacing" textLength="130.6055" x="1781.5613" y="66.75">Model Pipeline</text><text fill="#000000" font-family="sans-serif" font-size="18" lengthAdjust="spacing" textLength="105.7324" x="2328.4417" y="66.75">Grid Search</text><text fill="#000000" font-family="sans-serif" font-size="18" lengthAdjust="spacing" textLength="149.4141" x="2837.3438" y="66.75">Best Parameters</text><text fill="#000000" font-family="sans-serif" font-size="18" lengthAdjust="spacing" textLength="102.5596" x="3297.0208" y="66.75">Final Model</text><!--SRC=[XLLDRziu4BthLmoGWnt03cmdRZSgzf3OKb4WAO8wwAKe15eQsTnIf41IIRoh_lSTKeejomOg88OqysOu7-yn0rXYpYM2iJk19Z2_k2oPPWMiMVfherKbiuKIIiFhbbli-EzIor-utTqhdQ5kC1SV_7CErSjs4Vdd37B9MQ5aTXemYJ_6Tvs0hyhY2IgEuzl5JH_LBJ6Eb_ERk7kmrkgrTLxxf- -CbRGh_Y_2T7gcu8Dt5WG3UEPMO63TBpm-mAFAKC2JYq2B6fuhoUK6dhHAqPWWg2-YwtWMB-k5aZdVL9fPhcGT6Ckq3S87nJBOxahKvJv5saL-2YHr29fljZO0U50fivW1br2uavDrnKL69rwLEtBJibabBEoJ6SZy_ds4noOejqocc2K-mV0oG9c1EyGN-rSyZsxhGp-VDS_g86nPT2XoGtR8LGDO8TFfTl6zL-nnbf0i_z4Vm20Lp1YUSzH98XCqbXVCAcq68VoOJqOmdT3FR3BvEJh55-mjoR2qMmV-gYGwk4EV1NEP65QKHFt4b89R5pGRmTm5_Ib08CiTVahPHt1p3kxVarTq3JleOCs47-vW1Fltn5Jh9kVW9wNuVJHm8lHrDAaNMXap_iu4prg2X2kqK9MGUi_BtjERyHZcuro9x0JdVVcKvaKUCAdIZfV3DLgt4BSvNhnN2BuFD9S-I2R_gBNvUpo5OMKGc130NXWNR4sKfpmETzJ2TJIFvtMh15wY8AfG0mkDnDM6fr2szZv5MZFbBKfQfhJ6yMHw1QN6iX4HbJea_LQ5VDPC6YgzG7tfbq7LFiVZBylODsJnpK9EXrPKuxj_PPdCcCvMAHDjuxAY13pjGcTNSDWh3BzHZ2fYrwjTxEqzgKn8rzFQKHiQ0L3FJwXTVOqyZBV2AxVRFwsngo8ecoH-4jIWPjpVAJuFCihOlIkADPU7XKTqGkK_eJ8kw2mjLYWmzI2Lmvfwx5mOFNP6zr5Ktpl8Nit6azDbwCVscdg_ZNgei6NPGVUXKxotxjKTWjDsO-kBE8JPYSE9bT9uUrULuLaT7ZTv6zz77-kOvYYQ-vmQz5E7tDiQ1llndpGSjXF78soxGNTiRoQT1L4AOc4xZhiqfHi_tVcF9uqfD-_R-eP4NU5Vuocid0BzX_kFKZaKF3BAzDPfobXL_Wy0]--></g></svg>