<svg xmlns="http://www.w3.org/2000/svg" xmlns:xlink="http://www.w3.org/1999/xlink" contentStyleType="text/css" data-diagram-type="ACTIVITY" height="1546px" preserveAspectRatio="none" style="width:3116px;height:1546px;background:#FFFFFF;" version="1.1" viewBox="0 0 3116 1546" width="3116px" zoomAndPan="magnify"><title>ML Model Workflow and Data Processing Flow</title><defs/><g><text fill="#000000" font-family="sans-serif" font-size="14" font-weight="bold" lengthAdjust="spacing" textLength="364.2666" x="1374.5195" y="32.9951">ML Model Workflow and Data Processing Flow</text><rect fill="none" height="20.9531" style="stroke:none;stroke-width:1;" width="3083.3057" x="15" y="50.042"/><rect fill="#E3F2FD" height="1484.0859" style="stroke:#E3F2FD;stroke-width:1;" width="562.0405" x="15" y="50.042"/><ellipse cx="134.9658" cy="85.9951" fill="#222222" rx="10" ry="10" style="stroke:#222222;stroke-width:1;"/><path d="M268.9316,112.8467 L268.9316,128.9795 L248.9316,132.9795 L268.9316,136.9795 L268.9316,153.1123 A0,0 0 0 0 268.9316,153.1123 L572.0405,153.1123 A0,0 0 0 0 572.0405,153.1123 L572.0405,122.8467 L562.0405,112.8467 L268.9316,112.8467 A0,0 0 0 0 268.9316,112.8467 " fill="#FFF9C4" style="stroke:#FFD54F;stroke-width:0.5;"/><path d="M562.0405,112.8467 L562.0405,122.8467 L572.0405,122.8467 L562.0405,112.8467 " fill="#FFF9C4" style="stroke:#FFD54F;stroke-width:0.5;"/><text fill="#000000" font-family="sans-serif" font-size="13" lengthAdjust="spacing" textLength="282.1089" x="274.9316" y="129.9136">Located at: nexusml/ingest/data/eq_ids.csv</text><text fill="#000000" font-family="sans-serif" font-size="13" lengthAdjust="spacing" textLength="216.6772" x="274.9316" y="145.0464">Contains labeled equipment data</text><rect fill="#EEEEEE" height="33.9688" rx="12.5" ry="12.5" style="stroke:#666666;stroke-width:0.5;" width="227.9316" x="21" y="115.9951"/><text fill="#000000" font-family="sans-serif" font-size="12" lengthAdjust="spacing" textLength="207.9316" x="31" y="137.1338">Load training data from eq_ids.csv</text><line style="stroke:#000000;stroke-width:1.5;" x1="15" x2="15" y1="50.042" y2="1534.1279"/><rect fill="#E8F5E9" height="1484.0859" style="stroke:#E8F5E9;stroke-width:1;" width="185.4297" x="577.0405" y="50.042"/><rect fill="#EEEEEE" height="33.9688" rx="12.5" ry="12.5" style="stroke:#666666;stroke-width:0.5;" width="146.1406" x="597.6851" y="173.1123"/><text fill="#000000" font-family="sans-serif" font-size="12" lengthAdjust="spacing" textLength="126.1406" x="607.6851" y="194.251">Clean column names</text><rect fill="#EEEEEE" height="33.9688" rx="12.5" ry="12.5" style="stroke:#666666;stroke-width:0.5;" width="129.6465" x="605.9321" y="227.0811"/><text fill="#000000" font-family="sans-serif" font-size="12" lengthAdjust="spacing" textLength="109.6465" x="615.9321" y="248.2197">Fill missing values</text><rect fill="#EEEEEE" height="33.9688" rx="12.5" ry="12.5" style="stroke:#666666;stroke-width:0.5;" width="164.0469" x="588.7319" y="281.0498"/><text fill="#000000" font-family="sans-serif" font-size="12" lengthAdjust="spacing" textLength="144.0469" x="598.7319" y="302.1885">Verify required columns</text><line style="stroke:#000000;stroke-width:1.5;" x1="577.0405" x2="577.0405" y1="50.042" y2="1534.1279"/><rect fill="#FFF3E0" height="1484.0859" style="stroke:#FFF3E0;stroke-width:1;" width="687.4878" x="762.4702" y="50.042"/><path d="M1121.2319,325.0186 L1121.2319,348.7178 L1101.2319,352.7178 L1121.2319,356.7178 L1121.2319,380.417 A0,0 0 0 0 1121.2319,380.417 L1444.958,380.417 A0,0 0 0 0 1444.958,380.417 L1444.958,335.0186 L1434.958,325.0186 L1121.2319,325.0186 A0,0 0 0 0 1121.2319,325.0186 " fill="#FFF9C4" style="stroke:#FFD54F;stroke-width:0.5;"/><path d="M1434.958,325.0186 L1434.958,335.0186 L1444.958,335.0186 L1434.958,325.0186 " fill="#FFF9C4" style="stroke:#FFD54F;stroke-width:0.5;"/><text fill="#000000" font-family="sans-serif" font-size="13" lengthAdjust="spacing" textLength="302.7261" x="1127.2319" y="342.0854">Located at: nexusml/config/feature_config.yml</text><text fill="#000000" font-family="sans-serif" font-size="13" lengthAdjust="spacing" textLength="295.2676" x="1127.2319" y="357.2183">Defines text combinations, numeric columns,</text><text fill="#000000" font-family="sans-serif" font-size="13" lengthAdjust="spacing" textLength="225.126" x="1127.2319" y="372.3511">hierarchies, and column mappings</text><rect fill="#EEEEEE" height="33.9688" rx="12.5" ry="12.5" style="stroke:#666666;stroke-width:0.5;" width="332.7617" x="768.4702" y="335.7334"/><text fill="#000000" font-family="sans-serif" font-size="12" lengthAdjust="spacing" textLength="312.7617" x="778.4702" y="356.8721">Apply feature configuration from feature_config.yml</text><path d="M1057.1011,397.2686 L1057.1011,413.4014 L1037.1011,417.4014 L1057.1011,421.4014 L1057.1011,437.5342 A0,0 0 0 0 1057.1011,437.5342 L1317.6997,437.5342 A0,0 0 0 0 1317.6997,437.5342 L1317.6997,407.2686 L1307.6997,397.2686 L1057.1011,397.2686 A0,0 0 0 0 1057.1011,397.2686 " fill="#FFF9C4" style="stroke:#FFD54F;stroke-width:0.5;"/><path d="M1307.6997,397.2686 L1307.6997,407.2686 L1317.6997,407.2686 L1307.6997,397.2686 " fill="#FFF9C4" style="stroke:#FFD54F;stroke-width:0.5;"/><text fill="#000000" font-family="sans-serif" font-size="13" lengthAdjust="spacing" textLength="239.5986" x="1063.1011" y="414.3354">Combines multiple text columns into</text><text fill="#000000" font-family="sans-serif" font-size="13" lengthAdjust="spacing" textLength="169.5078" x="1063.1011" y="429.4683">a single feature for TF-IDF</text><rect fill="#EEEEEE" height="33.9688" rx="12.5" ry="12.5" style="stroke:#666666;stroke-width:0.5;" width="204.5" x="832.6011" y="400.417"/><text fill="#000000" font-family="sans-serif" font-size="12" lengthAdjust="spacing" textLength="184.5" x="842.6011" y="421.5557">Create combined text features</text><path d="M1035.187,454.3857 L1035.187,470.5186 L1015.187,474.5186 L1035.187,478.5186 L1035.187,494.6514 A0,0 0 0 0 1035.187,494.6514 L1252.1836,494.6514 A0,0 0 0 0 1252.1836,494.6514 L1252.1836,464.3857 L1242.1836,454.3857 L1035.187,454.3857 A0,0 0 0 0 1035.187,454.3857 " fill="#FFF9C4" style="stroke:#FFD54F;stroke-width:0.5;"/><path d="M1242.1836,454.3857 L1242.1836,464.3857 L1252.1836,464.3857 L1242.1836,454.3857 " fill="#FFF9C4" style="stroke:#FFD54F;stroke-width:0.5;"/><text fill="#000000" font-family="sans-serif" font-size="13" lengthAdjust="spacing" textLength="195.9966" x="1041.187" y="471.4526">Converts to proper data types</text><text fill="#000000" font-family="sans-serif" font-size="13" lengthAdjust="spacing" textLength="151.2456" x="1041.187" y="486.5854">and fills missing values</text><rect fill="#EEEEEE" height="33.9688" rx="12.5" ry="12.5" style="stroke:#666666;stroke-width:0.5;" width="160.6719" x="854.5151" y="457.5342"/><text fill="#000000" font-family="sans-serif" font-size="12" lengthAdjust="spacing" textLength="140.6719" x="864.5151" y="478.6729">Clean numeric features</text><path d="M1055.3667,511.5029 L1055.3667,527.6357 L1035.3667,531.6357 L1055.3667,535.6357 L1055.3667,551.7686 A0,0 0 0 0 1055.3667,551.7686 L1294.5864,551.7686 A0,0 0 0 0 1294.5864,551.7686 L1294.5864,521.5029 L1284.5864,511.5029 L1055.3667,511.5029 A0,0 0 0 0 1055.3667,511.5029 " fill="#FFF9C4" style="stroke:#FFD54F;stroke-width:0.5;"/><path d="M1284.5864,511.5029 L1284.5864,521.5029 L1294.5864,521.5029 L1284.5864,511.5029 " fill="#FFF9C4" style="stroke:#FFD54F;stroke-width:0.5;"/><text fill="#000000" font-family="sans-serif" font-size="13" lengthAdjust="spacing" textLength="218.2197" x="1061.3667" y="528.5698">Creates hierarchical relationships</text><text fill="#000000" font-family="sans-serif" font-size="13" lengthAdjust="spacing" textLength="128.4893" x="1061.3667" y="543.7026">between categories</text><rect fill="#EEEEEE" height="33.9688" rx="12.5" ry="12.5" style="stroke:#666666;stroke-width:0.5;" width="201.0313" x="834.3354" y="514.6514"/><text fill="#000000" font-family="sans-serif" font-size="12" lengthAdjust="spacing" textLength="181.0313" x="844.3354" y="535.79">Create hierarchical categories</text><path d="M1030.564,568.6201 L1030.564,584.7529 L1010.564,588.7529 L1030.564,592.7529 L1030.564,608.8857 A0,0 0 0 0 1030.564,608.8857 L1242.749,608.8857 A0,0 0 0 0 1242.749,608.8857 L1242.749,578.6201 L1232.749,568.6201 L1030.564,568.6201 A0,0 0 0 0 1030.564,568.6201 " fill="#FFF9C4" style="stroke:#FFD54F;stroke-width:0.5;"/><path d="M1232.749,568.6201 L1232.749,578.6201 L1242.749,578.6201 L1232.749,568.6201 " fill="#FFF9C4" style="stroke:#FFD54F;stroke-width:0.5;"/><text fill="#000000" font-family="sans-serif" font-size="13" lengthAdjust="spacing" textLength="191.1851" x="1036.564" y="585.687">Adds attribute templates and</text><text fill="#000000" font-family="sans-serif" font-size="13" lengthAdjust="spacing" textLength="159.9673" x="1036.564" y="600.8198">classification system IDs</text><rect fill="#EEEEEE" height="33.9688" rx="12.5" ry="12.5" style="stroke:#666666;stroke-width:0.5;" width="151.4258" x="859.1382" y="571.7686"/><text fill="#000000" font-family="sans-serif" font-size="12" lengthAdjust="spacing" textLength="131.4258" x="869.1382" y="592.9072">Apply EAV integration</text><line style="stroke:#000000;stroke-width:1.5;" x1="762.4702" x2="762.4702" y1="50.042" y2="1534.1279"/><rect fill="#F3E5F5" height="1484.0859" style="stroke:#F3E5F5;stroke-width:1;" width="618.374" x="1449.958" y="50.042"/><path d="M1754.2393,625.7373 L1754.2393,641.8701 L1734.2393,645.8701 L1754.2393,649.8701 L1754.2393,666.0029 A0,0 0 0 0 1754.2393,666.0029 L1944.9883,666.0029 A0,0 0 0 0 1944.9883,666.0029 L1944.9883,635.7373 L1934.9883,625.7373 L1754.2393,625.7373 A0,0 0 0 0 1754.2393,625.7373 " fill="#FFF9C4" style="stroke:#FFD54F;stroke-width:0.5;"/><path d="M1934.9883,625.7373 L1934.9883,635.7373 L1944.9883,635.7373 L1934.9883,625.7373 " fill="#FFF9C4" style="stroke:#FFD54F;stroke-width:0.5;"/><text fill="#000000" font-family="sans-serif" font-size="13" lengthAdjust="spacing" textLength="169.749" x="1760.2393" y="642.8042">70% training, 30% testing</text><text fill="#000000" font-family="sans-serif" font-size="13" lengthAdjust="spacing" textLength="148.9985" x="1760.2393" y="657.937">with random_state=42</text><rect fill="#EEEEEE" height="33.9688" rx="12.5" ry="12.5" style="stroke:#666666;stroke-width:0.5;" width="236.2109" x="1498.0283" y="628.8857"/><text fill="#000000" font-family="sans-serif" font-size="12" lengthAdjust="spacing" textLength="216.2109" x="1508.0283" y="650.0244">Split data into training and test sets</text><path d="M1796.3096,682.8545 L1796.3096,698.9873 L1776.3096,702.9873 L1796.3096,706.9873 L1796.3096,723.1201 A0,0 0 0 0 1796.3096,723.1201 L2063.332,723.1201 A0,0 0 0 0 2063.332,723.1201 L2063.332,692.8545 L2053.332,682.8545 L1796.3096,682.8545 A0,0 0 0 0 1796.3096,682.8545 " fill="#FFF9C4" style="stroke:#FFD54F;stroke-width:0.5;"/><path d="M2053.332,682.8545 L2053.332,692.8545 L2063.332,692.8545 L2053.332,682.8545 " fill="#FFF9C4" style="stroke:#FFD54F;stroke-width:0.5;"/><text fill="#000000" font-family="sans-serif" font-size="13" lengthAdjust="spacing" textLength="160.4053" x="1802.3096" y="699.9214">- TF-IDF for text features</text><text fill="#000000" font-family="sans-serif" font-size="13" lengthAdjust="spacing" textLength="246.0225" x="1802.3096" y="715.0542">- StandardScaler for numeric features</text><rect fill="#EEEEEE" height="33.9688" rx="12.5" ry="12.5" style="stroke:#666666;stroke-width:0.5;" width="320.3516" x="1455.958" y="686.0029"/><text fill="#000000" font-family="sans-serif" font-size="12" lengthAdjust="spacing" textLength="300.3516" x="1465.958" y="707.1416">Create ColumnTransformer for feature processing</text><path d="M1744.2725,733.1201 L1744.2725,779.5186 L1724.2725,783.5186 L1744.2725,787.5186 L1744.2725,833.917 A0,0 0 0 0 1744.2725,833.917 L2011.1997,833.917 A0,0 0 0 0 2011.1997,833.917 L2011.1997,743.1201 L2001.1997,733.1201 L1744.2725,733.1201 A0,0 0 0 0 1744.2725,733.1201 " fill="#FFF9C4" style="stroke:#FFD54F;stroke-width:0.5;"/><path d="M2001.1997,733.1201 L2001.1997,743.1201 L2011.1997,743.1201 L2001.1997,733.1201 " fill="#FFF9C4" style="stroke:#FFD54F;stroke-width:0.5;"/><text fill="#000000" font-family="sans-serif" font-size="13" lengthAdjust="spacing" textLength="79.3711" x="1750.2725" y="750.187">Parameters:</text><text fill="#000000" font-family="sans-serif" font-size="13" lengthAdjust="spacing" textLength="128.5464" x="1750.2725" y="765.3198">- n_estimators=100</text><text fill="#000000" font-family="sans-serif" font-size="13" lengthAdjust="spacing" textLength="126.293" x="1750.2725" y="780.4526">- max_depth=None</text><text fill="#000000" font-family="sans-serif" font-size="13" lengthAdjust="spacing" textLength="146.8848" x="1750.2725" y="795.5854">- min_samples_split=2</text><text fill="#000000" font-family="sans-serif" font-size="13" lengthAdjust="spacing" textLength="143.6919" x="1750.2725" y="810.7183">- min_samples_leaf=1</text><text fill="#000000" font-family="sans-serif" font-size="13" lengthAdjust="spacing" textLength="245.9272" x="1750.2725" y="825.8511">- class_weight='balanced_subsample'</text><rect fill="#EEEEEE" height="33.9688" rx="12.5" ry="12.5" style="stroke:#666666;stroke-width:0.5;" width="216.2773" x="1507.9951" y="766.5342"/><text fill="#000000" font-family="sans-serif" font-size="12" lengthAdjust="spacing" textLength="196.2773" x="1517.9951" y="787.6729">Initialize RandomForestClassifier</text><path d="M1745.9395,843.917 L1745.9395,867.6162 L1725.9395,871.6162 L1745.9395,875.6162 L1745.9395,899.3154 A0,0 0 0 0 1745.9395,899.3154 L2044.0718,899.3154 A0,0 0 0 0 2044.0718,899.3154 L2044.0718,853.917 L2034.0718,843.917 L1745.9395,843.917 A0,0 0 0 0 1745.9395,843.917 " fill="#FFF9C4" style="stroke:#FFD54F;stroke-width:0.5;"/><path d="M2034.0718,843.917 L2034.0718,853.917 L2044.0718,853.917 L2034.0718,843.917 " fill="#FFF9C4" style="stroke:#FFD54F;stroke-width:0.5;"/><text fill="#000000" font-family="sans-serif" font-size="13" lengthAdjust="spacing" textLength="152.9976" x="1751.9395" y="860.9839">- 5-fold cross-validation</text><text fill="#000000" font-family="sans-serif" font-size="13" lengthAdjust="spacing" textLength="120.7007" x="1751.9395" y="876.1167">- f1_macro scoring</text><text fill="#000000" font-family="sans-serif" font-size="13" lengthAdjust="spacing" textLength="277.1323" x="1751.9395" y="891.2495">- GridSearchCV for hyperparameter tuning</text><rect fill="#EEEEEE" height="33.9688" rx="12.5" ry="12.5" style="stroke:#666666;stroke-width:0.5;" width="219.6113" x="1506.3281" y="854.6318"/><text fill="#000000" font-family="sans-serif" font-size="12" lengthAdjust="spacing" textLength="199.6113" x="1516.3281" y="875.7705">Train model with cross-validation</text><line style="stroke:#000000;stroke-width:1.5;" x1="1449.958" x2="1449.958" y1="50.042" y2="1534.1279"/><rect fill="#E0F2F1" height="1484.0859" style="stroke:#E0F2F1;stroke-width:1;" width="338.0566" x="2068.332" y="50.042"/><path d="M2311.9863,909.3154 L2311.9863,948.1475 L2291.9863,952.1475 L2311.9863,956.1475 L2311.9863,994.9795 A0,0 0 0 0 2311.9863,994.9795 L2401.3887,994.9795 A0,0 0 0 0 2401.3887,994.9795 L2401.3887,919.3154 L2391.3887,909.3154 L2311.9863,909.3154 A0,0 0 0 0 2311.9863,909.3154 " fill="#FFF9C4" style="stroke:#FFD54F;stroke-width:0.5;"/><path d="M2391.3887,909.3154 L2391.3887,919.3154 L2401.3887,919.3154 L2391.3887,909.3154 " fill="#FFF9C4" style="stroke:#FFD54F;stroke-width:0.5;"/><text fill="#000000" font-family="sans-serif" font-size="13" lengthAdjust="spacing" textLength="51.5684" x="2317.9863" y="926.3823">Metrics:</text><text fill="#000000" font-family="sans-serif" font-size="13" lengthAdjust="spacing" textLength="68.4023" x="2317.9863" y="941.5151">- Accuracy</text><text fill="#000000" font-family="sans-serif" font-size="13" lengthAdjust="spacing" textLength="67.3423" x="2317.9863" y="956.6479">- Precision</text><text fill="#000000" font-family="sans-serif" font-size="13" lengthAdjust="spacing" textLength="48.1914" x="2317.9863" y="971.7808">- Recall</text><text fill="#000000" font-family="sans-serif" font-size="13" lengthAdjust="spacing" textLength="65.3999" x="2317.9863" y="986.9136">- F1 Score</text><rect fill="#EEEEEE" height="33.9688" rx="12.5" ry="12.5" style="stroke:#666666;stroke-width:0.5;" width="181.373" x="2110.6133" y="935.1631"/><text fill="#000000" font-family="sans-serif" font-size="12" lengthAdjust="spacing" textLength="161.373" x="2120.6133" y="956.3018">Evaluate model on test set</text><rect fill="#EEEEEE" height="33.9688" rx="12.5" ry="12.5" style="stroke:#666666;stroke-width:0.5;" width="187.0625" x="2107.7686" y="1014.9795"/><text fill="#000000" font-family="sans-serif" font-size="12" lengthAdjust="spacing" textLength="167.0625" x="2117.7686" y="1036.1182">Analyze feature importance</text><rect fill="#EEEEEE" height="33.9688" rx="12.5" ry="12.5" style="stroke:#666666;stroke-width:0.5;" width="253.9355" x="2074.332" y="1068.9482"/><text fill="#000000" font-family="sans-serif" font-size="12" lengthAdjust="spacing" textLength="233.9355" x="2084.332" y="1090.0869">Analyze "Other" category performance</text><rect fill="#EEEEEE" height="33.9688" rx="12.5" ry="12.5" style="stroke:#666666;stroke-width:0.5;" width="176.2461" x="2113.1768" y="1122.917"/><text fill="#000000" font-family="sans-serif" font-size="12" lengthAdjust="spacing" textLength="156.2461" x="2123.1768" y="1144.0557">Analyze misclassifications</text><line style="stroke:#000000;stroke-width:1.5;" x1="2068.332" x2="2068.332" y1="50.042" y2="1534.1279"/><rect fill="#FFEBEE" height="1484.0859" style="stroke:#FFEBEE;stroke-width:1;" width="475.5386" x="2406.3887" y="50.042"/><path d="M2638.5645,1166.8857 L2638.5645,1190.585 L2618.5645,1194.585 L2638.5645,1198.585 L2638.5645,1222.2842 A0,0 0 0 0 2638.5645,1222.2842 L2876.9272,1222.2842 A0,0 0 0 0 2876.9272,1222.2842 L2876.9272,1176.8857 L2866.9272,1166.8857 L2638.5645,1166.8857 A0,0 0 0 0 2638.5645,1166.8857 " fill="#FFF9C4" style="stroke:#FFD54F;stroke-width:0.5;"/><path d="M2866.9272,1166.8857 L2866.9272,1176.8857 L2876.9272,1176.8857 L2866.9272,1166.8857 " fill="#FFF9C4" style="stroke:#FFD54F;stroke-width:0.5;"/><text fill="#000000" font-family="sans-serif" font-size="13" lengthAdjust="spacing" textLength="207.4858" x="2644.5645" y="1183.9526">predict_with_enhanced_model()</text><text fill="#000000" font-family="sans-serif" font-size="13" lengthAdjust="spacing" textLength="217.3628" x="2644.5645" y="1199.0854">takes description and service_life</text><text fill="#000000" font-family="sans-serif" font-size="13" lengthAdjust="spacing" textLength="52.311" x="2644.5645" y="1214.2183">as input</text><rect fill="#EEEEEE" height="33.9688" rx="12.5" ry="12.5" style="stroke:#666666;stroke-width:0.5;" width="177.2539" x="2441.3105" y="1177.6006"/><text fill="#000000" font-family="sans-serif" font-size="12" lengthAdjust="spacing" textLength="157.2539" x="2451.3105" y="1198.7393">Create prediction function</text><rect fill="#EEEEEE" height="33.9688" rx="12.5" ry="12.5" style="stroke:#666666;stroke-width:0.5;" width="230.9375" x="2414.4688" y="1242.2842"/><text fill="#000000" font-family="sans-serif" font-size="12" lengthAdjust="spacing" textLength="210.9375" x="2424.4688" y="1263.4229">Add EAV information to predictions</text><rect fill="#EEEEEE" height="33.9688" rx="12.5" ry="12.5" style="stroke:#666666;stroke-width:0.5;" width="235.0977" x="2412.3887" y="1296.2529"/><text fill="#000000" font-family="sans-serif" font-size="12" lengthAdjust="spacing" textLength="215.0977" x="2422.3887" y="1317.3916">Map predictions to master DB fields</text><line style="stroke:#000000;stroke-width:1.5;" x1="2406.3887" x2="2406.3887" y1="50.042" y2="1534.1279"/><rect fill="#F9FBE7" height="1484.0859" style="stroke:#F9FBE7;stroke-width:1;" width="214.5176" x="2881.9272" y="50.042"/><rect fill="#EEEEEE" height="33.9688" rx="12.5" ry="12.5" style="stroke:#666666;stroke-width:0.5;" width="204.5176" x="2887.9272" y="1350.2217"/><text fill="#000000" font-family="sans-serif" font-size="12" lengthAdjust="spacing" textLength="184.5176" x="2897.9272" y="1371.3604">Save model for production use</text><rect fill="#EEEEEE" height="33.9688" rx="12.5" ry="12.5" style="stroke:#666666;stroke-width:0.5;" width="188.6797" x="2895.8462" y="1404.1904"/><text fill="#000000" font-family="sans-serif" font-size="12" lengthAdjust="spacing" textLength="168.6797" x="2905.8462" y="1425.3291">Create API for model access</text><rect fill="#EEEEEE" height="33.9688" rx="12.5" ry="12.5" style="stroke:#666666;stroke-width:0.5;" width="186.7637" x="2896.8042" y="1458.1592"/><text fill="#000000" font-family="sans-serif" font-size="12" lengthAdjust="spacing" textLength="166.7637" x="2906.8042" y="1479.2979">Integrate with data pipeline</text><ellipse cx="2990.186" cy="1523.1279" fill="none" rx="11" ry="11" style="stroke:#222222;stroke-width:1;"/><ellipse cx="2990.186" cy="1523.1279" fill="#222222" rx="6" ry="6" style="stroke:#222222;stroke-width:1;"/><line style="stroke:#000000;stroke-width:1.5;" x1="2881.9272" x2="2881.9272" y1="50.042" y2="1534.1279"/><line style="stroke:#000000;stroke-width:1.5;" x1="3096.4448" x2="3096.4448" y1="50.042" y2="1534.1279"/><line style="stroke:#333333;stroke-width:1;" x1="134.9658" x2="134.9658" y1="95.9951" y2="115.9951"/><polygon fill="#333333" points="130.9658,105.9951,134.9658,115.9951,138.9658,105.9951,134.9658,109.9951" style="stroke:#333333;stroke-width:1;"/><line style="stroke:#333333;stroke-width:1;" x1="670.7554" x2="670.7554" y1="207.0811" y2="227.0811"/><polygon fill="#333333" points="666.7554,217.0811,670.7554,227.0811,674.7554,217.0811,670.7554,221.0811" style="stroke:#333333;stroke-width:1;"/><line style="stroke:#333333;stroke-width:1;" x1="670.7554" x2="670.7554" y1="261.0498" y2="281.0498"/><polygon fill="#333333" points="666.7554,271.0498,670.7554,281.0498,674.7554,271.0498,670.7554,275.0498" style="stroke:#333333;stroke-width:1;"/><line style="stroke:#333333;stroke-width:1;" x1="934.8511" x2="934.8511" y1="369.7021" y2="400.417"/><polygon fill="#333333" points="930.8511,390.417,934.8511,400.417,938.8511,390.417,934.8511,394.417" style="stroke:#333333;stroke-width:1;"/><line style="stroke:#333333;stroke-width:1;" x1="934.8511" x2="934.8511" y1="434.3857" y2="457.5342"/><polygon fill="#333333" points="930.8511,447.5342,934.8511,457.5342,938.8511,447.5342,934.8511,451.5342" style="stroke:#333333;stroke-width:1;"/><line style="stroke:#333333;stroke-width:1;" x1="934.8511" x2="934.8511" y1="491.5029" y2="514.6514"/><polygon fill="#333333" points="930.8511,504.6514,934.8511,514.6514,938.8511,504.6514,934.8511,508.6514" style="stroke:#333333;stroke-width:1;"/><line style="stroke:#333333;stroke-width:1;" x1="934.8511" x2="934.8511" y1="548.6201" y2="571.7686"/><polygon fill="#333333" points="930.8511,561.7686,934.8511,571.7686,938.8511,561.7686,934.8511,565.7686" style="stroke:#333333;stroke-width:1;"/><line style="stroke:#333333;stroke-width:1;" x1="1616.1338" x2="1616.1338" y1="662.8545" y2="686.0029"/><polygon fill="#333333" points="1612.1338,676.0029,1616.1338,686.0029,1620.1338,676.0029,1616.1338,680.0029" style="stroke:#333333;stroke-width:1;"/><line style="stroke:#333333;stroke-width:1;" x1="1616.1338" x2="1616.1338" y1="719.9717" y2="766.5342"/><polygon fill="#333333" points="1612.1338,756.5342,1616.1338,766.5342,1620.1338,756.5342,1616.1338,760.5342" style="stroke:#333333;stroke-width:1;"/><line style="stroke:#333333;stroke-width:1;" x1="1616.1338" x2="1616.1338" y1="800.5029" y2="854.6318"/><polygon fill="#333333" points="1612.1338,844.6318,1616.1338,854.6318,1620.1338,844.6318,1616.1338,848.6318" style="stroke:#333333;stroke-width:1;"/><line style="stroke:#333333;stroke-width:1;" x1="2201.2998" x2="2201.2998" y1="969.1318" y2="1014.9795"/><polygon fill="#333333" points="2197.2998,1004.9795,2201.2998,1014.9795,2205.2998,1004.9795,2201.2998,1008.9795" style="stroke:#333333;stroke-width:1;"/><line style="stroke:#333333;stroke-width:1;" x1="2201.2998" x2="2201.2998" y1="1048.9482" y2="1068.9482"/><polygon fill="#333333" points="2197.2998,1058.9482,2201.2998,1068.9482,2205.2998,1058.9482,2201.2998,1062.9482" style="stroke:#333333;stroke-width:1;"/><line style="stroke:#333333;stroke-width:1;" x1="2201.2998" x2="2201.2998" y1="1102.917" y2="1122.917"/><polygon fill="#333333" points="2197.2998,1112.917,2201.2998,1122.917,2205.2998,1112.917,2201.2998,1116.917" style="stroke:#333333;stroke-width:1;"/><line style="stroke:#333333;stroke-width:1;" x1="2529.9375" x2="2529.9375" y1="1211.5693" y2="1242.2842"/><polygon fill="#333333" points="2525.9375,1232.2842,2529.9375,1242.2842,2533.9375,1232.2842,2529.9375,1236.2842" style="stroke:#333333;stroke-width:1;"/><line style="stroke:#333333;stroke-width:1;" x1="2529.9375" x2="2529.9375" y1="1276.2529" y2="1296.2529"/><polygon fill="#333333" points="2525.9375,1286.2529,2529.9375,1296.2529,2533.9375,1286.2529,2529.9375,1290.2529" style="stroke:#333333;stroke-width:1;"/><line style="stroke:#333333;stroke-width:1;" x1="2990.186" x2="2990.186" y1="1384.1904" y2="1404.1904"/><polygon fill="#333333" points="2986.186,1394.1904,2990.186,1404.1904,2994.186,1394.1904,2990.186,1398.1904" style="stroke:#333333;stroke-width:1;"/><line style="stroke:#333333;stroke-width:1;" x1="2990.186" x2="2990.186" y1="1438.1592" y2="1458.1592"/><polygon fill="#333333" points="2986.186,1448.1592,2990.186,1458.1592,2994.186,1448.1592,2990.186,1452.1592" style="stroke:#333333;stroke-width:1;"/><line style="stroke:#333333;stroke-width:1;" x1="2990.186" x2="2990.186" y1="1492.1279" y2="1512.1279"/><polygon fill="#333333" points="2986.186,1502.1279,2990.186,1512.1279,2994.186,1502.1279,2990.186,1506.1279" style="stroke:#333333;stroke-width:1;"/><line style="stroke:#333333;stroke-width:1;" x1="134.9658" x2="134.9658" y1="149.9639" y2="158.1123"/><line style="stroke:#333333;stroke-width:1;" x1="134.9658" x2="670.7554" y1="158.1123" y2="158.1123"/><line style="stroke:#333333;stroke-width:1;" x1="670.7554" x2="670.7554" y1="158.1123" y2="173.1123"/><polygon fill="#333333" points="666.7554,163.1123,670.7554,173.1123,674.7554,163.1123,670.7554,167.1123" style="stroke:#333333;stroke-width:1;"/><line style="stroke:#333333;stroke-width:1;" x1="670.7554" x2="670.7554" y1="315.0186" y2="320.0186"/><line style="stroke:#333333;stroke-width:1;" x1="670.7554" x2="934.8511" y1="320.0186" y2="320.0186"/><line style="stroke:#333333;stroke-width:1;" x1="934.8511" x2="934.8511" y1="320.0186" y2="335.7334"/><polygon fill="#333333" points="930.8511,325.7334,934.8511,335.7334,938.8511,325.7334,934.8511,329.7334" style="stroke:#333333;stroke-width:1;"/><line style="stroke:#333333;stroke-width:1;" x1="934.8511" x2="934.8511" y1="605.7373" y2="613.8857"/><line style="stroke:#333333;stroke-width:1;" x1="934.8511" x2="1616.1338" y1="613.8857" y2="613.8857"/><line style="stroke:#333333;stroke-width:1;" x1="1616.1338" x2="1616.1338" y1="613.8857" y2="628.8857"/><polygon fill="#333333" points="1612.1338,618.8857,1616.1338,628.8857,1620.1338,618.8857,1616.1338,622.8857" style="stroke:#333333;stroke-width:1;"/><line style="stroke:#333333;stroke-width:1;" x1="1616.1338" x2="1616.1338" y1="888.6006" y2="904.3154"/><line style="stroke:#333333;stroke-width:1;" x1="1616.1338" x2="2201.2998" y1="904.3154" y2="904.3154"/><line style="stroke:#333333;stroke-width:1;" x1="2201.2998" x2="2201.2998" y1="904.3154" y2="935.1631"/><polygon fill="#333333" points="2197.2998,925.1631,2201.2998,935.1631,2205.2998,925.1631,2201.2998,929.1631" style="stroke:#333333;stroke-width:1;"/><line style="stroke:#333333;stroke-width:1;" x1="2201.2998" x2="2201.2998" y1="1156.8857" y2="1161.8857"/><line style="stroke:#333333;stroke-width:1;" x1="2201.2998" x2="2529.9375" y1="1161.8857" y2="1161.8857"/><line style="stroke:#333333;stroke-width:1;" x1="2529.9375" x2="2529.9375" y1="1161.8857" y2="1177.6006"/><polygon fill="#333333" points="2525.9375,1167.6006,2529.9375,1177.6006,2533.9375,1167.6006,2529.9375,1171.6006" style="stroke:#333333;stroke-width:1;"/><line style="stroke:#333333;stroke-width:1;" x1="2529.9375" x2="2529.9375" y1="1330.2217" y2="1335.2217"/><line style="stroke:#333333;stroke-width:1;" x1="2529.9375" x2="2990.186" y1="1335.2217" y2="1335.2217"/><line style="stroke:#333333;stroke-width:1;" x1="2990.186" x2="2990.186" y1="1335.2217" y2="1350.2217"/><polygon fill="#333333" points="2986.186,1340.2217,2990.186,1350.2217,2994.186,1340.2217,2990.186,1344.2217" style="stroke:#333333;stroke-width:1;"/><text fill="#000000" font-family="sans-serif" font-size="18" lengthAdjust="spacing" textLength="120.0322" x="236.0042" y="66.75">Data Loading</text><text fill="#000000" font-family="sans-serif" font-size="18" lengthAdjust="spacing" textLength="175.4297" x="582.0405" y="66.75">Data Preprocessing</text><text fill="#000000" font-family="sans-serif" font-size="18" lengthAdjust="spacing" textLength="183.1201" x="1014.6541" y="66.75">Feature Engineering</text><text fill="#000000" font-family="sans-serif" font-size="18" lengthAdjust="spacing" textLength="133.4355" x="1692.4272" y="66.75">Model Training</text><text fill="#000000" font-family="sans-serif" font-size="18" lengthAdjust="spacing" textLength="154.7402" x="2159.9902" y="66.75">Model Evaluation</text><text fill="#000000" font-family="sans-serif" font-size="18" lengthAdjust="spacing" textLength="149.8975" x="2569.2092" y="66.75">Model Prediction</text><text fill="#000000" font-family="sans-serif" font-size="18" lengthAdjust="spacing" textLength="169.8662" x="2904.2529" y="66.75">Model Deployment</text><!--SRC=[ZLNRRY8v47tlhx0cMcLN2XF8PRD3n0C1UXHfCXiDKVQnPUngiEAsFRORmeYFtxBR16XOQViXeLsdVEfoglgSZA4K2eZpQmakSsz26MffHMQKlSsjhXKVQQajMIs4Xptxa7cn57xze2q7ss3E_epFALJhjhD9V4uWnu9MMl5ZXsv-bm_t7Bvh3qUeFC-_Z6xQgFqGytnyUvFl4rkhLybu7P-sCTVAJyKl8BtUYO1trgiiEoSlmal8VFXBdhwH9yr1ad-qVIkbNX6gE1bJJycprGoS4sfESZHasUPiSfrVvUDDD7_JbADjapbFhS_wuPruIuKA7Zn0Igih0ZyBmTrdvfRtcS9KYHNpXSy8Ni2e1qwexnC5xxMhv2MwWlENmVjovuZW4QQ0LpiYwGmaUi7FMfWAb8zK6M3KuVOOvL_vxUJB9YK1vYEFJTOVIQ2AC2thIX55At3tMJyNKf9ADBakgQpZwIjOKQw93KmM6Hidj205Dl5wqjtaG7rjWKpK71MA-CWnD4QkIPbiJAjIp6jBlT2gAKao5OtfyxgI_wCq3VZos1VnpOGuuk7T8s4r4ohIkGkYwWhZOjleBn2z462fPVWFxQ7TgHmLDGOpS7l5x8yiya6w4oEA32a6rufwr80SgMhfXK5rfNWYCn7AQqHH4igCncs1IfJrIzvv7ES7nB5Hs-Z_ar4jmNfCN1Diim7R2C-l3MuA4fChiRckrTqJ6NuKXL59GlNdsefZmWXsXsWBigdsGfZ0EWE_0b1xj-ppDUgO35z3GM3UwA95C-JSOVEz5RFQXp9MHaPUJ0ZDJ5BCfaJog2ctTeWWZsDtC0QeqDlyTjECzqiQJ9Jdr4ZHJ4rioMvcGxMGn1C7lftuNVUt3-05kGvlYCGNjAs4Nn2BthegS1bu6DnSdQZmAEe00r4EMuvzZPtVgc0tfItcJX97H1_8Bngd7ecfvLFiHBgoBPhzM1wLy8BAi0n_n8XpZGW_IXK5ss9_3eiKF5ZNZtIg26bNr6lh1hrkDnvMzBtWOFnYy5qhQ8w4AXp5je4hN2ZuuEhe71LU3dhnE7QqM45W7PpFgAIA0IzSFMl0v_ivn5wIAlOrrfvPxLm7fItuAJLro6sdr98VuQAjx1KLHGjnJDkceHtorGe-XQ3mqMkiwG8doffjCOYlWn0EjsuNlmsz9BT9cBF8WO9BBv12HiLkLTOAz0bGyInLUiWOBassZY-unfbmsv1_03PRnfzvZqmnRZYOC4Nb-jTkmOZAQEj3HUztnaz_-mNOJziXNHFCByYo1SEzSJXjs_q_UPXCKh8O71Si9Pl4RZxEI5ahTg8h2L643XQW5at7Oub-_mFjdhxXm7Dmp0eJBmhpwS0k1OD2YZ88ZOQrQcf_a3xdQRt4VA9ht8_RYCB7xOcQ_PC0gAWBhHq_uCe4oLEYN_A7oLrAT0n6wdNuw8OrGfVRZWQ1uFpokacuTg62gH33vyTeRv2KXI6_3tFOx3ve51otaH4697v0aDXvRVu5]--></g></svg>