<svg xmlns="http://www.w3.org/2000/svg" xmlns:xlink="http://www.w3.org/1999/xlink" contentStyleType="text/css" data-diagram-type="CLASS" height="825px" preserveAspectRatio="none" style="width:2332px;height:825px;background:#FFFFFF;" version="1.1" viewBox="0 0 2332 825" width="2332px" zoomAndPan="magnify"><defs/><g><!--cluster Reference Data--><g class="cluster" data-entity="Reference Data" data-source-line="2" data-uid="ent0002" id="cluster_Reference Data"><path d="M1398.5,88.96 L1521.6035,88.96 A3.75,3.75 0 0 1 1524.1035,91.46 L1531.1035,111.2569 L1681.5,111.2569 A2.5,2.5 0 0 1 1684,113.7569 L1684,532.43 A2.5,2.5 0 0 1 1681.5,534.93 L1398.5,534.93 A2.5,2.5 0 0 1 1396,532.43 L1396,91.46 A2.5,2.5 0 0 1 1398.5,88.96 " fill="none" style="stroke:#000000;stroke-width:1.5;"/><line style="stroke:#000000;stroke-width:1.5;" x1="1396" x2="1531.1035" y1="111.2569" y2="111.2569"/><text fill="#000000" font-family="sans-serif" font-size="14" font-weight="bold" lengthAdjust="spacing" textLength="122.1035" x="1400" y="103.9551">Reference Data</text></g><!--cluster Training Data--><g class="cluster" data-entity="Training Data" data-source-line="18" data-uid="ent0005" id="cluster_Training Data"><path d="M835.5,327.3 L944.0361,327.3 A3.75,3.75 0 0 1 946.5361,329.8 L953.5361,349.5969 L1369.5,349.5969 A2.5,2.5 0 0 1 1372,352.0969 L1372,556.87 A2.5,2.5 0 0 1 1369.5,559.37 L835.5,559.37 A2.5,2.5 0 0 1 833,556.87 L833,329.8 A2.5,2.5 0 0 1 835.5,327.3 " fill="none" style="stroke:#000000;stroke-width:1.5;"/><line style="stroke:#000000;stroke-width:1.5;" x1="833" x2="953.5361" y1="349.5969" y2="349.5969"/><text fill="#000000" font-family="sans-serif" font-size="14" font-weight="bold" lengthAdjust="spacing" textLength="107.5361" x="837" y="342.2951">Training Data</text></g><!--cluster Classification System--><g class="cluster" data-entity="Classification System" data-source-line="37" data-uid="ent0008" id="cluster_Classification System"><path d="M8.5,80.81 L178.3887,80.81 A3.75,3.75 0 0 1 180.8887,83.31 L187.8887,103.1069 L806.5,103.1069 A2.5,2.5 0 0 1 809,105.6069 L809,532.43 A2.5,2.5 0 0 1 806.5,534.93 L8.5,534.93 A2.5,2.5 0 0 1 6,532.43 L6,83.31 A2.5,2.5 0 0 1 8.5,80.81 " fill="none" style="stroke:#000000;stroke-width:1.5;"/><line style="stroke:#000000;stroke-width:1.5;" x1="6" x2="187.8887" y1="103.1069" y2="103.1069"/><text fill="#000000" font-family="sans-serif" font-size="14" font-weight="bold" lengthAdjust="spacing" textLength="168.8887" x="10" y="95.8051">Classification System</text></g><!--class OmniClass--><g class="entity" data-entity="OmniClass" data-source-line="3" data-uid="ent0003" id="entity_OmniClass"><rect fill="#F1F1F1" height="113.1875" rx="2.5" ry="2.5" style="stroke:#181818;stroke-width:0.5;" width="255.9658" x="1412.02" y="142.96"/><ellipse cx="1427.02" cy="158.96" fill="#ADD1B2" rx="11" ry="11" style="stroke:#181818;stroke-width:1;"/><path d="M1429.9888,164.6006 Q1429.4106,164.8975 1428.77,165.0381 Q1428.1294,165.1944 1427.4263,165.1944 Q1424.9263,165.1944 1423.5981,163.5537 Q1422.2856,161.8975 1422.2856,158.7725 Q1422.2856,155.6475 1423.5981,153.9912 Q1424.9263,152.335 1427.4263,152.335 Q1428.1294,152.335 1428.77,152.4912 Q1429.4263,152.6475 1429.9888,152.9444 L1429.9888,155.6631 Q1429.3638,155.085 1428.77,154.8194 Q1428.1763,154.5381 1427.5513,154.5381 Q1426.2075,154.5381 1425.52,155.6162 Q1424.8325,156.6787 1424.8325,158.7725 Q1424.8325,160.8662 1425.52,161.9444 Q1426.2075,163.0069 1427.5513,163.0069 Q1428.1763,163.0069 1428.77,162.7412 Q1429.3638,162.46 1429.9888,161.8819 L1429.9888,164.6006 Z " fill="#000000"/><text fill="#000000" font-family="sans-serif" font-size="14" lengthAdjust="spacing" textLength="223.9658" x="1441.02" y="163.8067">Complete OmniClass Taxonomy</text><line style="stroke:#181818;stroke-width:0.5;" x1="1413.02" x2="1666.9858" y1="174.96" y2="174.96"/><ellipse cx="1423.02" cy="188.6084" fill="none" rx="3" ry="3" style="stroke:#038048;stroke-width:1;"/><text fill="#000000" font-family="sans-serif" font-size="14" lengthAdjust="spacing" textLength="84.7109" x="1432.02" y="191.9551">code: String</text><ellipse cx="1423.02" cy="204.9053" fill="none" rx="3" ry="3" style="stroke:#038048;stroke-width:1;"/><text fill="#000000" font-family="sans-serif" font-size="14" lengthAdjust="spacing" textLength="90.6514" x="1432.02" y="208.252">name: String</text><ellipse cx="1423.02" cy="221.2022" fill="none" rx="3" ry="3" style="stroke:#038048;stroke-width:1;"/><text fill="#000000" font-family="sans-serif" font-size="14" lengthAdjust="spacing" textLength="128.7891" x="1432.02" y="224.5489">description: String</text><ellipse cx="1423.02" cy="237.4991" fill="none" rx="3" ry="3" style="stroke:#038048;stroke-width:1;"/><text fill="#000000" font-family="sans-serif" font-size="14" lengthAdjust="spacing" textLength="137.9082" x="1432.02" y="240.8457">parent_code: String</text><line style="stroke:#181818;stroke-width:0.5;" x1="1413.02" x2="1666.9858" y1="248.1475" y2="248.1475"/></g><!--class ManufCatalog--><g class="entity" data-entity="ManufCatalog" data-source-line="10" data-uid="ent0004" id="entity_ManufCatalog"><rect fill="#F1F1F1" height="113.1875" rx="2.5" ry="2.5" style="stroke:#181818;stroke-width:0.5;" width="242.4717" x="1414.76" y="405.74"/><ellipse cx="1429.76" cy="421.74" fill="#ADD1B2" rx="11" ry="11" style="stroke:#181818;stroke-width:1;"/><path d="M1432.7288,427.3806 Q1432.1506,427.6775 1431.51,427.8181 Q1430.8694,427.9744 1430.1663,427.9744 Q1427.6663,427.9744 1426.3381,426.3338 Q1425.0256,424.6775 1425.0256,421.5525 Q1425.0256,418.4275 1426.3381,416.7713 Q1427.6663,415.115 1430.1663,415.115 Q1430.8694,415.115 1431.51,415.2713 Q1432.1663,415.4275 1432.7288,415.7244 L1432.7288,418.4431 Q1432.1038,417.865 1431.51,417.5994 Q1430.9163,417.3181 1430.2913,417.3181 Q1428.9475,417.3181 1428.26,418.3963 Q1427.5725,419.4588 1427.5725,421.5525 Q1427.5725,423.6463 1428.26,424.7244 Q1428.9475,425.7869 1430.2913,425.7869 Q1430.9163,425.7869 1431.51,425.5213 Q1432.1038,425.24 1432.7288,424.6619 L1432.7288,427.3806 Z " fill="#000000"/><text fill="#000000" font-family="sans-serif" font-size="14" lengthAdjust="spacing" textLength="210.4717" x="1443.76" y="426.5867">Manufacturer Product Catalog</text><line style="stroke:#181818;stroke-width:0.5;" x1="1415.76" x2="1656.2317" y1="437.74" y2="437.74"/><ellipse cx="1425.76" cy="451.3884" fill="none" rx="3" ry="3" style="stroke:#038048;stroke-width:1;"/><text fill="#000000" font-family="sans-serif" font-size="14" lengthAdjust="spacing" textLength="146.6035" x="1434.76" y="454.7351">manufacturer: String</text><ellipse cx="1425.76" cy="467.6853" fill="none" rx="3" ry="3" style="stroke:#038048;stroke-width:1;"/><text fill="#000000" font-family="sans-serif" font-size="14" lengthAdjust="spacing" textLength="151.8057" x="1434.76" y="471.032">product_name: String</text><ellipse cx="1425.76" cy="483.9822" fill="none" rx="3" ry="3" style="stroke:#038048;stroke-width:1;"/><text fill="#000000" font-family="sans-serif" font-size="14" lengthAdjust="spacing" textLength="161.4307" x="1434.76" y="487.3289">omniclass_code: String</text><ellipse cx="1425.76" cy="500.2791" fill="none" rx="3" ry="3" style="stroke:#038048;stroke-width:1;"/><text fill="#000000" font-family="sans-serif" font-size="14" lengthAdjust="spacing" textLength="128.7891" x="1434.76" y="503.6257">description: String</text><line style="stroke:#181818;stroke-width:0.5;" x1="1415.76" x2="1656.2317" y1="510.9275" y2="510.9275"/></g><!--class Equipment--><g class="entity" data-entity="Equipment" data-source-line="19" data-uid="ent0006" id="entity_Equipment"><rect fill="#F1F1F1" height="162.0781" rx="2.5" ry="2.5" style="stroke:#181818;stroke-width:0.5;" width="220.0381" x="1135.98" y="381.3"/><ellipse cx="1168.7827" cy="397.3" fill="#ADD1B2" rx="11" ry="11" style="stroke:#181818;stroke-width:1;"/><path d="M1171.7514,402.9406 Q1171.1733,403.2375 1170.5327,403.3781 Q1169.8921,403.5344 1169.1889,403.5344 Q1166.6889,403.5344 1165.3608,401.8938 Q1164.0483,400.2375 1164.0483,397.1125 Q1164.0483,393.9875 1165.3608,392.3313 Q1166.6889,390.675 1169.1889,390.675 Q1169.8921,390.675 1170.5327,390.8313 Q1171.1889,390.9875 1171.7514,391.2844 L1171.7514,394.0031 Q1171.1264,393.425 1170.5327,393.1594 Q1169.9389,392.8781 1169.3139,392.8781 Q1167.9702,392.8781 1167.2827,393.9563 Q1166.5952,395.0188 1166.5952,397.1125 Q1166.5952,399.2063 1167.2827,400.2844 Q1167.9702,401.3469 1169.3139,401.3469 Q1169.9389,401.3469 1170.5327,401.0813 Q1171.1264,400.8 1171.7514,400.2219 L1171.7514,402.9406 Z " fill="#000000"/><text fill="#000000" font-family="sans-serif" font-size="14" lengthAdjust="spacing" textLength="148.4766" x="1186.7388" y="402.1467">Equipment Examples</text><line style="stroke:#181818;stroke-width:0.5;" x1="1136.98" x2="1355.0181" y1="413.3" y2="413.3"/><ellipse cx="1146.98" cy="426.9484" fill="none" rx="3" ry="3" style="stroke:#038048;stroke-width:1;"/><text fill="#000000" font-family="sans-serif" font-size="14" lengthAdjust="spacing" textLength="156.666" x="1155.98" y="430.2951">equipment_tag: String</text><ellipse cx="1146.98" cy="443.2453" fill="none" rx="3" ry="3" style="stroke:#038048;stroke-width:1;"/><text fill="#000000" font-family="sans-serif" font-size="14" lengthAdjust="spacing" textLength="146.6035" x="1155.98" y="446.592">manufacturer: String</text><ellipse cx="1146.98" cy="459.5422" fill="none" rx="3" ry="3" style="stroke:#038048;stroke-width:1;"/><text fill="#000000" font-family="sans-serif" font-size="14" lengthAdjust="spacing" textLength="94.541" x="1155.98" y="462.8889">model: String</text><ellipse cx="1146.98" cy="475.8391" fill="none" rx="3" ry="3" style="stroke:#038048;stroke-width:1;"/><text fill="#000000" font-family="sans-serif" font-size="14" lengthAdjust="spacing" textLength="128.7891" x="1155.98" y="479.1857">description: String</text><ellipse cx="1146.98" cy="492.1359" fill="none" rx="3" ry="3" style="stroke:#038048;stroke-width:1;"/><text fill="#000000" font-family="sans-serif" font-size="14" lengthAdjust="spacing" textLength="122.2129" x="1155.98" y="495.4826">service_life: Float</text><ellipse cx="1146.98" cy="508.4328" fill="none" rx="3" ry="3" style="stroke:#038048;stroke-width:1;"/><text fill="#000000" font-family="sans-serif" font-size="14" lengthAdjust="spacing" textLength="123.457" x="1155.98" y="511.7795">...other attributes</text><line style="stroke:#181818;stroke-width:0.5;" x1="1136.98" x2="1355.0181" y1="519.0813" y2="519.0813"/><ellipse cx="1146.98" cy="532.7297" fill="#84BE84" rx="3" ry="3" style="stroke:#038048;stroke-width:1;"/><text fill="#000000" font-family="sans-serif" font-size="14" lengthAdjust="spacing" textLength="194.0381" x="1155.98" y="536.0764">omniclass_code: String (FK)</text></g><!--class Synthetic--><g class="entity" data-entity="Synthetic" data-source-line="29" data-uid="ent0007" id="entity_Synthetic"><rect fill="#F1F1F1" height="113.1875" rx="2.5" ry="2.5" style="stroke:#181818;stroke-width:0.5;" width="252.8096" x="848.6" y="405.74"/><ellipse cx="901.4657" cy="421.74" fill="#ADD1B2" rx="11" ry="11" style="stroke:#181818;stroke-width:1;"/><path d="M904.4345,427.3806 Q903.8563,427.6775 903.2157,427.8181 Q902.5751,427.9744 901.872,427.9744 Q899.372,427.9744 898.0438,426.3338 Q896.7313,424.6775 896.7313,421.5525 Q896.7313,418.4275 898.0438,416.7713 Q899.372,415.115 901.872,415.115 Q902.5751,415.115 903.2157,415.2713 Q903.872,415.4275 904.4345,415.7244 L904.4345,418.4431 Q903.8095,417.865 903.2157,417.5994 Q902.622,417.3181 901.997,417.3181 Q900.6532,417.3181 899.9657,418.3963 Q899.2782,419.4588 899.2782,421.5525 Q899.2782,423.6463 899.9657,424.7244 Q900.6532,425.7869 901.997,425.7869 Q902.622,425.7869 903.2157,425.5213 Q903.8095,425.24 904.4345,424.6619 L904.4345,427.3806 Z " fill="#000000"/><text fill="#000000" font-family="sans-serif" font-size="14" lengthAdjust="spacing" textLength="138.5781" x="921.9657" y="426.5867">Synthetic Examples</text><line style="stroke:#181818;stroke-width:0.5;" x1="849.6" x2="1100.4096" y1="437.74" y2="437.74"/><ellipse cx="859.6" cy="451.3884" fill="none" rx="3" ry="3" style="stroke:#038048;stroke-width:1;"/><text fill="#000000" font-family="sans-serif" font-size="14" lengthAdjust="spacing" textLength="143.0352" x="868.6" y="454.7351">generated_id: String</text><ellipse cx="859.6" cy="467.6853" fill="none" rx="3" ry="3" style="stroke:#038048;stroke-width:1;"/><text fill="#000000" font-family="sans-serif" font-size="14" lengthAdjust="spacing" textLength="128.7891" x="868.6" y="471.032">description: String</text><ellipse cx="859.6" cy="483.9822" fill="none" rx="3" ry="3" style="stroke:#038048;stroke-width:1;"/><text fill="#000000" font-family="sans-serif" font-size="14" lengthAdjust="spacing" textLength="226.8096" x="868.6" y="487.3289">attributes: Map&lt;String, Object&gt;</text><line style="stroke:#181818;stroke-width:0.5;" x1="849.6" x2="1100.4096" y1="494.6306" y2="494.6306"/><ellipse cx="859.6" cy="508.2791" fill="#84BE84" rx="3" ry="3" style="stroke:#038048;stroke-width:1;"/><text fill="#000000" font-family="sans-serif" font-size="14" lengthAdjust="spacing" textLength="194.0381" x="868.6" y="511.6257">omniclass_code: String (FK)</text></g><!--class Mapper--><g class="entity" data-entity="Mapper" data-source-line="38" data-uid="ent0009" id="entity_Mapper"><rect fill="#F1F1F1" height="96.8906" rx="2.5" ry="2.5" style="stroke:#181818;stroke-width:0.5;" width="214.5762" x="296.71" y="151.11"/><ellipse cx="327.3255" cy="167.11" fill="#ADD1B2" rx="11" ry="11" style="stroke:#181818;stroke-width:1;"/><path d="M330.2943,172.7506 Q329.7162,173.0475 329.0755,173.1881 Q328.4349,173.3444 327.7318,173.3444 Q325.2318,173.3444 323.9037,171.7038 Q322.5912,170.0475 322.5912,166.9225 Q322.5912,163.7975 323.9037,162.1413 Q325.2318,160.485 327.7318,160.485 Q328.4349,160.485 329.0755,160.6413 Q329.7318,160.7975 330.2943,161.0944 L330.2943,163.8131 Q329.6693,163.235 329.0755,162.9694 Q328.4818,162.6881 327.8568,162.6881 Q326.513,162.6881 325.8255,163.7663 Q325.138,164.8288 325.138,166.9225 Q325.138,169.0163 325.8255,170.0944 Q326.513,171.1569 327.8568,171.1569 Q328.4818,171.1569 329.0755,170.8913 Q329.6693,170.61 330.2943,170.0319 L330.2943,172.7506 Z " fill="#000000"/><text fill="#000000" font-family="sans-serif" font-size="14" lengthAdjust="spacing" textLength="147.875" x="344.7956" y="171.9567">DynamicFieldMapper</text><line style="stroke:#181818;stroke-width:0.5;" x1="297.71" x2="510.2862" y1="183.11" y2="183.11"/><line style="stroke:#181818;stroke-width:0.5;" x1="297.71" x2="510.2862" y1="191.11" y2="191.11"/><ellipse cx="307.71" cy="204.7584" fill="#84BE84" rx="3" ry="3" style="stroke:#038048;stroke-width:1;"/><text fill="#000000" font-family="sans-serif" font-size="14" lengthAdjust="spacing" textLength="122.0762" x="316.71" y="208.1051">map_dataframe()</text><ellipse cx="307.71" cy="221.0553" fill="#84BE84" rx="3" ry="3" style="stroke:#038048;stroke-width:1;"/><text fill="#000000" font-family="sans-serif" font-size="14" lengthAdjust="spacing" textLength="122.4727" x="316.71" y="224.402">get_best_match()</text><ellipse cx="307.71" cy="237.3522" fill="#84BE84" rx="3" ry="3" style="stroke:#038048;stroke-width:1;"/><text fill="#000000" font-family="sans-serif" font-size="14" lengthAdjust="spacing" textLength="188.5762" x="316.71" y="240.6989">get_classification_targets()</text></g><!--class OmniManager--><g class="entity" data-entity="OmniManager" data-source-line="44" data-uid="ent0010" id="entity_OmniManager"><rect fill="#F1F1F1" height="129.4844" rx="2.5" ry="2.5" style="stroke:#181818;stroke-width:0.5;" width="239.0537" x="22.47" y="134.81"/><ellipse cx="37.47" cy="150.81" fill="#ADD1B2" rx="11" ry="11" style="stroke:#181818;stroke-width:1;"/><path d="M40.4388,156.4506 Q39.8606,156.7475 39.22,156.8881 Q38.5794,157.0444 37.8763,157.0444 Q35.3763,157.0444 34.0481,155.4038 Q32.7356,153.7475 32.7356,150.6225 Q32.7356,147.4975 34.0481,145.8413 Q35.3763,144.185 37.8763,144.185 Q38.5794,144.185 39.22,144.3413 Q39.8763,144.4975 40.4388,144.7944 L40.4388,147.5131 Q39.8138,146.935 39.22,146.6694 Q38.6263,146.3881 38.0013,146.3881 Q36.6575,146.3881 35.97,147.4663 Q35.2825,148.5288 35.2825,150.6225 Q35.2825,152.7163 35.97,153.7944 Q36.6575,154.8569 38.0013,154.8569 Q38.6263,154.8569 39.22,154.5913 Q39.8138,154.31 40.4388,153.7319 L40.4388,156.4506 Z " fill="#000000"/><text fill="#000000" font-family="sans-serif" font-size="14" lengthAdjust="spacing" textLength="207.0537" x="51.47" y="155.6567">OmniClassReferenceManager</text><line style="stroke:#181818;stroke-width:0.5;" x1="23.47" x2="260.5237" y1="166.81" y2="166.81"/><line style="stroke:#181818;stroke-width:0.5;" x1="23.47" x2="260.5237" y1="174.81" y2="174.81"/><ellipse cx="33.47" cy="188.4584" fill="#84BE84" rx="3" ry="3" style="stroke:#038048;stroke-width:1;"/><text fill="#000000" font-family="sans-serif" font-size="14" lengthAdjust="spacing" textLength="175.5674" x="42.47" y="191.8051">get_omniclass_by_code()</text><ellipse cx="33.47" cy="204.7553" fill="#84BE84" rx="3" ry="3" style="stroke:#038048;stroke-width:1;"/><text fill="#000000" font-family="sans-serif" font-size="14" lengthAdjust="spacing" textLength="127.873" x="42.47" y="208.102">get_parent_code()</text><ellipse cx="33.47" cy="221.0522" fill="#84BE84" rx="3" ry="3" style="stroke:#038048;stroke-width:1;"/><text fill="#000000" font-family="sans-serif" font-size="14" lengthAdjust="spacing" textLength="145.4482" x="42.47" y="224.3989">get_children_codes()</text><ellipse cx="33.47" cy="237.3491" fill="#84BE84" rx="3" ry="3" style="stroke:#038048;stroke-width:1;"/><text fill="#000000" font-family="sans-serif" font-size="14" lengthAdjust="spacing" textLength="139.4941" x="42.47" y="240.6957">find_similar_codes()</text><ellipse cx="33.47" cy="253.6459" fill="#84BE84" rx="3" ry="3" style="stroke:#038048;stroke-width:1;"/><text fill="#000000" font-family="sans-serif" font-size="14" lengthAdjust="spacing" textLength="118.7539" x="42.47" y="256.9926">get_description()</text></g><!--class Generator--><g class="entity" data-entity="Generator" data-source-line="52" data-uid="ent0011" id="entity_Generator"><rect fill="#F1F1F1" height="96.8906" rx="2.5" ry="2.5" style="stroke:#181818;stroke-width:0.5;" width="246.6504" x="546.67" y="151.11"/><ellipse cx="585.4435" cy="167.11" fill="#ADD1B2" rx="11" ry="11" style="stroke:#181818;stroke-width:1;"/><path d="M588.4123,172.7506 Q587.8342,173.0475 587.1935,173.1881 Q586.5529,173.3444 585.8498,173.3444 Q583.3498,173.3444 582.0217,171.7038 Q580.7092,170.0475 580.7092,166.9225 Q580.7092,163.7975 582.0217,162.1413 Q583.3498,160.485 585.8498,160.485 Q586.5529,160.485 587.1935,160.6413 Q587.8498,160.7975 588.4123,161.0944 L588.4123,163.8131 Q587.7873,163.235 587.1935,162.9694 Q586.5998,162.6881 585.9748,162.6881 Q584.631,162.6881 583.9435,163.7663 Q583.256,164.8288 583.256,166.9225 Q583.256,169.0163 583.9435,170.0944 Q584.631,171.1569 585.9748,171.1569 Q586.5998,171.1569 587.1935,170.8913 Q587.7873,170.61 588.4123,170.0319 L588.4123,172.7506 Z " fill="#000000"/><text fill="#000000" font-family="sans-serif" font-size="14" lengthAdjust="spacing" textLength="161.8203" x="604.7265" y="171.9567">TrainingDataGenerator</text><line style="stroke:#181818;stroke-width:0.5;" x1="547.67" x2="792.3204" y1="183.11" y2="183.11"/><line style="stroke:#181818;stroke-width:0.5;" x1="547.67" x2="792.3204" y1="191.11" y2="191.11"/><ellipse cx="557.67" cy="204.7584" fill="#84BE84" rx="3" ry="3" style="stroke:#038048;stroke-width:1;"/><text fill="#000000" font-family="sans-serif" font-size="14" lengthAdjust="spacing" textLength="220.6504" x="566.67" y="208.1051">generate_synthetic_examples()</text><ellipse cx="557.67" cy="221.0553" fill="#84BE84" rx="3" ry="3" style="stroke:#038048;stroke-width:1;"/><text fill="#000000" font-family="sans-serif" font-size="14" lengthAdjust="spacing" textLength="173.6465" x="566.67" y="224.402">augment_training_data()</text><ellipse cx="557.67" cy="237.3522" fill="#84BE84" rx="3" ry="3" style="stroke:#038048;stroke-width:1;"/><text fill="#000000" font-family="sans-serif" font-size="14" lengthAdjust="spacing" textLength="125.9727" x="566.67" y="240.6989">balance_dataset()</text></g><!--class Model--><g class="entity" data-entity="Model" data-source-line="58" data-uid="ent0012" id="entity_Model"><rect fill="#F1F1F1" height="113.1875" rx="2.5" ry="2.5" style="stroke:#181818;stroke-width:0.5;" width="166.668" x="549.67" y="405.74"/><ellipse cx="564.67" cy="421.74" fill="#ADD1B2" rx="11" ry="11" style="stroke:#181818;stroke-width:1;"/><path d="M567.6388,427.3806 Q567.0606,427.6775 566.42,427.8181 Q565.7794,427.9744 565.0763,427.9744 Q562.5763,427.9744 561.2481,426.3338 Q559.9356,424.6775 559.9356,421.5525 Q559.9356,418.4275 561.2481,416.7713 Q562.5763,415.115 565.0763,415.115 Q565.7794,415.115 566.42,415.2713 Q567.0763,415.4275 567.6388,415.7244 L567.6388,418.4431 Q567.0138,417.865 566.42,417.5994 Q565.8263,417.3181 565.2013,417.3181 Q563.8575,417.3181 563.17,418.3963 Q562.4825,419.4588 562.4825,421.5525 Q562.4825,423.6463 563.17,424.7244 Q563.8575,425.7869 565.2013,425.7869 Q565.8263,425.7869 566.42,425.5213 Q567.0138,425.24 567.6388,424.6619 L567.6388,427.3806 Z " fill="#000000"/><text fill="#000000" font-family="sans-serif" font-size="14" lengthAdjust="spacing" textLength="134.668" x="578.67" y="426.5867">ClassificationModel</text><line style="stroke:#181818;stroke-width:0.5;" x1="550.67" x2="715.338" y1="437.74" y2="437.74"/><line style="stroke:#181818;stroke-width:0.5;" x1="550.67" x2="715.338" y1="445.74" y2="445.74"/><ellipse cx="560.67" cy="459.3884" fill="#84BE84" rx="3" ry="3" style="stroke:#038048;stroke-width:1;"/><text fill="#000000" font-family="sans-serif" font-size="14" lengthAdjust="spacing" textLength="43.5107" x="569.67" y="462.7351">train()</text><ellipse cx="560.67" cy="475.6853" fill="#84BE84" rx="3" ry="3" style="stroke:#038048;stroke-width:1;"/><text fill="#000000" font-family="sans-serif" font-size="14" lengthAdjust="spacing" textLength="60.1426" x="569.67" y="479.032">predict()</text><ellipse cx="560.67" cy="491.9822" fill="#84BE84" rx="3" ry="3" style="stroke:#038048;stroke-width:1;"/><text fill="#000000" font-family="sans-serif" font-size="14" lengthAdjust="spacing" textLength="71.8457" x="569.67" y="495.3289">evaluate()</text><ellipse cx="560.67" cy="508.2791" fill="#84BE84" rx="3" ry="3" style="stroke:#038048;stroke-width:1;"/><text fill="#000000" font-family="sans-serif" font-size="14" lengthAdjust="spacing" textLength="117.5508" x="569.67" y="511.6257">get_confidence()</text></g><g class="entity" data-entity="GMN24" data-source-line="84" data-uid="ent0025" id="entity_GMN24"><path d="M1699.99,442.2 L1699.99,482.4656 A0,0 0 0 0 1699.99,482.4656 L2058.0188,482.4656 A0,0 0 0 0 2058.0188,482.4656 L2058.0188,452.2 L2048.0188,442.2 L1857.77,442.2 L1612.72,256.5 L1849.77,442.2 L1699.99,442.2 A0,0 0 0 0 1699.99,442.2 " fill="#FEFFDD" style="stroke:#181818;stroke-width:0.5;"/><path d="M2048.0188,442.2 L2048.0188,452.2 L2058.0188,452.2 L2048.0188,442.2 " fill="#FEFFDD" style="stroke:#181818;stroke-width:0.5;"/><text fill="#000000" font-family="sans-serif" font-size="13" lengthAdjust="spacing" textLength="337.0288" x="1705.99" y="459.2669">Complete taxonomy includes ALL OmniClass codes,</text><text fill="#000000" font-family="sans-serif" font-size="13" lengthAdjust="spacing" textLength="266.6968" x="1705.99" y="474.3997">even those without equipment examples</text></g><g class="entity" data-entity="GMN27" data-source-line="89" data-uid="ent0028" id="entity_GMN27"><path d="M1119.46,606.37 L1119.46,646.6356 A0,0 0 0 0 1119.46,646.6356 L1382.5406,646.6356 A0,0 0 0 0 1382.5406,646.6356 L1382.5406,616.37 L1372.5406,606.37 L1254.4,606.37 L1248.47,543.47 L1246.4,606.37 L1119.46,606.37 A0,0 0 0 0 1119.46,606.37 " fill="#FEFFDD" style="stroke:#181818;stroke-width:0.5;"/><path d="M1372.5406,606.37 L1372.5406,616.37 L1382.5406,616.37 L1372.5406,606.37 " fill="#FEFFDD" style="stroke:#181818;stroke-width:0.5;"/><text fill="#000000" font-family="sans-serif" font-size="13" lengthAdjust="spacing" textLength="242.0806" x="1125.46" y="623.4369">Real equipment examples cover only</text><text fill="#000000" font-family="sans-serif" font-size="13" lengthAdjust="spacing" textLength="187.2305" x="1125.46" y="638.5697">a subset of OmniClass codes</text></g><g class="entity" data-entity="GMN30" data-source-line="94" data-uid="ent0031" id="entity_GMN30"><path d="M855.42,606.37 L855.42,646.6356 A0,0 0 0 0 855.42,646.6356 L1084.5787,646.6356 A0,0 0 0 0 1084.5787,646.6356 L1084.5787,616.37 L1074.5787,606.37 L974.6,606.37 L973.28,519.15 L966.6,606.37 L855.42,606.37 A0,0 0 0 0 855.42,606.37 " fill="#FEFFDD" style="stroke:#181818;stroke-width:0.5;"/><path d="M1074.5787,606.37 L1074.5787,616.37 L1084.5787,616.37 L1074.5787,606.37 " fill="#FEFFDD" style="stroke:#181818;stroke-width:0.5;"/><text fill="#000000" font-family="sans-serif" font-size="13" lengthAdjust="spacing" textLength="208.1587" x="861.42" y="623.4369">Generated examples to fill gaps</text><text fill="#000000" font-family="sans-serif" font-size="13" lengthAdjust="spacing" textLength="125.2266" x="861.42" y="638.5697">in the training data</text></g><g class="entity" data-entity="GMN33" data-source-line="99" data-uid="ent0034" id="entity_GMN33"><path d="M1986.14,179.42 L1986.14,219.6856 L2325.8558,219.6856 L2325.8558,189.42 L2315.8558,179.42 L1986.14,179.42 " fill="#FEFFDD" style="stroke:#181818;stroke-width:0.5;"/><path d="M2315.8558,179.42 L2315.8558,189.42 L2325.8558,189.42 L2315.8558,179.42 " fill="#FEFFDD" style="stroke:#181818;stroke-width:1;"/><text fill="#000000" font-family="sans-serif" font-size="13" lengthAdjust="spacing" textLength="318.7158" x="1992.14" y="196.4869">Creates synthetic examples for OmniClass codes</text><text fill="#000000" font-family="sans-serif" font-size="13" lengthAdjust="spacing" textLength="227.4111" x="1992.14" y="211.6197">that lack real equipment examples</text></g><g class="entity" data-entity="GMN36" data-source-line="104" data-uid="ent0037" id="entity_GMN36"><path d="M1703.31,179.42 L1703.31,219.6856 L1950.6865,219.6856 L1950.6865,189.42 L1940.6865,179.42 L1703.31,179.42 " fill="#FEFFDD" style="stroke:#181818;stroke-width:0.5;"/><path d="M1940.6865,179.42 L1940.6865,189.42 L1950.6865,189.42 L1940.6865,179.42 " fill="#FEFFDD" style="stroke:#181818;stroke-width:1;"/><text fill="#000000" font-family="sans-serif" font-size="13" lengthAdjust="spacing" textLength="226.3765" x="1709.31" y="196.4869">Manages hierarchical relationships</text><text fill="#000000" font-family="sans-serif" font-size="13" lengthAdjust="spacing" textLength="225.4688" x="1709.31" y="211.6197">and provides fallback mechanisms</text></g><!--link OmniClass to Equipment--><g class="link" data-entity-1="OmniClass" data-entity-2="Equipment" data-source-line="67" data-uid="lnk13" id="link_OmniClass_Equipment"><path codeLine="67" d="M1470.34,256.38 C1446.47,275.94 1419.79,298.27 1396,319.3 C1373.83,338.89 1350.37,360.61 1328.76,381.05 " fill="none" id="OmniClass-Equipment" style="stroke:#181818;stroke-width:1;"/><polygon fill="#000000" points="1423.2475,306.1707,1431.9781,302.3988,1428.0936,297.9875,1423.2475,306.1707" style="stroke:#000000;stroke-width:1;"/><text fill="#000000" font-family="sans-serif" font-size="13" lengthAdjust="spacing" textLength="69.418" x="1436" y="307.3669">references</text><text fill="#000000" font-family="sans-serif" font-size="13" lengthAdjust="spacing" textLength="8.271" x="1453.3788" y="276.2947">1</text><text fill="#000000" font-family="sans-serif" font-size="13" lengthAdjust="spacing" textLength="23.0356" x="1312.1083" y="370.215">0..*</text></g><!--link OmniClass to Synthetic--><g class="link" data-entity-1="OmniClass" data-entity-2="Synthetic" data-source-line="68" data-uid="lnk14" id="link_OmniClass_Synthetic"><path codeLine="68" d="M1411.97,219.15 C1324.68,235.89 1208.88,266.27 1118,319.3 C1080.07,341.43 1044.96,376 1019.02,405.49 " fill="none" id="OmniClass-Synthetic" style="stroke:#181818;stroke-width:1;"/><polygon fill="#000000" points="1159.4822,305.0088,1168.9142,303.7887,1166.3957,298.4777,1159.4822,305.0088" style="stroke:#000000;stroke-width:1;"/><text fill="#000000" font-family="sans-serif" font-size="13" lengthAdjust="spacing" textLength="69.418" x="1173" y="307.3669">references</text><text fill="#000000" font-family="sans-serif" font-size="13" lengthAdjust="spacing" textLength="8.271" x="1395.9325" y="216.9581">1</text><text fill="#000000" font-family="sans-serif" font-size="13" lengthAdjust="spacing" textLength="23.0356" x="999.985" y="394.7231">0..*</text></g><!--link OmniClass to ManufCatalog--><g class="link" data-entity-1="OmniClass" data-entity-2="ManufCatalog" data-source-line="69" data-uid="lnk15" id="link_OmniClass_ManufCatalog"><path codeLine="69" d="M1539.14,256.5 C1538.47,300.5 1537.53,361.51 1536.86,405.48 " fill="none" id="OmniClass-ManufCatalog" style="stroke:#181818;stroke-width:1;"/><polygon fill="#000000" points="1542.9235,307.8658,1546.0005,298.8668,1540.1233,298.7768,1542.9235,307.8658" style="stroke:#000000;stroke-width:1;"/><text fill="#000000" font-family="sans-serif" font-size="13" lengthAdjust="spacing" textLength="74.9658" x="1552" y="307.3669">categorizes</text><text fill="#000000" font-family="sans-serif" font-size="13" lengthAdjust="spacing" textLength="8.271" x="1530.5934" y="276.0262">1</text><text fill="#000000" font-family="sans-serif" font-size="13" lengthAdjust="spacing" textLength="23.0356" x="1512.5659" y="394.7119">0..*</text></g><!--link Equipment to Model--><g class="link" data-entity-1="Equipment" data-entity-2="Model" data-source-line="71" data-uid="lnk16" id="link_Equipment_Model"><path codeLine="71" d="M1189.57,381.15 C1169.97,359.51 1146.04,338.91 1119,327.22 C1060.67,301.99 893.77,308.62 833,327.22 C782.31,342.74 732.89,375.91 695.85,405.5 " fill="none" id="Equipment-Model" style="stroke:#181818;stroke-width:1;"/><polygon fill="#000000" points="797.0061,303.1127,806.1849,305.6025,805.8954,299.7318,797.0061,303.1127" style="stroke:#000000;stroke-width:1;"/><text fill="#000000" font-family="sans-serif" font-size="13" lengthAdjust="spacing" textLength="37.0322" x="811" y="307.3669">trains</text><text fill="#000000" font-family="sans-serif" font-size="13" lengthAdjust="spacing" textLength="23.0356" x="1160.5217" y="370.3239">0..*</text><text fill="#000000" font-family="sans-serif" font-size="13" lengthAdjust="spacing" textLength="8.271" x="695.0384" y="394.7343">1</text></g><!--link Synthetic to Model--><g class="link" data-entity-1="Synthetic" data-entity-2="Model" data-source-line="72" data-uid="lnk17" id="link_Synthetic_Model"><path codeLine="72" d="M848.18,462.34 C804.28,462.34 756.21,462.34 716.66,462.34 " fill="none" id="Synthetic-Model" style="stroke:#181818;stroke-width:1;"/><polygon fill="#000000" points="733.46,450.9064,742.5051,453.8453,742.5051,447.9675,733.46,450.9064" style="stroke:#000000;stroke-width:1;"/><text fill="#000000" font-family="sans-serif" font-size="13" lengthAdjust="spacing" textLength="83.897" x="747.46" y="455.4069">supplements</text><text fill="#000000" font-family="sans-serif" font-size="13" lengthAdjust="spacing" textLength="23.0356" x="817.6163" y="474.821">0..*</text><text fill="#000000" font-family="sans-serif" font-size="13" lengthAdjust="spacing" textLength="8.271" x="724.2046" y="458.7686">1</text></g><!--link OmniManager to OmniClass--><g class="link" data-entity-1="OmniManager" data-entity-2="OmniClass" data-source-line="74" data-uid="lnk18" id="link_OmniManager_OmniClass"><path codeLine="74" d="M199.21,134.55 C221.73,113.62 249.32,93.01 279,82.02 C484.36,6 1133.56,119.43 1411.59,173.53 " fill="none" id="OmniManager-OmniClass" style="stroke:#181818;stroke-width:1;"/><polygon fill="#000000" points="809.9974,56.5371,801.0514,53.309,800.8626,59.1838,809.9974,56.5371" style="stroke:#000000;stroke-width:1;"/><text fill="#000000" font-family="sans-serif" font-size="13" lengthAdjust="spacing" textLength="59.8584" x="814" y="60.8769">manages</text><text fill="#000000" font-family="sans-serif" font-size="13" lengthAdjust="spacing" textLength="8.271" x="197.045" y="123.6942">1</text><text fill="#000000" font-family="sans-serif" font-size="13" lengthAdjust="spacing" textLength="8.271" x="1395.9427" y="168.6626">1</text></g><!--link Generator to OmniClass--><g class="link" data-entity-1="Generator" data-entity-2="OmniClass" data-source-line="75" data-uid="lnk19" id="link_Generator_OmniClass"><path codeLine="75" d="M793.73,199.55 C957.68,199.55 1245.54,199.55 1411.74,199.55 " fill="none" id="Generator-OmniClass" style="stroke:#181818;stroke-width:1;"/><polygon fill="#000000" points="1090.67,188.1164,1081.6249,185.1775,1081.6249,191.0553,1090.67,188.1164" style="stroke:#000000;stroke-width:1;"/><text fill="#000000" font-family="sans-serif" font-size="13" lengthAdjust="spacing" textLength="29.7832" x="1094.67" y="192.6169">uses</text><text fill="#000000" font-family="sans-serif" font-size="13" lengthAdjust="spacing" textLength="8.271" x="801.1225" y="196.1868">1</text><text fill="#000000" font-family="sans-serif" font-size="13" lengthAdjust="spacing" textLength="8.271" x="1395.6885" y="196.1637">1</text></g><!--link Generator to ManufCatalog--><g class="link" data-entity-1="Generator" data-entity-2="ManufCatalog" data-source-line="76" data-uid="lnk20" id="link_Generator_ManufCatalog"><path codeLine="76" d="M793.58,241.54 C875.52,266.7 985.96,296.78 1086,311.3 C1117.46,315.86 1342.37,307.77 1372,319.3 C1417.99,337.18 1459.85,373.95 1489.78,405.6 " fill="none" id="Generator-ManufCatalog" style="stroke:#181818;stroke-width:1;"/><polygon fill="#000000" points="1095.8667,304.0132,1087.7369,299.078,1086.3887,304.7992,1095.8667,304.0132" style="stroke:#000000;stroke-width:1;"/><text fill="#000000" font-family="sans-serif" font-size="13" lengthAdjust="spacing" textLength="29.7832" x="1100" y="307.3669">uses</text><text fill="#000000" font-family="sans-serif" font-size="13" lengthAdjust="spacing" textLength="8.271" x="801.363" y="240.7124">1</text><text fill="#000000" font-family="sans-serif" font-size="13" lengthAdjust="spacing" textLength="8.271" x="1475.6765" y="394.8465">1</text></g><!--link Generator to Synthetic--><g class="link" data-entity-1="Generator" data-entity-2="Synthetic" data-source-line="77" data-uid="lnk21" id="link_Generator_Synthetic"><path codeLine="77" d="M787.77,248.5 C812.07,261.34 836.49,276.66 857,294.3 C893.34,325.55 921.1015,365.134 942.1215,400.454 " fill="none" id="Generator-to-Synthetic" style="stroke:#181818;stroke-width:1;stroke-dasharray:7.0,7.0;"/><polygon fill="#181818" points="945.19,405.61,944.0246,395.8303,942.6329,401.3133,937.1499,399.9217,945.19,405.61" style="stroke:#181818;stroke-width:1;"/><polygon fill="#000000" points="881.5631,306.3742,877.1792,297.9342,873.0556,302.1229,881.5631,306.3742" style="stroke:#000000;stroke-width:1;"/><text fill="#000000" font-family="sans-serif" font-size="13" lengthAdjust="spacing" textLength="48.3247" x="887" y="307.3669">creates</text><text fill="#000000" font-family="sans-serif" font-size="13" lengthAdjust="spacing" textLength="8.271" x="795.0767" y="268.1606">1</text></g><!--link Mapper to Model--><g class="link" data-entity-1="Mapper" data-entity-2="Model" data-source-line="79" data-uid="lnk22" id="link_Mapper_Model"><path codeLine="79" d="M446,248.39 C485,292.79 543.05,358.9 584.11,405.66 " fill="none" id="Mapper-Model" style="stroke:#181818;stroke-width:1;"/><polygon fill="#000000" points="506.2993,306.6234,502.5391,297.8877,498.1225,301.7662,506.2993,306.6234" style="stroke:#000000;stroke-width:1;"/><text fill="#000000" font-family="sans-serif" font-size="13" lengthAdjust="spacing" textLength="56.6846" x="512" y="307.3669">supports</text><text fill="#000000" font-family="sans-serif" font-size="13" lengthAdjust="spacing" textLength="8.271" x="443.1247" y="268.0358">1</text><text fill="#000000" font-family="sans-serif" font-size="13" lengthAdjust="spacing" textLength="8.271" x="569.3503" y="394.5131">1</text></g><!--link OmniManager to Model--><g class="link" data-entity-1="OmniManager" data-entity-2="Model" data-source-line="80" data-uid="lnk23" id="link_OmniManager_Model"><path codeLine="80" d="M261.8,264.18 C350.94,311.53 470.36,374.95 549.39,416.93 " fill="none" id="OmniManager-Model" style="stroke:#181818;stroke-width:1;"/><polygon fill="#000000" points="353.4158,305.2118,346.8061,298.3734,344.049,303.5645,353.4158,305.2118" style="stroke:#000000;stroke-width:1;"/><text fill="#000000" font-family="sans-serif" font-size="13" lengthAdjust="spacing" textLength="56.6846" x="358" y="307.3669">supports</text><text fill="#000000" font-family="sans-serif" font-size="13" lengthAdjust="spacing" textLength="8.271" x="266.4808" y="284.1431">1</text><text fill="#000000" font-family="sans-serif" font-size="13" lengthAdjust="spacing" textLength="8.271" x="533.3256" y="409.126">1</text></g><!--link Generator to GMN33--><g class="link" data-entity-1="Generator" data-entity-2="GMN33" data-source-line="99" data-uid="lnk35" id="link_Generator_GMN33"><path d="M793.62,168.57 C940.33,133.54 1192.9,78.65 1413.5,57.81 C1472.9,52.2 1893.53,40.07 1950.5,57.81 C2027.47,81.78 2101.07,145.74 2135.57,178.93 " fill="none" id="Generator-GMN33" style="stroke:#181818;stroke-width:1;stroke-dasharray:7.0,7.0;"/></g><!--link OmniManager to GMN36--><g class="link" data-entity-1="OmniManager" data-entity-2="GMN36" data-source-line="104" data-uid="lnk38" id="link_OmniManager_GMN36"><path d="M192.14,134.51 C219.33,104.79 255.7,72.9 296.5,57.81 C332.19,44.61 1630.81,44.61 1666.5,57.81 C1731.35,81.8 1786.69,145.76 1812.11,178.94 " fill="none" id="OmniManager-GMN36" style="stroke:#181818;stroke-width:1;stroke-dasharray:7.0,7.0;"/></g><rect fill="#DDDDDD" height="140.375" rx="7.5" ry="7.5" style="stroke:#000000;stroke-width:1;" width="361.8184" x="1945.0375" y="664.6356"/><text fill="#000000" font-family="sans-serif" font-size="14" font-weight="bold" lengthAdjust="spacing" textLength="338.0098" x="1950.0375" y="682.6307">Training Process with Complete OmniClass</text><text fill="#000000" font-family="sans-serif" font-size="14" lengthAdjust="spacing" textLength="4.4502" x="1950.0375" y="698.9276">&#160;</text><text fill="#000000" font-family="sans-serif" font-size="14" lengthAdjust="spacing" textLength="274.9141" x="1950.0375" y="715.2245">1. Load complete OmniClass taxonomy</text><text fill="#000000" font-family="sans-serif" font-size="14" lengthAdjust="spacing" textLength="271.7422" x="1950.0375" y="731.5214">2. Load available equipment examples</text><text fill="#000000" font-family="sans-serif" font-size="14" lengthAdjust="spacing" textLength="324.4404" x="1950.0375" y="747.8182">3. Identify OmniClass codes without examples</text><text fill="#000000" font-family="sans-serif" font-size="14" lengthAdjust="spacing" textLength="351.8184" x="1950.0375" y="764.1151">4. Generate synthetic examples for missing codes</text><text fill="#000000" font-family="sans-serif" font-size="14" lengthAdjust="spacing" textLength="254.2695" x="1950.0375" y="780.412">5. Train model on combined dataset</text><text fill="#000000" font-family="sans-serif" font-size="14" lengthAdjust="spacing" textLength="295.5039" x="1950.0375" y="796.7089">6. Use hierarchical fallbacks for prediction</text><!--SRC=[hLPDZzis4BthLmnysSH9XAOVEHZ50i5kDYYwsmH9UXOeQYInfKYLf9nrY_tl7L8IzM6voA47mpOvd7dpvisGLt2BfL08haRWkccrGkLiqZB-9wiGTf-mH8EA8zmontRmJmB09RCMTZTaBj4XV6YKk0bhNzYZLhevxO3PsR8_1F220XHuWC_E25KDIuerwwK2BJUYTKAhrKxB28hBLcwUw3EXUc2gAnbtdK437uqkEkxWXh1BNGLOmM1OYCYQsQbrqDv7je5KKuOXRBQHsNOQJybJCh7xnJ2XQEESt7T_TQ9jA5juzyWyppQ0dvP7v3YkP8vLAmZ_aLL3WEKt4x-TA3ox-_NvO67H70N7J8gIzk-aPcxOITDKaxeCC4UdyiwXFIlQvvCY4oVuCjjfUSosGeM6EImoKVoFw2Te1z97-tDlyH8-v7yWTzTdTGko5gNWp8SZdDPXiwZVxOdq8lYTG5cGnnRD83x_SoQxDYkezAKXSJrx7fDqMOxMPGrpl5uiyqLWAhcXLHjCbep6veiDJBedx2Qsvl1_HgtB9gRoKo1h4NpMVajGjP05ROKT6xTehXIP5OsGpAos_AbPlJRmZvtX6-DzNtJTOu__paIHsL4l6GuoYX5PL_LDClWDjCVTd4b658L5Ysu3pxBY3xvx-eBwNn59y1wzjWOBmLtyZqScEyAv94-hKXI-G4DKqjdLE9KDoX3FrgAroJHGTwztyEeLxBvBq_rkDXGET68ejuNhYmUcllh60ukPUG0Y0IjjnD_XK3B57ypzGJhVStFeMV6MKznjGzkrL3JlAVYTgtJ4GryJo8EVSBJjhITPN33jx6MxLNwRfcbwlI2E6oGQ0j2Xg-SEPnbfuqPkDxBPiAJw_wQzQtnivN11-FkPeXZDU9qeseLSEwSRqEMK9UadNifkk8f1A2uxQZPuUty_8oGqv4iwWKTKv5vRXA-2lZittIamzb62gW0VDba7ZyKdLv-GoOt35Ej8IMibJsJ4ADMScco1l8TpEKeadXoy7- -0AO3JD6saX8grdWIX0bzZhuDlwxLl8wewO8XLzkmDDOs3P0fHaWpMS872C0UIhWNgeytSBuQToO7yF0mwhWLXCJHGENbRTZynHwv80KVXgraoANCVk45UCoLiCuzr1M-BmbDDYCBhhH2ieal6CsLh_NN93pcb_hU9nCgx21WftduVtoSVUukW43X_-Ett_R1ydSAzPaLuIQwUXgCUoUhxmOeT6TqDkSGjtW1-IE4N6enEbASryvDI9_CVqwYCI_Lh1CrmocQitayfX0pxrn09r0FFQV0MCDm4PFGcXT-fDnQL6SdltGvpdYhbAz2J-2y0]--></g></svg>